<?xml version="1.0" encoding="utf-8" ?>
<svg baseProfile="full" height="300mm" version="1.1" viewBox="0,0,200,300" width="200mm" xmlns="http://www.w3.org/2000/svg" xmlns:ev="http://www.w3.org/2001/xml-events" xmlns:xlink="http://www.w3.org/1999/xlink"><defs /><rect fill="#222222" height="300" width="200" x="0" y="0" /><text fill="#FFFFFF" style="font-size:12px; font-family:Arial; font-weight:bold;" x="10" y="20">Over 3km Runs</text><text fill="#FFFFFF" style="font-size:4px; font-family:Arial" x="10" y="280">ATHLETE</text><text fill="#FFFFFF" style="font-size:9px; font-family:Arial" x="10" y="290">L</text><text fill="#FFFFFF" style="font-size:4px; font-family:Arial" x="120" y="280">STATISTICS</text><text fill="#FFFFFF" style="font-size:3px; font-family:Arial" x="120" y="285">Number: 18</text><text fill="#FFFFFF" style="font-size:3px; font-family:Arial" x="120" y="290">Weekly: 3.0</text><text fill="#FFFFFF" style="font-size:3px; font-family:Arial" x="141" y="285">Total: 96.2 km</text><text fill="#FFFFFF" style="font-size:3px; font-family:Arial" x="141" y="290">Avg: 5.3 km</text><text fill="#FFFFFF" style="font-size:3px; font-family:Arial" x="167" y="285">Min: 3.0 km</text><text fill="#FFFFFF" style="font-size:3px; font-family:Arial" x="167" y="290">Max: 10.1 km</text><polyline fill="none" points="24.92098737321794,64.819979486987 25.8834016751498,68.21856265352108 27.08641955256462,69.91785257891752 29.973662458360195,71.90035609551705 32.139094637706876,72.75 35.02633754257113,72.75 37.67297687288374,71.90035609551705 40.319616202265024,69.91785257891752 41.76323765423149,67.36891727615148 42.485048381611705,63.40390186337754 39.838409051299095,38.19759176648222 38.63539117388427,36.21506268181838 36.95116614643484,34.232532092835754 34.78573396708816,32.81643789424561 32.37969821225852,32.25 29.2518517319113,32.53321896167472 26.364608826115727,33.6660945052281 24.439780223183334,35.64862552424893 22.75555519387126,38.76402837224305 22.514951619319618,41.87942750588991 24.92098737321794,65.10319492011331 25.642798100598156,67.93534755846485 27.808230279013515,70.48428230849095 30.4548696083948,72.18357076100074 33.10150893777609,72.75 36.22935541998595,72.46678539551795 39.1165983248502,70.76749712787569 41.04142692871392,68.78499275096692 42.24444480519742,66.23605634341948 42.485048381611705,63.12068624608219 40.07901262585074,38.76402837224305 38.87599474936724,36.498281214153394 37.43237329646945,34.51575084030628 35.02633754257113,32.81643789424561 32.86090536415577,32.25 29.973662458360195,32.25 26.364608826115727,33.94931331393309 24.19917664770037,35.93184411851689 22.75555519387126,39.3304648543708 22.514951619319618,42.162645424716175 25.161590949632227,66.51927162287757 26.364608826115727,69.0682077545207 27.808230279013515,70.48428230849095 29.973662458360195,71.90035609551705 32.86090536415577,72.75 35.507544693537056,72.75 37.91358044650406,71.61714139929973 40.56021977774799,69.35142272640951 41.76323765423149,67.36891727615148 42.485048381611705,63.40390186337754 39.838409051299095,38.48081008531153 38.63539117388427,35.93184411851689 36.71056257002056,33.94931331393309 34.304526817053556,32.53321896167472 31.657887485809624,32.25 28.28943742904812,32.81643789424561 25.40219452418387,34.51575084030628 23.477365921251476,37.06471818871796 22.514951619319618,40.46333745121956 42.485048381611705,63.68711744924076 40.319616202265024,40.46333745121956 39.59780547581613,37.34793662908487 38.15418402291834,35.36540689948015 35.98875184357166,33.38287566578947 33.58271608967334,32.53321896167472 30.214266032911837,32.25 27.808230279013515,33.099656795850024 25.161590949632227,34.798969557508826 23.477365921251476,37.06471818871796 22.75555519387126,39.61368304933421 22.75555519387126,42.44586331327446 25.161590949632227,66.23605634341948 26.124005250632763,68.50177771784365 27.808230279013515,70.76749712787569 30.936076758429408,72.46678539551795 33.58271608967334,72.75 36.71056257002056,72.18357076100074 38.87599474936724,71.05071191582829 41.04142692871392,68.78499275096692 42.24444480519742,66.23605634341948 42.485048381611705,63.12068624608219 40.07901262585074,39.04724662913941 38.87599474936724,36.498281214153394 37.19176972005516,34.51575084030628 34.78573396708816,32.81643789424561 31.89849106129259,32.25 28.77064458001405,32.53321896167472 25.8834016751498,34.232532092835754 23.958573071286082,36.21506268181838 22.75555519387126,39.04724662913941 22.514951619319618,41.87942750588991 25.161590949632227,66.23605634341948 26.364608826115727,69.0682077545207 28.28943742904812,71.05071191582829 31.176680334843695,72.46678539551795 33.823319665156305,72.75 37.19176972005516,72.18357076100074 39.59780547581613,70.48428230849095 41.04142692871392,68.78499275096692 42.24444480519742,65.9528410336934 42.485048381611705,62.554254920221865 39.838409051299095,38.48081008531153 38.15418402291834,35.08218824444339 36.22935541998595,33.6660945052281 34.06392324063927,32.53321896167472 31.176680334843695,32.25 28.77064458001405,32.53321896167472 25.8834016751498,34.232532092835754 23.71796949673444,36.781499716918916 22.75555519387126,39.04724662913941 22.514951619319618,42.162645424716175 24.92098737321794,64.819979486987 25.40219452418387,67.08570208912715 27.08641955256462,69.91785257891752 29.2518517319113,71.61714139929973 32.139094637706876,72.75 35.26694111712277,72.75 38.15418402291834,71.61714139929973 40.56021977774799,69.63463766756468 42.003841230645776,67.08570208912715 42.485048381611705,64.25354852946475 40.319616202265024,40.46333745121956 39.35720189940184,37.06471818871796 36.95116614643484,34.232532092835754 34.06392324063927,32.53321896167472 30.69547318480909,32.25 27.56762670353055,33.099656795850024 25.8834016751498,33.94931331393309 24.19917664770037,35.93184411851689 22.996158770285547,38.19759176648222 22.514951619319618,40.18011934775859 24.92098737321794,64.53676402405836 25.8834016751498,67.93534755846485 27.56762670353055,70.48428230849095 30.214266032911837,72.18357076100074 33.58271608967334,72.75 35.98875184357166,72.46678539551795 38.63539117388427,71.33392667281441 40.56021977774799,69.63463766756468 42.003841230645776,66.80248687113635 42.485048381611705,64.53676402405836 42.24444480519742,61.987823471892625 31.417283911257982,32.25 29.2518517319113,32.53321896167472 42.485048381611705,62.2710392116569 40.07901262585074,39.89690121426247 39.1165983248502,36.781499716918916 37.43237329646945,34.51575084030628 34.304526817053556,32.81643789424561 30.936076758429408,32.25 28.04883385449648,32.81643789424561 25.8834016751498,33.94931331393309 23.958573071286082,36.21506268181838 22.996158770285547,38.76402837224305 22.514951619319618,40.74655552371405 24.92098737321794,64.819979486987 26.124005250632763,68.78499275096692" stroke="#4dd2ff" stroke-linecap="round" stroke-linejoin="round" stroke-width="0.5"><title>2024-07-05 3.3km</title><desc>11814633384</desc></polyline><polyline fill="none" points="75.95764794759452,32.25 72.87294384371489,33.0879374826327 70.02552466932684,35.32243610266596 68.12724522035569,38.67418040125631 68.12724522035569,41.74660884565674 70.50009453203529,64.92935992847197 71.21194932516664,68.00175707275048 72.63565891236067,69.9569169844035 74.77122329268605,71.6327671573963 77.14407260529697,72.75 79.75420684739947,72.75 82.12705615814775,72.19138363958336 84.49990547075868,70.5155338300392 85.9236150579527,68.56037434190512 87.11003971286118,65.76728678541258 87.11003971286118,62.694886977085844 84.73719040118158,39.791427532210946 83.5507657462731,36.160372585989535 80.70334657188505,33.64656231878325 76.90678767301142,32.25 72.87294384371489,33.0879374826327 69.78823973890394,35.60174829396419 68.12724522035569,38.9534922298044 68.12724522035569,42.30523180565797 70.50009453203529,64.92935992847197 71.68651918787509,68.8396829306148 73.58479863684624,71.07415055367164 75.72036301810294,72.19138363958336 78.33049726020545,72.75 81.1779164345935,72.47069183480926 84.26262053847313,70.794842206873 85.9236150579527,68.8396829306148 86.87275478243828,66.04659567750059 87.11003971286118,63.25350539665669 84.73719040118158,41.18798576435074 84.02533560805023,37.277620806824416 82.60162602178752,35.32243610266596 79.75420684739947,33.0879374826327 76.90678767301142,32.25 74.29665343090892,32.52931252354756 71.92380411922932,33.64656231878325 69.78823973890394,35.32243610266596 68.60181508306414,37.5569327857811 67.88996028807014,40.07073923898861 70.50009453203529,65.20866891066544 71.21194932516664,67.72244839277118 72.39837398193777,69.67760851699859 74.53393836226314,71.6327671573963 77.14407260529697,72.47069183480926 79.75420684739947,72.75 82.8389109512791,71.6327671573963 84.9744753325358,69.9569169844035 86.39818491972983,67.72244839277118 87.11003971286118,65.20866891066544 84.73719040118158,40.629362562671304 84.26262053847313,37.836244735401124 82.8389109512791,35.32243610266596 80.94063150230795,33.64656231878325 77.85592739842832,32.52931252354756 74.77122329268605,32.52931252354756 71.92380411922932,33.64656231878325 70.02552466932684,35.04312388156541 68.60181508306414,37.836244735401124 67.88996028807014,40.07073923898861 70.50009453203529,65.20866891066544 70.97466439474374,67.4431396825239 72.63565891236067,69.9569169844035 74.53393836226314,71.6327671573963 77.14407260529697,72.47069183480926 79.99149177782238,72.75 82.60162602178752,71.91207541315816 84.9744753325358,69.9569169844035 86.63546985015273,67.4431396825239 87.11003971286118,64.65005091577768 84.73719040118158,41.18798576435074 84.26262053847313,37.836244735401124 82.60162602178752,35.04312388156541 80.46606164053082,33.36724991584197 77.85592739842832,32.52931252354756 74.29665343090892,32.52931252354756 71.92380411922932,33.64656231878325 70.02552466932684,35.04312388156541 68.60181508306414,37.836244735401124 67.88996028807014,40.07073923898861 70.50009453203529,64.92935992847197 71.21194932516664,68.00175707275048 72.39837398193777,69.9569169844035 74.53393836226314,71.6327671573963 77.14407260529697,72.75 80.70334657188505,72.47069183480926 83.07619588356465,71.6327671573963 85.21176026389003,69.67760851699859 86.63546985015273,67.16383094154298 87.11003971286118,64.65005091577768 84.73719040118158,41.467297319555655 84.02533560805023,37.5569327857811 82.60162602178752,35.04312388156541 79.75420684739947,33.0879374826327 76.90678767301142,32.25 73.11022877506912,33.0879374826327 70.50009453203529,34.4844993466977 69.07638494484127,36.439684686018154 68.12724522035569,38.67418040125631 67.88996028807014,40.35005091619678 70.50009453203529,65.76728678541258 71.68651918787509,68.8396829306148 73.34751370549202,70.794842206873 75.95764794759452,72.19138363958336 78.56778219155967,72.75 82.12705615814775,72.19138363958336 84.02533560805023,70.794842206873 86.16089998744428,68.28106572199613 87.11003971286118,65.76728678541258 87.11003971286118,62.974196202354506 84.73719040118158,40.07073923898861 84.02533560805023,37.277620806824416 82.60162602178752,35.04312388156541 80.2287767091766,33.36724991584197 77.14407260529697,32.25 74.05936849862337,32.52931252354756 71.92380411922932,33.36724991584197 70.02552466932684,35.32243610266596 68.60181508306414,37.5569327857811 68.12724522035569,39.791427532210946 70.50009453203529,65.20866891066544 71.21194932516664,68.00175707275048 72.63565891236067,70.23622542293742 74.77122329268605,71.6327671573963 77.85592739842832,72.75 80.46606164053082,72.47069183480926 82.8389109512791,71.6327671573963 84.9744753325358,69.9569169844035 86.63546985015273,67.16383094154298 87.11003971286118,64.65005091577768 84.73719040118158,40.629362562671304 83.788050676696,36.99830879736692 81.65248629637063,34.20518703456037 78.09321232885122,32.52931252354756 75.4830780858174,32.25 72.16108904965222,33.36724991584197 70.73737946338952,34.4844993466977 69.07638494484127,36.439684686018154 68.60181508306414,37.5569327857811 67.88996028807014,40.35005091619678 70.26280960068107,64.65005091577768 71.21194932516664,68.00175707275048 73.34751370549202,70.794842206873 75.4830780858174,72.19138363958336 78.33049726020545,72.75 80.94063150230795,72.47069183480926 83.31348081398755,71.35345887043513 84.9744753325358,69.9569169844035 86.39818491972983,67.72244839277118 87.11003971286118,65.20866891066544 84.26262053847313,38.11555665382184 82.8389109512791,35.32243610266596 80.94063150230795,33.64656231878325 78.33049726020545,32.52931252354756 75.4830780858174,32.25 72.63565891236067,33.0879374826327 70.50009453203529,34.76381162926555 68.83910001348704,36.71899675694294 68.12724522035569,39.51211579423398 70.26280960068107,64.37074187234975 71.21194932516664,68.00175707275048 72.63565891236067,69.9569169844035 75.00850822404027,71.91207541315816 78.33049726020545,72.75 80.70334657188505,72.47069183480926 83.5507657462731,71.35345887043513 85.44904519524425,69.67760851699859 86.63546985015273,67.4431396825239 87.11003971286118,64.65005091577768 84.73719040118158,39.791427532210946 84.02533560805023,37.277620806824416 81.88977122772485,34.4844993466977 79.51692191511393,32.80862501822412 75.95764794759452,32.25 72.87294384371489,33.0879374826327 70.73737946338952,34.4844993466977 69.31366987619549,36.160372585989535 68.36453015170991,38.39486854313873 67.88996028807014,40.07073923898861" stroke="#4dd2ff" stroke-linecap="round" stroke-linejoin="round" stroke-width="0.5"><title>2024-06-26 3.9km</title><desc>11744480107</desc></polyline><polyline fill="none" points="130.8029933401849,32.60142738479772 132.70615136413835,32.55749897833448 135.09442810015753,32.25 135.8034477562178,32.25 135.99003187613562,32.29392843981623 136.17661599628627,32.46964215117623 136.32588329236023,32.733212575520156 136.28856646828353,35.01748240538291 136.32588329236023,35.50069168113987 136.47515058820136,36.11568447132595 136.62441788427532,38.883140478108544 136.58710106019862,39.585983438941184 136.69905153219588,41.167375643970445 136.66173470835201,42.880543569277506 136.84831882826984,45.29653731005965 136.81100200442597,46.219003848178545 136.8856356521137,47.5807363288186 136.84831882826984,48.63497768776142 136.9229524761904,50.128481585299596 136.8856356521137,50.78737861389527 137.07221977226436,53.33510371306329 137.07221977226436,53.73043893094291 137.18417024426162,54.696812284819316 137.07221977226436,55.53140559984604 137.29612071625888,57.33236426618532 137.14685342018493,58.913687228865456 137.2214870681055,59.35294251260348 137.29612071625888,61.59313705438399 137.37075436417945,61.988464217749424 137.33343754033558,62.6473419664253 137.40807118825614,63.174443394178525 137.33343754033558,64.53611891006585 137.40807118825614,64.71181864343816 137.40807118825614,65.59031616782886 137.55733848409727,66.90805888432078 137.4827048361767,67.7865516487218 137.5946553084068,69.41175824365928 137.5200216602534,70.59771570024895 137.66928895609453,71.65189719334012 137.5946553084068,72.48645559768192 137.2588038921822,72.61822782026138 136.54978423635475,72.61822782026138 135.57954681222327,72.75 134.79589350824244,72.66215188481146 133.90028973226435,72.44253151403973 132.9300523083657,72.26683513159514 131.43737934809178,72.17898691183655 130.5790923961904,71.95936627915944 129.123736260226,71.78366968716728 126.77277634828351,71.6958213627513 125.24278656416573,71.38835207716329 124.34718278795481,71.30050366700743 123.89938089996576,71.30050366700743 122.74255935614929,71.16873101599049 121.66037146002054,70.9051855855505 120.95135180396028,70.94910983595764 120.24233214790002,70.86126133057405 119.27209472400136,70.55379141206504 118.5257582438644,70.68556426273426 117.55552081996575,70.68556426273426 116.47333292406984,70.46594282091246 115.05529361194931,70.46594282091246 113.8611552438233,70.29024558182573 112.92823464400135,69.98277523001889 111.2489775638096,69.85100215062266 110.129472843837,69.58745586356963 107.51729516382329,69.27998497858061 107.33071104367264,68.97251386049902 107.33071104367264,68.75289149052696 107.77851293166168,67.65477785549592 107.74119610781781,67.30338086391566 107.81582975597121,66.64451068372 107.66656245966442,64.49219396474655 108.18899799580686,61.46136124766781 108.03973069996573,60.5828547742567 108.0770475238096,60.05574997625081 108.18899799580686,59.528644492675085 108.52484941179864,58.25480341081857 109.38313636393286,56.45384884328814 109.8682550759986,54.91644227114739 110.31605696398765,53.862217251298716 110.7265420279,52.72013705197605 111.13702709204517,51.84161163191311 111.36092803580686,51.138789924560115 112.10726451594383,49.51351005869219 112.33116545970552,48.63497768776142 112.66701687593013,48.195710788073484 112.85360099584796,47.6685898800788 113.3387197079137,47.05361462090514 114.15968983597122,45.6918803693261 114.12237301212735,45.6918803693261 114.30895713204518,45.516172390576685 114.7567590198014,44.76941263151821 115.12992725986987,43.97872432784061 116.13748150807805,42.22163368578185 116.77186751598492,41.3430855080951 117.63015446811914,40.0252596703649 118.48844142002054,38.48779077711515 118.82429283601232,37.69709021781455 119.27209472400136,37.03817190675181 119.79453025991097,35.67640400203527 120.50354991620407,35.10533868015045 121.88427240401506,32.9089260964538 122.29475746816024,32.64535578645882 122.48134158807807,32.60142738479772" stroke="#4dd2ff" stroke-linecap="round" stroke-linejoin="round" stroke-width="0.5"><title>2024-06-17 3.2km</title><desc>11672403120</desc></polyline><polyline fill="none" points="187.75,38.19790729880333 147.25,66.80209270119667" stroke="#4dd2ff" stroke-linecap="round" stroke-linejoin="round" stroke-width="0.5"><title>2024-05-09 8.0km</title><desc>9223370321595310162</desc></polyline><polyline fill="none" points="12.25,94.97715498134494 20.776315793395042,98.74086439795792 15.447368420660496,92.4680146900937 38.89473684132099,106.26827956177294 52.75,110.0319853099063 44.22368421405554,108.7774168625474 15.447368420660496,103.75914171803743" stroke="#4dd2ff" stroke-linecap="round" stroke-linejoin="round" stroke-width="0.5"><title>2024-05-08 6.2km</title><desc>9223370321684028463</desc></polyline><polyline fill="none" points="77.50000002980232,81.0 71.2443999350071,121.5 83.75560007989407,106.77273286134005 83.75560007989407,110.45455024763942" stroke="#4dd2ff" stroke-linecap="round" stroke-linejoin="round" stroke-width="0.5"><title>2024-05-07 6.1km</title><desc>9223370321771754451</desc></polyline><polyline fill="none" points="72.58488619327545,129.75 97.16045525670052,170.25 57.839544743299484,170.25" stroke="#4dd2ff" stroke-linecap="round" stroke-linejoin="round" stroke-width="0.5"><title>2024-05-02 6.8km</title><desc>9223370322200251369</desc></polyline><polyline fill="none" points="112.375,161.9184309625998 102.25,165.32369315624237 142.75,150.00000747479498 136.96428570896387,155.10790436062962 141.30357141792774,144.89210892654955 142.75,134.67630684468895 142.75,136.3789409827441" stroke="#4dd2ff" stroke-linecap="round" stroke-linejoin="round" stroke-width="0.5"><title>2024-05-01 4.0km</title><desc>9223370322286947528</desc></polyline><polyline fill="none" points="147.25,154.10979942325503 187.75,145.89020057674497 175.18103448301554,150.82196042127907 186.3534482717514,154.10979942325503" stroke="#4dd2ff" stroke-linecap="round" stroke-linejoin="round" stroke-width="0.5"><title>2024-04-30 5.3km</title><desc>9223370322373916531</desc></polyline><polyline fill="none" points="12.25,195.93472626793664 13.972047243732959,197.81166023784317 17.41614173189737,197.0608872602461 18.75551181100309,198.11196920106886 33.29724409431219,185.57395923056174 48.92322834627703,185.72411638125777 51.98464566911571,188.80233079823665 52.62244094465859,207.19625380076468 48.92322834627703,211.5506620311644 31.128740157466382,211.70081355096772 28.13110236194916,209.89899316593073 18.309055117657408,209.44853733747732 17.735039369901642,199.76366617128951 20.3499999998603,196.3851908846409 33.488582676742226,185.57395923056174 48.73188976361416,185.72411638125777 51.665748031577095,188.65217431494966 52.62244094465859,192.25592093379237 52.23976377933286,208.32239648437826 48.47677165316418,211.85096503788373 31.57519685011357,211.85096503788373 28.51377952727489,209.9740691089537 17.543700787005946,208.99808121594833 18.117716534994543,199.0128953094245 32.40433070831932,185.94935204647481 49.36968503892422,185.87427349953214 52.62244094465859,190.07865959370974 52.30354330688715,206.5205673117889 51.92086614132859,208.6977769721998 48.604330708505586,211.77588929852936 31.57519685011357,211.62573779502418 28.13110236194916,209.8239172147005 18.436614172998816,209.37346133746905 17.41614173189737,207.64671109378105 17.607480314560235,201.7156666041701 18.117716534994543,199.2381266534212 32.59566929121502,186.09950911585474 48.604330708505586,185.6490378099843 51.98464566911571,188.7272525606677 52.30354330688715,208.24732036248315 48.79566929116845,211.70081355096772 47.13740157475695,211.85096503788373 32.212992125889286,211.92604076943826 28.449999999720603,210.04914504371118 18.500393700553104,209.44853733747732 17.224803149234504,205.3944216988748 17.671259842347354,203.14212498022243 18.69173228321597,202.76674148184247 17.543700787005946,202.541511285468 17.607480314560235,201.03997476940276 20.286220472073182,196.76057784131262 33.105905511649325,185.94935204647481 49.68858267716132,186.39982315682573 52.43110236222856,189.62819087563548 52.558661417337134,207.04610130458605 48.987007873598486,211.2503588940017 31.064960629679263,211.85096503788373 26.217716535320505,209.67376528825844 18.69173228321597,209.44853733747732 17.671259842347354,208.32239648437826 17.479921259684488,201.7156666041701 18.309055117657408,198.71258673683042 32.59566929121502,185.94935204647481 49.050787401385605,186.024430585152 52.23976377933286,189.5531127275899 52.75,195.4091838450986 52.30354330688715,206.74579621461453 49.114566929172724,211.4005104788812 31.001181102124974,211.85096503788373 28.19488188950345,209.89899316593073 18.117716534994543,209.2983853293117 18.309055117657408,198.9378181786742" stroke="#4dd2ff" stroke-linecap="round" stroke-linejoin="round" stroke-width="0.5"><title>2024-04-27 9.8km</title><desc>1714200483443</desc></polyline><polyline fill="none" points="57.25,194.90784849203192 57.883802816970274,197.0714661135571 59.15140845067799,197.96675417444203 61.116197183029726,197.74293226841837 62.57394366199151,197.2206808712217 63.46126760565676,197.96675417444203 65.4260563380085,197.14607349637663 67.64436619728804,195.5047092048917 68.21478873258457,194.60941794147948 69.48239436629228,193.63951775885653 72.65140845091082,190.5059847519151 74.61619718326256,188.7153880575206 77.08802816923708,186.25330999691505 80.57394366222434,185.65644126193365 85.0739436619915,185.73104988213163 86.84859154932201,185.35800670046592 88.49647887330502,185.88026709819678 92.74295774661005,185.95487569412217 94.32746478868648,186.17870143335313 96.92605633824132,189.01382116321474 97.5598591552116,192.74422406993108 97.5598591552116,196.92225132341264 97.5598591552116,201.47328786825528 97.5598591552116,205.80047503806418 96.92605633824132,208.7101200815523 93.8838028172031,211.6197528266348 89.57394366175868,211.84357022069162 85.32746478868648,211.76896443084115 80.44718309887685,211.99278177629458 76.20070422557183,211.76896443084115 74.17253521131352,210.5006647647824 71.19366197171621,209.67999902978772 66.82042253552936,209.67999902978772 63.46126760565676,209.5307869730168 62.89084507059306,208.63551395206014 62.51056338031776,204.00991812895518 62.89084507059306,199.90654097840888 63.714788732584566,198.56361223495333 65.48943661991507,196.54921420686878 67.39084507082589,195.43010164395673 70.81338028167374,192.74422406993108 73.79225352127105,189.8345115375123 76.77112676086836,186.92478670499986 78.54577464796603,185.80565849429695 83.04577464796603,185.95487569412217 86.46830985927954,186.4025270997663 87.48239436629228,186.17870143335313 90.1443661970552,185.95487569412217 93.69366197218187,185.95487569412217 95.2147887328174,187.07400366233196 97.3697183104232,190.28216042008717 97.62323943688534,194.68402559141396 97.3697183104232,198.26518326933729 97.5598591552116,201.92092918162234 97.68661971855909,206.47193267813418 95.7852112678811,209.97842304664664 93.44014084502123,211.918176002393 88.49647887330502,211.99278177629458 85.0105633805506,212.06738754210528 80.89084507059306,211.99278177629458 76.64436619728804,211.918176002393 73.98239436629228,210.4260588293546 72.14436619728804,209.97842304664664 70.49647887353785,210.20224097423488 65.80633802805096,209.7546050461824 63.397887324215844,209.7546050461824 62.44718309864402,208.63551395206014 62.44718309864402,204.3083446038654 63.08098591538146,199.6081125952769 64.8556338029448,197.74293226841837 67.0739436619915,195.72853183862753 69.73591549275443,193.63951775885653 72.58802816900425,190.5059847519151 76.0105633805506,187.5216543400893 78.29225352127105,185.88026709819678 83.23591549322009,185.73104988213163 85.70774647896178,185.95487569412217 87.48239436629228,185.88026709819678 92.36267605633475,185.73104988213163 94.32746478868648,186.10409286170034 97.1795774649363,189.3868623637827 97.68661971855909,192.14736096333945 97.30633802851662,195.952354399662 97.49647887353785,196.99685872264672 97.30633802851662,201.69710856146412 97.24295774661005,206.6211453981232 96.86267605633475,208.78472620312823 94.70774647896178,210.8736943207914 93.56690140860155,211.84357022069162 88.87676056381315,211.918176002393 85.51760563394055,211.84357022069162 81.27112676063552,211.694358632667 76.64436619728804,211.694358632667 73.72887323936448,210.20224097423488 72.14436619728804,209.8292110543698 68.84859154955484,209.60539300536038 64.15845070430078,209.5307869730168 62.827464788919315,208.7101200815523 62.57394366199151,205.2782297540689 62.76408450701274,201.84632231621072 64.8556338029448,197.74293226841837 67.45422535203397,196.2507843679632 69.92605633824132,193.71412551385583 70.55985915497877,192.8934397653211 72.5246478873305,191.10284928168403 74.55281690158881,189.01382116321474 77.6584507045336,186.32791855244432 79.55985915497877,185.88026709819678 82.03169014095329,186.10409286170034 85.20070422557183,185.95487569412217 86.84859154932201,186.32791855244432 90.27112676086836,185.88026709819678 93.56690140860155,185.88026709819678 95.84859154955484,187.7454795697704 97.49647887353785,190.13294415804558 97.3697183104232,194.68402559141396 97.30633802851662,198.0413614604622 97.43309859163128,202.3685702039511 97.3697183104232,206.6211453981232 97.24295774661005,208.3370893530664 95.34154929616489,210.35145288560307 92.1091549298726,211.918176002393 88.49647887330502,211.99278177629458 84.82042253529653,211.99278177629458 81.58802816923708,212.1419932995923 78.92605633847415,211.99278177629458 77.27816901425831,211.99278177629458 74.55281690158881,211.09751195757417 71.82746478891931,209.8292110543698 69.54577464819886,209.5307869730168 66.75704225362279,209.30696882680058 63.65140845067799,209.5307869730168 62.89084507059306,208.85933231632225 62.383802816970274,205.5020492100739 62.827464788919315,203.26385137543548 63.841549295699224,202.89081769547192 63.08098591538146,202.89081769547192 62.76408450701274,201.1748601643485 64.41197183099575,198.1159687381005 65.4260563380085,196.92225132341264 67.13732394389808,195.87774688727222 69.54577464819886,193.8633409991744 71.89084507059306,191.92353716492653 73.91901408461854,189.75990336219547 76.96126760565676,186.85017821425572 78.16549295792356,186.17870143335313 82.34859154932201,186.0294842820149 85.89788732398301,186.32791855244432 86.84859154932201,186.47713563893922 89.82746478891931,186.17870143335313 93.44014084502123,186.0294842820149 96.16549295792356,188.26773815625347 97.5598591552116,192.0727530386066 97.62323943688534,196.47460675914772 97.49647887353785,200.80182535218773 97.43309859163128,205.0544102253043 97.1795774649363,208.03866462485166 93.94718309864402,211.32132952136453 89.63732394366525,211.6197528266348 85.51760563394055,211.54514701251173 81.33450704230927,211.4705411902396 79.05281690158881,211.694358632667 76.13732394366525,211.918176002393 73.2852112678811,210.12763500656 68.97535211290233,209.7546050461824 64.8556338029448,209.67999902978772 63.397887324215844,209.30696882680058 62.827464788919315,208.41169551492203 62.700704225106165,204.23373799724504 62.63732394389808,201.84632231621072 63.144366197288036,199.30968408263288 65.299295774661,197.2952882378595 67.58098591538146,194.9824561093119 70.75000000023283,192.37118468870176 74.23591549298726,189.46147057955386 77.15140845067799,186.6263526933035 78.2288732395973,185.95487569412217 82.47535211290233,186.10409286170034 86.91197183122858,186.4025270997663 90.01760563394055,186.17870143335313 94.01056338031776,186.25330999691505 96.22887323936448,188.49156314315042 97.1795774649363,189.75990336219547 97.49647887353785,192.44579258118756 97.68661971855909,195.57931675750297 97.49647887353785,199.98114805406658 97.49647887353785,204.08452475990634 97.24295774661005,206.8449644173961 96.67253521131352,208.78472620312823 94.58098591561429,211.172117820126 91.98239436652511,211.76896443084115 87.67253521131352,211.918176002393 82.79225352127105,211.84357022069162 79.05281690158881,211.694358632667 76.07394366222434,211.918176002393 74.17253521131352,210.35145288560307 71.1302816902753,209.67999902978772 66.31338028190657,209.45618093229132 63.77816901402548,209.60539300536038 62.827464788919315,208.93393842177466 62.76408450701274,206.24811353744008 62.76408450701274,202.0701428882312 63.46126760565676,199.0858626132831" stroke="#4dd2ff" stroke-linecap="round" stroke-linejoin="round" stroke-width="0.5"><title>2024-04-27 10.1km</title><desc>9223370322649067555</desc></polyline><polyline fill="none" points="122.50000001490116,195.34473817422986 134.0714285671711,195.34473817422986 119.60714285075665,202.1552618239075 102.25,195.34473817422986 142.75,202.1552618239075 110.92857141792774,202.1552618239075" stroke="#4dd2ff" stroke-linecap="round" stroke-linejoin="round" stroke-width="0.5"><title>2024-04-26 5.2km</title><desc>9223370322713802999</desc></polyline><polyline fill="none" points="14.59782608691603,247.50000909809023 14.010869565419853,247.26970147294924 15.380434782244265,247.96062427409925 16.55434782523662,249.11216177721508 19.880434782244265,249.11216177721508 21.44565217383206,248.19093182473443 21.641304347664118,247.03939382219687 20.85869565140456,248.19093182473443 20.271739129908383,247.26970147294924 21.25,246.80908614676446 25.55434782616794,246.80908614676446 27.119565216824412,247.26970147294924 29.858695652335882,247.03939382219687 30.25,245.88785519613884 29.271739130839705,244.73631594586186 26.3369565224275,243.35446802224033 24.771739129908383,242.43323557265103 22.619565216824412,241.2816944506485 21.44565217383206,245.4272395707667 21.44565217383206,246.80908614676446 20.467391303740442,247.73031669901684 19.293478259816766,247.50000909809023 17.728260869160295,247.73031669901684 15.967391303740442,247.26970147294924 15.576086956076324,248.88185432646424 17.336956521496177,249.57277660351247 15.967391303740442,250.4940059571527 17.336956521496177,250.7243132328149 16.945652172900736,251.8758492388297 15.967391303740442,252.56677054218017 12.25,253.7183055493515 17.532608695328236,249.80308397929184 18.90217391308397,249.11216177721508 18.51086956448853,247.73031669901684 22.815217391587794,249.11216177721508 24.576086957007647,248.88185432646424 25.945652172900736,249.57277660351247 25.1630434775725,250.4940059571527 25.55434782616794,251.41523491148837 26.728260869160295,252.33646346605383 26.728260869160295,253.25769162084907 25.1630434775725,253.7183055493515 22.032608694396913,252.33646346605383 21.836956521496177,250.95462048402987 23.79347826074809,250.7243132328149 24.771739129908383,251.41523491148837 27.119565216824412,250.7243132328149 27.510869565419853,252.10615636478178 25.945652172900736,253.02738461992703 24.184782608412206,253.02738461992703 18.90217391308397,249.80308397929184 15.967391303740442,247.26970147294924 14.59782608691603,246.80908614676446 13.228260869160295,247.03939382219687 14.010869565419853,246.11816297168843 15.576086956076324,246.578778446652 16.75,246.34847072139382 15.967391303740442,247.26970147294924 14.206521738320589,247.26970147294924 12.25,247.50000909809023 16.55434782523662,247.73031669901684 18.119565216824412,247.03939382219687 19.293478259816766,247.03939382219687 20.271739129908383,247.96062427409925 22.619565216824412,246.80908614676446 23.597826085984707,247.26970147294924 24.771739129908383,247.26970147294924 25.55434782616794,247.96062427409925 26.728260869160295,248.4212393502239 27.90217391308397,248.19093182473443 28.880434782244265,248.4212393502239 30.05434782616794,249.80308397929184 32.01086956541985,251.18492770986632 33.576086956076324,250.95462048402987 34.75,251.41523491148837 33.184782608412206,250.7243132328149 30.25,250.03339133015834 31.423913042992353,249.57277660351247 31.619565216824412,250.95462048402987 32.98913043551147,250.7243132328149 33.184782608412206,249.57277660351247 34.1630434775725,250.4940059571527 35.33695652149618,250.7243132328149 32.01086956541985,250.7243132328149 33.576086956076324,250.95462048402987 33.967391304671764,250.26369865587912 34.94565217383206,250.7243132328149 35.923913043923676,251.41523491148837 32.59782608598471,252.56677054218017 34.75,251.8758492388297 37.29347826074809,249.80308397929184 36.315217391587794,248.65154685056768 36.315217391587794,249.57277660351247 34.1630434775725,250.03339133015834 32.01086956541985,249.80308397929184 30.445652172900736,248.88185432646424 26.728260869160295,248.65154685056768 28.489130434580147,248.88185432646424 29.467391303740442,250.03339133015834 31.423913042992353,249.11216177721508 35.33695652149618,248.88185432646424 37.68478260934353,249.57277660351247 40.032608695328236,249.80308397929184 41.59782608691603,249.80308397929184 45.90217391215265,250.26369865587912 50.01086956541985,250.7243132328149 52.75,251.18492770986632 50.01086956541985,251.18492770986632 49.423913043923676,251.18492770986632 46.88043478317559,251.18492770986632 44.72826087009162,250.95462048402987 43.16304347850382,251.18492770986632 41.01086956448853,251.18492770986632 40.228260869160295,250.4940059571527 37.68478260934353,249.80308397929184 41.59782608691603,249.34246920305304 43.16304347850382,250.26369865587912 44.14130434766412,249.80308397929184 42.967391304671764,249.57277660351247 43.55434782616794,249.80308397929184 42.576086956076324,250.26369865587912 41.40217391308397,250.26369865587912 42.967391304671764,249.34246920305304" stroke="#4dd2ff" stroke-linecap="round" stroke-linejoin="round" stroke-width="0.5"><title>2024-04-24 3.4km</title><desc>9223370322893282018</desc></polyline><polyline fill="none" points="97.75,249.6032503694296 60.82352940738201,243.99458322674036 57.25,251.00541677325964 62.0147058814764,245.39675023965538" stroke="#4dd2ff" stroke-linecap="round" stroke-linejoin="round" stroke-width="0.5"><title>2024-04-23 3.1km</title><desc>9223370322979897699</desc></polyline></svg>