<?xml version="1.0" encoding="utf-8" ?>
<svg baseProfile="full" height="300mm" version="1.1" viewBox="0,0,200,300" width="200mm" xmlns="http://www.w3.org/2000/svg" xmlns:ev="http://www.w3.org/2001/xml-events" xmlns:xlink="http://www.w3.org/1999/xlink"><defs /><rect fill="#222222" height="300" width="200" x="0" y="0" /><text fill="#FFFFFF" style="font-size:12px; font-family:Arial; font-weight:bold;" x="10" y="20">Over 3km Runs</text><text fill="#FFFFFF" style="font-size:4px; font-family:Arial" x="10" y="280">ATHLETE</text><text fill="#FFFFFF" style="font-size:9px; font-family:Arial" x="10" y="290">L</text><text fill="#FFFFFF" style="font-size:4px; font-family:Arial" x="120" y="280">STATISTICS</text><text fill="#FFFFFF" style="font-size:3px; font-family:Arial" x="120" y="285">Number: 26</text><text fill="#FFFFFF" style="font-size:3px; font-family:Arial" x="120" y="290">Weekly: 2.9</text><text fill="#FFFFFF" style="font-size:3px; font-family:Arial" x="141" y="285">Total: 129.6 km</text><text fill="#FFFFFF" style="font-size:3px; font-family:Arial" x="141" y="290">Avg: 5.0 km</text><text fill="#FFFFFF" style="font-size:3px; font-family:Arial" x="167" y="285">Min: 3.0 km</text><text fill="#FFFFFF" style="font-size:3px; font-family:Arial" x="167" y="290">Max: 10.1 km</text><polyline fill="none" points="34.169887150404975,31.97628729531425 34.55924896069337,31.870514929585624 35.008512588217854,31.800000000017462 36.14664711104706,31.800000000017462 37.105076182982884,31.941029843932483 38.75237615022343,31.800000000017462 38.96203250985127,31.870514929585624 39.05188523523975,31.97628729531425 39.141737960861064,32.575663384690415 39.11178705224302,33.95069847512059 39.26154159475118,35.85458361922065 39.26154159475118,36.98280659414013 39.35139432025608,37.86422807039344 39.32144341163803,38.53410679491935 39.441247045760974,39.2039841398655 39.35139432025608,39.627063857536996 39.441247045760974,41.35463365999749 39.41129613725934,41.77771058038343 39.561050679534674,43.11745053122286 39.50114886276424,43.50526896084193 39.53109977126587,44.35141665692208 39.740756130660884,45.796913879254134 39.65090340515599,46.572543887246866 39.65090340515599,48.12379835473257 39.71080522215925,48.44109949361882 39.65090340515599,48.864167197287316 39.77070703916252,49.886578543053474 39.71080522215925,50.803220465924824 39.80065794766415,51.12051899122889 39.71080522215925,51.5788385370397 39.680854313774034,52.07241271037492 39.740756130660884,52.31919951620512 39.77070703916252,52.84802775559365 39.830608856049366,53.4121102631907 39.92046158167068,53.62364095138037 39.95041249017231,54.505017338407924 40.04026521567721,55.033842024364276 40.070216124062426,55.597920741915004 40.04026521567721,56.33827257438679 40.190019758068956,56.97285851844936 40.10016703256406,57.431169819203205 40.10016703256406,58.17151747972821 40.01031430705916,58.77084530421416 40.070216124062426,59.29966305589187 39.980363398673944,60.004752054432174 40.10016703256406,60.95661977844429 40.04026521567721,61.62645095185144 40.13011794118211,62.19051823866903 40.13011794118211,63.03661733510671 40.24992157507222,63.74169823466218 40.219970666687004,63.91796822086326 40.070216124062426,64.09423811145825 39.38134522875771,64.20000000001164 38.72242524183821,64.20000000001164 36.89541982358787,63.98847618850414 36.6558125554584,63.882714231236605 36.35630347055849,63.953222206560895 36.02684347704053,63.91796822086326 35.2481198561145,63.776952239481034 32.25302900641691,63.459666058275616 31.174796300707385,63.24814176547807 30.306219954276457,63.14237956752186 29.138134522829205,63.14237956752186 28.329459993401542,63.001363250165014 27.311129104578868,63.001363250165014 27.131423653569072,63.10712549384334 26.62225820904132,63.17763363732956 25.90343640523497,63.10712549384334 25.034860058804043,62.82509276721976 23.92667644447647,62.648822189017665 22.878394647035748,62.366789065185 21.65040739858523,62.26102658067248 20.033058339962736,61.97899312066147 18.026347470586188,61.767467865225626 17.60703475167975,61.767467865225626 16.558752954239026,61.52068822662113 16.109489326714538,61.4854339773301 15.869882058817893,61.34441694163252 15.750078424811363,61.02712838794105 15.869882058817893,60.85085683554644 15.899832967435941,60.56882215299993 16.109489326714538,60.18102406535763 16.139440235332586,60.004752054432174 16.109489326714538,59.93424322336796 16.199342052219436,58.59457252922584 16.139440235332586,58.101008251309395 16.169391143717803,57.14913217202411 16.49885113723576,55.38639133743709 16.82831113075372,54.29348722330178 17.09786930726841,52.8127725663071 17.60703475167975,51.15577436386957 17.666936568566598,50.83847587290802 18.864972908515483,47.348172045632964 19.164481993415393,46.60779975273181 19.344187444308773,46.29049682550249 19.583794712438248,45.691146007651696 19.823401980451308,45.23281816649251 20.332567424862646,44.104623806255404 21.05138922878541,43.08219428744633 21.919965575099923,41.63668500143103 22.518983745016158,40.720017247716896 23.417511000065133,38.88667399060796 24.076430986868218,38.0757688692247 24.525694614392705,37.22960484822397 25.214565509930253,36.24241070818971" stroke="#4dd2ff" stroke-linecap="round" stroke-linejoin="round" stroke-width="0.5"><title>2024-08-02 3.0km</title><desc>12043451201</desc></polyline><polyline fill="none" points="69.5793673528824,31.975143867108272 71.4837914094096,31.800000000017462 72.40624681173358,32.01017262917594 72.79308294830844,31.940115101228002 73.35845884005539,31.940115101228002 73.86432148003951,31.870057558262488 74.72726363071706,31.940115101228002 74.84629013435915,32.01017262917594 74.93556001188699,32.22034512157552 74.93556001188699,33.20114827892394 75.1140997671755,34.00680578837637 75.14385639305692,34.56726200165576 75.20336964470334,34.987603523535654 75.17361301893834,35.54805803581257 75.23312627070118,36.038454936555354 75.17361301893834,36.66896414407529 75.23312627070118,37.0893029323197 75.17361301893834,37.29947212146362 75.14385639305692,37.92997886863304 75.20336964470334,39.8214917294099 75.29263952246401,40.62713273416739 75.29263952246401,41.15254969854141 75.41166602598969,41.95818738502567 75.47117927775253,43.04404369764961 75.44142265175469,43.814649190055206 75.38190940010827,44.09486891358392 75.35215277422685,44.690335019200575 75.53069252951536,47.8427843581012 75.64971903304104,48.29813560983166 75.67947565903887,48.683432321762666 75.5902057812782,49.62915866723051 75.61996240715962,50.01445379239158 75.53069252951536,50.64493573366781 75.5902057812782,51.45054975763196 75.5604491555132,52.186108634545235 75.64971903304104,52.956692329084035 75.64971903304104,53.44706281443359 75.79850216244813,54.70801207475597 75.79850216244813,56.31921785962186 75.97704191773664,56.70450500948937 76.09606842137873,57.19486980870715 76.00679854361806,57.26492186210817 75.88777204009239,57.6151819016668 75.82825878832955,58.42077855192474 75.94728529185522,59.29642480745679 75.85801541432738,60.38222286981181 75.88777204009239,60.97765896821511 76.09606842137873,62.448731685377425 76.09606842137873,63.604569837712916 76.00679854361806,63.884772403747775 75.88777204009239,64.02487359565566 75.70923228468746,64.12994944973616 74.25115761661436,64.09492416877765 73.59651184722316,64.02487359565566 73.26918896241114,63.884772403747775 72.8823528259527,63.81472178502008 64.40171444939915,62.93908776997705 63.71731205412652,62.72893525342806 63.44950242107734,62.763960682292236 62.67583014816046,63.00913857843261 62.14021088217851,63.07918937175418 60.949945846921764,62.62385894381441 59.07527841639239,62.37868075541337 58.30160614347551,62.2035533641465 57.49817724456079,62.133502381067956 56.39718208683189,62.098476883838885 55.98058932449203,61.958374856913 54.70105441159103,61.74822170275729 53.86786888691131,61.60811952405493 53.06443998788018,61.57309396981145 52.64784722565673,61.432991715177195 52.1419845855562,61.39796614207444 51.90393157862127,61.187812623451464 51.90393157862127,60.83755645554629 52.112227959907614,60.34719718270935 52.290767714963295,59.716734167566756 52.23125446320046,57.86036370342481 52.290767714963295,57.08979170009843 52.409794218605384,56.10906103879097 52.409794218605384,55.793825551489135 52.46930747036822,55.23340614812332 52.64784722565673,54.91816980656586 52.76687372918241,54.60293315767194 53.242979743285105,52.01097572038998 53.45127612457145,51.34546978145954 53.68932913150638,50.96017624309752 53.838112260913476,50.294668140326394 53.86786888691131,50.08450740217813 54.01665201620199,49.594131814839784 54.403488152776845,48.75348622005549 54.582027908065356,48.4732705357892 54.939107418525964,47.42245955619728 55.2961869292194,46.72191700496478 55.59375318803359,45.91629119386198 55.7722929433221,45.04060868654051 55.95083269872703,44.72536240296904 56.36742546106689,44.12989636187558 56.60547846800182,43.88470414371113 57.11134110810235,42.83387824438978 57.61720374820288,42.13332574663218 59.670410934020765,38.66556851891801 60.44408320693765,37.57969749427866 60.711892839870416,36.9491900637222 61.574834990431555,35.583086410479154 61.872401249362156,35.16274566305219 62.19972413405776,34.357091035548365 62.34850726346485,34.11189140242641 62.497290392871946,33.761605889420025 63.24120603990741,32.7808044331905 63.44950242107734,32.430517477332614 63.53877229883801,32.32543131659622 64.04463493882213,32.15028763926239 64.87782046350185,32.08023014187347 65.32416985172313,32.15028763926239 66.72273126826622,32.18531638238346 67.64518667070661,31.940115101228002 68.03202280704863,31.940115101228002 68.80569508008193,32.11525889247423 69.19253121642396,32.01017262917594 69.93644686357584,31.90508633168065 71.39452153176535,31.90508633168065 71.7813576683402,31.940115101228002 72.2574636824429,31.90508633168065 73.09064920712262,31.940115101228002 73.71553835074883,31.870057558262488 74.69750700471923,31.90508633168065 74.84629013435915,31.975143867108272 75.02482988964766,32.22034512157552 74.99507326364983,33.20114827892394 75.1140997671755,33.48137720575323 75.08434314129408,33.58646299058455 75.1140997671755,33.901720140187535 75.08434314129408,34.14691993279848 75.23312627070118,34.95257508428767 75.14385639305692,35.47800127492519 75.17361301893834,37.124331140046706 75.20336964470334,37.194387544033816 75.20336964470334,37.47461300791474 75.26288289669901,37.54466933599906 75.26288289669901,37.85992262428044 75.20336964470334,38.455400218314026 75.32239614834543,39.3661285340786 75.23312627070118,40.03165914161946 75.29263952246401,41.36271624514484 75.41166602598969,42.76382306305459 75.38190940010827,43.149126373027684 75.47117927775253,43.56945673271548 75.44142265175469,44.16492380652926 75.53069252951536,44.620280240284046 75.50093590363394,46.44169955936377 75.5604491555132,46.86202563671395 75.53069252951536,48.052946553973015 75.5902057812782,48.508297509659315 75.53069252951536,48.99867474439088 75.61996240715962,49.55910495878197 75.5902057812782,50.64493573366781 75.64971903304104,51.3104431151005 75.5902057812782,52.08102889743168 75.67947565903887,52.5714007113711 75.67947565903887,53.23690412603901 75.79850216244813,55.65372079165536 75.76874553668313,55.898904081317596 75.88777204009239,56.10906103879097 75.79850216244813,57.124817740143044 75.85801541432738,58.140571249095956 75.9175286659738,58.59590799282887 75.85801541432738,59.051244095055154 75.9175286659738,59.576631108269794 75.88777204009239,60.52232557989191 75.94728529185522,60.83755645554629 75.88777204009239,61.25786381150829 75.97704191773664,61.71319616376422 76.0663117953809,62.658884384145495 76.00679854361806,63.884772403747775 75.82825878832955,64.09492416877765 74.37018412002362,64.20000000001164 73.62626847298816,64.09492416877765 73.23943233664613,63.91979770734906 72.94186607771553,63.84974709621747 71.9301407977473,63.77969646989368 67.97250955540221,63.289341660623904 67.25835053413175,63.3243670288648 65.38368310348596,63.07918937175418 64.0148783128243,63.044163977057906 63.568528924603015,62.90406236000126 62.61631689639762,62.86903694621287 62.31875063746702,62.79898610734381 60.14651694812346,62.79898610734381 59.64065430813935,62.72893525342806" stroke="#4dd2ff" stroke-linecap="round" stroke-linejoin="round" stroke-width="0.5"><title>2024-08-01 5.0km</title><desc>12035805770</desc></polyline><polyline fill="none" points="106.2272819391219,32.00994567212183 106.88122085412033,31.939963796554366 108.09992519533262,32.0799275325553 109.31862953677773,31.939963796554366 110.18063992448151,31.939963796554366 110.4184358936036,31.869981905823806 110.86430333554745,31.974954736273503 111.01292581611779,32.184900294669205 111.0723748083692,32.70976359341876 110.98320131993387,33.12965361797251 110.98320131993387,33.479561554355314 111.22099728893954,34.984161359549034 111.16154829680454,35.61399175380939 111.19127279298846,36.243820919218706 111.19127279298846,37.85337875914411 111.3101707774913,39.183007443265524 111.3398952735588,41.38737977447454 111.45879325794522,42.4020857885771 111.48851775412913,43.13687091105385 111.45879325794522,43.97662328882143 111.57769124268088,45.20125825770083 111.48851775412913,46.810771437420044 111.54796674649697,47.12567525138729 111.60741573874839,48.52524404175347 111.57769124268088,49.22502616161364 111.63714023481589,49.95979575495585 111.57769124268088,50.44964122152305 111.69658922718372,51.35935225896537 111.6668647309998,52.09411699490738 111.75603821931873,52.72391400896595 111.75603821931873,53.42368702814565 111.90466070000548,54.68327464052709 111.81548721168656,55.52299698541174 111.90466070000548,56.01283401128603 111.9938341883244,56.957517605420435 111.87493620393798,57.867210305819754 111.9641096922569,58.28706761074136 111.9343851961894,58.56697217733017 111.9938341883244,60.1064429563703 111.90466070000548,60.80619997481699 112.02355868462473,61.470967737579485 112.02355868462473,62.13573413161794 112.14245666901115,62.7305239556008 112.11273217294365,63.5702253713971 112.02355868462473,63.92010031663813 111.9343851961894,64.02506272634491 111.75603821931873,64.09503764717374 110.4778848857386,64.20000000001164 109.64559899421874,64.06005018868018 108.93221108696889,63.85012535791611 107.83240473014303,63.74516289142775 107.20819031156134,63.5702253713971 106.34617992374115,63.535237855947344 103.7601487605134,63.2553375964344 101.53081155079417,63.11538737564115 100.66880116297398,63.15037493646378 99.98513775202446,63.29032514212304 99.47982131782919,63.29032514212304 98.70698441844434,63.01042467018124 98.0233210073784,63.08039981091861 96.95323914685287,62.94044951428077 95.97233077452984,62.94044951428077 95.73453480540775,62.83548675203929 95.34811635583173,62.83548675203929 94.6941774408333,62.695536349288886 94.01051402988378,62.52059826054028 93.26740162668284,62.45062299858546 91.90007480466738,61.99578342560562 91.66227883566171,61.89082035617321 91.3353093782207,61.8208449575759 91.0380644169636,61.78585725274752 90.35440100601409,61.855832658853615 89.99770705238916,61.78585725274752 89.52211511437781,61.57593094339245 88.3331352690002,61.435979994625086 88.00616581179202,61.33101674335194 87.88726782728918,61.15607791530783 87.85754333098885,60.981138992356136 88.09533929999452,60.491309504111996 88.18451278842986,60.14143084330135 88.24396178068127,58.21709143125918 88.15478829247877,57.37737609326723 88.39258426148444,56.2577522455249 88.51148224598728,55.27807819377631 89.28431914525572,51.95416193600977 89.70046209113207,50.86950817279285 89.78963557945099,50.344674398424104 90.26522751769517,49.085069858963834 90.7110949595226,48.17535241288715 90.94889092864469,47.47556801774772 91.21641139371786,46.77578210577485 91.48393185890745,46.32092044950696 91.9297993008513,45.02631068942719 92.04869728535414,44.74639438308077 93.14850364218,42.8569529663655 93.53492209187243,42.4020857885771 94.24830999888945,41.0024904521415 94.66445294488221,40.51263065089006 95.46701434033457,39.21799759782152 95.67508581327274,38.79811549265287 96.18040224746801,38.06332049440243 97.16131061955821,36.17383996161516 97.60717806161847,35.648982295242604 97.99359651142731,35.05414257515804 98.17194348794874,34.4942924255447 98.70698441844434,33.51455232719309 98.88533139519859,33.059671985014575 99.5095458138967,32.4298366070434 99.77706627908628,32.28987302276073 100.16348472877871,32.184900294669205 100.84714813984465,32.149909377796575 101.20384209312033,32.0799275325553 103.10620984563138,32.184900294669205 103.96822023333516,32.00994567212183 105.3058225591667,32.00994567212183 105.60306752042379,31.939963796554366 106.94066984637175,31.869981905823806 107.86212922632694,31.904972853022628 108.6646906217793,31.83499095478328 110.03201744391117,31.869981905823806 110.59678287035786,31.79999999998836 110.86430333554745,31.939963796554366 111.01292581611779,32.35985482245451" stroke="#4dd2ff" stroke-linecap="round" stroke-linejoin="round" stroke-width="0.5"><title>2024-07-31 3.5km</title><desc>12027390271</desc></polyline><polyline fill="none" points="142.35991693334654,31.835066689003725 143.10463788558263,31.94026673337794 143.7599923236994,31.905200055771274 144.74302398087457,32.045466743496945 146.530354266637,31.8701333742938 146.85803148557898,31.94026673337794 146.94739799993113,32.08053340599872 147.06655335240066,32.851999018050265 147.03676451416686,33.79879520920804 147.18570870463736,34.885854085558094 147.126131028519,35.86771057621809 147.24528638075572,37.37555581322522 147.2750752188731,39.0937894929084 147.33465289510787,39.58471172527061 147.33465289510787,40.7068168874539 147.42401940946002,41.65359009074746 147.48359708546195,43.79258601577021 147.5729635998141,44.45882775980863 147.54317476181313,46.77313052574755 147.6027524380479,47.26404110545991 147.63254127604887,48.21079511998687 147.63254127604887,49.893906527460786 147.5729635998141,50.59520036311005 147.66233011416625,51.15623433701694 147.5729635998141,52.34842830177513 147.75169662828557,53.154909963399405 147.84106314275414,54.13671101213549 147.96021849510726,54.80293145569158 147.93042965687346,55.50421465112595 148.049585009343,56.06524011306465 148.049585009343,56.52107258461183 147.93042965687346,57.60805511751096 148.0197961712256,59.67681823705789 147.96021849510726,60.16770923900185 147.99000733310822,60.448218048608396 147.96021849510726,60.69366305752192 148.049585009343,61.675441231403966 148.0197961712256,62.131265799485845 148.10916268546134,62.97278639214346 148.10916268546134,63.84936801547883 147.99000733310822,64.02468405524269 147.78148546651937,64.12987363341381 146.828242647578,64.20000000001164 145.84521099040285,64.09481044454151 145.18985655228607,63.919494442787254 142.35991693334654,63.60392540032626 141.644984818995,63.46367239372921 140.15554291428998,63.39354586767149 137.32560329535045,63.07797631228459 136.3425716381753,63.18316619822872 135.6872172000585,63.148102906765416 134.4956636762945,63.25329277000856 133.84030923817772,63.148102906765416 133.15516596194357,63.148102906765416 132.35086733358912,62.97278639214346 131.39762451441493,62.867596437747125 130.8614254287677,62.58708972547902 130.32522634312045,62.48189964564517 129.25282817170955,62.48189964564517 128.24000767653342,62.096202393993735 126.89950996218249,61.92088530943147 125.32070154324174,61.64037777646445 125.08239083830267,61.64037777646445 124.75471361924428,61.53518738897401 124.12914801947773,61.465060444927076 123.95041499088984,61.35987000033492 123.89083731453866,61.254679521603975 123.92062615265604,60.90404434548691 124.03978150500916,60.69366305752192 124.09935918124393,60.30796367421863 124.15893685736228,59.01060782888089 124.24830337171443,58.58984265386243 124.24830337171443,56.661328600515844 124.39724756218493,56.275624410423916 124.48661407653708,55.46915052749682 124.66534710512497,54.90812403190648 124.78450245747808,54.312032314541284 124.69513594312593,53.82113242856576 124.72492478135973,53.505553537164815 124.84408013359644,53.084781203069724 125.14196851465385,52.628943890333176 125.79732295265421,50.45494171752944 125.9760559812421,50.17442424406181 126.0952113334788,49.6484533259063 126.33352203841787,49.12248155256384 126.4228885526536,48.80689807818271 127.70380859088618,45.93156779897981 128.15064116206486,44.56402369917487 128.50810721924063,44.03804365999531 128.6868402478285,43.65232442118577 129.22303933347575,42.91595005185809 129.6102942287689,42.46009841185878 130.14649331453256,41.37306498596445 130.47417053359095,40.91721117196721 130.44438169535715,40.91721117196721 131.42741335264873,39.19898717687465 131.99340127641335,38.357404747686815 132.47002268594224,37.44568797884858 133.5722096952377,35.65731300774496 134.46587483829353,33.974127533088904 135.21059579052962,32.851999018050265 135.5680618477054,32.431199821294285 136.01489441923331,32.220800017763395 136.3127828000579,32.150666719448054 138.78525636193808,32.045466743496945 139.32145544770174,32.08053340599872 140.125754076289,32.01040007729898 140.9002638666425,32.045466743496945 141.67477365711238,31.94026673337794 142.62801647617016,31.94026673337794 143.4621039427584,31.800000000017462 144.2068248951109,31.8701333742938 144.56429095228668,31.835066689003725 146.0537328569917,31.8701333742938 146.6792984569911,31.835066689003725 146.88782032381278,31.94026673337794 147.03676451416686,32.220800017763395 147.03676451416686,33.728662253008224 147.18570870463736,34.885854085558094 147.15591986651998,35.376782703446224 147.24528638075572,36.81449794143555 147.24528638075572,37.4807540558686 147.21549754275475,37.656084384332644 147.2750752188731,38.1820747993188 147.2750752188731,39.05872359071509 147.33465289510787,39.58471172527061 147.3048640571069,40.110699004580965 147.33465289510787,40.63668542873347 147.3048640571069,40.88214546744712 147.45380824746098,41.828918157640146 147.39423057122622,42.81075357660302 147.45380824746098,43.301670168642886 147.51338592357934,43.47699734242633 147.48359708546195,43.93284754952765 147.54317476181313,44.24843577831052 147.51338592357934,44.45882775980863 147.6027524380479,44.77441547534545 147.5729635998141,46.071828405489214 147.48359708546195,46.56274004938314 147.54317476181313,47.299106118414784 147.51338592357934,47.6848210094613 147.63254127604887,48.31598983940785 147.6027524380479,48.80689807818271 147.63254127604887,49.99910069970065 147.6027524380479,50.7705235844478 147.66233011416625,51.366621826484334 147.63254127604887,51.647138266358525 147.69211895216722,52.243234893336194 147.69211895216722,52.94452363674645 147.81127430463675,53.64581086018006 147.81127430463675,54.347096563578816 147.75169662828557,54.97825239703525 147.8708519807551,56.34575247930479 147.78148546651937,57.117160232272 147.9006408189889,57.92363000762998 147.8708519807551,58.51971507151029 147.99000733310822,59.7118819047173 147.9006408189889,60.448218048608396 147.99000733310822,61.92088530943147 147.93042965687346,62.51696300943149 148.10916268546134,63.67405188072007 148.0197961712256,63.954557650809875 147.93042965687346,64.0597472518275 147.42401940946002,64.20000000001164 145.93457750452217,64.16493681861903 144.59407979040407,63.919494442787254 143.52168161887676,63.77924157300731 143.13442672370002,63.81430479622213 142.38970577146392,63.60392540032626 142.18118390475865,63.60392540032626 140.69174200005364,63.39354586767149 139.9768098857021,63.39354586767149 138.0107465714682,63.07797631228459 137.62349167629145,63.07797631228459 137.2362367809983,63.11303961146041 136.22341628570575,63.07797631228459 135.74679487629328,63.007849702611566 135.35953998100013,63.007849702611566 134.85312973335385,62.832533111970406 134.52545251441188,62.797469782381086 133.15516596194357,62.93772307771724 132.4998115239432,62.902659759740345 131.54656870488543,62.692279771057656 130.77205891453195,62.72734311191016 130.32522634312045,62.48189964564517" stroke="#4dd2ff" stroke-linecap="round" stroke-linejoin="round" stroke-width="0.5"><title>2024-07-29 5.1km</title><desc>12014148662</desc></polyline><polyline fill="none" points="178.62141172518022,32.0097192050016 179.21526031033136,32.11457875632914 181.17496064153966,32.0796255763853 182.54081238759682,31.939812818425708 182.8080442509381,32.04467239254154 182.98619882646017,32.32429775674245 183.04558368504513,32.70878223652835 183.01589125569444,33.54765587375732 183.10496854339726,34.002044849446975 183.10496854339726,34.59624485147651 183.28312311903574,35.22539660133771 183.1940458312165,36.029310939775314 183.28312311903574,36.58855451489217 183.25343068968505,38.650756815768545 183.37220040685497,39.45466261473484 183.3425079776207,40.608089173591 183.4612776945578,41.901320106117055 183.4612776945578,43.64892123485333 183.49097012367565,44.557670078997035 183.4612776945578,44.837284592707874 183.5800474116113,45.85088517272379 183.63943227019627,47.283901246468304 183.5800474116113,48.01788262309856 183.66912469943054,48.68195957195712 183.609739840962,50.11496306565823 183.5800474116113,50.394572761055315 183.63943227019627,51.19844928471139 183.609739840962,51.65281339007197 183.75820198713336,52.70134349775617 183.6988171286648,53.71491936125676 183.87697170418687,54.34403381237644 183.93635656265542,54.76344276461168 183.90666413353756,56.37117202888476 183.99574142124038,57.10513272401295 183.87697170418687,57.76919096137863 183.93635656265542,58.15364510533982 183.90666413353756,58.3633471725916 183.9660489920061,58.99245255620917 183.9660489920061,60.18075937710819 184.08481870917603,60.63511082806508 183.9660489920061,61.5787617964088 183.99574142124038,62.17291098961141 184.08481870917603,62.41756033938145 184.05512627982534,63.04665781499352 184.14420356764458,63.71070381911704 184.1145111382939,63.920402273215586 183.99574142124038,64.02525144917308 183.40189283608925,64.20000000001164 182.0063486607978,64.16505029739346 181.62034708051942,64.02525144917308 181.3828076464124,64.06020116695436 178.44325714954175,63.570904774038354 175.74124608689453,63.39615588230663 174.96924292610493,63.291306501894724 173.5736987509299,63.22140689598746 172.50477129756473,63.01170798737439 171.85153785371222,62.94180832087295 171.40615141473245,62.94180832087295 171.0795346929226,63.04665781499352 170.4559936786536,62.97675815608818 170.15906938596163,63.01170798737439 169.35737379593775,63.04665781499352 167.9618296206463,62.73210923044826 167.66490532818716,62.76705908839358 166.9819794552168,62.592309761210345 165.8833595723845,62.55735988437664 165.28951098723337,62.347660544124665 164.7253548312001,62.27776073367568 164.36904568015598,62.103011141414754 164.04242895834614,62.03311127796769 162.02334376855288,61.78846163669368 161.57795732968953,61.683611733606085 160.33087530068588,61.5787617964088 160.1824131543981,61.54381180985365 159.9448737204075,61.36906181980157 159.85579643247183,61.0545115993591 159.9448737204075,60.56521064651315 160.21210558374878,60.006008648633724 160.33087530068588,59.55165631140699 160.36056773003656,58.922552018630086 160.3011828714516,58.433247831388144 160.33087530068588,58.01384365154081 160.21210558374878,57.20998411549954 160.39026015915442,56.02166634879541 161.25134060787968,52.94600003233063 161.45918761263601,51.86251968436409 161.8451891929144,50.84893799890415 162.08272862713784,49.94020688298042 162.34996049047913,49.52079165808391 163.00319393421523,47.808173828874715 163.27042579755653,46.68972462284728 163.53765766089782,46.27030517050298 163.98304409976117,45.25670590883237 164.36904568015598,44.10329597699456 164.5768926849123,43.75377700134413 164.9925866945414,43.264449799084105 165.58643527980894,42.285793167044176 166.2693611527793,41.30713356487104 166.71474759175908,40.46828011330217 167.1898264598567,39.76923390349839 167.66490532818716,38.75561420759186 168.19936905463692,38.12646934547229 168.615063064266,37.32256023527589 169.26829650823493,36.41379100186168 169.71368294709828,35.64483041924541 170.18876181531232,34.56129194056848 170.4559936786536,34.281668516254285 170.63414825394284,33.96709187398665 170.96076497610193,33.163172394328285 171.1092271222733,32.883547757490305 171.43584384408314,32.49906348614604 171.67338327819016,32.28934459944139 172.17815457563847,32.11457875632914 173.45492903375998,32.14953193248948 174.8801656382857,32.0097192050016 175.71155365777668,32.0796255763853 177.43371455464512,31.974766013619956 178.769873871468,31.800000000017462 179.72003160777967,31.904859619535273 180.75926663191058,31.904859619535273 180.9671136366669,31.869906416832237 182.45173509977758,31.939812818425708 182.62988967541605,31.904859619535273 182.9268139678752,32.0796255763853 182.98619882646017,32.28934459944139 183.01589125569444,32.53401662068791 182.9565063972259,33.233078515622765 183.16435340198223,34.21176262226072 183.16435340198223,34.66615066200029 183.28312311903574,35.08558520747465 183.1940458312165,35.57492482083035 183.1940458312165,36.4487437120697 183.25343068968505,37.287607619859045 183.2237382605672,37.881801567651564 183.25343068968505,38.72066174741485 183.3425079776207,39.20999584463425 183.31281554838642,39.90904326669988 183.40189283608925,40.573136914143106 183.3425079776207,41.86636798692052 183.40189283608925,41.971224333159626 183.37220040685497,42.77512185432715 183.43158526543994,43.0896899040963 183.40189283608925,43.47416154819075 183.43158526543994,44.31300718057901 183.49097012367565,44.76738098709029 183.55035498237703,45.85088517272379 183.63943227019627,46.445063341991045 183.55035498237703,47.07419197494164 183.5800474116113,47.91302824302693 183.6988171286648,48.64700818771962 183.66912469943054,49.76545060556964 183.5800474116113,50.35962156235473 183.609739840962,50.744084539299365 183.609739840962,51.23340039252071 183.66912469943054,51.58291126167751 183.78789441648405,53.365410802623956 183.75820198713336,53.81977185502183 183.81758684583474,54.06442754116142 183.75820198713336,54.65859057760099 183.81758684583474,55.00809773482615 183.87697170418687,56.26632036457886 184.02543385047466,57.00028129841667 183.847279275069,58.78275089798262 184.02543385047466,60.3555100109661 184.02543385047466,62.103011141414754 184.1145111382939,62.73210923044826 184.05512627982534,63.151507274917094 184.08481870917603,63.67575406344258 184.05512627982534,63.88545254030032 183.90666413353756,64.02525144917308 183.25343068968505,64.16505029739346 182.33296538260765,64.13010059093358 182.12511837796774,64.06020116695436 181.82819408539217,64.09515088086482 181.5015773633495,64.06020116695436 181.20465307077393,63.990301727637416 180.16541804664303,63.850502803659765 179.4231073152041,63.67575406344258 178.26510257390328,63.60585454094689 177.40402212552726,63.60585454094689 176.89925082807895,63.50100522869616 174.58324134582654,63.18645708728582 173.78154575568624,63.18645708728582 171.70307570754085,62.90685848207795 171.19830441009253,63.01170798737439 170.48568610777147,63.01170798737439 169.8027602348011,63.08160763874184 168.82291006925516,63.04665781499352 167.991522049997,62.802008942409884 167.60552046948578,62.627259634202346" stroke="#4dd2ff" stroke-linecap="round" stroke-linejoin="round" stroke-width="0.5"><title>2024-07-27 5.1km</title><desc>11997575827</desc></polyline><polyline fill="none" points="33.98561662354041,72.81085645378334 34.46327181532979,72.70542824399308 36.463452931609936,72.74057098440244 38.40392714866903,72.60000000000582 38.8218754415866,72.67028549974202 38.94128923944663,72.77571372094098 39.00099613855127,72.95142734667752 39.03084958810359,73.97056449798401 39.0905564869754,74.88427094428334 39.06070303742308,75.02484093824751 39.299530633492395,75.9736868031905 39.209970284835435,76.39539518512902 39.239823734387755,77.30909479770344 39.209970284835435,78.53907097890624 39.3293840829283,80.50702316331444 39.239823734387755,81.06929302195203 39.389090981916524,82.68581343413098 39.359237532364205,83.31836270578788 39.359237532364205,84.61859899989213 39.478651330340654,85.14572033638251 39.56821167899761,86.72707920393441 39.68762547685765,90.34660491574323 39.62791857786942,91.68195371318143 39.68762547685765,93.54440469411202 39.62791857786942,94.24721360488911 39.68762547685765,95.02030164730968 39.68762547685765,95.58254633875913 39.74733237584587,95.68796710981405 39.926453072810546,96.95301368963555 39.896599623258226,97.48011497466359 39.95630652224645,98.60459485222236 39.896599623258226,98.99113390952698 39.866746173938736,99.69393101509195 39.926453072810546,100.67784440383548 39.896599623258226,101.55633597818087 39.926453072810546,101.8725923623715 39.95630652224645,103.24303312969278 40.135427219211124,104.29721439417335 40.0757203202229,104.7891644781048 39.83689272427,104.9297215079423 38.672608194174245,105.0 38.19495300203562,105.0 37.329202966880985,104.8243037413049 36.911254673847,104.8945822562091 36.64257362834178,104.85944300072151 34.37371146690566,104.40263233217411 32.79147864377592,104.33235371060437 30.253935436718166,103.94582102014101 29.02994400751777,103.91068166174227 28.014926724717952,103.80526356396149 27.298443936742842,103.66470604669303 26.492400800576434,103.66470604669303 24.85046107834205,103.38359082955867 23.41749550262466,103.41873024508823 22.044236825895496,103.17275425684056 21.656141982530244,103.06733591901138 20.76053849759046,103.03219646553043 18.163288391777314,102.54024371612468 16.252667624037713,102.36454612473608 15.95413312909659,102.22398798310314 15.864572780788876,102.0482902203803 15.864572780788876,101.8023131925147 16.01384002820123,101.31035857726238 16.163107275613584,100.29130735716899 16.10340037662536,99.6236513730546 16.192960725165904,99.16683332872344 16.222814174485393,97.44497491556103 16.401934871566482,96.98815380199812 16.55120211909525,95.93394877572428 16.79002971504815,95.23114352085395 17.088564209989272,93.57954517577309 17.20797800796572,93.15785914374283 17.23783145751804,92.87673481780803 17.4169521543663,92.56046965971473 17.655779750435613,91.82251642458141 17.715486649307422,91.36568738974165 17.894607346272096,90.87371694014291 18.25284874031786,90.06547815239173 18.491676336037926,89.18695544576622 18.909624629071914,88.06244290800532 19.148452225024812,87.7110319401545 19.685814315918833,86.3756667887792 19.984348810859956,85.35656863093027 20.19332295737695,84.93487190461019 20.76053849759046,84.1969013135822 21.148633341072127,83.56435375593719 22.25321097241249,81.91269598170766 23.566762750037014,79.55819056576001 24.492219684296288,78.22279183505452 25.686357664177194,76.1142563247704 26.07445250765886,75.30598074334557 26.37298700248357,74.84912843629718 26.731228396412916,74.0759922961297 27.268590487423353,73.37313965984504 27.537271532812156,73.12714087724453 27.925366376177408,72.95142734667752 29.925547492224723,72.91628462920198 30.55246993165929,72.84599918269669 31.2689527196344,72.88114190779743 31.806314810412005,72.81085645378334 34.13488387095276,72.70542824399308 36.13506498711649,72.81085645378334 38.40392714866903,72.63514275182388 38.79202199203428,72.70542824399308 38.88158234045841,72.81085645378334 38.97114268899895,73.02171277033631 39.00099613855127,74.42741804293473 39.239823734387755,75.86825962198782 39.150263385963626,76.14939869570662 39.12040993652772,76.43053752553533 39.209970284835435,77.02795672958018 39.150263385963626,77.66051703985431 39.209970284835435,79.41762253720663" stroke="#4dd2ff" stroke-linecap="round" stroke-linejoin="round" stroke-width="0.5"><title>2024-07-26 3.8km</title><desc>11987014491</desc></polyline><polyline fill="none" points="72.5174716055626,72.8462662693928 73.20484650705475,72.81108538524131 73.35427583346609,72.70554270979483 73.50370515987743,72.67036181030562 73.9818790043937,72.67036181030562 74.5198245793581,72.60000000000582 74.84856909757946,72.67036181030562 74.93822669330984,72.70554270979483 75.02788428915665,72.8814471498481 75.08765601995401,73.23325574383489 74.9979984239908,73.83132947853301 75.20719948096666,75.59036348693189 75.14742775040213,76.22361339625786 75.29685707681347,78.33443750362494 75.20719948096666,78.96768205895205 75.26697121141478,80.30452761842753 75.23708534624893,80.79704827864771 75.32674294209573,81.25438822252909 75.32674294209573,83.15410109146615 75.38651467266027,84.45574978619698 75.50605813367292,85.229700589407 75.47617226850707,86.03882900162716 75.59571572963614,88.64209803458652 75.56582986435387,89.13460604351712 75.68537332548294,89.80300857473048 75.71525919076521,90.43623075555661 75.71525919076521,90.78802032233216 75.56582986435387,91.45641944889212 75.74514505604748,92.15999598975759 75.68537332548294,93.14500058503472 75.74514505604748,94.48178775506676 75.95434611290693,95.32607155232108 75.9244602478575,96.09999643734773 75.98423197830562,97.92926610365976 75.89457438245881,98.45693813011167 75.95434611290693,99.2308555508207 75.89457438245881,99.58263558673207 75.95434611290693,100.25101660448126 75.9244602478575,101.02492974803317 76.01411784358788,102.46721750125289 76.01411784358788,103.62807859940222 76.07388957415242,104.26127381247352 76.16354716999922,104.54269351065159 76.13366130460054,104.75375812422135 75.9244602478575,104.92964519740781 75.71525919076521,104.96482260065386 75.29685707681347,105.0 74.63936804060359,104.96482260065386 73.32438996806741,104.7889355464722 71.83009670407046,104.75375812422135 71.08295007201377,104.54269351065159 69.61854267306626,104.43716115242569 67.9449342173757,104.19091884981026 65.34486393781845,103.97985387028893 64.17931519181002,103.83914380767965 63.67125548189506,103.69843368406873 63.07353817624971,103.69843368406873 62.17696221778169,103.90949884659494 61.66890250798315,103.76878875357215 60.95164174120873,103.62807859940222 59.72632126475219,103.76878875357215 58.441229057498276,103.41701325401664 57.335452042054385,103.31148052986828 56.618191275163554,103.03005976427812 51.926110425964,102.29132909397595 51.83645283000078,101.90437426240533 51.83645283000078,101.5174189695681 52.13531148293987,100.84904055917286 52.19508321338799,100.39172822239925 52.16519734822214,99.54745760024525 52.19508321338799,98.94943124765996 52.10542561754119,98.14033501714584 52.31462667463347,97.1553455797548 52.37439840519801,96.55731482047122 52.523827731609344,95.78339102561586 52.643371192738414,95.39642843627371 53.181316767819226,93.18017926532775 53.39051782491151,92.44142617916805 53.539947151206434,91.73785024823155 53.71926234278362,91.21016729925759 53.86869166942779,90.96391496283468 54.04800686088856,90.29551482218085 54.436523109674454,89.2401433767809 54.61583830136806,88.95871041185455 54.88481108902488,88.14958927841508 55.422756663989276,86.98867282478022 55.93081637378782,85.58149579909514 56.618191275163554,84.31503126001917 58.47111492289696,81.57100780613837 59.21826155483723,80.05826700798934 60.3539244356798,78.33443750362494 61.28038625931367,76.71614024919108 61.66890250798315,76.18843287811615 62.02753289148677,75.41446051513776 62.14707635238301,75.06265428551706 62.3562774094753,74.74602835267433 62.535592601285316,74.35904068211676 63.34251096379012,73.19807490159292 63.76091307774186,72.95180889914627 64.41840211406816,72.8462662693928 65.16554874600843,72.91662802634528 68.06447767850477,72.74072360538412 69.17025469394866,72.70554270979483 69.40934161609039,72.74072360538412 70.00705892185215,72.63518090700381 70.42546103568748,72.63518090700381 71.74043910822365,72.74072360538412 72.03929776104633,72.67036181030562 72.60712920129299,72.74072360538412 73.65313448628876,72.60000000000582 74.22096592653543,72.67036181030562 74.96811255870853,72.63518090700381 75.02788428915665,72.67036181030562 75.11754188511986,73.02217063322314 75.08765601995401,73.97205255008885 75.1773136156844,75.20337682307581 75.29685707681347,75.80144692733302 75.23708534624893,76.68095978439669 75.26697121141478,77.3142075657961 75.23708534624893,78.15853601903655" stroke="#4dd2ff" stroke-linecap="round" stroke-linejoin="round" stroke-width="0.5"><title>2024-07-24 3.7km</title><desc>11969555111</desc></polyline><polyline fill="none" points="105.87318526837043,104.56383235065732 105.87318526837043,104.12766380637186 105.95433463307563,102.69799396958842 105.95433463307563,102.06796692124044 106.09634602128062,99.93555382337945 106.15720804478042,99.4509114992834 106.11663336236961,98.86933925178892 106.19778272707481,98.4331590218062 106.1774953858694,97.27000736563059 106.2383574093692,96.22801193487248 106.2586447505746,93.63511741168622 106.3397941152798,92.35077476453444 106.299219432869,92.08421211049426 106.3195067740744,91.01795815079822 106.299219432869,90.29096374758228 106.3195067740744,89.29740070787375 106.4006561387796,88.4492334623501 106.3600814564852,88.27959960706357 106.299219432869,88.23113276637741 105.79203590366524,88.23113276637741 105.32542705675587,88.13419905184128 104.39220936305355,88.08573217794765 103.98646253964398,88.01303184649441 103.39812964573503,88.03726529312553 102.85037143423688,87.91609803255415 102.6272106814431,87.91609803255415 102.38376258744393,87.98879839718575 101.77514235232957,88.01303184649441 101.38968287000898,87.84339764308243 100.37531581171788,87.79493070290482 99.98985632951371,87.69799678934214 99.62468418839853,87.55259583631414 99.34066141210496,87.60106283173081 98.83347788278479,87.60106283173081 98.30600701237563,87.50412882988167 97.87997284787707,87.4798953224672 97.23077793046832,87.3102606934408 96.60187035426497,87.21332655886363 95.74980202515144,87.18909301835811 94.37026282574516,87.01945815717045 94.04566536704078,86.99522459450236 93.8225046141306,86.87405673981993 93.7819299318362,86.72865522296343 93.7819299318362,86.60748721624259 93.88336663763039,86.21974913065787 94.51227421383373,84.91112786864687 94.67457294324413,84.32951583221438 95.32376786053646,82.8270107038843 95.52664127235767,82.24539296334842 95.52664127235767,82.07575415585598 95.44549190765247,81.76071029696323 95.52664127235767,81.54260273648833 95.79037670744583,81.03368422463245 95.89181341335643,80.62170167949807 95.99325011926703,79.91890608273388 96.43957162485458,77.78627073312236 96.50043364847079,77.42275120886916 96.50043364847079,77.2531085514056 96.58158301305957,76.98652695897908 96.72359440126456,76.16254537683562 97.10905388346873,74.6842174706544 97.35250197746791,73.52093582189991 97.37278931867331,73.30281980376458 97.5959500715835,72.67270560473844 97.57566273026168,72.62423520431912 97.4945133656729,72.59999999999127 97.3930766597623,72.81811673961056 97.33221463637892,73.03623325529043 97.21049058926292,73.81175683120091 96.88589313055854,75.07197660503152 96.60187035426497,76.45336277066963 96.39899694256019,77.2531085514056 96.35842226014938,77.51968980956008 96.3381349190604,78.14978963548492 96.21641087194439,78.65871505405812 95.99325011926703,79.21610816154862 95.93238809576724,79.48268695699517 95.81066404865123,80.47629588469863 95.79037670744583,80.76710737487883 95.10060710774269,82.3665634572535 94.83687167265452,83.14205298191519 94.59342357853893,83.62673249781074 93.6602058847202,85.85624403283873 93.55876917892601,86.24398278169974 93.5993438612204,86.51055276118859 93.7413552494254,86.70442162720428 94.02537802583538,86.89829031626869 94.41083750803955,86.99522459450236 96.17583618965,87.14062592897972 97.02790451887995,87.23756009661884 97.51480070676189,87.35872774412564 97.92054753028788,87.35872774412564 98.32629435358103,87.43142829940189 98.63060447108,87.38296126529167 99.44209811789915,87.43142829940189 100.65933858801145,87.62529632533551 101.2882461642148,87.69799678934214 101.47083223471418,87.77069722865417 102.20117651682813,87.96456494509766 102.5054866343271,87.94033149023016 103.13439421053044,88.06149873690447 103.60100305743981,88.06149873690447 103.9053131750552,88.10996561635693 104.93996757466812,88.08573217794765 105.71088653896004,88.1826659146318 106.2586447505746,88.15843248460442 106.4006561387796,88.23113276637741 106.44123082107399,89.20046747969172 106.38036879757419,89.92746561334934 106.42094347986858,90.26673055790889 106.38036879757419,90.84832634581835 106.4006561387796,91.45415359907201 106.3600814564852,91.6237849205063 106.3397941152798,92.20537699465058 106.3600814564852,92.9081319609395 106.3195067740744,93.51395334253903 106.3397941152798,94.4590312497312 106.3195067740744,94.58019478010829 106.3397941152798,94.67712555464823 106.299219432869,95.04061556534725 106.3397941152798,95.59796570775507 106.27893209178,95.98568668398366 106.299219432869,96.88228873237676 106.2586447505746,97.99697789661877 106.27893209178,98.38469449648983 106.19778272707481,99.08742903110397 106.2180700681638,99.81439334596507 106.1774953858694,100.27480279268639 106.19778272707481,100.68674724177981 106.2180700681638,100.88060317680356 106.1774953858694,101.14715479893493 106.2180700681638,101.3167783843528 106.2180700681638,101.7771845766838 106.05577133886982,102.47990789497271 106.01519665645901,102.60106685294886 105.97462197416462,102.89184807035781 105.85289792716503,104.32151660323143 105.87318526837043,105.0" stroke="#4dd2ff" stroke-linecap="round" stroke-linejoin="round" stroke-width="0.5"><title>2024-07-21 4.3km</title><desc>11945152036</desc></polyline><polyline fill="none" points="129.93678989820182,98.65598358982243 130.7067213403061,101.37485012295656 131.66913564130664,102.73428206332028 133.97892996575683,104.32028487650678 135.71127570979297,105.0 138.02107003331184,105.0 140.13838149793446,104.32028487650678 142.25569296162575,102.73428206332028 143.4105901233852,100.69513382087462 143.98803870473057,97.5231214906089 141.87072724010795,77.35807341337204 140.90831293910742,75.77205014554784 139.56093291658908,74.18602567445487 137.82858717348427,73.05315031530336 135.90375856962055,72.5999999998603 133.40148138441145,72.82657516933978 131.09168705996126,73.73287560441531 129.55182417761534,75.31890041939914 128.20444415416569,77.811222697841 128.01196129526943,80.30354200489819 129.93678989820182,98.88255593623035 130.5142384795472,101.14827804686502 132.24658422265202,103.18742584669963 134.3638956863433,104.54685660894029 136.4812071500346,105.0 138.9834843352437,104.77342831646092 141.2932786596939,103.41399770230055 142.83314154297113,101.82799420086667 143.79555584397167,99.78884507482871 143.98803870473057,97.29654899681918 142.06321010086685,77.811222697841 141.100795798935,75.99862497136928 139.94589863717556,74.41260067233816 138.02107003331184,73.05315031530336 136.28872429020703,72.5999999998603 133.97892996575683,72.5999999998603 131.09168705996126,73.95945065119304 129.35934131778777,75.54547529504634 128.20444415416569,78.26437188358977 128.01196129526943,80.53011633967981 130.12927275896072,100.01541729830205 131.09168705996126,102.05456620361656 132.24658422265202,103.18742584669963 133.97892996575683,104.32028487650678 136.28872429020703,105.0 138.40603575389832,105.0 140.33086435683072,104.09371311939321 142.44817582145333,102.28113818122074 143.4105901233852,100.69513382087462 143.98803870473057,97.5231214906089 141.87072724010795,77.58464806829579 140.90831293910742,75.54547529504634 139.36845005583018,73.95945065119304 137.4436214528978,72.82657516933978 135.32630998827517,72.5999999998603 132.6315499432385,73.05315031530336 130.3217556187883,74.41260067233816 128.7818927364424,76.4517745510675 128.01196129526943,79.17066996102221 143.98803870473057,97.74969395948574 142.25569296162575,79.17066996102221 141.67824438028038,76.67834930331446 140.52334721758962,75.09232551953755 138.7910014744848,73.50630053272471 136.86617287062109,72.82657516933978 134.17141282651573,72.5999999998603 132.24658422265202,73.27972543681972 130.12927275896072,74.63917564600706 128.7818927364424,76.4517745510675 128.20444415416569,78.4909464395605 128.20444415416569,80.7566906507127 130.12927275896072,99.78884507482871 130.89920420013368,101.60142217436805 132.24658422265202,103.41399770230055 134.7488614069298,104.77342831646092 136.86617287062109,105.0 139.36845005583018,104.54685660894029 141.100795798935,103.64056953275576 142.83314154297113,101.82799420086667 143.79555584397167,99.78884507482871 143.98803870473057,97.29654899681918 142.06321010086685,78.03779730340466 141.100795798935,75.99862497136928 139.75341577548534,74.41260067233816 137.82858717348427,73.05315031530336 135.51879284810275,72.5999999998603 133.01651566382498,72.82657516933978 130.7067213403061,74.18602567445487 129.16685845702887,75.77205014554784 128.20444415416569,78.03779730340466 128.01196129526943,80.30354200489819 130.12927275896072,99.78884507482871 131.09168705996126,102.05456620361656 132.6315499432385,103.64056953275576 134.9413442676887,104.77342831646092 137.0586557323113,105.0 139.75341577548534,104.54685660894029 141.67824438028038,103.18742584669963 142.83314154297113,101.82799420086667 143.79555584397167,99.56227282690816 143.98803870473057,96.84340393636376 141.87072724010795,77.58464806829579 140.52334721758962,74.86575059546158 138.9834843352437,73.73287560441531 137.2511385921389,72.82657516933978 134.9413442676887,72.5999999998603 133.01651566382498,72.82657516933978 130.7067213403061,74.18602567445487 128.97437559626997,76.22519977367483 128.20444415416569,78.03779730340466 128.01196129526943,80.53011633967981 129.93678989820182,98.65598358982243 130.3217556187883,100.46856167144142 131.66913564130664,102.73428206332028 133.40148138441145,104.09371311939321 135.71127570979297,105.0 138.21355289313942,105.0 140.52334721758962,104.09371311939321 142.44817582145333,102.50771013414487 143.6030729841441,100.46856167144142 143.98803870473057,98.2028388234321 142.25569296162575,79.17066996102221 141.48576151952147,76.4517745510675 139.56093291658908,74.18602567445487 137.2511385921389,72.82657516933978 134.5563785471022,72.5999999998603 132.05410136282444,73.27972543681972 130.7067213403061,73.95945065119304 129.35934131778777,75.54547529504634 128.3969270158559,77.35807341337204 128.01196129526943,78.9440954781603 129.93678989820182,98.42941121920012 130.7067213403061,101.14827804686502 132.05410136282444,103.18742584669963 134.17141282651573,104.54685660894029 136.86617287062109,105.0 138.7910014744848,104.77342831646092 140.90831293910742,103.8671413382981 142.44817582145333,102.50771013414487 143.6030729841441,100.24198949686252 143.98803870473057,98.42941121920012 143.79555584397167,96.3902587776538 135.1338271284476,72.5999999998603 133.40148138441145,72.82657516933978 143.98803870473057,96.61683136946522 142.06321010086685,78.71752097154967 141.2932786596939,76.22519977367483 139.94589863717556,74.41260067233816 137.4436214528978,73.05315031530336 134.7488614069298,72.5999999998603 132.43906708341092,73.05315031530336 130.7067213403061,73.95945065119304 129.16685845702887,75.77205014554784 128.3969270158559,77.811222697841 128.01196129526943,79.39724441897124 129.93678989820182,98.65598358982243 130.89920420013368,101.82799420086667" stroke="#4dd2ff" stroke-linecap="round" stroke-linejoin="round" stroke-width="0.5"><title>2024-07-05 3.3km</title><desc>11814633384</desc></polyline><polyline fill="none" points="170.76611835788935,72.60000000009313 168.29835507366806,73.27034998615272 166.02041973453015,75.05794888245873 164.50179617572576,77.73934432119131 164.50179617572576,80.19728707661852 166.4000756246969,98.74348794273101 166.96955945994705,101.20140565838665 168.108527129516,102.7655335876625 169.81697863340378,104.10621372587048 171.71525808330625,105.0 173.80336547736079,105.0 175.70164492540061,104.55310691171326 177.5999243762344,103.21242706407793 178.73889204580337,101.64829947357066 179.68803176935762,99.41382942860946 179.68803176935762,96.95590958185494 177.78975232038647,78.63314202590846 176.8406125959009,75.72829806897789 174.56267725676298,73.7172498551663 171.52543013822287,72.60000000009313 168.29835507366806,73.27034998615272 165.8305917903781,75.28139863535762 164.50179617572576,77.96279378398322 164.50179617572576,80.64418544480577 166.4000756246969,98.74348794273101 167.3492153501138,101.87174634472467 168.8678389089182,103.65932044317015 170.5762904137373,104.55310691171326 172.66439780779183,105.0 174.94233314692974,104.7765534678474 177.4100964302197,103.43587376573123 178.73889204580337,101.87174634472467 179.49820382520556,99.63727654214017 179.68803176935762,97.40280431741849 177.78975232038647,79.75038861157373 177.22026848606765,76.6220966456458 176.0813008164987,75.05794888245873 173.80336547736079,73.27034998615272 171.52543013822287,72.60000000009313 169.43732274416834,72.82345001888461 167.53904329426587,73.7172498551663 165.8305917903781,75.05794888245873 164.88145206589252,76.84554622881114 164.31196822971106,78.85659139114432 166.4000756246969,98.96693512867205 166.96955945994705,100.97795871435665 167.91869918443263,102.54208681359887 169.62715068925172,104.10621372587048 171.71525808330625,104.7765534678474 173.80336547736079,105.0 176.27112876065075,104.10621372587048 177.97958026546985,102.7655335876625 179.1185479350388,100.97795871435665 179.68803176935762,98.96693512867205 177.78975232038647,79.30349005036987 177.4100964302197,77.0689957884606 176.27112876065075,75.05794888245873 174.75250520184636,73.7172498551663 172.2847419185564,72.82345001888461 169.81697863340378,72.82345001888461 167.53904329426587,73.7172498551663 166.02041973453015,74.83449910534546 164.88145206589252,77.0689957884606 164.31196822971106,78.85659139114432 166.4000756246969,98.96693512867205 166.77973151486367,100.75451174634509 168.108527129516,102.7655335876625 169.62715068925172,104.10621372587048 171.71525808330625,104.7765534678474 173.99319342151284,105.0 176.0813008164987,104.32966033066623 177.97958026546985,102.7655335876625 179.30837587919086,100.75451174634509 179.68803176935762,98.52004073280841 177.78975232038647,79.75038861157373 177.4100964302197,77.0689957884606 176.0813008164987,74.83449910534546 174.3728493116796,73.4937999327667 172.2847419185564,72.82345001888461 169.43732274416834,72.82345001888461 167.53904329426587,73.7172498551663 166.02041973453015,74.83449910534546 164.88145206589252,77.0689957884606 164.31196822971106,78.85659139114432 166.4000756246969,98.74348794273101 166.96955945994705,101.20140565838665 167.91869918443263,102.7655335876625 169.62715068925172,104.10621372587048 171.71525808330625,105.0 174.56267725676298,104.7765534678474 176.46095670573413,104.10621372587048 178.16940821055323,102.54208681359887 179.30837587919086,100.53106475342065 179.68803176935762,98.52004073280841 177.78975232038647,79.97383785573766 177.22026848606765,76.84554622881114 176.0813008164987,74.83449910534546 173.80336547736079,73.27034998615272 171.52543013822287,72.60000000009313 168.48818301968277,73.27034998615272 166.4000756246969,74.38759947754443 165.26110795512795,75.95174774900079 164.50179617572576,77.73934432119131 164.31196822971106,79.08004073309712 166.4000756246969,99.41382942860946 167.3492153501138,101.87174634472467 168.67801096383482,103.43587376573123 170.76611835788935,104.55310691171326 172.8542257519439,105.0 175.70164492540061,104.55310691171326 177.22026848606765,103.43587376573123 178.9287199890241,101.4248525777366 179.68803176935762,99.41382942860946 179.68803176935762,97.17935696197674 177.78975232038647,78.85659139114432 177.22026848606765,76.6220966456458 176.0813008164987,74.83449910534546 174.18302136659622,73.4937999327667 171.71525808330625,72.60000000009313 169.24749479815364,72.82345001888461 167.53904329426587,73.4937999327667 166.02041973453015,75.05794888245873 164.88145206589252,76.84554622881114 164.50179617572576,78.63314202590846 166.4000756246969,98.96693512867205 166.96955945994705,101.20140565838665 168.108527129516,102.98898033844307 169.81697863340378,104.10621372587048 172.2847419185564,105.0 174.3728493116796,104.7765534678474 176.27112876065075,104.10621372587048 177.97958026546985,102.7655335876625 179.30837587919086,100.53106475342065 179.68803176935762,98.52004073280841 177.78975232038647,79.30349005036987 177.03044054098427,76.39864703803323 175.32198903616518,74.16414962778799 172.47456986177713,72.82345001888461 170.3864624677226,72.60000000009313 167.72887123934925,73.4937999327667 166.5899035707116,74.38759947754443 165.26110795512795,75.95174774900079 164.88145206589252,76.84554622881114 164.31196822971106,79.08004073309712 166.21024768054485,98.52004073280841 166.96955945994705,101.20140565838665 168.67801096383482,103.43587376573123 170.3864624677226,104.55310691171326 172.66439780779183,105.0 174.75250520184636,104.7765534678474 176.6507846508175,103.8827670966275 177.97958026546985,102.7655335876625 179.1185479350388,100.97795871435665 179.68803176935762,98.96693512867205 177.4100964302197,77.29244532319717 176.27112876065075,75.05794888245873 174.75250520184636,73.7172498551663 172.66439780779183,72.82345001888461 170.3864624677226,72.60000000009313 168.108527129516,73.27034998615272 166.4000756246969,74.61104930355214 165.07128001004457,76.17519740574062 164.50179617572576,78.40969263552688 166.21024768054485,98.29659349797294 166.96955945994705,101.20140565838665 168.108527129516,102.7655335876625 170.00680657848716,104.32966033066623 172.66439780779183,105.0 174.56267725676298,104.7765534678474 176.8406125959009,103.8827670966275 178.3592361556366,102.54208681359887 179.30837587919086,100.75451174634509 179.68803176935762,98.52004073280841 177.78975232038647,78.63314202590846 177.22026848606765,76.6220966456458 175.51181698217988,74.38759947754443 173.61353753134608,73.04690001485869 170.76611835788935,72.60000000009313 168.29835507366806,73.27034998615272 166.5899035707116,74.38759947754443 165.45093590021133,75.72829806897789 164.69162412080914,77.51589483465068 164.31196822971106,78.85659139114432" stroke="#4dd2ff" stroke-linecap="round" stroke-linejoin="round" stroke-width="0.5"><title>2024-06-26 3.9km</title><desc>11744480107</desc></polyline><polyline fill="none" points="34.642394672264345,113.68114190781489 36.1649210912874,113.64599918265594 38.075542480219156,113.39999999999418 38.642758205067366,113.39999999999418 38.79202550102491,113.43514275184134 38.94129279698245,113.57571372092934 39.06070663384162,113.78657006038702 39.03085317462683,115.61398592428304 39.06070663384162,116.00055334490025 39.180120470700786,116.4925475770433 39.29953430744354,118.70651238245773 39.269680848228745,119.2687867511413 39.35924122587312,120.53390051514725 39.329387766774744,121.90443485541618 39.47865506273229,123.83722984802444 39.448801603517495,124.57520307853702 39.50850852171425,125.6645890630316 39.47865506273229,126.50798215018585 39.538361981045455,127.70278526822221 39.50850852171425,128.22990289109293 39.65777581790462,130.26808297043317 39.65777581790462,130.58435114476015 39.747336195548996,131.35744982783217 39.65777581790462,132.0251244798419 39.83689657319337,133.46589141292498 39.71748273621779,134.73094978305744 39.77718965453096,135.08235401005368 39.83689657319337,136.87450964347227 39.89660349150654,137.19077137418208 39.86675003229175,137.7178735731286 39.92645695072133,138.139554715337 39.86675003229175,139.22889512803522 39.92645695072133,139.36945491473307 39.92645695072133,140.07225293424563 40.04587078746408,141.12644710743916 39.9861638690345,141.82924131897744 40.075724246678874,143.12940659490414 40.01601732824929,144.07817256019916 40.13543116499204,144.9215177546721 40.075724246678874,145.58916447812226 39.807043113862164,145.69458225619746 39.23982738913037,145.69458225619746 38.46363744989503,145.79999999998836 37.83671480673365,145.72972150784335 37.1202317859279,145.55402521122596 36.34404184669256,145.41346810525283 35.14990347856656,145.3431895294343 34.463273916975595,145.16749302329845 33.2989890081808,145.02693574971636 31.418221078580245,144.95665709019522 30.194229251355864,144.71068166173063 29.477746230433695,144.64040293358266 29.119504720089026,144.64040293358266 28.19404748501256,144.53498481278075 27.32829716813285,144.3241484684404 26.76108144328464,144.35928786874865 26.193865718436427,144.28900906446506 25.41767577920109,144.04303312962293 24.820606595254503,144.14845141017577 24.044416656019166,144.14845141017577 23.17866633925587,143.9727542567125 22.044234889675863,143.9727542567125 21.088924195151776,143.83219646546058 20.342587715247646,143.58622018402093 18.999182051164098,143.4808017204923 18.10357827518601,143.26996469084406 16.013836131081916,143.02398798285867 15.864568835007958,142.77801108837593 15.864568835007958,142.60231319238665 16.222810345469043,141.72382228437345 16.192956886370666,141.44270469111507 16.25266380480025,140.91560854695854 16.133249967824668,139.1937551717856 16.55119839683175,136.76908899811679 16.431784559972584,136.06628381941118 16.461638019187376,135.64459998099483 16.55119839683175,135.22291559411678 16.819879529532045,134.20384272863157 17.506509091123007,132.76307907461887 17.8946040609153,131.5331538169121 18.252845571143553,130.6897738010157 18.581233622389846,129.77610964156338 18.90962167363614,129.07328930552467 19.088742428692058,128.5110319396481 19.685811612871476,127.21080804691883 19.864932367927395,126.50798215018585 20.133613500744104,126.15656863045297 20.282880796818063,125.73487190404558 20.670975766377524,125.24289169671829 21.327751868753694,124.15350429544924 21.297898409655318,124.15350429544924 21.44716570561286,124.01293791245553 21.80540721595753,123.41553010520875 22.10394180798903,122.78297946226667 22.909985206555575,121.37730694859056 23.417494012974203,120.67446840647608 24.104123574565165,119.62020773626864 24.79075313603971,118.39023262169212 25.05943426885642,117.75767217422253 25.41767577920109,117.23053752537817 25.835624207975343,116.14112320161075 26.40283993293997,115.68427094409708 27.507417923305184,113.92714087714558 27.835805974551477,113.71628462916124 27.98507327050902,113.68114190781489" stroke="#4dd2ff" stroke-linecap="round" stroke-linejoin="round" stroke-width="0.5"><title>2024-06-17 3.2km</title><desc>11672403120</desc></polyline><polyline fill="none" points="80.19999998807907,118.15832583606243 47.80000001192093,141.04167415946722" stroke="#4dd2ff" stroke-linecap="round" stroke-linejoin="round" stroke-width="0.5"><title>2024-05-09 8.0km</title><desc>9223370321595310162</desc></polyline><polyline fill="none" points="83.80000000074506,124.58172398433089 90.62105263397098,127.59269151836634 86.35789473354816,122.57441175170243 105.1157894730568,133.61462364904583 116.19999999925494,136.6255882475525 109.37894736975431,135.6219334891066 86.35789473354816,131.6073133731261" stroke="#4dd2ff" stroke-linecap="round" stroke-linejoin="round" stroke-width="0.5"><title>2024-05-08 6.2km</title><desc>9223370321684028463</desc></polyline><polyline fill="none" points="136.00000001490116,113.40000000037253 130.9955199509859,145.80000000074506 141.00448006391525,134.01818628795445 141.00448006391525,136.96364019811153" stroke="#4dd2ff" stroke-linecap="round" stroke-linejoin="round" stroke-width="0.5"><title>2024-05-07 6.1km</title><desc>9223370321771754451</desc></polyline><polyline fill="none" points="96.0679089576006,154.19999999925494 115.72836419939995,186.60000000149012 84.27163580060005,186.60000000149012" stroke="#4dd2ff" stroke-linecap="round" stroke-linejoin="round" stroke-width="0.5"><title>2024-05-02 6.8km</title><desc>9223370322200251369</desc></polyline><polyline fill="none" points="127.89999999850988,179.93474477063864 119.79999999701977,182.6589545244351 152.19999999552965,170.40000597946346 147.57142857462168,174.48632348887622 151.04285714030266,166.31368714105338 152.19999999552965,158.14104547537863 152.19999999552965,159.50315278582275" stroke="#4dd2ff" stroke-linecap="round" stroke-linejoin="round" stroke-width="0.5"><title>2024-05-01 4.0km</title><desc>9223370322286947528</desc></polyline><polyline fill="none" points="155.80000000074506,173.68783953879029 188.19999999925494,167.11216046195477 178.14482758566737,171.057568336837 187.08275861665606,173.68783953879029" stroke="#4dd2ff" stroke-linecap="round" stroke-linejoin="round" stroke-width="0.5"><title>2024-04-30 5.3km</title><desc>9223370322373916531</desc></polyline><polyline fill="none" points="11.800000000046566,208.9477810143726 13.177637794986367,210.44932819029782 15.932913385564461,209.84870980819687 17.00440944870934,210.6895753608551 28.637795275542885,200.65916738443775 41.138582677114755,200.77929310500622 43.587716535199434,203.24186463857768 44.09795275586657,217.95700304058846 41.138582677114755,221.44052962493151 26.902992125833407,221.5606508407509 24.50488188955933,220.11919453268638 16.647244094172493,219.7588298699702 16.188031495781615,212.0109329370316 18.27999999979511,209.30815270770108 28.790866141440347,200.65916738443775 40.98551181098446,200.77929310500622 43.33259842521511,203.1217394519481 44.09795275586657,206.0047367470106 43.79181102337316,218.8579171875026 40.78141732257791,221.68077203031862 27.260157479904592,221.68077203031862 24.811023621819913,220.17925528716296 16.034960629418492,219.39846497273538 16.4941732280422,211.41031624755124 27.923464566702023,200.9594816371682 41.49574803118594,200.89941879961407 44.09795275586657,204.26292767492123 43.84283464541659,217.41645384940784 43.536692913156,219.15822157775983 40.88346456666477,221.6207114388235 27.260157479904592,221.50059023598442 24.50488188955933,220.05913377174875 16.749291338259354,219.69876906997524 15.932913385564461,218.31736887502484 16.085984251694754,213.57253328332445 16.4941732280422,211.59050132276025 28.076535433065146,201.0796072926605 40.88346456666477,200.7192302479525 43.587716535199434,203.1818020485225 43.84283464541659,218.7978562899516 41.03653543279506,221.5606508407509 39.70992125989869,221.68077203031862 27.77039370080456,221.74083261552732 24.759999999776483,220.23931603494566 16.800314960302785,219.7588298699702 15.779842519434169,216.51553735911148 16.137007873971015,214.7136999841896 16.953385826433077,214.41339318547398 16.034960629418492,214.2332090283744 16.085984251694754,213.03197981551057 18.228976377518848,209.60846227302682 28.484724409412593,200.9594816371682 41.750866141635925,201.31985852547223 43.94488188973628,203.9025527005433 44.04692913382314,217.83688104362227 41.189606298925355,221.20028711517807 26.851968503789976,221.68077203031862 22.974173228256404,219.93901223060675 16.953385826433077,219.7588298699702 16.137007873971015,218.8579171875026 15.983937007840723,213.57253328332445 16.647244094172493,211.1700693894527 28.076535433065146,200.9594816371682 41.240629920968786,201.0195444681449 43.79181102337316,203.84249018208357 44.199999999953434,208.52734707604395 43.84283464541659,217.59663697169162 41.29165354324505,221.3204083830933 26.800944881746545,221.68077203031862 24.55590551160276,220.11919453268638 16.4941732280422,219.638708263461 16.647244094172493,211.3502545428928" stroke="#4dd2ff" stroke-linecap="round" stroke-linejoin="round" stroke-width="0.5"><title>2024-04-27 9.8km</title><desc>1714200483443</desc></polyline><polyline fill="none" points="47.800000000046566,208.1262787936139 48.30704225366935,209.85717289079912 49.32112676068209,210.57340333954198 50.89295774651691,210.39434581471141 52.059154929593205,209.97654469695408 52.76901408447884,210.57340333954198 54.34084507031366,209.91685879707802 56.115492957876995,208.60376736387843 56.57183098606765,207.88753435312537 57.58591549308039,207.11161420703866 60.12112676072866,204.6047878015088 61.69295774656348,203.17231044598157 63.67042253538966,201.20264799747383 66.4591549297329,200.72515300952364 70.05915492982604,200.78483990568202 71.4788732395973,200.4864053603378 72.79718309873715,200.90421367855743 76.1943661973346,200.96390055521624 77.46197183104232,201.14296114665922 79.54084507073276,203.4110569305485 80.04788732412271,206.39537925593322 80.04788732412271,209.73780105874175 80.04788732412271,213.37863029458094 80.04788732412271,216.84038003039313 79.54084507073276,219.168096065172 77.10704225371592,221.49580226128455 73.6591549294535,221.67485617648344 70.26197183108889,221.61517154466128 66.35774647910148,221.79422542097745 62.96056338050403,221.61517154466128 61.33802816923708,220.60053181176772 58.954929577419534,219.94399922376033 55.45633802842349,219.94399922376033 52.76901408447884,219.82462957839016 52.31267605652101,219.10841116163647 52.00845070439391,215.40793450310593 52.31267605652101,212.12523278273875 52.97183098620735,211.05088978796266 54.39154929597862,209.43937136547174 55.912676056614146,208.54408131516539 58.65070422552526,206.39537925593322 61.03380281710997,204.0676092299982 63.416901408694685,201.73982936394168 64.83661971846595,200.84452679537935 68.43661971832626,200.96390055521624 71.1746478874702,201.32202167977812 71.98591549298726,201.14296114665922 74.11549295764416,200.96390055521624 76.95492957765236,200.96390055521624 78.17183098639362,201.85920292983064 79.89577464829199,204.4257283360348 80.09859154955484,207.9472204730846 79.89577464829199,210.81214661546983 80.04788732412271,213.7367433452746 80.14929577498697,217.3775461424957 78.62816901435144,220.1827384372591 76.75211267615668,221.73454080184456 72.79718309873715,221.79422542097745 70.00845070439391,221.8539100336493 66.71267605666071,221.79422542097745 63.31549295783043,221.73454080184456 61.185915493173525,220.54084706347203 59.7154929577373,220.1827384372591 58.39718309883028,220.36179277935298 54.64507042244077,220.00368403689936 52.718309859512374,220.00368403689936 51.95774647896178,219.10841116163647 51.95774647896178,215.64667568309233 52.464788732351735,211.88649007619824 53.884507042355835,210.39434581471141 55.65915492968634,208.78282547090203 57.78873239434324,207.11161420703866 60.07042253529653,204.6047878015088 62.808450704440475,202.21732347208308 64.63380281697027,200.90421367855743 68.58873239462264,200.78483990568202 70.56619718321599,200.96390055521624 71.98591549298726,200.90421367855743 75.8901408452075,200.78483990568202 77.46197183104232,201.08327428932535 79.7436619719956,203.70948989101453 80.14929577498697,205.91788877063664 79.84507042285986,208.96188351971796 79.99718309892341,209.79748697805917 79.84507042285986,213.557686849148 79.7943661971949,217.4969163184869 79.4901408450678,219.2277809624793 77.76619718316942,220.89895545662148 76.85352112702094,221.67485617648344 73.10140845109709,221.73454080184456 70.41408450715244,221.67485617648344 67.01690140855499,221.55548690608703 63.31549295783043,221.55548690608703 60.983098591445014,220.36179277935298 59.7154929577373,220.06336884346092 57.07887323969044,219.88431440427667 53.32676056353375,219.82462957839016 52.261971831088886,219.168096065172 52.059154929593205,216.42258380318526 52.21126760565676,213.67705785296857 53.884507042355835,210.39434581471141 55.96338028181344,209.20062749437056 57.940845070639625,207.17130041104974 58.44788732402958,206.5147518122685 60.0197183098644,205.08227942528902 61.64225352136418,203.4110569305485 64.12676056358032,201.2623348419438 65.64788732398301,200.90421367855743 67.6253521128092,201.08327428932535 70.16056338045746,200.96390055521624 71.4788732395973,201.2623348419438 74.21690140874125,200.90421367855743 76.85352112702094,200.90421367855743 78.67887323978357,202.3963836557814 79.99718309892341,204.30635532637825 79.89577464829199,207.9472204730846 79.84507042285986,210.63308916828828 79.94647887349129,214.0948561631376 79.89577464829199,217.4969163184869 79.7943661971949,218.8696714824182 78.27323943702504,220.48116230842425 75.68732394394465,221.73454080184456 72.79718309873715,221.79422542097745 69.85633802833036,221.79422542097745 67.2704225354828,221.91359463968547 65.14084507082589,221.79422542097745 63.822535211453214,221.79422542097745 61.64225352136418,221.07800956600113 59.46197183104232,220.06336884346092 57.63661971851252,219.82462957839016 55.40563380299136,219.64557506144047 52.92112676054239,219.82462957839016 52.31267605652101,219.2874658529763 51.90704225352965,216.60163936804747 52.261971831088886,214.81108110031346 53.073239436605945,214.5126541563659 52.464788732351735,214.5126541563659 52.21126760565676,213.13988813146716 53.52957746502943,210.6927749904571 54.34084507031366,209.73780105874175 55.709859155118465,208.9021975097712 57.63661971851252,207.2906727992813 59.51267605647445,205.73882973194122 61.1352112677414,204.00792268972145 63.56901408475824,201.68014257139293 64.53239436633885,201.14296114665922 67.87887323950417,201.02358742558863 70.71830985927954,201.2623348419438 71.4788732395973,201.38170851115137 73.86197183118202,201.14296114665922 76.75211267615668,201.02358742558863 78.93239436624572,202.8141905249795 80.04788732412271,205.85820243082708 80.09859154955484,209.3796854072716 79.99718309892341,212.8414602817502 79.94647887349129,216.2435281802318 79.7436619719956,218.63093169982312 77.15774647891521,221.2570636170567 73.70985915488563,221.49580226128455 70.41408450715244,221.43611760996282 67.06760563375428,221.37643295212183 65.24225352122448,221.55548690608703 62.9098591550719,221.73454080184456 60.62816901435144,220.30210800521309 57.18028169032186,220.00368403689936 53.884507042355835,219.94399922376033 52.718309859512374,219.64557506144047 52.261971831088886,218.92935641185613 52.16056338022463,215.58699039777275 52.10985915502533,213.67705785296857 52.51549295778386,211.6477472660481 54.23943661991507,210.03623059025267 56.06478873244487,208.18596488737967 58.60000000009313,206.09694775094977 61.388732394436374,203.76917646359652 63.72112676058896,201.50108215463115 64.58309859177098,200.96390055521624 67.98028169036843,201.08327428932535 71.52957746502943,201.32202167977812 74.01408450724557,201.14296114665922 77.20845070434734,201.20264799747383 78.98309859167784,202.99325051449705 79.7436619719956,204.00792268972145 79.99718309892341,206.15663406491512 80.14929577498697,208.663453406014 79.99718309892341,212.1849184432649 79.99718309892341,215.46761980786687 79.7943661971949,217.67597153387032 79.33802816900425,219.2277809624793 77.664788732538,221.13769425608916 75.58591549331322,221.61517154466128 72.13802816905081,221.73454080184456 68.2338028170634,221.67485617648344 65.24225352122448,221.55548690608703 62.8591549298726,221.73454080184456 61.33802816923708,220.48116230842425 58.90422535245307,219.94399922376033 55.05070422543213,219.76494474580977 53.02253521117382,219.88431440427667 52.261971831088886,219.34715073736152 52.21126760565676,217.1984908299055 52.21126760565676,213.85611431056168 52.76901408447884,211.4686900905799" stroke="#4dd2ff" stroke-linecap="round" stroke-linejoin="round" stroke-width="0.5"><title>2024-04-27 10.1km</title><desc>9223370322649067555</desc></polyline><polyline fill="none" points="100.0,208.47579054161906 109.25714284181595,208.47579054161906 97.68571427464485,213.9242094606161 83.79999999701977,208.47579054161906 116.19999998807907,213.9242094606161 90.74285712838173,213.9242094606161" stroke="#4dd2ff" stroke-linecap="round" stroke-linejoin="round" stroke-width="0.5"><title>2024-04-26 5.2km</title><desc>9223370322713802999</desc></polyline><polyline fill="none" points="157.67826086934656,211.2000072785886 157.20869565196335,211.0157611783361 158.30434782523662,211.5684994192561 159.24347826093435,212.48972942167893 161.9043478257954,212.48972942167893 163.15652173943818,211.75274545990396 163.31304347794503,210.83151505771093 162.68695652112365,211.75274545990396 162.21739130374044,211.0157611783361 163.0,210.64726891729515 166.44347826112062,210.64726891729515 167.69565217383206,211.0157611783361 169.88695652224123,210.83151505771093 170.20000000018626,209.91028415691108 169.41739130485803,208.9890527566895 167.069565217942,207.88357441779226 165.81739130429924,207.14658845809754 164.09565217327327,206.22535556042567 163.15652173943818,209.54179165663663 163.15652173943818,210.64726891729515 162.37391304317862,211.3842533591669 161.4347826084122,211.2000072785886 160.18260869570076,211.3842533591669 158.77391304261982,211.0157611783361 158.4608695646748,212.30548346124124 159.86956521775573,212.85822128283326 158.77391304261982,213.595204765792 159.86956521775573,213.77945058629848 159.55652173794806,214.70067939104047 158.77391304261982,215.25341643369757 155.79999999981374,216.1746444394812 160.0260869562626,213.04246718343347 161.12173913046718,212.48972942167893 160.80869565159082,211.3842533591669 164.25217391271144,212.48972942167893 165.66086956579238,212.30548346124124 166.75652173906565,212.85822128283326 166.13043478224427,213.595204765792 166.44347826112062,214.3321879291907 167.38260869588703,215.0691707727965 167.38260869588703,215.80615329672582 166.13043478224427,216.1746444394812 163.62608695589006,215.0691707727965 163.4695652173832,213.96369638724718 165.03478260803968,213.77945058629848 165.81739130429924,214.3321879291907 167.69565217383206,213.77945058629848 168.0086956527084,214.88492509175558 166.75652173906565,215.62190769589506 165.34782608691603,215.62190769589506 161.12173913046718,213.04246718343347 158.77391304261982,211.0157611783361 157.67826086934656,210.64726891729515 156.58260869514197,210.83151505771093 157.20869565196335,210.0945303774206 158.4608695646748,210.4630227573216 159.40000000037253,210.2787765772082 158.77391304261982,211.0157611783361 157.3652173904702,211.0157611783361 155.79999999981374,211.2000072785886 159.24347826093435,211.3842533591669 160.4956521736458,210.83151505771093 161.4347826084122,210.83151505771093 162.21739130374044,211.5684994192561 164.09565217327327,210.64726891729515 164.8782608686015,211.0157611783361 165.81739130429924,211.0157611783361 166.44347826112062,211.5684994192561 167.38260869588703,211.93699148017913 168.32173913065344,211.75274545990396 169.10434782598168,211.93699148017913 170.0434782607481,213.04246718343347 171.60869565233588,214.14794216793962 172.86086956504732,213.96369638724718 173.79999999981374,214.3321879291907 172.54782608617097,213.77945058629848 170.20000000018626,213.22671306424309 171.13913043495268,212.85822128283326 171.29565217345953,213.96369638724718 172.39130434859544,213.77945058629848 172.54782608617097,212.85822128283326 173.3304347814992,213.595204765792 174.26956521719694,213.77945058629848 171.60869565233588,213.77945058629848 172.86086956504732,213.96369638724718 173.17391304392368,213.41095892479643 173.9565217392519,213.77945058629848 174.73913043458015,214.3321879291907 172.07826086878777,215.25341643369757 173.79999999981374,214.70067939104047 175.83478260878474,213.04246718343347 175.0521739134565,212.12123748054728 175.0521739134565,212.85822128283326 173.3304347814992,213.22671306424309 171.60869565233588,213.04246718343347 170.35652173869312,212.30548346124124 167.38260869588703,212.12123748054728 168.79130434803665,212.30548346124124 169.57391304336488,213.22671306424309 171.13913043495268,212.48972942167893 174.26956521719694,212.30548346124124 176.1478260876611,212.85822128283326 178.0260869562626,213.04246718343347 179.27826086990535,213.04246718343347 182.72173913009465,213.41095892479643 186.0086956517771,213.77945058629848 188.20000000018626,214.14794216793962 186.0086956517771,214.14794216793962 185.5391304353252,214.14794216793962 183.5043478263542,214.14794216793962 181.78260869625956,213.96369638724718 180.5304347826168,214.14794216793962 178.80869565159082,214.14794216793962 178.18260869570076,213.595204765792 176.1478260876611,213.04246718343347 179.27826086990535,212.67397536255885 180.5304347826168,213.41095892479643 181.31304347794503,213.04246718343347 180.37391304410994,212.85822128283326 180.84347826149315,213.04246718343347 180.0608695652336,213.41095892479643 179.12173913046718,213.41095892479643 180.37391304410994,212.67397536255885" stroke="#4dd2ff" stroke-linecap="round" stroke-linejoin="round" stroke-width="0.5"><title>2024-04-24 3.4km</title><desc>9223370322893282018</desc></polyline><polyline fill="none" points="44.19999999925494,253.68260029517114 14.658823531121016,249.1956665813923 11.800000000745058,254.8043334186077 15.611764710396528,250.31740019097924" stroke="#4dd2ff" stroke-linecap="round" stroke-linejoin="round" stroke-width="0.5"><title>2024-04-23 3.1km</title><desc>9223370322979897699</desc></polyline></svg>