<?xml version="1.0" encoding="utf-8" ?>
<svg baseProfile="full" height="300mm" version="1.1" viewBox="0,0,200,300" width="200mm" xmlns="http://www.w3.org/2000/svg" xmlns:ev="http://www.w3.org/2001/xml-events" xmlns:xlink="http://www.w3.org/1999/xlink"><defs /><rect fill="#222222" height="300" width="200" x="0" y="0" /><text fill="#FFFFFF" style="font-size:12px; font-family:Arial; font-weight:bold;" x="10" y="20">Over 5km Runs</text><text fill="#FFFFFF" style="font-size:4px; font-family:Arial" x="10" y="280">ATHLETE</text><text fill="#FFFFFF" style="font-size:9px; font-family:Arial" x="10" y="290">L</text><text fill="#FFFFFF" style="font-size:4px; font-family:Arial" x="120" y="280">STATISTICS</text><text fill="#FFFFFF" style="font-size:3px; font-family:Arial" x="120" y="285">Number: 19</text><text fill="#FFFFFF" style="font-size:3px; font-family:Arial" x="120" y="290">Weekly: 1.9</text><text fill="#FFFFFF" style="font-size:3px; font-family:Arial" x="141" y="285">Total: 141.0 km</text><text fill="#FFFFFF" style="font-size:3px; font-family:Arial" x="141" y="290">Avg: 7.4 km</text><text fill="#FFFFFF" style="font-size:3px; font-family:Arial" x="167" y="285">Min: 5.0 km</text><text fill="#FFFFFF" style="font-size:3px; font-family:Arial" x="167" y="290">Max: 21.4 km</text><polyline fill="none" points="18.125435442168964,34.88785369393008 18.598747050215025,35.24543271941002 19.185835487151053,35.742064345966355 19.408838071656646,35.90098501540342 19.61818743677577,36.09963486284687 20.00502865490853,36.37774280254234 20.086947971663903,36.4704449703313 20.428278458246496,36.78165763994548 20.56481065286789,36.87435876472955 21.106388358253753,37.311375128676445 21.30208450386999,37.49677440316009 21.456820991123095,37.609337781261274 22.103073379024863,38.13904305743199 22.285116305196425,38.311195589383715 22.93591976625612,38.81440594956075 23.645887178339763,39.43678795410233 24.560652882326394,40.131989138335484 24.697185076976893,40.2511651325658 24.888330149435205,40.4630325899343 25.070373075606767,40.62193236247185 26.25365209573647,41.56207496032221 26.781576581619447,42.018895926888945 27.218479604431195,42.3764039334128 27.40052253063186,42.508813402819214 27.63717833464034,42.720667538189446 28.429065063479356,43.35622244421029 28.80680413529626,43.687236168927484 29.148134621878853,43.938804558802076 30.208534666802734,44.832520111423946 30.540763007069472,45.12380037391995 30.74556129903067,45.262819666197174 30.868440274207387,45.41507827352689 31.318996516463812,45.805651748683886 31.560203393630218,45.98438734581214 32.84815709630493,47.06340186783564 33.380632655345835,47.467196511192014 33.63549275198602,47.69887991221549 33.7856781660812,47.88422555679426 35.050876502966275,48.91022878374861 35.35124733115663,49.1816182831426 35.556045623117825,49.3338602750664 35.79725250028423,49.5390549820695 35.8427632318344,49.59862741935285 36.04301045060856,49.75748676889998 36.17499157207203,49.88324992225171 36.616445668041706,50.22744156344197 37.08975727608777,50.63120063016322 38.16836161367246,51.47841801369941 38.41411956399679,51.696838004747406 39.51092819418409,52.59697910105024 39.62925609620288,52.72273231102008 40.11166985053569,53.119844820121216 40.193589167291066,53.1595558295121 40.33467243509949,53.29192554373731 40.45300033711828,53.37796559636263 40.49851106866845,53.41767632036135 40.49851106866845,53.43753166588431 40.67600292165298,53.550045083229634 40.69875828741351,53.602992451760656 41.021884481364395,53.828017897227255 41.61807506461628,54.317774287257635 41.991263063275255,54.6486869862274 43.406646814226406,55.76714934064512 43.78438588604331,56.09804868602805 43.83899876390933,56.20393583266923 44.22583998204209,56.51497752067007 44.34416788400267,56.58777412249765 44.635436565906275,56.81939869216512 45.68218339138548,57.67970544506534 45.927941341738915,57.90470535030181 46.346640071918955,58.2289674402964 46.883666704117786,58.70542887391639 49.45957410943811,60.79649042959136 49.62341274297796,60.94868319552552 49.84186425441294,61.120726415345416 49.90102820540778,61.233215767406364 50.2469097651483,61.49127824400057 50.96142825036077,62.06033253837086 51.67139566241531,62.64261132214597 51.79882571074995,62.76832936609935 51.83978536914219,62.83449658094469 51.953562198003056,62.90066367389227 51.953562198003056,62.91389707784765 52.09009439262445,63.02638081474652 52.14470727046137,63.046230849395215 52.15380941677722,63.092547554264456 52.22207551408792,63.099164221526735 52.572508146986365,63.39029637397107 52.636223171139136,63.48292883676913 52.64532531745499,63.542478151004616 52.58616136643104,63.66819304577075 52.467833464441355,63.83360671074115 51.40743341948837,65.09072567402836 51.01149005506886,65.68618772388072 50.73842566579697,66.20224685027279 50.44260591076454,66.71829856378463 50.269665130908834,66.95647377756177 50.01025396111072,67.25419057435647 49.62796381616499,67.57836828065047 49.36400157320895,67.75699556269319 49.10459040341084,67.90915884321294 48.69954489270458,68.08778448061275 47.83939206652576,68.35241342207883 47.384284751082305,68.58396214698587 47.03840319137089,68.83535621580813 46.6970727047883,69.14628855185583 46.35119114507688,69.41090969700235 46.10088212159462,69.6424516002553 45.8232666591648,69.8012223286496 45.518344757845625,69.92691532438403 45.28168895380804,69.98645395833955 45.14060568602872,70.00630014774651 44.83113271155162,70.0261463261777 44.60357905382989,69.99968475250716 44.31231037195539,69.94676154666377 43.99828632429126,69.81445319101476 43.94822451961227,69.78799146141318 43.89361164174625,69.71522160452878 43.83899876390933,69.67552889319268 43.584138667269144,69.52998857648345 43.543179008876905,69.52998857648345 43.520423643116374,69.58952786820737 43.55683222832158,69.6490670612875 43.78438588604331,69.81445319101476 44.06655242163106,69.95337695166745 44.36237217663438,70.0592232658928 44.66274300482473,70.11214630606992 44.83113271155162,70.11214630606992 45.222525002784096,70.08568479571477 45.28624002696597,70.10553093031194 45.34995505111874,70.07906941508918 45.45918080685078,70.07245403323395 45.77320485445671,69.94676154666377 46.096331048436696,69.74829883048733 46.78809416788863,69.17275075408179 47.03385211821296,68.9478214139308 47.5890830430144,68.5574995111092 47.871249578602146,68.43841740839343 48.37641869872459,68.27302494430842 48.59942128328839,68.21348347084495 49.06818181817653,68.0282427001548 49.56424879198312,67.73714813077459 49.98294752219226,67.39974011044615 50.36978874029592,67.00278544132743 50.583689178543864,66.69183455365419 50.77028317787335,66.30148814011409 51.061551859776955,65.81851128350172 51.18443083492457,65.58032852527685 51.50755702887545,65.09734197328362 51.82613214966841,64.70036186310608 51.98541971005034,64.52833578633363 52.167462636251,64.28352802605514 52.686284975818126,63.701275839706796 52.740897853684146,63.59541079190967 52.75,63.46969564241954 52.69993819529191,63.35721329364242 52.44507809865172,63.125630878341326 52.190218002011534,62.946980566448474 51.37102483425406,62.27207136995639 51.1207158107718,62.08679996056162 50.73387459263904,61.722871195823245 50.3834419597697,61.458193414713605 50.051213619473856,61.14719452987629 49.778149230231065,60.93544906756142 49.32759298797464,60.53842296145376 49.27298011010862,60.50533725451896 49.263877963792766,60.47886866704721 49.163754354434786,60.42593143355771 49.15465220811893,60.406079950902495 49.01812001346843,60.2869708245089 48.75870884367032,60.101689176182845 48.572114844369935,59.94949282154994 48.38096977188252,59.8105303692937 48.06694572424749,59.55245581744384 47.68010450611473,59.208353530619206 47.39338689739816,58.98997921570481 46.7835430947307,58.493669017032516 45.93249241486774,57.77235263555849 45.22707607597113,57.20323040476069 44.84023485783837,56.86572342685031 44.676396224298514,56.746602559793246 44.24404427461559,56.369383874385676 43.23825710755773,55.54875410264867 43.06076525451499,55.38330228068662 42.214265647839056,54.66192343075818 41.172069895488676,53.828017897227255 40.92631194516434,53.602992451760656 40.00699516799068,52.861722188685235 39.48817282842356,52.42489504754485 39.24241487807012,52.1998608103022 38.68718395323958,51.769644373223855 38.295791661978,51.42546751277405 38.090993370016804,51.2732343877542 37.77696932241088,50.98862290123725 37.54486459153122,50.796674346034706 37.54486459153122,50.7834364768205 37.381025957962265,50.67753334745794 37.34006629959913,50.611343733024114 37.15347230024054,50.478964138143056 37.03059332509292,50.359822085501946 36.93046971570584,50.2936318854845 36.580037082807394,50.00239355598387 36.475362400262384,49.8964881232896 36.49356669286499,49.90310722198774 36.489015619736165,49.87001171630618 36.50266883918084,49.90310722198774 36.42985166874132,49.863392611521704 35.68802674458129,49.25442975110491 35.45137094054371,49.08894892858734 35.22836835597991,48.87713236302807 34.93709967410541,48.63883723332037 34.63672884594416,48.420398641941574 34.054191482195165,47.93718127952525 33.749269580846885,47.6724018848945 32.907321047299774,46.99720559148773 31.99255534328404,46.22270009136628 31.673980222491082,45.93804857273062 31.537448027869686,45.845370847160666 31.29624115070328,45.620295374901616 31.187015395000344,45.55409643808525 30.959461737249512,45.348878958368005 30.395128666161327,44.90534039857448 29.921817058086162,44.48165665788474 29.498567254748195,44.144030097719224 29.220951792318374,43.899083351258014 28.83411057421472,43.6011728940648 28.54284189234022,43.329741214376554 28.37445218564244,43.21057543855568 27.99216204066761,42.91265926863707 27.600769749406027,42.52205432290066 27.58256545677432,42.52867478110784 27.49154399370309,42.46909061326005 27.327705360134132,42.33006050375843 27.28219462861307,42.25723499344895 27.13656028767582,42.16454776668979 27.063743117178092,42.16454776668979 26.96817058097804,42.118204063568555 26.540369704453042,41.773934682045365 26.362877851439407,41.601798753381445 26.30826497360249,41.58193686233426 26.16263063266524,41.46938593896266 25.78034048769041,41.131731051813404 25.065822002477944,40.54248256412393 24.810961905808654,40.343857299001684 24.601612540718634,40.568965849768574 24.401365321944468,40.82055608919836 24.18291381050949,40.98607502209779 24.037279469601344,41.14497247976033 23.877991909190314,41.29062786486247 23.42743566693389,41.60841938127123 22.667406450171256,41.99903426662422 22.430750646162778,42.13806565794948 22.13037981794332,42.2704760063134 21.993847623321926,42.34992198093096 21.902826160221593,42.3764039334128 20.91979435889516,42.8994184926014 20.59211709178635,43.038446397444204 20.14611192268785,43.276778696177644 19.85029216762632,43.46876745301779 19.559023485780926,43.793159916334844 19.445246656920062,43.99176610048744 19.390633779083146,44.15065025687727 19.290510169696063,44.27643304871526 19.213141926040407,44.600818215261825 19.1084672435245,45.12380037391995 19.07205865829019,45.36873876571917 19.04475221937173,45.41507827352689 19.008343634108314,45.401838420253625 18.994690414634533,45.36211883115902 19.05385436565848,45.017880551866256 19.05385436565848,44.94506049295887 19.03109899989795,44.89872037858004 18.81264748846297,44.733219481873675 18.70342173278914,44.60743829018247 18.221007978427224,44.236712214678846 17.993454320705496,44.038107385385956 17.470080907951342,43.62765392368601 17.26528261601925,43.44228630620637 17.178812226076843,43.38932395400843 17.13330149455578,43.382703654493525 17.146954714000458,43.376083353745344 17.119648275082,43.34298183174178 16.760113495896803,43.03182603323512 16.40968086302746,42.76039004941413 16.30045510729542,42.64784282014807 16.18667827846366,42.5816384028476 16.136616473755566,42.52205432290066 15.995533205976244,42.41612682549385 15.918164962349692,42.33006050375843 15.840796718752244,42.29695801738853 15.727019889862277,42.204270893162175 15.544976963690715,42.01227537469458 14.898724575788947,41.489247892230196 14.825907405320322,41.47600659127056 14.684824137541,41.50910983454742 14.602904820756521,41.58855749390568 14.502781211369438,41.747452285191684 14.452719406690449,41.773934682045365 14.338942577829584,41.906346373289125 14.252472187887179,42.04537812354829 14.179655017418554,42.111583529673226 14.061327115399763,42.28371701427386 13.54250477583264,42.90603888121768 13.442381166416453,43.05168712222803 13.19662321609212,43.30988027922649 13.114703899307642,43.30325996505053 12.937212046294007,43.190714437459974 12.336470389942406,42.71404711539071 12.268204292602604,42.63460194644722 12.25,42.52867478110784 12.341021463071229,42.4359882550707 12.532166535558645,42.316819512856455 12.56402404763503,42.243993975698686 12.645943364419509,42.15792724132916 12.75516912015155,42.16454776668979 12.841639510064851,42.19765037513935 13.060091021470726,42.177788813722145 13.101050679833861,42.15130671474253 13.173867850302486,42.018895926888945 13.210276435565902,41.58855749390568 13.214827508694725,41.45614463065431 13.192072142934194,41.38993801589095" stroke="#ff0000" stroke-linecap="round" stroke-linejoin="round" stroke-width="0.5"><title>2024-09-08 21.4km</title><desc>12354281002</desc></polyline><polyline fill="none" points="73.95828266534954,32.96471235132776 64.85100951697677,35.58532231580466 61.81525180209428,42.01771534583531 61.81525180209428,62.505952859763056 66.06531260348856,70.367667716695 74.76781805604696,71.79706739680842 80.8393334876746,67.50886556808837 82.05363657325506,41.77947890292853 79.6250304011628,37.0147446161136 73.55351496953517,33.202949749771506 66.06531260348856,35.3470851755701 63.02955488860607,38.92063957056962 62.017635649070144,63.22065537236631 69.91060571093112,72.03530058637261 77.19642422907054,71.55883418116719 81.64886887837201,66.31769690802321 82.05363657325506,41.54124243417755 78.61311116162688,35.3470851755701 74.1606665123254,32.96471235132776 68.29153492860496,34.15589908603579 62.82717103976756,39.39711305079982 62.22001949790865,63.93535765283741 65.25577721372247,69.41473407996818 71.12490879651159,72.27353374962695 78.20834346674383,71.32060093944892 82.25602042116225,65.8412292636931 82.25602042116225,42.25595176429488 78.81549501046538,35.58532231580466 73.95828266534954,32.96471235132776 68.49391877651215,33.44118712237105 63.83909027930349,37.0147446161136 62.22001949790865,63.45888949139044 64.85100951697677,68.46180003019981 70.72014110162854,72.27353374962695 76.3868888374418,72.27353374962695 81.64886887837201,67.7470992221497 82.25602042116225,42.01771534583531 79.01787885837257,35.58532231580466 72.54159573093057,32.25 62.82717103976756,38.68240279145539 62.22001949790865,64.1735916940961 68.89868647232652,71.79706739680842 73.55351496953517,72.75 80.8393334876746,67.50886556808837 82.66078811697662,44.87655065045692 79.6250304011628,36.30003358237445 73.75589881744236,32.72647492703982 66.67246414721012,34.394136355957016 62.6247871927917,38.68240279145539 61.81525180209428,63.697123584803194 68.29153492860496,71.79706739680842 76.58927268441767,71.32060093944892 81.8512527262792,65.12652760325 82.05363657325506,40.82653287239373 77.60119192395359,34.63237359956838 72.13682803604752,32.25 65.66054490860552,34.870610817102715 61.81525180209428,41.064769418444484 62.22001949790865,64.88829366466962 71.93444418814033,72.5117668879684 76.79165653325617,71.32060093944892 81.64886887837201,65.364761516219 81.8512527262792,40.58829629980028 78.00595961976796,35.10884800949134 71.32729264441878,32.96471235132776 65.45816106069833,35.58532231580466 62.6247871927917,40.11182307777926 62.42240334395319,64.65005970047787 71.52967649232596,72.27353374962695 77.80357577186078,70.84413437987678 81.8512527262792,65.12652760325 82.05363657325506,41.54124243417755 77.19642422907054,34.15589908603579 71.73206033930182,32.72647492703982 66.67246414721012,34.394136355957016 62.42240334395319,40.11182307777926 62.017635649070144,63.45888949139044 64.04147412627935,68.22356645297259 71.12490879651159,72.03530058637261 76.79165653325617,71.32060093944892 81.64886887837201,65.12652760325 81.8512527262792,41.3030059391167 79.42264655325562,36.30003358237445 73.55351496953517,32.72647492703982 68.29153492860496,33.202949749771506 62.6247871927917,38.92063957056962 62.22001949790865,63.697123584803194 65.45816106069833,69.41473407996818 71.12490879651159,72.5117668879684 77.39880807604641,71.08236767258495 81.44648503046483,65.8412292636931 82.25602042116225,41.3030059391167 78.41072731465101,34.63237359956838 73.75589881744236,32.48823747644201 66.47008029837161,34.394136355957016 63.02955488860607,38.68240279145539 62.42240334395319,65.12652760325 71.12490879651159,71.79706739680842 79.22026270534843,69.41473407996818 81.44648503046483,65.364761516219 82.05363657325506,40.82653287239373 77.80357577186078,34.870610817102715 73.14874727465212,33.44118712237105 68.0891510816291,33.91766179050319 62.82717103976756,38.68240279145539 62.42240334395319,64.88829366466962 66.8748479951173,70.367667716695 72.54159573093057,72.03530058637261 78.81549501046538,69.65296752750874 81.8512527262792,64.88829366466962 81.24410118348897,38.92063957056962 76.79165653325617,34.15589908603579 70.51775725372136,32.96471235132776 62.017635649070144,40.58829629980028 61.81525180209428,62.98242122773081 65.45816106069833,69.65296752750874 71.52967649232596,72.27353374962695 76.99404038023204,71.08236767258495 81.8512527262792,65.364761516219 81.8512527262792,41.54124243417755 78.81549501046538,35.82355943066068 73.35113112069666,32.72647492703982 67.88676723372191,33.67942446959205 63.02955488860607,38.92063957056962 62.017635649070144,63.697123584803194 69.70822186209261,71.32060093944892 75.98212114255875,71.08236767258495 81.04171733465046,66.79416444920935 82.25602042116225,41.54124243417755 78.20834346674383,35.10884800949134 73.75589881744236,32.72647492703982 66.8748479951173,34.394136355957016 62.82717103976756,38.92063957056962 62.42240334395319,63.697123584803194 66.26769645232707,69.89120094943792 72.13682803604752,72.03530058637261 78.20834346674383,70.84413437987678 81.64886887837201,64.88829366466962 81.8512527262792,40.58829629980028 73.55351496953517,32.96471235132776 68.0891510816291,33.202949749771506 63.231938735581934,37.252981576137245 62.22001949790865,64.1735916940961 69.50583801511675,71.55883418116719 77.39880807604641,70.84413437987678 81.04171733465046,66.79416444920935 82.66078811697662,42.49418815551326 79.6250304011628,36.06179651990533 74.36305036116391,32.96471235132776 66.8748479951173,34.15589908603579 62.82717103976756,38.444165986962616 62.017635649070144,63.93535765283741 68.49391877651215,71.55883418116719 74.76781805604696,72.27353374962695 81.04171733465046,67.7470992221497 81.8512527262792,40.350059701362625 72.33921188302338,32.72647492703982 66.26769645232707,34.63237359956838 62.017635649070144,39.63534975214861 62.42240334395319,64.1735916940961 65.45816106069833,69.41473407996818 71.12490879651159,72.03530058637261 76.99404038023204,70.367667716695 81.8512527262792,64.41182571067475 82.45840427000076,42.01771534583531 77.39880807604641,34.394136355957016 72.13682803604752,32.48823747644201 67.27961569000036,33.67942446959205 62.42240334395319,39.39711305079982 62.42240334395319,64.88829366466962 66.67246414721012,69.89120094943792 71.73206033930182,71.79706739680842 77.19642422907054,70.60590106085874 81.8512527262792,65.12652760325 82.05363657325506,42.25595176429488 79.42264655325562,36.77650763094425 73.55351496953517,33.202949749771506 66.67246414721012,34.394136355957016 62.22001949790865,41.064769418444484 62.42240334395319,64.65005970047787 66.67246414721012,70.367667716695 73.75589881744236,71.79706739680842 78.61311116162688,69.65296752750874 82.05363657325506,63.93535765283741 81.64886887837201,39.39711305079982 79.01787885837257,35.82355943066068 71.12490879651159,32.72647492703982 62.22001949790865,39.63534975214861 61.612867954187095,62.74418705678545 64.64862567000091,68.46180003019981 69.70822186209261,71.79706739680842 75.3749695988372,71.55883418116719 80.8393334876746,67.7470992221497 82.66078811697662,45.11478675855324 81.44648503046483,38.68240279145539 76.99404038023204,33.67942446959205 67.6843833848834,33.91766179050319 62.42240334395319,38.92063957056962 62.017635649070144,61.55301581509411 65.45816106069833,69.41473407996818 76.18450498953462,71.55883418116719 82.45840427000076,63.45888949139044 81.64886887837201,39.15887632383965 74.56543420813978,32.96471235132776 67.07723184302449,33.91766179050319 61.612867954187095,41.54124243417755 62.6247871927917,65.60299540287815 71.93444418814033,71.79706739680842 78.20834346674383,69.89120094943792 81.8512527262792,64.88829366466962 81.8512527262792,40.58829629980028 77.39880807604641,34.394136355957016 71.73206033930182,32.48823747644201 62.42240334395319,39.87358642718755 61.81525180209428,62.74418705678545 65.25577721372247,68.93826710688882 70.92252494953573,71.55883418116719 78.81549501046538,69.65296752750874 82.25602042116225,63.45888949139044 81.24410118348897,39.87358642718755 75.98212114255875,33.91766179050319 69.50583801511675,33.202949749771506 62.22001949790865,41.3030059391167 62.017635649070144,62.98242122773081 65.05339336581528,69.41473407996818 75.77973729465157,71.08236767258495 82.45840427000076,63.93535765283741 81.44648503046483,38.444165986962616 75.3749695988372,33.202949749771506 66.67246414721012,34.394136355957016 61.81525180209428,42.01771534583531 61.612867954187095,59.17067139525898 65.66054490860552,69.41473407996818 69.30345416720957,71.55883418116719 79.01787885837257,69.41473407996818 82.05363657325506,64.1735916940961 82.25602042116225,50.59421010315418 92.57759665511549,51.070681052980945 91.16090972162783,52.73832856398076 93.38713204674423,52.97656381921843 91.97044511139393,51.070681052980945 82.66078811697662,50.832445591455325 81.8512527262792,39.87358642718755 75.57735344674438,33.202949749771506 70.72014110162854,32.48823747644201 65.8629287565127,35.10884800949134 62.6247871927917,39.87358642718755 61.612867954187095,61.55301581509411 67.6843833848834,70.60590106085874 76.58927268441767,70.60590106085874 80.8393334876746,65.8412292636931 81.8512527262792,42.25595176429488 79.6250304011628,36.77650763094425 73.95828266534954,32.96471235132776 66.67246414721012,34.394136355957016 62.82717103976756,38.92063957056962 62.017635649070144,62.98242122773081 68.0891510816291,71.32060093944892 76.58927268441767,71.32060093944892 81.04171733465046,66.55593069130555 82.05363657325506,40.82653287239373 74.36305036116391,32.96471235132776 66.26769645232707,34.63237359956838 62.82717103976756,39.15887632383965 62.017635649070144,62.267718637827784 65.25577721372247,68.93826710688882 70.3153734067455,71.79706739680842 76.58927268441767,71.32060093944892 81.8512527262792,63.45888949139044 82.66078811697662,51.78538728505373 81.64886887837201,41.064769418444484 79.22026270534843,36.30003358237445 71.73206033930182,32.72647492703982 62.82717103976756,39.15887632383965 62.42240334395319,63.93535765283741 66.06531260348856,69.89120094943792 72.13682803604752,71.55883418116719 78.41072731465101,70.367667716695 81.8512527262792,64.41182571067475 81.8512527262792,41.3030059391167 74.56543420813978,33.202949749771506 68.0891510816291,33.91766179050319 62.82717103976756,38.68240279145539 62.6247871927917,64.88829366466962 70.51775725372136,72.03530058637261 75.77973729465157,71.32060093944892" stroke="#4dd2ff" stroke-linecap="round" stroke-linejoin="round" stroke-width="0.5"><title>2024-09-01 14.8km</title><desc>12293517429</desc></polyline><polyline fill="none" points="130.24118133541197,35.54065121547319 128.73595163226128,34.275016681523994 125.72549222409725,32.756254334934056 121.63986873999238,32.25 118.41437651775777,33.00938146095723 114.5437858486548,36.046904837246984 113.2535889595747,38.57817129907198 112.39345769863576,41.86881359783001 112.1784248854965,54.27196212322451 112.82352332863957,65.1563034998253 113.68365458957851,67.94066175026819 115.40391710866243,70.47189364302903 117.98431088682264,71.99063146137632 121.20980310998857,72.75 126.15555785316974,72.24375433544628 128.73595163226128,70.21877057710662 131.1013125963509,67.43441504263319 132.1764766704291,64.65005618846044 132.39150948543102,62.118817986221984 132.1764766704291,56.80320883146487 132.39150948543102,45.918828522088006 131.9614438554272,39.33755070180632 129.16601726133376,35.287524364190176 127.66078755725175,34.02188969193958 125.51045940816402,33.00938146095723 121.4248359259218,32.503127180738375 117.33921244274825,33.76876267581247 114.9738514777273,35.79377803974785 113.68365458957851,37.81879164837301 112.39345769863576,41.362561237532645 112.39345769863576,45.15945125906728 112.60849051456898,50.22196168452501 112.39345769863576,62.878189734881744 113.4686217745766,66.42192129860632 114.9738514777273,68.95315483678132 117.12417962774634,71.23126267502084 121.4248359259218,72.49687718134373 124.65032814908773,72.49687718134373 128.73595163226128,69.71252436307259 131.9614438554272,66.16879779333249 132.60654230043292,64.39693249156699 132.8215751145035,63.131313596852124 132.1764766704291,59.58757703984156 132.1764766704291,43.387570017483085 131.5313782254234,38.83129779412411 129.16601726133376,35.79377803974785 126.37059066817164,33.51563563174568 124.00522970315069,32.503127180738375 122.06993436999619,32.503127180738375 119.48954059183598,33.00938146095723 116.69411399681121,34.781270576873794 114.5437858486548,37.05941175157204 113.0385561445728,40.09692985890433 112.39345769863576,43.387570017483085 112.82352332863957,45.41257704142481 112.60849051456898,51.23446245212108 113.0385561445728,65.40942711476237 114.5437858486548,68.19378506345674 116.47908118274063,70.47189364302903 119.48954059183598,71.99063146137632 122.71503281593323,72.49687718134373 128.09085318725556,71.48438563128002 130.0261485222727,69.71252436307259 131.7464110404253,67.18129164795391 132.39150948543102,65.1563034998253 132.1764766704291,40.603182492777705 131.5313782254234,38.83129779412411 129.81111570633948,36.046904837246984 126.58562348317355,33.76876267581247 123.79019689001143,33.00938146095723 120.99477029591799,33.26250855997205 117.76927807182074,34.781270576873794 115.18888429366052,37.312538410536945 113.68365458957851,40.35005619004369 113.0385561445728,43.387570017483085 112.82352332863957,55.031336423242465 113.0385561445728,63.89068501628935 113.4686217745766,65.66255070152692 115.40391710866243,69.20627803937532 116.47908118274063,70.47189364302903 120.99477029591799,72.24375433544628 124.43529533408582,72.24375433544628 126.58562348317355,71.48438563128002 129.59608289133757,68.95315483678132 130.88627978041768,67.18129164795391 132.1764766704291,63.63756123720668 131.9614438554272,54.01883730106056 132.39150948543102,50.72821212303825 132.1764766704291,48.95633510663174 132.1764766704291,42.62819193047471 131.7464110404253,40.35005619004369 129.81111570633948,36.553158349124715 127.66078755725175,34.5281436429359 124.22026251908392,32.503127180738375 121.85490155499429,32.756254334934056 120.13463903591037,33.26250855997205 116.26404836773872,35.54065121547319 114.3287530336529,38.57817129907198 113.2535889595747,41.61568743083626 113.0385561445728,44.14694785629399 113.4686217745766,51.23446245212108 113.0385561445728,63.63756123720668 113.4686217745766,65.9156742610503 114.75881866365671,68.19378506345674 117.55424525681883,71.23126267502084 122.93006562907249,72.49687718134373 125.29542659409344,72.24375433544628 126.80065629817545,71.48438563128002 129.59608289133757,68.95315483678132 131.1013125963509,66.92816822533496 132.39150948543102,62.878189734881744 131.9614438554272,51.23446245212108 132.1764766704291,42.62819193047471 131.7464110404253,39.084424261702225 130.4562141513452,36.80628506443463 128.30588600225747,34.5281436429359 126.15555785316974,33.26250855997205 122.71503281593323,32.25 119.70457340590656,33.00938146095723 116.69411399681121,35.03439748403616 115.18888429366052,36.80628506443463 113.89868740364909,39.084424261702225 113.2535889595747,41.61568743083626 113.0385561445728,51.23446245212108 113.4686217745766,57.8157067457214 113.2535889595747,63.63756123720668 114.3287530336529,66.92816822533496 115.83398273866624,69.4594012144953 118.19934370182455,71.48438563128002 121.20980310998857,72.24375433544628 124.65032814908773,72.24375433544628 128.52091881725937,70.47189364302903 129.81111570633948,69.71252436307259 131.31634540949017,67.18129164795391 132.39150948543102,63.131313596852124 132.39150948543102,55.284461135743186 131.7464110404253,45.41257704142481 131.9614438554272,40.603182492777705 131.1013125963509,38.071918225847185 128.52091881725937,35.03439748403616 125.94052503816783,33.51563563174568 122.5,32.503127180738375 119.48954059183598,33.51563563174568 116.90914681274444,35.54065121547319 115.40391710866243,37.312538410536945 114.113720218651,39.590677115367725 113.0385561445728,45.15945125906728 113.0385561445728,62.62506584567018 113.68365458957851,66.16879779333249 115.18888429366052,68.70003160671331 118.19934370182455,71.48438563128002 120.34967185091227,72.49687718134373 123.3601312590763,72.49687718134373 125.08039377909154,72.24375433544628 128.73595163226128,70.21877057710662 131.1013125963509,66.92816822533496 132.39150948543102,62.62506584567018 132.60654230043292,60.09382544900291 132.1764766704291,47.43758230796084 132.39150948543102,42.37506584706716 131.5313782254234,39.590677115367725 130.24118133541197,36.30003160657361 127.23072192724794,33.51563563174568 125.08039377909154,32.503127180738375 122.28496718406677,32.25 118.62940933089703,33.51563563174568 117.55424525681883,34.5281436429359 114.5437858486548,38.071918225847185 113.2535889595747,41.109435016987845 113.0385561445728,53.259462672052905 113.2535889595747,56.80320883146487 112.82352332863957,63.63756123720668 113.2535889595747,66.16879779333249 113.89868740364909,67.68753840983845 116.47908118274063,70.47189364302903 119.27450777683407,72.24375433544628 122.06993436999619,72.49687718134373 126.15555785316974,71.48438563128002 128.73595163226128,69.96564748417586 130.88627978041768,67.43441504263319 132.1764766704291,64.39693249156699 132.39150948543102,61.612570016644895 132.39150948543102,54.01883730106056 132.8215751145035,48.19695883104578 132.8215751145035,43.8938219381962 132.39150948543102,41.362561237532645 129.81111570633948,36.80628506443463 127.87582037225366,34.5281436429359 125.29542659409344,33.51563563174568 120.56470466591418,33.51563563174568 117.76927807182074,35.03439748403616 115.61894992273301,37.05941175157204 114.113720218651,39.590677115367725 113.2535889595747,41.86881359783001 113.68365458957851,46.67820553923957 113.2535889595747,53.00633774069138 113.4686217745766,61.86569401505403 113.89868740364909,64.90317985834554 114.9738514777273,66.92816822533496 117.55424525681883,69.96564748417586 119.05947496183217,70.72501668101177 121.63986873999238,71.23126267502084 124.43529533408582,70.97813969175331 126.80065629817545,70.21877057710662 128.73595163226128,68.70003160671331 130.67124696541578,66.16879779333249 131.5313782254234,63.63756123720668 131.31634540949017,56.04383510653861 131.9614438554272,51.23446245212108 131.9614438554272,44.40007374831475 131.5313782254234,41.362561237532645 130.67124696541578,39.084424261702225 128.30588600225747,36.046904837246984 125.29542659409344,34.02188969193958 122.28496718406677,33.76876267581247 118.84444214683026,34.781270576873794 116.90914681274444,36.046904837246984 115.40391710866243,37.81879164837301 114.113720218651,40.35005619004369 113.68365458957851,42.37506584706716 114.113720218651,47.943833351368085 113.89868740364909,62.62506584567018 114.75881866365671,66.16879779333249 116.04901555273682,68.19378506345674 117.98431088682264,70.21877057710662 120.56470466591418,71.23126267502084 125.08039377909154,71.23126267502084 128.09085318725556,69.71252436307259 129.59608289133757,68.19378506345674 131.1013125963509,65.1563034998253 131.5313782254234,63.131313596852124 131.5313782254234,45.41257704142481 131.5313782254234,42.37506584706716 130.88627978041768,40.35005619004369 129.81111570633948,38.071918225847185 127.66078755725175,35.54065121547319 125.94052503816783,34.781270576873794 123.3601312590763,34.275016681523994 120.13463903591037,34.5281436429359 116.69411399681121,36.30003160657361 114.3287530336529,40.35005619004369 113.89868740364909,42.37506584706716 114.113720218651,63.63756123720668 114.3287530336529,65.40942711476237 115.83398273866624,68.70003160671331 119.48954059183598,70.97813969175331 124.00522970315069,71.99063146137632 125.72549222409725,71.48438563128002 128.30588600225747,69.96564748417586 130.67124696541578,66.67504477570765 131.5313782254234,63.384437430417165 131.5313782254234,50.72821212303825 131.31634540949017,50.98133730166592 131.7464110404253,47.18445674632676 131.5313782254234,42.37506584706716" stroke="#4dd2ff" stroke-linecap="round" stroke-linejoin="round" stroke-width="0.5"><title>2024-08-28 5.0km</title><desc>12260135184</desc></polyline><polyline fill="none" points="176.44933434017003,41.1460188429337 175.85271205101162,39.507281282916665 173.06847470067441,36.698014001594856 169.0909927720204,34.825167117174715 165.9090072279796,33.88874306669459 163.7213921668008,34.59106114297174 161.13602891378105,36.46390822972171 159.94278433453292,38.33675369317643 157.95404336974025,43.01886024652049 157.75516927428544,45.35990971629508 157.75516927428544,49.80789671908133 158.35179156251252,60.108463030774146 158.1529174670577,63.151802766602486 158.55066565982997,64.79052238725126 159.94278433453292,67.83385552605614 161.93152529839426,69.94077595626004 165.51125903520733,72.28179624653421 167.30112590361387,72.51589813572355 171.27860783226788,72.28179624653421 173.86397108528763,70.64308231021278 176.25046024285257,67.599753129296 177.04595662932843,65.25872776424512 177.24483072478324,45.59401452424936 176.64820843655616,42.082439747639 174.6594674717635,38.80496480525471 171.87523012142628,35.99569661007263 169.0909927720204,34.59106114297174 165.51125903520733,34.122849117266014 162.92589578125626,35.05927306693047 161.73265120293945,35.76159076252952 160.14165843091905,37.16622546920553 159.14728794898838,39.507281282916665 158.1529174670577,44.423490232555196 158.55066565982997,47.46685207076371 158.1529174670577,62.44949397747405 158.7495397562161,65.49283041479066 161.33490301016718,69.70667378790677 162.528147588484,70.87718437681906 163.7213921668008,71.81359239085577 167.6988740954548,72.75 169.6876150611788,72.51589813572355 172.67072650790215,71.57949042553082 175.4549638563767,69.23846937459894 176.64820843655616,66.19513821438886 177.24483072478324,62.21539099654183 176.8470825329423,46.29632879490964 176.44933434017003,42.082439747639 174.85834156814963,38.33675369317643 171.47748192865402,35.52748488960788 168.69324457738549,34.3569551424589 164.91463674604893,34.3569551424589 162.92589578125626,35.05927306693047 159.74391023814678,38.57085926248692 158.55066565982997,41.1460188429337 158.1529174670577,42.31654490996152 158.55066565982997,60.81077258102596 158.1529174670577,63.151802766602486 159.74391023814678,66.89744578604586 161.33490301016718,69.23846937459894 163.52251807134598,71.1112864187453 165.9090072279796,72.04769433126785 168.89211867470294,72.04769433126785 171.67635602504015,71.34538843482733 174.26171927992254,69.70667378790677 175.4549638563767,68.06795789767057 176.25046024285257,66.66334328753874 177.04595662932843,63.85411132709123 176.64820843655616,60.57666942267679 176.8470825329423,46.99864283576608 176.64820843655616,42.7847551596351 175.65383795369416,39.507281282916665 173.26734879706055,36.46390822972171 171.47748192865402,35.05927306693047 167.6988740954548,33.65463699004613 164.31801445689052,34.122849117266014 161.93152529839426,35.76159076252952 159.54503614176065,39.03907032310963 158.35179156251252,42.082439747639 158.55066565982997,58.93794660526328 158.94841385353357,60.81077258102596 158.94841385353357,63.151802766602486 159.54503614176065,66.42924076411873 161.13602891378105,69.00436713034287 162.92589578125626,70.87718437681906 165.7101331325248,72.28179624653421 169.0909927720204,72.51589813572355 173.26734879706055,70.87718437681906 175.65383795369416,68.06795789767057 176.8470825329423,64.79052238725126 176.64820843655616,43.48707034345716 175.85271205101162,40.91191355371848 174.85834156814963,38.80496480525471 171.67635602504015,35.52748488960788 168.89211867470294,33.88874306669459 165.3123849388212,33.42053088871762 161.93152529839426,35.52748488960788 161.13602891378105,36.46390822972171 158.7495397562161,40.44370289798826 158.1529174670577,42.7847551596351 157.95404336974025,44.89170002588071 158.35179156251252,52.85125096933916 158.35179156251252,61.27897882112302 159.94278433453292,66.66334328753874 161.93152529839426,69.70667378790677 164.51688855327666,71.81359239085577 165.51125903520733,72.28179624653421 168.89211867470294,72.51589813572355 171.87523012142628,71.57949042553082 173.86397108528763,70.17487809900194 175.85271205101162,67.36565070715733 176.8470825329423,63.620008499128744 176.44933434017003,57.7674295459874 176.8470825329423,46.76453818031587 176.05158614739776,40.67780823842622 172.27297831419855,35.76159076252952 170.8808596394956,34.59106114297174 168.69324457738549,33.42053088871762 165.9090072279796,32.718212431296706 163.52251807134598,33.65463699004613 160.73828072100878,36.46390822972171 159.3461620453745,38.57085926248692 158.1529174670577,42.7847551596351 158.35179156251252,56.596911852480844 158.1529174670577,61.51308190310374 158.7495397562161,64.08821413037367 160.3405325273052,67.599753129296 163.32364397495985,71.1112864187453 165.3123849388212,72.04769433126785 168.69324457738549,72.75 170.8808596394956,72.28179624653421 173.46622289344668,70.87718437681906 175.85271205101162,68.06795789767057 176.8470825329423,65.49283041479066 176.44933434017003,54.72408222290687 176.8470825329423,42.082439747639 176.05158614739776,38.57085926248692 173.46622289344668,35.05927306693047 172.07410421781242,34.122849117266014 168.29549638554454,32.48410622822121 166.10788132436574,32.25 163.92026626411825,32.718212431296706 161.93152529839426,34.59106114297174 158.94841385353357,40.44370289798826 158.1529174670577,43.25296530802734 158.1529174670577,51.21252229064703 158.55066565982997,57.533326057717204 158.35179156251252,59.874359796056524 158.7495397562161,60.57666942267679 159.94278433453292,66.42924076411873 161.13602891378105,68.77026485977694 162.528147588484,70.40898021729663 165.11351084243506,72.04769433126785 167.1022518062964,72.51589813572355 169.0909927720204,72.51589813572355 172.07410421781242,71.57949042553082 174.85834156814963,69.47257159417495 176.44933434017003,66.66334328753874 176.8470825329423,62.21539099654183 176.8470825329423,56.596911852480844 176.05158614739776,47.23274746583775 176.25046024285257,43.48707034345716 175.4549638563767,39.74138672510162 173.86397108528763,37.16622546920553 171.07973373588175,34.3569551424589 169.2898668674752,33.42053088871762 167.30112590361387,32.952318609459326 164.31801445689052,33.42053088871762 161.73265120293945,35.05927306693047 159.54503614176065,38.57085926248692 158.55066565982997,41.61422934662551 158.35179156251252,44.6575951424893 158.55066565982997,52.14893883140758 158.35179156251252,61.98128799092956 158.7495397562161,65.49283041479066 159.54503614176065,67.13154825917445 162.13039939571172,70.17487809900194 164.1191403605044,71.34538843482733 167.89774819277227,72.04769433126785 169.88648915756494,71.81359239085577 173.06847470067441,70.64308231021278 175.4549638563767,68.30206024344079 176.8470825329423,64.79052238725126 176.05158614739776,42.7847551596351 175.65383795369416,39.507281282916665 174.26171927992254,37.16622546920553 171.47748192865402,34.3569551424589 168.69324457738549,33.42053088871762 165.11351084243506,33.88874306669459 163.1247698776424,35.05927306693047 160.3405325273052,37.63443683506921 159.3461620453745,39.27317581605166 158.35179156251252,42.550650047836825 158.7495397562161,49.57379236887209 158.35179156251252,56.36280823731795 158.55066565982997,63.385905645787716 159.14728794898838,66.89744578604586 162.92589578125626,70.64308231021278 164.7157626496628,71.57949042553082 167.30112590361387,72.51589813572355 170.2842373503372,72.51589813572355 173.06847470067441,71.34538843482733 175.2560897609219,69.23846937459894 175.85271205101162,68.30206024344079 176.8470825329423,63.620008499128744 176.44933434017003,56.36280823731795 176.64820843655616,46.53043350065127 176.44933434017003,42.31654490996152 175.85271205101162,40.67780823842622 172.27297831419855,34.825167117174715 170.2842373503372,33.42053088871762 166.10788132436574,32.25 164.31801445689052,32.718212431296706 162.72702168487012,33.65463699004613 160.3405325273052,36.46390822972171 158.7495397562161,39.507281282916665 157.95404336974025,42.7847551596351 158.35179156251252,63.151802766602486 158.7495397562161,65.49283041479066 160.14165843091905,68.53616256406531 161.73265120293945,70.40898021729663 164.7157626496628,72.28179624653421 166.505629517138,72.75 171.47748192865402,72.04769433126785 173.86397108528763,70.87718437681906 175.2560897609219,69.47257159417495 176.44933434017003,67.13154825917445 177.04595662932843,64.32231690827757 176.44933434017003,59.17204994079657 176.44933434017003,43.01886024652049 175.85271205101162,40.20959753287025 173.46622289344668,36.229802432935685 171.87523012142628,34.825167117174715 169.2898668674752,33.18642476154491 165.7101331325248,32.718212431296706 164.31801445689052,32.952318609459326 161.73265120293945,34.825167117174715 160.3405325273052,36.46390822972171 158.7495397562161,39.975492142140865 158.1529174670577,43.48707034345716 158.1529174670577,50.276105344993994 158.55066565982997,54.48997840494849 159.74391023814678,59.40615325164981 159.3461620453745,62.6835969327949 159.94278433453292,65.72693303995766 160.53940662462264,67.599753129296 162.92589578125626,70.64308231021278 164.51688855327666,71.81359239085577" stroke="#4dd2ff" stroke-linecap="round" stroke-linejoin="round" stroke-width="0.5"><title>2024-08-20 5.2km</title><desc>12192768473</desc></polyline><polyline fill="none" points="41.45911357388832,110.19295212122961 41.514161890838295,109.1885804827325 41.43158941552974,108.57299619761761 41.37654109869618,107.7630149438919 41.321492781629786,107.34182382462313 41.321492781629786,106.59663808290497 41.23892030620482,106.07824690613779 41.1012995140627,105.85145048354752 40.9361545634456,105.78665147413267 40.13795396848582,105.72185245068977 39.367277532001026,105.81905098055722 37.743352183839306,105.75425196415745 37.30296564870514,105.52745529584354 37.05524822277948,105.33305801457027 37.00019990571309,105.20345975682721 37.02772406418808,104.91186347149778 37.468110599322245,104.10187229752773 38.15621456049848,103.16227978625102 38.48650446184911,102.61148280301131 38.62412525410764,102.31988398928661 38.81679436308332,102.09308471527766 39.14708426455036,101.21828590356745 39.50489832414314,100.76468551188009 39.697567433468066,100.31108443174162 39.752615750185214,100.14908387931064 39.97280901786871,99.9222829582286 40.63338882056996,98.82067603661562 41.01872703875415,98.367072006542 41.2939686231548,97.81626618743758 41.76187931676395,97.23305891978089 43.05551476369146,94.93261915651965 43.33075634809211,94.67341356625548 43.55094961577561,94.51140995827154 44.70696427032817,94.5762114120298 46.08317219268065,94.51140995827154 46.193268826347776,94.54381068688235 46.46851041098125,94.7706156889326 46.71622783690691,94.86781777997385 47.12909021356609,94.83541708646226 47.21166268887464,94.73821498488542 47.652049224008806,96.55264900269685 47.3217593227746,95.41862903235597 47.10156605520751,95.12702320161043 46.93642110447399,95.06222186729428 46.46851041098125,94.9974205189501 46.41346209391486,94.96501983946655 46.358413777081296,94.80301638951642 46.193268826347776,94.67341356625548 45.7804064496886,94.54381068688235 44.15648110152688,94.5762114120298 43.7160945662763,94.47900922608096 44.431722685927525,92.4053550635872 45.67030981602147,90.720500463387 45.94555140042212,90.20208175270818 46.79880031209905,88.808827011846 47.12909021356609,88.16079933816218 47.652049224008806,87.35076277022017 48.202532392926514,86.63792877440574 48.58787061122712,85.95749473798787 48.83558803726919,85.66587967670057 49.05578130483627,85.14745219852193 49.63378863199614,84.56422021074104 49.964078533346765,84.11059454458882 50.04665100877173,84.07819268494495 49.936554375104606,83.85137956906692 49.33102288923692,83.55976245284546 48.89063635410275,83.23574310107506 48.53282229427714,83.10613526208908 48.340153185185045,82.81451741865021 47.817194174742326,82.55530131905107 47.541952590225264,82.58770334377186 46.85384862916544,82.55530131905107 44.459246844402514,82.06927052635001 42.11969337658957,81.81005378026748 41.70683099993039,81.7128474425117 41.321492781629786,81.55083680950338 40.66091297904495,81.61564107320737 39.80766406713519,81.48603253156762 38.87184267991688,81.4536303874338 37.96354545140639,81.29161961373757 37.27544149023015,81.29161961373757 36.945151588879526,81.16201093164273 34.63312227942515,81.0 31.688037325860932,81.03240219329018 30.99993336480111,81.22681527974783 30.17420861136634,81.22681527974783 29.568677125615068,81.3240217755374 29.100766432005912,81.25921744847437 27.284171974635683,81.3240217755374 26.76121296430938,81.42122823977843 26.238253953750245,81.42122823977843 25.192335932864808,81.61564107320737 24.66937692242209,81.48603253156762 23.43078979232814,81.48603253156762 22.412395929917693,81.64804319984978 20.981139690731652,81.74524955864763 20.568277314072475,81.68044532297063 19.5774076100206,81.81005378026748 18.834255332127213,81.81005378026748 18.724158698343672,81.84245588578051 18.531489589135163,81.93966218130663 18.4764412723016,82.0368684453133 18.531489589135163,82.74971341487253 18.4764412723016,83.36535088391975 18.61406206456013,83.94858521121205 18.641586222918704,84.40221112337895 18.696634539868683,84.62902382123866 18.531489589135163,85.37426433092332 18.4764412723016,86.18430625559995 18.55901374761015,87.22115671570646 18.4764412723016,87.70717913057888 18.58653790608514,88.25800357881235 18.55901374761015,89.52165583014721 18.669110381393693,90.1372793505434 18.58653790608514,91.27131935840589 18.669110381393693,91.78973621461773 18.91682780731935,92.47015697389725 18.91682780731935,92.6321616882924 18.834255332127213,92.95617085372214 18.669110381393693,93.28017966781044 18.641586222918704,93.40978309509228 17.898433945025317,93.2477788022079 17.705764835816808,93.50698562868638 17.21032998384908,93.9605970341654 17.320426617516205,95.02982119491207 17.402999092941172,95.15942386360257 17.678240677225403,95.28902647594805 17.925958103267476,95.61303276132094 18.036054737167433,96.19624318988645 18.091103054000996,96.71465150438598 18.39386879687663,97.52466269594152 18.42139295535162,97.75146543618757 18.228723846375942,98.82067603661562 18.31129632156808,99.72788203178789 18.31129632156808,100.21388411079533 18.201199687900953,100.47308489657007 18.2562480046181,100.9914857937838 18.17367552930955,101.38028587671579 18.17367552930955,102.19028442521812 18.146151370950975,102.67628250078997 18.201199687900953,103.00028077882598 18.531489589135163,103.68067601977964 18.834255332127213,104.13427198666614 19.2195935503114,104.49066833496909 19.439786817878485,104.78226503112819 19.659980085445568,104.9766626706114 20.293035729555413,105.33305801457027 20.733422264805995,105.85145048354752 21.50409870117437,106.53183923495817 21.69676781038288,106.75863514127559 22.054581870208494,107.11502836071304 23.155548207927495,107.98980991615099 23.37574147549458,108.11940696593956 24.559280288638547,108.28140319918748 26.21072979539167,108.34620166782406 28.46771078777965,108.54059698965284 29.155814748839475,108.57299619761761 29.568677125615068,108.63779460306978 29.926491185440682,108.60539540217724 30.42192603740841,108.70259299466852 30.889836730901152,108.57299619761761 31.33022326603532,108.34620166782406 31.825658118003048,108.34620166782406 32.29356881172862,108.44339934451273 32.8715761390049,108.79979055534932 33.367010991089046,108.99418558226898 33.47710762475617,109.05898389645154 33.559680100064725,109.48017259637709 33.559680100064725,109.83656257123221 33.4495834663976,110.54934124625288 33.11929356504697,111.16492146166274 32.98167277267203,111.71570268523647 32.926624455838464,112.62286954710726 32.89910029747989,112.81726208797772 32.81652782217134,112.97925577539718 32.458713762345724,113.40043895205599 32.34861712856218,113.82162153531681 32.32109297008719,114.63158637360903 31.908230593428016,115.95992395817302 31.908230593428016,117.19106083959923 31.660513167385943,118.06581291125622 31.63298900902737,118.3249982186826 31.71556148433592,118.87576625106158 31.63298900902737,119.13495085641625 31.467844058410265,119.42653326876462 31.247650790726766,119.9449012997502 31.220126632368192,120.72245166092762 31.247650790726766,120.981634665397 31.220126632368192,121.11122608324513 31.16507831553463,121.27321527665481 30.862312572542578,121.43520438237465 30.25678108667489,121.5 29.65124960092362,121.37040875057573 28.935621481388807,121.40280656822142 26.073109003016725,120.9492368020874 23.45831395080313,120.65765587479109 22.935354940360412,120.56046216917457 22.19220266235061,120.33367673319299 21.69676781038288,120.10689112509135 20.595801472547464,119.32933916285401 19.05444859957788,118.38979451055638 18.55901374761015,118.03341473196633 18.063578895642422,117.77422917174408 17.430523251299746,117.22345911004231 16.742419290123507,116.76988300328958 16.302032755105756,116.38110293541104 15.448783843312413,115.99232236214448 15.39373552647885,115.89512713972363 15.36621136800386,115.70073660023627 14.980873149819672,115.4739474777889 14.953348991344683,115.34435361629585 15.173542258911766,114.72878200685955 15.283638892578892,113.98361467843642 15.531356318620965,112.94685704499716 15.641452952520922,112.29888169819606 15.806597903254442,111.81289926636964 16.02679117070511,111.0029267910868 16.13688780448865,110.32254821577226 16.302032755105756,109.73936534745735 16.357081072055735,109.31817701281398 16.63232265645638,108.31380243520834 16.71489513188135,107.8278135250439 17.513095726724714,104.68506616403465 17.678240677225403,103.87507437553722 17.76081315265037,103.87507437553722 18.366344638518058,103.81027493771398 18.503965430660173,103.87507437553722 19.192069391836412,104.4258690304996 19.659980085445568,104.9766626706114 20.458180680288933,105.59225436139968 20.898567215539515,106.07824690613779 21.972009394783527,107.08262899474357 22.164678503992036,107.3094244831882 23.320693158661015,108.11940696593956 24.366611179430038,108.24900395952864 25.41252920043189,108.31380243520834 25.9630123693496,108.4110001224908 26.733688805717975,108.37860089694732 28.935621481388807,108.57299619761761 29.320959699572995,108.63779460306978 30.119160294532776,108.63779460306978 30.614595146500506,108.54059698965284 30.97240920632612,108.37860089694732 31.08250584010966,108.37860089694732 31.33022326603532,108.21660471631913 32.01832722732797,108.11940696593956 32.8715761390049,108.63779460306978 32.98167277267203,108.73499218505458 33.42205930792261,108.89698808465619 33.6147284170147,108.89698808465619 33.724825050798245,108.76739137197728 34.05511495214887,107.86021281027934 34.357880695024505,107.27702513817349 34.96341218089219,106.36984205368208 35.01846049784217,106.17544532023021 35.01846049784217,105.59225436139968 35.183605448459275,104.9766626706114 35.32122624060139,105.07386144288466 35.45884703285992,105.07386144288466 35.651516141952015,105.17106018352206 35.98180604330264,105.4950557576667 36.72495832142886,105.75425196415745 37.00019990571309,105.75425196415745 37.60573139169719,105.62465388895362 38.293835352757014,105.85145048354752 38.78927020484116,105.91624947902164 40.41319555300288,105.68945293361321 40.99120288027916,105.72185245068977 41.26644446479622,105.91624947902164 41.321492781629786,106.20784478454152 41.349016940104775,106.7910345424607 41.48663773224689,107.92501137021463 41.541686049080454,109.05898389645154 41.62425852462184,109.54497080523288 41.59673436614685,110.45214425440645" stroke="#4dd2ff" stroke-linecap="round" stroke-linejoin="round" stroke-width="0.5"><title>2024-08-16 6.7km</title><desc>12157989761</desc></polyline><polyline fill="none" points="85.41265926137567,81.13150006963406 86.12014408945106,81.26300009666011 86.82762891752645,81.30683342940756 90.62570536299609,81.08766671779449 90.96082975529134,81.13150006963406 91.22148206015117,81.43833339927369 91.33319019107148,82.84099708404392 91.2959541475866,83.62999326860881 91.40766227827407,84.37515491849626 91.55660645244643,84.98881642241031 91.44489832175896,85.55864412803203 91.48213436524384,86.6982971301768 91.40766227827407,87.04895894628135 91.48213436524384,87.31195510874386 91.55660645244643,88.62693335561198 91.55660645244643,89.81041012183414 91.7427866703365,90.86238656198839 91.70555062685162,91.65136709620128 91.78002271405421,92.4841782124422 91.70555062685162,92.83483501139563 91.8172587575391,93.62381169752916 91.7427866703365,94.50045065430459 91.8172587575391,95.07026495732134 91.89173084474169,96.42904967052164 91.85449480102398,97.39334572962252 92.04067501914687,98.57679684142931 92.003438975662,99.62875047783018 92.11514710611664,100.85602626207401 92.04067501914687,101.29433813964715 92.15238314983435,103.04758089923416 92.07791106263176,104.4063388100185 92.18961919331923,105.23912366031436 92.18961919331923,105.98424549394986 92.26409128075466,107.8251288443571 92.22685523703694,108.92088876539492 92.37579941144213,109.3591919025348 92.26409128075466,110.1481363522762 92.4502714984119,111.94517074301257 92.41303545492701,112.95325971016428 92.4875075421296,113.61070768293575 92.4502714984119,114.26815458689816 92.52474358561449,114.6187924988044 92.4875075421296,116.41580702606007 92.52474358561449,117.0294199140335 92.59921567304991,117.46771426399937 92.63645171630196,119.30854534782702 92.71092380350456,119.96598299013567 92.5619796293322,121.10553903883556 92.4502714984119,121.23702606870211 92.11514710611664,121.36851305575692 90.58846931927837,121.5 89.43415196845308,121.36851305575692 88.80113922734745,121.10553903883556 87.8702381378971,121.14936805347679 86.15738013316877,120.8425648510165 85.00306278211065,120.7987358031387 82.99231642857194,120.53576141581289 81.50287468521856,120.4919323346694 78.59846328571439,120.00981212838087 77.1834936295636,119.7030080613331 76.02917627850547,119.5276913473208 75.32169145043008,119.48386215686332 74.5769705788698,119.57152053291793 73.3109450971242,119.48386215686332 72.752404443454,119.39620376177481 70.89060226408765,119.3523745572893 70.55547787179239,119.26471613362082 69.92246513091959,119.00174074890674 67.39041416742839,118.73876519332407 66.6084572521504,118.56344806111883 65.3424317704048,118.4757894667855 62.6242005887907,118.03749620908638 62.43802037090063,117.90600813919445 62.289076196495444,117.68686126091052 62.326312240213156,117.29239658109145 62.58696454507299,116.06517067205277 62.66143663250841,115.05708946107188 62.81038080668077,114.35581409352017 62.81038080668077,113.47921817388851 62.84761685039848,113.21623902756255 62.81038080668077,112.73411014833255 62.922088937368244,111.76985066613997 63.03379706805572,110.63026831412571 63.44339354755357,109.44685247293091 63.81575398356654,107.43065454621683 64.07640628842637,106.72936595475767 64.22535046283156,105.94041483590263 64.56047485512681,105.3706158484274 64.74665507301688,104.71315448073437 65.00730737810954,104.4063388100185 64.97007133439183,104.2310154652514 65.00730737810954,104.01186117713223 65.1562515522819,103.48589040146908 65.37966781388968,102.91608795581851 65.52861198806204,102.2586225978448 65.8637363803573,101.60115617123665 66.19886077265255,100.63687014521565 66.53398516494781,100.02323238601093 66.75740142632276,99.27809956975398 67.20423394953832,98.22614502115175 67.3159420802258,97.74399827187881 67.76277460320853,96.6920397328795 68.32131525687873,95.59624667814933 68.54473151825368,95.42091951394104 69.17774425935932,94.76344197089202 69.66181282605976,94.01829946329235 70.51824182830751,92.52801032894058 70.74165808991529,92.04585678610601 71.15125456941314,91.43220599112101 71.44914291799068,90.64322502934374 71.70979522285052,90.33639868395403 72.30557192023844,89.24058840752696 72.67793235601857,88.80226346553536 72.93858466134407,88.18860774845234 73.38541718409397,87.53111844681553 74.98656705836765,84.55048687168164 75.43339958111756,83.8929916547786 75.8429960606154,83.14782911664224 76.43877275800332,82.27116554885288 77.1834936295636,81.48216671310365 77.63032615254633,81.35066675741109 81.76352699031122,81.26300009666011 82.13588742609136,81.13150006963406 85.52436739206314,81.08766671779449 86.26908826385625,81.0 88.5777229659725,81.13150006963406 90.77464953740127,81.0 91.10977392969653,81.26300009666011 91.2959541475866,81.70133321077446 91.33319019107148,82.27116554885288 91.2959541475866,82.884830245981 91.55660645244643,85.03264935131301 91.44489832175896,85.51481125605642 91.63107853988186,88.01327737249085 91.55660645244643,88.53926827228861 91.63107853988186,88.88992849187343 91.59384249616414,89.59124801904545 91.8172587575391,90.46789571762201 91.7427866703365,91.16921250821906 91.7427866703365,92.13352110941196 91.9289668884594,93.93063554857508 91.89173084474169,94.23745916687767 91.9289668884594,94.71961009659572 91.85449480102398,95.42091951394104 91.96620293194428,97.74399827187881 91.9289668884594,98.31380800472107 91.96620293194428,98.88361693470506 91.9289668884594,99.36576232529478 92.15238314983435,101.64498729948536 92.15238314983435,101.99563615536317 92.04067501914687,102.56543989788042 92.11514710611664,103.26673570959247 92.07791106263176,103.6612140694051 91.96620293194428,104.4940004539967 92.18961919331923,105.28295439449721 92.11514710611664,105.89658417302417 92.22685523703694,106.8170270952105 92.33856336772442,109.40302219011937 92.4502714984119,109.84132480469998 92.37579941144213,110.45494766710908 92.52474358561449,111.46304034875357 92.59921567304991,112.33964063812164 92.4502714984119,113.17240915322327 92.5619796293322,114.75028163733077 92.4502714984119,115.67070441049873 92.41303545492701,117.33622600891977 92.5619796293322,118.4757894667855 92.52474358561449,118.87025299252127 92.63645171630196,120.53576141581289 92.63645171630196,121.0617100194795 92.41303545492701,121.324684064748 91.7427866703365,121.4123420419055 90.4022891013883,121.45617102322285 86.71592078683898,120.974051966361 85.30095113045536,120.66724863089621 82.69442807976156,120.53576141581289 79.8272527239751,120.09747039043577 77.59309010906145,119.92215384737938 76.81113319378346,119.74683722810005 76.14088440942578,119.74683722810005 75.13551123254001,119.57152053291793 74.76315079675987,119.61534971391666 74.05566596845165,119.48386215686332 73.23647300992161,119.44003296174924 72.78964048670605,119.30854534782702" stroke="#4dd2ff" stroke-linecap="round" stroke-linejoin="round" stroke-width="0.5"><title>2024-08-05 5.0km</title><desc>12068639381</desc></polyline><polyline fill="none" points="129.47420919127762,81.21892983384896 131.8547392617911,81.0 133.00780851463787,81.26271578643355 133.49135368550196,81.17514387649135 134.19807355012745,81.17514387649135 134.8304018501658,81.08757194777718 135.90907953842543,81.17514387649135 136.05786266783252,81.26271578643355 136.16945001482964,81.52543140191119 136.16945001482964,82.75143534861854 136.3926247090567,83.75850723544136 136.42982049123384,84.45907750201877 136.5042120560538,84.98450440439046 136.46701627387665,85.68507254472934 136.54140783846378,86.29806867067236 136.46701627387665,87.08620518006501 136.54140783846378,87.61162866538507 136.46701627387665,87.87434015181498 136.42982049123384,88.66247358574765 136.5042120560538,91.02686466174782 136.61579940305091,92.03391591765103 136.61579940305091,92.6906871231331 136.764582532458,93.6977342312457 136.83897409727797,95.05505462200381 136.80177831463516,96.0183114875399 136.72738675028086,96.36858614196535 136.69019096787088,97.11291877395706 136.9133656618651,101.05348044759012 137.0621487912722,101.62266951223137 137.09934457368217,102.10429040214512 136.98775722668506,103.28644833399449 137.02495300909504,103.76806724045309 136.9133656618651,104.55616966704838 136.98775722668506,105.5631871970254 136.9505614445079,106.48263579315972 137.0621487912722,107.44586541134049 137.0621487912722,108.05882851799834 137.24812770308927,109.63501509340131 137.24812770308927,111.64902232447639 137.4713023970835,112.13063126182533 137.62008552672341,112.74358726086211 137.5084981797263,112.83115232762066 137.35971505008638,113.26897737706895 137.28532348549925,114.275973189855 137.43410661490634,115.37053100930643 137.32251926790923,116.72777858722839 137.35971505008638,117.47207371023251 137.62008552672341,119.31091460669995 137.62008552672341,120.75571229710476 137.5084981797263,121.10596550465561 137.35971505008638,121.28109199454775 137.13654035585932,121.41243681212654 135.31394702079706,121.36865521094296 134.49563980894163,121.28109199454775 134.08648620313033,121.10596550465561 133.60294103249907,121.0184022312169 123.00214306171983,119.92385971246404 122.14664006768726,119.66116906673415 121.81187802646309,119.70495085281436 120.84478768520057,120.01142322298256 120.17526360275224,120.0989867146418 118.68743230868131,119.52982367973891 116.34409802034497,119.22335094420123 115.37700767931528,119.00444170515402 114.37272155564278,118.91687797629857 112.99647760856897,118.8730961047695 112.47573665576056,118.69796857109759 110.87631801445968,118.4352771283884 109.83483610861003,118.26014940504683 108.83054998493753,118.21636746221338 108.30980903212912,118.04123964393511 107.67748073209077,117.99745767755667 107.37991447327659,117.73476577928523 107.37991447327659,117.29694556939648 107.64028494991362,116.68399647835759 107.86345964367501,115.89591770942206 107.78906807908788,113.57545462925918 107.86345964367501,112.6122396250721 108.01224277331494,111.38632629846688 108.01224277331494,110.99228193931049 108.0866343381349,110.29175768510322 108.30980903212912,109.89771225818549 108.45859216153622,109.503666447039 109.05372467916459,106.2637196504802 109.31409515580162,105.43183722678805 109.61166141438298,104.9502203038428 109.79764032620005,104.11833517538616 109.83483610861003,103.85563425268629 110.02081502042711,103.24266476853518 110.50436019082554,102.19185777503299 110.72753488505259,101.84158816968556 111.17388427327387,100.52807444520295 111.62023366149515,99.65239625619142 111.9921914851293,98.64536399231292 112.21536617935635,97.55076085813926 112.43854087335058,97.1567030036822 112.95928182639182,96.4123704523081 113.25684808497317,96.10588017958798 113.88917638524435,94.79234780545812 114.52150468528271,93.91665718326112 117.08801366761327,89.5819606486184 118.05510400887579,88.22462186779012 118.38986604986712,87.43648757963092 119.46854373812675,85.72885801305529 119.8405015617609,85.20343207876431 120.2496551675722,84.19636379441363 120.43563407938927,83.88986425299663 120.62161299097352,83.45200736174593 121.55150755005889,82.22600554145174 121.81187802646309,81.78814684660756 121.9234653734602,81.65678914572345 122.55579367349856,81.43785954907071 123.5972755793482,81.35028767731274 124.15521231479943,81.43785954907071 125.90341408527456,81.48164547793567 127.05648333835416,81.17514387649135 127.54002850898542,81.17514387649135 128.5071188500151,81.39407361554913 128.99066402064636,81.26271578643355 129.9205585794989,81.13135791456443 131.743151914794,81.13135791456443 132.22669708542526,81.17514387649135 132.82182960305363,81.13135791456443 133.86331150890328,81.17514387649135 134.64442293834873,81.08757194777718 135.87188375601545,81.13135791456443 136.05786266783252,81.21892983384896 136.28103736205958,81.52543140191119 136.2438415796496,82.75143534861854 136.3926247090567,83.10172150714789 136.3554289266467,83.23307873820886 136.3926247090567,83.62715017519076 136.3554289266467,83.933649915969 136.54140783846378,84.94071885533049 136.42982049123384,85.59750159361283 136.46701627387665,87.65541392503656 136.5042120560538,87.74298442999134 136.5042120560538,88.09326625987887 136.57860362087376,88.18083666995517 136.57860362087376,88.57490328029962 136.5042120560538,89.31925027284888 136.6529951854609,90.45766066756914 136.54140783846378,91.28957392697339 136.61579940305091,92.95339530639467 136.764582532458,94.70477882877458 136.72738675028086,95.18640796624823 136.83897409727797,95.71182091586525 136.80177831463516,96.45615475811064 136.9133656618651,97.02535030030413 136.87616987968795,99.30212444916833 136.9505614445079,99.82753204583423 136.9133656618651,101.31618319242261 136.98775722668506,101.88537188703776 136.9133656618651,102.4983434304595 137.02495300909504,103.19888119844836 136.98775722668506,104.55616966704838 137.0621487912722,105.38805389383924 136.98775722668506,106.3512861217605 137.09934457368217,106.96425088919932 137.09934457368217,107.79613015754148 137.24812770308927,110.81715098951827 137.21093192091212,111.12363010161789 137.35971505008638,111.38632629846688 137.24812770308927,112.65602217512787 137.32251926790923,113.92571406133357 137.39691083249636,114.49488499099971 137.32251926790923,115.06405511879711 137.39691083249636,115.72078888531541 137.35971505008638,116.90290697483579 137.43410661490634,117.29694556939648 137.35971505008638,117.8223297643417 137.4713023970835,118.39149520464707 137.58288974431343,119.57360548016732 137.5084981797263,121.10596550465561 137.28532348549925,121.36865521094296 135.46273015020415,121.5 134.5328355913516,121.36865521094296 134.04929042095318,121.14974713412812 133.6773325970862,121.06218387023546 132.41267599724233,120.974620587338 127.46563694416545,120.36167707573622 126.5729381677229,120.40545878603007 124.22960387938656,120.0989867146418 122.51859789108858,120.0552049712569 121.96066115587018,119.88007794995792 120.77039612061344,119.83629618273699 120.3984382969793,119.74873263415066 117.68314618524164,119.74873263415066 117.05081788520329,119.66116906673415" stroke="#4dd2ff" stroke-linecap="round" stroke-linejoin="round" stroke-width="0.5"><title>2024-08-01 5.0km</title><desc>12035805770</desc></polyline><polyline fill="none" points="175.4498961667996,81.043833361211 176.3807973570656,81.1753334167006 177.19999040476978,81.13150006969227 178.42877997620963,81.30683342934935 180.66294283326715,81.0876667178236 181.07253935700282,81.1753334167006 181.18424750003032,81.3506667574693 181.33319169050083,82.31499877251917 181.295955642825,83.49849401146639 181.48213588097133,84.85731760691851 181.40766378561966,86.08463822022895 181.55660797609016,87.96944476652425 181.593844023766,90.11723686612095 181.66831611911766,90.73088965655188 181.66831611911766,92.13352110929554 181.78002426191233,93.31698761341977 181.85449635679834,95.99073251968366 181.96620449982584,96.82353469973896 181.92896845238283,99.71641315717716 182.0034405477345,100.33005138181034 182.0406765951775,101.51349389995448 182.0406765951775,103.6173831593187 181.96620449982584,104.49400045385119 182.07791264285333,105.19529292127118 181.96620449982584,106.68553537721164 182.18962078541517,107.69363745421288 182.30132892844267,108.92088876513299 182.45027311891317,109.75366431957809 182.41303707123734,110.63026831386378 182.56198126194067,111.3315501413017 182.56198126194067,111.90134073075023 182.41303707123734,113.26006889686687 182.524745214032,115.84602279632236 182.45027311891317,116.45963654870866 182.487509166589,116.81027256074594 182.45027311891317,117.11707882187329 182.56198126194067,118.3443015392113 182.524745214032,118.91408224933548 182.6364533570595,119.96598299013567 182.6364533570595,121.06171001933399 182.487509166589,121.28085506902426 182.22685683332384,121.41234204173088 181.03530330955982,121.5 179.80651373811997,121.36851305566961 178.9873206904158,121.14936805344769 175.4498961667996,120.75490675040055 174.55623102374375,120.57959049215424 172.6944286429789,120.49193233458209 169.15700411936268,120.09747039034846 167.92821454792283,120.22895774777862 167.10902150021866,120.18512863342767 165.61957959551364,120.31661596248159 164.80038654780947,120.18512863342767 163.9439574526623,120.18512863342767 162.9385841670446,119.96598299013567 161.7470306432806,119.83449554714025 161.07678178604692,119.48386215683422 160.40653292904608,119.35237455705646 159.06603521481156,119.35237455705646 157.80000959569588,118.87025299246307 156.12438745284453,118.65110663676751 154.150876929285,118.30047222055146 153.85298854811117,118.30047222055146 153.44339202414267,118.16898423616658 152.66143502434716,118.08132555612247 152.43801873875782,117.949837500375 152.36354664317332,117.81834940199042 152.400782691082,117.38005543182953 152.54972688131966,117.11707882187329 152.62419897667132,116.63495459276601 152.69867107179016,115.01325978606474 152.81037921481766,114.48730331729166 152.81037921481766,112.07666075063753 152.996559452964,111.59453051301534 153.10826759575866,110.58643815934192 153.33168388158083,109.88515503986855 153.48062807205133,109.14004039316205 153.36891992902383,108.52641553568537 153.40615597669967,108.13194192142691 153.55510016717017,107.60597650380805 153.92746064346284,107.03617986288737 154.74665369093418,104.31867714691907 154.97006997675635,103.96803030505544 155.11901416699402,103.31056665736833 155.41690254816785,102.65310194069752 155.52861069096252,102.25862259772839 157.12976073869504,98.66445974871749 157.68830145266838,96.95502962396131 158.13513402431272,96.29755457499414 158.35855030990206,95.81540552646038 159.02879916713573,94.89493756479351 159.51286778599024,94.32512301480165 160.1831166432239,92.96633123242646 160.59271316695958,92.39651396495174 160.55547711928375,92.39651396495174 161.78426669095643,90.24873397106421 162.4917515956331,89.19675593456486 163.0875283575151,88.0571099735098 164.46526211919263,85.8216412596521 165.5823435478378,83.71765941634658 166.51324473833665,82.31499877251917 166.96007730974816,81.78899977658875 167.51861802418716,81.52600002218969 167.890978500247,81.43833339930279 170.9815704524517,81.30683342934935 171.65181930968538,81.3506667574693 172.6571925955359,81.2630000965728 173.62532983347774,81.30683342934935 174.59346707141958,81.1753334167006 175.78502059541643,81.1753334167006 176.82762992870994,81.0 177.75853111897595,81.0876667178236 178.20536369038746,81.043833361211 180.06716607138515,81.0876667178236 180.8491230714135,81.043833361211 181.1097754049115,81.1753334167006 181.295955642825,81.52600002218969 181.295955642825,83.41082781623118 181.48213588097133,84.85731760691851 181.4448998332955,85.47097837927868 181.55660797609016,87.26812242675805 181.55660797609016,88.10094256981392 181.51937192864716,88.32010548037942 181.593844023766,88.9775934991194 181.593844023766,90.07340448838659 181.66831611911766,90.73088965655188 181.63108007144183,91.38837375570438 181.66831611911766,92.04585678590229 181.63108007144183,92.35268183427979 181.81726030958816,93.5361476970429 181.7427882142365,94.7634419707174 181.81726030958816,95.37708771080361 181.891732404707,95.59624667800381 181.85449635679834,96.16605943685863 181.92896845238283,96.56054472288815 181.891732404707,96.82353469973896 182.0034405477345,97.21801934417454 181.96620449982584,98.83978550683241 181.85449635679834,99.45342506168527 181.92896845238283,100.3738826480112 181.891732404707,100.85602626181208 182.0406765951775,101.64498729922343 182.0034405477345,102.25862259772839 182.0406765951775,103.74887587458943 182.0034405477345,104.71315448055975 182.07791264285333,105.45827728309087 182.0406765951775,105.80892283291905 182.11514869029634,106.55404361663386 182.11514869029634,107.43065454592579 182.26409288099967,108.30726357517415 182.26409288099967,109.18387070443714 182.18962078541517,109.97281549626496 182.3385649761185,111.68219059909461 182.22685683332384,112.6464502903109 182.37580102379434,113.65453750951565 182.3385649761185,114.39964383936604 182.487509166589,115.8898523808748 182.37580102379434,116.81027256074594 182.487509166589,118.65110663676751 182.41303707123734,119.39620376177481 182.6364533570595,120.84256485090009 182.524745214032,121.19319706349052 182.41303707123734,121.3246840647771 181.78002426191233,121.5 179.91822188091464,121.45617102325195 178.2425997380633,121.14936805344769 176.90210202382877,120.97405196624459 176.41803340474144,121.01788099526311 175.48713221447542,120.75490675040055 175.22647988097742,120.75490675040055 173.36467750021257,120.49193233458209 172.47101235715672,120.49193233458209 170.01343321450986,120.09747039034846 169.52936459542252,120.09747039034846 169.04529597633518,120.14129951430368 167.7792703572195,120.09747039034846 167.18349359557033,120.00981212823535 166.69942497625016,120.00981212823535 166.06641216692515,119.79066638991935 165.65681564295664,119.74683722795453 163.9439574526623,119.92215384714655 163.1247644049581,119.87832469964633 161.9332108811941,119.61534971377114 160.96507364325225,119.65917888985132 160.40653292904608,119.35237455705646" stroke="#4dd2ff" stroke-linecap="round" stroke-linejoin="round" stroke-width="0.5"><title>2024-07-29 5.1km</title><desc>12014148662</desc></polyline><polyline fill="none" points="40.77676465641707,130.01214900624473 41.51907538808882,130.14322344542597 43.96870080195367,130.09953197048162 45.676015484612435,129.92476602303213 46.01005531381816,130.05584049067693 46.23274853313342,130.40537219593534 46.306979606393725,130.8859777956677 46.26986406953074,131.9345698422112 46.3812106794212,132.50255606180872 46.3812106794212,133.24530606434564 46.60390389873646,134.0317457516794 46.49255728907883,135.0366386747337 46.60390389873646,135.73569314362248 46.56678836210631,138.31344601968885 46.71525050862692,139.31832826841855 46.67813497199677,140.76011146698147 46.82659711828455,142.37665013264632 46.82659711828455,144.56115154354484 46.863712654681876,145.69708759873174 46.82659711828455,146.04660574087757 46.97505926457234,147.31360646593384 47.049290337832645,149.10487655809266 46.97505926457234,150.02235327888047 47.08640587422997,150.85244946493185 47.01217480120249,152.64370383205824 46.97505926457234,152.99321595134097 47.049290337832645,153.99806160587468 47.01217480120249,154.5660167376045 47.1977524838876,155.87667937218794 47.12352141086012,157.14364920157823 47.34621463040821,157.93004226544872 47.42044570343569,158.45430345574277 47.383330167038366,160.4639650361205 47.494676776696,161.38141590499436 47.34621463040821,162.21148870172328 47.42044570343569,162.6920563816675 47.383330167038366,162.95418396574678 47.45756124006584,163.74056569524691 47.45756124006584,165.22594922137796 47.60602338658646,165.79388853508863 47.45756124006584,166.97345224552555 47.494676776696,167.71613873701426 47.60602338658646,168.02195042424137 47.568907849956304,168.8083222687419 47.680254459613934,169.63837977388175 47.64313892298378,169.9005028415122 47.494676776696,170.03156431144453 46.752366045024246,170.25 45.00793582596816,170.20631287174183 44.525433850707486,170.03156431144453 44.22850955813192,170.0752514586784 40.55407143686898,169.46363096754067 37.17655760864727,169.245194852876 36.21155365766026,169.11413312738296 34.46712343883701,169.0267586199625 33.13096412201412,168.76463498422527 32.31442231731489,168.67726040107664 31.75768926856108,168.67726040107664 31.349418366327882,168.8083222687419 30.56999209825881,168.72094769511023 30.198836732422933,168.76463498422527 29.196717244805768,168.8083222687419 27.452287025982514,168.4151365380676 27.08113166037947,168.45882386047742 26.22747431905009,168.24038720151293 24.85419946559705,168.1966998554708 24.11188873415813,167.93457568014855 23.40669353911653,167.84720091708004 22.96130710025318,167.62876392676844 22.55303619801998,167.54138909745961 20.029179710661992,167.23557704585255 19.47244666214101,167.1045146670076 17.913594126002863,166.97345224552555 17.728016443084925,166.92976476228796 17.431092150509357,166.71132727476652 17.319745540618896,166.31813949919888 17.431092150509357,165.70651330816327 17.76513197971508,165.00751081079943 17.913594126002863,164.43957038928056 17.950709662633017,163.65319002329488 17.87647858937271,163.04155978924246 17.913594126002863,162.51730456444784 17.76513197971508,161.51248014435987 17.98782519903034,160.02708293599426 19.064175759907812,156.18250004039146 19.323984515853226,154.828149605426 19.806486491346732,153.5611724986229 20.1034107839223,152.4252586037328 20.43745061312802,151.90098957260489 21.25399241782725,149.7602172860934 21.58803224703297,148.36215577853727 21.922072076238692,147.83788146311417 22.478805124759674,146.5708823860332 22.96130710025318,145.1291199712723 23.221115856198594,144.69222125166561 23.740733368322253,144.08056224885513 24.483044099761173,142.8572414588125 25.336701441090554,141.63391695611062 25.893434489844367,140.58535014165682 26.487283074762672,139.71154237934388 27.08113166037947,138.44451775948983 27.74921131832525,137.6580866818258 28.26882883044891,136.65320029409486 29.08537063538097,135.51723875233438 29.64210368390195,134.5560380240786 30.235952269053087,133.20161492572515 30.56999209825881,132.85208564531058 30.79268531757407,132.4588648424833 31.200956220040098,131.4539654928958 31.386533902958035,131.10443469687016 31.794804805191234,130.62382935770438 32.0917290977668,130.36168074930902 32.72269321954809,130.14322344542597 34.31866129231639,130.1869149156264 36.10020704800263,130.01214900624473 37.13944207224995,130.09953197048162 39.29214319353923,129.9684575170104 40.96234233933501,129.75 42.15003950963728,129.88107452442637 43.449083290062845,129.88107452442637 43.70889204577543,129.83738302101847 45.564668874721974,129.92476602303213 45.787362094270065,129.88107452442637 46.15851745987311,130.09953197048162 46.23274853313342,130.36168074930902 46.26986406953074,130.66752077583806 46.195632996503264,131.54134814452846 46.45544175268151,132.76470327781863 46.45544175268151,133.33268832752947 46.60390389873646,133.85698150933604 46.49255728907883,134.46865602603066 46.49255728907883,135.56092964010895 46.56678836210631,136.60950952483108 46.529672825708985,137.35225195955718 46.56678836210631,138.4008271842613 46.67813497199677,139.0124948057928 46.641019435599446,139.88630408339668 46.752366045024246,140.71642114268616 46.67813497199677,142.33295998367248 46.752366045024246,142.46403041644953 46.71525050862692,143.4689023179235 46.78948158188723,143.86211238009855 46.752366045024246,144.34270193523844 46.78948158188723,145.39125897572376 46.863712654681876,145.9592262338556 46.937943728175014,147.31360646593384 47.049290337832645,148.0563291774888 46.937943728175014,148.84273996867705 46.97505926457234,149.89128530377639 47.12352141086012,150.80876023464953 47.08640587422997,152.20681325695477 46.97505926457234,152.94952695292886 47.01217480120249,153.43010567410965 47.01217480120249,154.04175049066544 47.08640587422997,154.47863907707506 47.23486802051775,156.70676350328722 47.1977524838876,157.27471481877728 47.271983557380736,157.58053442646633 47.1977524838876,158.3232382220158 47.271983557380736,158.76012216854724 47.34621463040821,160.3329004557163 47.53179231309332,161.25035162302083 47.30909909377806,163.47843862249283 47.53179231309332,165.44438751370762 47.53179231309332,167.62876392676844 47.64313892298378,168.4151365380676 47.568907849956304,168.93938409365364 47.60602338658646,169.59469257929595 47.568907849956304,169.85681567538995 47.383330167038366,170.03156431144453 46.56678836210631,170.20631287174183 45.41620672843419,170.16262573868153 45.156397972488776,170.0752514586784 44.7852426066529,170.11893860108103 44.37697170418687,170.0752514586784 44.00581633858383,169.98787715955405 42.706772558391094,169.81312850455288 41.77888414403424,169.59469257929595 40.33137821755372,169.50731817618362 39.25502765690908,169.50731817618362 38.62406353512779,169.37625653587747 35.729051682166755,168.98307135910727 34.72693219454959,168.98307135910727 32.128844634396955,168.63357310259016 31.497880512615666,168.76463498422527 30.60710763465613,168.76463498422527 29.75345029355958,168.8520095484273 28.528637586627156,168.8083222687419 27.489402562612668,168.5025111780269 27.00690058688633,168.28407454272383" stroke="#4dd2ff" stroke-linecap="round" stroke-linejoin="round" stroke-width="0.5"><title>2024-07-27 5.1km</title><desc>11997575827</desc></polyline><polyline fill="none" points="97.75,135.69790729880333 57.25,164.30209270119667" stroke="#4dd2ff" stroke-linecap="round" stroke-linejoin="round" stroke-width="0.5"><title>2024-05-09 8.0km</title><desc>9223370321595310162</desc></polyline><polyline fill="none" points="102.25,143.72715498134494 110.77631579339504,147.49086439795792 105.4473684206605,141.2180146900937 128.894736841321,155.01827956177294 142.75,158.7819853099063 134.22368421405554,157.5274168625474 105.4473684206605,152.50914171803743" stroke="#4dd2ff" stroke-linecap="round" stroke-linejoin="round" stroke-width="0.5"><title>2024-05-08 6.2km</title><desc>9223370321684028463</desc></polyline><polyline fill="none" points="167.50000002980232,129.75 161.2443999350071,170.25 173.75560007989407,155.52273286134005 173.75560007989407,159.20455024763942" stroke="#4dd2ff" stroke-linecap="round" stroke-linejoin="round" stroke-width="0.5"><title>2024-05-07 6.1km</title><desc>9223370321771754451</desc></polyline><polyline fill="none" points="72.58488619327545,178.5 97.16045525670052,219.0 57.839544743299484,219.0" stroke="#4dd2ff" stroke-linecap="round" stroke-linejoin="round" stroke-width="0.5"><title>2024-05-02 6.8km</title><desc>9223370322200251369</desc></polyline><polyline fill="none" points="102.25,202.85979942325503 142.75,194.64020057674497 130.18103448301554,199.57196042127907 141.3534482717514,202.85979942325503" stroke="#4dd2ff" stroke-linecap="round" stroke-linejoin="round" stroke-width="0.5"><title>2024-04-30 5.3km</title><desc>9223370322373916531</desc></polyline><polyline fill="none" points="147.25,195.93472626793664 148.97204724373296,197.81166023784317 152.41614173189737,197.0608872602461 153.7555118110031,198.11196920106886 168.2972440943122,185.57395923056174 183.92322834627703,185.72411638125777 186.9846456691157,188.80233079823665 187.6224409446586,207.19625380076468 183.92322834627703,211.5506620311644 166.12874015746638,211.70081355096772 163.13110236194916,209.89899316593073 153.3090551176574,209.44853733747732 152.73503936990164,199.76366617128951 155.3499999998603,196.3851908846409 168.48858267674223,185.57395923056174 183.73188976361416,185.72411638125777 186.6657480315771,188.65217431494966 187.6224409446586,192.25592093379237 187.23976377933286,208.32239648437826 183.47677165316418,211.85096503788373 166.57519685011357,211.85096503788373 163.5137795272749,209.9740691089537 152.54370078700595,208.99808121594833 153.11771653499454,199.0128953094245 167.40433070831932,185.94935204647481 184.36968503892422,185.87427349953214 187.6224409446586,190.07865959370974 187.30354330688715,206.5205673117889 186.9208661413286,208.6977769721998 183.6043307085056,211.77588929852936 166.57519685011357,211.62573779502418 163.13110236194916,209.8239172147005 153.43661417299882,209.37346133746905 152.41614173189737,207.64671109378105 152.60748031456023,201.7156666041701 153.11771653499454,199.2381266534212 167.59566929121502,186.09950911585474 183.6043307085056,185.6490378099843 186.9846456691157,188.7272525606677 187.30354330688715,208.24732036248315 183.79566929116845,211.70081355096772 182.13740157475695,211.85096503788373 167.2129921258893,211.92604076943826 163.4499999997206,210.04914504371118 153.5003937005531,209.44853733747732 152.2248031492345,205.3944216988748 152.67125984234735,203.14212498022243 153.69173228321597,202.76674148184247 152.54370078700595,202.541511285468 152.60748031456023,201.03997476940276 155.28622047207318,196.76057784131262 168.10590551164933,185.94935204647481 184.68858267716132,186.39982315682573 187.43110236222856,189.62819087563548 187.55866141733713,207.04610130458605 183.9870078735985,211.2503588940017 166.06496062967926,211.85096503788373 161.2177165353205,209.67376528825844 153.69173228321597,209.44853733747732 152.67125984234735,208.32239648437826 152.4799212596845,201.7156666041701 153.3090551176574,198.71258673683042 167.59566929121502,185.94935204647481 184.0507874013856,186.024430585152 187.23976377933286,189.5531127275899 187.75,195.4091838450986 187.30354330688715,206.74579621461453 184.11456692917272,211.4005104788812 166.00118110212497,211.85096503788373 163.19488188950345,209.89899316593073 153.11771653499454,209.2983853293117 153.3090551176574,198.9378181786742" stroke="#4dd2ff" stroke-linecap="round" stroke-linejoin="round" stroke-width="0.5"><title>2024-04-27 9.8km</title><desc>1714200483443</desc></polyline><polyline fill="none" points="12.25,243.65784849203192 12.883802816970274,245.8214661135571 14.151408450677991,246.71675417444203 16.116197183029726,246.49293226841837 17.573943661991507,245.9706808712217 18.461267605656758,246.71675417444203 20.426056338008493,245.89607349637663 22.644366197288036,244.2547092048917 23.214788732584566,243.35941794147948 24.482394366292283,242.38951775885653 27.65140845091082,239.2559847519151 29.616197183262557,237.4653880575206 32.08802816923708,235.00330999691505 35.57394366222434,234.40644126193365 40.07394366199151,234.48104988213163 41.84859154932201,234.10800670046592 43.49647887330502,234.63026709819678 47.742957746610045,234.70487569412217 49.327464788686484,234.92870143335313 51.926056338241324,237.76382116321474 52.5598591552116,241.49422406993108 52.5598591552116,245.67225132341264 52.5598591552116,250.22328786825528 52.5598591552116,254.55047503806418 51.926056338241324,257.4601200815523 48.883802817203104,260.3697528266348 44.573943661758676,260.5935702206916 40.327464788686484,260.51896443084115 35.44718309887685,260.7427817762946 31.200704225571826,260.51896443084115 29.172535211313516,259.2506647647824 26.19366197171621,258.4299990297877 21.82042253552936,258.4299990297877 18.461267605656758,258.2807869730168 17.89084507059306,257.38551395206014 17.510563380317762,252.75991812895518 17.89084507059306,248.65654097840888 18.714788732584566,247.31361223495333 20.489436619915068,245.29921420686878 22.39084507082589,244.18010164395673 25.813380281673744,241.49422406993108 28.79225352127105,238.5845115375123 31.771126760868356,235.67478670499986 33.54577464796603,234.55565849429695 38.04577464796603,234.70487569412217 41.46830985927954,235.1525270997663 42.48239436629228,234.92870143335313 45.144366197055206,234.70487569412217 48.69366197218187,234.70487569412217 50.2147887328174,235.82400366233196 52.369718310423195,239.03216042008717 52.62323943688534,243.43402559141396 52.369718310423195,247.01518326933729 52.5598591552116,250.67092918162234 52.686619718559086,255.22193267813418 50.785211267881095,258.72842304664664 48.44014084502123,260.668176002393 43.49647887330502,260.7427817762946 40.01056338055059,260.8173875421053 35.89084507059306,260.7427817762946 31.644366197288036,260.668176002393 28.982394366292283,259.1760588293546 27.144366197288036,258.72842304664664 25.496478873537853,258.9522409742349 20.80633802805096,258.5046050461824 18.397887324215844,258.5046050461824 17.447183098644018,257.38551395206014 17.447183098644018,253.0583446038654 18.08098591538146,248.3581125952769 19.855633802944794,246.49293226841837 22.073943661991507,244.47853183862753 24.73591549275443,242.38951775885653 27.588028169004247,239.2559847519151 31.010563380550593,236.2716543400893 33.29225352127105,234.63026709819678 38.23591549322009,234.48104988213163 40.70774647896178,234.70487569412217 42.48239436629228,234.63026709819678 47.36267605633475,234.48104988213163 49.327464788686484,234.85409286170034 52.1795774649363,238.1368623637827 52.686619718559086,240.89736096333945 52.30633802851662,244.702354399662 52.49647887353785,245.74685872264672 52.30633802851662,250.44710856146412 52.242957746610045,255.3711453981232 51.86267605633475,257.53472620312823 49.70774647896178,259.6236943207914 48.56690140860155,260.5935702206916 43.87676056381315,260.668176002393 40.51760563394055,260.5935702206916 36.271126760635525,260.444358632667 31.644366197288036,260.444358632667 28.728873239364475,258.9522409742349 27.144366197288036,258.5792110543698 23.84859154955484,258.3553930053604 19.158450704300776,258.2807869730168 17.827464788919315,257.4601200815523 17.573943661991507,254.0282297540689 17.76408450701274,250.59632231621072 19.855633802944794,246.49293226841837 22.454225352033973,245.0007843679632 24.926056338241324,242.46412551385583 25.559859154978767,241.6434397653211 27.524647887330502,239.85284928168403 29.552816901588812,237.76382116321474 32.65845070453361,235.07791855244432 34.55985915497877,234.63026709819678 37.03169014095329,234.85409286170034 40.200704225571826,234.70487569412217 41.84859154932201,235.07791855244432 45.271126760868356,234.63026709819678 48.56690140860155,234.63026709819678 50.84859154955484,236.4954795697704 52.49647887353785,238.88294415804558 52.369718310423195,243.43402559141396 52.30633802851662,246.7913614604622 52.43309859163128,251.1185702039511 52.369718310423195,255.3711453981232 52.242957746610045,257.0870893530664 50.341549296164885,259.10145288560307 47.1091549298726,260.668176002393 43.49647887330502,260.7427817762946 39.82042253529653,260.7427817762946 36.58802816923708,260.8919932995923 33.926056338474154,260.7427817762946 32.27816901425831,260.7427817762946 29.552816901588812,259.84751195757417 26.827464788919315,258.5792110543698 24.545774648198858,258.2807869730168 21.757042253622785,258.0569688268006 18.65140845067799,258.2807869730168 17.89084507059306,257.60933231632225 17.383802816970274,254.2520492100739 17.827464788919315,252.01385137543548 18.841549295699224,251.64081769547192 18.08098591538146,251.64081769547192 17.76408450701274,249.9248601643485 19.411971830995753,246.8659687381005 20.426056338008493,245.67225132341264 22.137323943898082,244.62774688727222 24.545774648198858,242.6133409991744 26.89084507059306,240.67353716492653 28.91901408461854,238.50990336219547 31.961267605656758,235.60017821425572 33.16549295792356,234.92870143335313 37.34859154932201,234.7794842820149 40.897887323983014,235.07791855244432 41.84859154932201,235.22713563893922 44.827464788919315,234.92870143335313 48.44014084502123,234.7794842820149 51.16549295792356,237.01773815625347 52.5598591552116,240.8227530386066 52.62323943688534,245.22460675914772 52.49647887353785,249.55182535218773 52.43309859163128,253.8044102253043 52.1795774649363,256.78866462485166 48.94718309864402,260.07132952136453 44.63732394366525,260.3697528266348 40.51760563394055,260.29514701251173 36.33450704230927,260.2205411902396 34.05281690158881,260.444358632667 31.13732394366525,260.668176002393 28.285211267881095,258.87763500656 23.97535211290233,258.5046050461824 19.855633802944794,258.4299990297877 18.397887324215844,258.0569688268006 17.827464788919315,257.16169551492203 17.700704225106165,252.98373799724504 17.637323943898082,250.59632231621072 18.144366197288036,248.05968408263288 20.299295774661005,246.0452882378595 22.58098591538146,243.7324561093119 25.75000000023283,241.12118468870176 29.23591549298726,238.21147057955386 32.15140845067799,235.3763526933035 33.228873239597306,234.70487569412217 37.47535211290233,234.85409286170034 41.911971831228584,235.1525270997663 45.01760563394055,234.92870143335313 49.01056338031776,235.00330999691505 51.228873239364475,237.24156314315042 52.1795774649363,238.50990336219547 52.49647887353785,241.19579258118756 52.686619718559086,244.32931675750297 52.49647887353785,248.73114805406658 52.49647887353785,252.83452475990634 52.242957746610045,255.5949644173961 51.672535211313516,257.53472620312823 49.58098591561429,259.922117820126 46.982394366525114,260.51896443084115 42.672535211313516,260.668176002393 37.79225352127105,260.5935702206916 34.05281690158881,260.444358632667 31.073943662224337,260.668176002393 29.172535211313516,259.10145288560307 26.130281690275297,258.4299990297877 21.313380281906575,258.2061809322913 18.77816901402548,258.3553930053604 17.827464788919315,257.68393842177466 17.76408450701274,254.99811353744008 17.76408450701274,250.8201428882312 18.461267605656758,247.8358626132831" stroke="#4dd2ff" stroke-linecap="round" stroke-linejoin="round" stroke-width="0.5"><title>2024-04-27 10.1km</title><desc>9223370322649067555</desc></polyline><polyline fill="none" points="77.50000001490116,244.09473817422986 89.0714285671711,244.09473817422986 74.60714285075665,250.9052618239075 57.25,244.09473817422986 97.75,250.9052618239075 65.92857141792774,250.9052618239075" stroke="#4dd2ff" stroke-linecap="round" stroke-linejoin="round" stroke-width="0.5"><title>2024-04-26 5.2km</title><desc>9223370322713802999</desc></polyline></svg>