<?xml version="1.0" encoding="utf-8" ?>
<svg baseProfile="full" height="300mm" version="1.1" viewBox="0,0,200,300" width="200mm" xmlns="http://www.w3.org/2000/svg" xmlns:ev="http://www.w3.org/2001/xml-events" xmlns:xlink="http://www.w3.org/1999/xlink"><defs /><rect fill="#222222" height="300" width="200" x="0" y="0" /><text fill="#FFFFFF" style="font-size:12px; font-family:Arial; font-weight:bold;" x="10" y="20">Over 5km Runs</text><text fill="#FFFFFF" style="font-size:4px; font-family:Arial" x="10" y="280">ATHLETE</text><text fill="#FFFFFF" style="font-size:9px; font-family:Arial" x="10" y="290">L</text><text fill="#FFFFFF" style="font-size:4px; font-family:Arial" x="120" y="280">STATISTICS</text><text fill="#FFFFFF" style="font-size:3px; font-family:Arial" x="120" y="285">Number: 17</text><text fill="#FFFFFF" style="font-size:3px; font-family:Arial" x="120" y="290">Weekly: 1.9</text><text fill="#FFFFFF" style="font-size:3px; font-family:Arial" x="141" y="285">Total: 104.8 km</text><text fill="#FFFFFF" style="font-size:3px; font-family:Arial" x="141" y="290">Avg: 6.2 km</text><text fill="#FFFFFF" style="font-size:3px; font-family:Arial" x="167" y="285">Min: 5.0 km</text><text fill="#FFFFFF" style="font-size:3px; font-family:Arial" x="167" y="290">Max: 10.1 km</text><polyline fill="none" points="40.241181335411966,35.54065121547319 38.735951632261276,34.275016681523994 35.72549222409725,32.756254334934056 31.63986873999238,32.25 28.414376517757773,33.00938146095723 24.543785848654807,36.046904837246984 23.2535889595747,38.57817129907198 22.393457698635757,41.86881359783001 22.178424885496497,54.27196212322451 22.823523328639567,65.1563034998253 23.68365458957851,67.94066175026819 25.403917108662426,70.47189364302903 27.98431088682264,71.99063146137632 31.20980310998857,72.75 36.15555785316974,72.24375433544628 38.735951632261276,70.21877057710662 41.10131259635091,67.43441504263319 42.17647667042911,64.65005618846044 42.391509485431015,62.118817986221984 42.17647667042911,56.80320883146487 42.391509485431015,45.918828522088006 41.961443855427206,39.33755070180632 39.166017261333764,35.287524364190176 37.66078755725175,34.02188969193958 35.510459408164024,33.00938146095723 31.424835925921798,32.503127180738375 27.33921244274825,33.76876267581247 24.973851477727294,35.79377803974785 23.68365458957851,37.81879164837301 22.393457698635757,41.362561237532645 22.393457698635757,45.15945125906728 22.608490514568985,50.22196168452501 22.393457698635757,62.878189734881744 23.468621774576604,66.42192129860632 24.973851477727294,68.95315483678132 27.124179627746344,71.23126267502084 31.424835925921798,72.49687718134373 34.65032814908773,72.49687718134373 38.735951632261276,69.71252436307259 41.961443855427206,66.16879779333249 42.60654230043292,64.39693249156699 42.8215751145035,63.131313596852124 42.17647667042911,59.58757703984156 42.17647667042911,43.387570017483085 41.531378225423396,38.83129779412411 39.166017261333764,35.79377803974785 36.370590668171644,33.51563563174568 34.00522970315069,32.503127180738375 32.06993436999619,32.503127180738375 29.489540591835976,33.00938146095723 26.69411399681121,34.781270576873794 24.543785848654807,37.05941175157204 23.038556144572794,40.09692985890433 22.393457698635757,43.387570017483085 22.823523328639567,45.41257704142481 22.608490514568985,51.23446245212108 23.038556144572794,65.40942711476237 24.543785848654807,68.19378506345674 26.47908118274063,70.47189364302903 29.489540591835976,71.99063146137632 32.71503281593323,72.49687718134373 38.09085318725556,71.48438563128002 40.026148522272706,69.71252436307259 41.7464110404253,67.18129164795391 42.391509485431015,65.1563034998253 42.17647667042911,40.603182492777705 41.531378225423396,38.83129779412411 39.81111570633948,36.046904837246984 36.58562348317355,33.76876267581247 33.79019689001143,33.00938146095723 30.994770295917988,33.26250855997205 27.769278071820736,34.781270576873794 25.18888429366052,37.312538410536945 23.68365458957851,40.35005619004369 23.038556144572794,43.387570017483085 22.823523328639567,55.031336423242465 23.038556144572794,63.89068501628935 23.468621774576604,65.66255070152692 25.403917108662426,69.20627803937532 26.47908118274063,70.47189364302903 30.994770295917988,72.24375433544628 34.43529533408582,72.24375433544628 36.58562348317355,71.48438563128002 39.59608289133757,68.95315483678132 40.88627978041768,67.18129164795391 42.17647667042911,63.63756123720668 41.961443855427206,54.01883730106056 42.391509485431015,50.72821212303825 42.17647667042911,48.95633510663174 42.17647667042911,42.62819193047471 41.7464110404253,40.35005619004369 39.81111570633948,36.553158349124715 37.66078755725175,34.5281436429359 34.22026251908392,32.503127180738375 31.854901554994285,32.756254334934056 30.134639035910368,33.26250855997205 26.264048367738724,35.54065121547319 24.3287530336529,38.57817129907198 23.2535889595747,41.61568743083626 23.038556144572794,44.14694785629399 23.468621774576604,51.23446245212108 23.038556144572794,63.63756123720668 23.468621774576604,65.9156742610503 24.75881866365671,68.19378506345674 27.55424525681883,71.23126267502084 32.93006562907249,72.49687718134373 35.29542659409344,72.24375433544628 36.800656298175454,71.48438563128002 39.59608289133757,68.95315483678132 41.10131259635091,66.92816822533496 42.391509485431015,62.878189734881744 41.961443855427206,51.23446245212108 42.17647667042911,42.62819193047471 41.7464110404253,39.084424261702225 40.45621415134519,36.80628506443463 38.305886002257466,34.5281436429359 36.15555785316974,33.26250855997205 32.71503281593323,32.25 29.704573405906558,33.00938146095723 26.69411399681121,35.03439748403616 25.18888429366052,36.80628506443463 23.89868740364909,39.084424261702225 23.2535889595747,41.61568743083626 23.038556144572794,51.23446245212108 23.468621774576604,57.8157067457214 23.2535889595747,63.63756123720668 24.3287530336529,66.92816822533496 25.833982738666236,69.4594012144953 28.199343701824546,71.48438563128002 31.20980310998857,72.24375433544628 34.65032814908773,72.24375433544628 38.52091881725937,70.47189364302903 39.81111570633948,69.71252436307259 41.31634540949017,67.18129164795391 42.391509485431015,63.131313596852124 42.391509485431015,55.284461135743186 41.7464110404253,45.41257704142481 41.961443855427206,40.603182492777705 41.10131259635091,38.071918225847185 38.52091881725937,35.03439748403616 35.940525038167834,33.51563563174568 32.5,32.503127180738375 29.489540591835976,33.51563563174568 26.90914681274444,35.54065121547319 25.403917108662426,37.312538410536945 24.113720218650997,39.590677115367725 23.038556144572794,45.15945125906728 23.038556144572794,62.62506584567018 23.68365458957851,66.16879779333249 25.18888429366052,68.70003160671331 28.199343701824546,71.48438563128002 30.349671850912273,72.49687718134373 33.3601312590763,72.49687718134373 35.08039377909154,72.24375433544628 38.735951632261276,70.21877057710662 41.10131259635091,66.92816822533496 42.391509485431015,62.62506584567018 42.60654230043292,60.09382544900291 42.17647667042911,47.43758230796084 42.391509485431015,42.37506584706716 41.531378225423396,39.590677115367725 40.241181335411966,36.30003160657361 37.23072192724794,33.51563563174568 35.08039377909154,32.503127180738375 32.28496718406677,32.25 28.629409330897033,33.51563563174568 27.55424525681883,34.5281436429359 24.543785848654807,38.071918225847185 23.2535889595747,41.109435016987845 23.038556144572794,53.259462672052905 23.2535889595747,56.80320883146487 22.823523328639567,63.63756123720668 23.2535889595747,66.16879779333249 23.89868740364909,67.68753840983845 26.47908118274063,70.47189364302903 29.27450777683407,72.24375433544628 32.06993436999619,72.49687718134373 36.15555785316974,71.48438563128002 38.735951632261276,69.96564748417586 40.88627978041768,67.43441504263319 42.17647667042911,64.39693249156699 42.391509485431015,61.612570016644895 42.391509485431015,54.01883730106056 42.8215751145035,48.19695883104578 42.8215751145035,43.8938219381962 42.391509485431015,41.362561237532645 39.81111570633948,36.80628506443463 37.875820372253656,34.5281436429359 35.29542659409344,33.51563563174568 30.564704665914178,33.51563563174568 27.769278071820736,35.03439748403616 25.61894992273301,37.05941175157204 24.113720218650997,39.590677115367725 23.2535889595747,41.86881359783001 23.68365458957851,46.67820553923957 23.2535889595747,53.00633774069138 23.468621774576604,61.86569401505403 23.89868740364909,64.90317985834554 24.973851477727294,66.92816822533496 27.55424525681883,69.96564748417586 29.059474961832166,70.72501668101177 31.63986873999238,71.23126267502084 34.43529533408582,70.97813969175331 36.800656298175454,70.21877057710662 38.735951632261276,68.70003160671331 40.671246965415776,66.16879779333249 41.531378225423396,63.63756123720668 41.31634540949017,56.04383510653861 41.961443855427206,51.23446245212108 41.961443855427206,44.40007374831475 41.531378225423396,41.362561237532645 40.671246965415776,39.084424261702225 38.305886002257466,36.046904837246984 35.29542659409344,34.02188969193958 32.28496718406677,33.76876267581247 28.84444214683026,34.781270576873794 26.90914681274444,36.046904837246984 25.403917108662426,37.81879164837301 24.113720218650997,40.35005619004369 23.68365458957851,42.37506584706716 24.113720218650997,47.943833351368085 23.89868740364909,62.62506584567018 24.75881866365671,66.16879779333249 26.04901555273682,68.19378506345674 27.98431088682264,70.21877057710662 30.564704665914178,71.23126267502084 35.08039377909154,71.23126267502084 38.09085318725556,69.71252436307259 39.59608289133757,68.19378506345674 41.10131259635091,65.1563034998253 41.531378225423396,63.131313596852124 41.531378225423396,45.41257704142481 41.531378225423396,42.37506584706716 40.88627978041768,40.35005619004369 39.81111570633948,38.071918225847185 37.66078755725175,35.54065121547319 35.940525038167834,34.781270576873794 33.3601312590763,34.275016681523994 30.134639035910368,34.5281436429359 26.69411399681121,36.30003160657361 24.3287530336529,40.35005619004369 23.89868740364909,42.37506584706716 24.113720218650997,63.63756123720668 24.3287530336529,65.40942711476237 25.833982738666236,68.70003160671331 29.489540591835976,70.97813969175331 34.00522970315069,71.99063146137632 35.72549222409725,71.48438563128002 38.305886002257466,69.96564748417586 40.671246965415776,66.67504477570765 41.531378225423396,63.384437430417165 41.531378225423396,50.72821212303825 41.31634540949017,50.98133730166592 41.7464110404253,47.18445674632676 41.531378225423396,42.37506584706716" stroke="#4dd2ff" stroke-linecap="round" stroke-linejoin="round" stroke-width="0.5"><title>2024-08-28 5.0km</title><desc>12260135184</desc></polyline><polyline fill="none" points="86.44933434017003,41.1460188429337 85.85271205101162,39.507281282916665 83.06847470067441,36.698014001594856 79.0909927720204,34.825167117174715 75.9090072279796,33.88874306669459 73.7213921668008,34.59106114297174 71.13602891378105,36.46390822972171 69.94278433453292,38.33675369317643 67.95404336974025,43.01886024652049 67.75516927428544,45.35990971629508 67.75516927428544,49.80789671908133 68.35179156251252,60.108463030774146 68.1529174670577,63.151802766602486 68.55066565982997,64.79052238725126 69.94278433453292,67.83385552605614 71.93152529839426,69.94077595626004 75.51125903520733,72.28179624653421 77.30112590361387,72.51589813572355 81.27860783226788,72.28179624653421 83.86397108528763,70.64308231021278 86.25046024285257,67.599753129296 87.04595662932843,65.25872776424512 87.24483072478324,45.59401452424936 86.64820843655616,42.082439747639 84.65946747176349,38.80496480525471 81.87523012142628,35.99569661007263 79.0909927720204,34.59106114297174 75.51125903520733,34.122849117266014 72.92589578125626,35.05927306693047 71.73265120293945,35.76159076252952 70.14165843091905,37.16622546920553 69.14728794898838,39.507281282916665 68.1529174670577,44.423490232555196 68.55066565982997,47.46685207076371 68.1529174670577,62.44949397747405 68.74953975621611,65.49283041479066 71.33490301016718,69.70667378790677 72.52814758848399,70.87718437681906 73.7213921668008,71.81359239085577 77.69887409545481,72.75 79.6876150611788,72.51589813572355 82.67072650790215,71.57949042553082 85.45496385637671,69.23846937459894 86.64820843655616,66.19513821438886 87.24483072478324,62.21539099654183 86.8470825329423,46.29632879490964 86.44933434017003,42.082439747639 84.85834156814963,38.33675369317643 81.47748192865402,35.52748488960788 78.69324457738549,34.3569551424589 74.91463674604893,34.3569551424589 72.92589578125626,35.05927306693047 69.74391023814678,38.57085926248692 68.55066565982997,41.1460188429337 68.1529174670577,42.31654490996152 68.55066565982997,60.81077258102596 68.1529174670577,63.151802766602486 69.74391023814678,66.89744578604586 71.33490301016718,69.23846937459894 73.52251807134598,71.1112864187453 75.9090072279796,72.04769433126785 78.89211867470294,72.04769433126785 81.67635602504015,71.34538843482733 84.26171927992254,69.70667378790677 85.45496385637671,68.06795789767057 86.25046024285257,66.66334328753874 87.04595662932843,63.85411132709123 86.64820843655616,60.57666942267679 86.8470825329423,46.99864283576608 86.64820843655616,42.7847551596351 85.65383795369416,39.507281282916665 83.26734879706055,36.46390822972171 81.47748192865402,35.05927306693047 77.69887409545481,33.65463699004613 74.31801445689052,34.122849117266014 71.93152529839426,35.76159076252952 69.54503614176065,39.03907032310963 68.35179156251252,42.082439747639 68.55066565982997,58.93794660526328 68.94841385353357,60.81077258102596 68.94841385353357,63.151802766602486 69.54503614176065,66.42924076411873 71.13602891378105,69.00436713034287 72.92589578125626,70.87718437681906 75.71013313252479,72.28179624653421 79.0909927720204,72.51589813572355 83.26734879706055,70.87718437681906 85.65383795369416,68.06795789767057 86.8470825329423,64.79052238725126 86.64820843655616,43.48707034345716 85.85271205101162,40.91191355371848 84.85834156814963,38.80496480525471 81.67635602504015,35.52748488960788 78.89211867470294,33.88874306669459 75.3123849388212,33.42053088871762 71.93152529839426,35.52748488960788 71.13602891378105,36.46390822972171 68.74953975621611,40.44370289798826 68.1529174670577,42.7847551596351 67.95404336974025,44.89170002588071 68.35179156251252,52.85125096933916 68.35179156251252,61.27897882112302 69.94278433453292,66.66334328753874 71.93152529839426,69.70667378790677 74.51688855327666,71.81359239085577 75.51125903520733,72.28179624653421 78.89211867470294,72.51589813572355 81.87523012142628,71.57949042553082 83.86397108528763,70.17487809900194 85.85271205101162,67.36565070715733 86.8470825329423,63.620008499128744 86.44933434017003,57.7674295459874 86.8470825329423,46.76453818031587 86.05158614739776,40.67780823842622 82.27297831419855,35.76159076252952 80.88085963949561,34.59106114297174 78.69324457738549,33.42053088871762 75.9090072279796,32.718212431296706 73.52251807134598,33.65463699004613 70.73828072100878,36.46390822972171 69.34616204537451,38.57085926248692 68.1529174670577,42.7847551596351 68.35179156251252,56.596911852480844 68.1529174670577,61.51308190310374 68.74953975621611,64.08821413037367 70.34053252730519,67.599753129296 73.32364397495985,71.1112864187453 75.3123849388212,72.04769433126785 78.69324457738549,72.75 80.88085963949561,72.28179624653421 83.46622289344668,70.87718437681906 85.85271205101162,68.06795789767057 86.8470825329423,65.49283041479066 86.44933434017003,54.72408222290687 86.8470825329423,42.082439747639 86.05158614739776,38.57085926248692 83.46622289344668,35.05927306693047 82.07410421781242,34.122849117266014 78.29549638554454,32.48410622822121 76.10788132436574,32.25 73.92026626411825,32.718212431296706 71.93152529839426,34.59106114297174 68.94841385353357,40.44370289798826 68.1529174670577,43.25296530802734 68.1529174670577,51.21252229064703 68.55066565982997,57.533326057717204 68.35179156251252,59.874359796056524 68.74953975621611,60.57666942267679 69.94278433453292,66.42924076411873 71.13602891378105,68.77026485977694 72.52814758848399,70.40898021729663 75.11351084243506,72.04769433126785 77.10225180629641,72.51589813572355 79.0909927720204,72.51589813572355 82.07410421781242,71.57949042553082 84.85834156814963,69.47257159417495 86.44933434017003,66.66334328753874 86.8470825329423,62.21539099654183 86.8470825329423,56.596911852480844 86.05158614739776,47.23274746583775 86.25046024285257,43.48707034345716 85.45496385637671,39.74138672510162 83.86397108528763,37.16622546920553 81.07973373588175,34.3569551424589 79.28986686747521,33.42053088871762 77.30112590361387,32.952318609459326 74.31801445689052,33.42053088871762 71.73265120293945,35.05927306693047 69.54503614176065,38.57085926248692 68.55066565982997,41.61422934662551 68.35179156251252,44.6575951424893 68.55066565982997,52.14893883140758 68.35179156251252,61.98128799092956 68.74953975621611,65.49283041479066 69.54503614176065,67.13154825917445 72.13039939571172,70.17487809900194 74.11914036050439,71.34538843482733 77.89774819277227,72.04769433126785 79.88648915756494,71.81359239085577 83.06847470067441,70.64308231021278 85.45496385637671,68.30206024344079 86.8470825329423,64.79052238725126 86.05158614739776,42.7847551596351 85.65383795369416,39.507281282916665 84.26171927992254,37.16622546920553 81.47748192865402,34.3569551424589 78.69324457738549,33.42053088871762 75.11351084243506,33.88874306669459 73.1247698776424,35.05927306693047 70.34053252730519,37.63443683506921 69.34616204537451,39.27317581605166 68.35179156251252,42.550650047836825 68.74953975621611,49.57379236887209 68.35179156251252,56.36280823731795 68.55066565982997,63.385905645787716 69.14728794898838,66.89744578604586 72.92589578125626,70.64308231021278 74.71576264966279,71.57949042553082 77.30112590361387,72.51589813572355 80.28423735033721,72.51589813572355 83.06847470067441,71.34538843482733 85.2560897609219,69.23846937459894 85.85271205101162,68.30206024344079 86.8470825329423,63.620008499128744 86.44933434017003,56.36280823731795 86.64820843655616,46.53043350065127 86.44933434017003,42.31654490996152 85.85271205101162,40.67780823842622 82.27297831419855,34.825167117174715 80.28423735033721,33.42053088871762 76.10788132436574,32.25 74.31801445689052,32.718212431296706 72.72702168487012,33.65463699004613 70.34053252730519,36.46390822972171 68.74953975621611,39.507281282916665 67.95404336974025,42.7847551596351 68.35179156251252,63.151802766602486 68.74953975621611,65.49283041479066 70.14165843091905,68.53616256406531 71.73265120293945,70.40898021729663 74.71576264966279,72.28179624653421 76.505629517138,72.75 81.47748192865402,72.04769433126785 83.86397108528763,70.87718437681906 85.2560897609219,69.47257159417495 86.44933434017003,67.13154825917445 87.04595662932843,64.32231690827757 86.44933434017003,59.17204994079657 86.44933434017003,43.01886024652049 85.85271205101162,40.20959753287025 83.46622289344668,36.229802432935685 81.87523012142628,34.825167117174715 79.28986686747521,33.18642476154491 75.71013313252479,32.718212431296706 74.31801445689052,32.952318609459326 71.73265120293945,34.825167117174715 70.34053252730519,36.46390822972171 68.74953975621611,39.975492142140865 68.1529174670577,43.48707034345716 68.1529174670577,50.276105344993994 68.55066565982997,54.48997840494849 69.74391023814678,59.40615325164981 69.34616204537451,62.6835969327949 69.94278433453292,65.72693303995766 70.53940662462264,67.599753129296 72.92589578125626,70.64308231021278 74.51688855327666,71.81359239085577" stroke="#4dd2ff" stroke-linecap="round" stroke-linejoin="round" stroke-width="0.5"><title>2024-08-20 5.2km</title><desc>12192768473</desc></polyline><polyline fill="none" points="131.45911357388832,61.44295212122961 131.5141618908383,60.438580482732505 131.43158941552974,59.82299619761761 131.37654109869618,59.0130149438919 131.3214927816298,58.591823824623134 131.3214927816298,57.846638082904974 131.23892030620482,57.32824690613779 131.1012995140627,57.101450483547524 130.9361545634456,57.03665147413267 130.13795396848582,56.97185245068977 129.36727753200103,57.06905098055722 127.7433521838393,57.00425196415745 127.30296564870514,56.77745529584354 127.05524822277948,56.58305801457027 127.00019990571309,56.453459756827215 127.02772406418808,56.16186347149778 127.46811059932224,55.351872297527734 128.15621456049848,54.41227978625102 128.4865044618491,53.86148280301131 128.62412525410764,53.56988398928661 128.81679436308332,53.343084715277655 129.14708426455036,52.46828590356745 129.50489832414314,52.01468551188009 129.69756743346807,51.56108443174162 129.7526157501852,51.39908387931064 129.9728090178687,51.17228295822861 130.63338882056996,50.07067603661562 131.01872703875415,49.617072006542 131.2939686231548,49.06626618743758 131.76187931676395,48.48305891978089 133.05551476369146,46.18261915651965 133.3307563480921,45.923413566255476 133.5509496157756,45.76140995827154 134.70696427032817,45.82621141202981 136.08317219268065,45.76140995827154 136.19326882634778,45.79381068688235 136.46851041098125,46.020615688932594 136.7162278369069,46.11781777997385 137.1290902135661,46.08541708646226 137.21166268887464,45.98821498488542 137.6520492240088,47.80264900269685 137.3217593227746,46.668629032355966 137.1015660552075,46.37702320161043 136.936421104474,46.312221867294284 136.46851041098125,46.24742051895009 136.41346209391486,46.21501983946655 136.3584137770813,46.053016389516415 136.19326882634778,45.923413566255476 135.7804064496886,45.79381068688235 134.15648110152688,45.82621141202981 133.7160945662763,45.72900922608096 134.43172268592753,43.655355063587194 135.67030981602147,41.970500463387 135.94555140042212,41.45208175270818 136.79880031209905,40.058827011846006 137.1290902135661,39.41079933816218 137.6520492240088,38.60076277022017 138.2025323929265,37.88792877440574 138.58787061122712,37.20749473798787 138.8355880372692,36.91587967670057 139.05578130483627,36.39745219852193 139.63378863199614,35.81422021074104 139.96407853334676,35.36059454458882 140.04665100877173,35.32819268494495 139.9365543751046,35.10137956906692 139.33102288923692,34.80976245284546 138.89063635410275,34.48574310107506 138.53282229427714,34.35613526208908 138.34015318518505,34.06451741865021 137.81719417474233,33.80530131905107 137.54195259022526,33.837703343771864 136.85384862916544,33.80530131905107 134.45924684440251,33.31927052635001 132.11969337658957,33.06005378026748 131.7068309999304,32.9628474425117 131.3214927816298,32.80083680950338 130.66091297904495,32.86564107320737 129.8076640671352,32.736032531567616 128.87184267991688,32.703630387433805 127.96354545140639,32.541619613737566 127.27544149023015,32.541619613737566 126.94515158887953,32.412010931642726 124.63312227942515,32.25 121.68803732586093,32.28240219329018 120.99993336480111,32.476815279747825 120.17420861136634,32.476815279747825 119.56867712561507,32.5740217755374 119.10076643200591,32.509217448474374 117.28417197463568,32.5740217755374 116.76121296430938,32.67122823977843 116.23825395375025,32.67122823977843 115.19233593286481,32.86564107320737 114.66937692242209,32.736032531567616 113.43078979232814,32.736032531567616 112.4123959299177,32.89804319984978 110.98113969073165,32.99524955864763 110.56827731407247,32.93044532297063 109.5774076100206,33.06005378026748 108.83425533212721,33.06005378026748 108.72415869834367,33.09245588578051 108.53148958913516,33.18966218130663 108.4764412723016,33.2868684453133 108.53148958913516,33.99971341487253 108.4764412723016,34.615350883919746 108.61406206456013,35.19858521121205 108.6415862229187,35.65221112337895 108.69663453986868,35.87902382123866 108.53148958913516,36.624264330923324 108.4764412723016,37.43430625559995 108.55901374761015,38.47115671570646 108.4764412723016,38.95717913057888 108.58653790608514,39.50800357881235 108.55901374761015,40.77165583014721 108.6691103813937,41.387279350543395 108.58653790608514,42.52131935840589 108.6691103813937,43.03973621461773 108.91682780731935,43.72015697389725 108.91682780731935,43.8821616882924 108.83425533212721,44.20617085372214 108.6691103813937,44.530179667810444 108.6415862229187,44.65978309509228 107.89843394502532,44.497778802207904 107.70576483581681,44.75698562868638 107.21032998384908,45.2105970341654 107.3204266175162,46.279821194912074 107.40299909294117,46.40942386360257 107.6782406772254,46.53902647594805 107.92595810326748,46.86303276132094 108.03605473716743,47.446243189886445 108.091103054001,47.964651504385984 108.39386879687663,48.774662695941515 108.42139295535162,49.00146543618757 108.22872384637594,50.07067603661562 108.31129632156808,50.977882031787885 108.31129632156808,51.463884110795334 108.20119968790095,51.72308489657007 108.2562480046181,52.241485793783795 108.17367552930955,52.63028587671579 108.17367552930955,53.440284425218124 108.14615137095097,53.926282500789966 108.20119968790095,54.25028077882598 108.53148958913516,54.93067601977964 108.83425533212721,55.384271986666135 109.2195935503114,55.74066833496909 109.43978681787848,56.03226503112819 109.65998008544557,56.226662670611404 110.29303572955541,56.58305801457027 110.733422264806,57.101450483547524 111.50409870117437,57.78183923495817 111.69676781038288,58.00863514127559 112.0545818702085,58.36502836071304 113.1555482079275,59.23980991615099 113.37574147549458,59.36940696593956 114.55928028863855,59.53140319918748 116.21072979539167,59.59620166782406 118.46771078777965,59.79059698965284 119.15581474883948,59.82299619761761 119.56867712561507,59.88779460306978 119.92649118544068,59.85539540217724 120.42192603740841,59.95259299466852 120.88983673090115,59.82299619761761 121.33022326603532,59.59620166782406 121.82565811800305,59.59620166782406 122.29356881172862,59.69339934451273 122.8715761390049,60.04979055534932 123.36701099108905,60.24418558226898 123.47710762475617,60.30898389645154 123.55968010006472,60.73017259637709 123.55968010006472,61.08656257123221 123.4495834663976,61.79934124625288 123.11929356504697,62.41492146166274 122.98167277267203,62.965702685236465 122.92662445583846,63.87286954710726 122.89910029747989,64.06726208797772 122.81652782217134,64.22925577539718 122.45871376234572,64.65043895205599 122.34861712856218,65.07162153531681 122.3210929700872,65.88158637360903 121.90823059342802,67.20992395817302 121.90823059342802,68.44106083959923 121.66051316738594,69.31581291125622 121.63298900902737,69.5749982186826 121.71556148433592,70.12576625106158 121.63298900902737,70.38495085641625 121.46784405841026,70.67653326876462 121.24765079072677,71.1949012997502 121.22012663236819,71.97245166092762 121.24765079072677,72.231634665397 121.22012663236819,72.36122608324513 121.16507831553463,72.52321527665481 120.86231257254258,72.68520438237465 120.25678108667489,72.75 119.65124960092362,72.62040875057573 118.93562148138881,72.65280656822142 116.07310900301673,72.1992368020874 113.45831395080313,71.90765587479109 112.93535494036041,71.81046216917457 112.19220266235061,71.58367673319299 111.69676781038288,71.35689112509135 110.59580147254746,70.57933916285401 109.05444859957788,69.63979451055638 108.55901374761015,69.28341473196633 108.06357889564242,69.02422917174408 107.43052325129975,68.47345911004231 106.74241929012351,68.01988300328958 106.30203275510576,67.63110293541104 105.44878384331241,67.24232236214448 105.39373552647885,67.14512713972363 105.36621136800386,66.95073660023627 104.98087314981967,66.7239474777889 104.95334899134468,66.59435361629585 105.17354225891177,65.97878200685955 105.28363889257889,65.23361467843642 105.53135631862096,64.19685704499716 105.64145295252092,63.548881698196055 105.80659790325444,63.06289926636964 106.02679117070511,62.25292679108679 106.13688780448865,61.57254821577226 106.30203275510576,60.98936534745735 106.35708107205573,60.568177012813976 106.63232265645638,59.563802435208345 106.71489513188135,59.077813525043894 107.51309572672471,55.93506616403465 107.6782406772254,55.125074375537224 107.76081315265037,55.125074375537224 108.36634463851806,55.060274937713984 108.50396543066017,55.125074375537224 109.19206939183641,55.6758690304996 109.65998008544557,56.226662670611404 110.45818068028893,56.84225436139968 110.89856721553952,57.32824690613779 111.97200939478353,58.33262899474357 112.16467850399204,58.559424483188195 113.32069315866102,59.36940696593956 114.36661117943004,59.499003959528636 115.41252920043189,59.563802435208345 115.9630123693496,59.661000122490805 116.73368880571797,59.62860089694732 118.93562148138881,59.82299619761761 119.320959699573,59.88779460306978 120.11916029453278,59.88779460306978 120.6145951465005,59.79059698965284 120.97240920632612,59.62860089694732 121.08250584010966,59.62860089694732 121.33022326603532,59.466604716319125 122.01832722732797,59.36940696593956 122.8715761390049,59.88779460306978 122.98167277267203,59.98499218505458 123.42205930792261,60.146988084656186 123.6147284170147,60.146988084656186 123.72482505079824,60.01739137197728 124.05511495214887,59.110212810279336 124.3578806950245,58.527025138173485 124.96341218089219,57.61984205368208 125.01846049784217,57.42544532023021 125.01846049784217,56.84225436139968 125.18360544845928,56.226662670611404 125.32122624060139,56.32386144288466 125.45884703285992,56.32386144288466 125.65151614195202,56.42106018352206 125.98180604330264,56.745055757666705 126.72495832142886,57.00425196415745 127.00019990571309,57.00425196415745 127.60573139169719,56.87465388895362 128.29383535275701,57.101450483547524 128.78927020484116,57.166249479021644 130.41319555300288,56.93945293361321 130.99120288027916,56.97185245068977 131.26644446479622,57.166249479021644 131.3214927816298,57.45784478454152 131.34901694010478,58.04103454246069 131.4866377322469,59.175011370214634 131.54168604908045,60.30898389645154 131.62425852462184,60.79497080523288 131.59673436614685,61.70214425440645" stroke="#4dd2ff" stroke-linecap="round" stroke-linejoin="round" stroke-width="0.5"><title>2024-08-16 6.7km</title><desc>12157989761</desc></polyline><polyline fill="none" points="175.41265926137567,32.38150006963406 176.12014408945106,32.51300009666011 176.82762891752645,32.55683342940756 180.6257053629961,32.33766671779449 180.96082975529134,32.38150006963406 181.22148206015117,32.68833339927369 181.33319019107148,34.09099708404392 181.2959541475866,34.879993268608814 181.40766227827407,35.625154918496264 181.55660645244643,36.23881642241031 181.44489832175896,36.80864412803203 181.48213436524384,37.9482971301768 181.40766227827407,38.298958946281346 181.48213436524384,38.56195510874386 181.55660645244643,39.87693335561198 181.55660645244643,41.06041012183414 181.7427866703365,42.11238656198839 181.70555062685162,42.901367096201284 181.7800227140542,43.7341782124422 181.70555062685162,44.084835011395626 181.8172587575391,44.87381169752916 181.7427866703365,45.750450654304586 181.8172587575391,46.32026495732134 181.8917308447417,47.679049670521636 181.85449480102398,48.643345729622524 182.04067501914687,49.826796841429314 182.003438975662,50.87875047783018 182.11514710611664,52.10602626207401 182.04067501914687,52.54433813964715 182.15238314983435,54.29758089923416 182.07791106263176,55.6563388100185 182.18961919331923,56.48912366031436 182.18961919331923,57.23424549394986 182.26409128075466,59.075128844357096 182.22685523703694,60.17088876539492 182.37579941144213,60.6091919025348 182.26409128075466,61.3981363522762 182.4502714984119,63.19517074301257 182.413035454927,64.20325971016428 182.4875075421296,64.86070768293575 182.4502714984119,65.51815458689816 182.5247435856145,65.8687924988044 182.4875075421296,67.66580702606007 182.5247435856145,68.2794199140335 182.5992156730499,68.71771426399937 182.63645171630196,70.55854534782702 182.71092380350456,71.21598299013567 182.5619796293322,72.35553903883556 182.4502714984119,72.48702606870211 182.11514710611664,72.61851305575692 180.58846931927837,72.75 179.43415196845308,72.61851305575692 178.80113922734745,72.35553903883556 177.8702381378971,72.39936805347679 176.15738013316877,72.0925648510165 175.00306278211065,72.0487358031387 172.99231642857194,71.78576141581289 171.50287468521856,71.7419323346694 168.5984632857144,71.25981212838087 167.1834936295636,70.9530080613331 166.02917627850547,70.7776913473208 165.32169145043008,70.73386215686332 164.5769705788698,70.82152053291793 163.3109450971242,70.73386215686332 162.752404443454,70.64620376177481 160.89060226408765,70.6023745572893 160.5554778717924,70.51471613362082 159.9224651309196,70.25174074890674 157.3904141674284,69.98876519332407 156.6084572521504,69.81344806111883 155.3424317704048,69.7257894667855 152.6242005887907,69.28749620908638 152.43802037090063,69.15600813919445 152.28907619649544,68.93686126091052 152.32631224021316,68.54239658109145 152.586964545073,67.31517067205277 152.6614366325084,66.30708946107188 152.81038080668077,65.60581409352017 152.81038080668077,64.72921817388851 152.84761685039848,64.46623902756255 152.81038080668077,63.98411014833255 152.92208893736824,63.01985066613997 153.03379706805572,61.880268314125715 153.44339354755357,60.696852472930914 153.81575398356654,58.68065454621683 154.07640628842637,57.97936595475767 154.22535046283156,57.19041483590263 154.5604748551268,56.620615848427406 154.74665507301688,55.963154480734374 155.00730737810954,55.6563388100185 154.97007133439183,55.4810154652514 155.00730737810954,55.26186117713223 155.1562515522819,54.73589040146908 155.37966781388968,54.16608795581851 155.52861198806204,53.508622597844806 155.8637363803573,52.85115617123665 156.19886077265255,51.88687014521565 156.5339851649478,51.27323238601093 156.75740142632276,50.52809956975398 157.20423394953832,49.47614502115175 157.3159420802258,48.99399827187881 157.76277460320853,47.94203973287949 158.32131525687873,46.84624667814933 158.54473151825368,46.670919513941044 159.17774425935932,46.01344197089202 159.66181282605976,45.26829946329235 160.5182418283075,43.77801032894058 160.7416580899153,43.295856786106015 161.15125456941314,42.68220599112101 161.44914291799068,41.89322502934374 161.70979522285052,41.58639868395403 162.30557192023844,40.49058840752696 162.67793235601857,40.05226346553536 162.93858466134407,39.43860774845234 163.38541718409397,38.781118446815526 164.98656705836765,35.80048687168164 165.43339958111756,35.1429916547786 165.8429960606154,34.39782911664224 166.43877275800332,33.52116554885288 167.1834936295636,32.73216671310365 167.63032615254633,32.60066675741109 171.76352699031122,32.51300009666011 172.13588742609136,32.38150006963406 175.52436739206314,32.33766671779449 176.26908826385625,32.25 178.5777229659725,32.38150006963406 180.77464953740127,32.25 181.10977392969653,32.51300009666011 181.2959541475866,32.951333210774465 181.33319019107148,33.52116554885288 181.2959541475866,34.13483024598099 181.55660645244643,36.28264935131301 181.44489832175896,36.76481125605642 181.63107853988186,39.26327737249085 181.55660645244643,39.78926827228861 181.63107853988186,40.139928491873434 181.59384249616414,40.84124801904545 181.8172587575391,41.717895717622014 181.7427866703365,42.41921250821906 181.7427866703365,43.38352110941196 181.9289668884594,45.18063554857508 181.8917308447417,45.48745916687767 181.9289668884594,45.969610096595716 181.85449480102398,46.670919513941044 181.96620293194428,48.99399827187881 181.9289668884594,49.56380800472107 181.96620293194428,50.13361693470506 181.9289668884594,50.61576232529478 182.15238314983435,52.894987299485365 182.15238314983435,53.24563615536317 182.04067501914687,53.815439897880424 182.11514710611664,54.51673570959247 182.07791106263176,54.911214069405105 181.96620293194428,55.744000453996705 182.18961919331923,56.53295439449721 182.11514710611664,57.146584173024166 182.22685523703694,58.067027095210506 182.33856336772442,60.65302219011937 182.4502714984119,61.09132480469998 182.37579941144213,61.70494766710908 182.5247435856145,62.713040348753566 182.5992156730499,63.58964063812164 182.4502714984119,64.42240915322327 182.5619796293322,66.00028163733077 182.4502714984119,66.92070441049873 182.413035454927,68.58622600891977 182.5619796293322,69.7257894667855 182.5247435856145,70.12025299252127 182.63645171630196,71.78576141581289 182.63645171630196,72.3117100194795 182.413035454927,72.574684064748 181.7427866703365,72.6623420419055 180.4022891013883,72.70617102322285 176.71592078683898,72.224051966361 175.30095113045536,71.91724863089621 172.69442807976156,71.78576141581289 169.8272527239751,71.34747039043577 167.59309010906145,71.17215384737938 166.81113319378346,70.99683722810005 166.14088440942578,70.99683722810005 165.13551123254,70.82152053291793 164.76315079675987,70.86534971391666 164.05566596845165,70.73386215686332 163.2364730099216,70.69003296174924 162.78964048670605,70.55854534782702" stroke="#4dd2ff" stroke-linecap="round" stroke-linejoin="round" stroke-width="0.5"><title>2024-08-05 5.0km</title><desc>12068639381</desc></polyline><polyline fill="none" points="39.47420919127762,81.21892983384896 41.85473926179111,81.0 43.00780851463787,81.26271578643355 43.49135368550196,81.17514387649135 44.19807355012745,81.17514387649135 44.8304018501658,81.08757194777718 45.90907953842543,81.17514387649135 46.057862667832524,81.26271578643355 46.169450014829636,81.52543140191119 46.169450014829636,82.75143534861854 46.39262470905669,83.75850723544136 46.42982049123384,84.45907750201877 46.5042120560538,84.98450440439046 46.46701627387665,85.68507254472934 46.54140783846378,86.29806867067236 46.46701627387665,87.08620518006501 46.54140783846378,87.61162866538507 46.46701627387665,87.87434015181498 46.42982049123384,88.66247358574765 46.5042120560538,91.02686466174782 46.615799403050914,92.03391591765103 46.615799403050914,92.6906871231331 46.76458253245801,93.6977342312457 46.83897409727797,95.05505462200381 46.80177831463516,96.0183114875399 46.72738675028086,96.36858614196535 46.690190967870876,97.11291877395706 46.9133656618651,101.05348044759012 47.06214879127219,101.62266951223137 47.099344573682174,102.10429040214512 46.98775722668506,103.28644833399449 47.02495300909504,103.76806724045309 46.9133656618651,104.55616966704838 46.98775722668506,105.5631871970254 46.95056144450791,106.48263579315972 47.06214879127219,107.44586541134049 47.06214879127219,108.05882851799834 47.24812770308927,109.63501509340131 47.24812770308927,111.64902232447639 47.47130239708349,112.13063126182533 47.620085526723415,112.74358726086211 47.5084981797263,112.83115232762066 47.35971505008638,113.26897737706895 47.28532348549925,114.275973189855 47.43410661490634,115.37053100930643 47.32251926790923,116.72777858722839 47.35971505008638,117.47207371023251 47.620085526723415,119.31091460669995 47.620085526723415,120.75571229710476 47.5084981797263,121.10596550465561 47.35971505008638,121.28109199454775 47.136540355859324,121.41243681212654 45.31394702079706,121.36865521094296 44.49563980894163,121.28109199454775 44.086486203130335,121.10596550465561 43.602941032499075,121.0184022312169 33.002143061719835,119.92385971246404 32.14664006768726,119.66116906673415 31.81187802646309,119.70495085281436 30.844787685200572,120.01142322298256 30.17526360275224,120.0989867146418 28.68743230868131,119.52982367973891 26.344098020344973,119.22335094420123 25.377007679315284,119.00444170515402 24.372721555642784,118.91687797629857 22.996477608568966,118.8730961047695 22.475736655760556,118.69796857109759 20.876318014459684,118.4352771283884 19.834836108610034,118.26014940504683 18.830549984937534,118.21636746221338 18.309809032129124,118.04123964393511 17.67748073209077,117.99745767755667 17.379914473276585,117.73476577928523 17.379914473276585,117.29694556939648 17.64028494991362,116.68399647835759 17.863459643675014,115.89591770942206 17.789068079087883,113.57545462925918 17.863459643675014,112.6122396250721 18.012242773314938,111.38632629846688 18.012242773314938,110.99228193931049 18.0866343381349,110.29175768510322 18.309809032129124,109.89771225818549 18.458592161536217,109.503666447039 19.05372467916459,106.2637196504802 19.314095155801624,105.43183722678805 19.61166141438298,104.9502203038428 19.797640326200053,104.11833517538616 19.834836108610034,103.85563425268629 20.020815020427108,103.24266476853518 20.504360190825537,102.19185777503299 20.72753488505259,101.84158816968556 21.17388427327387,100.52807444520295 21.62023366149515,99.65239625619142 21.992191485129297,98.64536399231292 22.21536617935635,97.55076085813926 22.438540873350576,97.1567030036822 22.959281826391816,96.4123704523081 23.25684808497317,96.10588017958798 23.889176385244355,94.79234780545812 24.521504685282707,93.91665718326112 27.088013667613268,89.5819606486184 28.055104008875787,88.22462186779012 28.389866049867123,87.43648757963092 29.468543738126755,85.72885801305529 29.840501561760902,85.20343207876431 30.2496551675722,84.19636379441363 30.435634079389274,83.88986425299663 30.621612990973517,83.45200736174593 31.551507550058886,82.22600554145174 31.81187802646309,81.78814684660756 31.923465373460203,81.65678914572345 32.555793673498556,81.43785954907071 33.59727557934821,81.35028767731274 34.15521231479943,81.43785954907071 35.90341408527456,81.48164547793567 37.056483338354155,81.17514387649135 37.540028508985415,81.17514387649135 38.507118850015104,81.39407361554913 38.99066402064636,81.26271578643355 39.9205585794989,81.13135791456443 41.743151914794,81.13135791456443 42.22669708542526,81.17514387649135 42.82182960305363,81.13135791456443 43.86331150890328,81.17514387649135 44.644422938348725,81.08757194777718 45.87188375601545,81.13135791456443 46.057862667832524,81.21892983384896 46.28103736205958,81.52543140191119 46.2438415796496,82.75143534861854 46.39262470905669,83.10172150714789 46.35542892664671,83.23307873820886 46.39262470905669,83.62715017519076 46.35542892664671,83.933649915969 46.54140783846378,84.94071885533049 46.42982049123384,85.59750159361283 46.46701627387665,87.65541392503656 46.5042120560538,87.74298442999134 46.5042120560538,88.09326625987887 46.578603620873764,88.18083666995517 46.578603620873764,88.57490328029962 46.5042120560538,89.31925027284888 46.652995185460895,90.45766066756914 46.54140783846378,91.28957392697339 46.615799403050914,92.95339530639467 46.76458253245801,94.70477882877458 46.72738675028086,95.18640796624823 46.83897409727797,95.71182091586525 46.80177831463516,96.45615475811064 46.9133656618651,97.02535030030413 46.87616987968795,99.30212444916833 46.95056144450791,99.82753204583423 46.9133656618651,101.31618319242261 46.98775722668506,101.88537188703776 46.9133656618651,102.4983434304595 47.02495300909504,103.19888119844836 46.98775722668506,104.55616966704838 47.06214879127219,105.38805389383924 46.98775722668506,106.3512861217605 47.099344573682174,106.96425088919932 47.099344573682174,107.79613015754148 47.24812770308927,110.81715098951827 47.21093192091212,111.12363010161789 47.35971505008638,111.38632629846688 47.24812770308927,112.65602217512787 47.32251926790923,113.92571406133357 47.39691083249636,114.49488499099971 47.32251926790923,115.06405511879711 47.39691083249636,115.72078888531541 47.35971505008638,116.90290697483579 47.43410661490634,117.29694556939648 47.35971505008638,117.8223297643417 47.47130239708349,118.39149520464707 47.582889744313434,119.57360548016732 47.5084981797263,121.10596550465561 47.28532348549925,121.36865521094296 45.46273015020415,121.5 44.53283559135161,121.36865521094296 44.049290420953184,121.14974713412812 43.677332597086206,121.06218387023546 42.41267599724233,120.974620587338 37.46563694416545,120.36167707573622 36.572938167722896,120.40545878603007 34.22960387938656,120.0989867146418 32.518597891088575,120.0552049712569 31.960661155870184,119.88007794995792 30.77039612061344,119.83629618273699 30.398438296979293,119.74873263415066 27.68314618524164,119.74873263415066 27.050817885203287,119.66116906673415" stroke="#4dd2ff" stroke-linecap="round" stroke-linejoin="round" stroke-width="0.5"><title>2024-08-01 5.0km</title><desc>12035805770</desc></polyline><polyline fill="none" points="85.44989616679959,81.043833361211 86.3807973570656,81.1753334167006 87.19999040476978,81.13150006969227 88.42877997620963,81.30683342934935 90.66294283326715,81.0876667178236 91.07253935700282,81.1753334167006 91.18424750003032,81.3506667574693 91.33319169050083,82.31499877251917 91.29595564282499,83.49849401146639 91.48213588097133,84.85731760691851 91.40766378561966,86.08463822022895 91.55660797609016,87.96944476652425 91.593844023766,90.11723686612095 91.66831611911766,90.73088965655188 91.66831611911766,92.13352110929554 91.78002426191233,93.31698761341977 91.85449635679834,95.99073251968366 91.96620449982584,96.82353469973896 91.92896845238283,99.71641315717716 92.0034405477345,100.33005138181034 92.0406765951775,101.51349389995448 92.0406765951775,103.6173831593187 91.96620449982584,104.49400045385119 92.07791264285333,105.19529292127118 91.96620449982584,106.68553537721164 92.18962078541517,107.69363745421288 92.30132892844267,108.92088876513299 92.45027311891317,109.75366431957809 92.41303707123734,110.63026831386378 92.56198126194067,111.3315501413017 92.56198126194067,111.90134073075023 92.41303707123734,113.26006889686687 92.52474521403201,115.84602279632236 92.45027311891317,116.45963654870866 92.487509166589,116.81027256074594 92.45027311891317,117.11707882187329 92.56198126194067,118.3443015392113 92.52474521403201,118.91408224933548 92.63645335705951,119.96598299013567 92.63645335705951,121.06171001933399 92.487509166589,121.28085506902426 92.22685683332384,121.41234204173088 91.03530330955982,121.5 89.80651373811997,121.36851305566961 88.9873206904158,121.14936805344769 85.44989616679959,120.75490675040055 84.55623102374375,120.57959049215424 82.69442864297889,120.49193233458209 79.15700411936268,120.09747039034846 77.92821454792283,120.22895774777862 77.10902150021866,120.18512863342767 75.61957959551364,120.31661596248159 74.80038654780947,120.18512863342767 73.94395745266229,120.18512863342767 72.93858416704461,119.96598299013567 71.7470306432806,119.83449554714025 71.07678178604692,119.48386215683422 70.40653292904608,119.35237455705646 69.06603521481156,119.35237455705646 67.80000959569588,118.87025299246307 66.12438745284453,118.65110663676751 64.150876929285,118.30047222055146 63.85298854811117,118.30047222055146 63.44339202414267,118.16898423616658 62.661435024347156,118.08132555612247 62.43801873875782,117.949837500375 62.36354664317332,117.81834940199042 62.400782691081986,117.38005543182953 62.54972688131966,117.11707882187329 62.62419897667132,116.63495459276601 62.69867107179016,115.01325978606474 62.81037921481766,114.48730331729166 62.81037921481766,112.07666075063753 62.99655945296399,111.59453051301534 63.10826759575866,110.58643815934192 63.33168388158083,109.88515503986855 63.48062807205133,109.14004039316205 63.36891992902383,108.52641553568537 63.406155976699665,108.13194192142691 63.55510016717017,107.60597650380805 63.92746064346284,107.03617986288737 64.74665369093418,104.31867714691907 64.97006997675635,103.96803030505544 65.11901416699402,103.31056665736833 65.41690254816785,102.65310194069752 65.52861069096252,102.25862259772839 67.12976073869504,98.66445974871749 67.68830145266838,96.95502962396131 68.13513402431272,96.29755457499414 68.35855030990206,95.81540552646038 69.02879916713573,94.89493756479351 69.51286778599024,94.32512301480165 70.18311664322391,92.96633123242646 70.59271316695958,92.39651396495174 70.55547711928375,92.39651396495174 71.78426669095643,90.24873397106421 72.4917515956331,89.19675593456486 73.08752835751511,88.0571099735098 74.46526211919263,85.8216412596521 75.58234354783781,83.71765941634658 76.51324473833665,82.31499877251917 76.96007730974816,81.78899977658875 77.51861802418716,81.52600002218969 77.890978500247,81.43833339930279 80.9815704524517,81.30683342934935 81.65181930968538,81.3506667574693 82.65719259553589,81.2630000965728 83.62532983347774,81.30683342934935 84.59346707141958,81.1753334167006 85.78502059541643,81.1753334167006 86.82762992870994,81.0 87.75853111897595,81.0876667178236 88.20536369038746,81.043833361211 90.06716607138515,81.0876667178236 90.84912307141349,81.043833361211 91.10977540491149,81.1753334167006 91.29595564282499,81.52600002218969 91.29595564282499,83.41082781623118 91.48213588097133,84.85731760691851 91.4448998332955,85.47097837927868 91.55660797609016,87.26812242675805 91.55660797609016,88.10094256981392 91.51937192864716,88.32010548037942 91.593844023766,88.9775934991194 91.593844023766,90.07340448838659 91.66831611911766,90.73088965655188 91.63108007144183,91.38837375570438 91.66831611911766,92.04585678590229 91.63108007144183,92.35268183427979 91.81726030958816,93.5361476970429 91.7427882142365,94.7634419707174 91.81726030958816,95.37708771080361 91.891732404707,95.59624667800381 91.85449635679834,96.16605943685863 91.92896845238283,96.56054472288815 91.891732404707,96.82353469973896 92.0034405477345,97.21801934417454 91.96620449982584,98.83978550683241 91.85449635679834,99.45342506168527 91.92896845238283,100.3738826480112 91.891732404707,100.85602626181208 92.0406765951775,101.64498729922343 92.0034405477345,102.25862259772839 92.0406765951775,103.74887587458943 92.0034405477345,104.71315448055975 92.07791264285333,105.45827728309087 92.0406765951775,105.80892283291905 92.11514869029634,106.55404361663386 92.11514869029634,107.43065454592579 92.26409288099967,108.30726357517415 92.26409288099967,109.18387070443714 92.18962078541517,109.97281549626496 92.3385649761185,111.68219059909461 92.22685683332384,112.6464502903109 92.37580102379434,113.65453750951565 92.3385649761185,114.39964383936604 92.487509166589,115.8898523808748 92.37580102379434,116.81027256074594 92.487509166589,118.65110663676751 92.41303707123734,119.39620376177481 92.63645335705951,120.84256485090009 92.52474521403201,121.19319706349052 92.41303707123734,121.3246840647771 91.78002426191233,121.5 89.91822188091464,121.45617102325195 88.24259973806329,121.14936805344769 86.90210202382877,120.97405196624459 86.41803340474144,121.01788099526311 85.48713221447542,120.75490675040055 85.22647988097742,120.75490675040055 83.36467750021257,120.49193233458209 82.47101235715672,120.49193233458209 80.01343321450986,120.09747039034846 79.52936459542252,120.09747039034846 79.04529597633518,120.14129951430368 77.7792703572195,120.09747039034846 77.18349359557033,120.00981212823535 76.69942497625016,120.00981212823535 76.06641216692515,119.79066638991935 75.65681564295664,119.74683722795453 73.94395745266229,119.92215384714655 73.12476440495811,119.87832469964633 71.9332108811941,119.61534971377114 70.96507364325225,119.65917888985132 70.40653292904608,119.35237455705646" stroke="#4dd2ff" stroke-linecap="round" stroke-linejoin="round" stroke-width="0.5"><title>2024-07-29 5.1km</title><desc>12014148662</desc></polyline><polyline fill="none" points="130.77676465641707,81.26214900624473 131.51907538808882,81.39322344542597 133.96870080195367,81.34953197048162 135.67601548461244,81.17476602303213 136.01005531381816,81.30584049067693 136.23274853313342,81.65537219593534 136.30697960639372,82.13597779566771 136.26986406953074,83.1845698422112 136.3812106794212,83.75255606180872 136.3812106794212,84.49530606434564 136.60390389873646,85.28174575167941 136.49255728907883,86.2866386747337 136.60390389873646,86.98569314362248 136.5667883621063,89.56344601968885 136.71525050862692,90.56832826841855 136.67813497199677,92.01011146698147 136.82659711828455,93.62665013264632 136.82659711828455,95.81115154354484 136.86371265468188,96.94708759873174 136.82659711828455,97.29660574087757 136.97505926457234,98.56360646593384 137.04929033783264,100.35487655809266 136.97505926457234,101.27235327888047 137.08640587422997,102.10244946493185 137.0121748012025,103.89370383205824 136.97505926457234,104.24321595134097 137.04929033783264,105.24806160587468 137.0121748012025,105.81601673760451 137.1977524838876,107.12667937218794 137.12352141086012,108.39364920157823 137.3462146304082,109.18004226544872 137.4204457034357,109.70430345574277 137.38333016703837,111.7139650361205 137.494676776696,112.63141590499436 137.3462146304082,113.46148870172328 137.4204457034357,113.9420563816675 137.38333016703837,114.20418396574678 137.45756124006584,114.99056569524691 137.45756124006584,116.47594922137796 137.60602338658646,117.04388853508863 137.45756124006584,118.22345224552555 137.494676776696,118.96613873701426 137.60602338658646,119.27195042424137 137.5689078499563,120.0583222687419 137.68025445961393,120.88837977388175 137.64313892298378,121.1505028415122 137.494676776696,121.28156431144453 136.75236604502425,121.5 135.00793582596816,121.45631287174183 134.5254338507075,121.28156431144453 134.22850955813192,121.3252514586784 130.55407143686898,120.71363096754067 127.17655760864727,120.49519485287601 126.21155365766026,120.36413312738296 124.467123438837,120.2767586199625 123.13096412201412,120.01463498422527 122.3144223173149,119.92726040107664 121.75768926856108,119.92726040107664 121.34941836632788,120.0583222687419 120.56999209825881,119.97094769511023 120.19883673242293,120.01463498422527 119.19671724480577,120.0583222687419 117.45228702598251,119.6651365380676 117.08113166037947,119.70882386047742 116.22747431905009,119.49038720151293 114.85419946559705,119.4466998554708 114.11188873415813,119.18457568014855 113.40669353911653,119.09720091708004 112.96130710025318,118.87876392676844 112.55303619801998,118.79138909745961 110.02917971066199,118.48557704585255 109.47244666214101,118.3545146670076 107.91359412600286,118.22345224552555 107.72801644308493,118.17976476228796 107.43109215050936,117.96132727476652 107.3197455406189,117.56813949919888 107.43109215050936,116.95651330816327 107.76513197971508,116.25751081079943 107.91359412600286,115.68957038928056 107.95070966263302,114.90319002329488 107.87647858937271,114.29155978924246 107.91359412600286,113.76730456444784 107.76513197971508,112.76248014435987 107.98782519903034,111.27708293599426 109.06417575990781,107.43250004039146 109.32398451585323,106.078149605426 109.80648649134673,104.81117249862291 110.1034107839223,103.6752586037328 110.43745061312802,103.15098957260489 111.25399241782725,101.0102172860934 111.58803224703297,99.61215577853727 111.92207207623869,99.08788146311417 112.47880512475967,97.82088238603319 112.96130710025318,96.3791199712723 113.2211158561986,95.94222125166561 113.74073336832225,95.33056224885513 114.48304409976117,94.1072414588125 115.33670144109055,92.88391695611062 115.89343448984437,91.83535014165682 116.48728307476267,90.96154237934388 117.08113166037947,89.69451775948983 117.74921131832525,88.90808668182581 118.26882883044891,87.90320029409486 119.08537063538097,86.76723875233438 119.64210368390195,85.80603802407859 120.23595226905309,84.45161492572515 120.56999209825881,84.10208564531058 120.79268531757407,83.70886484248331 121.2009562200401,82.7039654928958 121.38653390295804,82.35443469687016 121.79480480519123,81.87382935770438 122.0917290977668,81.61168074930902 122.72269321954809,81.39322344542597 124.31866129231639,81.4369149156264 126.10020704800263,81.26214900624473 127.13944207224995,81.34953197048162 129.29214319353923,81.21845751701039 130.962342339335,81.0 132.15003950963728,81.13107452442637 133.44908329006284,81.13107452442637 133.70889204577543,81.08738302101847 135.56466887472197,81.17476602303213 135.78736209427007,81.13107452442637 136.1585174598731,81.34953197048162 136.23274853313342,81.61168074930902 136.26986406953074,81.91752077583806 136.19563299650326,82.79134814452846 136.4554417526815,84.01470327781863 136.4554417526815,84.58268832752947 136.60390389873646,85.10698150933604 136.49255728907883,85.71865602603066 136.49255728907883,86.81092964010895 136.5667883621063,87.85950952483108 136.52967282570899,88.60225195955718 136.5667883621063,89.65082718426129 136.67813497199677,90.26249480579281 136.64101943559945,91.13630408339668 136.75236604502425,91.96642114268616 136.67813497199677,93.58295998367248 136.75236604502425,93.71403041644953 136.71525050862692,94.7189023179235 136.78948158188723,95.11211238009855 136.75236604502425,95.59270193523844 136.78948158188723,96.64125897572376 136.86371265468188,97.20922623385559 136.93794372817501,98.56360646593384 137.04929033783264,99.3063291774888 136.93794372817501,100.09273996867705 136.97505926457234,101.14128530377639 137.12352141086012,102.05876023464953 137.08640587422997,103.45681325695477 136.97505926457234,104.19952695292886 137.0121748012025,104.68010567410965 137.0121748012025,105.29175049066544 137.08640587422997,105.72863907707506 137.23486802051775,107.95676350328722 137.1977524838876,108.52471481877728 137.27198355738074,108.83053442646633 137.1977524838876,109.57323822201579 137.27198355738074,110.01012216854724 137.3462146304082,111.5829004557163 137.53179231309332,112.50035162302083 137.30909909377806,114.72843862249283 137.53179231309332,116.69438751370762 137.53179231309332,118.87876392676844 137.64313892298378,119.6651365380676 137.5689078499563,120.18938409365364 137.60602338658646,120.84469257929595 137.5689078499563,121.10681567538995 137.38333016703837,121.28156431144453 136.5667883621063,121.45631287174183 135.4162067284342,121.41262573868153 135.15639797248878,121.3252514586784 134.7852426066529,121.36893860108103 134.37697170418687,121.3252514586784 134.00581633858383,121.23787715955405 132.7067725583911,121.06312850455288 131.77888414403424,120.84469257929595 130.33137821755372,120.75731817618362 129.25502765690908,120.75731817618362 128.6240635351278,120.62625653587747 125.72905168216676,120.23307135910727 124.72693219454959,120.23307135910727 122.12884463439696,119.88357310259016 121.49788051261567,120.01463498422527 120.60710763465613,120.01463498422527 119.75345029355958,120.1020095484273 118.52863758662716,120.0583222687419 117.48940256261267,119.75251117802691 117.00690058688633,119.53407454272383" stroke="#4dd2ff" stroke-linecap="round" stroke-linejoin="round" stroke-width="0.5"><title>2024-07-27 5.1km</title><desc>11997575827</desc></polyline><polyline fill="none" points="187.75,86.94790729880333 147.25,115.55209270119667" stroke="#4dd2ff" stroke-linecap="round" stroke-linejoin="round" stroke-width="0.5"><title>2024-05-09 8.0km</title><desc>9223370321595310162</desc></polyline><polyline fill="none" points="12.25,143.72715498134494 20.776315793395042,147.49086439795792 15.447368420660496,141.2180146900937 38.89473684132099,155.01827956177294 52.75,158.7819853099063 44.22368421405554,157.5274168625474 15.447368420660496,152.50914171803743" stroke="#4dd2ff" stroke-linecap="round" stroke-linejoin="round" stroke-width="0.5"><title>2024-05-08 6.2km</title><desc>9223370321684028463</desc></polyline><polyline fill="none" points="77.50000002980232,129.75 71.2443999350071,170.25 83.75560007989407,155.52273286134005 83.75560007989407,159.20455024763942" stroke="#4dd2ff" stroke-linecap="round" stroke-linejoin="round" stroke-width="0.5"><title>2024-05-07 6.1km</title><desc>9223370321771754451</desc></polyline><polyline fill="none" points="162.58488619327545,129.75 187.16045525670052,170.25 147.83954474329948,170.25" stroke="#4dd2ff" stroke-linecap="round" stroke-linejoin="round" stroke-width="0.5"><title>2024-05-02 6.8km</title><desc>9223370322200251369</desc></polyline><polyline fill="none" points="12.25,202.85979942325503 52.75,194.64020057674497 40.18103448301554,199.57196042127907 51.353448271751404,202.85979942325503" stroke="#4dd2ff" stroke-linecap="round" stroke-linejoin="round" stroke-width="0.5"><title>2024-04-30 5.3km</title><desc>9223370322373916531</desc></polyline><polyline fill="none" points="57.25,195.93472626793664 58.97204724373296,197.81166023784317 62.41614173189737,197.0608872602461 63.75551181100309,198.11196920106886 78.29724409431219,185.57395923056174 93.92322834627703,185.72411638125777 96.98464566911571,188.80233079823665 97.62244094465859,207.19625380076468 93.92322834627703,211.5506620311644 76.12874015746638,211.70081355096772 73.13110236194916,209.89899316593073 63.30905511765741,209.44853733747732 62.73503936990164,199.76366617128951 65.3499999998603,196.3851908846409 78.48858267674223,185.57395923056174 93.73188976361416,185.72411638125777 96.6657480315771,188.65217431494966 97.62244094465859,192.25592093379237 97.23976377933286,208.32239648437826 93.47677165316418,211.85096503788373 76.57519685011357,211.85096503788373 73.51377952727489,209.9740691089537 62.543700787005946,208.99808121594833 63.11771653499454,199.0128953094245 77.40433070831932,185.94935204647481 94.36968503892422,185.87427349953214 97.62244094465859,190.07865959370974 97.30354330688715,206.5205673117889 96.92086614132859,208.6977769721998 93.60433070850559,211.77588929852936 76.57519685011357,211.62573779502418 73.13110236194916,209.8239172147005 63.436614172998816,209.37346133746905 62.41614173189737,207.64671109378105 62.607480314560235,201.7156666041701 63.11771653499454,199.2381266534212 77.59566929121502,186.09950911585474 93.60433070850559,185.6490378099843 96.98464566911571,188.7272525606677 97.30354330688715,208.24732036248315 93.79566929116845,211.70081355096772 92.13740157475695,211.85096503788373 77.21299212588929,211.92604076943826 73.4499999997206,210.04914504371118 63.500393700553104,209.44853733747732 62.2248031492345,205.3944216988748 62.671259842347354,203.14212498022243 63.69173228321597,202.76674148184247 62.543700787005946,202.541511285468 62.607480314560235,201.03997476940276 65.28622047207318,196.76057784131262 78.10590551164933,185.94935204647481 94.68858267716132,186.39982315682573 97.43110236222856,189.62819087563548 97.55866141733713,207.04610130458605 93.98700787359849,211.2503588940017 76.06496062967926,211.85096503788373 71.2177165353205,209.67376528825844 63.69173228321597,209.44853733747732 62.671259842347354,208.32239648437826 62.47992125968449,201.7156666041701 63.30905511765741,198.71258673683042 77.59566929121502,185.94935204647481 94.0507874013856,186.024430585152 97.23976377933286,189.5531127275899 97.75,195.4091838450986 97.30354330688715,206.74579621461453 94.11456692917272,211.4005104788812 76.00118110212497,211.85096503788373 73.19488188950345,209.89899316593073 63.11771653499454,209.2983853293117 63.30905511765741,198.9378181786742" stroke="#4dd2ff" stroke-linecap="round" stroke-linejoin="round" stroke-width="0.5"><title>2024-04-27 9.8km</title><desc>1714200483443</desc></polyline><polyline fill="none" points="102.25,194.90784849203192 102.88380281697027,197.0714661135571 104.15140845067799,197.96675417444203 106.11619718302973,197.74293226841837 107.5739436619915,197.2206808712217 108.46126760565676,197.96675417444203 110.4260563380085,197.14607349637663 112.64436619728804,195.5047092048917 113.21478873258457,194.60941794147948 114.48239436629228,193.63951775885653 117.65140845091082,190.5059847519151 119.61619718326256,188.7153880575206 122.08802816923708,186.25330999691505 125.57394366222434,185.65644126193365 130.0739436619915,185.73104988213163 131.848591549322,185.35800670046592 133.49647887330502,185.88026709819678 137.74295774661005,185.95487569412217 139.32746478868648,186.17870143335313 141.92605633824132,189.01382116321474 142.5598591552116,192.74422406993108 142.5598591552116,196.92225132341264 142.5598591552116,201.47328786825528 142.5598591552116,205.80047503806418 141.92605633824132,208.7101200815523 138.8838028172031,211.6197528266348 134.57394366175868,211.84357022069162 130.32746478868648,211.76896443084115 125.44718309887685,211.99278177629458 121.20070422557183,211.76896443084115 119.17253521131352,210.5006647647824 116.19366197171621,209.67999902978772 111.82042253552936,209.67999902978772 108.46126760565676,209.5307869730168 107.89084507059306,208.63551395206014 107.51056338031776,204.00991812895518 107.89084507059306,199.90654097840888 108.71478873258457,198.56361223495333 110.48943661991507,196.54921420686878 112.39084507082589,195.43010164395673 115.81338028167374,192.74422406993108 118.79225352127105,189.8345115375123 121.77112676086836,186.92478670499986 123.54577464796603,185.80565849429695 128.04577464796603,185.95487569412217 131.46830985927954,186.4025270997663 132.48239436629228,186.17870143335313 135.1443661970552,185.95487569412217 138.69366197218187,185.95487569412217 140.2147887328174,187.07400366233196 142.3697183104232,190.28216042008717 142.62323943688534,194.68402559141396 142.3697183104232,198.26518326933729 142.5598591552116,201.92092918162234 142.6866197185591,206.47193267813418 140.7852112678811,209.97842304664664 138.44014084502123,211.918176002393 133.49647887330502,211.99278177629458 130.0105633805506,212.06738754210528 125.89084507059306,211.99278177629458 121.64436619728804,211.918176002393 118.98239436629228,210.4260588293546 117.14436619728804,209.97842304664664 115.49647887353785,210.20224097423488 110.80633802805096,209.7546050461824 108.39788732421584,209.7546050461824 107.44718309864402,208.63551395206014 107.44718309864402,204.3083446038654 108.08098591538146,199.6081125952769 109.8556338029448,197.74293226841837 112.0739436619915,195.72853183862753 114.73591549275443,193.63951775885653 117.58802816900425,190.5059847519151 121.0105633805506,187.5216543400893 123.29225352127105,185.88026709819678 128.2359154932201,185.73104988213163 130.70774647896178,185.95487569412217 132.48239436629228,185.88026709819678 137.36267605633475,185.73104988213163 139.32746478868648,186.10409286170034 142.1795774649363,189.3868623637827 142.6866197185591,192.14736096333945 142.30633802851662,195.952354399662 142.49647887353785,196.99685872264672 142.30633802851662,201.69710856146412 142.24295774661005,206.6211453981232 141.86267605633475,208.78472620312823 139.70774647896178,210.8736943207914 138.56690140860155,211.84357022069162 133.87676056381315,211.918176002393 130.51760563394055,211.84357022069162 126.27112676063552,211.694358632667 121.64436619728804,211.694358632667 118.72887323936448,210.20224097423488 117.14436619728804,209.8292110543698 113.84859154955484,209.60539300536038 109.15845070430078,209.5307869730168 107.82746478891931,208.7101200815523 107.5739436619915,205.2782297540689 107.76408450701274,201.84632231621072 109.8556338029448,197.74293226841837 112.45422535203397,196.2507843679632 114.92605633824132,193.71412551385583 115.55985915497877,192.8934397653211 117.5246478873305,191.10284928168403 119.55281690158881,189.01382116321474 122.6584507045336,186.32791855244432 124.55985915497877,185.88026709819678 127.03169014095329,186.10409286170034 130.20070422557183,185.95487569412217 131.848591549322,186.32791855244432 135.27112676086836,185.88026709819678 138.56690140860155,185.88026709819678 140.84859154955484,187.7454795697704 142.49647887353785,190.13294415804558 142.3697183104232,194.68402559141396 142.30633802851662,198.0413614604622 142.43309859163128,202.3685702039511 142.3697183104232,206.6211453981232 142.24295774661005,208.3370893530664 140.34154929616489,210.35145288560307 137.1091549298726,211.918176002393 133.49647887330502,211.99278177629458 129.82042253529653,211.99278177629458 126.58802816923708,212.1419932995923 123.92605633847415,211.99278177629458 122.27816901425831,211.99278177629458 119.55281690158881,211.09751195757417 116.82746478891931,209.8292110543698 114.54577464819886,209.5307869730168 111.75704225362279,209.30696882680058 108.65140845067799,209.5307869730168 107.89084507059306,208.85933231632225 107.38380281697027,205.5020492100739 107.82746478891931,203.26385137543548 108.84154929569922,202.89081769547192 108.08098591538146,202.89081769547192 107.76408450701274,201.1748601643485 109.41197183099575,198.1159687381005 110.4260563380085,196.92225132341264 112.13732394389808,195.87774688727222 114.54577464819886,193.8633409991744 116.89084507059306,191.92353716492653 118.91901408461854,189.75990336219547 121.96126760565676,186.85017821425572 123.16549295792356,186.17870143335313 127.34859154932201,186.0294842820149 130.897887323983,186.32791855244432 131.848591549322,186.47713563893922 134.82746478891931,186.17870143335313 138.44014084502123,186.0294842820149 141.16549295792356,188.26773815625347 142.5598591552116,192.0727530386066 142.62323943688534,196.47460675914772 142.49647887353785,200.80182535218773 142.43309859163128,205.0544102253043 142.1795774649363,208.03866462485166 138.94718309864402,211.32132952136453 134.63732394366525,211.6197528266348 130.51760563394055,211.54514701251173 126.33450704230927,211.4705411902396 124.05281690158881,211.694358632667 121.13732394366525,211.918176002393 118.2852112678811,210.12763500656 113.97535211290233,209.7546050461824 109.8556338029448,209.67999902978772 108.39788732421584,209.30696882680058 107.82746478891931,208.41169551492203 107.70070422510616,204.23373799724504 107.63732394389808,201.84632231621072 108.14436619728804,199.30968408263288 110.299295774661,197.2952882378595 112.58098591538146,194.9824561093119 115.75000000023283,192.37118468870176 119.23591549298726,189.46147057955386 122.15140845067799,186.6263526933035 123.2288732395973,185.95487569412217 127.47535211290233,186.10409286170034 131.91197183122858,186.4025270997663 135.01760563394055,186.17870143335313 139.01056338031776,186.25330999691505 141.22887323936448,188.49156314315042 142.1795774649363,189.75990336219547 142.49647887353785,192.44579258118756 142.6866197185591,195.57931675750297 142.49647887353785,199.98114805406658 142.49647887353785,204.08452475990634 142.24295774661005,206.8449644173961 141.67253521131352,208.78472620312823 139.5809859156143,211.172117820126 136.9823943665251,211.76896443084115 132.67253521131352,211.918176002393 127.79225352127105,211.84357022069162 124.05281690158881,211.694358632667 121.07394366222434,211.918176002393 119.17253521131352,210.35145288560307 116.1302816902753,209.67999902978772 111.31338028190657,209.45618093229132 108.77816901402548,209.60539300536038 107.82746478891931,208.93393842177466 107.76408450701274,206.24811353744008 107.76408450701274,202.0701428882312 108.46126760565676,199.0858626132831" stroke="#4dd2ff" stroke-linecap="round" stroke-linejoin="round" stroke-width="0.5"><title>2024-04-27 10.1km</title><desc>9223370322649067555</desc></polyline><polyline fill="none" points="167.50000001490116,195.34473817422986 179.0714285671711,195.34473817422986 164.60714285075665,202.1552618239075 147.25,195.34473817422986 187.75,202.1552618239075 155.92857141792774,202.1552618239075" stroke="#4dd2ff" stroke-linecap="round" stroke-linejoin="round" stroke-width="0.5"><title>2024-04-26 5.2km</title><desc>9223370322713802999</desc></polyline></svg>