<?xml version="1.0" encoding="utf-8" ?>
<svg baseProfile="full" height="300mm" version="1.1" viewBox="0,0,200,300" width="200mm" xmlns="http://www.w3.org/2000/svg" xmlns:ev="http://www.w3.org/2001/xml-events" xmlns:xlink="http://www.w3.org/1999/xlink"><defs /><rect fill="#222222" height="300" width="200" x="0" y="0" /><text fill="#FFFFFF" style="font-size:12px; font-family:Arial; font-weight:bold;" x="10" y="20">Over 3km Runs</text><text fill="#FFFFFF" style="font-size:4px; font-family:Arial" x="10" y="280">ATHLETE</text><text fill="#FFFFFF" style="font-size:9px; font-family:Arial" x="10" y="290">L</text><text fill="#FFFFFF" style="font-size:4px; font-family:Arial" x="120" y="280">STATISTICS</text><text fill="#FFFFFF" style="font-size:3px; font-family:Arial" x="120" y="285">Number: 15</text><text fill="#FFFFFF" style="font-size:3px; font-family:Arial" x="120" y="290">Weekly: 5.0</text><text fill="#FFFFFF" style="font-size:3px; font-family:Arial" x="141" y="285">Total: 85.8 km</text><text fill="#FFFFFF" style="font-size:3px; font-family:Arial" x="141" y="290">Avg: 5.7 km</text><text fill="#FFFFFF" style="font-size:3px; font-family:Arial" x="167" y="285">Min: 3.0 km</text><text fill="#FFFFFF" style="font-size:3px; font-family:Arial" x="167" y="290">Max: 10.1 km</text><polyline fill="none" points="55.599999994039536,34.930528613738716 48.400000005960464,40.58074940275401 44.79999999701977,46.23096774145961 38.79999999701977,49.056075987406075 32.79999999701977,54.70629065018147 35.19999999552965,66.00671262852848 31.600000001490116,64.59416041523218 24.399999991059303,58.94395004119724 23.19999999552965,63.18160805106163 28.0,68.83181658945978 26.799999997019768,63.18160805106163 13.599999994039536,58.94395004119724 24.399999991059303,60.356502862647176 18.399999991059303,61.769055533222854 12.399999998509884,66.00671262852848 50.80000000447035,46.23096774145961 44.79999999701977,73.0694713871926 30.399999998509884,64.59416041523218 24.399999991059303,61.769055533222854 31.600000001490116,56.11884393543005 25.599999994039536,51.88118362426758 31.600000001490116,60.356502862647176" stroke="#4dd2ff" stroke-linecap="round" stroke-linejoin="round" stroke-width="0.5"><title>2024-05-09 8.0km</title><desc>9223370321595310162</desc></polyline><polyline fill="none" points="78.39999999850988,43.82962463237345 105.55428571254015,59.81164566334337 121.60000000149012,64.17037536762655 111.72571428865194,62.71746562235057" stroke="#4dd2ff" stroke-linecap="round" stroke-linejoin="round" stroke-width="0.5"><title>2024-05-08 6.2km</title><desc>9223370321684028463</desc></polyline><polyline fill="none" points="49.111562326550484,85.48236533580348 46.952767711132765,88.87060705712065 41.91558026522398,88.87060705712065 38.31758923456073,89.71766725648195 36.15879461541772,93.10590713936836 33.28040178865194,95.6470860899426 49.83116053789854,80.39999999990687 39.75678564608097,92.25884730694816 18.16883946210146,123.60000000009313" stroke="#4dd2ff" stroke-linecap="round" stroke-linejoin="round" stroke-width="0.5"><title>2024-05-05 4.5km</title><desc>9223370321934722240</desc></polyline><polyline fill="none" points="98.77668444812298,117.84000811632723 79.20363550633192,123.59999999962747 96.33005332201719,97.68001685850322 120.79636450111866,80.3999999994412 113.45647113770247,90.48001256398857 95.10673777014017,102.00001755543053 96.33005332201719,109.200015604496 91.43679109215736,103.44001748040318" stroke="#4dd2ff" stroke-linecap="round" stroke-linejoin="round" stroke-width="0.5"><title>2024-05-04 3.0km</title><desc>9223370322023120704</desc></polyline><polyline fill="none" points="180.3822289146483,80.3999999994412 175.42283963039517,81.56756984256208 153.60152679681778,109.5892081707716 155.58528250828385,116.59460636414587 164.51218321546912,123.59999999962747 160.54467178881168,122.43243471067399 151.6177710853517,121.26486929319799" stroke="#4dd2ff" stroke-linecap="round" stroke-linejoin="round" stroke-width="0.5"><title>2024-05-03 5.0km</title><desc>9223370322115228759</desc></polyline><polyline fill="none" points="121.59999996423721,130.93051828444004 78.39999997615814,169.06948171555996" stroke="#4dd2ff" stroke-linecap="round" stroke-linejoin="round" stroke-width="0.5"><title>2024-05-01 4.0km</title><desc>9223370322286947528</desc></polyline><polyline fill="none" points="187.60000000149012,154.18780298391357 144.40000000037253,148.80348632205278 159.1388235297054,145.81219701608643 154.56470588222146,147.60697079496458 158.63058823533356,148.80348632205278 157.10588235221803,146.4104550080374 153.04000000096858,148.20522858994082 156.59764706157148,147.60697079496458 147.4494117666036,148.80348632205278 155.0729411765933,147.60697079496458 164.72941176593304,145.81219701608643 165.74588235467672,146.4104550080374" stroke="#4dd2ff" stroke-linecap="round" stroke-linejoin="round" stroke-width="0.5"><title>2024-04-30 5.3km</title><desc>9223370322373916531</desc></polyline><polyline fill="none" points="12.399999999906868,187.14890246512368 12.399999999906868,194.99704135244247 14.236850393237546,196.9991042536567 17.910551180597395,196.19827974418877 19.339212598046288,197.31943381438032 34.85039370064624,183.94555651256815 51.518110235920176,184.10572413995396 54.78362204693258,187.38915285136318 55.463937007589266,207.00933738739695 51.518110235920176,211.65403949981555 32.53732283436693,211.81420112098567 29.339842519257218,209.89225937688025 18.862992125563323,209.41177315992536 18.250708661042154,199.08124391600722 21.03999999957159,195.47753694356652 35.05448818858713,183.94555651256815 51.31401574774645,184.10572413995396 54.44346456672065,187.22898593591526 55.463937007589266,191.07298232929315 55.05574803124182,208.21055624994915 51.04188976320438,211.97436270705657 33.013543306617066,211.97436270705657 29.748031495604664,209.97234038281022 18.0466141726356,208.93128663027892 18.65889763715677,198.28042166330852 33.89795275544748,184.34597551613115 51.99433070817031,184.26589173270622 55.463937007589266,188.75057023321278 55.12377952714451,206.28860513248947 54.71559055079706,208.61096210364485 51.17795275547542,211.8942819183576 33.013543306617066,211.73412031459156 29.339842519257218,209.81217836227734 18.99905511760153,209.3316920932266 17.910551180597395,207.48982516664546 18.114645668771118,201.16337771102553 18.65889763715677,198.52066843025386 34.10204724385403,184.50614305684576 51.17795275547542,184.02564033056842 54.78362204693258,187.3090693979757 55.12377952714451,208.13047505327268 51.38204724364914,211.81420112098567 49.61322834622115,211.97436270705657 33.693858267506585,212.05444348737365 29.679999999701977,210.0524213798344 19.067086613737047,209.41177315992536 17.70645669242367,205.08738314540824 18.182677165139467,202.68493331217906 19.27118110191077,202.28452424728312 18.0466141726356,202.04427870444488 18.114645668771118,200.44263975397917 20.971968503436074,195.87794969737297 34.64629921223968,184.34597551613115 52.3344881888479,184.82647803390864 55.25984251964837,188.27007026731735 55.39590551168658,206.84917472483357 51.58614173159003,211.33371615357464 32.469291338231415,211.97436270705657 27.298897637519985,209.65201630740194 19.27118110191077,209.41177315992536 18.182677165139467,208.21055624994915 17.978582676965743,201.16337771102553 18.862992125563323,197.96009251917712 34.10204724385403,184.34597551613115 51.65417322795838,184.42605929076672 55.05574803124182,188.18998690939043 55.5999999998603,194.43646276800428 55.12377952714451,206.5288492955151 51.72220472432673,211.49387784407008 32.4012598420959,211.97436270705657 29.407874015392736,209.89225937688025 18.65889763715677,209.25161101785488 18.862992125563323,198.2003393904888 17.366299212211743,195.87794969737297" stroke="#4dd2ff" stroke-linecap="round" stroke-linejoin="round" stroke-width="0.5"><title>2024-04-27 9.8km</title><desc>1714200483443</desc></polyline><polyline fill="none" points="79.07185069983825,186.96756356116384 78.87029549013823,189.97286921233172 78.39999999990687,191.63369070918998 78.87029549013823,195.1925811865949 79.74370139976963,196.61613251734525 81.75925349933095,197.2488211063901 83.57325038895942,196.45796028443146 84.78258164878935,196.45796028443146 85.72317262855358,197.48607918561902 87.94027993781492,195.27166744461283 90.09020217740908,194.16445905383443 90.62768273707479,193.29450842534425 93.4494556763675,190.84282380115474 96.80870917602442,187.83752173295943 98.28678071545437,186.41395327530336 101.04136858507991,184.27859538048506 105.67713841400109,184.19950793095632 108.76765163289383,184.19950793095632 111.11912908242084,184.27859538048506 114.00808709184639,184.35768282128265 117.50171073130332,184.43677025358193 119.71881804079749,186.49304048449267 121.33125972049311,189.18200050393352 121.39844479039311,193.84811349067604 121.39844479039311,198.27693889319198 121.46562986029312,203.2593353393604 121.39844479039311,207.05542408279143 119.24852255056612,210.1397316454677 115.08304821164347,211.87959169887472 110.6488335924223,211.80050724110333 105.67713841400109,211.80050724110333 100.97418351494707,211.80050724110333 97.81648522545584,211.48416932381224 95.59937791596167,209.90247768047266 91.29953343700618,209.74430832755752 86.66376360831782,209.58613894035807 84.91695178858936,209.1907153224456 84.51384136849083,205.86914847180014 84.31228615855798,201.36128356168047 84.78258164878935,198.67236842523562 86.86531881825067,196.77430471609114 88.41057542781346,194.876236069249 91.43390357703902,192.81998946343083 94.65878693619743,189.97286921233172 97.81648522545584,186.96756356116384 100.10077760508284,184.6740324991406 103.5272161741741,184.35768282128265 108.43172628316097,184.51585767738288 110.24572317302227,184.99038203962846 111.32068429258652,184.51585767738288 115.68771384144202,184.43677025358193 117.83763608103618,184.5949450925109 120.39066874072887,187.52117342688143 121.39844479039311,191.31734404864255 121.46562986029312,195.90435719914967 121.39844479039311,200.01682723214617 121.60000000009313,203.57567682216177 120.99533437029459,208.24169776507188 117.90482115116902,211.40508482296718 114.41119751194492,211.95867614803137 110.78320373268798,212.11684502125718 105.94587869360112,212.11684502125718 101.4444790049456,211.87959169887472 98.08522550552152,211.80050724110333 96.0024883360602,209.98156234418275 93.71819595643319,210.1397316454677 90.15738724730909,209.66522363835247 85.65598755842075,209.74430832755752 84.446656298358,208.95346104889177 84.17791601875797,206.02731866465183 84.51384136849083,201.36128356168047 85.05132192838937,198.43511073157424 88.34339035768062,195.3507536938996 89.8214618973434,194.24354542332003 93.51664074650034,190.92191053042188 96.60715396585874,187.91660878818948 100.10077760508284,184.6740324991406 103.66158631420694,184.12042047292925 107.75987558346242,184.12042047292925 109.84261275292374,184.832207286614 113.26905132224783,184.27859538048506 116.96423017117195,184.19950793095632 119.71881804079749,186.49304048449267 121.39844479039311,189.02382665983168 121.1968895806931,192.50364331767196 121.12970451032743,195.58801239036256 121.1968895806931,198.43511073157424 121.12970451032743,203.6547621715581 120.86096423026174,207.92535830498673 119.65163297066465,209.90247768047266 117.70326594123617,211.56325381604256 114.81430793181062,211.95867614803137 111.05194401252083,211.87959169887472 106.34898911369964,211.95867614803137 101.64603421487845,211.80050724110333 98.28678071545437,211.64233829954173 95.59937791596167,209.82339300820604 93.3150855365675,209.50705423398176 88.41057542781346,209.34888479538495 85.38724727835506,209.34888479538495 84.31228615855798,207.5299337870092 84.5810264388565,202.70573741412954 85.05132192838937,198.67236842523562 88.2090202178806,195.58801239036256 90.35894245724194,194.16445905383443 92.50886469660327,192.26638361799996 94.45723172626458,190.2101296573528 95.2634525662288,189.65652183187194 98.62270606542006,186.25577883044025 101.91477449447848,184.35768282128265 103.0569206844084,184.51585767738288 107.15520995366387,184.43677025358193 109.43950233305804,184.75311989709735 111.05194401252083,184.43677025358193 115.95645412127487,184.27859538048506 117.70326594123617,184.51585767738288 120.72659409046173,187.60026051622117 121.39844479039311,191.39643072645413 121.12970451032743,196.14161571592558 121.26407465012744,199.6213984285132 121.26407465012744,204.0501887894352 121.1968895806931,207.5299337870092 120.79377916059457,208.79529149027076 117.36734059127048,211.80050724110333 113.40342146204785,211.95867614803137 109.57387247309089,212.03776058898075 105.27402799390256,211.87959169887472 103.9975116639398,212.03776058898075 101.04136858507991,212.11684502125718 97.95085536572151,211.72142277448438 95.93530326616019,210.06064699910348 91.97138413693756,209.74430832755752 91.29953343700618,209.34888479538495 86.73094867821783,209.58613894035807 84.91695178858936,209.1907153224456 84.31228615855798,207.05542408279143 84.37947122869082,203.41750609781593 85.11850699852221,202.31031006766716 85.25287713832222,202.38939555402612 84.446656298358,202.15213906927966 84.84976671845652,198.7514543061261 86.73094867821783,196.9324768804363 88.2090202178806,195.42983993462985 89.88864696747623,194.16445905383443 93.65101088653319,191.1591706670588 96.0024883360602,188.94473972456763 97.81648522545584,187.20482498354977 99.96640746528283,185.06946940347552 102.98973561450839,184.43677025358193 107.42395023349673,184.5949450925109 109.50668740295805,185.06946940347552 110.98475894262083,184.6740324991406 115.35178849170916,184.51585767738288 118.30793157126755,185.14855675847502 121.1968895806931,188.54930492059793 121.53281493042596,193.13633547257632 121.1968895806931,197.723337187781 121.1968895806931,202.46848103200318 121.33125972049311,206.89725411270047 119.24852255056612,209.82339300820604 115.28460342134349,211.56325381604256 110.78320373268798,211.56325381604256 106.41617418359965,211.64233829954173 102.45225505437702,211.80050724110333 100.50388802494854,212.03776058898075 97.27900466579013,211.56325381604256 93.58382581663318,209.66522363835247 88.88087091757916,209.50705423398176 85.65598755842075,209.42796951910714 84.84976671845652,208.79529149027076 84.446656298358,206.02731866465183 84.5810264388565,202.70573741412954 84.78258164878935,199.1468835811247 85.25287713832222,198.11876702005975 88.88087091757916,194.79714976856485 91.43390357703902,192.74090293992776 94.59160186629742,189.8937823799788 98.42115085525438,186.73030206130352 100.30233281524852,184.6740324991406 103.0569206844084,184.51585767738288 107.69269051332958,184.6740324991406 111.18631415278651,184.6740324991406 115.62052877177484,184.75311989709735 119.18133748066612,186.25577883044025 120.59222395066172,188.07478287263075 121.1968895806931,188.94473972456763 121.46562986029312,192.02912384143565 121.33125972049311,197.16973506263457 121.33125972049311,201.44036915100878 121.1968895806931,205.94823357247515 120.86096423026174,206.89725411270047 119.0469673408661,210.4560701456503 117.70326594123617,211.48416932381224 113.40342146204785,211.95867614803137 108.23017107322812,211.87959169887472 103.59440124430694,211.95867614803137 99.29455676535144,211.95867614803137 98.08522550552152,211.72142277448438 95.6665629860945,209.90247768047266 90.82923794724047,209.58613894035807 85.9247278382536,209.58613894035807 85.05132192838937,209.26980006310623 84.37947122869082,208.24169776507188 84.51384136849083,203.2593353393604 84.84976671845652,199.30505523114698 84.84976671845652,197.16973506263457 83.97636080882512,193.76902707864065 83.90917573869228,191.9500372321345" stroke="#4dd2ff" stroke-linecap="round" stroke-linejoin="round" stroke-width="0.5"><title>2024-04-27 10.1km</title><desc>9223370322649067555</desc></polyline><polyline fill="none" points="144.40000000596046,194.36772071942687 187.6000000089407,201.63227928057313" stroke="#4dd2ff" stroke-linecap="round" stroke-linejoin="round" stroke-width="0.5"><title>2024-04-26 5.2km</title><desc>9223370322713802999</desc></polyline><polyline fill="none" points="55.600000001490116,233.2870011664927 49.42857142537832,233.2870011664927 44.28571428731084,235.70852724369615 39.142857145518064,236.9192900871858 29.885714285075665,236.9192900871858 18.571428570896387,245.3946263184771 14.457142855972052,253.86995612177998 24.74285713583231,256.29147774074227 12.399999998509884,250.23767270892859 18.571428570896387,255.08071699924767 25.77142856642604,256.29147774074227 27.828571427613497,258.7129988335073" stroke="#4dd2ff" stroke-linecap="round" stroke-linejoin="round" stroke-width="0.5"><title>2024-04-25 5.2km</title><desc>9223370322805955311</desc></polyline><polyline fill="none" points="90.0869565224275,242.06942303595133 90.92173913121223,243.29773210268468 90.29565217439085,244.52604050305672 89.4608695646748,245.50868674344383 87.37391304410994,244.52604050305672 87.79130434803665,245.75434823776595 86.33043478336185,246.24567114538513 85.49565217457712,245.50868674344383 83.61739130411297,244.77170210285112 80.69565217383206,245.26302522304468 80.90434782672673,246.00000970461406 80.27826086990535,245.75434823776595 81.73913043458015,246.49133255891502 82.99130434729159,247.71963922888972 86.53913043439388,247.71963922888972 88.20869565289468,246.73699394636787 88.41739130485803,245.50868674344383 87.58260869514197,246.73699394636787 86.95652173925191,245.75434823776595 88.00000000093132,245.26302522304468 92.59130434785038,245.26302522304468 94.26086956541985,245.75434823776595 97.18260869663209,245.50868674344383 97.6000000005588,244.2803788757883 96.5565217398107,243.05207034223713 93.42608695756644,241.57809922355227 91.75652173906565,240.59545127744786 89.4608695646748,239.3671407471411 88.20869565289468,243.78905554208905 88.20869565289468,245.26302522304468 87.16521739121526,246.24567114538513 85.9130434775725,246.00000970461406 84.24347826093435,246.24567114538513 82.36521739140153,245.75434823776595 81.94782608747482,247.47397794830613 83.82608695700765,248.21096171042882 82.36521739140153,249.1936063542962 83.82608695700765,249.43926744838245 83.4086956512183,250.66757252137177 82.36521739140153,251.40455524483696 78.40000000037253,252.63285925262608 84.034782608971,248.4566229111515 85.49565217457712,247.71963922888972 85.07826086971909,246.24567114538513 89.66956521756947,247.71963922888972 91.5478260871023,247.47397794830613 93.00869565177709,248.21096171042882 92.17391304299235,249.1936063542962 92.59130434785038,250.17625057208352 93.84347826149315,251.15889436355792 93.84347826149315,252.14153772895224 92.17391304299235,252.63285925262608 88.83478260785341,251.15889436355792 88.62608695682138,249.68492851639166 90.71304347831756,249.43926744838245 91.75652173906565,250.17625057208352 94.26086956541985,249.43926744838245 94.67826087027788,250.91323345550336 93.00869565177709,251.89587692776695 91.13043478317559,251.89587692776695 85.49565217457712,248.4566229111515 82.36521739140153,245.75434823776595 80.90434782672673,245.26302522304468 79.44347826112062,245.50868674344383 80.27826086990535,244.52604050305672 81.94782608747482,245.01736367633566 83.20000000018626,244.77170210285112 82.36521739140153,245.75434823776595 80.48695652093738,245.75434823776595 78.40000000037253,246.00000970461406 82.99130434729159,246.24567114538513 84.66086956579238,245.50868674344383 85.9130434775725,245.50868674344383 86.95652173925191,246.49133255891502 89.4608695646748,245.26302522304468 90.50434782542288,245.75434823776595 91.75652173906565,245.75434823776595 92.59130434785038,246.49133255891502 93.84347826149315,246.98265530681238 95.09565217420459,246.73699394636787 96.13913043495268,246.98265530681238 97.39130434859544,248.4566229111515 99.47826087009162,249.9305895571597 101.14782608672976,249.68492851639166 102.40000000037253,250.17625057208352 100.73043478280306,249.43926744838245 97.6000000005588,248.70228408556432 98.85217391327024,248.21096171042882 99.06086956523359,249.68492851639166 100.5217391308397,249.43926744838245 100.73043478280306,248.21096171042882 101.77391304261982,249.1936063542962 103.02608695719391,249.43926744838245 99.47826087009162,249.43926744838245 101.14782608672976,249.68492851639166 101.5652173915878,248.94794523296878 102.60869565233588,249.43926744838245 103.6521739140153,250.17625057208352 100.10434782598168,251.40455524483696 102.40000000037253,250.66757252137177 105.11304347869009,248.4566229111515 104.069565217942,247.22831664071418 104.069565217942,248.21096171042882 101.77391304261982,248.70228408556432 99.47826087009162,248.4566229111515 97.80869565252215,247.47397794830613 93.84347826149315,247.22831664071418 95.72173913102597,247.47397794830613 96.76521739177406,248.70228408556432 98.85217391327024,247.71963922888972 103.02608695719391,247.47397794830613 105.53043478354812,248.21096171042882 108.034782608971,248.4566229111515 109.70434782654047,248.4566229111515 114.29565217345953,248.94794523296878 118.67826087027788,249.43926744838245 121.6000000005588,249.9305895571597 118.67826087027788,249.9305895571597 118.05217391438782,249.9305895571597 115.33913043607026,249.9305895571597 113.04347826167941,249.68492851639166 111.37391304410994,249.9305895571597 109.07826086971909,249.9305895571597 108.24347826093435,249.1936063542962 105.53043478354812,248.4566229111515 109.70434782654047,247.96530048316345 111.37391304410994,248.94794523296878 112.41739130485803,248.4566229111515 111.16521739214659,248.21096171042882 111.79130434896797,248.4566229111515 110.74782608728856,248.94794523296878 109.49565217457712,248.94794523296878 111.16521739214659,247.96530048316345 109.07826086971909,248.70228408556432 106.5739130442962,249.9305895571597 103.86086956504732,250.66757252137177 104.69565217383206,251.15889436355792 107.19999999925494,250.91323345550336 106.99130434822291,249.43926744838245 106.15652173943818,249.1936063542962 106.5739130442962,248.70228408556432 108.034782608971,249.1936063542962 109.49565217457712,250.66757252137177 108.86956521868706,251.40455524483696 106.99130434822291,252.14153772895224" stroke="#4dd2ff" stroke-linecap="round" stroke-linejoin="round" stroke-width="0.5"><title>2024-04-24 3.4km</title><desc>9223370322893282018</desc></polyline></svg>