<?xml version="1.0" encoding="utf-8" ?>
<svg baseProfile="full" height="300mm" version="1.1" viewBox="0,0,200,300" width="200mm" xmlns="http://www.w3.org/2000/svg" xmlns:ev="http://www.w3.org/2001/xml-events" xmlns:xlink="http://www.w3.org/1999/xlink"><defs /><rect fill="#222222" height="300" width="200" x="0" y="0" /><text fill="#FFFFFF" style="font-size:12px; font-family:Arial; font-weight:bold;" x="10" y="20">Over 10km Runs</text><text fill="#FFFFFF" style="font-size:4px; font-family:Arial" x="10" y="280">ATHLETE</text><text fill="#FFFFFF" style="font-size:9px; font-family:Arial" x="10" y="290">L</text><text fill="#FFFFFF" style="font-size:4px; font-family:Arial" x="120" y="280">STATISTICS</text><text fill="#FFFFFF" style="font-size:3px; font-family:Arial" x="120" y="285">Number: 1</text><text fill="#FFFFFF" style="font-size:3px; font-family:Arial" x="120" y="290">Weekly: 1.0</text><text fill="#FFFFFF" style="font-size:3px; font-family:Arial" x="141" y="285">Total: 2.7 km</text><text fill="#FFFFFF" style="font-size:3px; font-family:Arial" x="141" y="290">Avg: 2.7 km</text><text fill="#FFFFFF" style="font-size:3px; font-family:Arial" x="167" y="285">Min: 2.7 km</text><text fill="#FFFFFF" style="font-size:3px; font-family:Arial" x="167" y="290">Max: 2.7 km</text><polyline fill="none" points="109.79943206813186,73.87041494064033 114.5902655236423,69.0 113.28367458004504,69.51267572841607 105.6618940839544,73.1014027222991 91.50715887639672,180.24802895402536 91.07162856124341,184.34923877380788 91.50715887639672,204.59885802515782 89.98280277661979,214.59544159122743 88.67621183395386,219.4655567430891 88.2406815206632,222.285092510283 88.45844667684287,222.285092510283 87.58738604933023,226.12990859593265 87.8051512055099,225.36094587901607 87.8051512055099,226.38622944662347 87.15185573417693,228.18047462007962 86.71632541995496,228.18047462007962 86.49856026377529,228.6931158483494 85.40973447728902,229.71839797124267 86.71632541995496,231.0 87.58738604933023,228.94943642034195 87.8051512055099,228.94943642034195" stroke="#4DD2FF" stroke-linecap="round" stroke-linejoin="round" stroke-width="0.5"><title>2024-04-17 2.7km</title><desc>9223370323497561142</desc></polyline></svg>