<?xml version="1.0" encoding="utf-8" ?>
<svg baseProfile="full" height="300mm" version="1.1" viewBox="0,0,200,300" width="200mm" xmlns="http://www.w3.org/2000/svg" xmlns:ev="http://www.w3.org/2001/xml-events" xmlns:xlink="http://www.w3.org/1999/xlink"><defs /><rect fill="#222222" height="300" width="200" x="0" y="0" /><text fill="#FFFFFF" style="font-size:12px; font-family:Arial; font-weight:bold;" x="10" y="20">Over 3km Runs</text><text fill="#FFFFFF" style="font-size:4px; font-family:Arial" x="10" y="280">ATHLETE</text><text fill="#FFFFFF" style="font-size:9px; font-family:Arial" x="10" y="290">L</text><text fill="#FFFFFF" style="font-size:4px; font-family:Arial" x="120" y="280">STATISTICS</text><text fill="#FFFFFF" style="font-size:3px; font-family:Arial" x="120" y="285">Number: 3</text><text fill="#FFFFFF" style="font-size:3px; font-family:Arial" x="120" y="290">Weekly: 3.0</text><text fill="#FFFFFF" style="font-size:3px; font-family:Arial" x="141" y="285">Total: 11.8 km</text><text fill="#FFFFFF" style="font-size:3px; font-family:Arial" x="141" y="290">Avg: 3.9 km</text><text fill="#FFFFFF" style="font-size:3px; font-family:Arial" x="167" y="285">Min: 3.1 km</text><text fill="#FFFFFF" style="font-size:3px; font-family:Arial" x="167" y="290">Max: 5.2 km</text><polyline fill="none" points="58.857142858207226,106.78248503059149 95.5,43.21751496940851 83.92857142537832,43.21751496940851 74.28571428358555,47.75787636451423 64.64285714924335,50.02805669605732 47.28571428358555,50.02805669605732 26.071428574621677,65.91931213065982 18.357142850756645,81.81055551208556 37.642857134342194,86.3509085457772 14.5,75.00002411194146 26.071428574621677,84.08073215559125 39.5714285671711,86.3509085457772 43.42857142537832,90.89126059599221 27.99999999254942,104.51231085136533 33.78571428358555,97.70178683102131 26.071428574621677,93.16143625415862 27.99999999254942,93.16143625415862" stroke="#4dd2ff" stroke-linecap="round" stroke-linejoin="round" stroke-width="0.5"><title>2024-04-25 5.2km</title><desc>9223370322805955311</desc></polyline><polyline fill="none" points="134.23913043364882,76.38186364946887 126.41304347850382,67.63016819255427 127.9782608691603,69.93324769241735 126.80434782616794,72.23632594337687 125.23913043364882,74.07878764439374 121.32608695700765,72.23632594337687 122.10869565047324,74.53940294589847 119.36956521868706,75.46063339803368 117.80434782616794,74.07878764439374 114.28260869532824,72.69694144278765 108.8043478243053,73.61817229352891 109.19565217383206,75.00001819618046 108.0217391308397,74.53940294589847 110.76086956448853,75.92124854819849 113.10869565047324,78.22432355443016 119.76086956448853,78.22432355443016 122.89130434766412,76.38186364946887 123.28260869532824,74.07878764439374 121.71739130280912,76.38186364946887 120.54347825981677,74.53940294589847 122.5,73.61817229352891 131.10869565233588,73.61817229352891 134.23913043364882,74.53940294589847 139.71739130467176,74.07878764439374 140.5,71.77571039227769 138.5434782616794,69.47263189172372 132.673913044855,66.70893604448065 129.54347825981677,64.86647114530206 125.23913043364882,62.563388901297 122.89130434766412,70.85447914153337 122.89130434766412,73.61817229352891 120.93478260748088,75.46063339803368 118.58695651963353,75.00001819618046 115.45652173832059,75.46063339803368 111.93478260748088,74.53940294589847 111.15217391215265,77.76370865292847 114.67391304299235,79.14555320702493 111.93478260748088,80.98801191430539 114.67391304299235,81.44862646562979 113.89130434580147,83.75169847765937 111.93478260748088,85.13354108436033 104.5,87.436611098703 115.06521739065647,79.60616795858368 117.80434782616794,78.22432355443016 117.02173912897706,75.46063339803368 125.63043478317559,78.22432355443016 129.1521739140153,77.76370865292847 131.89130434580147,79.14555320702493 130.326086955145,80.98801191430539 131.10869565233588,82.83046982297674 133.4565217383206,84.67292693210766 133.4565217383206,86.51538324169815 130.326086955145,87.436611098703 124.06521738879383,84.67292693210766 123.67391304299235,81.90924096805975 127.58695652149618,81.44862646562979 129.54347825981677,82.83046982297674 134.23913043364882,81.44862646562979 135.0217391308397,84.21231272956356 131.89130434580147,86.05476923985407 128.3695652168244,86.05476923985407 117.80434782616794,79.60616795858368 111.93478260748088,74.53940294589847 109.19565217383206,73.61817229352891 106.45652173832059,74.07878764439374 108.0217391308397,72.23632594337687 111.15217391215265,73.15755689330399 113.5,72.69694144278765 111.93478260748088,74.53940294589847 108.41304347664118,74.53940294589847 104.5,75.00001819618046 113.10869565047324,75.46063339803368 116.23913043364882,74.07878764439374 118.58695651963353,74.07878764439374 120.54347825981677,75.92124854819849 125.23913043364882,73.61817229352891 127.19565217196941,74.53940294589847 129.54347825981677,74.53940294589847 131.10869565233588,75.92124854819849 133.4565217383206,76.84247870044783 135.80434782616794,76.38186364946887 137.76086956448853,76.84247870044783 140.10869565233588,79.60616795858368 144.0217391308397,82.36985541973263 147.15217391215265,81.90924096805975 149.5,82.83046982297674 146.3695652168244,81.44862646562979 140.5,80.06678266031668 142.8478260859847,79.14555320702493 143.23913043364882,81.90924096805975 145.97826087102294,81.44862646562979 146.3695652168244,79.14555320702493 148.326086955145,80.98801191430539 150.67391304299235,81.44862646562979 144.0217391308397,81.44862646562979 147.15217391215265,81.90924096805975 147.93478260934353,80.52739731175825 149.89130434766412,81.44862646562979 151.84782608784735,82.83046982297674 145.1956521719694,85.13354108436033 149.5,83.75169847765937 154.58695652149618,79.60616795858368 152.6304347831756,77.30309370113537 152.6304347831756,79.14555320702493 148.326086955145,80.06678266031668 144.0217391308397,79.60616795858368 140.89130434580147,77.76370865292847 133.4565217383206,77.30309370113537 136.9782608691603,77.76370865292847 138.93478260748088,80.06678266031668 142.8478260859847,78.22432355443016 150.67391304299235,77.76370865292847 155.36956521868706,79.14555320702493 160.06521739065647,79.60616795858368 163.19565217383206,79.60616795858368 171.8043478243053,80.52739731175825 180.0217391308397,81.44862646562979 185.5,82.36985541973263 180.0217391308397,82.36985541973263 178.84782608784735,82.36985541973263 173.76086956635118,82.36985541973263 169.45652174018323,81.90924096805975 166.32608695700765,82.36985541973263 162.02173912897706,82.36985541973263 160.4565217383206,80.98801191430539 155.36956521868706,79.60616795858368 163.19565217383206,78.68493840610608 166.32608695700765,80.52739731175825 168.28260869532824,79.60616795858368 165.93478260934353,79.14555320702493 167.10869565233588,79.60616795858368 165.15217391215265,80.52739731175825 162.80434782616794,80.52739731175825 165.93478260934353,78.68493840610608 162.02173912897706,80.06678266031668 157.32608695700765,82.36985541973263 152.23913043364882,83.75169847765937 153.80434782616794,84.67292693210766 158.49999999813735,84.21231272956356 158.10869565233588,81.44862646562979 156.54347825981677,80.98801191430539 157.32608695700765,80.06678266031668 160.06521739065647,80.98801191430539 162.80434782616794,83.75169847765937 161.6304347831756,85.13354108436033 158.10869565233588,86.51538324169815 152.6304347831756,83.29108417453244" stroke="#4dd2ff" stroke-linecap="round" stroke-linejoin="round" stroke-width="0.5"><title>2024-04-24 3.4km</title><desc>9223370322893282018</desc></polyline><polyline fill="none" points="95.5,229.20650073885918 21.647058814764023,217.98916645348072 14.5,232.01083354651928 24.029411762952805,220.79350047931075" stroke="#4dd2ff" stroke-linecap="round" stroke-linejoin="round" stroke-width="0.5"><title>2024-04-23 3.1km</title><desc>9223370322979897699</desc></polyline></svg>