<?xml version="1.0" encoding="utf-8" ?>
<svg baseProfile="full" height="300mm" version="1.1" viewBox="0,0,200,300" width="200mm" xmlns="http://www.w3.org/2000/svg" xmlns:ev="http://www.w3.org/2001/xml-events" xmlns:xlink="http://www.w3.org/1999/xlink"><defs /><rect fill="#222222" height="300" width="200" x="0" y="0" /><text fill="#FFFFFF" style="font-size:12px; font-family:Arial; font-weight:bold;" x="10" y="20">Over 3km Runs</text><text fill="#FFFFFF" style="font-size:4px; font-family:Arial" x="10" y="280">ATHLETE</text><text fill="#FFFFFF" style="font-size:9px; font-family:Arial" x="10" y="290">L</text><text fill="#FFFFFF" style="font-size:4px; font-family:Arial" x="120" y="280">STATISTICS</text><text fill="#FFFFFF" style="font-size:3px; font-family:Arial" x="120" y="285">Number: 28</text><text fill="#FFFFFF" style="font-size:3px; font-family:Arial" x="120" y="290">Weekly: 3.1</text><text fill="#FFFFFF" style="font-size:3px; font-family:Arial" x="141" y="285">Total: 137.1 km</text><text fill="#FFFFFF" style="font-size:3px; font-family:Arial" x="141" y="290">Avg: 4.9 km</text><text fill="#FFFFFF" style="font-size:3px; font-family:Arial" x="167" y="285">Min: 3.0 km</text><text fill="#FFFFFF" style="font-size:3px; font-family:Arial" x="167" y="290">Max: 10.1 km</text><polyline fill="none" points="34.64960646664258,31.905542709864676 35.068008671398275,31.905542709864676 35.78526959370356,31.83518090713187 36.68184574635234,31.870361810346367 37.90716648858506,31.800000000017462 38.74397089786362,31.83518090713187 38.95317200035788,31.905542709864676 39.07271548721474,32.08144714983064 39.10260135901626,32.32771320568281 39.0129437437281,33.03132947848644 39.0129437437281,33.6997635247244 39.10260135901626,34.40337682311656 39.25203071779106,34.96626636336441 39.19225897430442,35.88095978432102 39.31180246127769,37.252995082351845 39.28191658959258,38.62502458036761 39.34168833307922,39.15272668909165 39.28191658959258,39.68042793980567 39.40146007668227,40.38402827287791 39.371574204880744,41.22834665924893 39.49111769197043,41.7560445353738 39.461231820168905,41.89676382415928 39.52100356365554,42.17820221860893 39.461231820168905,42.67071882172604 39.49111769197043,43.339133016299456 39.461231820168905,44.464880127314245 39.6106611789437,45.48508507426595 39.6106611789437,46.575645437056664 39.70031879423186,48.40496426925529 39.640547050745226,48.82711330486927 39.640547050745226,49.49551482178504 39.70031879423186,50.128736042039236 39.640547050745226,50.72677717125043 39.73020466603339,51.57106865444803 39.7600905377185,53.92803742244723 39.87963402480818,54.737142158293864 39.93940576829482,55.86284974019509 40.088835127069615,56.39052382524824 39.969291640096344,57.797650525550125 39.999177511781454,58.36049949773587 39.93940576829482,59.41583869038732 40.11872099887114,60.400818841386354 40.05894925526809,61.561684468295425 40.05894925526809,62.79290105140535 40.2083786141593,63.63716115246643 40.11872099887114,64.0241129649803 40.02906338358298,64.09446779047721 39.28191658959258,64.05929037960595 38.83362851315178,64.20000000001164 37.937052360503,64.05929037960595 37.30944905336946,64.0241129649803 36.861160977045074,63.918580698169535 36.41287290060427,63.918580698169535 34.530062979785725,63.63716115246643 33.394399852724746,63.531628759927116 32.61736718704924,63.35574136272771 31.33227470132988,63.17985387027147 30.13683983089868,63.07432132906979 29.389693036908284,63.109498846606584 28.702317986404523,62.933611220825696 27.208024398540147,62.79290105140535 26.580421091406606,62.86325614366797 26.072361271479167,62.82807859938475 25.474643836263567,62.82807859938475 24.548181811813265,62.54665810833103 23.38263281295076,62.5114805297344 22.276855557924137,62.335592579853255 21.709023994393647,62.19488215132151 21.32050766167231,62.230059764231555 20.782561969943345,62.124526914267335 20.12507279124111,62.05417166187544 17.943404152523726,61.63203982732375 16.090480103506707,61.491329093900276 15.911164872930385,61.31544059130829 15.791621385840699,60.82295227696886 15.881279001012444,60.26010757419863 16.090480103506707,59.9083291394636 16.150251846876927,59.59172822217806 16.210023590479977,58.8881695229793 16.210023590479977,57.5514037933317 16.329567077569664,56.63677143809036 16.44911056465935,56.179454294091556 16.44911056465935,55.33517479713191 16.508882308145985,55.159282959008124 16.777855154010467,54.772320579359075 16.867512769298628,54.596428436023416 17.016942128073424,53.646609215589706 17.465230204514228,51.50071111469879 17.91351828095503,50.41016729891999 18.062947639729828,49.67140972916968 18.45146397256758,48.51050157958525 18.989409664296545,47.41994771751342 19.377925997017883,46.32939019156038 19.796328201773576,45.59062333399197 20.154958662809804,44.60559824161464 21.350393533241004,42.67071882172604 21.58948050753679,42.42446061357623 22.037768583744764,41.79122436331818 23.083774095401168,39.750788041739725 23.830920889391564,38.55466423436883 24.129779607173987,38.23804248866509 24.279208965832368,37.85105993557954 24.876926401047967,37.006732763693435 25.17578511859756,36.373485943244305 25.86316016910132,35.35325235614437 26.401105860830285,34.15711234213086 26.8792798089562,33.34795630350709 27.118366783019155,33.03132947848644 27.14825265482068,32.890606345958076 27.686198346549645,32.29253235209035 28.194258166477084,32.116628026386024 28.552888627629727,32.046266269433545 29.270149549818598,32.08144714983064 31.003530111978762,31.940723605453968 31.60124754719436,32.01108538528206 33.394399852724746,31.870361810346367 34.58983472327236,31.83518090713187" stroke="#4dd2ff" stroke-linecap="round" stroke-linejoin="round" stroke-width="0.5"><title>2024-08-04 3.4km</title><desc>12060173638</desc></polyline><polyline fill="none" points="69.8576295953244,31.975904497288866 70.27603170927614,31.975904497288866 70.57489036221523,31.870361810317263 72.78644439310301,31.94072360539576 72.9657595846802,31.94072360539576 72.9657595846802,31.835180907015456 74.0715366002405,31.800000000017462 74.43016698362771,31.870361810317263 74.90834082814399,31.835180907015456 74.9979984239908,31.90554270980647 75.11754188523628,32.04626626940444 75.1773136156844,32.43325574384653 75.11754188523628,33.383137042983435 75.1773136156844,34.01638969784835 75.32674294209573,34.86072464901372 75.23708534624893,35.4236133962695 75.2669712115312,37.147454111633124 75.32674294209573,37.921420434257016 75.29685707669705,38.44912368687801 75.41640053794254,39.39898737973999 75.356628807378,39.96186825624318 75.4462864032248,40.595108075620374 75.50605813378934,41.720864703907864 75.47617226850707,42.318921324505936 75.53594399895519,43.02251593803521 75.50605813378934,43.72610902629094 75.59571572963614,44.0427254185488 75.53594399895519,44.71113678769325 75.59571572963614,45.414726215589326 75.59571572963614,46.85707977489801 75.71525919076521,47.77173968660645 75.65548746020067,48.36978515840019 75.77503092132974,50.09355711803073 75.71525919076521,50.797134879016085 75.83480265189428,51.43035355999018 75.71525919076521,52.0635710057104 75.92446024774108,54.31500080888509 75.8049167864956,55.616601540357806 75.86468851717655,56.214632559072925 75.95434611313976,56.707127864821814 75.89457438245881,58.184609298972646 75.9842319781892,58.92334749424481 76.01411784358788,59.87315127509646 76.04400370887015,60.154574083921034 75.95434611313976,60.89330779630109 76.073889574036,61.49132909398759 76.073889574036,62.441125361365266 75.9842319781892,63.03914380769129 76.1635471698828,63.70751606178237 76.13366130483337,63.95375812423299 75.9842319781892,64.094467790419 75.65548746020067,64.1648226006655 73.83244967798237,64.20000000001164 72.99564544996247,64.0241129649512 72.48758574016392,64.05929037966416 70.27603170927614,63.63716115243733 69.55877094261814,63.601983692118665 68.63230911886785,63.42609633304528 68.2139070047997,63.46127381248516 67.88516248681117,63.35574136278592 66.89892893249635,63.25020887871506 66.0023529737955,63.179853870300576 65.61383672524244,63.21503137645777 64.80691836273763,63.03914380769129 64.17931519181002,63.03914380769129 63.73102721257601,62.863256143726176 63.07353817636613,62.75772349961335 61.489587316289544,62.722545943863224 59.81597886048257,62.441125361365266 58.71020184503868,62.476302947470685 57.57453896442894,62.26523737327079 56.4986478141509,62.19488215146703 55.42275666410569,61.9486387547513 54.04800686100498,61.702395171276294 53.06177330657374,61.702395171276294 52.135311482823454,61.59686214974499 52.0157680218108,61.52650678300415 51.926110425964,61.38579600388766 51.836452830117196,60.99884104641387 51.98588215652853,60.71741896957974 52.04565388697665,60.40081884150277 52.04565388697665,59.83797340691672 52.25485494406894,58.46603357154527 52.10542561777402,57.37551315611927 52.10542561777402,56.77748427609913 52.135311482823454,56.49605853960384 52.31462667463347,56.03874119737884 52.37439840519801,55.75731482048286 52.43417013576254,55.05374781045248 52.58359946217388,54.70196373361978 52.703142923419364,54.279822338256054 53.00200157612562,53.3651807649876 53.36063195951283,51.64142617917969 53.71926234301645,50.72677717154147 54.197436187416315,49.28444080759073 54.526180705521256,48.61603885592194 54.58595243608579,48.193889545771526 54.85492522350978,47.173693112883484 55.1238980111666,46.75154192687478 55.42275666410569,45.696161559724715 55.90093050850555,44.746316295379074 56.37910435302183,44.00754583464004 56.767620601691306,43.51503126003081 57.06647925451398,42.98733624361921 57.18602271564305,42.635539089445956 57.903283482417464,41.5097856335633 58.08259867411107,41.333886303327745 58.26191386580467,40.87654759871657 59.66654953407124,38.58984440940549 60.682668953668326,37.04191310648457 61.42981558572501,35.56433543044841 61.78844596911222,34.72000230973936 62.05741875676904,34.22747364154202 62.26661981374491,34.051570364652434 62.5355926011689,33.5590406821284 63.40228269435465,32.43325574384653 63.85057067370508,32.04626626940444 64.05977173056453,31.975904497288866 65.04600528499577,32.08144714985974 65.52417912939563,32.04626626940444 66.21155403088778,31.870361810317263 66.77938547136728,31.94072360539576 67.37710277701262,31.870361810317263 69.02082536742091,32.011085385252954 70.66454795806203,31.90554270980647 72.33815641375259,31.94072360539576 72.93587371939793,31.870361810317263 73.98187900427729,31.870361810317263 74.54971044464037,31.800000000017462 74.84856909769587,31.870361810317263 74.96811255859211,31.975904497288866 75.0876560198376,32.50361741686356 75.0876560198376,33.17205255010049 75.20719948096666,33.98120902717346 75.20719948096666,34.50891868630424 75.2669712115312,34.93108579580439 75.32674294209573,35.071808043605415 75.23708534624893,35.4939744209405 75.20719948096666,35.81059884355636 75.29685707669705,37.182634439028334 75.2669712115312,37.63997834865586 75.29685707669705,37.99178091753856 75.41640053794254,38.378763302840525 75.41640053794254,38.80092537868768 75.47617226850707,39.3286272015539 75.38651467266027,40.17294833328924 75.4462864032248,40.66546797924093 75.47617226850707,41.65050502901431 75.56582986423746,41.96712344590924 75.50605813378934,42.494820120948134 75.62560159491841,44.14826414725394 75.65548746020067,45.274008451990085 75.59571572963614,45.907237907726085 75.62560159491841,46.3293901917059 75.59571572963614,47.419947717833566 75.65548746020067,47.77173968660645 75.71525919076521,48.54568067577202 75.68537332548294,48.79193423985271 75.77503092132974,49.56587279646192" stroke="#4dd2ff" stroke-linecap="round" stroke-linejoin="round" stroke-width="0.5"><title>2024-08-03 4.1km</title><desc>12052009014</desc></polyline><polyline fill="none" points="106.16988715040497,31.97628729531425 106.55924896069337,31.870514929585624 107.00851258821785,31.800000000017462 108.14664711104706,31.800000000017462 109.10507618298288,31.941029843932483 110.75237615022343,31.800000000017462 110.96203250985127,31.870514929585624 111.05188523523975,31.97628729531425 111.14173796086106,32.575663384690415 111.11178705224302,33.95069847512059 111.26154159475118,35.85458361922065 111.26154159475118,36.98280659414013 111.35139432025608,37.86422807039344 111.32144341163803,38.53410679491935 111.44124704576097,39.2039841398655 111.35139432025608,39.627063857536996 111.44124704576097,41.35463365999749 111.41129613725934,41.77771058038343 111.56105067953467,43.11745053122286 111.50114886276424,43.50526896084193 111.53109977126587,44.35141665692208 111.74075613066088,45.796913879254134 111.65090340515599,46.572543887246866 111.65090340515599,48.12379835473257 111.71080522215925,48.44109949361882 111.65090340515599,48.864167197287316 111.77070703916252,49.886578543053474 111.71080522215925,50.803220465924824 111.80065794766415,51.12051899122889 111.71080522215925,51.5788385370397 111.68085431377403,52.07241271037492 111.74075613066088,52.31919951620512 111.77070703916252,52.84802775559365 111.83060885604937,53.4121102631907 111.92046158167068,53.62364095138037 111.95041249017231,54.505017338407924 112.04026521567721,55.033842024364276 112.07021612406243,55.597920741915004 112.04026521567721,56.33827257438679 112.19001975806896,56.97285851844936 112.10016703256406,57.431169819203205 112.10016703256406,58.17151747972821 112.01031430705916,58.77084530421416 112.07021612406243,59.29966305589187 111.98036339867394,60.004752054432174 112.10016703256406,60.95661977844429 112.04026521567721,61.62645095185144 112.1301179411821,62.19051823866903 112.1301179411821,63.03661733510671 112.24992157507222,63.74169823466218 112.219970666687,63.91796822086326 112.07021612406243,64.09423811145825 111.38134522875771,64.20000000001164 110.72242524183821,64.20000000001164 108.89541982358787,63.98847618850414 108.6558125554584,63.882714231236605 108.35630347055849,63.953222206560895 108.02684347704053,63.91796822086326 107.2481198561145,63.776952239481034 104.25302900641691,63.459666058275616 103.17479630070738,63.24814176547807 102.30621995427646,63.14237956752186 101.1381345228292,63.14237956752186 100.32945999340154,63.001363250165014 99.31112910457887,63.001363250165014 99.13142365356907,63.10712549384334 98.62225820904132,63.17763363732956 97.90343640523497,63.10712549384334 97.03486005880404,62.82509276721976 95.92667644447647,62.648822189017665 94.87839464703575,62.366789065185 93.65040739858523,62.26102658067248 92.03305833996274,61.97899312066147 90.02634747058619,61.767467865225626 89.60703475167975,61.767467865225626 88.55875295423903,61.52068822662113 88.10948932671454,61.4854339773301 87.8698820588179,61.34441694163252 87.75007842481136,61.02712838794105 87.8698820588179,60.85085683554644 87.89983296743594,60.56882215299993 88.10948932671454,60.18102406535763 88.13944023533259,60.004752054432174 88.10948932671454,59.93424322336796 88.19934205221944,58.59457252922584 88.13944023533259,58.101008251309395 88.1693911437178,57.14913217202411 88.49885113723576,55.38639133743709 88.82831113075372,54.29348722330178 89.09786930726841,52.8127725663071 89.60703475167975,51.15577436386957 89.6669365685666,50.83847587290802 90.86497290851548,47.348172045632964 91.1644819934154,46.60779975273181 91.34418744430877,46.29049682550249 91.58379471243825,45.691146007651696 91.82340198045131,45.23281816649251 92.33256742486265,44.104623806255404 93.05138922878541,43.08219428744633 93.91996557509992,41.63668500143103 94.51898374501616,40.720017247716896 95.41751100006513,38.88667399060796 96.07643098686822,38.0757688692247 96.5256946143927,37.22960484822397 97.21456550993025,36.24241070818971" stroke="#4dd2ff" stroke-linecap="round" stroke-linejoin="round" stroke-width="0.5"><title>2024-08-02 3.0km</title><desc>12043451201</desc></polyline><polyline fill="none" points="141.5793673528824,31.975143867108272 143.4837914094096,31.800000000017462 144.40624681173358,32.01017262917594 144.79308294830844,31.940115101228002 145.3584588400554,31.940115101228002 145.8643214800395,31.870057558262488 146.72726363071706,31.940115101228002 146.84629013435915,32.01017262917594 146.935560011887,32.22034512157552 146.935560011887,33.20114827892394 147.1140997671755,34.00680578837637 147.14385639305692,34.56726200165576 147.20336964470334,34.987603523535654 147.17361301893834,35.54805803581257 147.23312627070118,36.038454936555354 147.17361301893834,36.66896414407529 147.23312627070118,37.0893029323197 147.17361301893834,37.29947212146362 147.14385639305692,37.92997886863304 147.20336964470334,39.8214917294099 147.29263952246401,40.62713273416739 147.29263952246401,41.15254969854141 147.4116660259897,41.95818738502567 147.47117927775253,43.04404369764961 147.4414226517547,43.814649190055206 147.38190940010827,44.09486891358392 147.35215277422685,44.690335019200575 147.53069252951536,47.8427843581012 147.64971903304104,48.29813560983166 147.67947565903887,48.683432321762666 147.5902057812782,49.62915866723051 147.61996240715962,50.01445379239158 147.53069252951536,50.64493573366781 147.5902057812782,51.45054975763196 147.5604491555132,52.186108634545235 147.64971903304104,52.956692329084035 147.64971903304104,53.44706281443359 147.79850216244813,54.70801207475597 147.79850216244813,56.31921785962186 147.97704191773664,56.70450500948937 148.09606842137873,57.19486980870715 148.00679854361806,57.26492186210817 147.8877720400924,57.6151819016668 147.82825878832955,58.42077855192474 147.94728529185522,59.29642480745679 147.85801541432738,60.38222286981181 147.8877720400924,60.97765896821511 148.09606842137873,62.448731685377425 148.09606842137873,63.604569837712916 148.00679854361806,63.884772403747775 147.8877720400924,64.02487359565566 147.70923228468746,64.12994944973616 146.25115761661436,64.09492416877765 145.59651184722316,64.02487359565566 145.26918896241114,63.884772403747775 144.8823528259527,63.81472178502008 136.40171444939915,62.93908776997705 135.71731205412652,62.72893525342806 135.44950242107734,62.763960682292236 134.67583014816046,63.00913857843261 134.1402108821785,63.07918937175418 132.94994584692176,62.62385894381441 131.0752784163924,62.37868075541337 130.3016061434755,62.2035533641465 129.4981772445608,62.133502381067956 128.3971820868319,62.098476883838885 127.98058932449203,61.958374856913 126.70105441159103,61.74822170275729 125.86786888691131,61.60811952405493 125.06443998788018,61.57309396981145 124.64784722565673,61.432991715177195 124.1419845855562,61.39796614207444 123.90393157862127,61.187812623451464 123.90393157862127,60.83755645554629 124.11222795990761,60.34719718270935 124.2907677149633,59.716734167566756 124.23125446320046,57.86036370342481 124.2907677149633,57.08979170009843 124.40979421860538,56.10906103879097 124.40979421860538,55.793825551489135 124.46930747036822,55.23340614812332 124.64784722565673,54.91816980656586 124.76687372918241,54.60293315767194 125.2429797432851,52.01097572038998 125.45127612457145,51.34546978145954 125.68932913150638,50.96017624309752 125.83811226091348,50.294668140326394 125.86786888691131,50.08450740217813 126.01665201620199,49.594131814839784 126.40348815277684,48.75348622005549 126.58202790806536,48.4732705357892 126.93910741852596,47.42245955619728 127.2961869292194,46.72191700496478 127.59375318803359,45.91629119386198 127.7722929433221,45.04060868654051 127.95083269872703,44.72536240296904 128.3674254610669,44.12989636187558 128.60547846800182,43.88470414371113 129.11134110810235,42.83387824438978 129.61720374820288,42.13332574663218 131.67041093402077,38.66556851891801 132.44408320693765,37.57969749427866 132.71189283987042,36.9491900637222 133.57483499043155,35.583086410479154 133.87240124936216,35.16274566305219 134.19972413405776,34.357091035548365 134.34850726346485,34.11189140242641 134.49729039287195,33.761605889420025 135.2412060399074,32.7808044331905 135.44950242107734,32.430517477332614 135.538772298838,32.32543131659622 136.04463493882213,32.15028763926239 136.87782046350185,32.08023014187347 137.32416985172313,32.15028763926239 138.72273126826622,32.18531638238346 139.6451866707066,31.940115101228002 140.03202280704863,31.940115101228002 140.80569508008193,32.11525889247423 141.19253121642396,32.01017262917594 141.93644686357584,31.90508633168065 143.39452153176535,31.90508633168065 143.7813576683402,31.940115101228002 144.2574636824429,31.90508633168065 145.09064920712262,31.940115101228002 145.71553835074883,31.870057558262488 146.69750700471923,31.90508633168065 146.84629013435915,31.975143867108272 147.02482988964766,32.22034512157552 146.99507326364983,33.20114827892394 147.1140997671755,33.48137720575323 147.08434314129408,33.58646299058455 147.1140997671755,33.901720140187535 147.08434314129408,34.14691993279848 147.23312627070118,34.95257508428767 147.14385639305692,35.47800127492519 147.17361301893834,37.124331140046706 147.20336964470334,37.194387544033816 147.20336964470334,37.47461300791474 147.262882896699,37.54466933599906 147.262882896699,37.85992262428044 147.20336964470334,38.455400218314026 147.32239614834543,39.3661285340786 147.23312627070118,40.03165914161946 147.29263952246401,41.36271624514484 147.4116660259897,42.76382306305459 147.38190940010827,43.149126373027684 147.47117927775253,43.56945673271548 147.4414226517547,44.16492380652926 147.53069252951536,44.620280240284046 147.50093590363394,46.44169955936377 147.5604491555132,46.86202563671395 147.53069252951536,48.052946553973015 147.5902057812782,48.508297509659315 147.53069252951536,48.99867474439088 147.61996240715962,49.55910495878197 147.5902057812782,50.64493573366781 147.64971903304104,51.3104431151005 147.5902057812782,52.08102889743168 147.67947565903887,52.5714007113711 147.67947565903887,53.23690412603901 147.79850216244813,55.65372079165536 147.76874553668313,55.898904081317596 147.8877720400924,56.10906103879097 147.79850216244813,57.124817740143044 147.85801541432738,58.140571249095956 147.9175286659738,58.59590799282887 147.85801541432738,59.051244095055154 147.9175286659738,59.576631108269794 147.8877720400924,60.52232557989191 147.94728529185522,60.83755645554629 147.8877720400924,61.25786381150829 147.97704191773664,61.71319616376422 148.0663117953809,62.658884384145495 148.00679854361806,63.884772403747775 147.82825878832955,64.09492416877765 146.37018412002362,64.20000000001164 145.62626847298816,64.09492416877765 145.23943233664613,63.91979770734906 144.94186607771553,63.84974709621747 143.9301407977473,63.77969646989368 139.9725095554022,63.289341660623904 139.25835053413175,63.3243670288648 137.38368310348596,63.07918937175418 136.0148783128243,63.044163977057906 135.56852892460302,62.90406236000126 134.61631689639762,62.86903694621287 134.31875063746702,62.79898610734381 132.14651694812346,62.79898610734381 131.64065430813935,62.72893525342806" stroke="#4dd2ff" stroke-linecap="round" stroke-linejoin="round" stroke-width="0.5"><title>2024-08-01 5.0km</title><desc>12035805770</desc></polyline><polyline fill="none" points="178.2272819391219,32.00994567212183 178.88122085412033,31.939963796554366 180.09992519533262,32.0799275325553 181.31862953677773,31.939963796554366 182.1806399244815,31.939963796554366 182.4184358936036,31.869981905823806 182.86430333554745,31.974954736273503 183.0129258161178,32.184900294669205 183.0723748083692,32.70976359341876 182.98320131993387,33.12965361797251 182.98320131993387,33.479561554355314 183.22099728893954,34.984161359549034 183.16154829680454,35.61399175380939 183.19127279298846,36.243820919218706 183.19127279298846,37.85337875914411 183.3101707774913,39.183007443265524 183.3398952735588,41.38737977447454 183.45879325794522,42.4020857885771 183.48851775412913,43.13687091105385 183.45879325794522,43.97662328882143 183.57769124268088,45.20125825770083 183.48851775412913,46.810771437420044 183.54796674649697,47.12567525138729 183.6074157387484,48.52524404175347 183.57769124268088,49.22502616161364 183.6371402348159,49.95979575495585 183.57769124268088,50.44964122152305 183.69658922718372,51.35935225896537 183.6668647309998,52.09411699490738 183.75603821931873,52.72391400896595 183.75603821931873,53.42368702814565 183.90466070000548,54.68327464052709 183.81548721168656,55.52299698541174 183.90466070000548,56.01283401128603 183.9938341883244,56.957517605420435 183.87493620393798,57.867210305819754 183.9641096922569,58.28706761074136 183.9343851961894,58.56697217733017 183.9938341883244,60.1064429563703 183.90466070000548,60.80619997481699 184.02355868462473,61.470967737579485 184.02355868462473,62.13573413161794 184.14245666901115,62.7305239556008 184.11273217294365,63.5702253713971 184.02355868462473,63.92010031663813 183.9343851961894,64.02506272634491 183.75603821931873,64.09503764717374 182.4778848857386,64.20000000001164 181.64559899421874,64.06005018868018 180.9322110869689,63.85012535791611 179.83240473014303,63.74516289142775 179.20819031156134,63.5702253713971 178.34617992374115,63.535237855947344 175.7601487605134,63.2553375964344 173.53081155079417,63.11538737564115 172.66880116297398,63.15037493646378 171.98513775202446,63.29032514212304 171.4798213178292,63.29032514212304 170.70698441844434,63.01042467018124 170.0233210073784,63.08039981091861 168.95323914685287,62.94044951428077 167.97233077452984,62.94044951428077 167.73453480540775,62.83548675203929 167.34811635583173,62.83548675203929 166.6941774408333,62.695536349288886 166.01051402988378,62.52059826054028 165.26740162668284,62.45062299858546 163.90007480466738,61.99578342560562 163.6622788356617,61.89082035617321 163.3353093782207,61.8208449575759 163.0380644169636,61.78585725274752 162.3544010060141,61.855832658853615 161.99770705238916,61.78585725274752 161.5221151143778,61.57593094339245 160.3331352690002,61.435979994625086 160.00616581179202,61.33101674335194 159.88726782728918,61.15607791530783 159.85754333098885,60.981138992356136 160.09533929999452,60.491309504111996 160.18451278842986,60.14143084330135 160.24396178068127,58.21709143125918 160.15478829247877,57.37737609326723 160.39258426148444,56.2577522455249 160.51148224598728,55.27807819377631 161.28431914525572,51.95416193600977 161.70046209113207,50.86950817279285 161.789635579451,50.344674398424104 162.26522751769517,49.085069858963834 162.7110949595226,48.17535241288715 162.9488909286447,47.47556801774772 163.21641139371786,46.77578210577485 163.48393185890745,46.32092044950696 163.9297993008513,45.02631068942719 164.04869728535414,44.74639438308077 165.14850364218,42.8569529663655 165.53492209187243,42.4020857885771 166.24830999888945,41.0024904521415 166.6644529448822,40.51263065089006 167.46701434033457,39.21799759782152 167.67508581327274,38.79811549265287 168.180402247468,38.06332049440243 169.1613106195582,36.17383996161516 169.60717806161847,35.648982295242604 169.9935965114273,35.05414257515804 170.17194348794874,34.4942924255447 170.70698441844434,33.51455232719309 170.8853313951986,33.059671985014575 171.5095458138967,32.4298366070434 171.77706627908628,32.28987302276073 172.1634847287787,32.184900294669205 172.84714813984465,32.149909377796575 173.20384209312033,32.0799275325553 175.10620984563138,32.184900294669205 175.96822023333516,32.00994567212183 177.3058225591667,32.00994567212183 177.6030675204238,31.939963796554366 178.94066984637175,31.869981905823806 179.86212922632694,31.904972853022628 180.6646906217793,31.83499095478328 182.03201744391117,31.869981905823806 182.59678287035786,31.79999999998836 182.86430333554745,31.939963796554366 183.0129258161178,32.35985482245451" stroke="#4dd2ff" stroke-linecap="round" stroke-linejoin="round" stroke-width="0.5"><title>2024-07-31 3.5km</title><desc>12027390271</desc></polyline><polyline fill="none" points="34.35991693334654,72.63506668899208 35.10463788558263,72.7402667333663 35.75999232369941,72.70520005575963 36.74302398087457,72.8454667434853 38.530354266637005,72.67013337428216 38.85803148557898,72.7402667333663 38.94739799993113,72.88053340598708 39.06655335240066,73.65199901803862 39.03676451416686,74.5987952091964 39.185708704637364,75.68585408554645 39.12613102851901,76.66771057620645 39.245286380755715,78.17555581321358 39.2750752188731,79.89378949289676 39.334652895107865,80.38471172525897 39.334652895107865,81.50681688744226 39.424019409460016,82.45359009073582 39.48359708546195,84.59258601575857 39.5729635998141,85.25882775979699 39.543174761813134,87.5731305257359 39.6027524380479,88.06404110544827 39.63254127604887,89.01079511997523 39.63254127604887,90.69390652744914 39.5729635998141,91.39520036309841 39.66233011416625,91.9562343370053 39.5729635998141,93.14842830176349 39.75169662828557,93.95490996338776 39.84106314275414,94.93671101212385 39.960218495107256,95.60293145567994 39.93042965687346,96.30421465111431 40.04958500934299,96.865240113053 40.04958500934299,97.32107258460019 39.93042965687346,98.40805511749932 40.01979617122561,100.47681823704625 39.960218495107256,100.96770923899021 39.990007333108224,101.24821804859675 39.960218495107256,101.49366305751028 40.04958500934299,102.47544123139232 40.01979617122561,102.9312657994742 40.10916268546134,103.77278639213182 40.10916268546134,104.64936801546719 39.990007333108224,104.82468405523105 39.78148546651937,104.92987363340217 38.82824264757801,105.0 37.84521099040285,104.89481044452987 37.189856552286074,104.71949444277561 34.35991693334654,104.40392540031462 33.644984818995,104.26367239371757 32.15554291428998,104.19354586765985 29.325603295350447,103.87797631227295 28.342571638175286,103.98316619821708 27.687217200058512,103.94810290675377 26.495663676294498,104.05329276999692 25.840309238177724,103.94810290675377 25.155165961943567,103.94810290675377 24.35086733358912,103.77278639213182 23.39762451441493,103.66759643773548 22.86142542876769,103.38708972546738 22.32522634312045,103.28189964563353 21.252828171709552,103.28189964563353 20.240007676533423,102.8962023939821 18.899509962182492,102.72088530941983 17.32070154324174,102.4403777764528 17.082390838302672,102.4403777764528 16.754713619244285,102.33518738896237 16.129148019477725,102.26506044491543 15.95041499088984,102.15987000032328 15.890837314538658,102.05467952159233 15.920626152656041,101.70404434547527 16.03978150500916,101.49366305751028 16.099359181243926,101.10796367420699 16.158936857362278,99.81060782886925 16.248303371714428,99.38984265385079 16.248303371714428,97.4613286005042 16.39724756218493,97.07562441041227 16.48661407653708,96.26915052748518 16.665347105124965,95.70812403189484 16.784502457478084,95.11203231452964 16.695135943125933,94.62113242855412 16.724924781359732,94.30555353715317 16.844080133596435,93.88478120305808 17.141968514653854,93.42894389032153 17.797322952654213,91.2549417175178 17.976055981242098,90.97442424405017 18.0952113334788,90.44845332589466 18.33352203841787,89.9224815525522 18.422888552653603,89.60689807817107 19.703808590886183,86.73156779896817 20.150641162064858,85.36402369916323 20.508107219240628,84.83804365998367 20.686840247828513,84.45232442117413 21.223039333475754,83.71595005184645 21.610294228768907,83.26009841184714 22.146493314532563,82.1730649859528 22.47417053359095,81.71721117195557 22.44438169535715,81.71721117195557 23.427413352648728,79.99898717686301 23.99340127641335,79.15740474767517 24.47002268594224,78.24568797883694 25.57220969523769,76.45731300773332 26.46587483829353,74.77412753307726 27.210595790529624,73.65199901803862 27.568061847705394,73.23119982128264 28.014894419233315,73.02080001775175 28.312782800057903,72.95066671943641 30.78525636193808,72.8454667434853 31.321455447701737,72.88053340598708 32.12575407628901,72.81040007728734 32.90026386664249,72.8454667434853 33.67477365711238,72.7402667333663 34.62801647617016,72.7402667333663 35.462103942758404,72.60000000000582 36.20682489511091,72.67013337428216 36.56429095228668,72.63506668899208 38.0537328569917,72.67013337428216 38.67929845699109,72.63506668899208 38.887820323812775,72.7402667333663 39.03676451416686,73.02080001775175 39.03676451416686,74.52866225299658 39.185708704637364,75.68585408554645 39.15591986651998,76.17678270343458 39.245286380755715,77.6144979414239 39.245286380755715,78.28075405585696 39.21549754275475,78.456084384321 39.2750752188731,78.98207479930716 39.2750752188731,79.85872359070345 39.334652895107865,80.38471172525897 39.3048640571069,80.91069900456932 39.334652895107865,81.43668542872183 39.3048640571069,81.68214546743548 39.453808247460984,82.6289181576285 39.39423057122622,83.61075357659138 39.453808247460984,84.10167016863124 39.513385923579335,84.27699734241469 39.48359708546195,84.73284754951601 39.543174761813134,85.04843577829888 39.513385923579335,85.25882775979699 39.6027524380479,85.57441547533381 39.5729635998141,86.87182840547757 39.48359708546195,87.3627400493715 39.543174761813134,88.09910611840314 39.513385923579335,88.48482100944966 39.63254127604887,89.1159898393962 39.6027524380479,89.60689807817107 39.63254127604887,90.799100699689 39.6027524380479,91.57052358443616 39.66233011416625,92.16662182647269 39.63254127604887,92.44713826634688 39.69211895216722,93.04323489332455 39.69211895216722,93.74452363673481 39.811274304636754,94.44581086016842 39.811274304636754,95.14709656356717 39.75169662828557,95.7782523970236 39.870851980755106,97.14575247929315 39.78148546651937,97.91716023226036 39.900640818988904,98.72363000761834 39.870851980755106,99.31971507149865 39.990007333108224,100.51188190470566 39.900640818988904,101.24821804859675 39.990007333108224,102.72088530941983 39.93042965687346,103.31696300941985 40.10916268546134,104.47405188070843 40.01979617122561,104.75455765079823 39.93042965687346,104.85974725181586 39.424019409460016,105.0 37.93457750452217,104.96493681860738 36.594079790404066,104.71949444277561 35.521681618876755,104.57924157299567 35.13442672370002,104.61430479621049 34.38970577146392,104.40392540031462 34.181183904758655,104.40392540031462 32.69174200005364,104.19354586765985 31.976809885702096,104.19354586765985 30.01074657146819,103.87797631227295 29.62349167629145,103.87797631227295 29.236236780998297,103.91303961144877 28.223416285705753,103.87797631227295 27.74679487629328,103.80784970259992 27.359539981000125,103.80784970259992 26.853129733353853,103.63253311195876 26.52545251441188,103.59746978236944 25.155165961943567,103.7377230777056 24.499811523943208,103.7026597597287 23.54656870488543,103.49227977104601 22.772058914531954,103.52734311189852 22.32522634312045,103.28189964563353" stroke="#4dd2ff" stroke-linecap="round" stroke-linejoin="round" stroke-width="0.5"><title>2024-07-29 5.1km</title><desc>12014148662</desc></polyline><polyline fill="none" points="70.62141172518022,72.80971920498996 71.21526031033136,72.9145787563175 73.17496064153966,72.87962557637366 74.54081238759682,72.73981281841407 74.80804425093811,72.8446723925299 74.98619882646017,73.12429775673081 75.04558368504513,73.50878223651671 75.01589125569444,74.34765587374568 75.10496854339726,74.80204484943533 75.10496854339726,75.39624485146487 75.28312311903574,76.02539660132607 75.1940458312165,76.82931093976367 75.28312311903574,77.38855451488052 75.25343068968505,79.4507568157569 75.37220040685497,80.2546626147232 75.3425079776207,81.40808917357936 75.4612776945578,82.70132010610541 75.4612776945578,84.44892123484169 75.49097012367565,85.3576700789854 75.4612776945578,85.63728459269623 75.5800474116113,86.65088517271215 75.63943227019627,88.08390124645666 75.5800474116113,88.81788262308692 75.66912469943054,89.48195957194548 75.60973984096199,90.91496306564659 75.5800474116113,91.19457276104367 75.63943227019627,91.99844928469975 75.60973984096199,92.45281339006033 75.75820198713336,93.50134349774453 75.69881712866481,94.51491936124512 75.87697170418687,95.1440338123648 75.93635656265542,95.56344276460004 75.90666413353756,97.17117202887312 75.99574142124038,97.9051327240013 75.87697170418687,98.56919096136698 75.93635656265542,98.95364510532818 75.90666413353756,99.16334717257996 75.96604899200611,99.79245255619753 75.96604899200611,100.98075937709655 76.08481870917603,101.43511082805344 75.96604899200611,102.37876179639716 75.99574142124038,102.97291098959977 76.08481870917603,103.21756033936981 76.05512627982534,103.84665781498188 76.14420356764458,104.5107038191054 76.11451113829389,104.72040227320394 75.99574142124038,104.82525144916144 75.40189283608925,105.0 74.00634866079781,104.96505029738182 73.62034708051942,104.82525144916144 73.3828076464124,104.86020116694272 70.44325714954175,104.37090477402671 67.74124608689453,104.19615588229499 66.96924292610493,104.09130650188308 65.5736987509299,104.02140689597582 64.50477129756473,103.81170798736275 63.851537853712216,103.74180832086131 63.40615141473245,103.74180832086131 63.07953469292261,103.84665781498188 62.45599367865361,103.77675815607654 62.15906938596163,103.81170798736275 61.35737379593775,103.84665781498188 59.96182962064631,103.53210923043662 59.66490532818716,103.56705908838194 58.98197945521679,103.3923097611987 57.88335957238451,103.357359884365 57.28951098723337,103.14766054411302 56.72535483120009,103.07776073366404 56.36904568015598,102.90301114140311 56.042428958346136,102.83311127795605 54.02334376855288,102.58846163668204 53.577957329689525,102.48361173359444 52.330875300685875,102.37876179639716 52.18241315439809,102.34381180984201 51.944873720407486,102.16906181978993 51.855796432471834,101.85451159934746 51.944873720407486,101.36521064650151 52.21210558374878,100.80600864862208 52.330875300685875,100.35165631139535 52.360567730036564,99.72255201861844 52.3011828714516,99.2332478313765 52.330875300685875,98.81384365152917 52.21210558374878,98.0099841154879 52.39026015915442,96.82166634878376 53.25134060787968,93.74600003231899 53.459187612636015,92.66251968435245 53.845189192914404,91.6489379988925 54.08272862713784,90.74020688296878 54.349960490479134,90.32079165807227 55.00319393421523,88.60817382886307 55.27042579755653,87.48972462283564 55.53765766089782,87.07030517049134 55.98304409976117,86.05670590882073 56.36904568015598,84.90329597698292 56.57689268491231,84.55377700133249 56.99258669454139,84.06444979907246 57.58643527980894,83.08579316703253 58.26936115277931,82.1071335648594 58.71474759175908,81.26828011329053 59.189826459856704,80.56923390348675 59.66490532818716,79.55561420758022 60.19936905463692,78.92646934546065 60.615063064265996,78.12256023526425 61.268296508234926,77.21379100185004 61.71368294709828,76.44483041923377 62.18876181531232,75.36129194055684 62.45599367865361,75.08166851624264 62.63414825394284,74.767091873975 62.96076497610193,73.96317239431664 63.109227122273296,73.68354775747866 63.43584384408314,73.2990634861344 63.67338327819016,73.08934459942975 64.17815457563847,72.9145787563175 65.45492903375998,72.94953193247784 66.88016563828569,72.80971920498996 67.71155365777668,72.87962557637366 69.43371455464512,72.77476601360831 70.76987387146801,72.60000000000582 71.72003160777967,72.70485961952363 72.75926663191058,72.70485961952363 72.96711363666691,72.6699064168206 74.45173509977758,72.73981281841407 74.62988967541605,72.70485961952363 74.9268139678752,72.87962557637366 74.98619882646017,73.08934459942975 75.01589125569444,73.33401662067627 74.9565063972259,74.03307851561112 75.16435340198223,75.01176262224908 75.16435340198223,75.46615066198865 75.28312311903574,75.88558520746301 75.1940458312165,76.3749248208187 75.1940458312165,77.24874371205806 75.25343068968505,78.0876076198474 75.22373826056719,78.68180156763992 75.25343068968505,79.52066174740321 75.3425079776207,80.00999584462261 75.31281554838642,80.70904326668824 75.40189283608925,81.37313691413146 75.3425079776207,82.66636798690888 75.40189283608925,82.77122433314798 75.37220040685497,83.57512185431551 75.43158526543994,83.88968990408466 75.40189283608925,84.27416154817911 75.43158526543994,85.11300718056737 75.49097012367565,85.56738098707865 75.55035498237703,86.65088517271215 75.63943227019627,87.2450633419794 75.55035498237703,87.87419197493 75.5800474116113,88.71302824301529 75.69881712866481,89.44700818770798 75.66912469943054,90.565450605558 75.5800474116113,91.15962156234309 75.60973984096199,91.54408453928772 75.60973984096199,92.03340039250907 75.66912469943054,92.38291126166587 75.78789441648405,94.16541080261231 75.75820198713336,94.61977185501019 75.81758684583474,94.86442754114978 75.75820198713336,95.45859057758935 75.81758684583474,95.80809773481451 75.87697170418687,97.06632036456722 76.02543385047466,97.80028129840503 75.84727927506901,99.58275089797098 76.02543385047466,101.15551001095446 76.02543385047466,102.90301114140311 76.11451113829389,103.53210923043662 76.05512627982534,103.95150727490545 76.08481870917603,104.47575406343094 76.05512627982534,104.68545254028868 75.90666413353756,104.82525144916144 75.25343068968505,104.96505029738182 74.33296538260765,104.93010059092194 74.12511837796774,104.86020116694272 73.82819408539217,104.89515088085318 73.5015773633495,104.86020116694272 73.20465307077393,104.79030172762577 72.16541804664303,104.65050280364812 71.4231073152041,104.47575406343094 70.26510257390328,104.40585454093525 69.40402212552726,104.40585454093525 68.89925082807895,104.30100522868452 66.58324134582654,103.98645708727418 65.78154575568624,103.98645708727418 63.70307570754085,103.70685848206631 63.19830441009253,103.81170798736275 62.48568610777147,103.81170798736275 61.8027602348011,103.8816076387302 60.82291006925516,103.84665781498188 59.991522049997,103.60200894239824 59.60552046948578,103.4272596341907" stroke="#4dd2ff" stroke-linecap="round" stroke-linejoin="round" stroke-width="0.5"><title>2024-07-27 5.1km</title><desc>11997575827</desc></polyline><polyline fill="none" points="105.98561662354041,72.81085645378334 106.46327181532979,72.70542824399308 108.46345293160994,72.74057098440244 110.40392714866903,72.60000000000582 110.8218754415866,72.67028549974202 110.94128923944663,72.77571372094098 111.00099613855127,72.95142734667752 111.03084958810359,73.97056449798401 111.0905564869754,74.88427094428334 111.06070303742308,75.02484093824751 111.2995306334924,75.9736868031905 111.20997028483544,76.39539518512902 111.23982373438776,77.30909479770344 111.20997028483544,78.53907097890624 111.3293840829283,80.50702316331444 111.23982373438776,81.06929302195203 111.38909098191652,82.68581343413098 111.3592375323642,83.31836270578788 111.3592375323642,84.61859899989213 111.47865133034065,85.14572033638251 111.56821167899761,86.72707920393441 111.68762547685765,90.34660491574323 111.62791857786942,91.68195371318143 111.68762547685765,93.54440469411202 111.62791857786942,94.24721360488911 111.68762547685765,95.02030164730968 111.68762547685765,95.58254633875913 111.74733237584587,95.68796710981405 111.92645307281055,96.95301368963555 111.89659962325823,97.48011497466359 111.95630652224645,98.60459485222236 111.89659962325823,98.99113390952698 111.86674617393874,99.69393101509195 111.92645307281055,100.67784440383548 111.89659962325823,101.55633597818087 111.92645307281055,101.8725923623715 111.95630652224645,103.24303312969278 112.13542721921112,104.29721439417335 112.0757203202229,104.7891644781048 111.83689272427,104.9297215079423 110.67260819417424,105.0 110.19495300203562,105.0 109.32920296688098,104.8243037413049 108.911254673847,104.8945822562091 108.64257362834178,104.85944300072151 106.37371146690566,104.40263233217411 104.79147864377592,104.33235371060437 102.25393543671817,103.94582102014101 101.02994400751777,103.91068166174227 100.01492672471795,103.80526356396149 99.29844393674284,103.66470604669303 98.49240080057643,103.66470604669303 96.85046107834205,103.38359082955867 95.41749550262466,103.41873024508823 94.0442368258955,103.17275425684056 93.65614198253024,103.06733591901138 92.76053849759046,103.03219646553043 90.16328839177731,102.54024371612468 88.25266762403771,102.36454612473608 87.95413312909659,102.22398798310314 87.86457278078888,102.0482902203803 87.86457278078888,101.8023131925147 88.01384002820123,101.31035857726238 88.16310727561358,100.29130735716899 88.10340037662536,99.6236513730546 88.1929607251659,99.16683332872344 88.22281417448539,97.44497491556103 88.40193487156648,96.98815380199812 88.55120211909525,95.93394877572428 88.79002971504815,95.23114352085395 89.08856420998927,93.57954517577309 89.20797800796572,93.15785914374283 89.23783145751804,92.87673481780803 89.4169521543663,92.56046965971473 89.65577975043561,91.82251642458141 89.71548664930742,91.36568738974165 89.8946073462721,90.87371694014291 90.25284874031786,90.06547815239173 90.49167633603793,89.18695544576622 90.90962462907191,88.06244290800532 91.14845222502481,87.7110319401545 91.68581431591883,86.3756667887792 91.98434881085996,85.35656863093027 92.19332295737695,84.93487190461019 92.76053849759046,84.1969013135822 93.14863334107213,83.56435375593719 94.25321097241249,81.91269598170766 95.56676275003701,79.55819056576001 96.49221968429629,78.22279183505452 97.6863576641772,76.1142563247704 98.07445250765886,75.30598074334557 98.37298700248357,74.84912843629718 98.73122839641292,74.0759922961297 99.26859048742335,73.37313965984504 99.53727153281216,73.12714087724453 99.92536637617741,72.95142734667752 101.92554749222472,72.91628462920198 102.55246993165929,72.84599918269669 103.2689527196344,72.88114190779743 103.806314810412,72.81085645378334 106.13488387095276,72.70542824399308 108.1350649871165,72.81085645378334 110.40392714866903,72.63514275182388 110.79202199203428,72.70542824399308 110.88158234045841,72.81085645378334 110.97114268899895,73.02171277033631 111.00099613855127,74.42741804293473 111.23982373438776,75.86825962198782 111.15026338596363,76.14939869570662 111.12040993652772,76.43053752553533 111.20997028483544,77.02795672958018 111.15026338596363,77.66051703985431 111.20997028483544,79.41762253720663" stroke="#4dd2ff" stroke-linecap="round" stroke-linejoin="round" stroke-width="0.5"><title>2024-07-26 3.8km</title><desc>11987014491</desc></polyline><polyline fill="none" points="144.5174716055626,72.8462662693928 145.20484650705475,72.81108538524131 145.3542758334661,72.70554270979483 145.50370515987743,72.67036181030562 145.9818790043937,72.67036181030562 146.5198245793581,72.60000000000582 146.84856909757946,72.67036181030562 146.93822669330984,72.70554270979483 147.02788428915665,72.8814471498481 147.087656019954,73.23325574383489 146.9979984239908,73.83132947853301 147.20719948096666,75.59036348693189 147.14742775040213,76.22361339625786 147.29685707681347,78.33443750362494 147.20719948096666,78.96768205895205 147.26697121141478,80.30452761842753 147.23708534624893,80.79704827864771 147.32674294209573,81.25438822252909 147.32674294209573,83.15410109146615 147.38651467266027,84.45574978619698 147.50605813367292,85.229700589407 147.47617226850707,86.03882900162716 147.59571572963614,88.64209803458652 147.56582986435387,89.13460604351712 147.68537332548294,89.80300857473048 147.7152591907652,90.43623075555661 147.7152591907652,90.78802032233216 147.56582986435387,91.45641944889212 147.74514505604748,92.15999598975759 147.68537332548294,93.14500058503472 147.74514505604748,94.48178775506676 147.95434611290693,95.32607155232108 147.9244602478575,96.09999643734773 147.98423197830562,97.92926610365976 147.8945743824588,98.45693813011167 147.95434611290693,99.2308555508207 147.8945743824588,99.58263558673207 147.95434611290693,100.25101660448126 147.9244602478575,101.02492974803317 148.01411784358788,102.46721750125289 148.01411784358788,103.62807859940222 148.07388957415242,104.26127381247352 148.16354716999922,104.54269351065159 148.13366130460054,104.75375812422135 147.9244602478575,104.92964519740781 147.7152591907652,104.96482260065386 147.29685707681347,105.0 146.63936804060359,104.96482260065386 145.3243899680674,104.7889355464722 143.83009670407046,104.75375812422135 143.08295007201377,104.54269351065159 141.61854267306626,104.43716115242569 139.9449342173757,104.19091884981026 137.34486393781845,103.97985387028893 136.17931519181002,103.83914380767965 135.67125548189506,103.69843368406873 135.0735381762497,103.69843368406873 134.1769622177817,103.90949884659494 133.66890250798315,103.76878875357215 132.95164174120873,103.62807859940222 131.7263212647522,103.76878875357215 130.44122905749828,103.41701325401664 129.33545204205438,103.31148052986828 128.61819127516355,103.03005976427812 123.926110425964,102.29132909397595 123.83645283000078,101.90437426240533 123.83645283000078,101.5174189695681 124.13531148293987,100.84904055917286 124.19508321338799,100.39172822239925 124.16519734822214,99.54745760024525 124.19508321338799,98.94943124765996 124.10542561754119,98.14033501714584 124.31462667463347,97.1553455797548 124.37439840519801,96.55731482047122 124.52382773160934,95.78339102561586 124.64337119273841,95.39642843627371 125.18131676781923,93.18017926532775 125.39051782491151,92.44142617916805 125.53994715120643,91.73785024823155 125.71926234278362,91.21016729925759 125.86869166942779,90.96391496283468 126.04800686088856,90.29551482218085 126.43652310967445,89.2401433767809 126.61583830136806,88.95871041185455 126.88481108902488,88.14958927841508 127.42275666398928,86.98867282478022 127.93081637378782,85.58149579909514 128.61819127516355,84.31503126001917 130.47111492289696,81.57100780613837 131.21826155483723,80.05826700798934 132.3539244356798,78.33443750362494 133.28038625931367,76.71614024919108 133.66890250798315,76.18843287811615 134.02753289148677,75.41446051513776 134.147076352383,75.06265428551706 134.3562774094753,74.74602835267433 134.53559260128532,74.35904068211676 135.34251096379012,73.19807490159292 135.76091307774186,72.95180889914627 136.41840211406816,72.8462662693928 137.16554874600843,72.91662802634528 140.06447767850477,72.74072360538412 141.17025469394866,72.70554270979483 141.4093416160904,72.74072360538412 142.00705892185215,72.63518090700381 142.42546103568748,72.63518090700381 143.74043910822365,72.74072360538412 144.03929776104633,72.67036181030562 144.607129201293,72.74072360538412 145.65313448628876,72.60000000000582 146.22096592653543,72.67036181030562 146.96811255870853,72.63518090700381 147.02788428915665,72.67036181030562 147.11754188511986,73.02217063322314 147.087656019954,73.97205255008885 147.1773136156844,75.20337682307581 147.29685707681347,75.80144692733302 147.23708534624893,76.68095978439669 147.26697121141478,77.3142075657961 147.23708534624893,78.15853601903655" stroke="#4dd2ff" stroke-linecap="round" stroke-linejoin="round" stroke-width="0.5"><title>2024-07-24 3.7km</title><desc>11969555111</desc></polyline><polyline fill="none" points="177.87318526837043,104.56383235065732 177.87318526837043,104.12766380637186 177.95433463307563,102.69799396958842 177.95433463307563,102.06796692124044 178.09634602128062,99.93555382337945 178.15720804478042,99.4509114992834 178.1166333623696,98.86933925178892 178.1977827270748,98.4331590218062 178.1774953858694,97.27000736563059 178.2383574093692,96.22801193487248 178.2586447505746,93.63511741168622 178.3397941152798,92.35077476453444 178.299219432869,92.08421211049426 178.3195067740744,91.01795815079822 178.299219432869,90.29096374758228 178.3195067740744,89.29740070787375 178.4006561387796,88.4492334623501 178.3600814564852,88.27959960706357 178.299219432869,88.23113276637741 177.79203590366524,88.23113276637741 177.32542705675587,88.13419905184128 176.39220936305355,88.08573217794765 175.98646253964398,88.01303184649441 175.39812964573503,88.03726529312553 174.85037143423688,87.91609803255415 174.6272106814431,87.91609803255415 174.38376258744393,87.98879839718575 173.77514235232957,88.01303184649441 173.38968287000898,87.84339764308243 172.37531581171788,87.79493070290482 171.9898563295137,87.69799678934214 171.62468418839853,87.55259583631414 171.34066141210496,87.60106283173081 170.8334778827848,87.60106283173081 170.30600701237563,87.50412882988167 169.87997284787707,87.4798953224672 169.23077793046832,87.3102606934408 168.60187035426497,87.21332655886363 167.74980202515144,87.18909301835811 166.37026282574516,87.01945815717045 166.04566536704078,86.99522459450236 165.8225046141306,86.87405673981993 165.7819299318362,86.72865522296343 165.7819299318362,86.60748721624259 165.8833666376304,86.21974913065787 166.51227421383373,84.91112786864687 166.67457294324413,84.32951583221438 167.32376786053646,82.8270107038843 167.52664127235767,82.24539296334842 167.52664127235767,82.07575415585598 167.44549190765247,81.76071029696323 167.52664127235767,81.54260273648833 167.79037670744583,81.03368422463245 167.89181341335643,80.62170167949807 167.99325011926703,79.91890608273388 168.43957162485458,77.78627073312236 168.5004336484708,77.42275120886916 168.5004336484708,77.2531085514056 168.58158301305957,76.98652695897908 168.72359440126456,76.16254537683562 169.10905388346873,74.6842174706544 169.3525019774679,73.52093582189991 169.3727893186733,73.30281980376458 169.5959500715835,72.67270560473844 169.57566273026168,72.62423520431912 169.4945133656729,72.59999999999127 169.3930766597623,72.81811673961056 169.33221463637892,73.03623325529043 169.21049058926292,73.81175683120091 168.88589313055854,75.07197660503152 168.60187035426497,76.45336277066963 168.3989969425602,77.2531085514056 168.35842226014938,77.51968980956008 168.3381349190604,78.14978963548492 168.2164108719444,78.65871505405812 167.99325011926703,79.21610816154862 167.93238809576724,79.48268695699517 167.81066404865123,80.47629588469863 167.79037670744583,80.76710737487883 167.1006071077427,82.3665634572535 166.83687167265452,83.14205298191519 166.59342357853893,83.62673249781074 165.6602058847202,85.85624403283873 165.558769178926,86.24398278169974 165.5993438612204,86.51055276118859 165.7413552494254,86.70442162720428 166.02537802583538,86.89829031626869 166.41083750803955,86.99522459450236 168.17583618965,87.14062592897972 169.02790451887995,87.23756009661884 169.5148007067619,87.35872774412564 169.92054753028788,87.35872774412564 170.32629435358103,87.43142829940189 170.63060447108,87.38296126529167 171.44209811789915,87.43142829940189 172.65933858801145,87.62529632533551 173.2882461642148,87.69799678934214 173.47083223471418,87.77069722865417 174.20117651682813,87.96456494509766 174.5054866343271,87.94033149023016 175.13439421053044,88.06149873690447 175.6010030574398,88.06149873690447 175.9053131750552,88.10996561635693 176.93996757466812,88.08573217794765 177.71088653896004,88.1826659146318 178.2586447505746,88.15843248460442 178.4006561387796,88.23113276637741 178.441230821074,89.20046747969172 178.3803687975742,89.92746561334934 178.42094347986858,90.26673055790889 178.3803687975742,90.84832634581835 178.4006561387796,91.45415359907201 178.3600814564852,91.6237849205063 178.3397941152798,92.20537699465058 178.3600814564852,92.9081319609395 178.3195067740744,93.51395334253903 178.3397941152798,94.4590312497312 178.3195067740744,94.58019478010829 178.3397941152798,94.67712555464823 178.299219432869,95.04061556534725 178.3397941152798,95.59796570775507 178.27893209178,95.98568668398366 178.299219432869,96.88228873237676 178.2586447505746,97.99697789661877 178.27893209178,98.38469449648983 178.1977827270748,99.08742903110397 178.2180700681638,99.81439334596507 178.1774953858694,100.27480279268639 178.1977827270748,100.68674724177981 178.2180700681638,100.88060317680356 178.1774953858694,101.14715479893493 178.2180700681638,101.3167783843528 178.2180700681638,101.7771845766838 178.05577133886982,102.47990789497271 178.015196656459,102.60106685294886 177.97462197416462,102.89184807035781 177.85289792716503,104.32151660323143 177.87318526837043,105.0" stroke="#4dd2ff" stroke-linecap="round" stroke-linejoin="round" stroke-width="0.5"><title>2024-07-21 4.3km</title><desc>11945152036</desc></polyline><polyline fill="none" points="21.936789898201823,139.455983589869 22.706721340306103,142.17485012300313 23.66913564130664,143.53428206336685 25.978929965756834,145.12028487655334 27.71127570979297,145.80000000004657 30.021070033311844,145.80000000004657 32.13838149793446,145.12028487655334 34.255692961625755,143.53428206336685 35.41059012338519,141.49513382092118 35.98803870473057,138.32312149065547 33.87072724010795,118.1580734134186 32.90831293910742,116.5720501455944 31.56093291658908,114.98602567450143 29.828587173484266,113.85315031534992 27.90375856962055,113.39999999990687 25.401481384411454,113.62657516938634 23.09168705996126,114.53287560446188 21.551824177615345,116.11890041944571 20.204444154165685,118.61122269788757 20.01196129526943,121.10354200494476 21.936789898201823,139.6825559362769 22.514238479547203,141.94827804691158 24.246584222652018,143.9874258467462 26.363895686343312,145.34685660898685 28.481207150034606,145.80000000004657 30.983484335243702,145.5734283165075 33.2932786596939,144.21399770234711 34.833141542971134,142.62799420091324 35.79555584397167,140.58884507487528 35.98803870473057,138.09654899686575 34.063210100866854,118.61122269788757 33.100795798934996,116.79862497141585 31.94589863717556,115.21260067238472 30.021070033311844,113.85315031534992 28.28872429020703,113.39999999990687 25.978929965756834,113.39999999990687 23.09168705996126,114.7594506512396 21.359341317787766,116.34547529509291 20.204444154165685,119.06437188363634 20.01196129526943,121.33011633972637 22.129272758960724,140.81541729834862 23.09168705996126,142.85456620366313 24.246584222652018,143.9874258467462 25.978929965756834,145.12028487655334 28.28872429020703,145.80000000004657 30.406035753898323,145.80000000004657 32.330864356830716,144.89371311943978 34.44817582145333,143.0811381812673 35.41059012338519,141.49513382092118 35.98803870473057,138.32312149065547 33.87072724010795,118.38464806834236 32.90831293910742,116.34547529509291 31.36845005583018,114.7594506512396 29.443621452897787,113.62657516938634 27.32630998827517,113.39999999990687 24.631549943238497,113.85315031534992 22.321755618788302,115.21260067238472 20.781892736442387,117.25177455111407 20.01196129526943,119.97066996106878 35.98803870473057,138.5496939595323 34.255692961625755,119.97066996106878 33.678244380280375,117.47834930336103 32.52334721758962,115.89232551958412 30.7910014744848,114.30630053277127 28.866172870621085,113.62657516938634 26.171412826515734,113.39999999990687 24.246584222652018,114.07972543686628 22.129272758960724,115.43917564605363 20.781892736442387,117.25177455111407 20.204444154165685,119.29094643960707 20.204444154165685,121.55669065075926 22.129272758960724,140.58884507487528 22.89920420013368,142.40142217441462 24.246584222652018,144.21399770234711 26.74886140692979,145.5734283165075 28.866172870621085,145.80000000004657 31.36845005583018,145.34685660898685 33.100795798934996,144.44056953280233 34.833141542971134,142.62799420091324 35.79555584397167,140.58884507487528 35.98803870473057,138.09654899686575 34.063210100866854,118.83779730345123 33.100795798934996,116.79862497141585 31.753415775485337,115.21260067238472 29.828587173484266,113.85315031534992 27.51879284810275,113.39999999990687 25.016515663824975,113.62657516938634 22.706721340306103,114.98602567450143 21.166858457028866,116.5720501455944 20.204444154165685,118.83779730345123 20.01196129526943,121.10354200494476 22.129272758960724,140.58884507487528 23.09168705996126,142.85456620366313 24.631549943238497,144.44056953280233 26.94134426768869,145.5734283165075 29.05865573231131,145.80000000004657 31.753415775485337,145.34685660898685 33.678244380280375,143.9874258467462 34.833141542971134,142.62799420091324 35.79555584397167,140.36227282695472 35.98803870473057,137.64340393641032 33.87072724010795,118.38464806834236 32.52334721758962,115.66575059550814 30.983484335243702,114.53287560446188 29.251138592138886,113.62657516938634 26.94134426768869,113.39999999990687 25.016515663824975,113.62657516938634 22.706721340306103,114.98602567450143 20.974375596269965,117.0251997737214 20.204444154165685,118.83779730345123 20.01196129526943,121.33011633972637 21.936789898201823,139.455983589869 22.321755618788302,141.268561671488 23.66913564130664,143.53428206336685 25.401481384411454,144.89371311943978 27.71127570979297,145.80000000004657 30.213552893139422,145.80000000004657 32.52334721758962,144.89371311943978 34.44817582145333,143.30771013419144 35.60307298414409,141.268561671488 35.98803870473057,139.00283882347867 34.255692961625755,119.97066996106878 33.485761519521475,117.25177455111407 31.56093291658908,114.98602567450143 29.251138592138886,113.62657516938634 26.556378547102213,113.39999999990687 24.05410136282444,114.07972543686628 22.706721340306103,114.7594506512396 21.359341317787766,116.34547529509291 20.39692701585591,118.1580734134186 20.01196129526943,119.74409547820687 21.936789898201823,139.22941121924669 22.706721340306103,141.94827804691158 24.05410136282444,143.9874258467462 26.171412826515734,145.34685660898685 28.866172870621085,145.80000000004657 30.7910014744848,145.5734283165075 32.90831293910742,144.66714133834466 34.44817582145333,143.30771013419144 35.60307298414409,141.04198949690908 35.98803870473057,139.22941121924669 35.79555584397167,137.19025877770036 27.133827128447592,113.39999999990687 25.401481384411454,113.62657516938634 35.98803870473057,137.41683136951178 34.063210100866854,119.51752097159624 33.2932786596939,117.0251997737214 31.94589863717556,115.21260067238472 29.443621452897787,113.85315031534992 26.74886140692979,113.39999999990687 24.43906708341092,113.85315031534992 22.706721340306103,114.7594506512396 21.166858457028866,116.5720501455944 20.39692701585591,118.61122269788757 20.01196129526943,120.1972444190178 21.936789898201823,139.455983589869 22.89920420013368,142.62799420091324" stroke="#4dd2ff" stroke-linecap="round" stroke-linejoin="round" stroke-width="0.5"><title>2024-07-05 3.3km</title><desc>11814633384</desc></polyline><polyline fill="none" points="62.766118357889354,113.4000000001397 60.29835507366806,114.07034998619929 58.02041973453015,115.8579488825053 56.50179617572576,118.53934432123788 56.50179617572576,120.99728707666509 58.40007562469691,139.54348794277757 58.96955945994705,142.0014056584332 60.108527129516006,143.56553358770907 61.81697863340378,144.90621372591704 63.71525808330625,145.80000000004657 65.80336547736079,145.80000000004657 67.70164492540061,145.35310691175982 69.59992437623441,144.0124270641245 70.73889204580337,142.44829947361723 71.68803176935762,140.21382942865603 71.68803176935762,137.7559095819015 69.78975232038647,119.43314202595502 68.8406125959009,116.52829806902446 66.56267725676298,114.51724985521287 63.52543013822287,113.4000000001397 60.29835507366806,114.07034998619929 57.830591790378094,116.08139863540418 56.50179617572576,118.76279378402978 56.50179617572576,121.44418544485234 58.40007562469691,139.54348794277757 59.34921535011381,142.67174634477124 60.8678389089182,144.4593204432167 62.5762904137373,145.35310691175982 64.66439780779183,145.80000000004657 66.94233314692974,145.57655346789397 69.41009643021971,144.2358737657778 70.73889204580337,142.67174634477124 71.49820382520556,140.43727654218674 71.68803176935762,138.20280431746505 69.78975232038647,120.55038861162029 69.22026848606765,117.42209664569236 68.0813008164987,115.8579488825053 65.80336547736079,114.07034998619929 63.52543013822287,113.4000000001397 61.43732274416834,113.62345001893118 59.539043294265866,114.51724985521287 57.830591790378094,115.8579488825053 56.88145206589252,117.64554622885771 56.311968229711056,119.65659139119089 58.40007562469691,139.76693512871861 58.96955945994705,141.7779587144032 59.918699184432626,143.34208681364544 61.62715068925172,144.90621372591704 63.71525808330625,145.57655346789397 65.80336547736079,145.80000000004657 68.27112876065075,144.90621372591704 69.97958026546985,143.56553358770907 71.1185479350388,141.7779587144032 71.68803176935762,139.76693512871861 69.78975232038647,120.10349005041644 69.41009643021971,117.86899578850716 68.27112876065075,115.8579488825053 66.75250520184636,114.51724985521287 64.28474191855639,113.62345001893118 61.81697863340378,113.62345001893118 59.539043294265866,114.51724985521287 58.02041973453015,115.63449910539202 56.88145206589252,117.86899578850716 56.311968229711056,119.65659139119089 58.40007562469691,139.76693512871861 58.77973151486367,141.55451174639165 60.108527129516006,143.56553358770907 61.62715068925172,144.90621372591704 63.71525808330625,145.57655346789397 65.99319342151284,145.80000000004657 68.0813008164987,145.1296603307128 69.97958026546985,143.56553358770907 71.30837587919086,141.55451174639165 71.68803176935762,139.32004073285498 69.78975232038647,120.55038861162029 69.41009643021971,117.86899578850716 68.0813008164987,115.63449910539202 66.3728493116796,114.29379993281327 64.28474191855639,113.62345001893118 61.43732274416834,113.62345001893118 59.539043294265866,114.51724985521287 58.02041973453015,115.63449910539202 56.88145206589252,117.86899578850716 56.311968229711056,119.65659139119089 58.40007562469691,139.54348794277757 58.96955945994705,142.0014056584332 59.918699184432626,143.56553358770907 61.62715068925172,144.90621372591704 63.71525808330625,145.80000000004657 66.56267725676298,145.57655346789397 68.46095670573413,144.90621372591704 70.16940821055323,143.34208681364544 71.30837587919086,141.33106475346722 71.68803176935762,139.32004073285498 69.78975232038647,120.77383785578422 69.22026848606765,117.64554622885771 68.0813008164987,115.63449910539202 65.80336547736079,114.07034998619929 63.52543013822287,113.4000000001397 60.488183019682765,114.07034998619929 58.40007562469691,115.187599477591 57.261107955127954,116.75174774904735 56.50179617572576,118.53934432123788 56.311968229711056,119.88004073314369 58.40007562469691,140.21382942865603 59.34921535011381,142.67174634477124 60.67801096383482,144.2358737657778 62.766118357889354,145.35310691175982 64.85422575194389,145.80000000004657 67.70164492540061,145.35310691175982 69.22026848606765,144.2358737657778 70.9287199890241,142.22485257778317 71.68803176935762,140.21382942865603 71.68803176935762,137.9793569620233 69.78975232038647,119.65659139119089 69.22026848606765,117.42209664569236 68.0813008164987,115.63449910539202 66.18302136659622,114.29379993281327 63.71525808330625,113.4000000001397 61.24749479815364,113.62345001893118 59.539043294265866,114.29379993281327 58.02041973453015,115.8579488825053 56.88145206589252,117.64554622885771 56.50179617572576,119.43314202595502 58.40007562469691,139.76693512871861 58.96955945994705,142.0014056584332 60.108527129516006,143.78898033848964 61.81697863340378,144.90621372591704 64.28474191855639,145.80000000004657 66.3728493116796,145.57655346789397 68.27112876065075,144.90621372591704 69.97958026546985,143.56553358770907 71.30837587919086,141.33106475346722 71.68803176935762,139.32004073285498 69.78975232038647,120.10349005041644 69.03044054098427,117.1986470380798 67.32198903616518,114.96414962783456 64.47456986177713,113.62345001893118 62.386462467722595,113.4000000001397 59.728871239349246,114.29379993281327 58.58990357071161,115.187599477591 57.261107955127954,116.75174774904735 56.88145206589252,117.64554622885771 56.311968229711056,119.88004073314369 58.21024768054485,139.32004073285498 58.96955945994705,142.0014056584332 60.67801096383482,144.2358737657778 62.386462467722595,145.35310691175982 64.66439780779183,145.80000000004657 66.75250520184636,145.57655346789397 68.65078465081751,144.68276709667407 69.97958026546985,143.56553358770907 71.1185479350388,141.7779587144032 71.68803176935762,139.76693512871861 69.41009643021971,118.09244532324374 68.27112876065075,115.8579488825053 66.75250520184636,114.51724985521287 64.66439780779183,113.62345001893118 62.386462467722595,113.4000000001397 60.108527129516006,114.07034998619929 58.40007562469691,115.4110493035987 57.071280010044575,116.97519740578718 56.50179617572576,119.20969263557345 58.21024768054485,139.0965934980195 58.96955945994705,142.0014056584332 60.108527129516006,143.56553358770907 62.00680657848716,145.1296603307128 64.66439780779183,145.80000000004657 66.56267725676298,145.57655346789397 68.8406125959009,144.68276709667407 70.35923615563661,143.34208681364544 71.30837587919086,141.55451174639165 71.68803176935762,139.32004073285498 69.78975232038647,119.43314202595502 69.22026848606765,117.42209664569236 67.51181698217988,115.187599477591 65.61353753134608,113.84690001490526 62.766118357889354,113.4000000001397 60.29835507366806,114.07034998619929 58.58990357071161,115.187599477591 57.450935900211334,116.52829806902446 56.69162412080914,118.31589483469725 56.311968229711056,119.65659139119089" stroke="#4dd2ff" stroke-linecap="round" stroke-linejoin="round" stroke-width="0.5"><title>2024-06-26 3.9km</title><desc>11744480107</desc></polyline><polyline fill="none" points="106.64239467226434,113.68114190781489 108.1649210912874,113.64599918265594 110.07554248021916,113.39999999999418 110.64275820506737,113.39999999999418 110.79202550102491,113.43514275184134 110.94129279698245,113.57571372092934 111.06070663384162,113.78657006038702 111.03085317462683,115.61398592428304 111.06070663384162,116.00055334490025 111.18012047070079,116.4925475770433 111.29953430744354,118.70651238245773 111.26968084822875,119.2687867511413 111.35924122587312,120.53390051514725 111.32938776677474,121.90443485541618 111.47865506273229,123.83722984802444 111.4488016035175,124.57520307853702 111.50850852171425,125.6645890630316 111.47865506273229,126.50798215018585 111.53836198104545,127.70278526822221 111.50850852171425,128.22990289109293 111.65777581790462,130.26808297043317 111.65777581790462,130.58435114476015 111.747336195549,131.35744982783217 111.65777581790462,132.0251244798419 111.83689657319337,133.46589141292498 111.71748273621779,134.73094978305744 111.77718965453096,135.08235401005368 111.83689657319337,136.87450964347227 111.89660349150654,137.19077137418208 111.86675003229175,137.7178735731286 111.92645695072133,138.139554715337 111.86675003229175,139.22889512803522 111.92645695072133,139.36945491473307 111.92645695072133,140.07225293424563 112.04587078746408,141.12644710743916 111.9861638690345,141.82924131897744 112.07572424667887,143.12940659490414 112.01601732824929,144.07817256019916 112.13543116499204,144.9215177546721 112.07572424667887,145.58916447812226 111.80704311386216,145.69458225619746 111.23982738913037,145.69458225619746 110.46363744989503,145.79999999998836 109.83671480673365,145.72972150784335 109.1202317859279,145.55402521122596 108.34404184669256,145.41346810525283 107.14990347856656,145.3431895294343 106.4632739169756,145.16749302329845 105.2989890081808,145.02693574971636 103.41822107858025,144.95665709019522 102.19422925135586,144.71068166173063 101.4777462304337,144.64040293358266 101.11950472008903,144.64040293358266 100.19404748501256,144.53498481278075 99.32829716813285,144.3241484684404 98.76108144328464,144.35928786874865 98.19386571843643,144.28900906446506 97.41767577920109,144.04303312962293 96.8206065952545,144.14845141017577 96.04441665601917,144.14845141017577 95.17866633925587,143.9727542567125 94.04423488967586,143.9727542567125 93.08892419515178,143.83219646546058 92.34258771524765,143.58622018402093 90.9991820511641,143.4808017204923 90.10357827518601,143.26996469084406 88.01383613108192,143.02398798285867 87.86456883500796,142.77801108837593 87.86456883500796,142.60231319238665 88.22281034546904,141.72382228437345 88.19295688637067,141.44270469111507 88.25266380480025,140.91560854695854 88.13324996782467,139.1937551717856 88.55119839683175,136.76908899811679 88.43178455997258,136.06628381941118 88.46163801918738,135.64459998099483 88.55119839683175,135.22291559411678 88.81987952953205,134.20384272863157 89.50650909112301,132.76307907461887 89.8946040609153,131.5331538169121 90.25284557114355,130.6897738010157 90.58123362238985,129.77610964156338 90.90962167363614,129.07328930552467 91.08874242869206,128.5110319396481 91.68581161287148,127.21080804691883 91.8649323679274,126.50798215018585 92.1336135007441,126.15656863045297 92.28288079681806,125.73487190404558 92.67097576637752,125.24289169671829 93.3277518687537,124.15350429544924 93.29789840965532,124.15350429544924 93.44716570561286,124.01293791245553 93.80540721595753,123.41553010520875 94.10394180798903,122.78297946226667 94.90998520655558,121.37730694859056 95.4174940129742,120.67446840647608 96.10412357456516,119.62020773626864 96.79075313603971,118.39023262169212 97.05943426885642,117.75767217422253 97.41767577920109,117.23053752537817 97.83562420797534,116.14112320161075 98.40283993293997,115.68427094409708 99.50741792330518,113.92714087714558 99.83580597455148,113.71628462916124 99.98507327050902,113.68114190781489" stroke="#4dd2ff" stroke-linecap="round" stroke-linejoin="round" stroke-width="0.5"><title>2024-06-17 3.2km</title><desc>11672403120</desc></polyline><polyline fill="none" points="152.19999998807907,118.15832583606243 119.80000001192093,141.04167415946722" stroke="#4dd2ff" stroke-linecap="round" stroke-linejoin="round" stroke-width="0.5"><title>2024-05-09 8.0km</title><desc>9223370321595310162</desc></polyline><polyline fill="none" points="155.80000000074506,124.58172398433089 162.62105263397098,127.59269151836634 158.35789473354816,122.57441175170243 177.1157894730568,133.61462364904583 188.19999999925494,136.6255882475525 181.37894736975431,135.6219334891066 158.35789473354816,131.6073133731261" stroke="#4dd2ff" stroke-linecap="round" stroke-linejoin="round" stroke-width="0.5"><title>2024-05-08 6.2km</title><desc>9223370321684028463</desc></polyline><polyline fill="none" points="28.00000001490116,154.19999999925494 22.99551995098591,186.59999999962747 33.00448006391525,174.81818628683686 33.00448006391525,177.76364019699395" stroke="#4dd2ff" stroke-linecap="round" stroke-linejoin="round" stroke-width="0.5"><title>2024-05-07 6.1km</title><desc>9223370321771754451</desc></polyline><polyline fill="none" points="168.0679089576006,154.19999999925494 187.72836419939995,186.60000000149012 156.27163580060005,186.60000000149012" stroke="#4dd2ff" stroke-linecap="round" stroke-linejoin="round" stroke-width="0.5"><title>2024-05-02 6.8km</title><desc>9223370322200251369</desc></polyline><polyline fill="none" points="19.899999998509884,220.73474477045238 11.799999997019768,223.45895452424884 44.19999999552965,211.2000059792772 39.57142857462168,215.28632348868996 43.04285714030266,207.1136871408671 44.19999999552965,198.94104547519237 44.19999999552965,200.30315278563648" stroke="#4dd2ff" stroke-linecap="round" stroke-linejoin="round" stroke-width="0.5"><title>2024-05-01 4.0km</title><desc>9223370322286947528</desc></polyline><polyline fill="none" points="47.80000000074506,214.48783953860402 80.19999999925494,207.9121604617685 70.14482758566737,211.85756833665073 79.08275861665606,214.48783953860402" stroke="#4dd2ff" stroke-linecap="round" stroke-linejoin="round" stroke-width="0.5"><title>2024-04-30 5.3km</title><desc>9223370322373916531</desc></polyline><polyline fill="none" points="83.80000000004657,208.9477810143726 85.17763779498637,210.44932819029782 87.93291338556446,209.84870980819687 89.00440944870934,210.6895753608551 100.63779527554289,200.65916738443775 113.13858267711475,200.77929310500622 115.58771653519943,203.24186463857768 116.09795275586657,217.95700304058846 113.13858267711475,221.44052962493151 98.9029921258334,221.5606508407509 96.50488188955933,220.11919453268638 88.64724409417249,219.7588298699702 88.18803149578162,212.0109329370316 90.27999999979511,209.30815270770108 100.79086614144035,200.65916738443775 112.98551181098446,200.77929310500622 115.33259842521511,203.1217394519481 116.09795275586657,206.0047367470106 115.79181102337316,218.8579171875026 112.78141732257791,221.68077203031862 99.26015747990459,221.68077203031862 96.81102362181991,220.17925528716296 88.03496062941849,219.39846497273538 88.4941732280422,211.41031624755124 99.92346456670202,200.9594816371682 113.49574803118594,200.89941879961407 116.09795275586657,204.26292767492123 115.84283464541659,217.41645384940784 115.536692913156,219.15822157775983 112.88346456666477,221.6207114388235 99.26015747990459,221.50059023598442 96.50488188955933,220.05913377174875 88.74929133825935,219.69876906997524 87.93291338556446,218.31736887502484 88.08598425169475,213.57253328332445 88.4941732280422,211.59050132276025 100.07653543306515,201.0796072926605 112.88346456666477,200.7192302479525 115.58771653519943,203.1818020485225 115.84283464541659,218.7978562899516 113.03653543279506,221.5606508407509 111.70992125989869,221.68077203031862 99.77039370080456,221.74083261552732 96.75999999977648,220.23931603494566 88.80031496030279,219.7588298699702 87.77984251943417,216.51553735911148 88.13700787397102,214.7136999841896 88.95338582643308,214.41339318547398 88.03496062941849,214.2332090283744 88.08598425169475,213.03197981551057 90.22897637751885,209.60846227302682 100.48472440941259,200.9594816371682 113.75086614163592,201.31985852547223 115.94488188973628,203.9025527005433 116.04692913382314,217.83688104362227 113.18960629892536,221.20028711517807 98.85196850378998,221.68077203031862 94.9741732282564,219.93901223060675 88.95338582643308,219.7588298699702 88.13700787397102,218.8579171875026 87.98393700784072,213.57253328332445 88.64724409417249,211.1700693894527 100.07653543306515,200.9594816371682 113.24062992096879,201.0195444681449 115.79181102337316,203.84249018208357 116.19999999995343,208.52734707604395 115.84283464541659,217.59663697169162 113.29165354324505,221.3204083830933 98.80094488174655,221.68077203031862 96.55590551160276,220.11919453268638 88.4941732280422,219.638708263461 88.64724409417249,211.3502545428928" stroke="#4dd2ff" stroke-linecap="round" stroke-linejoin="round" stroke-width="0.5"><title>2024-04-27 9.8km</title><desc>1714200483443</desc></polyline><polyline fill="none" points="119.80000000004657,208.1262787936139 120.30704225366935,209.85717289079912 121.32112676068209,210.57340333954198 122.89295774651691,210.39434581471141 124.0591549295932,209.97654469695408 124.76901408447884,210.57340333954198 126.34084507031366,209.91685879707802 128.115492957877,208.60376736387843 128.57183098606765,207.88753435312537 129.5859154930804,207.11161420703866 132.12112676072866,204.6047878015088 133.69295774656348,203.17231044598157 135.67042253538966,201.20264799747383 138.4591549297329,200.72515300952364 142.05915492982604,200.78483990568202 143.4788732395973,200.4864053603378 144.79718309873715,200.90421367855743 148.1943661973346,200.96390055521624 149.46197183104232,201.14296114665922 151.54084507073276,203.4110569305485 152.0478873241227,206.39537925593322 152.0478873241227,209.73780105874175 152.0478873241227,213.37863029458094 152.0478873241227,216.84038003039313 151.54084507073276,219.168096065172 149.10704225371592,221.49580226128455 145.6591549294535,221.67485617648344 142.26197183108889,221.61517154466128 138.35774647910148,221.79422542097745 134.96056338050403,221.61517154466128 133.33802816923708,220.60053181176772 130.95492957741953,219.94399922376033 127.45633802842349,219.94399922376033 124.76901408447884,219.82462957839016 124.31267605652101,219.10841116163647 124.00845070439391,215.40793450310593 124.31267605652101,212.12523278273875 124.97183098620735,211.05088978796266 126.39154929597862,209.43937136547174 127.91267605661415,208.54408131516539 130.65070422552526,206.39537925593322 133.03380281710997,204.0676092299982 135.41690140869468,201.73982936394168 136.83661971846595,200.84452679537935 140.43661971832626,200.96390055521624 143.1746478874702,201.32202167977812 143.98591549298726,201.14296114665922 146.11549295764416,200.96390055521624 148.95492957765236,200.96390055521624 150.17183098639362,201.85920292983064 151.895774648292,204.4257283360348 152.09859154955484,207.9472204730846 151.895774648292,210.81214661546983 152.0478873241227,213.7367433452746 152.14929577498697,217.3775461424957 150.62816901435144,220.1827384372591 148.75211267615668,221.73454080184456 144.79718309873715,221.79422542097745 142.0084507043939,221.8539100336493 138.7126760566607,221.79422542097745 135.31549295783043,221.73454080184456 133.18591549317352,220.54084706347203 131.7154929577373,220.1827384372591 130.39718309883028,220.36179277935298 126.64507042244077,220.00368403689936 124.71830985951237,220.00368403689936 123.95774647896178,219.10841116163647 123.95774647896178,215.64667568309233 124.46478873235174,211.88649007619824 125.88450704235584,210.39434581471141 127.65915492968634,208.78282547090203 129.78873239434324,207.11161420703866 132.07042253529653,204.6047878015088 134.80845070444047,202.21732347208308 136.63380281697027,200.90421367855743 140.58873239462264,200.78483990568202 142.566197183216,200.96390055521624 143.98591549298726,200.90421367855743 147.8901408452075,200.78483990568202 149.46197183104232,201.08327428932535 151.7436619719956,203.70948989101453 152.14929577498697,205.91788877063664 151.84507042285986,208.96188351971796 151.99718309892341,209.79748697805917 151.84507042285986,213.557686849148 151.7943661971949,217.4969163184869 151.4901408450678,219.2277809624793 149.76619718316942,220.89895545662148 148.85352112702094,221.67485617648344 145.1014084510971,221.73454080184456 142.41408450715244,221.67485617648344 139.016901408555,221.55548690608703 135.31549295783043,221.55548690608703 132.983098591445,220.36179277935298 131.7154929577373,220.06336884346092 129.07887323969044,219.88431440427667 125.32676056353375,219.82462957839016 124.26197183108889,219.168096065172 124.0591549295932,216.42258380318526 124.21126760565676,213.67705785296857 125.88450704235584,210.39434581471141 127.96338028181344,209.20062749437056 129.94084507063963,207.17130041104974 130.44788732402958,206.5147518122685 132.0197183098644,205.08227942528902 133.64225352136418,203.4110569305485 136.12676056358032,201.2623348419438 137.647887323983,200.90421367855743 139.6253521128092,201.08327428932535 142.16056338045746,200.96390055521624 143.4788732395973,201.2623348419438 146.21690140874125,200.90421367855743 148.85352112702094,200.90421367855743 150.67887323978357,202.3963836557814 151.99718309892341,204.30635532637825 151.895774648292,207.9472204730846 151.84507042285986,210.63308916828828 151.9464788734913,214.0948561631376 151.895774648292,217.4969163184869 151.7943661971949,218.8696714824182 150.27323943702504,220.48116230842425 147.68732394394465,221.73454080184456 144.79718309873715,221.79422542097745 141.85633802833036,221.79422542097745 139.2704225354828,221.91359463968547 137.1408450708259,221.79422542097745 135.82253521145321,221.79422542097745 133.64225352136418,221.07800956600113 131.46197183104232,220.06336884346092 129.63661971851252,219.82462957839016 127.40563380299136,219.64557506144047 124.92112676054239,219.82462957839016 124.31267605652101,219.2874658529763 123.90704225352965,216.60163936804747 124.26197183108889,214.81108110031346 125.07323943660595,214.5126541563659 124.46478873235174,214.5126541563659 124.21126760565676,213.13988813146716 125.52957746502943,210.6927749904571 126.34084507031366,209.73780105874175 127.70985915511847,208.9021975097712 129.63661971851252,207.2906727992813 131.51267605647445,205.73882973194122 133.1352112677414,204.00792268972145 135.56901408475824,201.68014257139293 136.53239436633885,201.14296114665922 139.87887323950417,201.02358742558863 142.71830985927954,201.2623348419438 143.4788732395973,201.38170851115137 145.86197183118202,201.14296114665922 148.75211267615668,201.02358742558863 150.93239436624572,202.8141905249795 152.0478873241227,205.85820243082708 152.09859154955484,209.3796854072716 151.99718309892341,212.8414602817502 151.9464788734913,216.2435281802318 151.7436619719956,218.63093169982312 149.15774647891521,221.2570636170567 145.70985915488563,221.49580226128455 142.41408450715244,221.43611760996282 139.06760563375428,221.37643295212183 137.24225352122448,221.55548690608703 134.9098591550719,221.73454080184456 132.62816901435144,220.30210800521309 129.18028169032186,220.00368403689936 125.88450704235584,219.94399922376033 124.71830985951237,219.64557506144047 124.26197183108889,218.92935641185613 124.16056338022463,215.58699039777275 124.10985915502533,213.67705785296857 124.51549295778386,211.6477472660481 126.23943661991507,210.03623059025267 128.06478873244487,208.18596488737967 130.60000000009313,206.09694775094977 133.38873239443637,203.76917646359652 135.72112676058896,201.50108215463115 136.58309859177098,200.96390055521624 139.98028169036843,201.08327428932535 143.52957746502943,201.32202167977812 146.01408450724557,201.14296114665922 149.20845070434734,201.20264799747383 150.98309859167784,202.99325051449705 151.7436619719956,204.00792268972145 151.99718309892341,206.15663406491512 152.14929577498697,208.663453406014 151.99718309892341,212.1849184432649 151.99718309892341,215.46761980786687 151.7943661971949,217.67597153387032 151.33802816900425,219.2277809624793 149.664788732538,221.13769425608916 147.58591549331322,221.61517154466128 144.1380281690508,221.73454080184456 140.2338028170634,221.67485617648344 137.24225352122448,221.55548690608703 134.8591549298726,221.73454080184456 133.33802816923708,220.48116230842425 130.90422535245307,219.94399922376033 127.05070422543213,219.76494474580977 125.02253521117382,219.88431440427667 124.26197183108889,219.34715073736152 124.21126760565676,217.1984908299055 124.21126760565676,213.85611431056168 124.76901408447884,211.4686900905799" stroke="#4dd2ff" stroke-linecap="round" stroke-linejoin="round" stroke-width="0.5"><title>2024-04-27 10.1km</title><desc>9223370322649067555</desc></polyline><polyline fill="none" points="172.0,208.47579054161906 181.25714284181595,208.47579054161906 169.68571427464485,213.9242094606161 155.79999999701977,208.47579054161906 188.19999998807907,213.9242094606161 162.74285712838173,213.9242094606161" stroke="#4dd2ff" stroke-linecap="round" stroke-linejoin="round" stroke-width="0.5"><title>2024-04-26 5.2km</title><desc>9223370322713802999</desc></polyline><polyline fill="none" points="49.67826086934656,252.00000727863517 49.20869565196335,251.81576117838267 50.30434782523662,252.36849941930268 51.24347826093435,253.2897294217255 53.90434782579541,253.2897294217255 55.156521739438176,252.55274545995053 55.31304347794503,251.6315150577575 54.68695652112365,252.55274545995053 54.21739130374044,251.81576117838267 55.0,251.44726891734172 58.44347826112062,251.44726891734172 59.69565217383206,251.81576117838267 61.886956522241235,251.6315150577575 62.200000000186265,250.71028415695764 61.41739130485803,249.78905275673606 59.069565217942,248.68357441783883 57.817391304299235,247.9465884581441 56.095652173273265,247.02535556047224 55.156521739438176,250.3417916566832 55.156521739438176,251.44726891734172 54.37391304317862,252.18425335921347 53.434782608412206,252.00000727863517 52.182608695700765,252.18425335921347 50.773913042619824,251.81576117838267 50.460869564674795,253.1054834612878 51.869565217755735,253.65822128287982 50.773913042619824,254.39520476583857 51.869565217755735,254.57945058634505 51.55652173794806,255.50067939108703 50.773913042619824,256.05341643374413 47.799999999813735,256.97464443952776 52.02608695626259,253.84246718348004 53.121739130467176,253.2897294217255 52.808695651590824,252.18425335921347 56.25217391271144,253.2897294217255 57.66086956579238,253.1054834612878 58.75652173906565,253.65822128287982 58.130434782244265,254.39520476583857 58.44347826112062,255.13218792923726 59.38260869588703,255.86917077284306 59.38260869588703,256.6061532967724 58.130434782244265,256.97464443952776 55.62608695589006,255.86917077284306 55.469565217383206,254.76369638729375 57.03478260803968,254.57945058634505 57.817391304299235,255.13218792923726 59.69565217383206,254.57945058634505 60.00869565270841,255.68492509180214 58.75652173906565,256.4219076959416 57.34782608691603,256.4219076959416 53.121739130467176,253.84246718348004 50.773913042619824,251.81576117838267 49.67826086934656,251.44726891734172 48.58260869514197,251.6315150577575 49.20869565196335,250.89453037746716 50.460869564674795,251.26302275736816 51.40000000037253,251.07877657725476 50.773913042619824,251.81576117838267 49.36521739047021,251.81576117838267 47.799999999813735,252.00000727863517 51.24347826093435,252.18425335921347 52.495652173645794,251.6315150577575 53.434782608412206,251.6315150577575 54.21739130374044,252.36849941930268 56.095652173273265,251.44726891734172 56.8782608686015,251.81576117838267 57.817391304299235,251.81576117838267 58.44347826112062,252.36849941930268 59.38260869588703,252.7369914802257 60.32173913065344,252.55274545995053 61.10434782598168,252.7369914802257 62.04347826074809,253.84246718348004 63.60869565233588,254.94794216798618 64.86086956504732,254.76369638729375 65.79999999981374,255.13218792923726 64.54782608617097,254.57945058634505 62.200000000186265,254.02671306428965 63.139130434952676,253.65822128287982 63.29565217345953,254.76369638729375 64.39130434859544,254.57945058634505 64.54782608617097,253.65822128287982 65.3304347814992,254.39520476583857 66.26956521719694,254.57945058634505 63.60869565233588,254.57945058634505 64.86086956504732,254.76369638729375 65.17391304392368,254.210958924843 65.95652173925191,254.57945058634505 66.73913043458015,255.13218792923726 64.07826086878777,256.05341643374413 65.79999999981374,255.50067939108703 67.83478260878474,253.84246718348004 67.0521739134565,252.92123748059385 67.0521739134565,253.65822128287982 65.3304347814992,254.02671306428965 63.60869565233588,253.84246718348004 62.35652173869312,253.1054834612878 59.38260869588703,252.92123748059385 60.79130434803665,253.1054834612878 61.57391304336488,254.02671306428965 63.139130434952676,253.2897294217255 66.26956521719694,253.1054834612878 68.14782608766109,253.65822128287982 70.02608695626259,253.84246718348004 71.27826086990535,253.84246718348004 74.72173913009465,254.210958924843 78.00869565177709,254.57945058634505 80.20000000018626,254.94794216798618 78.00869565177709,254.94794216798618 77.5391304353252,254.94794216798618 75.5043478263542,254.94794216798618 73.78260869625956,254.76369638729375 72.5304347826168,254.94794216798618 70.80869565159082,254.94794216798618 70.18260869570076,254.39520476583857 68.14782608766109,253.84246718348004 71.27826086990535,253.47397536260542 72.5304347826168,254.210958924843 73.31304347794503,253.84246718348004 72.37391304410994,253.65822128287982 72.84347826149315,253.84246718348004 72.06086956523359,254.210958924843 71.12173913046718,254.210958924843 72.37391304410994,253.47397536260542" stroke="#4dd2ff" stroke-linecap="round" stroke-linejoin="round" stroke-width="0.5"><title>2024-04-24 3.4km</title><desc>9223370322893282018</desc></polyline><polyline fill="none" points="116.19999999925494,253.68260029517114 86.65882353112102,249.1956665813923 83.80000000074506,254.8043334186077 87.61176471039653,250.31740019097924" stroke="#4dd2ff" stroke-linecap="round" stroke-linejoin="round" stroke-width="0.5"><title>2024-04-23 3.1km</title><desc>9223370322979897699</desc></polyline></svg>