<?xml version="1.0" encoding="utf-8" ?>
<svg baseProfile="full" height="300mm" version="1.1" viewBox="0,0,200,300" width="200mm" xmlns="http://www.w3.org/2000/svg" xmlns:ev="http://www.w3.org/2001/xml-events" xmlns:xlink="http://www.w3.org/1999/xlink"><defs /><rect fill="#222222" height="300" width="200" x="0" y="0" /><text fill="#FFFFFF" style="font-size:12px; font-family:Arial; font-weight:bold;" x="10" y="20">Over 3km Runs</text><text fill="#FFFFFF" style="font-size:4px; font-family:Arial" x="10" y="280">ATHLETE</text><text fill="#FFFFFF" style="font-size:9px; font-family:Arial" x="10" y="290">L</text><text fill="#FFFFFF" style="font-size:4px; font-family:Arial" x="120" y="280">STATISTICS</text><text fill="#FFFFFF" style="font-size:3px; font-family:Arial" x="120" y="285">Number: 4</text><text fill="#FFFFFF" style="font-size:3px; font-family:Arial" x="120" y="290">Weekly: 4.0</text><text fill="#FFFFFF" style="font-size:3px; font-family:Arial" x="141" y="285">Total: 16.9 km</text><text fill="#FFFFFF" style="font-size:3px; font-family:Arial" x="141" y="290">Avg: 4.2 km</text><text fill="#FFFFFF" style="font-size:3px; font-family:Arial" x="167" y="285">Min: 3.1 km</text><text fill="#FFFFFF" style="font-size:3px; font-family:Arial" x="167" y="290">Max: 5.2 km</text><polyline fill="none" points="55.00000002980232,68.18947634845972 78.1428571343422,68.18947634845972 49.21428570151329,81.81052364781499 14.5,68.18947634845972 95.5,81.81052364781499 31.857142835855484,81.81052364781499" stroke="#4dd2ff" stroke-linecap="round" stroke-linejoin="round" stroke-width="0.5"><title>2024-04-26 5.2km</title><desc>9223370322713802999</desc></polyline><polyline fill="none" points="148.85714285820723,106.78248503059149 185.5,43.21751496940851 173.92857142537832,43.21751496940851 164.28571428358555,47.75787636451423 154.64285714924335,50.02805669605732 137.28571428358555,50.02805669605732 116.07142857462168,65.91931213065982 108.35714285075665,81.81055551208556 127.6428571343422,86.3509085457772 104.5,75.00002411194146 116.07142857462168,84.08073215559125 129.5714285671711,86.3509085457772 133.42857142537832,90.89126059599221 117.99999999254942,104.51231085136533 123.78571428358555,97.70178683102131 116.07142857462168,93.16143625415862 117.99999999254942,93.16143625415862" stroke="#4dd2ff" stroke-linecap="round" stroke-linejoin="round" stroke-width="0.5"><title>2024-04-25 5.2km</title><desc>9223370322805955311</desc></polyline><polyline fill="none" points="44.239130433648825,226.38186364946887 36.41304347850382,217.63016819255427 37.978260869160295,219.93324769241735 36.80434782616794,222.23632594337687 35.239130433648825,224.07878764439374 31.326086957007647,222.23632594337687 32.10869565047324,224.53940294589847 29.369565218687057,225.46063339803368 27.80434782616794,224.07878764439374 24.282608695328236,222.69694144278765 18.804347824305296,223.61817229352891 19.19565217383206,225.00001819618046 18.021739130839705,224.53940294589847 20.76086956448853,225.9212485481985 23.108695650473237,228.22432355443016 29.76086956448853,228.22432355443016 32.89130434766412,226.38186364946887 33.282608695328236,224.07878764439374 31.71739130280912,226.38186364946887 30.543478259816766,224.53940294589847 32.5,223.61817229352891 41.10869565233588,223.61817229352891 44.239130433648825,224.53940294589847 49.717391304671764,224.07878764439374 50.5,221.7757103922777 48.54347826167941,219.47263189172372 42.673913044855,216.70893604448065 39.543478259816766,214.86647114530206 35.239130433648825,212.563388901297 32.89130434766412,220.85447914153337 32.89130434766412,223.61817229352891 30.934782607480884,225.46063339803368 28.58695651963353,225.00001819618046 25.45652173832059,225.46063339803368 21.934782607480884,224.53940294589847 21.152173912152648,227.76370865292847 24.673913042992353,229.14555320702493 21.934782607480884,230.9880119143054 24.673913042992353,231.4486264656298 23.891304345801473,233.75169847765937 21.934782607480884,235.13354108436033 14.5,237.436611098703 25.06521739065647,229.60616795858368 27.80434782616794,228.22432355443016 27.02173912897706,225.46063339803368 35.63043478317559,228.22432355443016 39.15217391401529,227.76370865292847 41.89130434580147,229.14555320702493 40.326086955145,230.9880119143054 41.10869565233588,232.83046982297674 43.45652173832059,234.67292693210766 43.45652173832059,236.51538324169815 40.326086955145,237.436611098703 34.065217388793826,234.67292693210766 33.67391304299235,231.90924096805975 37.58695652149618,231.4486264656298 39.543478259816766,232.83046982297674 44.239130433648825,231.4486264656298 45.021739130839705,234.21231272956356 41.89130434580147,236.05476923985407 38.36956521682441,236.05476923985407 27.80434782616794,229.60616795858368 21.934782607480884,224.53940294589847 19.19565217383206,223.61817229352891 16.45652173832059,224.07878764439374 18.021739130839705,222.23632594337687 21.152173912152648,223.157556893304 23.5,222.69694144278765 21.934782607480884,224.53940294589847 18.413043476641178,224.53940294589847 14.5,225.00001819618046 23.108695650473237,225.46063339803368 26.239130433648825,224.07878764439374 28.58695651963353,224.07878764439374 30.543478259816766,225.9212485481985 35.239130433648825,223.61817229352891 37.195652171969414,224.53940294589847 39.543478259816766,224.53940294589847 41.10869565233588,225.9212485481985 43.45652173832059,226.84247870044783 45.80434782616794,226.38186364946887 47.76086956448853,226.84247870044783 50.10869565233588,229.60616795858368 54.021739130839705,232.36985541973263 57.15217391215265,231.90924096805975 59.5,232.83046982297674 56.36956521682441,231.4486264656298 50.5,230.06678266031668 52.84782608598471,229.14555320702493 53.239130433648825,231.90924096805975 55.97826087102294,231.4486264656298 56.36956521682441,229.14555320702493 58.326086955145,230.9880119143054 60.67391304299235,231.4486264656298 54.021739130839705,231.4486264656298 57.15217391215265,231.90924096805975 57.93478260934353,230.52739731175825 59.89130434766412,231.4486264656298 61.84782608784735,232.83046982297674 55.195652171969414,235.13354108436033 59.5,233.75169847765937 64.58695652149618,229.60616795858368 62.63043478317559,227.30309370113537 62.63043478317559,229.14555320702493 58.326086955145,230.06678266031668 54.021739130839705,229.60616795858368 50.89130434580147,227.76370865292847 43.45652173832059,227.30309370113537 46.978260869160295,227.76370865292847 48.934782607480884,230.06678266031668 52.84782608598471,228.22432355443016 60.67391304299235,227.76370865292847 65.36956521868706,229.14555320702493 70.06521739065647,229.60616795858368 73.19565217383206,229.60616795858368 81.8043478243053,230.52739731175825 90.0217391308397,231.4486264656298 95.5,232.36985541973263 90.0217391308397,232.36985541973263 88.84782608784735,232.36985541973263 83.76086956635118,232.36985541973263 79.45652174018323,231.90924096805975 76.32608695700765,232.36985541973263 72.02173912897706,232.36985541973263 70.45652173832059,230.9880119143054 65.36956521868706,229.60616795858368 73.19565217383206,228.68493840610608 76.32608695700765,230.52739731175825 78.28260869532824,229.60616795858368 75.93478260934353,229.14555320702493 77.10869565233588,229.60616795858368 75.15217391215265,230.52739731175825 72.80434782616794,230.52739731175825 75.93478260934353,228.68493840610608 72.02173912897706,230.06678266031668 67.32608695700765,232.36985541973263 62.239130433648825,233.75169847765937 63.80434782616794,234.67292693210766 68.49999999813735,234.21231272956356 68.10869565233588,231.4486264656298 66.54347825981677,230.9880119143054 67.32608695700765,230.06678266031668 70.06521739065647,230.9880119143054 72.80434782616794,233.75169847765937 71.63043478317559,235.13354108436033 68.10869565233588,236.51538324169815 62.63043478317559,233.29108417453244" stroke="#4dd2ff" stroke-linecap="round" stroke-linejoin="round" stroke-width="0.5"><title>2024-04-24 3.4km</title><desc>9223370322893282018</desc></polyline><polyline fill="none" points="185.5,229.20650073885918 111.64705881476402,217.98916645348072 104.5,232.01083354651928 114.0294117629528,220.79350047931075" stroke="#4dd2ff" stroke-linecap="round" stroke-linejoin="round" stroke-width="0.5"><title>2024-04-23 3.1km</title><desc>9223370322979897699</desc></polyline></svg>