<?xml version="1.0" encoding="utf-8" ?>
<svg baseProfile="full" height="300mm" version="1.1" viewBox="0,0,200,300" width="200mm" xmlns="http://www.w3.org/2000/svg" xmlns:ev="http://www.w3.org/2001/xml-events" xmlns:xlink="http://www.w3.org/1999/xlink"><defs /><rect fill="#222222" height="300" width="200" x="0" y="0" /><text fill="#FFFFFF" style="font-size:12px; font-family:Arial; font-weight:bold;" x="10" y="20">Over 3km Runs</text><text fill="#FFFFFF" style="font-size:4px; font-family:Arial" x="10" y="280">ATHLETE</text><text fill="#FFFFFF" style="font-size:9px; font-family:Arial" x="10" y="290">L</text><text fill="#FFFFFF" style="font-size:4px; font-family:Arial" x="120" y="280">STATISTICS</text><text fill="#FFFFFF" style="font-size:3px; font-family:Arial" x="120" y="285">Number: 14</text><text fill="#FFFFFF" style="font-size:3px; font-family:Arial" x="120" y="290">Weekly: 4.7</text><text fill="#FFFFFF" style="font-size:3px; font-family:Arial" x="141" y="285">Total: 76.0 km</text><text fill="#FFFFFF" style="font-size:3px; font-family:Arial" x="141" y="290">Avg: 5.4 km</text><text fill="#FFFFFF" style="font-size:3px; font-family:Arial" x="167" y="285">Min: 3.0 km</text><text fill="#FFFFFF" style="font-size:3px; font-family:Arial" x="167" y="290">Max: 10.1 km</text><polyline fill="none" points="46.0,57.53139706328511 55.599999994039536,34.930528613738716 48.400000005960464,40.58074940275401 44.79999999701977,46.23096774145961 38.79999999701977,49.056075987406075 32.79999999701977,54.70629065018147 35.19999999552965,66.00671262852848 31.600000001490116,64.59416041523218 24.399999991059303,58.94395004119724 23.19999999552965,63.18160805106163 28.0,68.83181658945978 26.799999997019768,63.18160805106163 13.599999994039536,58.94395004119724 24.399999991059303,60.356502862647176 18.399999991059303,61.769055533222854 12.399999998509884,66.00671262852848 50.80000000447035,46.23096774145961 44.79999999701977,73.0694713871926 30.399999998509884,64.59416041523218 24.399999991059303,61.769055533222854 31.600000001490116,56.11884393543005 25.599999994039536,51.88118362426758 31.600000001490116,60.356502862647176 29.19999999552965,49.056075987406075 33.99999999254942,44.81841338425875" stroke="#4dd2ff" stroke-linecap="round" stroke-linejoin="round" stroke-width="0.5"><title>2024-05-09 8.0km</title><desc>9223370321595310162</desc></polyline><polyline fill="none" points="78.39999999850988,47.30896531417966 87.49473684281111,51.32358869165182 81.81052631139755,44.63254900369793 106.82105262577534,59.352831532247365 121.59999999403954,63.36745099723339 112.50526315718889,62.029244653880596 81.81052631139755,56.676417832262814" stroke="#4dd2ff" stroke-linecap="round" stroke-linejoin="round" stroke-width="0.5"><title>2024-05-08 6.2km</title><desc>9223370321684028463</desc></polyline><polyline fill="none" points="166.00000002980232,32.400000002235174 159.32735992968082,75.60000000149012 172.67264008522034,59.89091505110264 172.67264008522034,63.818186931312084" stroke="#4dd2ff" stroke-linecap="round" stroke-linejoin="round" stroke-width="0.5"><title>2024-05-07 6.1km</title><desc>9223370321771754451</desc></polyline><polyline fill="none" points="31.121607173234224,102.42355924937874 49.111562326550484,85.48236533580348 46.952767711132765,88.87060705712065 41.91558026522398,88.87060705712065 38.31758923456073,89.71766725648195 36.15879461541772,93.10590713936836 33.28040178865194,95.6470860899426 49.83116053789854,80.39999999990687 39.75678564608097,92.25884730694816 18.16883946210146,123.60000000009313 40.47638385370374,103.27061798004434" stroke="#4dd2ff" stroke-linecap="round" stroke-linejoin="round" stroke-width="0.5"><title>2024-05-05 4.5km</title><desc>9223370321934722240</desc></polyline><polyline fill="none" points="111.00984002649784,112.08001373521984 98.77668444812298,117.84000811632723 79.20363550633192,123.59999999962747 96.33005332201719,97.68001685850322 120.79636450111866,80.3999999994412 113.45647113770247,90.48001256398857 95.10673777014017,102.00001755543053 96.33005332201719,109.200015604496 91.43679109215736,103.44001748040318 81.65026661753654,117.84000811632723 85.32021329551935,114.96001123916358" stroke="#4dd2ff" stroke-linecap="round" stroke-linejoin="round" stroke-width="0.5"><title>2024-05-04 3.0km</title><desc>9223370322023120704</desc></polyline><polyline fill="none" points="165.0081221461296,108.42164136376232 183.85380141437054,80.3999999994412 178.89441213011742,81.56756984256208 157.07309929654002,109.5892081707716 159.0568550080061,116.59460636414587 167.98375571519136,123.59999999962747 164.01624428853393,122.43243471067399 155.08934358507395,121.26486929319799 148.14619858935475,118.92973808106035 153.10558786988258,116.59460636414587 155.08934358507395,115.42704031430185" stroke="#4dd2ff" stroke-linecap="round" stroke-linejoin="round" stroke-width="0.5"><title>2024-05-03 5.0km</title><desc>9223370322115228759</desc></polyline><polyline fill="none" points="28.757211923599243,128.40000000223517 54.97115224599838,171.60000000149012 13.028847724199295,171.60000000149012" stroke="#4dd2ff" stroke-linecap="round" stroke-linejoin="round" stroke-width="0.5"><title>2024-05-02 6.8km</title><desc>9223370322200251369</desc></polyline><polyline fill="none" points="89.20000000298023,162.71299302764237 78.39999999850988,166.34527269937098 121.59999999403954,150.00000797212124 115.42857142537832,155.4484313186258 120.05714285373688,144.55158285424113 121.59999999403954,133.65472730062902 121.59999999403954,135.47087038122118" stroke="#4dd2ff" stroke-linecap="round" stroke-linejoin="round" stroke-width="0.5"><title>2024-05-01 4.0km</title><desc>9223370322286947528</desc></polyline><polyline fill="none" points="152.02352941408753,148.20522858994082 187.60000000149012,154.18780298391357 144.40000000037253,148.80348632205278 159.1388235297054,145.81219701608643 154.56470588222146,147.60697079496458 158.63058823533356,148.80348632205278 157.10588235221803,146.4104550080374 153.04000000096858,148.20522858994082 156.59764706157148,147.60697079496458 147.4494117666036,148.80348632205278 155.0729411765933,147.60697079496458 164.72941176593304,145.81219701608643 165.74588235467672,146.4104550080374 152.02352941408753,147.00871293293312 152.53176470659673,148.80348632205278" stroke="#4dd2ff" stroke-linecap="round" stroke-linejoin="round" stroke-width="0.5"><title>2024-04-30 5.3km</title><desc>9223370322373916531</desc></polyline><polyline fill="none" points="14.146811819635332,185.86034256918356 12.870295490138233,187.44208632898517 12.668740279972553,191.39643072645413 12.668740279972553,193.92719989444595 13.340590979671106,196.22070187085774 14.684292379533872,197.16973506263457 16.767029548995197,196.9324768804363 18.31228615855798,196.3788741551689 19.25287713832222,197.16973506263457 21.335614307783544,196.29978801723337 23.687091757543385,194.55989081494045 24.29175738734193,193.6108542283764 25.635458786971867,192.5827298669028 28.994712286395952,189.2610874134698 31.077449455857277,187.36299922235776 33.69766718521714,184.75311989709735 37.39284603437409,184.12042047292925 42.162986003328115,184.19950793095632 44.04416796262376,183.80407055519754 45.790979782352224,184.35768282128265 50.292379471473396,184.43677025358193 51.97200622083619,184.6740324991406 54.72659409046173,187.67934759688796 55.398444790393114,191.63369070918998 55.398444790393114,196.06252955214586 55.398444790393114,200.88676984596532 55.398444790393114,205.4737228396698 54.72659409046173,208.55803708796157 51.50171073130332,211.64233829954173 46.93312597181648,211.87959169887472 42.43172628316097,211.80050724110333 37.258475894574076,212.03776058898075 32.757076205685735,211.80050724110333 30.607153965858743,210.4560701456503 27.449455676367506,209.58613894035807 22.813685847911984,209.58613894035807 19.25287713832222,209.42796951910714 18.648211508756503,208.4789522701758 18.245101088657975,203.57567682216177 18.648211508756503,199.225969410385 19.521617418620735,197.80242317158263 21.40279937791638,195.66709860553965 23.41835147771053,194.48080447979737 27.04634525673464,191.63369070918998 30.204043545993045,188.54930492059793 33.36174183548428,185.46490609343164 35.24292379477993,184.27859538048506 40.01306376350112,184.43677025358193 43.64105754299089,184.9112946673995 44.71601866255514,184.6740324991406 47.53779160184786,184.43677025358193 51.30015552137047,184.43677025358193 52.91259720106609,185.62308070948347 55.196889580693096,189.02382665983168 55.46562986029312,193.6899406579323 55.196889580693096,197.48607918561902 55.398444790393114,201.36128356168047 55.53281493042596,206.18548882333562 53.51726283086464,209.90247768047266 51.031415241071954,211.95867614803137 45.790979782352224,212.03776058898075 42.09580093342811,212.11684502125718 37.72877138433978,212.03776058898075 33.22737169521861,211.95867614803137 30.405598755925894,210.3769855335704 28.45723172626458,209.90247768047266 26.71041990700178,210.1397316454677 21.738724727882072,209.66522363835247 19.185692068655044,209.66522363835247 18.17791601875797,208.4789522701758 18.17791601875797,203.8920181679423 18.84976671845652,198.90962604188826 20.73094867821783,196.9324768804363 23.082426127512008,194.79714976856485 25.904199066804722,192.5827298669028 28.927527216263115,189.2610874134698 32.555520995520055,186.0976043517585 34.97418351494707,184.35768282128265 40.21461897389963,184.19950793095632 42.83483670302667,184.43677025358193 44.71601866255514,184.35768282128265 49.88926905137487,184.19950793095632 51.97200622083619,184.5949450925109 54.995334370294586,188.07478287263075 55.53281493042596,191.00099725130713 55.12970451032743,195.0344086450641 55.33125972049311,196.14161571592558 55.12970451032743,201.1240267425892 55.06251944019459,206.3436589476769 54.659409020328894,208.63712189736543 52.37511664093472,210.8514930778183 51.1657853811048,211.87959169887472 46.19409020268358,211.95867614803137 42.63328149309382,211.87959169887472 38.13188180420548,211.72142277448438 33.22737169521861,211.72142277448438 30.13685847586021,210.1397316454677 28.45723172626458,209.74430832755752 24.963608087273315,209.50705423398176 19.99191290838644,209.42796951910714 18.581026438856497,208.55803708796157 18.31228615855798,204.92012659460306 18.51384136849083,201.28219796379562 20.73094867821783,196.9324768804363 23.485536547377706,195.3507536938996 26.1057542769704,192.66181640780997 26.777604976901785,191.79186398757156 28.86034214636311,189.8937823799788 31.01026438595727,187.67934759688796 34.30233281524852,184.832207286614 36.31788491457701,184.35768282128265 38.9381026441697,184.5949450925109 42.29735614336096,184.43677025358193 44.04416796262376,184.832207286614 47.67216174211353,184.35768282128265 51.1657853811048,184.35768282128265 53.584447900764644,186.33486605709186 55.33125972049311,188.86565278080525 55.196889580693096,193.6899406579323 55.12970451032743,197.2488211063901 55.26407465012744,201.835796968895 55.196889580693096,206.3436589476769 55.06251944019459,208.1626129129436 53.046967340866104,210.29790091258474 49.62052877177484,211.95867614803137 45.790979782352224,212.03776058898075 41.89424572326243,212.03776058898075 38.46780715417117,212.19592944480246 35.646034214878455,212.03776058898075 33.89922239538282,212.03776058898075 31.01026438595727,211.08874673442915 28.12130637653172,209.74430832755752 25.702643857337534,209.42796951910714 22.746500777779147,209.1907153224456 19.454432348255068,209.42796951910714 18.648211508756503,208.71620669792173 18.110730948625132,205.15738217969192 18.581026438856497,202.78482285764767 19.655987558420748,202.38939555402612 18.84976671845652,202.38939555402612 18.51384136849083,200.57042719749734 20.260653188219294,197.32790714129806 21.335614307783544,196.06252955214586 23.149611197644845,194.9553223613184 25.702643857337534,192.81998946343083 28.188491446431726,190.76373706315644 30.338413686025888,188.47021793411113 33.5632970451843,185.38581877265824 34.83981337514706,184.6740324991406 39.274027993902564,184.51585767738288 43.036391912959516,184.832207286614 44.04416796262376,184.99038203962846 47.20186625234783,184.6740324991406 51.031415241071954,184.51585767738288 53.920373250497505,186.88847640325548 55.398444790393114,190.92191053042188 55.46562986029312,195.58801239036256 55.33125972049311,200.17499869369203 55.26407465012744,204.68287093244726 54.995334370294586,207.84627341874875 51.568895800970495,211.32600031374022 47.00031104194932,211.64233829954173 42.63328149309382,211.56325381604256 38.19906687410548,211.48416932381224 35.78040435467847,211.72142277448438 32.68989113532007,211.95867614803137 29.666562986094505,210.06064699910348 25.097978227306157,209.66522363835247 20.73094867821783,209.58613894035807 19.185692068655044,209.1907153224456 18.581026438856497,208.24169776507188 18.446656298357993,203.81293284433195 18.379471228690818,201.28219796379562 18.91695178858936,198.59328253602143 21.201244167983532,196.45796028443146 23.619906687177718,194.0062862893683 26.979160186834633,191.23825736204162 30.67433903575875,188.1538699020166 33.76485225488432,185.14855675847502 34.906998445047066,184.43677025358193 39.40839813393541,184.5949450925109 44.11135303298943,184.9112946673995 47.403421462047845,184.6740324991406 51.63608087110333,184.75311989709735 53.98755832039751,187.12573785119457 54.995334370294586,188.47021793411113 55.33125972049311,191.31734404864255 55.53281493042596,194.63897714135237 55.33125972049311,199.30505523114698 55.33125972049311,203.6547621715581 55.06251944019459,206.580914069782 54.457853810396045,208.63712189736543 52.24074650113471,211.1678312693257 49.486158631742,211.80050724110333 44.91757387248799,211.95867614803137 39.74432348366827,211.87959169887472 35.78040435467847,211.72142277448438 32.62270606542006,211.95867614803137 30.607153965858743,210.29790091258474 27.38227060670033,209.58613894035807 22.276205287780613,209.34888479538495 19.58880248805508,209.50705423398176 18.581026438856497,208.79529149027076 18.51384136849083,205.94823357247515 18.51384136849083,201.51945473189699 19.25287713832222,198.3560248167487 17.77480559889227,196.06252955214586 17.841990668559447,192.34547019319143 17.909175738692284,190.60556356149027" stroke="#4dd2ff" stroke-linecap="round" stroke-linejoin="round" stroke-width="0.5"><title>2024-04-27 10.1km</title><desc>9223370322649067555</desc></polyline><polyline fill="none" points="100.00000001490116,194.36772071942687 112.34285713732243,194.36772071942687 96.91428571939468,201.63227928057313 78.40000000596046,194.36772071942687 121.6000000089407,201.63227928057313 87.65714284777641,201.63227928057313" stroke="#4dd2ff" stroke-linecap="round" stroke-linejoin="round" stroke-width="0.5"><title>2024-04-26 5.2km</title><desc>9223370322713802999</desc></polyline><polyline fill="none" points="168.05714285746217,214.95065868273377 187.60000000149012,181.04934131726623 181.42857142537832,181.04934131726623 176.28571428731084,183.47086739446968 171.14285714551806,184.68163023795933 161.88571428507566,184.68163023795933 150.5714285708964,193.15696646925062 146.45714285597205,201.6322962725535 156.7428571358323,204.0538178915158 144.39999999850988,198.0000128597021 150.5714285708964,202.8430571500212 157.77142856642604,204.0538178915158 159.8285714276135,206.47533898428082 151.59999999403954,213.73989912122488 154.68571428582072,210.10761964321136 150.5714285708964,207.68609933555126 151.59999999403954,207.68609933555126" stroke="#4dd2ff" stroke-linecap="round" stroke-linejoin="round" stroke-width="0.5"><title>2024-04-25 5.2km</title><desc>9223370322805955311</desc></polyline><polyline fill="none" points="28.260869565419853,246.73699394636787 24.0869565224275,242.06942303595133 24.921739131212234,243.29773210268468 24.295652174390852,244.52604050305672 23.460869564674795,245.50868674344383 21.37391304410994,244.52604050305672 21.791304348036647,245.75434823776595 20.330434783361852,246.24567114538513 19.495652174577117,245.50868674344383 17.61739130411297,244.77170210285112 14.695652173832059,245.26302522304468 14.904347826726735,246.00000970461406 14.278260869905353,245.75434823776595 15.739130434580147,246.49133255891502 16.99130434729159,247.71963922888972 20.539130434393883,247.71963922888972 22.208695652894676,246.73699394636787 22.41739130485803,245.50868674344383 21.58260869514197,246.73699394636787 20.95652173925191,245.75434823776595 22.000000000931323,245.26302522304468 26.591304347850382,245.26302522304468 28.260869565419853,245.75434823776595 31.182608696632087,245.50868674344383 31.600000000558794,244.2803788757883 30.556521739810705,243.05207034223713 27.42608695756644,241.57809922355227 25.756521739065647,240.59545127744786 23.460869564674795,239.3671407471411 22.208695652894676,243.78905554208905 22.208695652894676,245.26302522304468 21.165217391215265,246.24567114538513 19.9130434775725,246.00000970461406 18.243478260934353,246.24567114538513 16.36521739140153,245.75434823776595 15.947826087474823,247.47397794830613 17.826086957007647,248.21096171042882 16.36521739140153,249.1936063542962 17.826086957007647,249.43926744838245 17.408695651218295,250.66757252137177 16.36521739140153,251.40455524483696 12.400000000372529,252.63285925262608 18.034782608971,248.4566229111515 19.495652174577117,247.71963922888972 19.078260869719088,246.24567114538513 23.66956521756947,247.71963922888972 25.547826087102294,247.47397794830613 27.00869565177709,248.21096171042882 26.173913042992353,249.1936063542962 26.591304347850382,250.17625057208352 27.843478261493146,251.15889436355792 27.843478261493146,252.14153772895224 26.173913042992353,252.63285925262608 22.834782607853413,251.15889436355792 22.626086956821382,249.68492851639166 24.71304347831756,249.43926744838245 25.756521739065647,250.17625057208352 28.260869565419853,249.43926744838245 28.67826087027788,250.91323345550336 27.00869565177709,251.89587692776695 25.130434783175588,251.89587692776695 19.495652174577117,248.4566229111515 16.36521739140153,245.75434823776595 14.904347826726735,245.26302522304468 13.443478261120617,245.50868674344383 14.278260869905353,244.52604050305672 15.947826087474823,245.01736367633566 17.200000000186265,244.77170210285112 16.36521739140153,245.75434823776595 14.486956520937383,245.75434823776595 12.400000000372529,246.00000970461406 16.99130434729159,246.24567114538513 18.66086956579238,245.50868674344383 19.9130434775725,245.50868674344383 20.95652173925191,246.49133255891502 23.460869564674795,245.26302522304468 24.504347825422883,245.75434823776595 25.756521739065647,245.75434823776595 26.591304347850382,246.49133255891502 27.843478261493146,246.98265530681238 29.095652174204588,246.73699394636787 30.139130434952676,246.98265530681238 31.39130434859544,248.4566229111515 33.47826087009162,249.9305895571597 35.147826086729765,249.68492851639166 36.40000000037253,250.17625057208352 34.73043478280306,249.43926744838245 31.600000000558794,248.70228408556432 32.852173913270235,248.21096171042882 33.06086956523359,249.68492851639166 34.521739130839705,249.43926744838245 34.73043478280306,248.21096171042882 35.773913042619824,249.1936063542962 37.02608695719391,249.43926744838245 33.47826087009162,249.43926744838245 35.147826086729765,249.68492851639166 35.565217391587794,248.94794523296878 36.60869565233588,249.43926744838245 37.65217391401529,250.17625057208352 34.10434782598168,251.40455524483696 36.40000000037253,250.66757252137177 39.11304347869009,248.4566229111515 38.069565217942,247.22831664071418 38.069565217942,248.21096171042882 35.773913042619824,248.70228408556432 33.47826087009162,248.4566229111515 31.808695652522147,247.47397794830613 27.843478261493146,247.22831664071418 29.72173913102597,247.47397794830613 30.76521739177406,248.70228408556432 32.852173913270235,247.71963922888972 37.02608695719391,247.47397794830613 39.53043478354812,248.21096171042882 42.034782608971,248.4566229111515 43.70434782654047,248.4566229111515 48.29565217345953,248.94794523296878 52.67826087027788,249.43926744838245 55.60000000055879,249.9305895571597 52.67826087027788,249.9305895571597 52.05217391438782,249.9305895571597 49.33913043607026,249.9305895571597 47.04347826167941,249.68492851639166 45.37391304410994,249.9305895571597 43.07826086971909,249.9305895571597 42.24347826093435,249.1936063542962 39.53043478354812,248.4566229111515 43.70434782654047,247.96530048316345 45.37391304410994,248.94794523296878 46.41739130485803,248.4566229111515 45.16521739214659,248.21096171042882 45.79130434896797,248.4566229111515 44.74782608728856,248.94794523296878 43.49565217457712,248.94794523296878 45.16521739214659,247.96530048316345 43.07826086971909,248.70228408556432 40.573913044296205,249.9305895571597 37.860869565047324,250.66757252137177 38.69565217383206,251.15889436355792 41.19999999925494,250.91323345550336 40.99130434822291,249.43926744838245 40.156521739438176,249.1936063542962 40.573913044296205,248.70228408556432 42.034782608971,249.1936063542962 43.49565217457712,250.66757252137177 42.86956521868706,251.40455524483696 40.99130434822291,252.14153772895224 38.069565217942,250.42191155976616" stroke="#4dd2ff" stroke-linecap="round" stroke-linejoin="round" stroke-width="0.5"><title>2024-04-24 3.4km</title><desc>9223370322893282018</desc></polyline><polyline fill="none" points="121.60000000149012,248.24346706084907 82.21176470816135,242.2608887758106 78.39999999850988,249.73911122512072 83.48235294222832,243.75653358828276" stroke="#4dd2ff" stroke-linecap="round" stroke-linejoin="round" stroke-width="0.5"><title>2024-04-23 3.1km</title><desc>9223370322979897699</desc></polyline></svg>