<?xml version="1.0" encoding="utf-8" ?>
<svg baseProfile="full" height="300mm" version="1.1" viewBox="0,0,200,300" width="200mm" xmlns="http://www.w3.org/2000/svg" xmlns:ev="http://www.w3.org/2001/xml-events" xmlns:xlink="http://www.w3.org/1999/xlink"><defs /><rect fill="#222222" height="300" width="200" x="0" y="0" /><text fill="#FFFFFF" style="font-size:12px; font-family:Arial; font-weight:bold;" x="10" y="20">Over 3km Runs</text><text fill="#FFFFFF" style="font-size:4px; font-family:Arial" x="10" y="280">ATHLETE</text><text fill="#FFFFFF" style="font-size:9px; font-family:Arial" x="10" y="290">L</text><text fill="#FFFFFF" style="font-size:4px; font-family:Arial" x="120" y="280">STATISTICS</text><text fill="#FFFFFF" style="font-size:3px; font-family:Arial" x="120" y="285">Number: 29</text><text fill="#FFFFFF" style="font-size:3px; font-family:Arial" x="120" y="290">Weekly: 2.9</text><text fill="#FFFFFF" style="font-size:3px; font-family:Arial" x="141" y="285">Total: 142.2 km</text><text fill="#FFFFFF" style="font-size:3px; font-family:Arial" x="141" y="290">Avg: 4.9 km</text><text fill="#FFFFFF" style="font-size:3px; font-family:Arial" x="167" y="285">Min: 3.0 km</text><text fill="#FFFFFF" style="font-size:3px; font-family:Arial" x="167" y="290">Max: 10.1 km</text><polyline fill="none" points="34.330127408960834,31.90520005574217 34.896115271491,32.01040007735719 35.46210313402116,32.04546674352605 38.50056429032702,31.870133374235593 38.76866380404681,31.90520005574217 38.977185648167506,32.15066671941895 39.066552152857184,33.27279766724678 39.036763317883015,33.90399461489869 39.12612982257269,34.50012393479119 39.245285161887296,34.99105313795735 39.15591865743045,35.44691530242562 39.18570749217179,36.35863770416472 39.12612982257269,36.6391671570309 39.18570749217179,36.84956408702419 39.245285161887296,37.90154668450123 39.245285161887296,38.848328097490594 39.39422933629248,39.68990924960235 39.36444050143473,40.32109367699013 39.42401817126665,40.98734256994794 39.36444050143473,41.26786800913396 39.45380700600799,41.89904935803497 39.39422933629248,42.60036052347277 39.45380700600799,43.056211965857074 39.5133846757235,44.14323973641149 39.48359584074933,44.9146765836922 39.63254001527093,45.86143747315509 39.60275118041318,46.70300038228743 39.69211768487003,47.68482100966503 39.63254001527093,48.035470511735184 39.7219065198442,49.43806471940479 39.66232885012869,50.52507104803226 39.751695354585536,51.191298928286415 39.751695354585536,51.78739639517153 39.811273024533875,53.26010307550314 39.781484189559706,54.13671101233922 39.90063952910714,54.487353522039484 39.811273024533875,55.1185090818326 39.96021719870623,56.55613659444498 39.93042836384848,57.3626077681547 39.990006033563986,57.88856614634278 39.96021719870623,58.41452366951853 40.01979486842174,58.69503399907262 39.990006033563986,60.13264562084805 40.01979486842174,60.6235359312559 40.07937253837008,60.97417141121696 40.109161372995004,62.44683627827908 40.16873904282693,62.97278639211436 40.04958370339591,63.88443123106845 39.96021719870623,63.98962085499079 39.69211768487003,64.09481044459972 38.47077545535285,64.20000000001164 37.54732157464605,64.09481044459972 37.04091138194781,63.88443123106845 36.2961905101547,63.919494442787254 34.92590410646517,63.67405188080738 34.00245022564195,63.63898864251678 32.393853142741136,63.42860913267941 31.202299748081714,63.3935458677588 28.878770628594793,63.00784970272798 27.74679490365088,62.76240644909558 26.823341022711247,62.62215307785664 26.257353160297498,62.58708972550812 25.661576463025995,62.65721642636345 24.648756077629514,62.58708972550812 24.201923554646783,62.51696300943149 22.712481811176986,62.4818996458489 22.44438229734078,62.41177290689666 21.93797210464254,62.201392599148676 19.91233133384958,61.9910121546709 19.286765801603906,61.85075844891253 18.273945416207425,61.780631573463324 16.099360471009277,61.42999696728657 15.950416296720505,61.324806511373026 15.831260957173072,61.149489008734236 15.861049792030826,60.8339172648848 16.069571636035107,59.8521365376655 16.12914930586703,59.04567156886333 16.248304645181634,58.484651274833595 16.248304645181634,57.78337453913991 16.278093480155803,57.57299122205586 16.248304645181634,57.18728811867186 16.337671149871312,56.41588053293526 16.427037654444575,55.50421465130057 16.75471483799629,54.55748197835055 17.05260318669025,52.944523636979284 17.26112503069453,52.3834927638236 17.380280370241962,51.75233186874539 17.648379884078167,51.296492678753566 17.79732405836694,50.77052358459332 18.00584590237122,50.52507104803226 17.976057067513466,50.384812372212764 18.00584590237122,50.20948894173489 18.125001241802238,49.788712321198545 18.30373425106518,49.33287036465481 18.422889590496197,48.80689807829913 18.690989104332402,48.28092493698932 18.959088618052192,47.5094961161667 19.227188131888397,47.01858590883785 19.405921141034923,46.422479655826464 19.763387159560807,45.580916016944684 19.85275366413407,45.19519861752633 20.210219682427123,44.353631786303595 20.657052205409855,43.47699734251364 20.835785214672796,43.3367356111703 21.342195407371037,42.810753576719435 21.729450260754675,42.21463957065134 22.414593462715857,41.022408263146644 22.593326471862383,40.63668542887899 22.921003655414097,40.14576479292009 23.159314334276132,39.514580023504095 23.367836178163998,39.26911894718069 23.844457536237314,38.39247072604485 24.14234588481486,38.04181077243993 24.350867728935555,37.55088619876187 24.708333747228608,37.02489475745824 25.989253646694124,34.640389497362776 26.34671966487076,34.11439332383452 26.674396848422475,33.518263293313794 27.151018206379376,32.816932439105585 27.74679490365088,32.18573337048292 28.104260921943933,32.080533405940514 31.41082159220241,32.01040007735719 31.708709940779954,31.90520005574217 34.4194939135341,31.870133374235593 35.01527061103843,31.800000000017462 36.862178372684866,31.90520005574217 38.61971962987445,31.800000000017462 38.88781914371066,32.01040007735719 39.036763317883015,32.361066568642855 39.066552152857184,32.816932439105585 39.036763317883015,33.30786419680226 39.245285161887296,35.02611948107369 39.15591865743045,35.411849004856776 39.30486283171922,37.41062189801596 39.245285161887296,37.83141461785999 39.30486283171922,38.11194279350457 39.275073996861465,38.672998415248 39.45380700600799,39.374316574132536 39.39422933629248,39.93537000659853 39.39422933629248,40.70681688754121 39.54317351069767,42.14450843888335 39.5133846757235,42.38996733352542 39.54317351069767,42.775688077294035 39.48359584074933,43.3367356111703 39.57296234543901,45.19519861752633 39.54317351069767,45.65104640380014 39.57296234543901,46.10689354778151 39.54317351069767,46.49260986025911 39.7219065198442,48.315989839611575 39.7219065198442,48.59650892429636 39.63254001527093,49.05235191833344 39.69211768487003,49.61338856769726 39.66232885012869,49.92897125551826 39.57296234543901,50.59520036322647 39.751695354585536,51.22636351562687 39.69211768487003,51.71726733841933 39.781484189559706,52.45362167619169 39.87085069413297,54.52241775210132 39.96021719870623,54.87305984378327 39.90063952910714,55.36395813370473 40.01979486842174,56.17043227900285 40.07937253837008,56.871712510532234 39.96021719870623,57.53792732258444 40.04958370339591,58.80022530988208 39.96021719870623,59.536563528410625 39.93042836384848,60.86898080713581 40.04958370339591,61.780631573463324 40.01979486842174,62.09620239402284 40.109161372995004,63.42860913267941 40.109161372995004,63.849368015595246 39.93042836384848,64.0597472518275 39.39422933629248,64.12987363353022 38.32183128106408,64.16493681858992 35.372736629331484,63.77924157309462 34.24076090438757,63.53379890471115 32.1555424638791,63.42860913267941 29.86180217913352,63.0779763123719 28.074472087202594,62.937723077920964 27.44890655495692,62.7974697824975 26.91270752751734,62.7974697824975 26.108408986008726,62.65721642636345 25.810520637314767,62.69227977114497 25.244532774784602,62.58708972550812 24.58917840779759,62.552026369434316 24.23171238938812,62.44683627827908" stroke="#4dd2ff" stroke-linecap="round" stroke-linejoin="round" stroke-width="0.5"><title>2024-08-05 5.0km</title><desc>12068639381</desc></polyline><polyline fill="none" points="70.64960646664258,31.905542709864676 71.06800867139827,31.905542709864676 71.78526959370356,31.83518090713187 72.68184574635234,31.870361810346367 73.90716648858506,31.800000000017462 74.74397089786362,31.83518090713187 74.95317200035788,31.905542709864676 75.07271548721474,32.08144714983064 75.10260135901626,32.32771320568281 75.0129437437281,33.03132947848644 75.0129437437281,33.6997635247244 75.10260135901626,34.40337682311656 75.25203071779106,34.96626636336441 75.19225897430442,35.88095978432102 75.3118024612777,37.252995082351845 75.28191658959258,38.62502458036761 75.34168833307922,39.15272668909165 75.28191658959258,39.68042793980567 75.40146007668227,40.38402827287791 75.37157420488074,41.22834665924893 75.49111769197043,41.7560445353738 75.4612318201689,41.89676382415928 75.52100356365554,42.17820221860893 75.4612318201689,42.67071882172604 75.49111769197043,43.339133016299456 75.4612318201689,44.464880127314245 75.6106611789437,45.48508507426595 75.6106611789437,46.575645437056664 75.70031879423186,48.40496426925529 75.64054705074523,48.82711330486927 75.64054705074523,49.49551482178504 75.70031879423186,50.128736042039236 75.64054705074523,50.72677717125043 75.73020466603339,51.57106865444803 75.7600905377185,53.92803742244723 75.87963402480818,54.737142158293864 75.93940576829482,55.86284974019509 76.08883512706961,56.39052382524824 75.96929164009634,57.797650525550125 75.99917751178145,58.36049949773587 75.93940576829482,59.41583869038732 76.11872099887114,60.400818841386354 76.05894925526809,61.561684468295425 76.05894925526809,62.79290105140535 76.2083786141593,63.63716115246643 76.11872099887114,64.0241129649803 76.02906338358298,64.09446779047721 75.28191658959258,64.05929037960595 74.83362851315178,64.20000000001164 73.937052360503,64.05929037960595 73.30944905336946,64.0241129649803 72.86116097704507,63.918580698169535 72.41287290060427,63.918580698169535 70.53006297978573,63.63716115246643 69.39439985272475,63.531628759927116 68.61736718704924,63.35574136272771 67.33227470132988,63.17985387027147 66.13683983089868,63.07432132906979 65.38969303690828,63.109498846606584 64.70231798640452,62.933611220825696 63.20802439854015,62.79290105140535 62.580421091406606,62.86325614366797 62.07236127147917,62.82807859938475 61.47464383626357,62.82807859938475 60.548181811813265,62.54665810833103 59.38263281295076,62.5114805297344 58.27685555792414,62.335592579853255 57.70902399439365,62.19488215132151 57.32050766167231,62.230059764231555 56.782561969943345,62.124526914267335 56.12507279124111,62.05417166187544 53.943404152523726,61.63203982732375 52.09048010350671,61.491329093900276 51.911164872930385,61.31544059130829 51.7916213858407,60.82295227696886 51.881279001012444,60.26010757419863 52.09048010350671,59.9083291394636 52.15025184687693,59.59172822217806 52.21002359047998,58.8881695229793 52.21002359047998,57.5514037933317 52.32956707756966,56.63677143809036 52.44911056465935,56.179454294091556 52.44911056465935,55.33517479713191 52.508882308145985,55.159282959008124 52.77785515401047,54.772320579359075 52.86751276929863,54.596428436023416 53.016942128073424,53.646609215589706 53.46523020451423,51.50071111469879 53.91351828095503,50.41016729891999 54.06294763972983,49.67140972916968 54.45146397256758,48.51050157958525 54.989409664296545,47.41994771751342 55.37792599701788,46.32939019156038 55.796328201773576,45.59062333399197 56.154958662809804,44.60559824161464 57.350393533241004,42.67071882172604 57.58948050753679,42.42446061357623 58.037768583744764,41.79122436331818 59.08377409540117,39.750788041739725 59.830920889391564,38.55466423436883 60.12977960717399,38.23804248866509 60.27920896583237,37.85105993557954 60.87692640104797,37.006732763693435 61.17578511859756,36.373485943244305 61.86316016910132,35.35325235614437 62.401105860830285,34.15711234213086 62.8792798089562,33.34795630350709 63.118366783019155,33.03132947848644 63.14825265482068,32.890606345958076 63.686198346549645,32.29253235209035 64.19425816647708,32.116628026386024 64.55288862762973,32.046266269433545 65.2701495498186,32.08144714983064 67.00353011197876,31.940723605453968 67.60124754719436,32.01108538528206 69.39439985272475,31.870361810346367 70.58983472327236,31.83518090713187" stroke="#4dd2ff" stroke-linecap="round" stroke-linejoin="round" stroke-width="0.5"><title>2024-08-04 3.4km</title><desc>12060173638</desc></polyline><polyline fill="none" points="105.8576295953244,31.975904497288866 106.27603170927614,31.975904497288866 106.57489036221523,31.870361810317263 108.78644439310301,31.94072360539576 108.9657595846802,31.94072360539576 108.9657595846802,31.835180907015456 110.0715366002405,31.800000000017462 110.43016698362771,31.870361810317263 110.90834082814399,31.835180907015456 110.9979984239908,31.90554270980647 111.11754188523628,32.04626626940444 111.1773136156844,32.43325574384653 111.11754188523628,33.383137042983435 111.1773136156844,34.01638969784835 111.32674294209573,34.86072464901372 111.23708534624893,35.4236133962695 111.2669712115312,37.147454111633124 111.32674294209573,37.921420434257016 111.29685707669705,38.44912368687801 111.41640053794254,39.39898737973999 111.356628807378,39.96186825624318 111.4462864032248,40.595108075620374 111.50605813378934,41.720864703907864 111.47617226850707,42.318921324505936 111.53594399895519,43.02251593803521 111.50605813378934,43.72610902629094 111.59571572963614,44.0427254185488 111.53594399895519,44.71113678769325 111.59571572963614,45.414726215589326 111.59571572963614,46.85707977489801 111.71525919076521,47.77173968660645 111.65548746020067,48.36978515840019 111.77503092132974,50.09355711803073 111.71525919076521,50.797134879016085 111.83480265189428,51.43035355999018 111.71525919076521,52.0635710057104 111.92446024774108,54.31500080888509 111.8049167864956,55.616601540357806 111.86468851717655,56.214632559072925 111.95434611313976,56.707127864821814 111.89457438245881,58.184609298972646 111.9842319781892,58.92334749424481 112.01411784358788,59.87315127509646 112.04400370887015,60.154574083921034 111.95434611313976,60.89330779630109 112.073889574036,61.49132909398759 112.073889574036,62.441125361365266 111.9842319781892,63.03914380769129 112.1635471698828,63.70751606178237 112.13366130483337,63.95375812423299 111.9842319781892,64.094467790419 111.65548746020067,64.1648226006655 109.83244967798237,64.20000000001164 108.99564544996247,64.0241129649512 108.48758574016392,64.05929037966416 106.27603170927614,63.63716115243733 105.55877094261814,63.601983692118665 104.63230911886785,63.42609633304528 104.2139070047997,63.46127381248516 103.88516248681117,63.35574136278592 102.89892893249635,63.25020887871506 102.0023529737955,63.179853870300576 101.61383672524244,63.21503137645777 100.80691836273763,63.03914380769129 100.17931519181002,63.03914380769129 99.73102721257601,62.863256143726176 99.07353817636613,62.75772349961335 97.48958731628954,62.722545943863224 95.81597886048257,62.441125361365266 94.71020184503868,62.476302947470685 93.57453896442894,62.26523737327079 92.4986478141509,62.19488215146703 91.42275666410569,61.9486387547513 90.04800686100498,61.702395171276294 89.06177330657374,61.702395171276294 88.13531148282345,61.59686214974499 88.0157680218108,61.52650678300415 87.926110425964,61.38579600388766 87.8364528301172,60.99884104641387 87.98588215652853,60.71741896957974 88.04565388697665,60.40081884150277 88.04565388697665,59.83797340691672 88.25485494406894,58.46603357154527 88.10542561777402,57.37551315611927 88.10542561777402,56.77748427609913 88.13531148282345,56.49605853960384 88.31462667463347,56.03874119737884 88.37439840519801,55.75731482048286 88.43417013576254,55.05374781045248 88.58359946217388,54.70196373361978 88.70314292341936,54.279822338256054 89.00200157612562,53.3651807649876 89.36063195951283,51.64142617917969 89.71926234301645,50.72677717154147 90.19743618741632,49.28444080759073 90.52618070552126,48.61603885592194 90.58595243608579,48.193889545771526 90.85492522350978,47.173693112883484 91.1238980111666,46.75154192687478 91.42275666410569,45.696161559724715 91.90093050850555,44.746316295379074 92.37910435302183,44.00754583464004 92.7676206016913,43.51503126003081 93.06647925451398,42.98733624361921 93.18602271564305,42.635539089445956 93.90328348241746,41.5097856335633 94.08259867411107,41.333886303327745 94.26191386580467,40.87654759871657 95.66654953407124,38.58984440940549 96.68266895366833,37.04191310648457 97.42981558572501,35.56433543044841 97.78844596911222,34.72000230973936 98.05741875676904,34.22747364154202 98.26661981374491,34.051570364652434 98.5355926011689,33.5590406821284 99.40228269435465,32.43325574384653 99.85057067370508,32.04626626940444 100.05977173056453,31.975904497288866 101.04600528499577,32.08144714985974 101.52417912939563,32.04626626940444 102.21155403088778,31.870361810317263 102.77938547136728,31.94072360539576 103.37710277701262,31.870361810317263 105.02082536742091,32.011085385252954 106.66454795806203,31.90554270980647 108.33815641375259,31.94072360539576 108.93587371939793,31.870361810317263 109.98187900427729,31.870361810317263 110.54971044464037,31.800000000017462 110.84856909769587,31.870361810317263 110.96811255859211,31.975904497288866 111.0876560198376,32.50361741686356 111.0876560198376,33.17205255010049 111.20719948096666,33.98120902717346 111.20719948096666,34.50891868630424 111.2669712115312,34.93108579580439 111.32674294209573,35.071808043605415 111.23708534624893,35.4939744209405 111.20719948096666,35.81059884355636 111.29685707669705,37.182634439028334 111.2669712115312,37.63997834865586 111.29685707669705,37.99178091753856 111.41640053794254,38.378763302840525 111.41640053794254,38.80092537868768 111.47617226850707,39.3286272015539 111.38651467266027,40.17294833328924 111.4462864032248,40.66546797924093 111.47617226850707,41.65050502901431 111.56582986423746,41.96712344590924 111.50605813378934,42.494820120948134 111.62560159491841,44.14826414725394 111.65548746020067,45.274008451990085 111.59571572963614,45.907237907726085 111.62560159491841,46.3293901917059 111.59571572963614,47.419947717833566 111.65548746020067,47.77173968660645 111.71525919076521,48.54568067577202 111.68537332548294,48.79193423985271 111.77503092132974,49.56587279646192" stroke="#4dd2ff" stroke-linecap="round" stroke-linejoin="round" stroke-width="0.5"><title>2024-08-03 4.1km</title><desc>12052009014</desc></polyline><polyline fill="none" points="142.16988715040497,31.97628729531425 142.55924896069337,31.870514929585624 143.00851258821785,31.800000000017462 144.14664711104706,31.800000000017462 145.10507618298288,31.941029843932483 146.75237615022343,31.800000000017462 146.96203250985127,31.870514929585624 147.05188523523975,31.97628729531425 147.14173796086106,32.575663384690415 147.11178705224302,33.95069847512059 147.26154159475118,35.85458361922065 147.26154159475118,36.98280659414013 147.35139432025608,37.86422807039344 147.32144341163803,38.53410679491935 147.44124704576097,39.2039841398655 147.35139432025608,39.627063857536996 147.44124704576097,41.35463365999749 147.41129613725934,41.77771058038343 147.56105067953467,43.11745053122286 147.50114886276424,43.50526896084193 147.53109977126587,44.35141665692208 147.74075613066088,45.796913879254134 147.650903405156,46.572543887246866 147.650903405156,48.12379835473257 147.71080522215925,48.44109949361882 147.650903405156,48.864167197287316 147.77070703916252,49.886578543053474 147.71080522215925,50.803220465924824 147.80065794766415,51.12051899122889 147.71080522215925,51.5788385370397 147.68085431377403,52.07241271037492 147.74075613066088,52.31919951620512 147.77070703916252,52.84802775559365 147.83060885604937,53.4121102631907 147.92046158167068,53.62364095138037 147.9504124901723,54.505017338407924 148.0402652156772,55.033842024364276 148.07021612406243,55.597920741915004 148.0402652156772,56.33827257438679 148.19001975806896,56.97285851844936 148.10016703256406,57.431169819203205 148.10016703256406,58.17151747972821 148.01031430705916,58.77084530421416 148.07021612406243,59.29966305589187 147.98036339867394,60.004752054432174 148.10016703256406,60.95661977844429 148.0402652156772,61.62645095185144 148.1301179411821,62.19051823866903 148.1301179411821,63.03661733510671 148.24992157507222,63.74169823466218 148.219970666687,63.91796822086326 148.07021612406243,64.09423811145825 147.3813452287577,64.20000000001164 146.7224252418382,64.20000000001164 144.89541982358787,63.98847618850414 144.6558125554584,63.882714231236605 144.3563034705585,63.953222206560895 144.02684347704053,63.91796822086326 143.2481198561145,63.776952239481034 140.2530290064169,63.459666058275616 139.17479630070738,63.24814176547807 138.30621995427646,63.14237956752186 137.1381345228292,63.14237956752186 136.32945999340154,63.001363250165014 135.31112910457887,63.001363250165014 135.13142365356907,63.10712549384334 134.62225820904132,63.17763363732956 133.90343640523497,63.10712549384334 133.03486005880404,62.82509276721976 131.92667644447647,62.648822189017665 130.87839464703575,62.366789065185 129.65040739858523,62.26102658067248 128.03305833996274,61.97899312066147 126.02634747058619,61.767467865225626 125.60703475167975,61.767467865225626 124.55875295423903,61.52068822662113 124.10948932671454,61.4854339773301 123.8698820588179,61.34441694163252 123.75007842481136,61.02712838794105 123.8698820588179,60.85085683554644 123.89983296743594,60.56882215299993 124.10948932671454,60.18102406535763 124.13944023533259,60.004752054432174 124.10948932671454,59.93424322336796 124.19934205221944,58.59457252922584 124.13944023533259,58.101008251309395 124.1693911437178,57.14913217202411 124.49885113723576,55.38639133743709 124.82831113075372,54.29348722330178 125.09786930726841,52.8127725663071 125.60703475167975,51.15577436386957 125.6669365685666,50.83847587290802 126.86497290851548,47.348172045632964 127.1644819934154,46.60779975273181 127.34418744430877,46.29049682550249 127.58379471243825,45.691146007651696 127.82340198045131,45.23281816649251 128.33256742486265,44.104623806255404 129.0513892287854,43.08219428744633 129.91996557509992,41.63668500143103 130.51898374501616,40.720017247716896 131.41751100006513,38.88667399060796 132.07643098686822,38.0757688692247 132.5256946143927,37.22960484822397 133.21456550993025,36.24241070818971" stroke="#4dd2ff" stroke-linecap="round" stroke-linejoin="round" stroke-width="0.5"><title>2024-08-02 3.0km</title><desc>12043451201</desc></polyline><polyline fill="none" points="177.5793673528824,31.975143867108272 179.4837914094096,31.800000000017462 180.40624681173358,32.01017262917594 180.79308294830844,31.940115101228002 181.3584588400554,31.940115101228002 181.8643214800395,31.870057558262488 182.72726363071706,31.940115101228002 182.84629013435915,32.01017262917594 182.935560011887,32.22034512157552 182.935560011887,33.20114827892394 183.1140997671755,34.00680578837637 183.14385639305692,34.56726200165576 183.20336964470334,34.987603523535654 183.17361301893834,35.54805803581257 183.23312627070118,36.038454936555354 183.17361301893834,36.66896414407529 183.23312627070118,37.0893029323197 183.17361301893834,37.29947212146362 183.14385639305692,37.92997886863304 183.20336964470334,39.8214917294099 183.29263952246401,40.62713273416739 183.29263952246401,41.15254969854141 183.4116660259897,41.95818738502567 183.47117927775253,43.04404369764961 183.4414226517547,43.814649190055206 183.38190940010827,44.09486891358392 183.35215277422685,44.690335019200575 183.53069252951536,47.8427843581012 183.64971903304104,48.29813560983166 183.67947565903887,48.683432321762666 183.5902057812782,49.62915866723051 183.61996240715962,50.01445379239158 183.53069252951536,50.64493573366781 183.5902057812782,51.45054975763196 183.5604491555132,52.186108634545235 183.64971903304104,52.956692329084035 183.64971903304104,53.44706281443359 183.79850216244813,54.70801207475597 183.79850216244813,56.31921785962186 183.97704191773664,56.70450500948937 184.09606842137873,57.19486980870715 184.00679854361806,57.26492186210817 183.8877720400924,57.6151819016668 183.82825878832955,58.42077855192474 183.94728529185522,59.29642480745679 183.85801541432738,60.38222286981181 183.8877720400924,60.97765896821511 184.09606842137873,62.448731685377425 184.09606842137873,63.604569837712916 184.00679854361806,63.884772403747775 183.8877720400924,64.02487359565566 183.70923228468746,64.12994944973616 182.25115761661436,64.09492416877765 181.59651184722316,64.02487359565566 181.26918896241114,63.884772403747775 180.8823528259527,63.81472178502008 172.40171444939915,62.93908776997705 171.71731205412652,62.72893525342806 171.44950242107734,62.763960682292236 170.67583014816046,63.00913857843261 170.1402108821785,63.07918937175418 168.94994584692176,62.62385894381441 167.0752784163924,62.37868075541337 166.3016061434755,62.2035533641465 165.4981772445608,62.133502381067956 164.3971820868319,62.098476883838885 163.98058932449203,61.958374856913 162.70105441159103,61.74822170275729 161.8678688869113,61.60811952405493 161.06443998788018,61.57309396981145 160.64784722565673,61.432991715177195 160.1419845855562,61.39796614207444 159.90393157862127,61.187812623451464 159.90393157862127,60.83755645554629 160.1122279599076,60.34719718270935 160.2907677149633,59.716734167566756 160.23125446320046,57.86036370342481 160.2907677149633,57.08979170009843 160.40979421860538,56.10906103879097 160.40979421860538,55.793825551489135 160.46930747036822,55.23340614812332 160.64784722565673,54.91816980656586 160.7668737291824,54.60293315767194 161.2429797432851,52.01097572038998 161.45127612457145,51.34546978145954 161.68932913150638,50.96017624309752 161.83811226091348,50.294668140326394 161.8678688869113,50.08450740217813 162.016652016202,49.594131814839784 162.40348815277684,48.75348622005549 162.58202790806536,48.4732705357892 162.93910741852596,47.42245955619728 163.2961869292194,46.72191700496478 163.5937531880336,45.91629119386198 163.7722929433221,45.04060868654051 163.95083269872703,44.72536240296904 164.3674254610669,44.12989636187558 164.60547846800182,43.88470414371113 165.11134110810235,42.83387824438978 165.61720374820288,42.13332574663218 167.67041093402077,38.66556851891801 168.44408320693765,37.57969749427866 168.71189283987042,36.9491900637222 169.57483499043155,35.583086410479154 169.87240124936216,35.16274566305219 170.19972413405776,34.357091035548365 170.34850726346485,34.11189140242641 170.49729039287195,33.761605889420025 171.2412060399074,32.7808044331905 171.44950242107734,32.430517477332614 171.538772298838,32.32543131659622 172.04463493882213,32.15028763926239 172.87782046350185,32.08023014187347 173.32416985172313,32.15028763926239 174.72273126826622,32.18531638238346 175.6451866707066,31.940115101228002 176.03202280704863,31.940115101228002 176.80569508008193,32.11525889247423 177.19253121642396,32.01017262917594 177.93644686357584,31.90508633168065 179.39452153176535,31.90508633168065 179.7813576683402,31.940115101228002 180.2574636824429,31.90508633168065 181.09064920712262,31.940115101228002 181.71553835074883,31.870057558262488 182.69750700471923,31.90508633168065 182.84629013435915,31.975143867108272 183.02482988964766,32.22034512157552 182.99507326364983,33.20114827892394 183.1140997671755,33.48137720575323 183.08434314129408,33.58646299058455 183.1140997671755,33.901720140187535 183.08434314129408,34.14691993279848 183.23312627070118,34.95257508428767 183.14385639305692,35.47800127492519 183.17361301893834,37.124331140046706 183.20336964470334,37.194387544033816 183.20336964470334,37.47461300791474 183.262882896699,37.54466933599906 183.262882896699,37.85992262428044 183.20336964470334,38.455400218314026 183.32239614834543,39.3661285340786 183.23312627070118,40.03165914161946 183.29263952246401,41.36271624514484 183.4116660259897,42.76382306305459 183.38190940010827,43.149126373027684 183.47117927775253,43.56945673271548 183.4414226517547,44.16492380652926 183.53069252951536,44.620280240284046 183.50093590363394,46.44169955936377 183.5604491555132,46.86202563671395 183.53069252951536,48.052946553973015 183.5902057812782,48.508297509659315 183.53069252951536,48.99867474439088 183.61996240715962,49.55910495878197 183.5902057812782,50.64493573366781 183.64971903304104,51.3104431151005 183.5902057812782,52.08102889743168 183.67947565903887,52.5714007113711 183.67947565903887,53.23690412603901 183.79850216244813,55.65372079165536 183.76874553668313,55.898904081317596 183.8877720400924,56.10906103879097 183.79850216244813,57.124817740143044 183.85801541432738,58.140571249095956 183.9175286659738,58.59590799282887 183.85801541432738,59.051244095055154 183.9175286659738,59.576631108269794 183.8877720400924,60.52232557989191 183.94728529185522,60.83755645554629 183.8877720400924,61.25786381150829 183.97704191773664,61.71319616376422 184.0663117953809,62.658884384145495 184.00679854361806,63.884772403747775 183.82825878832955,64.09492416877765 182.37018412002362,64.20000000001164 181.62626847298816,64.09492416877765 181.23943233664613,63.91979770734906 180.94186607771553,63.84974709621747 179.9301407977473,63.77969646989368 175.9725095554022,63.289341660623904 175.25835053413175,63.3243670288648 173.38368310348596,63.07918937175418 172.0148783128243,63.044163977057906 171.56852892460302,62.90406236000126 170.61631689639762,62.86903694621287 170.31875063746702,62.79898610734381 168.14651694812346,62.79898610734381 167.64065430813935,62.72893525342806" stroke="#4dd2ff" stroke-linecap="round" stroke-linejoin="round" stroke-width="0.5"><title>2024-08-01 5.0km</title><desc>12035805770</desc></polyline><polyline fill="none" points="34.227281939121895,72.80994567211019 34.88122085412033,72.73996379654272 36.09992519533262,72.87992753254366 37.318629536777735,72.73996379654272 38.18063992448151,72.73996379654272 38.4184358936036,72.66998190581216 38.86430333554745,72.77495473626186 39.012925816117786,72.98490029465756 39.072374808369204,73.50976359340711 38.98320131993387,73.92965361796087 38.98320131993387,74.27956155434367 39.22099728893954,75.78416135953739 39.16154829680454,76.41399175379775 39.19127279298846,77.04382091920706 39.19127279298846,78.65337875913247 39.310170777491294,79.98300744325388 39.339895273558795,82.1873797744629 39.45879325794522,83.20208578856546 39.488517754129134,83.9368709110422 39.45879325794522,84.77662328880979 39.577691242680885,86.00125825768919 39.488517754129134,87.6107714374084 39.54796674649697,87.92567525137565 39.60741573874839,89.32524404174183 39.577691242680885,90.025026161602 39.63714023481589,90.75979575494421 39.577691242680885,91.24964122151141 39.69658922718372,92.15935225895373 39.666864730999805,92.89411699489574 39.756038219318725,93.5239140089543 39.756038219318725,94.22368702813401 39.90466070000548,95.48327464051545 39.81548721168656,96.3229969854001 39.90466070000548,96.81283401127439 39.9938341883244,97.7575176054088 39.87493620393798,98.66721030580811 39.9641096922569,99.08706761072972 39.934385196189396,99.36697217731853 39.9938341883244,100.90644295635866 39.90466070000548,101.60619997480535 40.02355868462473,102.27096773756784 40.02355868462473,102.9357341316063 40.14245666901115,103.53052395558916 40.11273217294365,104.37022537138546 40.02355868462473,104.72010031662649 39.934385196189396,104.82506272633327 39.756038219318725,104.8950376471621 38.477884885738604,105.0 37.645598994218744,104.86005018866854 36.93221108696889,104.65012535790447 35.832404730143026,104.54516289141611 35.20819031156134,104.37022537138546 34.34617992374115,104.3352378559357 31.760148760513403,104.05533759642276 29.53081155079417,103.9153873756295 28.668801162973978,103.95037493645214 27.985137752024457,104.0903251421114 27.47982131782919,104.0903251421114 26.706984418444335,103.8104246701696 26.0233210073784,103.88039981090697 24.953239146852866,103.74044951426913 23.972330774529837,103.74044951426913 23.734534805407748,103.63548675202765 23.348116355831735,103.63548675202765 22.6941774408333,103.49553634927724 22.01051402988378,103.32059826052864 21.26740162668284,103.25062299857382 19.900074804667383,102.79578342559398 19.66227883566171,102.69082035616157 19.3353093782207,102.62084495756426 19.038064416963607,102.58585725273588 18.354401006014086,102.65583265884197 17.99770705238916,102.58585725273588 17.52211511437781,102.37593094338081 16.333135269000195,102.23597999461344 16.006165811792016,102.1310167433403 15.887267827289179,101.95607791529619 15.857543330988847,101.7811389923445 16.09533929999452,101.29130950410035 16.184512788429856,100.94143084328971 16.243961780681275,99.01709143124754 16.15478829247877,98.17737609325559 16.392584261484444,97.05775224551326 16.51148224598728,96.07807819376467 17.284319145255722,92.75416193599813 17.700462091132067,91.6695081727812 17.789635579450987,91.14467439841246 18.265227517695166,89.88506985895219 18.711094959522597,88.97535241287551 18.948890928644687,88.27556801773608 19.216411393717863,87.57578210576321 19.483931858907454,87.12092044949532 19.9297993008513,85.82631068941555 20.048697285354137,85.54639438306913 21.148503642180003,83.65695296635386 21.53492209187243,83.20208578856546 22.248309998889454,81.80249045212986 22.664452944882214,81.31263065087842 23.467014340334572,80.01799759780988 23.675085813272744,79.59811549264123 24.18040224746801,78.86332049439079 25.161310619558208,76.97383996160352 25.60717806161847,76.44898229523096 25.993596511427313,75.8541425751464 26.171943487948738,75.29429242553306 26.706984418444335,74.31455232718145 26.88533139519859,73.85967198500293 27.509545813896693,73.22983660703176 27.777066279086284,73.08987302274909 28.163484728778712,72.98490029465756 28.84714813984465,72.94990937778493 29.20384209312033,72.87992753254366 31.106209845631383,72.98490029465756 31.96822023333516,72.80994567211019 33.3058225591667,72.80994567211019 33.60306752042379,72.73996379654272 34.94066984637175,72.66998190581216 35.86212922632694,72.70497285301099 36.6646906217793,72.63499095477164 38.03201744391117,72.66998190581216 38.596782870357856,72.59999999997672 38.86430333554745,72.73996379654272 39.012925816117786,73.15985482244287" stroke="#4dd2ff" stroke-linecap="round" stroke-linejoin="round" stroke-width="0.5"><title>2024-07-31 3.5km</title><desc>12027390271</desc></polyline><polyline fill="none" points="70.35991693334654,72.63506668899208 71.10463788558263,72.7402667333663 71.75999232369941,72.70520005575963 72.74302398087457,72.8454667434853 74.530354266637,72.67013337428216 74.85803148557898,72.7402667333663 74.94739799993113,72.88053340598708 75.06655335240066,73.65199901803862 75.03676451416686,74.5987952091964 75.18570870463736,75.68585408554645 75.12613102851901,76.66771057620645 75.24528638075572,78.17555581321358 75.2750752188731,79.89378949289676 75.33465289510787,80.38471172525897 75.33465289510787,81.50681688744226 75.42401940946002,82.45359009073582 75.48359708546195,84.59258601575857 75.5729635998141,85.25882775979699 75.54317476181313,87.5731305257359 75.6027524380479,88.06404110544827 75.63254127604887,89.01079511997523 75.63254127604887,90.69390652744914 75.5729635998141,91.39520036309841 75.66233011416625,91.9562343370053 75.5729635998141,93.14842830176349 75.75169662828557,93.95490996338776 75.84106314275414,94.93671101212385 75.96021849510726,95.60293145567994 75.93042965687346,96.30421465111431 76.04958500934299,96.865240113053 76.04958500934299,97.32107258460019 75.93042965687346,98.40805511749932 76.01979617122561,100.47681823704625 75.96021849510726,100.96770923899021 75.99000733310822,101.24821804859675 75.96021849510726,101.49366305751028 76.04958500934299,102.47544123139232 76.01979617122561,102.9312657994742 76.10916268546134,103.77278639213182 76.10916268546134,104.64936801546719 75.99000733310822,104.82468405523105 75.78148546651937,104.92987363340217 74.82824264757801,105.0 73.84521099040285,104.89481044452987 73.18985655228607,104.71949444277561 70.35991693334654,104.40392540031462 69.644984818995,104.26367239371757 68.15554291428998,104.19354586765985 65.32560329535045,103.87797631227295 64.34257163817529,103.98316619821708 63.68721720005851,103.94810290675377 62.4956636762945,104.05329276999692 61.840309238177724,103.94810290675377 61.15516596194357,103.94810290675377 60.35086733358912,103.77278639213182 59.39762451441493,103.66759643773548 58.86142542876769,103.38708972546738 58.32522634312045,103.28189964563353 57.25282817170955,103.28189964563353 56.24000767653342,102.8962023939821 54.89950996218249,102.72088530941983 53.32070154324174,102.4403777764528 53.08239083830267,102.4403777764528 52.754713619244285,102.33518738896237 52.129148019477725,102.26506044491543 51.95041499088984,102.15987000032328 51.89083731453866,102.05467952159233 51.92062615265604,101.70404434547527 52.03978150500916,101.49366305751028 52.099359181243926,101.10796367420699 52.15893685736228,99.81060782886925 52.24830337171443,99.38984265385079 52.24830337171443,97.4613286005042 52.39724756218493,97.07562441041227 52.48661407653708,96.26915052748518 52.665347105124965,95.70812403189484 52.784502457478084,95.11203231452964 52.69513594312593,94.62113242855412 52.72492478135973,94.30555353715317 52.844080133596435,93.88478120305808 53.141968514653854,93.42894389032153 53.79732295265421,91.2549417175178 53.9760559812421,90.97442424405017 54.0952113334788,90.44845332589466 54.33352203841787,89.9224815525522 54.4228885526536,89.60689807817107 55.70380859088618,86.73156779896817 56.15064116206486,85.36402369916323 56.50810721924063,84.83804365998367 56.68684024782851,84.45232442117413 57.223039333475754,83.71595005184645 57.61029422876891,83.26009841184714 58.14649331453256,82.1730649859528 58.47417053359095,81.71721117195557 58.44438169535715,81.71721117195557 59.42741335264873,79.99898717686301 59.99340127641335,79.15740474767517 60.47002268594224,78.24568797883694 61.57220969523769,76.45731300773332 62.46587483829353,74.77412753307726 63.210595790529624,73.65199901803862 63.568061847705394,73.23119982128264 64.01489441923331,73.02080001775175 64.3127828000579,72.95066671943641 66.78525636193808,72.8454667434853 67.32145544770174,72.88053340598708 68.12575407628901,72.81040007728734 68.90026386664249,72.8454667434853 69.67477365711238,72.7402667333663 70.62801647617016,72.7402667333663 71.4621039427584,72.60000000000582 72.20682489511091,72.67013337428216 72.56429095228668,72.63506668899208 74.0537328569917,72.67013337428216 74.67929845699109,72.63506668899208 74.88782032381278,72.7402667333663 75.03676451416686,73.02080001775175 75.03676451416686,74.52866225299658 75.18570870463736,75.68585408554645 75.15591986651998,76.17678270343458 75.24528638075572,77.6144979414239 75.24528638075572,78.28075405585696 75.21549754275475,78.456084384321 75.2750752188731,78.98207479930716 75.2750752188731,79.85872359070345 75.33465289510787,80.38471172525897 75.3048640571069,80.91069900456932 75.33465289510787,81.43668542872183 75.3048640571069,81.68214546743548 75.45380824746098,82.6289181576285 75.39423057122622,83.61075357659138 75.45380824746098,84.10167016863124 75.51338592357934,84.27699734241469 75.48359708546195,84.73284754951601 75.54317476181313,85.04843577829888 75.51338592357934,85.25882775979699 75.6027524380479,85.57441547533381 75.5729635998141,86.87182840547757 75.48359708546195,87.3627400493715 75.54317476181313,88.09910611840314 75.51338592357934,88.48482100944966 75.63254127604887,89.1159898393962 75.6027524380479,89.60689807817107 75.63254127604887,90.799100699689 75.6027524380479,91.57052358443616 75.66233011416625,92.16662182647269 75.63254127604887,92.44713826634688 75.69211895216722,93.04323489332455 75.69211895216722,93.74452363673481 75.81127430463675,94.44581086016842 75.81127430463675,95.14709656356717 75.75169662828557,95.7782523970236 75.8708519807551,97.14575247929315 75.78148546651937,97.91716023226036 75.9006408189889,98.72363000761834 75.8708519807551,99.31971507149865 75.99000733310822,100.51188190470566 75.9006408189889,101.24821804859675 75.99000733310822,102.72088530941983 75.93042965687346,103.31696300941985 76.10916268546134,104.47405188070843 76.01979617122561,104.75455765079823 75.93042965687346,104.85974725181586 75.42401940946002,105.0 73.93457750452217,104.96493681860738 72.59407979040407,104.71949444277561 71.52168161887676,104.57924157299567 71.13442672370002,104.61430479621049 70.38970577146392,104.40392540031462 70.18118390475865,104.40392540031462 68.69174200005364,104.19354586765985 67.9768098857021,104.19354586765985 66.01074657146819,103.87797631227295 65.62349167629145,103.87797631227295 65.2362367809983,103.91303961144877 64.22341628570575,103.87797631227295 63.74679487629328,103.80784970259992 63.359539981000125,103.80784970259992 62.85312973335385,103.63253311195876 62.52545251441188,103.59746978236944 61.15516596194357,103.7377230777056 60.49981152394321,103.7026597597287 59.54656870488543,103.49227977104601 58.772058914531954,103.52734311189852 58.32522634312045,103.28189964563353" stroke="#4dd2ff" stroke-linecap="round" stroke-linejoin="round" stroke-width="0.5"><title>2024-07-29 5.1km</title><desc>12014148662</desc></polyline><polyline fill="none" points="106.62141172518022,72.80971920498996 107.21526031033136,72.9145787563175 109.17496064153966,72.87962557637366 110.54081238759682,72.73981281841407 110.80804425093811,72.8446723925299 110.98619882646017,73.12429775673081 111.04558368504513,73.50878223651671 111.01589125569444,74.34765587374568 111.10496854339726,74.80204484943533 111.10496854339726,75.39624485146487 111.28312311903574,76.02539660132607 111.1940458312165,76.82931093976367 111.28312311903574,77.38855451488052 111.25343068968505,79.4507568157569 111.37220040685497,80.2546626147232 111.3425079776207,81.40808917357936 111.4612776945578,82.70132010610541 111.4612776945578,84.44892123484169 111.49097012367565,85.3576700789854 111.4612776945578,85.63728459269623 111.5800474116113,86.65088517271215 111.63943227019627,88.08390124645666 111.5800474116113,88.81788262308692 111.66912469943054,89.48195957194548 111.60973984096199,90.91496306564659 111.5800474116113,91.19457276104367 111.63943227019627,91.99844928469975 111.60973984096199,92.45281339006033 111.75820198713336,93.50134349774453 111.69881712866481,94.51491936124512 111.87697170418687,95.1440338123648 111.93635656265542,95.56344276460004 111.90666413353756,97.17117202887312 111.99574142124038,97.9051327240013 111.87697170418687,98.56919096136698 111.93635656265542,98.95364510532818 111.90666413353756,99.16334717257996 111.96604899200611,99.79245255619753 111.96604899200611,100.98075937709655 112.08481870917603,101.43511082805344 111.96604899200611,102.37876179639716 111.99574142124038,102.97291098959977 112.08481870917603,103.21756033936981 112.05512627982534,103.84665781498188 112.14420356764458,104.5107038191054 112.11451113829389,104.72040227320394 111.99574142124038,104.82525144916144 111.40189283608925,105.0 110.00634866079781,104.96505029738182 109.62034708051942,104.82525144916144 109.3828076464124,104.86020116694272 106.44325714954175,104.37090477402671 103.74124608689453,104.19615588229499 102.96924292610493,104.09130650188308 101.5736987509299,104.02140689597582 100.50477129756473,103.81170798736275 99.85153785371222,103.74180832086131 99.40615141473245,103.74180832086131 99.0795346929226,103.84665781498188 98.45599367865361,103.77675815607654 98.15906938596163,103.81170798736275 97.35737379593775,103.84665781498188 95.96182962064631,103.53210923043662 95.66490532818716,103.56705908838194 94.98197945521679,103.3923097611987 93.8833595723845,103.357359884365 93.28951098723337,103.14766054411302 92.7253548312001,103.07776073366404 92.36904568015598,102.90301114140311 92.04242895834614,102.83311127795605 90.02334376855288,102.58846163668204 89.57795732968953,102.48361173359444 88.33087530068588,102.37876179639716 88.18241315439809,102.34381180984201 87.94487372040749,102.16906181978993 87.85579643247183,101.85451159934746 87.94487372040749,101.36521064650151 88.21210558374878,100.80600864862208 88.33087530068588,100.35165631139535 88.36056773003656,99.72255201861844 88.3011828714516,99.2332478313765 88.33087530068588,98.81384365152917 88.21210558374878,98.0099841154879 88.39026015915442,96.82166634878376 89.25134060787968,93.74600003231899 89.45918761263601,92.66251968435245 89.8451891929144,91.6489379988925 90.08272862713784,90.74020688296878 90.34996049047913,90.32079165807227 91.00319393421523,88.60817382886307 91.27042579755653,87.48972462283564 91.53765766089782,87.07030517049134 91.98304409976117,86.05670590882073 92.36904568015598,84.90329597698292 92.57689268491231,84.55377700133249 92.99258669454139,84.06444979907246 93.58643527980894,83.08579316703253 94.26936115277931,82.1071335648594 94.71474759175908,81.26828011329053 95.1898264598567,80.56923390348675 95.66490532818716,79.55561420758022 96.19936905463692,78.92646934546065 96.615063064266,78.12256023526425 97.26829650823493,77.21379100185004 97.71368294709828,76.44483041923377 98.18876181531232,75.36129194055684 98.45599367865361,75.08166851624264 98.63414825394284,74.767091873975 98.96076497610193,73.96317239431664 99.1092271222733,73.68354775747866 99.43584384408314,73.2990634861344 99.67338327819016,73.08934459942975 100.17815457563847,72.9145787563175 101.45492903375998,72.94953193247784 102.88016563828569,72.80971920498996 103.71155365777668,72.87962557637366 105.43371455464512,72.77476601360831 106.76987387146801,72.60000000000582 107.72003160777967,72.70485961952363 108.75926663191058,72.70485961952363 108.96711363666691,72.6699064168206 110.45173509977758,72.73981281841407 110.62988967541605,72.70485961952363 110.9268139678752,72.87962557637366 110.98619882646017,73.08934459942975 111.01589125569444,73.33401662067627 110.9565063972259,74.03307851561112 111.16435340198223,75.01176262224908 111.16435340198223,75.46615066198865 111.28312311903574,75.88558520746301 111.1940458312165,76.3749248208187 111.1940458312165,77.24874371205806 111.25343068968505,78.0876076198474 111.22373826056719,78.68180156763992 111.25343068968505,79.52066174740321 111.3425079776207,80.00999584462261 111.31281554838642,80.70904326668824 111.40189283608925,81.37313691413146 111.3425079776207,82.66636798690888 111.40189283608925,82.77122433314798 111.37220040685497,83.57512185431551 111.43158526543994,83.88968990408466 111.40189283608925,84.27416154817911 111.43158526543994,85.11300718056737 111.49097012367565,85.56738098707865 111.55035498237703,86.65088517271215 111.63943227019627,87.2450633419794 111.55035498237703,87.87419197493 111.5800474116113,88.71302824301529 111.69881712866481,89.44700818770798 111.66912469943054,90.565450605558 111.5800474116113,91.15962156234309 111.60973984096199,91.54408453928772 111.60973984096199,92.03340039250907 111.66912469943054,92.38291126166587 111.78789441648405,94.16541080261231 111.75820198713336,94.61977185501019 111.81758684583474,94.86442754114978 111.75820198713336,95.45859057758935 111.81758684583474,95.80809773481451 111.87697170418687,97.06632036456722 112.02543385047466,97.80028129840503 111.84727927506901,99.58275089797098 112.02543385047466,101.15551001095446 112.02543385047466,102.90301114140311 112.11451113829389,103.53210923043662 112.05512627982534,103.95150727490545 112.08481870917603,104.47575406343094 112.05512627982534,104.68545254028868 111.90666413353756,104.82525144916144 111.25343068968505,104.96505029738182 110.33296538260765,104.93010059092194 110.12511837796774,104.86020116694272 109.82819408539217,104.89515088085318 109.5015773633495,104.86020116694272 109.20465307077393,104.79030172762577 108.16541804664303,104.65050280364812 107.4231073152041,104.47575406343094 106.26510257390328,104.40585454093525 105.40402212552726,104.40585454093525 104.89925082807895,104.30100522868452 102.58324134582654,103.98645708727418 101.78154575568624,103.98645708727418 99.70307570754085,103.70685848206631 99.19830441009253,103.81170798736275 98.48568610777147,103.81170798736275 97.8027602348011,103.8816076387302 96.82291006925516,103.84665781498188 95.991522049997,103.60200894239824 95.60552046948578,103.4272596341907" stroke="#4dd2ff" stroke-linecap="round" stroke-linejoin="round" stroke-width="0.5"><title>2024-07-27 5.1km</title><desc>11997575827</desc></polyline><polyline fill="none" points="141.9856166235404,72.81085645378334 142.4632718153298,72.70542824399308 144.46345293160994,72.74057098440244 146.40392714866903,72.60000000000582 146.8218754415866,72.67028549974202 146.94128923944663,72.77571372094098 147.00099613855127,72.95142734667752 147.0308495881036,73.97056449798401 147.0905564869754,74.88427094428334 147.06070303742308,75.02484093824751 147.2995306334924,75.9736868031905 147.20997028483544,76.39539518512902 147.23982373438776,77.30909479770344 147.20997028483544,78.53907097890624 147.3293840829283,80.50702316331444 147.23982373438776,81.06929302195203 147.38909098191652,82.68581343413098 147.3592375323642,83.31836270578788 147.3592375323642,84.61859899989213 147.47865133034065,85.14572033638251 147.5682116789976,86.72707920393441 147.68762547685765,90.34660491574323 147.62791857786942,91.68195371318143 147.68762547685765,93.54440469411202 147.62791857786942,94.24721360488911 147.68762547685765,95.02030164730968 147.68762547685765,95.58254633875913 147.74733237584587,95.68796710981405 147.92645307281055,96.95301368963555 147.89659962325823,97.48011497466359 147.95630652224645,98.60459485222236 147.89659962325823,98.99113390952698 147.86674617393874,99.69393101509195 147.92645307281055,100.67784440383548 147.89659962325823,101.55633597818087 147.92645307281055,101.8725923623715 147.95630652224645,103.24303312969278 148.13542721921112,104.29721439417335 148.0757203202229,104.7891644781048 147.83689272427,104.9297215079423 146.67260819417424,105.0 146.19495300203562,105.0 145.32920296688098,104.8243037413049 144.911254673847,104.8945822562091 144.64257362834178,104.85944300072151 142.37371146690566,104.40263233217411 140.79147864377592,104.33235371060437 138.25393543671817,103.94582102014101 137.02994400751777,103.91068166174227 136.01492672471795,103.80526356396149 135.29844393674284,103.66470604669303 134.49240080057643,103.66470604669303 132.85046107834205,103.38359082955867 131.41749550262466,103.41873024508823 130.0442368258955,103.17275425684056 129.65614198253024,103.06733591901138 128.76053849759046,103.03219646553043 126.16328839177731,102.54024371612468 124.25266762403771,102.36454612473608 123.95413312909659,102.22398798310314 123.86457278078888,102.0482902203803 123.86457278078888,101.8023131925147 124.01384002820123,101.31035857726238 124.16310727561358,100.29130735716899 124.10340037662536,99.6236513730546 124.1929607251659,99.16683332872344 124.22281417448539,97.44497491556103 124.40193487156648,96.98815380199812 124.55120211909525,95.93394877572428 124.79002971504815,95.23114352085395 125.08856420998927,93.57954517577309 125.20797800796572,93.15785914374283 125.23783145751804,92.87673481780803 125.4169521543663,92.56046965971473 125.65577975043561,91.82251642458141 125.71548664930742,91.36568738974165 125.8946073462721,90.87371694014291 126.25284874031786,90.06547815239173 126.49167633603793,89.18695544576622 126.90962462907191,88.06244290800532 127.14845222502481,87.7110319401545 127.68581431591883,86.3756667887792 127.98434881085996,85.35656863093027 128.19332295737695,84.93487190461019 128.76053849759046,84.1969013135822 129.14863334107213,83.56435375593719 130.2532109724125,81.91269598170766 131.56676275003701,79.55819056576001 132.4922196842963,78.22279183505452 133.6863576641772,76.1142563247704 134.07445250765886,75.30598074334557 134.37298700248357,74.84912843629718 134.73122839641292,74.0759922961297 135.26859048742335,73.37313965984504 135.53727153281216,73.12714087724453 135.9253663761774,72.95142734667752 137.92554749222472,72.91628462920198 138.5524699316593,72.84599918269669 139.2689527196344,72.88114190779743 139.806314810412,72.81085645378334 142.13488387095276,72.70542824399308 144.1350649871165,72.81085645378334 146.40392714866903,72.63514275182388 146.79202199203428,72.70542824399308 146.8815823404584,72.81085645378334 146.97114268899895,73.02171277033631 147.00099613855127,74.42741804293473 147.23982373438776,75.86825962198782 147.15026338596363,76.14939869570662 147.12040993652772,76.43053752553533 147.20997028483544,77.02795672958018 147.15026338596363,77.66051703985431 147.20997028483544,79.41762253720663" stroke="#4dd2ff" stroke-linecap="round" stroke-linejoin="round" stroke-width="0.5"><title>2024-07-26 3.8km</title><desc>11987014491</desc></polyline><polyline fill="none" points="180.5174716055626,72.8462662693928 181.20484650705475,72.81108538524131 181.3542758334661,72.70554270979483 181.50370515987743,72.67036181030562 181.9818790043937,72.67036181030562 182.5198245793581,72.60000000000582 182.84856909757946,72.67036181030562 182.93822669330984,72.70554270979483 183.02788428915665,72.8814471498481 183.087656019954,73.23325574383489 182.9979984239908,73.83132947853301 183.20719948096666,75.59036348693189 183.14742775040213,76.22361339625786 183.29685707681347,78.33443750362494 183.20719948096666,78.96768205895205 183.26697121141478,80.30452761842753 183.23708534624893,80.79704827864771 183.32674294209573,81.25438822252909 183.32674294209573,83.15410109146615 183.38651467266027,84.45574978619698 183.50605813367292,85.229700589407 183.47617226850707,86.03882900162716 183.59571572963614,88.64209803458652 183.56582986435387,89.13460604351712 183.68537332548294,89.80300857473048 183.7152591907652,90.43623075555661 183.7152591907652,90.78802032233216 183.56582986435387,91.45641944889212 183.74514505604748,92.15999598975759 183.68537332548294,93.14500058503472 183.74514505604748,94.48178775506676 183.95434611290693,95.32607155232108 183.9244602478575,96.09999643734773 183.98423197830562,97.92926610365976 183.8945743824588,98.45693813011167 183.95434611290693,99.2308555508207 183.8945743824588,99.58263558673207 183.95434611290693,100.25101660448126 183.9244602478575,101.02492974803317 184.01411784358788,102.46721750125289 184.01411784358788,103.62807859940222 184.07388957415242,104.26127381247352 184.16354716999922,104.54269351065159 184.13366130460054,104.75375812422135 183.9244602478575,104.92964519740781 183.7152591907652,104.96482260065386 183.29685707681347,105.0 182.63936804060359,104.96482260065386 181.3243899680674,104.7889355464722 179.83009670407046,104.75375812422135 179.08295007201377,104.54269351065159 177.61854267306626,104.43716115242569 175.9449342173757,104.19091884981026 173.34486393781845,103.97985387028893 172.17931519181002,103.83914380767965 171.67125548189506,103.69843368406873 171.0735381762497,103.69843368406873 170.1769622177817,103.90949884659494 169.66890250798315,103.76878875357215 168.95164174120873,103.62807859940222 167.7263212647522,103.76878875357215 166.44122905749828,103.41701325401664 165.33545204205438,103.31148052986828 164.61819127516355,103.03005976427812 159.926110425964,102.29132909397595 159.83645283000078,101.90437426240533 159.83645283000078,101.5174189695681 160.13531148293987,100.84904055917286 160.195083213388,100.39172822239925 160.16519734822214,99.54745760024525 160.195083213388,98.94943124765996 160.1054256175412,98.14033501714584 160.31462667463347,97.1553455797548 160.374398405198,96.55731482047122 160.52382773160934,95.78339102561586 160.6433711927384,95.39642843627371 161.18131676781923,93.18017926532775 161.3905178249115,92.44142617916805 161.53994715120643,91.73785024823155 161.71926234278362,91.21016729925759 161.8686916694278,90.96391496283468 162.04800686088856,90.29551482218085 162.43652310967445,89.2401433767809 162.61583830136806,88.95871041185455 162.88481108902488,88.14958927841508 163.42275666398928,86.98867282478022 163.93081637378782,85.58149579909514 164.61819127516355,84.31503126001917 166.47111492289696,81.57100780613837 167.21826155483723,80.05826700798934 168.3539244356798,78.33443750362494 169.28038625931367,76.71614024919108 169.66890250798315,76.18843287811615 170.02753289148677,75.41446051513776 170.147076352383,75.06265428551706 170.3562774094753,74.74602835267433 170.53559260128532,74.35904068211676 171.34251096379012,73.19807490159292 171.76091307774186,72.95180889914627 172.41840211406816,72.8462662693928 173.16554874600843,72.91662802634528 176.06447767850477,72.74072360538412 177.17025469394866,72.70554270979483 177.4093416160904,72.74072360538412 178.00705892185215,72.63518090700381 178.42546103568748,72.63518090700381 179.74043910822365,72.74072360538412 180.03929776104633,72.67036181030562 180.607129201293,72.74072360538412 181.65313448628876,72.60000000000582 182.22096592653543,72.67036181030562 182.96811255870853,72.63518090700381 183.02788428915665,72.67036181030562 183.11754188511986,73.02217063322314 183.087656019954,73.97205255008885 183.1773136156844,75.20337682307581 183.29685707681347,75.80144692733302 183.23708534624893,76.68095978439669 183.26697121141478,77.3142075657961 183.23708534624893,78.15853601903655" stroke="#4dd2ff" stroke-linecap="round" stroke-linejoin="round" stroke-width="0.5"><title>2024-07-24 3.7km</title><desc>11969555111</desc></polyline><polyline fill="none" points="33.873185268370435,145.36383235066023 33.873185268370435,144.92766380637477 33.95433463307563,143.49799396959133 33.95433463307563,142.86796692124335 34.096346021280624,140.73555382338236 34.15720804478042,140.2509114992863 34.11663336236961,139.66933925179183 34.19778272707481,139.23315902180912 34.177495385869406,138.0700073656335 34.2383574093692,137.0280119348754 34.258644750574604,134.43511741168913 34.3397941152798,133.15077476453735 34.299219432868995,132.88421211049717 34.3195067740744,131.81795815080113 34.299219432868995,131.0909637475852 34.3195067740744,130.09740070787666 34.400656138779595,129.249233462353 34.360081456485204,129.07959960706648 34.299219432868995,129.03113276638032 33.79203590366524,129.03113276638032 33.32542705675587,128.9341990518442 32.39220936305355,128.88573217795056 31.98646253964398,128.81303184649732 31.398129645735025,128.83726529312844 30.850371434236877,128.71609803255706 30.627210681443103,128.71609803255706 30.383762587443925,128.78879839718866 29.775142352329567,128.81303184649732 29.389682870008983,128.64339764308534 28.375315811717883,128.59493070290773 27.989856329513714,128.49799678934505 27.624684188398533,128.35259583631705 27.340661412104964,128.40106283173373 26.83347788278479,128.40106283173373 26.30600701237563,128.30412882988458 25.87997284787707,128.2798953224701 25.23077793046832,128.1102606934437 24.601870354264975,128.01332655886654 23.74980202515144,127.98909301836102 22.370262825745158,127.81945815717336 22.045665367040783,127.79522459450527 21.822504614130594,127.67405673982284 21.781929931836203,127.52865522296634 21.781929931836203,127.4074872162455 21.883366637630388,127.01974913066078 22.512274213833734,125.71112786864978 22.67457294324413,125.1295158322173 23.323767860536464,123.62701070388721 23.526641272357665,123.04539296335133 23.526641272357665,122.87575415585889 23.445491907652467,122.56071029696614 23.526641272357665,122.34260273649124 23.79037670744583,121.83368422463536 23.89181341335643,121.42170167950098 23.99325011926703,120.7189060827368 24.43957162485458,118.58627073312528 24.50043364847079,118.22275120887207 24.50043364847079,118.05310855140851 24.58158301305957,117.786526958982 24.723594401264563,116.96254537683853 25.109053883468732,115.48421747065731 25.35250197746791,114.32093582190282 25.372789318673313,114.10281980376749 25.595950071583502,113.47270560474135 25.575662730261683,113.42423520432203 25.4945133656729,113.39999999999418 25.3930766597623,113.61811673961347 25.33221463637892,113.83623325529334 25.210490589262918,114.61175683120382 24.885893130558543,115.87197660503443 24.601870354264975,117.25336277067254 24.39899694256019,118.05310855140851 24.358422260149382,118.31968980956299 24.338134919060394,118.94978963548783 24.21641087194439,119.45871505406103 23.99325011926703,120.01610816155153 23.932388095767237,120.28268695699808 23.810664048651233,121.27629588470154 23.79037670744583,121.56710737488174 23.10060710774269,123.16656345725642 22.836871672654524,123.9420529819181 22.593423578538932,124.42673249781365 21.6602058847202,126.65624403284164 21.558769178926013,127.04398278170265 21.599343861220405,127.3105527611915 21.741355249425396,127.5044216272072 22.02537802583538,127.6982903162716 22.41083750803955,127.79522459450527 24.17583618965,127.94062592898263 25.02790451887995,128.03756009662175 25.51480070676189,128.15872774412856 25.920547530287877,128.15872774412856 26.326294353581034,128.2314282994048 26.630604471080005,128.18296126529458 27.44209811789915,128.2314282994048 28.65933858801145,128.42529632533842 29.288246164214797,128.49799678934505 29.47083223471418,128.57069722865708 30.201176516828127,128.76456494510057 30.5054866343271,128.74033149023307 31.134394210530445,128.86149873690738 31.60100305743981,128.86149873690738 31.9053131750552,128.90996561635984 32.93996757466812,128.88573217795056 33.71088653896004,128.9826659146347 34.258644750574604,128.95843248460733 34.400656138779595,129.03113276638032 34.44123082107399,130.00046747969463 34.38036879757419,130.72746561335225 34.42094347986858,131.0667305579118 34.38036879757419,131.64832634582126 34.400656138779595,132.25415359907493 34.360081456485204,132.4237849205092 34.3397941152798,133.0053769946535 34.360081456485204,133.7081319609424 34.3195067740744,134.31395334254194 34.3397941152798,135.2590312497341 34.3195067740744,135.3801947801112 34.3397941152798,135.47712555465114 34.299219432868995,135.84061556535016 34.3397941152798,136.39796570775798 34.27893209178001,136.78568668398657 34.299219432868995,137.68228873237967 34.258644750574604,138.79697789662168 34.27893209178001,139.18469449649274 34.19778272707481,139.88742903110688 34.2180700681638,140.61439334596798 34.177495385869406,141.0748027926893 34.19778272707481,141.48674724178272 34.2180700681638,141.68060317680647 34.177495385869406,141.94715479893785 34.2180700681638,142.1167783843557 34.2180700681638,142.5771845766867 34.05577133886982,143.27990789497562 34.01519665645901,143.40106685295177 33.97462197416462,143.69184807036072 33.85289792716503,145.12151660323434 33.873185268370435,145.8000000000029" stroke="#4dd2ff" stroke-linecap="round" stroke-linejoin="round" stroke-width="0.5"><title>2024-07-21 4.3km</title><desc>11945152036</desc></polyline><polyline fill="none" points="57.93678989820182,139.455983589869 58.7067213403061,142.17485012300313 59.66913564130664,143.53428206336685 61.978929965756834,145.12028487655334 63.71127570979297,145.80000000004657 66.02107003331184,145.80000000004657 68.13838149793446,145.12028487655334 70.25569296162575,143.53428206336685 71.41059012338519,141.49513382092118 71.98803870473057,138.32312149065547 69.87072724010795,118.1580734134186 68.90831293910742,116.5720501455944 67.56093291658908,114.98602567450143 65.82858717348427,113.85315031534992 63.90375856962055,113.39999999990687 61.401481384411454,113.62657516938634 59.09168705996126,114.53287560446188 57.551824177615345,116.11890041944571 56.204444154165685,118.61122269788757 56.01196129526943,121.10354200494476 57.93678989820182,139.6825559362769 58.5142384795472,141.94827804691158 60.24658422265202,143.9874258467462 62.36389568634331,145.34685660898685 64.4812071500346,145.80000000004657 66.9834843352437,145.5734283165075 69.2932786596939,144.21399770234711 70.83314154297113,142.62799420091324 71.79555584397167,140.58884507487528 71.98803870473057,138.09654899686575 70.06321010086685,118.61122269788757 69.100795798935,116.79862497141585 67.94589863717556,115.21260067238472 66.02107003331184,113.85315031534992 64.28872429020703,113.39999999990687 61.978929965756834,113.39999999990687 59.09168705996126,114.7594506512396 57.35934131778777,116.34547529509291 56.204444154165685,119.06437188363634 56.01196129526943,121.33011633972637 58.129272758960724,140.81541729834862 59.09168705996126,142.85456620366313 60.24658422265202,143.9874258467462 61.978929965756834,145.12028487655334 64.28872429020703,145.80000000004657 66.40603575389832,145.80000000004657 68.33086435683072,144.89371311943978 70.44817582145333,143.0811381812673 71.41059012338519,141.49513382092118 71.98803870473057,138.32312149065547 69.87072724010795,118.38464806834236 68.90831293910742,116.34547529509291 67.36845005583018,114.7594506512396 65.44362145289779,113.62657516938634 63.32630998827517,113.39999999990687 60.6315499432385,113.85315031534992 58.3217556187883,115.21260067238472 56.78189273644239,117.25177455111407 56.01196129526943,119.97066996106878 71.98803870473057,138.5496939595323 70.25569296162575,119.97066996106878 69.67824438028038,117.47834930336103 68.52334721758962,115.89232551958412 66.7910014744848,114.30630053277127 64.86617287062109,113.62657516938634 62.171412826515734,113.39999999990687 60.24658422265202,114.07972543686628 58.129272758960724,115.43917564605363 56.78189273644239,117.25177455111407 56.204444154165685,119.29094643960707 56.204444154165685,121.55669065075926 58.129272758960724,140.58884507487528 58.89920420013368,142.40142217441462 60.24658422265202,144.21399770234711 62.74886140692979,145.5734283165075 64.86617287062109,145.80000000004657 67.36845005583018,145.34685660898685 69.100795798935,144.44056953280233 70.83314154297113,142.62799420091324 71.79555584397167,140.58884507487528 71.98803870473057,138.09654899686575 70.06321010086685,118.83779730345123 69.100795798935,116.79862497141585 67.75341577548534,115.21260067238472 65.82858717348427,113.85315031534992 63.51879284810275,113.39999999990687 61.016515663824975,113.62657516938634 58.7067213403061,114.98602567450143 57.166858457028866,116.5720501455944 56.204444154165685,118.83779730345123 56.01196129526943,121.10354200494476 58.129272758960724,140.58884507487528 59.09168705996126,142.85456620366313 60.6315499432385,144.44056953280233 62.94134426768869,145.5734283165075 65.05865573231131,145.80000000004657 67.75341577548534,145.34685660898685 69.67824438028038,143.9874258467462 70.83314154297113,142.62799420091324 71.79555584397167,140.36227282695472 71.98803870473057,137.64340393641032 69.87072724010795,118.38464806834236 68.52334721758962,115.66575059550814 66.9834843352437,114.53287560446188 65.25113859213889,113.62657516938634 62.94134426768869,113.39999999990687 61.016515663824975,113.62657516938634 58.7067213403061,114.98602567450143 56.974375596269965,117.0251997737214 56.204444154165685,118.83779730345123 56.01196129526943,121.33011633972637 57.93678989820182,139.455983589869 58.3217556187883,141.268561671488 59.66913564130664,143.53428206336685 61.401481384411454,144.89371311943978 63.71127570979297,145.80000000004657 66.21355289313942,145.80000000004657 68.52334721758962,144.89371311943978 70.44817582145333,143.30771013419144 71.60307298414409,141.268561671488 71.98803870473057,139.00283882347867 70.25569296162575,119.97066996106878 69.48576151952147,117.25177455111407 67.56093291658908,114.98602567450143 65.25113859213889,113.62657516938634 62.55637854710221,113.39999999990687 60.05410136282444,114.07972543686628 58.7067213403061,114.7594506512396 57.35934131778777,116.34547529509291 56.39692701585591,118.1580734134186 56.01196129526943,119.74409547820687 57.93678989820182,139.22941121924669 58.7067213403061,141.94827804691158 60.05410136282444,143.9874258467462 62.171412826515734,145.34685660898685 64.86617287062109,145.80000000004657 66.7910014744848,145.5734283165075 68.90831293910742,144.66714133834466 70.44817582145333,143.30771013419144 71.60307298414409,141.04198949690908 71.98803870473057,139.22941121924669 71.79555584397167,137.19025877770036 63.13382712844759,113.39999999990687 61.401481384411454,113.62657516938634 71.98803870473057,137.41683136951178 70.06321010086685,119.51752097159624 69.2932786596939,117.0251997737214 67.94589863717556,115.21260067238472 65.44362145289779,113.85315031534992 62.74886140692979,113.39999999990687 60.43906708341092,113.85315031534992 58.7067213403061,114.7594506512396 57.166858457028866,116.5720501455944 56.39692701585591,118.61122269788757 56.01196129526943,120.1972444190178 57.93678989820182,139.455983589869 58.89920420013368,142.62799420091324" stroke="#4dd2ff" stroke-linecap="round" stroke-linejoin="round" stroke-width="0.5"><title>2024-07-05 3.3km</title><desc>11814633384</desc></polyline><polyline fill="none" points="98.76611835788935,113.4000000001397 96.29835507366806,114.07034998619929 94.02041973453015,115.8579488825053 92.50179617572576,118.53934432123788 92.50179617572576,120.99728707666509 94.40007562469691,139.54348794277757 94.96955945994705,142.0014056584332 96.108527129516,143.56553358770907 97.81697863340378,144.90621372591704 99.71525808330625,145.80000000004657 101.80336547736079,145.80000000004657 103.70164492540061,145.35310691175982 105.59992437623441,144.0124270641245 106.73889204580337,142.44829947361723 107.68803176935762,140.21382942865603 107.68803176935762,137.7559095819015 105.78975232038647,119.43314202595502 104.8406125959009,116.52829806902446 102.56267725676298,114.51724985521287 99.52543013822287,113.4000000001397 96.29835507366806,114.07034998619929 93.8305917903781,116.08139863540418 92.50179617572576,118.76279378402978 92.50179617572576,121.44418544485234 94.40007562469691,139.54348794277757 95.34921535011381,142.67174634477124 96.8678389089182,144.4593204432167 98.5762904137373,145.35310691175982 100.66439780779183,145.80000000004657 102.94233314692974,145.57655346789397 105.41009643021971,144.2358737657778 106.73889204580337,142.67174634477124 107.49820382520556,140.43727654218674 107.68803176935762,138.20280431746505 105.78975232038647,120.55038861162029 105.22026848606765,117.42209664569236 104.0813008164987,115.8579488825053 101.80336547736079,114.07034998619929 99.52543013822287,113.4000000001397 97.43732274416834,113.62345001893118 95.53904329426587,114.51724985521287 93.8305917903781,115.8579488825053 92.88145206589252,117.64554622885771 92.31196822971106,119.65659139119089 94.40007562469691,139.76693512871861 94.96955945994705,141.7779587144032 95.91869918443263,143.34208681364544 97.62715068925172,144.90621372591704 99.71525808330625,145.57655346789397 101.80336547736079,145.80000000004657 104.27112876065075,144.90621372591704 105.97958026546985,143.56553358770907 107.1185479350388,141.7779587144032 107.68803176935762,139.76693512871861 105.78975232038647,120.10349005041644 105.41009643021971,117.86899578850716 104.27112876065075,115.8579488825053 102.75250520184636,114.51724985521287 100.28474191855639,113.62345001893118 97.81697863340378,113.62345001893118 95.53904329426587,114.51724985521287 94.02041973453015,115.63449910539202 92.88145206589252,117.86899578850716 92.31196822971106,119.65659139119089 94.40007562469691,139.76693512871861 94.77973151486367,141.55451174639165 96.108527129516,143.56553358770907 97.62715068925172,144.90621372591704 99.71525808330625,145.57655346789397 101.99319342151284,145.80000000004657 104.0813008164987,145.1296603307128 105.97958026546985,143.56553358770907 107.30837587919086,141.55451174639165 107.68803176935762,139.32004073285498 105.78975232038647,120.55038861162029 105.41009643021971,117.86899578850716 104.0813008164987,115.63449910539202 102.3728493116796,114.29379993281327 100.28474191855639,113.62345001893118 97.43732274416834,113.62345001893118 95.53904329426587,114.51724985521287 94.02041973453015,115.63449910539202 92.88145206589252,117.86899578850716 92.31196822971106,119.65659139119089 94.40007562469691,139.54348794277757 94.96955945994705,142.0014056584332 95.91869918443263,143.56553358770907 97.62715068925172,144.90621372591704 99.71525808330625,145.80000000004657 102.56267725676298,145.57655346789397 104.46095670573413,144.90621372591704 106.16940821055323,143.34208681364544 107.30837587919086,141.33106475346722 107.68803176935762,139.32004073285498 105.78975232038647,120.77383785578422 105.22026848606765,117.64554622885771 104.0813008164987,115.63449910539202 101.80336547736079,114.07034998619929 99.52543013822287,113.4000000001397 96.48818301968277,114.07034998619929 94.40007562469691,115.187599477591 93.26110795512795,116.75174774904735 92.50179617572576,118.53934432123788 92.31196822971106,119.88004073314369 94.40007562469691,140.21382942865603 95.34921535011381,142.67174634477124 96.67801096383482,144.2358737657778 98.76611835788935,145.35310691175982 100.85422575194389,145.80000000004657 103.70164492540061,145.35310691175982 105.22026848606765,144.2358737657778 106.9287199890241,142.22485257778317 107.68803176935762,140.21382942865603 107.68803176935762,137.9793569620233 105.78975232038647,119.65659139119089 105.22026848606765,117.42209664569236 104.0813008164987,115.63449910539202 102.18302136659622,114.29379993281327 99.71525808330625,113.4000000001397 97.24749479815364,113.62345001893118 95.53904329426587,114.29379993281327 94.02041973453015,115.8579488825053 92.88145206589252,117.64554622885771 92.50179617572576,119.43314202595502 94.40007562469691,139.76693512871861 94.96955945994705,142.0014056584332 96.108527129516,143.78898033848964 97.81697863340378,144.90621372591704 100.28474191855639,145.80000000004657 102.3728493116796,145.57655346789397 104.27112876065075,144.90621372591704 105.97958026546985,143.56553358770907 107.30837587919086,141.33106475346722 107.68803176935762,139.32004073285498 105.78975232038647,120.10349005041644 105.03044054098427,117.1986470380798 103.32198903616518,114.96414962783456 100.47456986177713,113.62345001893118 98.3864624677226,113.4000000001397 95.72887123934925,114.29379993281327 94.58990357071161,115.187599477591 93.26110795512795,116.75174774904735 92.88145206589252,117.64554622885771 92.31196822971106,119.88004073314369 94.21024768054485,139.32004073285498 94.96955945994705,142.0014056584332 96.67801096383482,144.2358737657778 98.3864624677226,145.35310691175982 100.66439780779183,145.80000000004657 102.75250520184636,145.57655346789397 104.65078465081751,144.68276709667407 105.97958026546985,143.56553358770907 107.1185479350388,141.7779587144032 107.68803176935762,139.76693512871861 105.41009643021971,118.09244532324374 104.27112876065075,115.8579488825053 102.75250520184636,114.51724985521287 100.66439780779183,113.62345001893118 98.3864624677226,113.4000000001397 96.108527129516,114.07034998619929 94.40007562469691,115.4110493035987 93.07128001004457,116.97519740578718 92.50179617572576,119.20969263557345 94.21024768054485,139.0965934980195 94.96955945994705,142.0014056584332 96.108527129516,143.56553358770907 98.00680657848716,145.1296603307128 100.66439780779183,145.80000000004657 102.56267725676298,145.57655346789397 104.8406125959009,144.68276709667407 106.35923615563661,143.34208681364544 107.30837587919086,141.55451174639165 107.68803176935762,139.32004073285498 105.78975232038647,119.43314202595502 105.22026848606765,117.42209664569236 103.51181698217988,115.187599477591 101.61353753134608,113.84690001490526 98.76611835788935,113.4000000001397 96.29835507366806,114.07034998619929 94.58990357071161,115.187599477591 93.45093590021133,116.52829806902446 92.69162412080914,118.31589483469725 92.31196822971106,119.65659139119089" stroke="#4dd2ff" stroke-linecap="round" stroke-linejoin="round" stroke-width="0.5"><title>2024-06-26 3.9km</title><desc>11744480107</desc></polyline><polyline fill="none" points="142.64239467226434,113.68114190781489 144.1649210912874,113.64599918265594 146.07554248021916,113.39999999999418 146.64275820506737,113.39999999999418 146.7920255010249,113.43514275184134 146.94129279698245,113.57571372092934 147.06070663384162,113.78657006038702 147.03085317462683,115.61398592428304 147.06070663384162,116.00055334490025 147.18012047070079,116.4925475770433 147.29953430744354,118.70651238245773 147.26968084822875,119.2687867511413 147.35924122587312,120.53390051514725 147.32938776677474,121.90443485541618 147.4786550627323,123.83722984802444 147.4488016035175,124.57520307853702 147.50850852171425,125.6645890630316 147.4786550627323,126.50798215018585 147.53836198104545,127.70278526822221 147.50850852171425,128.22990289109293 147.65777581790462,130.26808297043317 147.65777581790462,130.58435114476015 147.747336195549,131.35744982783217 147.65777581790462,132.0251244798419 147.83689657319337,133.46589141292498 147.7174827362178,134.73094978305744 147.77718965453096,135.08235401005368 147.83689657319337,136.87450964347227 147.89660349150654,137.19077137418208 147.86675003229175,137.7178735731286 147.92645695072133,138.139554715337 147.86675003229175,139.22889512803522 147.92645695072133,139.36945491473307 147.92645695072133,140.07225293424563 148.04587078746408,141.12644710743916 147.9861638690345,141.82924131897744 148.07572424667887,143.12940659490414 148.0160173282493,144.07817256019916 148.13543116499204,144.9215177546721 148.07572424667887,145.58916447812226 147.80704311386216,145.69458225619746 147.23982738913037,145.69458225619746 146.46363744989503,145.79999999998836 145.83671480673365,145.72972150784335 145.1202317859279,145.55402521122596 144.34404184669256,145.41346810525283 143.14990347856656,145.3431895294343 142.4632739169756,145.16749302329845 141.2989890081808,145.02693574971636 139.41822107858025,144.95665709019522 138.19422925135586,144.71068166173063 137.4777462304337,144.64040293358266 137.11950472008903,144.64040293358266 136.19404748501256,144.53498481278075 135.32829716813285,144.3241484684404 134.76108144328464,144.35928786874865 134.19386571843643,144.28900906446506 133.4176757792011,144.04303312962293 132.8206065952545,144.14845141017577 132.04441665601917,144.14845141017577 131.17866633925587,143.9727542567125 130.04423488967586,143.9727542567125 129.08892419515178,143.83219646546058 128.34258771524765,143.58622018402093 126.9991820511641,143.4808017204923 126.10357827518601,143.26996469084406 124.01383613108192,143.02398798285867 123.86456883500796,142.77801108837593 123.86456883500796,142.60231319238665 124.22281034546904,141.72382228437345 124.19295688637067,141.44270469111507 124.25266380480025,140.91560854695854 124.13324996782467,139.1937551717856 124.55119839683175,136.76908899811679 124.43178455997258,136.06628381941118 124.46163801918738,135.64459998099483 124.55119839683175,135.22291559411678 124.81987952953205,134.20384272863157 125.50650909112301,132.76307907461887 125.8946040609153,131.5331538169121 126.25284557114355,130.6897738010157 126.58123362238985,129.77610964156338 126.90962167363614,129.07328930552467 127.08874242869206,128.5110319396481 127.68581161287148,127.21080804691883 127.8649323679274,126.50798215018585 128.1336135007441,126.15656863045297 128.28288079681806,125.73487190404558 128.67097576637752,125.24289169671829 129.3277518687537,124.15350429544924 129.29789840965532,124.15350429544924 129.44716570561286,124.01293791245553 129.80540721595753,123.41553010520875 130.10394180798903,122.78297946226667 130.90998520655558,121.37730694859056 131.4174940129742,120.67446840647608 132.10412357456516,119.62020773626864 132.7907531360397,118.39023262169212 133.05943426885642,117.75767217422253 133.4176757792011,117.23053752537817 133.83562420797534,116.14112320161075 134.40283993293997,115.68427094409708 135.50741792330518,113.92714087714558 135.83580597455148,113.71628462916124 135.98507327050902,113.68114190781489" stroke="#4dd2ff" stroke-linecap="round" stroke-linejoin="round" stroke-width="0.5"><title>2024-06-17 3.2km</title><desc>11672403120</desc></polyline><polyline fill="none" points="188.19999998807907,118.15832583606243 155.80000001192093,141.04167415946722" stroke="#4dd2ff" stroke-linecap="round" stroke-linejoin="round" stroke-width="0.5"><title>2024-05-09 8.0km</title><desc>9223370321595310162</desc></polyline><polyline fill="none" points="11.800000000745058,165.38172398414463 18.621052633970976,168.39269151818007 14.357894733548164,163.37441175151616 33.11578947305679,174.41462364885956 44.19999999925494,177.42558824736625 37.378947369754314,176.42193348892033 14.357894733548164,172.40731337293983" stroke="#4dd2ff" stroke-linecap="round" stroke-linejoin="round" stroke-width="0.5"><title>2024-05-08 6.2km</title><desc>9223370321684028463</desc></polyline><polyline fill="none" points="64.00000001490116,154.19999999925494 58.99551995098591,186.59999999962747 69.00448006391525,174.81818628683686 69.00448006391525,177.76364019699395" stroke="#4dd2ff" stroke-linecap="round" stroke-linejoin="round" stroke-width="0.5"><title>2024-05-07 6.1km</title><desc>9223370321771754451</desc></polyline><polyline fill="none" points="24.067908957600594,194.9999999962747 43.72836419939995,227.39999999850988 12.271635800600052,227.39999999850988" stroke="#4dd2ff" stroke-linecap="round" stroke-linejoin="round" stroke-width="0.5"><title>2024-05-02 6.8km</title><desc>9223370322200251369</desc></polyline><polyline fill="none" points="55.899999998509884,220.73474477045238 47.79999999701977,223.45895452424884 80.19999999552965,211.2000059792772 75.57142857462168,215.28632348868996 79.04285714030266,207.1136871408671 80.19999999552965,198.94104547519237 80.19999999552965,200.30315278563648" stroke="#4dd2ff" stroke-linecap="round" stroke-linejoin="round" stroke-width="0.5"><title>2024-05-01 4.0km</title><desc>9223370322286947528</desc></polyline><polyline fill="none" points="83.80000000074506,214.48783953860402 116.19999999925494,207.9121604617685 106.14482758566737,211.85756833665073 115.08275861665606,214.48783953860402" stroke="#4dd2ff" stroke-linecap="round" stroke-linejoin="round" stroke-width="0.5"><title>2024-04-30 5.3km</title><desc>9223370322373916531</desc></polyline><polyline fill="none" points="119.80000000004657,208.9477810143726 121.17763779498637,210.44932819029782 123.93291338556446,209.84870980819687 125.00440944870934,210.6895753608551 136.63779527554289,200.65916738443775 149.13858267711475,200.77929310500622 151.58771653519943,203.24186463857768 152.09795275586657,217.95700304058846 149.13858267711475,221.44052962493151 134.9029921258334,221.5606508407509 132.50488188955933,220.11919453268638 124.64724409417249,219.7588298699702 124.18803149578162,212.0109329370316 126.27999999979511,209.30815270770108 136.79086614144035,200.65916738443775 148.98551181098446,200.77929310500622 151.3325984252151,203.1217394519481 152.09795275586657,206.0047367470106 151.79181102337316,218.8579171875026 148.7814173225779,221.68077203031862 135.2601574799046,221.68077203031862 132.8110236218199,220.17925528716296 124.03496062941849,219.39846497273538 124.4941732280422,211.41031624755124 135.92346456670202,200.9594816371682 149.49574803118594,200.89941879961407 152.09795275586657,204.26292767492123 151.8428346454166,217.41645384940784 151.536692913156,219.15822157775983 148.88346456666477,221.6207114388235 135.2601574799046,221.50059023598442 132.50488188955933,220.05913377174875 124.74929133825935,219.69876906997524 123.93291338556446,218.31736887502484 124.08598425169475,213.57253328332445 124.4941732280422,211.59050132276025 136.07653543306515,201.0796072926605 148.88346456666477,200.7192302479525 151.58771653519943,203.1818020485225 151.8428346454166,218.7978562899516 149.03653543279506,221.5606508407509 147.7099212598987,221.68077203031862 135.77039370080456,221.74083261552732 132.75999999977648,220.23931603494566 124.80031496030279,219.7588298699702 123.77984251943417,216.51553735911148 124.13700787397102,214.7136999841896 124.95338582643308,214.41339318547398 124.03496062941849,214.2332090283744 124.08598425169475,213.03197981551057 126.22897637751885,209.60846227302682 136.4847244094126,200.9594816371682 149.75086614163592,201.31985852547223 151.94488188973628,203.9025527005433 152.04692913382314,217.83688104362227 149.18960629892536,221.20028711517807 134.85196850378998,221.68077203031862 130.9741732282564,219.93901223060675 124.95338582643308,219.7588298699702 124.13700787397102,218.8579171875026 123.98393700784072,213.57253328332445 124.64724409417249,211.1700693894527 136.07653543306515,200.9594816371682 149.2406299209688,201.0195444681449 151.79181102337316,203.84249018208357 152.19999999995343,208.52734707604395 151.8428346454166,217.59663697169162 149.29165354324505,221.3204083830933 134.80094488174655,221.68077203031862 132.55590551160276,220.11919453268638 124.4941732280422,219.638708263461 124.64724409417249,211.3502545428928" stroke="#4dd2ff" stroke-linecap="round" stroke-linejoin="round" stroke-width="0.5"><title>2024-04-27 9.8km</title><desc>1714200483443</desc></polyline><polyline fill="none" points="155.80000000004657,208.1262787936139 156.30704225366935,209.85717289079912 157.3211267606821,210.57340333954198 158.8929577465169,210.39434581471141 160.0591549295932,209.97654469695408 160.76901408447884,210.57340333954198 162.34084507031366,209.91685879707802 164.115492957877,208.60376736387843 164.57183098606765,207.88753435312537 165.5859154930804,207.11161420703866 168.12112676072866,204.6047878015088 169.69295774656348,203.17231044598157 171.67042253538966,201.20264799747383 174.4591549297329,200.72515300952364 178.05915492982604,200.78483990568202 179.4788732395973,200.4864053603378 180.79718309873715,200.90421367855743 184.1943661973346,200.96390055521624 185.46197183104232,201.14296114665922 187.54084507073276,203.4110569305485 188.0478873241227,206.39537925593322 188.0478873241227,209.73780105874175 188.0478873241227,213.37863029458094 188.0478873241227,216.84038003039313 187.54084507073276,219.168096065172 185.10704225371592,221.49580226128455 181.6591549294535,221.67485617648344 178.26197183108889,221.61517154466128 174.35774647910148,221.79422542097745 170.96056338050403,221.61517154466128 169.33802816923708,220.60053181176772 166.95492957741953,219.94399922376033 163.4563380284235,219.94399922376033 160.76901408447884,219.82462957839016 160.312676056521,219.10841116163647 160.0084507043939,215.40793450310593 160.312676056521,212.12523278273875 160.97183098620735,211.05088978796266 162.39154929597862,209.43937136547174 163.91267605661415,208.54408131516539 166.65070422552526,206.39537925593322 169.03380281710997,204.0676092299982 171.41690140869468,201.73982936394168 172.83661971846595,200.84452679537935 176.43661971832626,200.96390055521624 179.1746478874702,201.32202167977812 179.98591549298726,201.14296114665922 182.11549295764416,200.96390055521624 184.95492957765236,200.96390055521624 186.17183098639362,201.85920292983064 187.895774648292,204.4257283360348 188.09859154955484,207.9472204730846 187.895774648292,210.81214661546983 188.0478873241227,213.7367433452746 188.14929577498697,217.3775461424957 186.62816901435144,220.1827384372591 184.75211267615668,221.73454080184456 180.79718309873715,221.79422542097745 178.0084507043939,221.8539100336493 174.7126760566607,221.79422542097745 171.31549295783043,221.73454080184456 169.18591549317352,220.54084706347203 167.7154929577373,220.1827384372591 166.39718309883028,220.36179277935298 162.64507042244077,220.00368403689936 160.71830985951237,220.00368403689936 159.95774647896178,219.10841116163647 159.95774647896178,215.64667568309233 160.46478873235174,211.88649007619824 161.88450704235584,210.39434581471141 163.65915492968634,208.78282547090203 165.78873239434324,207.11161420703866 168.07042253529653,204.6047878015088 170.80845070444047,202.21732347208308 172.63380281697027,200.90421367855743 176.58873239462264,200.78483990568202 178.566197183216,200.96390055521624 179.98591549298726,200.90421367855743 183.8901408452075,200.78483990568202 185.46197183104232,201.08327428932535 187.7436619719956,203.70948989101453 188.14929577498697,205.91788877063664 187.84507042285986,208.96188351971796 187.99718309892341,209.79748697805917 187.84507042285986,213.557686849148 187.7943661971949,217.4969163184869 187.4901408450678,219.2277809624793 185.76619718316942,220.89895545662148 184.85352112702094,221.67485617648344 181.1014084510971,221.73454080184456 178.41408450715244,221.67485617648344 175.016901408555,221.55548690608703 171.31549295783043,221.55548690608703 168.983098591445,220.36179277935298 167.7154929577373,220.06336884346092 165.07887323969044,219.88431440427667 161.32676056353375,219.82462957839016 160.26197183108889,219.168096065172 160.0591549295932,216.42258380318526 160.21126760565676,213.67705785296857 161.88450704235584,210.39434581471141 163.96338028181344,209.20062749437056 165.94084507063963,207.17130041104974 166.44788732402958,206.5147518122685 168.0197183098644,205.08227942528902 169.64225352136418,203.4110569305485 172.12676056358032,201.2623348419438 173.647887323983,200.90421367855743 175.6253521128092,201.08327428932535 178.16056338045746,200.96390055521624 179.4788732395973,201.2623348419438 182.21690140874125,200.90421367855743 184.85352112702094,200.90421367855743 186.67887323978357,202.3963836557814 187.99718309892341,204.30635532637825 187.895774648292,207.9472204730846 187.84507042285986,210.63308916828828 187.9464788734913,214.0948561631376 187.895774648292,217.4969163184869 187.7943661971949,218.8696714824182 186.27323943702504,220.48116230842425 183.68732394394465,221.73454080184456 180.79718309873715,221.79422542097745 177.85633802833036,221.79422542097745 175.2704225354828,221.91359463968547 173.1408450708259,221.79422542097745 171.82253521145321,221.79422542097745 169.64225352136418,221.07800956600113 167.46197183104232,220.06336884346092 165.63661971851252,219.82462957839016 163.40563380299136,219.64557506144047 160.9211267605424,219.82462957839016 160.312676056521,219.2874658529763 159.90704225352965,216.60163936804747 160.26197183108889,214.81108110031346 161.07323943660595,214.5126541563659 160.46478873235174,214.5126541563659 160.21126760565676,213.13988813146716 161.52957746502943,210.6927749904571 162.34084507031366,209.73780105874175 163.70985915511847,208.9021975097712 165.63661971851252,207.2906727992813 167.51267605647445,205.73882973194122 169.1352112677414,204.00792268972145 171.56901408475824,201.68014257139293 172.53239436633885,201.14296114665922 175.87887323950417,201.02358742558863 178.71830985927954,201.2623348419438 179.4788732395973,201.38170851115137 181.86197183118202,201.14296114665922 184.75211267615668,201.02358742558863 186.93239436624572,202.8141905249795 188.0478873241227,205.85820243082708 188.09859154955484,209.3796854072716 187.99718309892341,212.8414602817502 187.9464788734913,216.2435281802318 187.7436619719956,218.63093169982312 185.15774647891521,221.2570636170567 181.70985915488563,221.49580226128455 178.41408450715244,221.43611760996282 175.06760563375428,221.37643295212183 173.24225352122448,221.55548690608703 170.9098591550719,221.73454080184456 168.62816901435144,220.30210800521309 165.18028169032186,220.00368403689936 161.88450704235584,219.94399922376033 160.71830985951237,219.64557506144047 160.26197183108889,218.92935641185613 160.16056338022463,215.58699039777275 160.10985915502533,213.67705785296857 160.51549295778386,211.6477472660481 162.23943661991507,210.03623059025267 164.06478873244487,208.18596488737967 166.60000000009313,206.09694775094977 169.38873239443637,203.76917646359652 171.72112676058896,201.50108215463115 172.58309859177098,200.96390055521624 175.98028169036843,201.08327428932535 179.52957746502943,201.32202167977812 182.01408450724557,201.14296114665922 185.20845070434734,201.20264799747383 186.98309859167784,202.99325051449705 187.7436619719956,204.00792268972145 187.99718309892341,206.15663406491512 188.14929577498697,208.663453406014 187.99718309892341,212.1849184432649 187.99718309892341,215.46761980786687 187.7943661971949,217.67597153387032 187.33802816900425,219.2277809624793 185.664788732538,221.13769425608916 183.58591549331322,221.61517154466128 180.1380281690508,221.73454080184456 176.2338028170634,221.67485617648344 173.24225352122448,221.55548690608703 170.8591549298726,221.73454080184456 169.33802816923708,220.48116230842425 166.90422535245307,219.94399922376033 163.05070422543213,219.76494474580977 161.02253521117382,219.88431440427667 160.26197183108889,219.34715073736152 160.21126760565676,217.1984908299055 160.21126760565676,213.85611431056168 160.76901408447884,211.4686900905799" stroke="#4dd2ff" stroke-linecap="round" stroke-linejoin="round" stroke-width="0.5"><title>2024-04-27 10.1km</title><desc>9223370322649067555</desc></polyline><polyline fill="none" points="28.0,249.27579054050148 37.25714284181595,249.27579054050148 25.68571427464485,254.72420945949852 11.799999997019768,249.27579054050148 44.19999998807907,254.72420945949852 18.74285712838173,254.72420945949852" stroke="#4dd2ff" stroke-linecap="round" stroke-linejoin="round" stroke-width="0.5"><title>2024-04-26 5.2km</title><desc>9223370322713802999</desc></polyline><polyline fill="none" points="85.67826086934656,252.00000727863517 85.20869565196335,251.81576117838267 86.30434782523662,252.36849941930268 87.24347826093435,253.2897294217255 89.90434782579541,253.2897294217255 91.15652173943818,252.55274545995053 91.31304347794503,251.6315150577575 90.68695652112365,252.55274545995053 90.21739130374044,251.81576117838267 91.0,251.44726891734172 94.44347826112062,251.44726891734172 95.69565217383206,251.81576117838267 97.88695652224123,251.6315150577575 98.20000000018626,250.71028415695764 97.41739130485803,249.78905275673606 95.069565217942,248.68357441783883 93.81739130429924,247.9465884581441 92.09565217327327,247.02535556047224 91.15652173943818,250.3417916566832 91.15652173943818,251.44726891734172 90.37391304317862,252.18425335921347 89.4347826084122,252.00000727863517 88.18260869570076,252.18425335921347 86.77391304261982,251.81576117838267 86.4608695646748,253.1054834612878 87.86956521775573,253.65822128287982 86.77391304261982,254.39520476583857 87.86956521775573,254.57945058634505 87.55652173794806,255.50067939108703 86.77391304261982,256.05341643374413 83.79999999981374,256.97464443952776 88.02608695626259,253.84246718348004 89.12173913046718,253.2897294217255 88.80869565159082,252.18425335921347 92.25217391271144,253.2897294217255 93.66086956579238,253.1054834612878 94.75652173906565,253.65822128287982 94.13043478224427,254.39520476583857 94.44347826112062,255.13218792923726 95.38260869588703,255.86917077284306 95.38260869588703,256.6061532967724 94.13043478224427,256.97464443952776 91.62608695589006,255.86917077284306 91.4695652173832,254.76369638729375 93.03478260803968,254.57945058634505 93.81739130429924,255.13218792923726 95.69565217383206,254.57945058634505 96.00869565270841,255.68492509180214 94.75652173906565,256.4219076959416 93.34782608691603,256.4219076959416 89.12173913046718,253.84246718348004 86.77391304261982,251.81576117838267 85.67826086934656,251.44726891734172 84.58260869514197,251.6315150577575 85.20869565196335,250.89453037746716 86.4608695646748,251.26302275736816 87.40000000037253,251.07877657725476 86.77391304261982,251.81576117838267 85.3652173904702,251.81576117838267 83.79999999981374,252.00000727863517 87.24347826093435,252.18425335921347 88.4956521736458,251.6315150577575 89.4347826084122,251.6315150577575 90.21739130374044,252.36849941930268 92.09565217327327,251.44726891734172 92.8782608686015,251.81576117838267 93.81739130429924,251.81576117838267 94.44347826112062,252.36849941930268 95.38260869588703,252.7369914802257 96.32173913065344,252.55274545995053 97.10434782598168,252.7369914802257 98.04347826074809,253.84246718348004 99.60869565233588,254.94794216798618 100.86086956504732,254.76369638729375 101.79999999981374,255.13218792923726 100.54782608617097,254.57945058634505 98.20000000018626,254.02671306428965 99.13913043495268,253.65822128287982 99.29565217345953,254.76369638729375 100.39130434859544,254.57945058634505 100.54782608617097,253.65822128287982 101.3304347814992,254.39520476583857 102.26956521719694,254.57945058634505 99.60869565233588,254.57945058634505 100.86086956504732,254.76369638729375 101.17391304392368,254.210958924843 101.95652173925191,254.57945058634505 102.73913043458015,255.13218792923726 100.07826086878777,256.05341643374413 101.79999999981374,255.50067939108703 103.83478260878474,253.84246718348004 103.0521739134565,252.92123748059385 103.0521739134565,253.65822128287982 101.3304347814992,254.02671306428965 99.60869565233588,253.84246718348004 98.35652173869312,253.1054834612878 95.38260869588703,252.92123748059385 96.79130434803665,253.1054834612878 97.57391304336488,254.02671306428965 99.13913043495268,253.2897294217255 102.26956521719694,253.1054834612878 104.14782608766109,253.65822128287982 106.02608695626259,253.84246718348004 107.27826086990535,253.84246718348004 110.72173913009465,254.210958924843 114.00869565177709,254.57945058634505 116.20000000018626,254.94794216798618 114.00869565177709,254.94794216798618 113.5391304353252,254.94794216798618 111.5043478263542,254.94794216798618 109.78260869625956,254.76369638729375 108.5304347826168,254.94794216798618 106.80869565159082,254.94794216798618 106.18260869570076,254.39520476583857 104.14782608766109,253.84246718348004 107.27826086990535,253.47397536260542 108.5304347826168,254.210958924843 109.31304347794503,253.84246718348004 108.37391304410994,253.65822128287982 108.84347826149315,253.84246718348004 108.06086956523359,254.210958924843 107.12173913046718,254.210958924843 108.37391304410994,253.47397536260542" stroke="#4dd2ff" stroke-linecap="round" stroke-linejoin="round" stroke-width="0.5"><title>2024-04-24 3.4km</title><desc>9223370322893282018</desc></polyline><polyline fill="none" points="152.19999999925494,253.68260029517114 122.65882353112102,249.1956665813923 119.80000000074506,254.8043334186077 123.61176471039653,250.31740019097924" stroke="#4dd2ff" stroke-linecap="round" stroke-linejoin="round" stroke-width="0.5"><title>2024-04-23 3.1km</title><desc>9223370322979897699</desc></polyline></svg>