<?xml version="1.0" encoding="utf-8" ?>
<svg baseProfile="full" height="300mm" version="1.1" viewBox="0,0,200,300" width="200mm" xmlns="http://www.w3.org/2000/svg" xmlns:ev="http://www.w3.org/2001/xml-events" xmlns:xlink="http://www.w3.org/1999/xlink"><defs /><rect fill="#222222" height="300" width="200" x="0" y="0" /><text fill="#FFFFFF" style="font-size:12px; font-family:Arial; font-weight:bold;" x="10" y="20">Over 5km Runs</text><text fill="#FFFFFF" style="font-size:4px; font-family:Arial" x="10" y="280">ATHLETE</text><text fill="#FFFFFF" style="font-size:9px; font-family:Arial" x="10" y="290">L</text><text fill="#FFFFFF" style="font-size:4px; font-family:Arial" x="120" y="280">STATISTICS</text><text fill="#FFFFFF" style="font-size:3px; font-family:Arial" x="120" y="285">Number: 18</text><text fill="#FFFFFF" style="font-size:3px; font-family:Arial" x="120" y="290">Weekly: 2.0</text><text fill="#FFFFFF" style="font-size:3px; font-family:Arial" x="141" y="285">Total: 119.6 km</text><text fill="#FFFFFF" style="font-size:3px; font-family:Arial" x="141" y="290">Avg: 6.6 km</text><text fill="#FFFFFF" style="font-size:3px; font-family:Arial" x="167" y="285">Min: 5.0 km</text><text fill="#FFFFFF" style="font-size:3px; font-family:Arial" x="167" y="290">Max: 14.8 km</text><polyline fill="none" points="28.958282665349543,32.96471235132776 19.851009516976774,35.58532231580466 16.81525180209428,42.01771534583531 16.81525180209428,62.505952859763056 21.065312603488564,70.367667716695 29.767818056046963,71.79706739680842 35.839333487674594,67.50886556808837 37.05363657325506,41.77947890292853 34.6250304011628,37.0147446161136 28.553514969535172,33.202949749771506 21.065312603488564,35.3470851755701 18.02955488860607,38.92063957056962 17.017635649070144,63.22065537236631 24.910605710931122,72.03530058637261 32.196424229070544,71.55883418116719 36.648868878372014,66.31769690802321 37.05363657325506,41.54124243417755 33.613111161626875,35.3470851755701 29.160666512325406,32.96471235132776 23.29153492860496,34.15589908603579 17.827171039767563,39.39711305079982 17.220019497908652,63.93535765283741 20.255777213722467,69.41473407996818 26.12490879651159,72.27353374962695 33.20834346674383,71.32060093944892 37.25602042116225,65.8412292636931 37.25602042116225,42.25595176429488 33.81549501046538,35.58532231580466 28.958282665349543,32.96471235132776 23.493918776512146,33.44118712237105 18.83909027930349,37.0147446161136 17.220019497908652,63.45888949139044 19.851009516976774,68.46180003019981 25.720141101628542,72.27353374962695 31.386888837441802,72.27353374962695 36.648868878372014,67.7470992221497 37.25602042116225,42.01771534583531 34.01787885837257,35.58532231580466 27.541595730930567,32.25 17.827171039767563,38.68240279145539 17.220019497908652,64.1735916940961 23.898686472326517,71.79706739680842 28.553514969535172,72.75 35.839333487674594,67.50886556808837 37.66078811697662,44.87655065045692 34.6250304011628,36.30003358237445 28.755898817442358,32.72647492703982 21.67246414721012,34.394136355957016 17.6247871927917,38.68240279145539 16.81525180209428,63.697123584803194 23.29153492860496,71.79706739680842 31.589272684417665,71.32060093944892 36.8512527262792,65.12652760325 37.05363657325506,40.82653287239373 32.60119192395359,34.63237359956838 27.13682803604752,32.25 20.660544908605516,34.870610817102715 16.81525180209428,41.064769418444484 17.220019497908652,64.88829366466962 26.934444188140333,72.5117668879684 31.791656533256173,71.32060093944892 36.648868878372014,65.364761516219 36.8512527262792,40.58829629980028 33.005959619767964,35.10884800949134 26.327292644418776,32.96471235132776 20.45816106069833,35.58532231580466 17.6247871927917,40.11182307777926 17.422403343953192,64.65005970047787 26.52967649232596,72.27353374962695 32.80357577186078,70.84413437987678 36.8512527262792,65.12652760325 37.05363657325506,41.54124243417755 32.196424229070544,34.15589908603579 26.732060339301825,32.72647492703982 21.67246414721012,34.394136355957016 17.422403343953192,40.11182307777926 17.017635649070144,63.45888949139044 19.041474126279354,68.22356645297259 26.12490879651159,72.03530058637261 31.791656533256173,71.32060093944892 36.648868878372014,65.12652760325 36.8512527262792,41.3030059391167 34.42264655325562,36.30003358237445 28.553514969535172,32.72647492703982 23.29153492860496,33.202949749771506 17.6247871927917,38.92063957056962 17.220019497908652,63.697123584803194 20.45816106069833,69.41473407996818 26.12490879651159,72.5117668879684 32.39880807604641,71.08236767258495 36.44648503046483,65.8412292636931 37.25602042116225,41.3030059391167 33.41072731465101,34.63237359956838 28.755898817442358,32.48823747644201 21.470080298371613,34.394136355957016 18.02955488860607,38.68240279145539 17.422403343953192,65.12652760325 26.12490879651159,71.79706739680842 34.22026270534843,69.41473407996818 36.44648503046483,65.364761516219 37.05363657325506,40.82653287239373 32.80357577186078,34.870610817102715 28.148747274652123,33.44118712237105 23.089151081629097,33.91766179050319 17.827171039767563,38.68240279145539 17.422403343953192,64.88829366466962 21.874847995117307,70.367667716695 27.541595730930567,72.03530058637261 33.81549501046538,69.65296752750874 36.8512527262792,64.88829366466962 36.244101183488965,38.92063957056962 31.791656533256173,34.15589908603579 25.517757253721356,32.96471235132776 17.017635649070144,40.58829629980028 16.81525180209428,62.98242122773081 20.45816106069833,69.65296752750874 26.52967649232596,72.27353374962695 31.994040380232036,71.08236767258495 36.8512527262792,65.364761516219 36.8512527262792,41.54124243417755 33.81549501046538,35.82355943066068 28.351131120696664,32.72647492703982 22.886767233721912,33.67942446959205 18.02955488860607,38.92063957056962 17.017635649070144,63.697123584803194 24.708221862092614,71.32060093944892 30.982121142558753,71.08236767258495 36.04171733465046,66.79416444920935 37.25602042116225,41.54124243417755 33.20834346674383,35.10884800949134 28.755898817442358,32.72647492703982 21.874847995117307,34.394136355957016 17.827171039767563,38.92063957056962 17.422403343953192,63.697123584803194 21.267696452327073,69.89120094943792 27.13682803604752,72.03530058637261 33.20834346674383,70.84413437987678 36.648868878372014,64.88829366466962 36.8512527262792,40.58829629980028 28.553514969535172,32.96471235132776 23.089151081629097,33.202949749771506 18.231938735581934,37.252981576137245 17.220019497908652,64.1735916940961 24.50583801511675,71.55883418116719 32.39880807604641,70.84413437987678 36.04171733465046,66.79416444920935 37.66078811697662,42.49418815551326 34.6250304011628,36.06179651990533 29.363050361163914,32.96471235132776 21.874847995117307,34.15589908603579 17.827171039767563,38.444165986962616 17.017635649070144,63.93535765283741 23.493918776512146,71.55883418116719 29.767818056046963,72.27353374962695 36.04171733465046,67.7470992221497 36.8512527262792,40.350059701362625 27.33921188302338,32.72647492703982 21.267696452327073,34.63237359956838 17.017635649070144,39.63534975214861 17.422403343953192,64.1735916940961 20.45816106069833,69.41473407996818 26.12490879651159,72.03530058637261 31.994040380232036,70.367667716695 36.8512527262792,64.41182571067475 37.458404270000756,42.01771534583531 32.39880807604641,34.394136355957016 27.13682803604752,32.48823747644201 22.279615690000355,33.67942446959205 17.422403343953192,39.39711305079982 17.422403343953192,64.88829366466962 21.67246414721012,69.89120094943792 26.732060339301825,71.79706739680842 32.196424229070544,70.60590106085874 36.8512527262792,65.12652760325 37.05363657325506,42.25595176429488 34.42264655325562,36.77650763094425 28.553514969535172,33.202949749771506 21.67246414721012,34.394136355957016 17.220019497908652,41.064769418444484 17.422403343953192,64.65005970047787 21.67246414721012,70.367667716695 28.755898817442358,71.79706739680842 33.613111161626875,69.65296752750874 37.05363657325506,63.93535765283741 36.648868878372014,39.39711305079982 34.01787885837257,35.82355943066068 26.12490879651159,32.72647492703982 17.220019497908652,39.63534975214861 16.612867954187095,62.74418705678545 19.64862567000091,68.46180003019981 24.708221862092614,71.79706739680842 30.374969598837197,71.55883418116719 35.839333487674594,67.7470992221497 37.66078811697662,45.11478675855324 36.44648503046483,38.68240279145539 31.994040380232036,33.67942446959205 22.684383384883404,33.91766179050319 17.422403343953192,38.92063957056962 17.017635649070144,61.55301581509411 20.45816106069833,69.41473407996818 31.184504989534616,71.55883418116719 37.458404270000756,63.45888949139044 36.648868878372014,39.15887632383965 29.565434208139777,32.96471235132776 22.077231843024492,33.91766179050319 16.612867954187095,41.54124243417755 17.6247871927917,65.60299540287815 26.934444188140333,71.79706739680842 33.20834346674383,69.89120094943792 36.8512527262792,64.88829366466962 36.8512527262792,40.58829629980028 32.39880807604641,34.394136355957016 26.732060339301825,32.48823747644201 17.422403343953192,39.87358642718755 16.81525180209428,62.74418705678545 20.255777213722467,68.93826710688882 25.922524949535728,71.55883418116719 33.81549501046538,69.65296752750874 37.25602042116225,63.45888949139044 36.244101183488965,39.87358642718755 30.982121142558753,33.91766179050319 24.50583801511675,33.202949749771506 17.220019497908652,41.3030059391167 17.017635649070144,62.98242122773081 20.053393365815282,69.41473407996818 30.779737294651568,71.08236767258495 37.458404270000756,63.93535765283741 36.44648503046483,38.444165986962616 30.374969598837197,33.202949749771506 21.67246414721012,34.394136355957016 16.81525180209428,42.01771534583531 16.612867954187095,59.17067139525898 20.660544908605516,69.41473407996818 24.303454167209566,71.55883418116719 34.01787885837257,69.41473407996818 37.05363657325506,64.1735916940961 37.25602042116225,50.59421010315418 47.577596655115485,51.070681052980945 46.16090972162783,52.73832856398076 48.38713204674423,52.97656381921843 46.97044511139393,51.070681052980945 37.66078811697662,50.832445591455325 36.8512527262792,39.87358642718755 30.577353446744382,33.202949749771506 25.720141101628542,32.48823747644201 20.8629287565127,35.10884800949134 17.6247871927917,39.87358642718755 16.612867954187095,61.55301581509411 22.684383384883404,70.60590106085874 31.589272684417665,70.60590106085874 35.839333487674594,65.8412292636931 36.8512527262792,42.25595176429488 34.6250304011628,36.77650763094425 28.958282665349543,32.96471235132776 21.67246414721012,34.394136355957016 17.827171039767563,38.92063957056962 17.017635649070144,62.98242122773081 23.089151081629097,71.32060093944892 31.589272684417665,71.32060093944892 36.04171733465046,66.55593069130555 37.05363657325506,40.82653287239373 29.363050361163914,32.96471235132776 21.267696452327073,34.63237359956838 17.827171039767563,39.15887632383965 17.017635649070144,62.267718637827784 20.255777213722467,68.93826710688882 25.315373406745493,71.79706739680842 31.589272684417665,71.32060093944892 36.8512527262792,63.45888949139044 37.66078811697662,51.78538728505373 36.648868878372014,41.064769418444484 34.22026270534843,36.30003358237445 26.732060339301825,32.72647492703982 17.827171039767563,39.15887632383965 17.422403343953192,63.93535765283741 21.065312603488564,69.89120094943792 27.13682803604752,71.55883418116719 33.41072731465101,70.367667716695 36.8512527262792,64.41182571067475 36.8512527262792,41.3030059391167 29.565434208139777,33.202949749771506 23.089151081629097,33.91766179050319 17.827171039767563,38.68240279145539 17.6247871927917,64.88829366466962 25.517757253721356,72.03530058637261 30.779737294651568,71.32060093944892" stroke="#4dd2ff" stroke-linecap="round" stroke-linejoin="round" stroke-width="0.5"><title>2024-09-01 14.8km</title><desc>12293517429</desc></polyline><polyline fill="none" points="85.24118133541197,35.54065121547319 83.73595163226128,34.275016681523994 80.72549222409725,32.756254334934056 76.63986873999238,32.25 73.41437651775777,33.00938146095723 69.5437858486548,36.046904837246984 68.2535889595747,38.57817129907198 67.39345769863576,41.86881359783001 67.1784248854965,54.27196212322451 67.82352332863957,65.1563034998253 68.68365458957851,67.94066175026819 70.40391710866243,70.47189364302903 72.98431088682264,71.99063146137632 76.20980310998857,72.75 81.15555785316974,72.24375433544628 83.73595163226128,70.21877057710662 86.10131259635091,67.43441504263319 87.17647667042911,64.65005618846044 87.39150948543102,62.118817986221984 87.17647667042911,56.80320883146487 87.39150948543102,45.918828522088006 86.9614438554272,39.33755070180632 84.16601726133376,35.287524364190176 82.66078755725175,34.02188969193958 80.51045940816402,33.00938146095723 76.4248359259218,32.503127180738375 72.33921244274825,33.76876267581247 69.9738514777273,35.79377803974785 68.68365458957851,37.81879164837301 67.39345769863576,41.362561237532645 67.39345769863576,45.15945125906728 67.60849051456898,50.22196168452501 67.39345769863576,62.878189734881744 68.4686217745766,66.42192129860632 69.9738514777273,68.95315483678132 72.12417962774634,71.23126267502084 76.4248359259218,72.49687718134373 79.65032814908773,72.49687718134373 83.73595163226128,69.71252436307259 86.9614438554272,66.16879779333249 87.60654230043292,64.39693249156699 87.8215751145035,63.131313596852124 87.17647667042911,59.58757703984156 87.17647667042911,43.387570017483085 86.5313782254234,38.83129779412411 84.16601726133376,35.79377803974785 81.37059066817164,33.51563563174568 79.00522970315069,32.503127180738375 77.06993436999619,32.503127180738375 74.48954059183598,33.00938146095723 71.69411399681121,34.781270576873794 69.5437858486548,37.05941175157204 68.0385561445728,40.09692985890433 67.39345769863576,43.387570017483085 67.82352332863957,45.41257704142481 67.60849051456898,51.23446245212108 68.0385561445728,65.40942711476237 69.5437858486548,68.19378506345674 71.47908118274063,70.47189364302903 74.48954059183598,71.99063146137632 77.71503281593323,72.49687718134373 83.09085318725556,71.48438563128002 85.0261485222727,69.71252436307259 86.7464110404253,67.18129164795391 87.39150948543102,65.1563034998253 87.17647667042911,40.603182492777705 86.5313782254234,38.83129779412411 84.81111570633948,36.046904837246984 81.58562348317355,33.76876267581247 78.79019689001143,33.00938146095723 75.99477029591799,33.26250855997205 72.76927807182074,34.781270576873794 70.18888429366052,37.312538410536945 68.68365458957851,40.35005619004369 68.0385561445728,43.387570017483085 67.82352332863957,55.031336423242465 68.0385561445728,63.89068501628935 68.4686217745766,65.66255070152692 70.40391710866243,69.20627803937532 71.47908118274063,70.47189364302903 75.99477029591799,72.24375433544628 79.43529533408582,72.24375433544628 81.58562348317355,71.48438563128002 84.59608289133757,68.95315483678132 85.88627978041768,67.18129164795391 87.17647667042911,63.63756123720668 86.9614438554272,54.01883730106056 87.39150948543102,50.72821212303825 87.17647667042911,48.95633510663174 87.17647667042911,42.62819193047471 86.7464110404253,40.35005619004369 84.81111570633948,36.553158349124715 82.66078755725175,34.5281436429359 79.22026251908392,32.503127180738375 76.85490155499429,32.756254334934056 75.13463903591037,33.26250855997205 71.26404836773872,35.54065121547319 69.3287530336529,38.57817129907198 68.2535889595747,41.61568743083626 68.0385561445728,44.14694785629399 68.4686217745766,51.23446245212108 68.0385561445728,63.63756123720668 68.4686217745766,65.9156742610503 69.75881866365671,68.19378506345674 72.55424525681883,71.23126267502084 77.93006562907249,72.49687718134373 80.29542659409344,72.24375433544628 81.80065629817545,71.48438563128002 84.59608289133757,68.95315483678132 86.10131259635091,66.92816822533496 87.39150948543102,62.878189734881744 86.9614438554272,51.23446245212108 87.17647667042911,42.62819193047471 86.7464110404253,39.084424261702225 85.4562141513452,36.80628506443463 83.30588600225747,34.5281436429359 81.15555785316974,33.26250855997205 77.71503281593323,32.25 74.70457340590656,33.00938146095723 71.69411399681121,35.03439748403616 70.18888429366052,36.80628506443463 68.89868740364909,39.084424261702225 68.2535889595747,41.61568743083626 68.0385561445728,51.23446245212108 68.4686217745766,57.8157067457214 68.2535889595747,63.63756123720668 69.3287530336529,66.92816822533496 70.83398273866624,69.4594012144953 73.19934370182455,71.48438563128002 76.20980310998857,72.24375433544628 79.65032814908773,72.24375433544628 83.52091881725937,70.47189364302903 84.81111570633948,69.71252436307259 86.31634540949017,67.18129164795391 87.39150948543102,63.131313596852124 87.39150948543102,55.284461135743186 86.7464110404253,45.41257704142481 86.9614438554272,40.603182492777705 86.10131259635091,38.071918225847185 83.52091881725937,35.03439748403616 80.94052503816783,33.51563563174568 77.5,32.503127180738375 74.48954059183598,33.51563563174568 71.90914681274444,35.54065121547319 70.40391710866243,37.312538410536945 69.113720218651,39.590677115367725 68.0385561445728,45.15945125906728 68.0385561445728,62.62506584567018 68.68365458957851,66.16879779333249 70.18888429366052,68.70003160671331 73.19934370182455,71.48438563128002 75.34967185091227,72.49687718134373 78.3601312590763,72.49687718134373 80.08039377909154,72.24375433544628 83.73595163226128,70.21877057710662 86.10131259635091,66.92816822533496 87.39150948543102,62.62506584567018 87.60654230043292,60.09382544900291 87.17647667042911,47.43758230796084 87.39150948543102,42.37506584706716 86.5313782254234,39.590677115367725 85.24118133541197,36.30003160657361 82.23072192724794,33.51563563174568 80.08039377909154,32.503127180738375 77.28496718406677,32.25 73.62940933089703,33.51563563174568 72.55424525681883,34.5281436429359 69.5437858486548,38.071918225847185 68.2535889595747,41.109435016987845 68.0385561445728,53.259462672052905 68.2535889595747,56.80320883146487 67.82352332863957,63.63756123720668 68.2535889595747,66.16879779333249 68.89868740364909,67.68753840983845 71.47908118274063,70.47189364302903 74.27450777683407,72.24375433544628 77.06993436999619,72.49687718134373 81.15555785316974,71.48438563128002 83.73595163226128,69.96564748417586 85.88627978041768,67.43441504263319 87.17647667042911,64.39693249156699 87.39150948543102,61.612570016644895 87.39150948543102,54.01883730106056 87.8215751145035,48.19695883104578 87.8215751145035,43.8938219381962 87.39150948543102,41.362561237532645 84.81111570633948,36.80628506443463 82.87582037225366,34.5281436429359 80.29542659409344,33.51563563174568 75.56470466591418,33.51563563174568 72.76927807182074,35.03439748403616 70.61894992273301,37.05941175157204 69.113720218651,39.590677115367725 68.2535889595747,41.86881359783001 68.68365458957851,46.67820553923957 68.2535889595747,53.00633774069138 68.4686217745766,61.86569401505403 68.89868740364909,64.90317985834554 69.9738514777273,66.92816822533496 72.55424525681883,69.96564748417586 74.05947496183217,70.72501668101177 76.63986873999238,71.23126267502084 79.43529533408582,70.97813969175331 81.80065629817545,70.21877057710662 83.73595163226128,68.70003160671331 85.67124696541578,66.16879779333249 86.5313782254234,63.63756123720668 86.31634540949017,56.04383510653861 86.9614438554272,51.23446245212108 86.9614438554272,44.40007374831475 86.5313782254234,41.362561237532645 85.67124696541578,39.084424261702225 83.30588600225747,36.046904837246984 80.29542659409344,34.02188969193958 77.28496718406677,33.76876267581247 73.84444214683026,34.781270576873794 71.90914681274444,36.046904837246984 70.40391710866243,37.81879164837301 69.113720218651,40.35005619004369 68.68365458957851,42.37506584706716 69.113720218651,47.943833351368085 68.89868740364909,62.62506584567018 69.75881866365671,66.16879779333249 71.04901555273682,68.19378506345674 72.98431088682264,70.21877057710662 75.56470466591418,71.23126267502084 80.08039377909154,71.23126267502084 83.09085318725556,69.71252436307259 84.59608289133757,68.19378506345674 86.10131259635091,65.1563034998253 86.5313782254234,63.131313596852124 86.5313782254234,45.41257704142481 86.5313782254234,42.37506584706716 85.88627978041768,40.35005619004369 84.81111570633948,38.071918225847185 82.66078755725175,35.54065121547319 80.94052503816783,34.781270576873794 78.3601312590763,34.275016681523994 75.13463903591037,34.5281436429359 71.69411399681121,36.30003160657361 69.3287530336529,40.35005619004369 68.89868740364909,42.37506584706716 69.113720218651,63.63756123720668 69.3287530336529,65.40942711476237 70.83398273866624,68.70003160671331 74.48954059183598,70.97813969175331 79.00522970315069,71.99063146137632 80.72549222409725,71.48438563128002 83.30588600225747,69.96564748417586 85.67124696541578,66.67504477570765 86.5313782254234,63.384437430417165 86.5313782254234,50.72821212303825 86.31634540949017,50.98133730166592 86.7464110404253,47.18445674632676 86.5313782254234,42.37506584706716" stroke="#4dd2ff" stroke-linecap="round" stroke-linejoin="round" stroke-width="0.5"><title>2024-08-28 5.0km</title><desc>12260135184</desc></polyline><polyline fill="none" points="131.44933434017003,41.1460188429337 130.85271205101162,39.507281282916665 128.06847470067441,36.698014001594856 124.0909927720204,34.825167117174715 120.9090072279796,33.88874306669459 118.7213921668008,34.59106114297174 116.13602891378105,36.46390822972171 114.94278433453292,38.33675369317643 112.95404336974025,43.01886024652049 112.75516927428544,45.35990971629508 112.75516927428544,49.80789671908133 113.35179156251252,60.108463030774146 113.1529174670577,63.151802766602486 113.55066565982997,64.79052238725126 114.94278433453292,67.83385552605614 116.93152529839426,69.94077595626004 120.51125903520733,72.28179624653421 122.30112590361387,72.51589813572355 126.27860783226788,72.28179624653421 128.86397108528763,70.64308231021278 131.25046024285257,67.599753129296 132.04595662932843,65.25872776424512 132.24483072478324,45.59401452424936 131.64820843655616,42.082439747639 129.6594674717635,38.80496480525471 126.87523012142628,35.99569661007263 124.0909927720204,34.59106114297174 120.51125903520733,34.122849117266014 117.92589578125626,35.05927306693047 116.73265120293945,35.76159076252952 115.14165843091905,37.16622546920553 114.14728794898838,39.507281282916665 113.1529174670577,44.423490232555196 113.55066565982997,47.46685207076371 113.1529174670577,62.44949397747405 113.74953975621611,65.49283041479066 116.33490301016718,69.70667378790677 117.52814758848399,70.87718437681906 118.7213921668008,71.81359239085577 122.69887409545481,72.75 124.6876150611788,72.51589813572355 127.67072650790215,71.57949042553082 130.4549638563767,69.23846937459894 131.64820843655616,66.19513821438886 132.24483072478324,62.21539099654183 131.8470825329423,46.29632879490964 131.44933434017003,42.082439747639 129.85834156814963,38.33675369317643 126.47748192865402,35.52748488960788 123.69324457738549,34.3569551424589 119.91463674604893,34.3569551424589 117.92589578125626,35.05927306693047 114.74391023814678,38.57085926248692 113.55066565982997,41.1460188429337 113.1529174670577,42.31654490996152 113.55066565982997,60.81077258102596 113.1529174670577,63.151802766602486 114.74391023814678,66.89744578604586 116.33490301016718,69.23846937459894 118.52251807134598,71.1112864187453 120.9090072279796,72.04769433126785 123.89211867470294,72.04769433126785 126.67635602504015,71.34538843482733 129.26171927992254,69.70667378790677 130.4549638563767,68.06795789767057 131.25046024285257,66.66334328753874 132.04595662932843,63.85411132709123 131.64820843655616,60.57666942267679 131.8470825329423,46.99864283576608 131.64820843655616,42.7847551596351 130.65383795369416,39.507281282916665 128.26734879706055,36.46390822972171 126.47748192865402,35.05927306693047 122.69887409545481,33.65463699004613 119.31801445689052,34.122849117266014 116.93152529839426,35.76159076252952 114.54503614176065,39.03907032310963 113.35179156251252,42.082439747639 113.55066565982997,58.93794660526328 113.94841385353357,60.81077258102596 113.94841385353357,63.151802766602486 114.54503614176065,66.42924076411873 116.13602891378105,69.00436713034287 117.92589578125626,70.87718437681906 120.71013313252479,72.28179624653421 124.0909927720204,72.51589813572355 128.26734879706055,70.87718437681906 130.65383795369416,68.06795789767057 131.8470825329423,64.79052238725126 131.64820843655616,43.48707034345716 130.85271205101162,40.91191355371848 129.85834156814963,38.80496480525471 126.67635602504015,35.52748488960788 123.89211867470294,33.88874306669459 120.3123849388212,33.42053088871762 116.93152529839426,35.52748488960788 116.13602891378105,36.46390822972171 113.74953975621611,40.44370289798826 113.1529174670577,42.7847551596351 112.95404336974025,44.89170002588071 113.35179156251252,52.85125096933916 113.35179156251252,61.27897882112302 114.94278433453292,66.66334328753874 116.93152529839426,69.70667378790677 119.51688855327666,71.81359239085577 120.51125903520733,72.28179624653421 123.89211867470294,72.51589813572355 126.87523012142628,71.57949042553082 128.86397108528763,70.17487809900194 130.85271205101162,67.36565070715733 131.8470825329423,63.620008499128744 131.44933434017003,57.7674295459874 131.8470825329423,46.76453818031587 131.05158614739776,40.67780823842622 127.27297831419855,35.76159076252952 125.88085963949561,34.59106114297174 123.69324457738549,33.42053088871762 120.9090072279796,32.718212431296706 118.52251807134598,33.65463699004613 115.73828072100878,36.46390822972171 114.34616204537451,38.57085926248692 113.1529174670577,42.7847551596351 113.35179156251252,56.596911852480844 113.1529174670577,61.51308190310374 113.74953975621611,64.08821413037367 115.34053252730519,67.599753129296 118.32364397495985,71.1112864187453 120.3123849388212,72.04769433126785 123.69324457738549,72.75 125.88085963949561,72.28179624653421 128.46622289344668,70.87718437681906 130.85271205101162,68.06795789767057 131.8470825329423,65.49283041479066 131.44933434017003,54.72408222290687 131.8470825329423,42.082439747639 131.05158614739776,38.57085926248692 128.46622289344668,35.05927306693047 127.07410421781242,34.122849117266014 123.29549638554454,32.48410622822121 121.10788132436574,32.25 118.92026626411825,32.718212431296706 116.93152529839426,34.59106114297174 113.94841385353357,40.44370289798826 113.1529174670577,43.25296530802734 113.1529174670577,51.21252229064703 113.55066565982997,57.533326057717204 113.35179156251252,59.874359796056524 113.74953975621611,60.57666942267679 114.94278433453292,66.42924076411873 116.13602891378105,68.77026485977694 117.52814758848399,70.40898021729663 120.11351084243506,72.04769433126785 122.10225180629641,72.51589813572355 124.0909927720204,72.51589813572355 127.07410421781242,71.57949042553082 129.85834156814963,69.47257159417495 131.44933434017003,66.66334328753874 131.8470825329423,62.21539099654183 131.8470825329423,56.596911852480844 131.05158614739776,47.23274746583775 131.25046024285257,43.48707034345716 130.4549638563767,39.74138672510162 128.86397108528763,37.16622546920553 126.07973373588175,34.3569551424589 124.28986686747521,33.42053088871762 122.30112590361387,32.952318609459326 119.31801445689052,33.42053088871762 116.73265120293945,35.05927306693047 114.54503614176065,38.57085926248692 113.55066565982997,41.61422934662551 113.35179156251252,44.6575951424893 113.55066565982997,52.14893883140758 113.35179156251252,61.98128799092956 113.74953975621611,65.49283041479066 114.54503614176065,67.13154825917445 117.13039939571172,70.17487809900194 119.11914036050439,71.34538843482733 122.89774819277227,72.04769433126785 124.88648915756494,71.81359239085577 128.06847470067441,70.64308231021278 130.4549638563767,68.30206024344079 131.8470825329423,64.79052238725126 131.05158614739776,42.7847551596351 130.65383795369416,39.507281282916665 129.26171927992254,37.16622546920553 126.47748192865402,34.3569551424589 123.69324457738549,33.42053088871762 120.11351084243506,33.88874306669459 118.1247698776424,35.05927306693047 115.34053252730519,37.63443683506921 114.34616204537451,39.27317581605166 113.35179156251252,42.550650047836825 113.74953975621611,49.57379236887209 113.35179156251252,56.36280823731795 113.55066565982997,63.385905645787716 114.14728794898838,66.89744578604586 117.92589578125626,70.64308231021278 119.71576264966279,71.57949042553082 122.30112590361387,72.51589813572355 125.28423735033721,72.51589813572355 128.06847470067441,71.34538843482733 130.2560897609219,69.23846937459894 130.85271205101162,68.30206024344079 131.8470825329423,63.620008499128744 131.44933434017003,56.36280823731795 131.64820843655616,46.53043350065127 131.44933434017003,42.31654490996152 130.85271205101162,40.67780823842622 127.27297831419855,34.825167117174715 125.28423735033721,33.42053088871762 121.10788132436574,32.25 119.31801445689052,32.718212431296706 117.72702168487012,33.65463699004613 115.34053252730519,36.46390822972171 113.74953975621611,39.507281282916665 112.95404336974025,42.7847551596351 113.35179156251252,63.151802766602486 113.74953975621611,65.49283041479066 115.14165843091905,68.53616256406531 116.73265120293945,70.40898021729663 119.71576264966279,72.28179624653421 121.505629517138,72.75 126.47748192865402,72.04769433126785 128.86397108528763,70.87718437681906 130.2560897609219,69.47257159417495 131.44933434017003,67.13154825917445 132.04595662932843,64.32231690827757 131.44933434017003,59.17204994079657 131.44933434017003,43.01886024652049 130.85271205101162,40.20959753287025 128.46622289344668,36.229802432935685 126.87523012142628,34.825167117174715 124.28986686747521,33.18642476154491 120.71013313252479,32.718212431296706 119.31801445689052,32.952318609459326 116.73265120293945,34.825167117174715 115.34053252730519,36.46390822972171 113.74953975621611,39.975492142140865 113.1529174670577,43.48707034345716 113.1529174670577,50.276105344993994 113.55066565982997,54.48997840494849 114.74391023814678,59.40615325164981 114.34616204537451,62.6835969327949 114.94278433453292,65.72693303995766 115.53940662462264,67.599753129296 117.92589578125626,70.64308231021278 119.51688855327666,71.81359239085577" stroke="#4dd2ff" stroke-linecap="round" stroke-linejoin="round" stroke-width="0.5"><title>2024-08-20 5.2km</title><desc>12192768473</desc></polyline><polyline fill="none" points="176.45911357388832,61.44295212122961 176.5141618908383,60.438580482732505 176.43158941552974,59.82299619761761 176.37654109869618,59.0130149438919 176.3214927816298,58.591823824623134 176.3214927816298,57.846638082904974 176.23892030620482,57.32824690613779 176.1012995140627,57.101450483547524 175.9361545634456,57.03665147413267 175.13795396848582,56.97185245068977 174.36727753200103,57.06905098055722 172.7433521838393,57.00425196415745 172.30296564870514,56.77745529584354 172.05524822277948,56.58305801457027 172.0001999057131,56.453459756827215 172.02772406418808,56.16186347149778 172.46811059932224,55.351872297527734 173.15621456049848,54.41227978625102 173.4865044618491,53.86148280301131 173.62412525410764,53.56988398928661 173.81679436308332,53.343084715277655 174.14708426455036,52.46828590356745 174.50489832414314,52.01468551188009 174.69756743346807,51.56108443174162 174.7526157501852,51.39908387931064 174.9728090178687,51.17228295822861 175.63338882056996,50.07067603661562 176.01872703875415,49.617072006542 176.2939686231548,49.06626618743758 176.76187931676395,48.48305891978089 178.05551476369146,46.18261915651965 178.3307563480921,45.923413566255476 178.5509496157756,45.76140995827154 179.70696427032817,45.82621141202981 181.08317219268065,45.76140995827154 181.19326882634778,45.79381068688235 181.46851041098125,46.020615688932594 181.7162278369069,46.11781777997385 182.1290902135661,46.08541708646226 182.21166268887464,45.98821498488542 182.6520492240088,47.80264900269685 182.3217593227746,46.668629032355966 182.1015660552075,46.37702320161043 181.936421104474,46.312221867294284 181.46851041098125,46.24742051895009 181.41346209391486,46.21501983946655 181.3584137770813,46.053016389516415 181.19326882634778,45.923413566255476 180.7804064496886,45.79381068688235 179.15648110152688,45.82621141202981 178.7160945662763,45.72900922608096 179.43172268592753,43.655355063587194 180.67030981602147,41.970500463387 180.94555140042212,41.45208175270818 181.79880031209905,40.058827011846006 182.1290902135661,39.41079933816218 182.6520492240088,38.60076277022017 183.2025323929265,37.88792877440574 183.58787061122712,37.20749473798787 183.8355880372692,36.91587967670057 184.05578130483627,36.39745219852193 184.63378863199614,35.81422021074104 184.96407853334676,35.36059454458882 185.04665100877173,35.32819268494495 184.9365543751046,35.10137956906692 184.33102288923692,34.80976245284546 183.89063635410275,34.48574310107506 183.53282229427714,34.35613526208908 183.34015318518505,34.06451741865021 182.81719417474233,33.80530131905107 182.54195259022526,33.837703343771864 181.85384862916544,33.80530131905107 179.45924684440251,33.31927052635001 177.11969337658957,33.06005378026748 176.7068309999304,32.9628474425117 176.3214927816298,32.80083680950338 175.66091297904495,32.86564107320737 174.8076640671352,32.736032531567616 173.87184267991688,32.703630387433805 172.9635454514064,32.541619613737566 172.27544149023015,32.541619613737566 171.94515158887953,32.412010931642726 169.63312227942515,32.25 166.68803732586093,32.28240219329018 165.9999333648011,32.476815279747825 165.17420861136634,32.476815279747825 164.56867712561507,32.5740217755374 164.1007664320059,32.509217448474374 162.28417197463568,32.5740217755374 161.76121296430938,32.67122823977843 161.23825395375025,32.67122823977843 160.1923359328648,32.86564107320737 159.6693769224221,32.736032531567616 158.43078979232814,32.736032531567616 157.4123959299177,32.89804319984978 155.98113969073165,32.99524955864763 155.56827731407247,32.93044532297063 154.5774076100206,33.06005378026748 153.8342553321272,33.06005378026748 153.72415869834367,33.09245588578051 153.53148958913516,33.18966218130663 153.4764412723016,33.2868684453133 153.53148958913516,33.99971341487253 153.4764412723016,34.615350883919746 153.61406206456013,35.19858521121205 153.6415862229187,35.65221112337895 153.69663453986868,35.87902382123866 153.53148958913516,36.624264330923324 153.4764412723016,37.43430625559995 153.55901374761015,38.47115671570646 153.4764412723016,38.95717913057888 153.58653790608514,39.50800357881235 153.55901374761015,40.77165583014721 153.6691103813937,41.387279350543395 153.58653790608514,42.52131935840589 153.6691103813937,43.03973621461773 153.91682780731935,43.72015697389725 153.91682780731935,43.8821616882924 153.8342553321272,44.20617085372214 153.6691103813937,44.530179667810444 153.6415862229187,44.65978309509228 152.89843394502532,44.497778802207904 152.7057648358168,44.75698562868638 152.21032998384908,45.2105970341654 152.3204266175162,46.279821194912074 152.40299909294117,46.40942386360257 152.6782406772254,46.53902647594805 152.92595810326748,46.86303276132094 153.03605473716743,47.446243189886445 153.091103054001,47.964651504385984 153.39386879687663,48.774662695941515 153.42139295535162,49.00146543618757 153.22872384637594,50.07067603661562 153.31129632156808,50.977882031787885 153.31129632156808,51.463884110795334 153.20119968790095,51.72308489657007 153.2562480046181,52.241485793783795 153.17367552930955,52.63028587671579 153.17367552930955,53.440284425218124 153.14615137095097,53.926282500789966 153.20119968790095,54.25028077882598 153.53148958913516,54.93067601977964 153.8342553321272,55.384271986666135 154.2195935503114,55.74066833496909 154.43978681787848,56.03226503112819 154.65998008544557,56.226662670611404 155.2930357295554,56.58305801457027 155.733422264806,57.101450483547524 156.50409870117437,57.78183923495817 156.69676781038288,58.00863514127559 157.0545818702085,58.36502836071304 158.1555482079275,59.23980991615099 158.37574147549458,59.36940696593956 159.55928028863855,59.53140319918748 161.21072979539167,59.59620166782406 163.46771078777965,59.79059698965284 164.15581474883948,59.82299619761761 164.56867712561507,59.88779460306978 164.92649118544068,59.85539540217724 165.4219260374084,59.95259299466852 165.88983673090115,59.82299619761761 166.33022326603532,59.59620166782406 166.82565811800305,59.59620166782406 167.29356881172862,59.69339934451273 167.8715761390049,60.04979055534932 168.36701099108905,60.24418558226898 168.47710762475617,60.30898389645154 168.55968010006472,60.73017259637709 168.55968010006472,61.08656257123221 168.4495834663976,61.79934124625288 168.11929356504697,62.41492146166274 167.98167277267203,62.965702685236465 167.92662445583846,63.87286954710726 167.8991002974799,64.06726208797772 167.81652782217134,64.22925577539718 167.45871376234572,64.65043895205599 167.34861712856218,65.07162153531681 167.3210929700872,65.88158637360903 166.90823059342802,67.20992395817302 166.90823059342802,68.44106083959923 166.66051316738594,69.31581291125622 166.63298900902737,69.5749982186826 166.71556148433592,70.12576625106158 166.63298900902737,70.38495085641625 166.46784405841026,70.67653326876462 166.24765079072677,71.1949012997502 166.2201266323682,71.97245166092762 166.24765079072677,72.231634665397 166.2201266323682,72.36122608324513 166.16507831553463,72.52321527665481 165.86231257254258,72.68520438237465 165.2567810866749,72.75 164.65124960092362,72.62040875057573 163.9356214813888,72.65280656822142 161.07310900301673,72.1992368020874 158.45831395080313,71.90765587479109 157.9353549403604,71.81046216917457 157.1922026623506,71.58367673319299 156.69676781038288,71.35689112509135 155.59580147254746,70.57933916285401 154.05444859957788,69.63979451055638 153.55901374761015,69.28341473196633 153.06357889564242,69.02422917174408 152.43052325129975,68.47345911004231 151.7424192901235,68.01988300328958 151.30203275510576,67.63110293541104 150.4487838433124,67.24232236214448 150.39373552647885,67.14512713972363 150.36621136800386,66.95073660023627 149.98087314981967,66.7239474777889 149.95334899134468,66.59435361629585 150.17354225891177,65.97878200685955 150.2836388925789,65.23361467843642 150.53135631862096,64.19685704499716 150.64145295252092,63.548881698196055 150.80659790325444,63.06289926636964 151.0267911707051,62.25292679108679 151.13688780448865,61.57254821577226 151.30203275510576,60.98936534745735 151.35708107205573,60.568177012813976 151.63232265645638,59.563802435208345 151.71489513188135,59.077813525043894 152.5130957267247,55.93506616403465 152.6782406772254,55.125074375537224 152.76081315265037,55.125074375537224 153.36634463851806,55.060274937713984 153.50396543066017,55.125074375537224 154.1920693918364,55.6758690304996 154.65998008544557,56.226662670611404 155.45818068028893,56.84225436139968 155.89856721553952,57.32824690613779 156.97200939478353,58.33262899474357 157.16467850399204,58.559424483188195 158.32069315866102,59.36940696593956 159.36661117943004,59.499003959528636 160.4125292004319,59.563802435208345 160.9630123693496,59.661000122490805 161.73368880571797,59.62860089694732 163.9356214813888,59.82299619761761 164.320959699573,59.88779460306978 165.11916029453278,59.88779460306978 165.6145951465005,59.79059698965284 165.97240920632612,59.62860089694732 166.08250584010966,59.62860089694732 166.33022326603532,59.466604716319125 167.01832722732797,59.36940696593956 167.8715761390049,59.88779460306978 167.98167277267203,59.98499218505458 168.4220593079226,60.146988084656186 168.6147284170147,60.146988084656186 168.72482505079824,60.01739137197728 169.05511495214887,59.110212810279336 169.3578806950245,58.527025138173485 169.9634121808922,57.61984205368208 170.01846049784217,57.42544532023021 170.01846049784217,56.84225436139968 170.18360544845928,56.226662670611404 170.3212262406014,56.32386144288466 170.45884703285992,56.32386144288466 170.65151614195202,56.42106018352206 170.98180604330264,56.745055757666705 171.72495832142886,57.00425196415745 172.0001999057131,57.00425196415745 172.6057313916972,56.87465388895362 173.29383535275701,57.101450483547524 173.78927020484116,57.166249479021644 175.41319555300288,56.93945293361321 175.99120288027916,56.97185245068977 176.26644446479622,57.166249479021644 176.3214927816298,57.45784478454152 176.34901694010478,58.04103454246069 176.4866377322469,59.175011370214634 176.54168604908045,60.30898389645154 176.62425852462184,60.79497080523288 176.59673436614685,61.70214425440645" stroke="#4dd2ff" stroke-linecap="round" stroke-linejoin="round" stroke-width="0.5"><title>2024-08-16 6.7km</title><desc>12157989761</desc></polyline><polyline fill="none" points="40.412659261375666,81.13150006963406 41.12014408945106,81.26300009666011 41.827628917526454,81.30683342940756 45.62570536299609,81.08766671779449 45.96082975529134,81.13150006963406 46.221482060151175,81.43833339927369 46.33319019107148,82.84099708404392 46.2959541475866,83.62999326860881 46.407662278274074,84.37515491849626 46.55660645244643,84.98881642241031 46.444898321758956,85.55864412803203 46.48213436524384,86.6982971301768 46.407662278274074,87.04895894628135 46.48213436524384,87.31195510874386 46.55660645244643,88.62693335561198 46.55660645244643,89.81041012183414 46.7427866703365,90.86238656198839 46.70555062685162,91.65136709620128 46.78002271405421,92.4841782124422 46.70555062685162,92.83483501139563 46.81725875753909,93.62381169752916 46.7427866703365,94.50045065430459 46.81725875753909,95.07026495732134 46.89173084474169,96.42904967052164 46.854494801023975,97.39334572962252 47.040675019146875,98.57679684142931 47.00343897566199,99.62875047783018 47.11514710611664,100.85602626207401 47.040675019146875,101.29433813964715 47.15238314983435,103.04758089923416 47.077911062631756,104.4063388100185 47.18961919331923,105.23912366031436 47.18961919331923,105.98424549394986 47.264091280754656,107.8251288443571 47.22685523703694,108.92088876539492 47.37579941144213,109.3591919025348 47.264091280754656,110.1481363522762 47.450271498411894,111.94517074301257 47.41303545492701,112.95325971016428 47.487507542129606,113.61070768293575 47.450271498411894,114.26815458689816 47.52474358561449,114.6187924988044 47.487507542129606,116.41580702606007 47.52474358561449,117.0294199140335 47.59921567304991,117.46771426399937 47.63645171630196,119.30854534782702 47.710923803504556,119.96598299013567 47.5619796293322,121.10553903883556 47.450271498411894,121.23702606870211 47.11514710611664,121.36851305575692 45.588469319278374,121.5 44.43415196845308,121.36851305575692 43.80113922734745,121.10553903883556 42.870238137897104,121.14936805347679 41.15738013316877,120.8425648510165 40.003062782110646,120.7987358031387 37.99231642857194,120.53576141581289 36.50287468521856,120.4919323346694 33.59846328571439,120.00981212838087 32.1834936295636,119.7030080613331 31.029176278505474,119.5276913473208 30.32169145043008,119.48386215686332 29.576970578869805,119.57152053291793 28.310945097124204,119.48386215686332 27.752404443453997,119.39620376177481 25.890602264087647,119.3523745572893 25.55547787179239,119.26471613362082 24.92246513091959,119.00174074890674 22.39041416742839,118.73876519332407 21.6084572521504,118.56344806111883 20.3424317704048,118.4757894667855 17.6242005887907,118.03749620908638 17.43802037090063,117.90600813919445 17.289076196495444,117.68686126091052 17.326312240213156,117.29239658109145 17.586964545072988,116.06517067205277 17.661436632508412,115.05708946107188 17.81038080668077,114.35581409352017 17.81038080668077,113.47921817388851 17.84761685039848,113.21623902756255 17.81038080668077,112.73411014833255 17.922088937368244,111.76985066613997 18.03379706805572,110.63026831412571 18.44339354755357,109.44685247293091 18.815753983566537,107.43065454621683 19.07640628842637,106.72936595475767 19.225350462831557,105.94041483590263 19.560474855126813,105.3706158484274 19.746655073016882,104.71315448073437 20.007307378109545,104.4063388100185 19.970071334391832,104.2310154652514 20.007307378109545,104.01186117713223 20.1562515522819,103.48589040146908 20.379667813889682,102.91608795581851 20.52861198806204,102.2586225978448 20.863736380357295,101.60115617123665 21.19886077265255,100.63687014521565 21.533985164947808,100.02323238601093 21.757401426322758,99.27809956975398 22.20423394953832,98.22614502115175 22.315942080225796,97.74399827187881 22.762774603208527,96.6920397328795 23.321315256878734,95.59624667814933 23.544731518253684,95.42091951394104 24.177744259359315,94.76344197089202 24.66181282605976,94.01829946329235 25.51824182830751,92.52801032894058 25.74165808991529,92.04585678610601 26.15125456941314,91.43220599112101 26.449142917990685,90.64322502934374 26.709795222850516,90.33639868395403 27.305571920238435,89.24058840752696 27.677932356018573,88.80226346553536 27.938584661344066,88.18860774845234 28.385417184093967,87.53111844681553 29.986567058367655,84.55048687168164 30.433399581117555,83.8929916547786 30.842996060615405,83.14782911664224 31.438772758003324,82.27116554885288 32.1834936295636,81.48216671310365 32.63032615254633,81.35066675741109 36.76352699031122,81.26300009666011 37.13588742609136,81.13150006963406 40.52436739206314,81.08766671779449 41.26908826385625,81.0 43.5777229659725,81.13150006963406 45.774649537401274,81.0 46.10977392969653,81.26300009666011 46.2959541475866,81.70133321077446 46.33319019107148,82.27116554885288 46.2959541475866,82.884830245981 46.55660645244643,85.03264935131301 46.444898321758956,85.51481125605642 46.631078539881855,88.01327737249085 46.55660645244643,88.53926827228861 46.631078539881855,88.88992849187343 46.59384249616414,89.59124801904545 46.81725875753909,90.46789571762201 46.7427866703365,91.16921250821906 46.7427866703365,92.13352110941196 46.9289668884594,93.93063554857508 46.89173084474169,94.23745916687767 46.9289668884594,94.71961009659572 46.854494801023975,95.42091951394104 46.96620293194428,97.74399827187881 46.9289668884594,98.31380800472107 46.96620293194428,98.88361693470506 46.9289668884594,99.36576232529478 47.15238314983435,101.64498729948536 47.15238314983435,101.99563615536317 47.040675019146875,102.56543989788042 47.11514710611664,103.26673570959247 47.077911062631756,103.6612140694051 46.96620293194428,104.4940004539967 47.18961919331923,105.28295439449721 47.11514710611664,105.89658417302417 47.22685523703694,106.8170270952105 47.33856336772442,109.40302219011937 47.450271498411894,109.84132480469998 47.37579941144213,110.45494766710908 47.52474358561449,111.46304034875357 47.59921567304991,112.33964063812164 47.450271498411894,113.17240915322327 47.5619796293322,114.75028163733077 47.450271498411894,115.67070441049873 47.41303545492701,117.33622600891977 47.5619796293322,118.4757894667855 47.52474358561449,118.87025299252127 47.63645171630196,120.53576141581289 47.63645171630196,121.0617100194795 47.41303545492701,121.324684064748 46.7427866703365,121.4123420419055 45.402289101388305,121.45617102322285 41.71592078683898,120.974051966361 40.30095113045536,120.66724863089621 37.694428079761565,120.53576141581289 34.82725272397511,120.09747039043577 32.59309010906145,119.92215384737938 31.811133193783462,119.74683722810005 31.14088440942578,119.74683722810005 30.13551123254001,119.57152053291793 29.763150796759874,119.61534971391666 29.05566596845165,119.48386215686332 28.23647300992161,119.44003296174924 27.78964048670605,119.30854534782702" stroke="#4dd2ff" stroke-linecap="round" stroke-linejoin="round" stroke-width="0.5"><title>2024-08-05 5.0km</title><desc>12068639381</desc></polyline><polyline fill="none" points="84.47420919127762,81.21892983384896 86.85473926179111,81.0 88.00780851463787,81.26271578643355 88.49135368550196,81.17514387649135 89.19807355012745,81.17514387649135 89.8304018501658,81.08757194777718 90.90907953842543,81.17514387649135 91.05786266783252,81.26271578643355 91.16945001482964,81.52543140191119 91.16945001482964,82.75143534861854 91.39262470905669,83.75850723544136 91.42982049123384,84.45907750201877 91.5042120560538,84.98450440439046 91.46701627387665,85.68507254472934 91.54140783846378,86.29806867067236 91.46701627387665,87.08620518006501 91.54140783846378,87.61162866538507 91.46701627387665,87.87434015181498 91.42982049123384,88.66247358574765 91.5042120560538,91.02686466174782 91.61579940305091,92.03391591765103 91.61579940305091,92.6906871231331 91.76458253245801,93.6977342312457 91.83897409727797,95.05505462200381 91.80177831463516,96.0183114875399 91.72738675028086,96.36858614196535 91.69019096787088,97.11291877395706 91.9133656618651,101.05348044759012 92.0621487912722,101.62266951223137 92.09934457368217,102.10429040214512 91.98775722668506,103.28644833399449 92.02495300909504,103.76806724045309 91.9133656618651,104.55616966704838 91.98775722668506,105.5631871970254 91.95056144450791,106.48263579315972 92.0621487912722,107.44586541134049 92.0621487912722,108.05882851799834 92.24812770308927,109.63501509340131 92.24812770308927,111.64902232447639 92.47130239708349,112.13063126182533 92.62008552672341,112.74358726086211 92.5084981797263,112.83115232762066 92.35971505008638,113.26897737706895 92.28532348549925,114.275973189855 92.43410661490634,115.37053100930643 92.32251926790923,116.72777858722839 92.35971505008638,117.47207371023251 92.62008552672341,119.31091460669995 92.62008552672341,120.75571229710476 92.5084981797263,121.10596550465561 92.35971505008638,121.28109199454775 92.13654035585932,121.41243681212654 90.31394702079706,121.36865521094296 89.49563980894163,121.28109199454775 89.08648620313033,121.10596550465561 88.60294103249907,121.0184022312169 78.00214306171983,119.92385971246404 77.14664006768726,119.66116906673415 76.81187802646309,119.70495085281436 75.84478768520057,120.01142322298256 75.17526360275224,120.0989867146418 73.68743230868131,119.52982367973891 71.34409802034497,119.22335094420123 70.37700767931528,119.00444170515402 69.37272155564278,118.91687797629857 67.99647760856897,118.8730961047695 67.47573665576056,118.69796857109759 65.87631801445968,118.4352771283884 64.83483610861003,118.26014940504683 63.830549984937534,118.21636746221338 63.309809032129124,118.04123964393511 62.67748073209077,117.99745767755667 62.379914473276585,117.73476577928523 62.379914473276585,117.29694556939648 62.64028494991362,116.68399647835759 62.863459643675014,115.89591770942206 62.78906807908788,113.57545462925918 62.863459643675014,112.6122396250721 63.01224277331494,111.38632629846688 63.01224277331494,110.99228193931049 63.0866343381349,110.29175768510322 63.309809032129124,109.89771225818549 63.45859216153622,109.503666447039 64.05372467916459,106.2637196504802 64.31409515580162,105.43183722678805 64.61166141438298,104.9502203038428 64.79764032620005,104.11833517538616 64.83483610861003,103.85563425268629 65.02081502042711,103.24266476853518 65.50436019082554,102.19185777503299 65.72753488505259,101.84158816968556 66.17388427327387,100.52807444520295 66.62023366149515,99.65239625619142 66.9921914851293,98.64536399231292 67.21536617935635,97.55076085813926 67.43854087335058,97.1567030036822 67.95928182639182,96.4123704523081 68.25684808497317,96.10588017958798 68.88917638524435,94.79234780545812 69.52150468528271,93.91665718326112 72.08801366761327,89.5819606486184 73.05510400887579,88.22462186779012 73.38986604986712,87.43648757963092 74.46854373812675,85.72885801305529 74.8405015617609,85.20343207876431 75.2496551675722,84.19636379441363 75.43563407938927,83.88986425299663 75.62161299097352,83.45200736174593 76.55150755005889,82.22600554145174 76.81187802646309,81.78814684660756 76.9234653734602,81.65678914572345 77.55579367349856,81.43785954907071 78.5972755793482,81.35028767731274 79.15521231479943,81.43785954907071 80.90341408527456,81.48164547793567 82.05648333835416,81.17514387649135 82.54002850898542,81.17514387649135 83.5071188500151,81.39407361554913 83.99066402064636,81.26271578643355 84.9205585794989,81.13135791456443 86.743151914794,81.13135791456443 87.22669708542526,81.17514387649135 87.82182960305363,81.13135791456443 88.86331150890328,81.17514387649135 89.64442293834873,81.08757194777718 90.87188375601545,81.13135791456443 91.05786266783252,81.21892983384896 91.28103736205958,81.52543140191119 91.2438415796496,82.75143534861854 91.39262470905669,83.10172150714789 91.35542892664671,83.23307873820886 91.39262470905669,83.62715017519076 91.35542892664671,83.933649915969 91.54140783846378,84.94071885533049 91.42982049123384,85.59750159361283 91.46701627387665,87.65541392503656 91.5042120560538,87.74298442999134 91.5042120560538,88.09326625987887 91.57860362087376,88.18083666995517 91.57860362087376,88.57490328029962 91.5042120560538,89.31925027284888 91.6529951854609,90.45766066756914 91.54140783846378,91.28957392697339 91.61579940305091,92.95339530639467 91.76458253245801,94.70477882877458 91.72738675028086,95.18640796624823 91.83897409727797,95.71182091586525 91.80177831463516,96.45615475811064 91.9133656618651,97.02535030030413 91.87616987968795,99.30212444916833 91.95056144450791,99.82753204583423 91.9133656618651,101.31618319242261 91.98775722668506,101.88537188703776 91.9133656618651,102.4983434304595 92.02495300909504,103.19888119844836 91.98775722668506,104.55616966704838 92.0621487912722,105.38805389383924 91.98775722668506,106.3512861217605 92.09934457368217,106.96425088919932 92.09934457368217,107.79613015754148 92.24812770308927,110.81715098951827 92.21093192091212,111.12363010161789 92.35971505008638,111.38632629846688 92.24812770308927,112.65602217512787 92.32251926790923,113.92571406133357 92.39691083249636,114.49488499099971 92.32251926790923,115.06405511879711 92.39691083249636,115.72078888531541 92.35971505008638,116.90290697483579 92.43410661490634,117.29694556939648 92.35971505008638,117.8223297643417 92.47130239708349,118.39149520464707 92.58288974431343,119.57360548016732 92.5084981797263,121.10596550465561 92.28532348549925,121.36865521094296 90.46273015020415,121.5 89.53283559135161,121.36865521094296 89.04929042095318,121.14974713412812 88.6773325970862,121.06218387023546 87.41267599724233,120.974620587338 82.46563694416545,120.36167707573622 81.5729381677229,120.40545878603007 79.22960387938656,120.0989867146418 77.51859789108858,120.0552049712569 76.96066115587018,119.88007794995792 75.77039612061344,119.83629618273699 75.3984382969793,119.74873263415066 72.68314618524164,119.74873263415066 72.05081788520329,119.66116906673415" stroke="#4dd2ff" stroke-linecap="round" stroke-linejoin="round" stroke-width="0.5"><title>2024-08-01 5.0km</title><desc>12035805770</desc></polyline><polyline fill="none" points="130.4498961667996,81.043833361211 131.3807973570656,81.1753334167006 132.19999040476978,81.13150006969227 133.42877997620963,81.30683342934935 135.66294283326715,81.0876667178236 136.07253935700282,81.1753334167006 136.18424750003032,81.3506667574693 136.33319169050083,82.31499877251917 136.295955642825,83.49849401146639 136.48213588097133,84.85731760691851 136.40766378561966,86.08463822022895 136.55660797609016,87.96944476652425 136.593844023766,90.11723686612095 136.66831611911766,90.73088965655188 136.66831611911766,92.13352110929554 136.78002426191233,93.31698761341977 136.85449635679834,95.99073251968366 136.96620449982584,96.82353469973896 136.92896845238283,99.71641315717716 137.0034405477345,100.33005138181034 137.0406765951775,101.51349389995448 137.0406765951775,103.6173831593187 136.96620449982584,104.49400045385119 137.07791264285333,105.19529292127118 136.96620449982584,106.68553537721164 137.18962078541517,107.69363745421288 137.30132892844267,108.92088876513299 137.45027311891317,109.75366431957809 137.41303707123734,110.63026831386378 137.56198126194067,111.3315501413017 137.56198126194067,111.90134073075023 137.41303707123734,113.26006889686687 137.524745214032,115.84602279632236 137.45027311891317,116.45963654870866 137.487509166589,116.81027256074594 137.45027311891317,117.11707882187329 137.56198126194067,118.3443015392113 137.524745214032,118.91408224933548 137.6364533570595,119.96598299013567 137.6364533570595,121.06171001933399 137.487509166589,121.28085506902426 137.22685683332384,121.41234204173088 136.03530330955982,121.5 134.80651373811997,121.36851305566961 133.9873206904158,121.14936805344769 130.4498961667996,120.75490675040055 129.55623102374375,120.57959049215424 127.69442864297889,120.49193233458209 124.15700411936268,120.09747039034846 122.92821454792283,120.22895774777862 122.10902150021866,120.18512863342767 120.61957959551364,120.31661596248159 119.80038654780947,120.18512863342767 118.94395745266229,120.18512863342767 117.93858416704461,119.96598299013567 116.7470306432806,119.83449554714025 116.07678178604692,119.48386215683422 115.40653292904608,119.35237455705646 114.06603521481156,119.35237455705646 112.80000959569588,118.87025299246307 111.12438745284453,118.65110663676751 109.150876929285,118.30047222055146 108.85298854811117,118.30047222055146 108.44339202414267,118.16898423616658 107.66143502434716,118.08132555612247 107.43801873875782,117.949837500375 107.36354664317332,117.81834940199042 107.40078269108199,117.38005543182953 107.54972688131966,117.11707882187329 107.62419897667132,116.63495459276601 107.69867107179016,115.01325978606474 107.81037921481766,114.48730331729166 107.81037921481766,112.07666075063753 107.996559452964,111.59453051301534 108.10826759575866,110.58643815934192 108.33168388158083,109.88515503986855 108.48062807205133,109.14004039316205 108.36891992902383,108.52641553568537 108.40615597669967,108.13194192142691 108.55510016717017,107.60597650380805 108.92746064346284,107.03617986288737 109.74665369093418,104.31867714691907 109.97006997675635,103.96803030505544 110.11901416699402,103.31056665736833 110.41690254816785,102.65310194069752 110.52861069096252,102.25862259772839 112.12976073869504,98.66445974871749 112.68830145266838,96.95502962396131 113.13513402431272,96.29755457499414 113.35855030990206,95.81540552646038 114.02879916713573,94.89493756479351 114.51286778599024,94.32512301480165 115.18311664322391,92.96633123242646 115.59271316695958,92.39651396495174 115.55547711928375,92.39651396495174 116.78426669095643,90.24873397106421 117.4917515956331,89.19675593456486 118.08752835751511,88.0571099735098 119.46526211919263,85.8216412596521 120.58234354783781,83.71765941634658 121.51324473833665,82.31499877251917 121.96007730974816,81.78899977658875 122.51861802418716,81.52600002218969 122.890978500247,81.43833339930279 125.9815704524517,81.30683342934935 126.65181930968538,81.3506667574693 127.65719259553589,81.2630000965728 128.62532983347774,81.30683342934935 129.59346707141958,81.1753334167006 130.78502059541643,81.1753334167006 131.82762992870994,81.0 132.75853111897595,81.0876667178236 133.20536369038746,81.043833361211 135.06716607138515,81.0876667178236 135.8491230714135,81.043833361211 136.1097754049115,81.1753334167006 136.295955642825,81.52600002218969 136.295955642825,83.41082781623118 136.48213588097133,84.85731760691851 136.4448998332955,85.47097837927868 136.55660797609016,87.26812242675805 136.55660797609016,88.10094256981392 136.51937192864716,88.32010548037942 136.593844023766,88.9775934991194 136.593844023766,90.07340448838659 136.66831611911766,90.73088965655188 136.63108007144183,91.38837375570438 136.66831611911766,92.04585678590229 136.63108007144183,92.35268183427979 136.81726030958816,93.5361476970429 136.7427882142365,94.7634419707174 136.81726030958816,95.37708771080361 136.891732404707,95.59624667800381 136.85449635679834,96.16605943685863 136.92896845238283,96.56054472288815 136.891732404707,96.82353469973896 137.0034405477345,97.21801934417454 136.96620449982584,98.83978550683241 136.85449635679834,99.45342506168527 136.92896845238283,100.3738826480112 136.891732404707,100.85602626181208 137.0406765951775,101.64498729922343 137.0034405477345,102.25862259772839 137.0406765951775,103.74887587458943 137.0034405477345,104.71315448055975 137.07791264285333,105.45827728309087 137.0406765951775,105.80892283291905 137.11514869029634,106.55404361663386 137.11514869029634,107.43065454592579 137.26409288099967,108.30726357517415 137.26409288099967,109.18387070443714 137.18962078541517,109.97281549626496 137.3385649761185,111.68219059909461 137.22685683332384,112.6464502903109 137.37580102379434,113.65453750951565 137.3385649761185,114.39964383936604 137.487509166589,115.8898523808748 137.37580102379434,116.81027256074594 137.487509166589,118.65110663676751 137.41303707123734,119.39620376177481 137.6364533570595,120.84256485090009 137.524745214032,121.19319706349052 137.41303707123734,121.3246840647771 136.78002426191233,121.5 134.91822188091464,121.45617102325195 133.2425997380633,121.14936805344769 131.90210202382877,120.97405196624459 131.41803340474144,121.01788099526311 130.48713221447542,120.75490675040055 130.22647988097742,120.75490675040055 128.36467750021257,120.49193233458209 127.47101235715672,120.49193233458209 125.01343321450986,120.09747039034846 124.52936459542252,120.09747039034846 124.04529597633518,120.14129951430368 122.7792703572195,120.09747039034846 122.18349359557033,120.00981212823535 121.69942497625016,120.00981212823535 121.06641216692515,119.79066638991935 120.65681564295664,119.74683722795453 118.94395745266229,119.92215384714655 118.12476440495811,119.87832469964633 116.9332108811941,119.61534971377114 115.96507364325225,119.65917888985132 115.40653292904608,119.35237455705646" stroke="#4dd2ff" stroke-linecap="round" stroke-linejoin="round" stroke-width="0.5"><title>2024-07-29 5.1km</title><desc>12014148662</desc></polyline><polyline fill="none" points="175.77676465641707,81.26214900624473 176.51907538808882,81.39322344542597 178.96870080195367,81.34953197048162 180.67601548461244,81.17476602303213 181.01005531381816,81.30584049067693 181.23274853313342,81.65537219593534 181.30697960639372,82.13597779566771 181.26986406953074,83.1845698422112 181.3812106794212,83.75255606180872 181.3812106794212,84.49530606434564 181.60390389873646,85.28174575167941 181.49255728907883,86.2866386747337 181.60390389873646,86.98569314362248 181.5667883621063,89.56344601968885 181.71525050862692,90.56832826841855 181.67813497199677,92.01011146698147 181.82659711828455,93.62665013264632 181.82659711828455,95.81115154354484 181.86371265468188,96.94708759873174 181.82659711828455,97.29660574087757 181.97505926457234,98.56360646593384 182.04929033783264,100.35487655809266 181.97505926457234,101.27235327888047 182.08640587422997,102.10244946493185 182.0121748012025,103.89370383205824 181.97505926457234,104.24321595134097 182.04929033783264,105.24806160587468 182.0121748012025,105.81601673760451 182.1977524838876,107.12667937218794 182.12352141086012,108.39364920157823 182.3462146304082,109.18004226544872 182.4204457034357,109.70430345574277 182.38333016703837,111.7139650361205 182.494676776696,112.63141590499436 182.3462146304082,113.46148870172328 182.4204457034357,113.9420563816675 182.38333016703837,114.20418396574678 182.45756124006584,114.99056569524691 182.45756124006584,116.47594922137796 182.60602338658646,117.04388853508863 182.45756124006584,118.22345224552555 182.494676776696,118.96613873701426 182.60602338658646,119.27195042424137 182.5689078499563,120.0583222687419 182.68025445961393,120.88837977388175 182.64313892298378,121.1505028415122 182.494676776696,121.28156431144453 181.75236604502425,121.5 180.00793582596816,121.45631287174183 179.5254338507075,121.28156431144453 179.22850955813192,121.3252514586784 175.55407143686898,120.71363096754067 172.17655760864727,120.49519485287601 171.21155365766026,120.36413312738296 169.467123438837,120.2767586199625 168.13096412201412,120.01463498422527 167.3144223173149,119.92726040107664 166.75768926856108,119.92726040107664 166.34941836632788,120.0583222687419 165.5699920982588,119.97094769511023 165.19883673242293,120.01463498422527 164.19671724480577,120.0583222687419 162.4522870259825,119.6651365380676 162.08113166037947,119.70882386047742 161.2274743190501,119.49038720151293 159.85419946559705,119.4466998554708 159.11188873415813,119.18457568014855 158.40669353911653,119.09720091708004 157.96130710025318,118.87876392676844 157.55303619801998,118.79138909745961 155.029179710662,118.48557704585255 154.472446662141,118.3545146670076 152.91359412600286,118.22345224552555 152.72801644308493,118.17976476228796 152.43109215050936,117.96132727476652 152.3197455406189,117.56813949919888 152.43109215050936,116.95651330816327 152.76513197971508,116.25751081079943 152.91359412600286,115.68957038928056 152.95070966263302,114.90319002329488 152.8764785893727,114.29155978924246 152.91359412600286,113.76730456444784 152.76513197971508,112.76248014435987 152.98782519903034,111.27708293599426 154.0641757599078,107.43250004039146 154.32398451585323,106.078149605426 154.80648649134673,104.81117249862291 155.1034107839223,103.6752586037328 155.43745061312802,103.15098957260489 156.25399241782725,101.0102172860934 156.58803224703297,99.61215577853727 156.9220720762387,99.08788146311417 157.47880512475967,97.82088238603319 157.96130710025318,96.3791199712723 158.2211158561986,95.94222125166561 158.74073336832225,95.33056224885513 159.48304409976117,94.1072414588125 160.33670144109055,92.88391695611062 160.89343448984437,91.83535014165682 161.48728307476267,90.96154237934388 162.08113166037947,89.69451775948983 162.74921131832525,88.90808668182581 163.2688288304489,87.90320029409486 164.08537063538097,86.76723875233438 164.64210368390195,85.80603802407859 165.2359522690531,84.45161492572515 165.5699920982588,84.10208564531058 165.79268531757407,83.70886484248331 166.2009562200401,82.7039654928958 166.38653390295804,82.35443469687016 166.79480480519123,81.87382935770438 167.0917290977668,81.61168074930902 167.7226932195481,81.39322344542597 169.3186612923164,81.4369149156264 171.10020704800263,81.26214900624473 172.13944207224995,81.34953197048162 174.29214319353923,81.21845751701039 175.962342339335,81.0 177.15003950963728,81.13107452442637 178.44908329006284,81.13107452442637 178.70889204577543,81.08738302101847 180.56466887472197,81.17476602303213 180.78736209427007,81.13107452442637 181.1585174598731,81.34953197048162 181.23274853313342,81.61168074930902 181.26986406953074,81.91752077583806 181.19563299650326,82.79134814452846 181.4554417526815,84.01470327781863 181.4554417526815,84.58268832752947 181.60390389873646,85.10698150933604 181.49255728907883,85.71865602603066 181.49255728907883,86.81092964010895 181.5667883621063,87.85950952483108 181.52967282570899,88.60225195955718 181.5667883621063,89.65082718426129 181.67813497199677,90.26249480579281 181.64101943559945,91.13630408339668 181.75236604502425,91.96642114268616 181.67813497199677,93.58295998367248 181.75236604502425,93.71403041644953 181.71525050862692,94.7189023179235 181.78948158188723,95.11211238009855 181.75236604502425,95.59270193523844 181.78948158188723,96.64125897572376 181.86371265468188,97.20922623385559 181.93794372817501,98.56360646593384 182.04929033783264,99.3063291774888 181.93794372817501,100.09273996867705 181.97505926457234,101.14128530377639 182.12352141086012,102.05876023464953 182.08640587422997,103.45681325695477 181.97505926457234,104.19952695292886 182.0121748012025,104.68010567410965 182.0121748012025,105.29175049066544 182.08640587422997,105.72863907707506 182.23486802051775,107.95676350328722 182.1977524838876,108.52471481877728 182.27198355738074,108.83053442646633 182.1977524838876,109.57323822201579 182.27198355738074,110.01012216854724 182.3462146304082,111.5829004557163 182.53179231309332,112.50035162302083 182.30909909377806,114.72843862249283 182.53179231309332,116.69438751370762 182.53179231309332,118.87876392676844 182.64313892298378,119.6651365380676 182.5689078499563,120.18938409365364 182.60602338658646,120.84469257929595 182.5689078499563,121.10681567538995 182.38333016703837,121.28156431144453 181.5667883621063,121.45631287174183 180.4162067284342,121.41262573868153 180.15639797248878,121.3252514586784 179.7852426066529,121.36893860108103 179.37697170418687,121.3252514586784 179.00581633858383,121.23787715955405 177.7067725583911,121.06312850455288 176.77888414403424,120.84469257929595 175.33137821755372,120.75731817618362 174.25502765690908,120.75731817618362 173.6240635351278,120.62625653587747 170.72905168216676,120.23307135910727 169.7269321945496,120.23307135910727 167.12884463439696,119.88357310259016 166.49788051261567,120.01463498422527 165.60710763465613,120.01463498422527 164.75345029355958,120.1020095484273 163.52863758662716,120.0583222687419 162.48940256261267,119.75251117802691 162.00690058688633,119.53407454272383" stroke="#4dd2ff" stroke-linecap="round" stroke-linejoin="round" stroke-width="0.5"><title>2024-07-27 5.1km</title><desc>11997575827</desc></polyline><polyline fill="none" points="52.75,135.69790729880333 12.25,164.30209270119667" stroke="#4dd2ff" stroke-linecap="round" stroke-linejoin="round" stroke-width="0.5"><title>2024-05-09 8.0km</title><desc>9223370321595310162</desc></polyline><polyline fill="none" points="57.25,143.72715498134494 65.77631579339504,147.49086439795792 60.447368420660496,141.2180146900937 83.89473684132099,155.01827956177294 97.75,158.7819853099063 89.22368421405554,157.5274168625474 60.447368420660496,152.50914171803743" stroke="#4dd2ff" stroke-linecap="round" stroke-linejoin="round" stroke-width="0.5"><title>2024-05-08 6.2km</title><desc>9223370321684028463</desc></polyline><polyline fill="none" points="122.50000002980232,129.75 116.2443999350071,170.25 128.75560007989407,155.52273286134005 128.75560007989407,159.20455024763942" stroke="#4dd2ff" stroke-linecap="round" stroke-linejoin="round" stroke-width="0.5"><title>2024-05-07 6.1km</title><desc>9223370321771754451</desc></polyline><polyline fill="none" points="27.58488619327545,178.5 52.160455256700516,219.0 12.839544743299484,219.0" stroke="#4dd2ff" stroke-linecap="round" stroke-linejoin="round" stroke-width="0.5"><title>2024-05-02 6.8km</title><desc>9223370322200251369</desc></polyline><polyline fill="none" points="57.25,202.85979942325503 97.75,194.64020057674497 85.18103448301554,199.57196042127907 96.3534482717514,202.85979942325503" stroke="#4dd2ff" stroke-linecap="round" stroke-linejoin="round" stroke-width="0.5"><title>2024-04-30 5.3km</title><desc>9223370322373916531</desc></polyline><polyline fill="none" points="102.25,195.93472626793664 103.97204724373296,197.81166023784317 107.41614173189737,197.0608872602461 108.75551181100309,198.11196920106886 123.29724409431219,185.57395923056174 138.92322834627703,185.72411638125777 141.9846456691157,188.80233079823665 142.6224409446586,207.19625380076468 138.92322834627703,211.5506620311644 121.12874015746638,211.70081355096772 118.13110236194916,209.89899316593073 108.30905511765741,209.44853733747732 107.73503936990164,199.76366617128951 110.3499999998603,196.3851908846409 123.48858267674223,185.57395923056174 138.73188976361416,185.72411638125777 141.6657480315771,188.65217431494966 142.6224409446586,192.25592093379237 142.23976377933286,208.32239648437826 138.47677165316418,211.85096503788373 121.57519685011357,211.85096503788373 118.51377952727489,209.9740691089537 107.54370078700595,208.99808121594833 108.11771653499454,199.0128953094245 122.40433070831932,185.94935204647481 139.36968503892422,185.87427349953214 142.6224409446586,190.07865959370974 142.30354330688715,206.5205673117889 141.9208661413286,208.6977769721998 138.6043307085056,211.77588929852936 121.57519685011357,211.62573779502418 118.13110236194916,209.8239172147005 108.43661417299882,209.37346133746905 107.41614173189737,207.64671109378105 107.60748031456023,201.7156666041701 108.11771653499454,199.2381266534212 122.59566929121502,186.09950911585474 138.6043307085056,185.6490378099843 141.9846456691157,188.7272525606677 142.30354330688715,208.24732036248315 138.79566929116845,211.70081355096772 137.13740157475695,211.85096503788373 122.21299212588929,211.92604076943826 118.4499999997206,210.04914504371118 108.5003937005531,209.44853733747732 107.2248031492345,205.3944216988748 107.67125984234735,203.14212498022243 108.69173228321597,202.76674148184247 107.54370078700595,202.541511285468 107.60748031456023,201.03997476940276 110.28622047207318,196.76057784131262 123.10590551164933,185.94935204647481 139.68858267716132,186.39982315682573 142.43110236222856,189.62819087563548 142.55866141733713,207.04610130458605 138.9870078735985,211.2503588940017 121.06496062967926,211.85096503788373 116.2177165353205,209.67376528825844 108.69173228321597,209.44853733747732 107.67125984234735,208.32239648437826 107.47992125968449,201.7156666041701 108.30905511765741,198.71258673683042 122.59566929121502,185.94935204647481 139.0507874013856,186.024430585152 142.23976377933286,189.5531127275899 142.75,195.4091838450986 142.30354330688715,206.74579621461453 139.11456692917272,211.4005104788812 121.00118110212497,211.85096503788373 118.19488188950345,209.89899316593073 108.11771653499454,209.2983853293117 108.30905511765741,198.9378181786742" stroke="#4dd2ff" stroke-linecap="round" stroke-linejoin="round" stroke-width="0.5"><title>2024-04-27 9.8km</title><desc>1714200483443</desc></polyline><polyline fill="none" points="147.25,194.90784849203192 147.88380281697027,197.0714661135571 149.151408450678,197.96675417444203 151.11619718302973,197.74293226841837 152.5739436619915,197.2206808712217 153.46126760565676,197.96675417444203 155.4260563380085,197.14607349637663 157.64436619728804,195.5047092048917 158.21478873258457,194.60941794147948 159.48239436629228,193.63951775885653 162.65140845091082,190.5059847519151 164.61619718326256,188.7153880575206 167.08802816923708,186.25330999691505 170.57394366222434,185.65644126193365 175.0739436619915,185.73104988213163 176.848591549322,185.35800670046592 178.49647887330502,185.88026709819678 182.74295774661005,185.95487569412217 184.32746478868648,186.17870143335313 186.92605633824132,189.01382116321474 187.5598591552116,192.74422406993108 187.5598591552116,196.92225132341264 187.5598591552116,201.47328786825528 187.5598591552116,205.80047503806418 186.92605633824132,208.7101200815523 183.8838028172031,211.6197528266348 179.57394366175868,211.84357022069162 175.32746478868648,211.76896443084115 170.44718309887685,211.99278177629458 166.20070422557183,211.76896443084115 164.17253521131352,210.5006647647824 161.1936619717162,209.67999902978772 156.82042253552936,209.67999902978772 153.46126760565676,209.5307869730168 152.89084507059306,208.63551395206014 152.51056338031776,204.00991812895518 152.89084507059306,199.90654097840888 153.71478873258457,198.56361223495333 155.48943661991507,196.54921420686878 157.3908450708259,195.43010164395673 160.81338028167374,192.74422406993108 163.79225352127105,189.8345115375123 166.77112676086836,186.92478670499986 168.54577464796603,185.80565849429695 173.04577464796603,185.95487569412217 176.46830985927954,186.4025270997663 177.48239436629228,186.17870143335313 180.1443661970552,185.95487569412217 183.69366197218187,185.95487569412217 185.2147887328174,187.07400366233196 187.3697183104232,190.28216042008717 187.62323943688534,194.68402559141396 187.3697183104232,198.26518326933729 187.5598591552116,201.92092918162234 187.6866197185591,206.47193267813418 185.7852112678811,209.97842304664664 183.44014084502123,211.918176002393 178.49647887330502,211.99278177629458 175.0105633805506,212.06738754210528 170.89084507059306,211.99278177629458 166.64436619728804,211.918176002393 163.98239436629228,210.4260588293546 162.14436619728804,209.97842304664664 160.49647887353785,210.20224097423488 155.80633802805096,209.7546050461824 153.39788732421584,209.7546050461824 152.44718309864402,208.63551395206014 152.44718309864402,204.3083446038654 153.08098591538146,199.6081125952769 154.8556338029448,197.74293226841837 157.0739436619915,195.72853183862753 159.73591549275443,193.63951775885653 162.58802816900425,190.5059847519151 166.0105633805506,187.5216543400893 168.29225352127105,185.88026709819678 173.2359154932201,185.73104988213163 175.70774647896178,185.95487569412217 177.48239436629228,185.88026709819678 182.36267605633475,185.73104988213163 184.32746478868648,186.10409286170034 187.1795774649363,189.3868623637827 187.6866197185591,192.14736096333945 187.30633802851662,195.952354399662 187.49647887353785,196.99685872264672 187.30633802851662,201.69710856146412 187.24295774661005,206.6211453981232 186.86267605633475,208.78472620312823 184.70774647896178,210.8736943207914 183.56690140860155,211.84357022069162 178.87676056381315,211.918176002393 175.51760563394055,211.84357022069162 171.27112676063552,211.694358632667 166.64436619728804,211.694358632667 163.72887323936448,210.20224097423488 162.14436619728804,209.8292110543698 158.84859154955484,209.60539300536038 154.15845070430078,209.5307869730168 152.82746478891931,208.7101200815523 152.5739436619915,205.2782297540689 152.76408450701274,201.84632231621072 154.8556338029448,197.74293226841837 157.45422535203397,196.2507843679632 159.92605633824132,193.71412551385583 160.55985915497877,192.8934397653211 162.5246478873305,191.10284928168403 164.5528169015888,189.01382116321474 167.6584507045336,186.32791855244432 169.55985915497877,185.88026709819678 172.0316901409533,186.10409286170034 175.20070422557183,185.95487569412217 176.848591549322,186.32791855244432 180.27112676086836,185.88026709819678 183.56690140860155,185.88026709819678 185.84859154955484,187.7454795697704 187.49647887353785,190.13294415804558 187.3697183104232,194.68402559141396 187.30633802851662,198.0413614604622 187.43309859163128,202.3685702039511 187.3697183104232,206.6211453981232 187.24295774661005,208.3370893530664 185.34154929616489,210.35145288560307 182.1091549298726,211.918176002393 178.49647887330502,211.99278177629458 174.82042253529653,211.99278177629458 171.58802816923708,212.1419932995923 168.92605633847415,211.99278177629458 167.2781690142583,211.99278177629458 164.5528169015888,211.09751195757417 161.82746478891931,209.8292110543698 159.54577464819886,209.5307869730168 156.75704225362279,209.30696882680058 153.651408450678,209.5307869730168 152.89084507059306,208.85933231632225 152.38380281697027,205.5020492100739 152.82746478891931,203.26385137543548 153.84154929569922,202.89081769547192 153.08098591538146,202.89081769547192 152.76408450701274,201.1748601643485 154.41197183099575,198.1159687381005 155.4260563380085,196.92225132341264 157.13732394389808,195.87774688727222 159.54577464819886,193.8633409991744 161.89084507059306,191.92353716492653 163.91901408461854,189.75990336219547 166.96126760565676,186.85017821425572 168.16549295792356,186.17870143335313 172.348591549322,186.0294842820149 175.897887323983,186.32791855244432 176.848591549322,186.47713563893922 179.82746478891931,186.17870143335313 183.44014084502123,186.0294842820149 186.16549295792356,188.26773815625347 187.5598591552116,192.0727530386066 187.62323943688534,196.47460675914772 187.49647887353785,200.80182535218773 187.43309859163128,205.0544102253043 187.1795774649363,208.03866462485166 183.94718309864402,211.32132952136453 179.63732394366525,211.6197528266348 175.51760563394055,211.54514701251173 171.33450704230927,211.4705411902396 169.0528169015888,211.694358632667 166.13732394366525,211.918176002393 163.2852112678811,210.12763500656 158.97535211290233,209.7546050461824 154.8556338029448,209.67999902978772 153.39788732421584,209.30696882680058 152.82746478891931,208.41169551492203 152.70070422510616,204.23373799724504 152.63732394389808,201.84632231621072 153.14436619728804,199.30968408263288 155.299295774661,197.2952882378595 157.58098591538146,194.9824561093119 160.75000000023283,192.37118468870176 164.23591549298726,189.46147057955386 167.151408450678,186.6263526933035 168.2288732395973,185.95487569412217 172.47535211290233,186.10409286170034 176.91197183122858,186.4025270997663 180.01760563394055,186.17870143335313 184.01056338031776,186.25330999691505 186.22887323936448,188.49156314315042 187.1795774649363,189.75990336219547 187.49647887353785,192.44579258118756 187.6866197185591,195.57931675750297 187.49647887353785,199.98114805406658 187.49647887353785,204.08452475990634 187.24295774661005,206.8449644173961 186.67253521131352,208.78472620312823 184.5809859156143,211.172117820126 181.9823943665251,211.76896443084115 177.67253521131352,211.918176002393 172.79225352127105,211.84357022069162 169.0528169015888,211.694358632667 166.07394366222434,211.918176002393 164.17253521131352,210.35145288560307 161.1302816902753,209.67999902978772 156.31338028190657,209.45618093229132 153.77816901402548,209.60539300536038 152.82746478891931,208.93393842177466 152.76408450701274,206.24811353744008 152.76408450701274,202.0701428882312 153.46126760565676,199.0858626132831" stroke="#4dd2ff" stroke-linecap="round" stroke-linejoin="round" stroke-width="0.5"><title>2024-04-27 10.1km</title><desc>9223370322649067555</desc></polyline><polyline fill="none" points="32.50000001490116,244.09473817422986 44.0714285671711,244.09473817422986 29.607142850756645,250.9052618239075 12.25,244.09473817422986 52.75,250.9052618239075 20.928571417927742,250.9052618239075" stroke="#4dd2ff" stroke-linecap="round" stroke-linejoin="round" stroke-width="0.5"><title>2024-04-26 5.2km</title><desc>9223370322713802999</desc></polyline></svg>