<?xml version="1.0" encoding="utf-8" ?>
<svg baseProfile="full" height="300mm" version="1.1" viewBox="0,0,200,300" width="200mm" xmlns="http://www.w3.org/2000/svg" xmlns:ev="http://www.w3.org/2001/xml-events" xmlns:xlink="http://www.w3.org/1999/xlink"><defs /><rect fill="#222222" height="300" width="200" x="0" y="0" /><text fill="#FFFFFF" style="font-size:12px; font-family:Arial; font-weight:bold;" x="10" y="20">Over 3km Runs</text><text fill="#FFFFFF" style="font-size:4px; font-family:Arial" x="10" y="280">ATHLETE</text><text fill="#FFFFFF" style="font-size:9px; font-family:Arial" x="10" y="290">L</text><text fill="#FFFFFF" style="font-size:4px; font-family:Arial" x="120" y="280">STATISTICS</text><text fill="#FFFFFF" style="font-size:3px; font-family:Arial" x="120" y="285">Number: 13</text><text fill="#FFFFFF" style="font-size:3px; font-family:Arial" x="120" y="290">Weekly: 4.3</text><text fill="#FFFFFF" style="font-size:3px; font-family:Arial" x="141" y="285">Total: 68.0 km</text><text fill="#FFFFFF" style="font-size:3px; font-family:Arial" x="141" y="290">Avg: 5.2 km</text><text fill="#FFFFFF" style="font-size:3px; font-family:Arial" x="167" y="285">Min: 3.0 km</text><text fill="#FFFFFF" style="font-size:3px; font-family:Arial" x="167" y="290">Max: 10.1 km</text><polyline fill="none" points="12.399999998509884,47.30896531417966 21.494736842811108,51.32358869165182 15.810526311397552,44.63254900369793 40.82105262577534,59.352831532247365 55.599999994039536,63.36745099723339 46.50526315718889,62.029244653880596 15.810526311397552,56.676417832262814" stroke="#4dd2ff" stroke-linecap="round" stroke-linejoin="round" stroke-width="0.5"><title>2024-05-08 6.2km</title><desc>9223370321684028463</desc></polyline><polyline fill="none" points="100.00000002980232,32.400000002235174 93.32735992968082,75.60000000149012 106.67264008522034,59.89091505110264 106.67264008522034,63.818186931312084" stroke="#4dd2ff" stroke-linecap="round" stroke-linejoin="round" stroke-width="0.5"><title>2024-05-07 6.1km</title><desc>9223370321771754451</desc></polyline><polyline fill="none" points="163.12160717323422,54.42355924937874 181.11156232655048,37.48236533580348 178.95276771113276,40.87060705712065 173.91558026522398,40.87060705712065 170.31758923456073,41.717667256481946 168.15879461541772,45.105907139368355 165.28040178865194,47.647086089942604 181.83116053789854,32.39999999990687 171.75678564608097,44.258847306948155 150.16883946210146,75.60000000009313 172.47638385370374,55.270617980044335" stroke="#4dd2ff" stroke-linecap="round" stroke-linejoin="round" stroke-width="0.5"><title>2024-05-05 4.5km</title><desc>9223370321934722240</desc></polyline><polyline fill="none" points="45.00984002649784,112.08001373521984 32.77668444812298,117.84000811632723 13.20363550633192,123.59999999962747 30.330053322017193,97.68001685850322 54.79636450111866,80.3999999994412 47.456471137702465,90.48001256398857 29.10673777014017,102.00001755543053 30.330053322017193,109.200015604496 25.436791092157364,103.44001748040318 15.650266617536545,117.84000811632723 19.320213295519352,114.96001123916358" stroke="#4dd2ff" stroke-linecap="round" stroke-linejoin="round" stroke-width="0.5"><title>2024-05-04 3.0km</title><desc>9223370322023120704</desc></polyline><polyline fill="none" points="99.00812214612961,108.42164136376232 117.85380141437054,80.3999999994412 112.89441213011742,81.56756984256208 91.07309929654002,109.5892081707716 93.0568550080061,116.59460636414587 101.98375571519136,123.59999999962747 98.01624428853393,122.43243471067399 89.08934358507395,121.26486929319799 82.14619858935475,118.92973808106035 87.10558786988258,116.59460636414587 89.08934358507395,115.42704031430185" stroke="#4dd2ff" stroke-linecap="round" stroke-linejoin="round" stroke-width="0.5"><title>2024-05-03 5.0km</title><desc>9223370322115228759</desc></polyline><polyline fill="none" points="160.75721192359924,80.40000000223517 186.97115224599838,123.60000000149012 145.0288477241993,123.60000000149012" stroke="#4dd2ff" stroke-linecap="round" stroke-linejoin="round" stroke-width="0.5"><title>2024-05-02 6.8km</title><desc>9223370322200251369</desc></polyline><polyline fill="none" points="23.200000002980232,162.71299302764237 12.399999998509884,166.34527269937098 55.599999994039536,150.00000797212124 49.42857142537832,155.4484313186258 54.05714285373688,144.55158285424113 55.599999994039536,133.65472730062902 55.599999994039536,135.47087038122118" stroke="#4dd2ff" stroke-linecap="round" stroke-linejoin="round" stroke-width="0.5"><title>2024-05-01 4.0km</title><desc>9223370322286947528</desc></polyline><polyline fill="none" points="86.02352941408753,148.20522858994082 121.60000000149012,154.18780298391357 78.40000000037253,148.80348632205278 93.1388235297054,145.81219701608643 88.56470588222146,147.60697079496458 92.63058823533356,148.80348632205278 91.10588235221803,146.4104550080374 87.04000000096858,148.20522858994082 90.59764706157148,147.60697079496458 81.44941176660359,148.80348632205278 89.0729411765933,147.60697079496458 98.72941176593304,145.81219701608643 99.74588235467672,146.4104550080374 86.02352941408753,147.00871293293312 86.53176470659673,148.80348632205278" stroke="#4dd2ff" stroke-linecap="round" stroke-linejoin="round" stroke-width="0.5"><title>2024-04-30 5.3km</title><desc>9223370322373916531</desc></polyline><polyline fill="none" points="146.14681181963533,137.86034256918356 144.87029549013823,139.44208632898517 144.66874027997255,143.39643072645413 144.66874027997255,145.92719989444595 145.3405909796711,148.22070187085774 146.68429237953387,149.16973506263457 148.7670295489952,148.9324768804363 150.31228615855798,148.3788741551689 151.25287713832222,149.16973506263457 153.33561430778354,148.29978801723337 155.68709175754339,146.55989081494045 156.29175738734193,145.6108542283764 157.63545878697187,144.5827298669028 160.99471228639595,141.2610874134698 163.07744945585728,139.36299922235776 165.69766718521714,136.75311989709735 169.3928460343741,136.12042047292925 174.16298600332811,136.19950793095632 176.04416796262376,135.80407055519754 177.79097978235222,136.35768282128265 182.2923794714734,136.43677025358193 183.9720062208362,136.6740324991406 186.72659409046173,139.67934759688796 187.3984447903931,143.63369070918998 187.3984447903931,148.06252955214586 187.3984447903931,152.88676984596532 187.3984447903931,157.4737228396698 186.72659409046173,160.55803708796157 183.50171073130332,163.64233829954173 178.93312597181648,163.87959169887472 174.43172628316097,163.80050724110333 169.25847589457408,164.03776058898075 164.75707620568573,163.80050724110333 162.60715396585874,162.4560701456503 159.4494556763675,161.58613894035807 154.81368584791198,161.58613894035807 151.25287713832222,161.42796951910714 150.6482115087565,160.4789522701758 150.24510108865798,155.57567682216177 150.6482115087565,151.225969410385 151.52161741862074,149.80242317158263 153.40279937791638,147.66709860553965 155.41835147771053,146.48080447979737 159.04634525673464,143.63369070918998 162.20404354599304,140.54930492059793 165.36174183548428,137.46490609343164 167.24292379477993,136.27859538048506 172.01306376350112,136.43677025358193 175.6410575429909,136.9112946673995 176.71601866255514,136.6740324991406 179.53779160184786,136.43677025358193 183.30015552137047,136.43677025358193 184.9125972010661,137.62308070948347 187.1968895806931,141.02382665983168 187.46562986029312,145.6899406579323 187.1968895806931,149.48607918561902 187.3984447903931,153.36128356168047 187.53281493042596,158.18548882333562 185.51726283086464,161.90247768047266 183.03141524107195,163.95867614803137 177.79097978235222,164.03776058898075 174.0958009334281,164.11684502125718 169.72877138433978,164.03776058898075 165.2273716952186,163.95867614803137 162.4055987559259,162.3769855335704 160.45723172626458,161.90247768047266 158.71041990700178,162.1397316454677 153.73872472788207,161.66522363835247 151.18569206865504,161.66522363835247 150.17791601875797,160.4789522701758 150.17791601875797,155.8920181679423 150.84976671845652,150.90962604188826 152.73094867821783,148.9324768804363 155.082426127512,146.79714976856485 157.90419906680472,144.5827298669028 160.92752721626312,141.2610874134698 164.55552099552006,138.0976043517585 166.97418351494707,136.35768282128265 172.21461897389963,136.19950793095632 174.83483670302667,136.43677025358193 176.71601866255514,136.35768282128265 181.88926905137487,136.19950793095632 183.9720062208362,136.5949450925109 186.9953343702946,140.07478287263075 187.53281493042596,143.00099725130713 187.12970451032743,147.0344086450641 187.3312597204931,148.14161571592558 187.12970451032743,153.1240267425892 187.0625194401946,158.3436589476769 186.6594090203289,160.63712189736543 184.37511664093472,162.8514930778183 183.1657853811048,163.87959169887472 178.19409020268358,163.95867614803137 174.63328149309382,163.87959169887472 170.13188180420548,163.72142277448438 165.2273716952186,163.72142277448438 162.1368584758602,162.1397316454677 160.45723172626458,161.74430832755752 156.96360808727331,161.50705423398176 151.99191290838644,161.42796951910714 150.5810264388565,160.55803708796157 150.31228615855798,156.92012659460306 150.51384136849083,153.28219796379562 152.73094867821783,148.9324768804363 155.4855365473777,147.3507536938996 158.1057542769704,144.66181640780997 158.77760497690178,143.79186398757156 160.8603421463631,141.8937823799788 163.01026438595727,139.67934759688796 166.30233281524852,136.832207286614 168.317884914577,136.35768282128265 170.9381026441697,136.5949450925109 174.29735614336096,136.43677025358193 176.04416796262376,136.832207286614 179.67216174211353,136.35768282128265 183.1657853811048,136.35768282128265 185.58444790076464,138.33486605709186 187.3312597204931,140.86565278080525 187.1968895806931,145.6899406579323 187.12970451032743,149.2488211063901 187.26407465012744,153.835796968895 187.1968895806931,158.3436589476769 187.0625194401946,160.1626129129436 185.0469673408661,162.29790091258474 181.62052877177484,163.95867614803137 177.79097978235222,164.03776058898075 173.89424572326243,164.03776058898075 170.46780715417117,164.19592944480246 167.64603421487845,164.03776058898075 165.89922239538282,164.03776058898075 163.01026438595727,163.08874673442915 160.12130637653172,161.74430832755752 157.70264385733753,161.42796951910714 154.74650077777915,161.1907153224456 151.45443234825507,161.42796951910714 150.6482115087565,160.71620669792173 150.11073094862513,157.15738217969192 150.5810264388565,154.78482285764767 151.65598755842075,154.38939555402612 150.84976671845652,154.38939555402612 150.51384136849083,152.57042719749734 152.2606531882193,149.32790714129806 153.33561430778354,148.06252955214586 155.14961119764484,146.9553223613184 157.70264385733753,144.81998946343083 160.18849144643173,142.76373706315644 162.3384136860259,140.47021793411113 165.5632970451843,137.38581877265824 166.83981337514706,136.6740324991406 171.27402799390256,136.51585767738288 175.03639191295952,136.832207286614 176.04416796262376,136.99038203962846 179.20186625234783,136.6740324991406 183.03141524107195,136.51585767738288 185.9203732504975,138.88847640325548 187.3984447903931,142.92191053042188 187.46562986029312,147.58801239036256 187.3312597204931,152.17499869369203 187.26407465012744,156.68287093244726 186.9953343702946,159.84627341874875 183.5688958009705,163.32600031374022 179.00031104194932,163.64233829954173 174.63328149309382,163.56325381604256 170.19906687410548,163.48416932381224 167.78040435467847,163.72142277448438 164.68989113532007,163.95867614803137 161.6665629860945,162.06064699910348 157.09797822730616,161.66522363835247 152.73094867821783,161.58613894035807 151.18569206865504,161.1907153224456 150.5810264388565,160.24169776507188 150.446656298358,155.81293284433195 150.37947122869082,153.28219796379562 150.91695178858936,150.59328253602143 153.20124416798353,148.45796028443146 155.61990668717772,146.0062862893683 158.97916018683463,143.23825736204162 162.67433903575875,140.1538699020166 165.76485225488432,137.14855675847502 166.90699844504707,136.43677025358193 171.4083981339354,136.5949450925109 176.11135303298943,136.9112946673995 179.40342146204785,136.6740324991406 183.63608087110333,136.75311989709735 185.9875583203975,139.12573785119457 186.9953343702946,140.47021793411113 187.3312597204931,143.31734404864255 187.53281493042596,146.63897714135237 187.3312597204931,151.30505523114698 187.3312597204931,155.6547621715581 187.0625194401946,158.580914069782 186.45785381039605,160.63712189736543 184.2407465011347,163.1678312693257 181.486158631742,163.80050724110333 176.917573872488,163.95867614803137 171.74432348366827,163.87959169887472 167.78040435467847,163.72142277448438 164.62270606542006,163.95867614803137 162.60715396585874,162.29790091258474 159.38227060670033,161.58613894035807 154.2762052877806,161.34888479538495 151.58880248805508,161.50705423398176 150.5810264388565,160.79529149027076 150.51384136849083,157.94823357247515 150.51384136849083,153.51945473189699 151.25287713832222,150.3560248167487 149.77480559889227,148.06252955214586 149.84199066855945,144.34547019319143 149.90917573869228,142.60556356149027" stroke="#4dd2ff" stroke-linecap="round" stroke-linejoin="round" stroke-width="0.5"><title>2024-04-27 10.1km</title><desc>9223370322649067555</desc></polyline><polyline fill="none" points="34.00000001490116,194.36772071942687 46.342857137322426,194.36772071942687 30.914285719394684,201.63227928057313 12.400000005960464,194.36772071942687 55.6000000089407,201.63227928057313 21.657142847776413,201.63227928057313" stroke="#4dd2ff" stroke-linecap="round" stroke-linejoin="round" stroke-width="0.5"><title>2024-04-26 5.2km</title><desc>9223370322713802999</desc></polyline><polyline fill="none" points="102.05714285746217,214.95065868273377 121.60000000149012,181.04934131726623 115.42857142537832,181.04934131726623 110.28571428731084,183.47086739446968 105.14285714551806,184.68163023795933 95.88571428507566,184.68163023795933 84.57142857089639,193.15696646925062 80.45714285597205,201.6322962725535 90.74285713583231,204.0538178915158 78.39999999850988,198.0000128597021 84.57142857089639,202.8430571500212 91.77142856642604,204.0538178915158 93.8285714276135,206.47533898428082 85.59999999403954,213.73989912122488 88.68571428582072,210.10761964321136 84.57142857089639,207.68609933555126 85.59999999403954,207.68609933555126" stroke="#4dd2ff" stroke-linecap="round" stroke-linejoin="round" stroke-width="0.5"><title>2024-04-25 5.2km</title><desc>9223370322805955311</desc></polyline><polyline fill="none" points="160.26086956541985,198.73699394636787 156.0869565224275,194.06942303595133 156.92173913121223,195.29773210268468 156.29565217439085,196.52604050305672 155.4608695646748,197.50868674344383 153.37391304410994,196.52604050305672 153.79130434803665,197.75434823776595 152.33043478336185,198.24567114538513 151.49565217457712,197.50868674344383 149.61739130411297,196.77170210285112 146.69565217383206,197.26302522304468 146.90434782672673,198.00000970461406 146.27826086990535,197.75434823776595 147.73913043458015,198.49133255891502 148.9913043472916,199.71963922888972 152.53913043439388,199.71963922888972 154.20869565289468,198.73699394636787 154.41739130485803,197.50868674344383 153.58260869514197,198.73699394636787 152.9565217392519,197.75434823776595 154.00000000093132,197.26302522304468 158.59130434785038,197.26302522304468 160.26086956541985,197.75434823776595 163.1826086966321,197.50868674344383 163.6000000005588,196.2803788757883 162.5565217398107,195.05207034223713 159.42608695756644,193.57809922355227 157.75652173906565,192.59545127744786 155.4608695646748,191.3671407471411 154.20869565289468,195.78905554208905 154.20869565289468,197.26302522304468 153.16521739121526,198.24567114538513 151.9130434775725,198.00000970461406 150.24347826093435,198.24567114538513 148.36521739140153,197.75434823776595 147.94782608747482,199.47397794830613 149.82608695700765,200.21096171042882 148.36521739140153,201.1936063542962 149.82608695700765,201.43926744838245 149.4086956512183,202.66757252137177 148.36521739140153,203.40455524483696 144.40000000037253,204.63285925262608 150.034782608971,200.4566229111515 151.49565217457712,199.71963922888972 151.0782608697191,198.24567114538513 155.66956521756947,199.71963922888972 157.5478260871023,199.47397794830613 159.0086956517771,200.21096171042882 158.17391304299235,201.1936063542962 158.59130434785038,202.17625057208352 159.84347826149315,203.15889436355792 159.84347826149315,204.14153772895224 158.17391304299235,204.63285925262608 154.8347826078534,203.15889436355792 154.62608695682138,201.68492851639166 156.71304347831756,201.43926744838245 157.75652173906565,202.17625057208352 160.26086956541985,201.43926744838245 160.67826087027788,202.91323345550336 159.0086956517771,203.89587692776695 157.1304347831756,203.89587692776695 151.49565217457712,200.4566229111515 148.36521739140153,197.75434823776595 146.90434782672673,197.26302522304468 145.44347826112062,197.50868674344383 146.27826086990535,196.52604050305672 147.94782608747482,197.01736367633566 149.20000000018626,196.77170210285112 148.36521739140153,197.75434823776595 146.48695652093738,197.75434823776595 144.40000000037253,198.00000970461406 148.9913043472916,198.24567114538513 150.66086956579238,197.50868674344383 151.9130434775725,197.50868674344383 152.9565217392519,198.49133255891502 155.4608695646748,197.26302522304468 156.50434782542288,197.75434823776595 157.75652173906565,197.75434823776595 158.59130434785038,198.49133255891502 159.84347826149315,198.98265530681238 161.0956521742046,198.73699394636787 162.13913043495268,198.98265530681238 163.39130434859544,200.4566229111515 165.47826087009162,201.9305895571597 167.14782608672976,201.68492851639166 168.40000000037253,202.17625057208352 166.73043478280306,201.43926744838245 163.6000000005588,200.70228408556432 164.85217391327024,200.21096171042882 165.0608695652336,201.68492851639166 166.5217391308397,201.43926744838245 166.73043478280306,200.21096171042882 167.77391304261982,201.1936063542962 169.0260869571939,201.43926744838245 165.47826087009162,201.43926744838245 167.14782608672976,201.68492851639166 167.5652173915878,200.94794523296878 168.60869565233588,201.43926744838245 169.6521739140153,202.17625057208352 166.10434782598168,203.40455524483696 168.40000000037253,202.66757252137177 171.1130434786901,200.4566229111515 170.069565217942,199.22831664071418 170.069565217942,200.21096171042882 167.77391304261982,200.70228408556432 165.47826087009162,200.4566229111515 163.80869565252215,199.47397794830613 159.84347826149315,199.22831664071418 161.72173913102597,199.47397794830613 162.76521739177406,200.70228408556432 164.85217391327024,199.71963922888972 169.0260869571939,199.47397794830613 171.53043478354812,200.21096171042882 174.034782608971,200.4566229111515 175.70434782654047,200.4566229111515 180.29565217345953,200.94794523296878 184.67826087027788,201.43926744838245 187.6000000005588,201.9305895571597 184.67826087027788,201.9305895571597 184.05217391438782,201.9305895571597 181.33913043607026,201.9305895571597 179.0434782616794,201.68492851639166 177.37391304410994,201.9305895571597 175.0782608697191,201.9305895571597 174.24347826093435,201.1936063542962 171.53043478354812,200.4566229111515 175.70434782654047,199.96530048316345 177.37391304410994,200.94794523296878 178.41739130485803,200.4566229111515 177.1652173921466,200.21096171042882 177.79130434896797,200.4566229111515 176.74782608728856,200.94794523296878 175.49565217457712,200.94794523296878 177.1652173921466,199.96530048316345 175.0782608697191,200.70228408556432 172.5739130442962,201.9305895571597 169.86086956504732,202.66757252137177 170.69565217383206,203.15889436355792 173.19999999925494,202.91323345550336 172.9913043482229,201.43926744838245 172.15652173943818,201.1936063542962 172.5739130442962,200.70228408556432 174.034782608971,201.1936063542962 175.49565217457712,202.66757252137177 174.86956521868706,203.40455524483696 172.9913043482229,204.14153772895224 170.069565217942,202.42191155976616" stroke="#4dd2ff" stroke-linecap="round" stroke-linejoin="round" stroke-width="0.5"><title>2024-04-24 3.4km</title><desc>9223370322893282018</desc></polyline><polyline fill="none" points="55.600000001490116,248.24346706084907 16.211764708161354,242.2608887758106 12.399999998509884,249.73911122512072 17.482352942228317,243.75653358828276" stroke="#4dd2ff" stroke-linecap="round" stroke-linejoin="round" stroke-width="0.5"><title>2024-04-23 3.1km</title><desc>9223370322979897699</desc></polyline></svg>