<?xml version="1.0" encoding="utf-8" ?>
<svg baseProfile="full" height="300mm" version="1.1" viewBox="0,0,200,300" width="200mm" xmlns="http://www.w3.org/2000/svg" xmlns:ev="http://www.w3.org/2001/xml-events" xmlns:xlink="http://www.w3.org/1999/xlink"><defs /><rect fill="#222222" height="300" width="200" x="0" y="0" /><text fill="#FFFFFF" style="font-size:12px; font-family:Arial; font-weight:bold;" x="10" y="20">Over 3km Runs</text><text fill="#FFFFFF" style="font-size:4px; font-family:Arial" x="10" y="280">ATHLETE</text><text fill="#FFFFFF" style="font-size:9px; font-family:Arial" x="10" y="290">L</text><text fill="#FFFFFF" style="font-size:4px; font-family:Arial" x="120" y="280">STATISTICS</text><text fill="#FFFFFF" style="font-size:3px; font-family:Arial" x="120" y="285">Number: 20</text><text fill="#FFFFFF" style="font-size:3px; font-family:Arial" x="120" y="290">Weekly: 2.5</text><text fill="#FFFFFF" style="font-size:3px; font-family:Arial" x="141" y="285">Total: 104.1 km</text><text fill="#FFFFFF" style="font-size:3px; font-family:Arial" x="141" y="290">Avg: 5.2 km</text><text fill="#FFFFFF" style="font-size:3px; font-family:Arial" x="167" y="285">Min: 3.0 km</text><text fill="#FFFFFF" style="font-size:3px; font-family:Arial" x="167" y="290">Max: 10.1 km</text><polyline fill="none" points="43.14683950692415,32.55783283675555 44.00605813367292,32.51385673155892 44.19284479180351,32.38192838724353 44.379631449701265,32.33795226289658 44.97734875534661,32.33795226289658 45.649780724197626,32.25 46.06071137194522,32.33795226289658 46.172783366637304,32.38192838724353 46.28485536156222,32.60180893729557 46.35957002500072,33.04156967980089 46.24749802984297,33.78916184816626 46.50899935117923,35.98795435865759 46.43428468797356,36.7795167453296 46.621071345871314,39.418046879553 46.50899935117923,40.20960257368279 46.583714014152065,41.880659523041686 46.54635668289848,42.49631034830236 46.658428677590564,43.06798527814681 46.658428677590564,45.44262636435451 46.73314334079623,47.069687232753495 46.88257266697474,48.03712573676603 46.84521533548832,49.04853625202668 46.994644661899656,52.30262254324043 46.95728733041324,52.91825755438185 47.106716656824574,53.75376071842038 47.14407398831099,54.54528844446759 47.14407398831099,54.9850254029443 46.95728733041324,55.8205243111006 47.18143132003024,56.69999498719699 47.106716656824574,57.93125073131523 47.18143132003024,59.60223469385528 47.442932641133666,60.65758944040863 47.40557530964725,61.62499554670649 47.480289972852916,63.911582629574696 47.368217977928,64.57117266266141 47.442932641133666,65.53856943850406 47.368217977928,65.97829448341508 47.442932641133666,66.81377075560158 47.40557530964725,67.78116218504147 47.517647304339334,69.58402187656611 47.517647304339334,71.03509824923822 47.59236196777783,71.82659226559917 47.70443396246992,72.17836688831449 47.66707663075067,72.44219765529851 47.40557530964725,72.66205649677431 47.14407398831099,72.70602825080277 46.621071345871314,72.75 45.79921005084179,72.70602825080277 44.15548746008426,72.4861694330757 42.28762088017538,72.44219765529851 41.35368758998811,72.17836688831449 39.52317834133282,72.04645144054666 37.43116777157411,71.73864856228465 34.18107992224395,71.47481733784662 32.724143989849836,71.29892975959228 32.08906935248524,71.12304210508591 31.341922720428556,71.12304210508591 30.22120277234353,71.38687355825095 29.586128134978935,71.21098594195792 28.689552176510915,71.03509824923822 27.15790158091113,71.21098594195792 25.551536321872845,70.7712665675208 24.169315052684397,70.63935066232807 23.272739093983546,70.28757470534765 17.407638032454997,69.36416136746993 17.29556603753008,68.88046782801393 17.29556603753008,68.39677371198195 17.66913935355842,67.5613006989588 17.74385401676409,66.98966027799179 17.70649668527767,65.93432200030657 17.74385401676409,65.18678905957495 17.63178202183917,64.17541877142503 17.893283343408257,62.94418197468622 17.967998006381094,62.19664352555992 18.15478466451168,61.22923878201982 18.304213990923017,60.745535545342136 18.976645959774032,57.97522408165969 19.238147281110287,57.05178272398189 19.424933939008042,56.17231281028944 19.649077928392217,55.51270912407199 19.835864586755633,55.20489370354335 20.060008576139808,54.36939352771151 20.545653887093067,53.05017922096886 20.769797876710072,52.698388014832744 21.106013861251995,51.68698659801157 21.77844583010301,50.235841030982556 22.413520467234775,48.47686974884709 23.272739093983546,46.89378907502396 25.588893653592095,43.463759757665684 26.522826943546534,41.57283375997213 27.942405544687063,39.418046879553 29.100482824025676,37.39517531148158 29.586128134978935,36.73554109764518 30.034416114212945,35.7680756439222 30.18384544062428,35.32831785688177 30.445346761960536,34.932535440835636 30.66949075157754,34.44880085263867 31.67813870473765,32.99759362699115 32.20114134717733,32.68976112391101 33.02300264243968,32.55783283675555 33.95693593262695,32.64578503294615 37.58059709798545,32.42590450675925 38.962818367406726,32.38192838724353 39.2616770202294,32.42590450675925 40.00882365228608,32.293976133776596 40.53182629449293,32.293976133776596 42.175548885250464,32.42590450675925 42.549122201278806,32.33795226289658 43.25891150161624,32.42590450675925 44.56641810783185,32.25 45.276207408169284,32.33795226289658 46.210140698356554,32.293976133776596 46.28485536156222,32.33795226289658 46.39692735625431,32.777713291550754 46.35957002500072,33.96506568760378 46.47164201945998,35.504221028852044 46.621071345871314,36.25180865917355 46.54635668289848,37.35119973050314 46.583714014152065,38.14275945725967 46.54635668289848,39.19817002379568" stroke="#4dd2ff" stroke-linecap="round" stroke-linejoin="round" stroke-width="0.5"><title>2024-07-24 3.7km</title><desc>11969555111</desc></polyline><polyline fill="none" points="84.84148158552125,72.20479043832165 84.84148158552125,71.65957975795027 84.94291829131544,69.87249246198917 84.94291829131544,69.08495865156874 85.12043252657168,66.41944227923523 85.19651005591732,65.8136393741297 85.14579170290381,65.08667406474706 85.24722840881441,64.54144877725048 85.22186923236586,63.08750920704915 85.2979467617115,61.78501491859788 85.32330593816005,58.543896764633246 85.42474264407065,56.938468455686234 85.37402429105714,56.60526513811783 85.39938346750569,55.27244768850505 85.37402429105714,54.36370468448149 85.39938346750569,53.121750884864014 85.50082017341629,52.06154182794853 85.4501018205192,51.84949950882583 85.37402429105714,51.78891595796449 84.74004487949423,51.78891595796449 84.15678382094484,51.66774881479796 82.99026170372963,51.60716522243456 82.48307817452587,51.51628980811802 81.74766205705237,51.54658161642146 81.06296429270878,51.39512254067813 80.78401335165836,51.39512254067813 80.4797032342758,51.485997996496735 79.71892794035375,51.51628980811802 79.23710358748212,51.304247053863946 77.96914476458915,51.24366337864194 77.48732041183393,51.12249598669587 77.03085523552727,50.94074479539995 76.67582676501479,51.001328539685346 76.04184735345189,51.001328539685346 75.38250876544043,50.880161037348444 74.84996605978813,50.849869153084 74.03847241296899,50.63782586681191 73.2523379427148,50.51665819858317 72.1872525314102,50.48636627296219 70.46282853209414,50.2743226964667 70.05708170868456,50.244030743138865 69.77813076751772,50.092570924782194 69.72741241473705,49.91081902870792 69.72741241473705,49.759359020303236 69.85420829697978,49.27468641332234 70.64034276723396,47.63890983580495 70.84321617893875,46.911894790275255 71.65470982564148,45.0337633798481 71.90830159035977,44.30674120420008 71.90830159035977,44.09469269483816 71.80686488444917,43.70088787120767 71.90830159035977,43.42825342062861 72.23797088430729,42.7921052807942 72.36476676666643,42.27712709939806 72.49156264902558,41.398632603435544 73.04946453112643,38.73283841641387 73.12554206047207,38.27843901110464 73.12554206047207,38.06638568924973 73.22697876626626,37.733158698742045 73.4044930015225,36.703181721037254 73.88631735427771,34.855271838314366 74.19062747177668,33.401169777382165 74.21598664834164,33.128524754720274 74.49493758939207,32.34088200592669 74.4695784128271,32.280294005409814 74.36814170714933,32.25 74.24134582467377,32.522645924502285 74.16526829532813,32.79529156911303 74.01311323652044,33.7646960389975 73.60736641322728,35.33997075629304 73.2523379427148,37.06670346335159 72.99874617811292,38.06638568924973 72.94802782521583,38.39961226194282 72.9226686488837,39.18723704435979 72.77051358995959,39.823393817583565 72.49156264902558,40.520135201950325 72.41548511956353,40.85335869624396 72.26333006087225,42.09536985587329 72.23797088430729,42.458884218591265 71.37575888459105,44.45820432159235 71.04608959075995,45.427566227386706 70.74177947314456,46.03341562228161 69.57525735592935,48.820305041066604 69.4484614735702,49.304978477128316 69.49917982658371,49.63819095148938 69.67669406172354,49.88052703399444 70.03172253223602,50.122862895339495 70.51354688499123,50.244030743138865 72.7197952370625,50.425782411242835 73.78488064848352,50.54695012079901 74.39350088348147,50.698409680160694 74.90068441280164,50.698409680160694 75.40786794188898,50.78928537425236 75.78825558885,50.7287015816255 76.80262264725752,50.78928537425236 78.32417323498521,51.03162040669122 79.11030770523939,51.12249598669587 79.33854029339273,51.21337153582135 80.25147064600606,51.45570618138299 80.63185829285067,51.425414362805896 81.41799276322126,51.57687342114514 82.00125382177066,51.57687342114514 82.38164146873169,51.63745702043525 83.67495946818963,51.60716522243456 84.63860817370005,51.72833239330794 85.32330593816005,51.69804060575552 85.50082017341629,51.78891595796449 85.55153852631338,53.00058434961829 85.47546099696774,53.909332016686676 85.52617934986483,54.33341319739702 85.47546099696774,55.060407932294765 85.50082017341629,55.817691998847295 85.4501018205192,56.029731150658336 85.42474264407065,56.7567212433205 85.4501018205192,57.63516495117801 85.39938346750569,58.39244167818106 85.42474264407065,59.57378906215308 85.39938346750569,59.72524347514263 85.42474264407065,59.846406943310285 85.37402429105714,60.30076945669134 85.42474264407065,60.99745713468292 85.34866511472501,61.482108354975935 85.37402429105714,62.602860915474594 85.32330593816005,63.99622237079893 85.34866511472501,64.48086812061956 85.24722840881441,65.35928628887632 85.27258758514654,66.26799168245634 85.22186923236586,66.84350349087617 85.24722840881441,67.35843405223568 85.27258758514654,67.60075397099718 85.22186923236586,67.93394349867594 85.27258758514654,68.14597298044828 85.27258758514654,68.72148072088021 85.06971417355817,69.59988486871589 85.01899582054466,69.7513335661788 84.96827746776398,70.1148100879509 84.81612240895629,71.90189575403929 84.84148158552125,72.75" stroke="#4dd2ff" stroke-linecap="round" stroke-linejoin="round" stroke-width="0.5"><title>2024-07-21 4.3km</title><desc>11945152036</desc></polyline><polyline fill="none" points="114.92098737321794,64.819979486987 115.8834016751498,68.21856265352108 117.08641955256462,69.91785257891752 119.9736624583602,71.90035609551705 122.13909463770688,72.75 125.02633754257113,72.75 127.67297687288374,71.90035609551705 130.31961620226502,69.91785257891752 131.7632376542315,67.36891727615148 132.4850483816117,63.40390186337754 129.8384090512991,38.19759176648222 128.63539117388427,36.21506268181838 126.95116614643484,34.232532092835754 124.78573396708816,32.81643789424561 122.37969821225852,32.25 119.2518517319113,32.53321896167472 116.36460882611573,33.6660945052281 114.43978022318333,35.64862552424893 112.75555519387126,38.76402837224305 112.51495161931962,41.87942750588991 114.92098737321794,65.10319492011331 115.64279810059816,67.93534755846485 117.80823027901351,70.48428230849095 120.4548696083948,72.18357076100074 123.10150893777609,72.75 126.22935541998595,72.46678539551795 129.1165983248502,70.76749712787569 131.04142692871392,68.78499275096692 132.24444480519742,66.23605634341948 132.4850483816117,63.12068624608219 130.07901262585074,38.76402837224305 128.87599474936724,36.498281214153394 127.43237329646945,34.51575084030628 125.02633754257113,32.81643789424561 122.86090536415577,32.25 119.9736624583602,32.25 116.36460882611573,33.94931331393309 114.19917664770037,35.93184411851689 112.75555519387126,39.3304648543708 112.51495161931962,42.162645424716175 115.16159094963223,66.51927162287757 116.36460882611573,69.0682077545207 117.80823027901351,70.48428230849095 119.9736624583602,71.90035609551705 122.86090536415577,72.75 125.50754469353706,72.75 127.91358044650406,71.61714139929973 130.560219777748,69.35142272640951 131.7632376542315,67.36891727615148 132.4850483816117,63.40390186337754 129.8384090512991,38.48081008531153 128.63539117388427,35.93184411851689 126.71056257002056,33.94931331393309 124.30452681705356,32.53321896167472 121.65788748580962,32.25 118.28943742904812,32.81643789424561 115.40219452418387,34.51575084030628 113.47736592125148,37.06471818871796 112.51495161931962,40.46333745121956 132.4850483816117,63.68711744924076 130.31961620226502,40.46333745121956 129.59780547581613,37.34793662908487 128.15418402291834,35.36540689948015 125.98875184357166,33.38287566578947 123.58271608967334,32.53321896167472 120.21426603291184,32.25 117.80823027901351,33.099656795850024 115.16159094963223,34.798969557508826 113.47736592125148,37.06471818871796 112.75555519387126,39.61368304933421 112.75555519387126,42.44586331327446 115.16159094963223,66.23605634341948 116.12400525063276,68.50177771784365 117.80823027901351,70.76749712787569 120.93607675842941,72.46678539551795 123.58271608967334,72.75 126.71056257002056,72.18357076100074 128.87599474936724,71.05071191582829 131.04142692871392,68.78499275096692 132.24444480519742,66.23605634341948 132.4850483816117,63.12068624608219 130.07901262585074,39.04724662913941 128.87599474936724,36.498281214153394 127.19176972005516,34.51575084030628 124.78573396708816,32.81643789424561 121.89849106129259,32.25 118.77064458001405,32.53321896167472 115.8834016751498,34.232532092835754 113.95857307128608,36.21506268181838 112.75555519387126,39.04724662913941 112.51495161931962,41.87942750588991 115.16159094963223,66.23605634341948 116.36460882611573,69.0682077545207 118.28943742904812,71.05071191582829 121.1766803348437,72.46678539551795 123.8233196651563,72.75 127.19176972005516,72.18357076100074 129.59780547581613,70.48428230849095 131.04142692871392,68.78499275096692 132.24444480519742,65.9528410336934 132.4850483816117,62.554254920221865 129.8384090512991,38.48081008531153 128.15418402291834,35.08218824444339 126.22935541998595,33.6660945052281 124.06392324063927,32.53321896167472 121.1766803348437,32.25 118.77064458001405,32.53321896167472 115.8834016751498,34.232532092835754 113.71796949673444,36.781499716918916 112.75555519387126,39.04724662913941 112.51495161931962,42.162645424716175 114.92098737321794,64.819979486987 115.40219452418387,67.08570208912715 117.08641955256462,69.91785257891752 119.2518517319113,71.61714139929973 122.13909463770688,72.75 125.26694111712277,72.75 128.15418402291834,71.61714139929973 130.560219777748,69.63463766756468 132.00384123064578,67.08570208912715 132.4850483816117,64.25354852946475 130.31961620226502,40.46333745121956 129.35720189940184,37.06471818871796 126.95116614643484,34.232532092835754 124.06392324063927,32.53321896167472 120.69547318480909,32.25 117.56762670353055,33.099656795850024 115.8834016751498,33.94931331393309 114.19917664770037,35.93184411851689 112.99615877028555,38.19759176648222 112.51495161931962,40.18011934775859 114.92098737321794,64.53676402405836 115.8834016751498,67.93534755846485 117.56762670353055,70.48428230849095 120.21426603291184,72.18357076100074 123.58271608967334,72.75 125.98875184357166,72.46678539551795 128.63539117388427,71.33392667281441 130.560219777748,69.63463766756468 132.00384123064578,66.80248687113635 132.4850483816117,64.53676402405836 132.24444480519742,61.987823471892625 121.41728391125798,32.25 119.2518517319113,32.53321896167472 132.4850483816117,62.2710392116569 130.07901262585074,39.89690121426247 129.1165983248502,36.781499716918916 127.43237329646945,34.51575084030628 124.30452681705356,32.81643789424561 120.93607675842941,32.25 118.04883385449648,32.81643789424561 115.8834016751498,33.94931331393309 113.95857307128608,36.21506268181838 112.99615877028555,38.76402837224305 112.51495161931962,40.74655552371405 114.92098737321794,64.819979486987 116.12400525063276,68.78499275096692" stroke="#4dd2ff" stroke-linecap="round" stroke-linejoin="round" stroke-width="0.5"><title>2024-07-05 3.3km</title><desc>11814633384</desc></polyline><polyline fill="none" points="165.95764794759452,32.25 162.8729438437149,33.0879374826327 160.02552466932684,35.32243610266596 158.1272452203557,38.67418040125631 158.1272452203557,41.74660884565674 160.5000945320353,64.92935992847197 161.21194932516664,68.00175707275048 162.63565891236067,69.9569169844035 164.77122329268605,71.6327671573963 167.14407260529697,72.75 169.75420684739947,72.75 172.12705615814775,72.19138363958336 174.49990547075868,70.5155338300392 175.9236150579527,68.56037434190512 177.11003971286118,65.76728678541258 177.11003971286118,62.694886977085844 174.73719040118158,39.791427532210946 173.5507657462731,36.160372585989535 170.70334657188505,33.64656231878325 166.90678767301142,32.25 162.8729438437149,33.0879374826327 159.78823973890394,35.60174829396419 158.1272452203557,38.9534922298044 158.1272452203557,42.30523180565797 160.5000945320353,64.92935992847197 161.6865191878751,68.8396829306148 163.58479863684624,71.07415055367164 165.72036301810294,72.19138363958336 168.33049726020545,72.75 171.1779164345935,72.47069183480926 174.26262053847313,70.794842206873 175.9236150579527,68.8396829306148 176.87275478243828,66.04659567750059 177.11003971286118,63.25350539665669 174.73719040118158,41.18798576435074 174.02533560805023,37.277620806824416 172.60162602178752,35.32243610266596 169.75420684739947,33.0879374826327 166.90678767301142,32.25 164.29665343090892,32.52931252354756 161.92380411922932,33.64656231878325 159.78823973890394,35.32243610266596 158.60181508306414,37.5569327857811 157.88996028807014,40.07073923898861 160.5000945320353,65.20866891066544 161.21194932516664,67.72244839277118 162.39837398193777,69.67760851699859 164.53393836226314,71.6327671573963 167.14407260529697,72.47069183480926 169.75420684739947,72.75 172.8389109512791,71.6327671573963 174.9744753325358,69.9569169844035 176.39818491972983,67.72244839277118 177.11003971286118,65.20866891066544 174.73719040118158,40.629362562671304 174.26262053847313,37.836244735401124 172.8389109512791,35.32243610266596 170.94063150230795,33.64656231878325 167.85592739842832,32.52931252354756 164.77122329268605,32.52931252354756 161.92380411922932,33.64656231878325 160.02552466932684,35.04312388156541 158.60181508306414,37.836244735401124 157.88996028807014,40.07073923898861 160.5000945320353,65.20866891066544 160.97466439474374,67.4431396825239 162.63565891236067,69.9569169844035 164.53393836226314,71.6327671573963 167.14407260529697,72.47069183480926 169.99149177782238,72.75 172.60162602178752,71.91207541315816 174.9744753325358,69.9569169844035 176.63546985015273,67.4431396825239 177.11003971286118,64.65005091577768 174.73719040118158,41.18798576435074 174.26262053847313,37.836244735401124 172.60162602178752,35.04312388156541 170.46606164053082,33.36724991584197 167.85592739842832,32.52931252354756 164.29665343090892,32.52931252354756 161.92380411922932,33.64656231878325 160.02552466932684,35.04312388156541 158.60181508306414,37.836244735401124 157.88996028807014,40.07073923898861 160.5000945320353,64.92935992847197 161.21194932516664,68.00175707275048 162.39837398193777,69.9569169844035 164.53393836226314,71.6327671573963 167.14407260529697,72.75 170.70334657188505,72.47069183480926 173.07619588356465,71.6327671573963 175.21176026389003,69.67760851699859 176.63546985015273,67.16383094154298 177.11003971286118,64.65005091577768 174.73719040118158,41.467297319555655 174.02533560805023,37.5569327857811 172.60162602178752,35.04312388156541 169.75420684739947,33.0879374826327 166.90678767301142,32.25 163.11022877506912,33.0879374826327 160.5000945320353,34.4844993466977 159.07638494484127,36.439684686018154 158.1272452203557,38.67418040125631 157.88996028807014,40.35005091619678 160.5000945320353,65.76728678541258 161.6865191878751,68.8396829306148 163.34751370549202,70.794842206873 165.95764794759452,72.19138363958336 168.56778219155967,72.75 172.12705615814775,72.19138363958336 174.02533560805023,70.794842206873 176.16089998744428,68.28106572199613 177.11003971286118,65.76728678541258 177.11003971286118,62.974196202354506 174.73719040118158,40.07073923898861 174.02533560805023,37.277620806824416 172.60162602178752,35.04312388156541 170.2287767091766,33.36724991584197 167.14407260529697,32.25 164.05936849862337,32.52931252354756 161.92380411922932,33.36724991584197 160.02552466932684,35.32243610266596 158.60181508306414,37.5569327857811 158.1272452203557,39.791427532210946 160.5000945320353,65.20866891066544 161.21194932516664,68.00175707275048 162.63565891236067,70.23622542293742 164.77122329268605,71.6327671573963 167.85592739842832,72.75 170.46606164053082,72.47069183480926 172.8389109512791,71.6327671573963 174.9744753325358,69.9569169844035 176.63546985015273,67.16383094154298 177.11003971286118,64.65005091577768 174.73719040118158,40.629362562671304 173.788050676696,36.99830879736692 171.65248629637063,34.20518703456037 168.09321232885122,32.52931252354756 165.4830780858174,32.25 162.16108904965222,33.36724991584197 160.73737946338952,34.4844993466977 159.07638494484127,36.439684686018154 158.60181508306414,37.5569327857811 157.88996028807014,40.35005091619678 160.26280960068107,64.65005091577768 161.21194932516664,68.00175707275048 163.34751370549202,70.794842206873 165.4830780858174,72.19138363958336 168.33049726020545,72.75 170.94063150230795,72.47069183480926 173.31348081398755,71.35345887043513 174.9744753325358,69.9569169844035 176.39818491972983,67.72244839277118 177.11003971286118,65.20866891066544 174.26262053847313,38.11555665382184 172.8389109512791,35.32243610266596 170.94063150230795,33.64656231878325 168.33049726020545,32.52931252354756 165.4830780858174,32.25 162.63565891236067,33.0879374826327 160.5000945320353,34.76381162926555 158.83910001348704,36.71899675694294 158.1272452203557,39.51211579423398 160.26280960068107,64.37074187234975 161.21194932516664,68.00175707275048 162.63565891236067,69.9569169844035 165.00850822404027,71.91207541315816 168.33049726020545,72.75 170.70334657188505,72.47069183480926 173.5507657462731,71.35345887043513 175.44904519524425,69.67760851699859 176.63546985015273,67.4431396825239 177.11003971286118,64.65005091577768 174.73719040118158,39.791427532210946 174.02533560805023,37.277620806824416 171.88977122772485,34.4844993466977 169.51692191511393,32.80862501822412 165.95764794759452,32.25 162.8729438437149,33.0879374826327 160.73737946338952,34.4844993466977 159.3136698761955,36.160372585989535 158.3645301517099,38.39486854313873 157.88996028807014,40.07073923898861" stroke="#4dd2ff" stroke-linecap="round" stroke-linejoin="round" stroke-width="0.5"><title>2024-06-26 3.9km</title><desc>11744480107</desc></polyline><polyline fill="none" points="40.80299334018491,81.35142738479772 42.70615136413835,81.30749897833448 45.09442810015753,81.0 45.80344775621779,81.0 45.99003187613562,81.04392843981623 46.17661599628627,81.21964215117623 46.32588329236023,81.48321257552016 46.288566468283534,83.7674824053829 46.32588329236023,84.25069168113987 46.47515058820136,84.86568447132595 46.62441788427532,87.63314047810854 46.58710106019862,88.33598343894118 46.69905153219588,89.91737564397044 46.661734708352014,91.6305435692775 46.84831882826984,94.04653731005965 46.81100200442597,94.96900384817855 46.885635652113706,96.3307363288186 46.84831882826984,97.38497768776142 46.9229524761904,98.8784815852996 46.885635652113706,99.53737861389527 47.07221977226436,102.08510371306329 47.07221977226436,102.48043893094291 47.18417024426162,103.44681228481932 47.07221977226436,104.28140559984604 47.29612071625888,106.08236426618532 47.146853420184925,107.66368722886546 47.22148706810549,108.10294251260348 47.29612071625888,110.34313705438399 47.37075436417945,110.73846421774942 47.33343754033558,111.3973419664253 47.408071188256145,111.92444339417852 47.33343754033558,113.28611891006585 47.408071188256145,113.46181864343816 47.408071188256145,114.34031616782886 47.55733848409727,115.65805888432078 47.48270483617671,116.5365516487218 47.5946553084068,118.16175824365928 47.520021660253406,119.34771570024895 47.66928895609453,120.40189719334012 47.5946553084068,121.23645559768192 47.258803892182186,121.36822782026138 46.54978423635475,121.36822782026138 45.57954681222327,121.5 44.79589350824244,121.41215188481146 43.900289732264355,121.19253151403973 42.9300523083657,121.01683513159514 41.43737934809178,120.92898691183655 40.57909239619039,120.70936627915944 39.123736260225996,120.53366968716728 36.772776348283514,120.4458213627513 35.242786564165726,120.13835207716329 34.34718278795481,120.05050366700743 33.89938089996576,120.05050366700743 32.742559356149286,119.91873101599049 31.660371460020542,119.6551855855505 30.95135180396028,119.69910983595764 30.242332147900015,119.61126133057405 29.272094724001363,119.30379141206504 28.525758243864402,119.43556426273426 27.55552081996575,119.43556426273426 26.473332924069837,119.21594282091246 25.05529361194931,119.21594282091246 23.861155243823305,119.04024558182573 22.92823464400135,118.73277523001889 21.248977563809603,118.60100215062266 20.129472843836993,118.33745586356963 17.51729516382329,118.02998497858061 17.330711043672636,117.72251386049902 17.330711043672636,117.50289149052696 17.77851293166168,116.40477785549592 17.741196107817814,116.05338086391566 17.815829755971208,115.39451068372 17.66656245966442,113.24219396474655 18.188997995806858,110.21136124766781 18.03973069996573,109.3328547742567 18.077047523809597,108.80574997625081 18.188997995806858,108.27864449267508 18.52484941179864,107.00480341081857 19.383136363932863,105.20384884328814 19.868255075998604,103.66644227114739 20.31605696398765,102.61221725129872 20.726542027899995,101.47013705197605 21.137027092045173,100.59161163191311 21.360928035806865,99.88878992456011 22.107264515943825,98.26351005869219 22.331165459705517,97.38497768776142 22.66701687593013,96.94571078807348 22.853600995847955,96.4185898800788 23.338719707913697,95.80361462090514 24.15968983597122,94.4418803693261 24.122373012127355,94.4418803693261 24.30895713204518,94.26617239057668 24.756759019801393,93.51941263151821 25.129927259869874,92.72872432784061 26.137481508078054,90.97163368578185 26.771867515984923,90.0930855080951 27.630154468119144,88.7752596703649 28.488441420020536,87.23779077711515 28.82429283601232,86.44709021781455 29.272094724001363,85.78817190675181 29.79453025991097,84.42640400203527 30.503549916204065,83.85533868015045 31.884272404015064,81.6589260964538 32.29475746816024,81.39535578645882 32.48134158807807,81.35142738479772" stroke="#4dd2ff" stroke-linecap="round" stroke-linejoin="round" stroke-width="0.5"><title>2024-06-17 3.2km</title><desc>11672403120</desc></polyline><polyline fill="none" points="97.75,86.94790729880333 57.25,115.55209270119667" stroke="#4dd2ff" stroke-linecap="round" stroke-linejoin="round" stroke-width="0.5"><title>2024-05-09 8.0km</title><desc>9223370321595310162</desc></polyline><polyline fill="none" points="102.25,94.97715498134494 110.77631579339504,98.74086439795792 105.4473684206605,92.4680146900937 128.894736841321,106.26827956177294 142.75,110.0319853099063 134.22368421405554,108.7774168625474 105.4473684206605,103.75914171803743" stroke="#4dd2ff" stroke-linecap="round" stroke-linejoin="round" stroke-width="0.5"><title>2024-05-08 6.2km</title><desc>9223370321684028463</desc></polyline><polyline fill="none" points="167.50000002980232,81.0 161.2443999350071,121.5 173.75560007989407,106.77273286134005 173.75560007989407,110.45455024763942" stroke="#4dd2ff" stroke-linecap="round" stroke-linejoin="round" stroke-width="0.5"><title>2024-05-07 6.1km</title><desc>9223370321771754451</desc></polyline><polyline fill="none" points="162.58488619327545,129.75 187.16045525670052,170.25 147.83954474329948,170.25" stroke="#4dd2ff" stroke-linecap="round" stroke-linejoin="round" stroke-width="0.5"><title>2024-05-02 6.8km</title><desc>9223370322200251369</desc></polyline><polyline fill="none" points="22.375,210.6684309625998 12.25,214.07369315624237 52.75,198.75000747479498 46.96428570896387,203.85790436062962 51.30357141792774,193.64210892654955 52.75,183.42630684468895 52.75,185.1289409827441" stroke="#4dd2ff" stroke-linecap="round" stroke-linejoin="round" stroke-width="0.5"><title>2024-05-01 4.0km</title><desc>9223370322286947528</desc></polyline><polyline fill="none" points="57.25,202.85979942325503 97.75,194.64020057674497 85.18103448301554,199.57196042127907 96.3534482717514,202.85979942325503" stroke="#4dd2ff" stroke-linecap="round" stroke-linejoin="round" stroke-width="0.5"><title>2024-04-30 5.3km</title><desc>9223370322373916531</desc></polyline><polyline fill="none" points="102.25,195.93472626793664 103.97204724373296,197.81166023784317 107.41614173189737,197.0608872602461 108.75551181100309,198.11196920106886 123.29724409431219,185.57395923056174 138.92322834627703,185.72411638125777 141.9846456691157,188.80233079823665 142.6224409446586,207.19625380076468 138.92322834627703,211.5506620311644 121.12874015746638,211.70081355096772 118.13110236194916,209.89899316593073 108.30905511765741,209.44853733747732 107.73503936990164,199.76366617128951 110.3499999998603,196.3851908846409 123.48858267674223,185.57395923056174 138.73188976361416,185.72411638125777 141.6657480315771,188.65217431494966 142.6224409446586,192.25592093379237 142.23976377933286,208.32239648437826 138.47677165316418,211.85096503788373 121.57519685011357,211.85096503788373 118.51377952727489,209.9740691089537 107.54370078700595,208.99808121594833 108.11771653499454,199.0128953094245 122.40433070831932,185.94935204647481 139.36968503892422,185.87427349953214 142.6224409446586,190.07865959370974 142.30354330688715,206.5205673117889 141.9208661413286,208.6977769721998 138.6043307085056,211.77588929852936 121.57519685011357,211.62573779502418 118.13110236194916,209.8239172147005 108.43661417299882,209.37346133746905 107.41614173189737,207.64671109378105 107.60748031456023,201.7156666041701 108.11771653499454,199.2381266534212 122.59566929121502,186.09950911585474 138.6043307085056,185.6490378099843 141.9846456691157,188.7272525606677 142.30354330688715,208.24732036248315 138.79566929116845,211.70081355096772 137.13740157475695,211.85096503788373 122.21299212588929,211.92604076943826 118.4499999997206,210.04914504371118 108.5003937005531,209.44853733747732 107.2248031492345,205.3944216988748 107.67125984234735,203.14212498022243 108.69173228321597,202.76674148184247 107.54370078700595,202.541511285468 107.60748031456023,201.03997476940276 110.28622047207318,196.76057784131262 123.10590551164933,185.94935204647481 139.68858267716132,186.39982315682573 142.43110236222856,189.62819087563548 142.55866141733713,207.04610130458605 138.9870078735985,211.2503588940017 121.06496062967926,211.85096503788373 116.2177165353205,209.67376528825844 108.69173228321597,209.44853733747732 107.67125984234735,208.32239648437826 107.47992125968449,201.7156666041701 108.30905511765741,198.71258673683042 122.59566929121502,185.94935204647481 139.0507874013856,186.024430585152 142.23976377933286,189.5531127275899 142.75,195.4091838450986 142.30354330688715,206.74579621461453 139.11456692917272,211.4005104788812 121.00118110212497,211.85096503788373 118.19488188950345,209.89899316593073 108.11771653499454,209.2983853293117 108.30905511765741,198.9378181786742" stroke="#4dd2ff" stroke-linecap="round" stroke-linejoin="round" stroke-width="0.5"><title>2024-04-27 9.8km</title><desc>1714200483443</desc></polyline><polyline fill="none" points="147.25,194.90784849203192 147.88380281697027,197.0714661135571 149.151408450678,197.96675417444203 151.11619718302973,197.74293226841837 152.5739436619915,197.2206808712217 153.46126760565676,197.96675417444203 155.4260563380085,197.14607349637663 157.64436619728804,195.5047092048917 158.21478873258457,194.60941794147948 159.48239436629228,193.63951775885653 162.65140845091082,190.5059847519151 164.61619718326256,188.7153880575206 167.08802816923708,186.25330999691505 170.57394366222434,185.65644126193365 175.0739436619915,185.73104988213163 176.848591549322,185.35800670046592 178.49647887330502,185.88026709819678 182.74295774661005,185.95487569412217 184.32746478868648,186.17870143335313 186.92605633824132,189.01382116321474 187.5598591552116,192.74422406993108 187.5598591552116,196.92225132341264 187.5598591552116,201.47328786825528 187.5598591552116,205.80047503806418 186.92605633824132,208.7101200815523 183.8838028172031,211.6197528266348 179.57394366175868,211.84357022069162 175.32746478868648,211.76896443084115 170.44718309887685,211.99278177629458 166.20070422557183,211.76896443084115 164.17253521131352,210.5006647647824 161.1936619717162,209.67999902978772 156.82042253552936,209.67999902978772 153.46126760565676,209.5307869730168 152.89084507059306,208.63551395206014 152.51056338031776,204.00991812895518 152.89084507059306,199.90654097840888 153.71478873258457,198.56361223495333 155.48943661991507,196.54921420686878 157.3908450708259,195.43010164395673 160.81338028167374,192.74422406993108 163.79225352127105,189.8345115375123 166.77112676086836,186.92478670499986 168.54577464796603,185.80565849429695 173.04577464796603,185.95487569412217 176.46830985927954,186.4025270997663 177.48239436629228,186.17870143335313 180.1443661970552,185.95487569412217 183.69366197218187,185.95487569412217 185.2147887328174,187.07400366233196 187.3697183104232,190.28216042008717 187.62323943688534,194.68402559141396 187.3697183104232,198.26518326933729 187.5598591552116,201.92092918162234 187.6866197185591,206.47193267813418 185.7852112678811,209.97842304664664 183.44014084502123,211.918176002393 178.49647887330502,211.99278177629458 175.0105633805506,212.06738754210528 170.89084507059306,211.99278177629458 166.64436619728804,211.918176002393 163.98239436629228,210.4260588293546 162.14436619728804,209.97842304664664 160.49647887353785,210.20224097423488 155.80633802805096,209.7546050461824 153.39788732421584,209.7546050461824 152.44718309864402,208.63551395206014 152.44718309864402,204.3083446038654 153.08098591538146,199.6081125952769 154.8556338029448,197.74293226841837 157.0739436619915,195.72853183862753 159.73591549275443,193.63951775885653 162.58802816900425,190.5059847519151 166.0105633805506,187.5216543400893 168.29225352127105,185.88026709819678 173.2359154932201,185.73104988213163 175.70774647896178,185.95487569412217 177.48239436629228,185.88026709819678 182.36267605633475,185.73104988213163 184.32746478868648,186.10409286170034 187.1795774649363,189.3868623637827 187.6866197185591,192.14736096333945 187.30633802851662,195.952354399662 187.49647887353785,196.99685872264672 187.30633802851662,201.69710856146412 187.24295774661005,206.6211453981232 186.86267605633475,208.78472620312823 184.70774647896178,210.8736943207914 183.56690140860155,211.84357022069162 178.87676056381315,211.918176002393 175.51760563394055,211.84357022069162 171.27112676063552,211.694358632667 166.64436619728804,211.694358632667 163.72887323936448,210.20224097423488 162.14436619728804,209.8292110543698 158.84859154955484,209.60539300536038 154.15845070430078,209.5307869730168 152.82746478891931,208.7101200815523 152.5739436619915,205.2782297540689 152.76408450701274,201.84632231621072 154.8556338029448,197.74293226841837 157.45422535203397,196.2507843679632 159.92605633824132,193.71412551385583 160.55985915497877,192.8934397653211 162.5246478873305,191.10284928168403 164.5528169015888,189.01382116321474 167.6584507045336,186.32791855244432 169.55985915497877,185.88026709819678 172.0316901409533,186.10409286170034 175.20070422557183,185.95487569412217 176.848591549322,186.32791855244432 180.27112676086836,185.88026709819678 183.56690140860155,185.88026709819678 185.84859154955484,187.7454795697704 187.49647887353785,190.13294415804558 187.3697183104232,194.68402559141396 187.30633802851662,198.0413614604622 187.43309859163128,202.3685702039511 187.3697183104232,206.6211453981232 187.24295774661005,208.3370893530664 185.34154929616489,210.35145288560307 182.1091549298726,211.918176002393 178.49647887330502,211.99278177629458 174.82042253529653,211.99278177629458 171.58802816923708,212.1419932995923 168.92605633847415,211.99278177629458 167.2781690142583,211.99278177629458 164.5528169015888,211.09751195757417 161.82746478891931,209.8292110543698 159.54577464819886,209.5307869730168 156.75704225362279,209.30696882680058 153.651408450678,209.5307869730168 152.89084507059306,208.85933231632225 152.38380281697027,205.5020492100739 152.82746478891931,203.26385137543548 153.84154929569922,202.89081769547192 153.08098591538146,202.89081769547192 152.76408450701274,201.1748601643485 154.41197183099575,198.1159687381005 155.4260563380085,196.92225132341264 157.13732394389808,195.87774688727222 159.54577464819886,193.8633409991744 161.89084507059306,191.92353716492653 163.91901408461854,189.75990336219547 166.96126760565676,186.85017821425572 168.16549295792356,186.17870143335313 172.348591549322,186.0294842820149 175.897887323983,186.32791855244432 176.848591549322,186.47713563893922 179.82746478891931,186.17870143335313 183.44014084502123,186.0294842820149 186.16549295792356,188.26773815625347 187.5598591552116,192.0727530386066 187.62323943688534,196.47460675914772 187.49647887353785,200.80182535218773 187.43309859163128,205.0544102253043 187.1795774649363,208.03866462485166 183.94718309864402,211.32132952136453 179.63732394366525,211.6197528266348 175.51760563394055,211.54514701251173 171.33450704230927,211.4705411902396 169.0528169015888,211.694358632667 166.13732394366525,211.918176002393 163.2852112678811,210.12763500656 158.97535211290233,209.7546050461824 154.8556338029448,209.67999902978772 153.39788732421584,209.30696882680058 152.82746478891931,208.41169551492203 152.70070422510616,204.23373799724504 152.63732394389808,201.84632231621072 153.14436619728804,199.30968408263288 155.299295774661,197.2952882378595 157.58098591538146,194.9824561093119 160.75000000023283,192.37118468870176 164.23591549298726,189.46147057955386 167.151408450678,186.6263526933035 168.2288732395973,185.95487569412217 172.47535211290233,186.10409286170034 176.91197183122858,186.4025270997663 180.01760563394055,186.17870143335313 184.01056338031776,186.25330999691505 186.22887323936448,188.49156314315042 187.1795774649363,189.75990336219547 187.49647887353785,192.44579258118756 187.6866197185591,195.57931675750297 187.49647887353785,199.98114805406658 187.49647887353785,204.08452475990634 187.24295774661005,206.8449644173961 186.67253521131352,208.78472620312823 184.5809859156143,211.172117820126 181.9823943665251,211.76896443084115 177.67253521131352,211.918176002393 172.79225352127105,211.84357022069162 169.0528169015888,211.694358632667 166.07394366222434,211.918176002393 164.17253521131352,210.35145288560307 161.1302816902753,209.67999902978772 156.31338028190657,209.45618093229132 153.77816901402548,209.60539300536038 152.82746478891931,208.93393842177466 152.76408450701274,206.24811353744008 152.76408450701274,202.0701428882312 153.46126760565676,199.0858626132831" stroke="#4dd2ff" stroke-linecap="round" stroke-linejoin="round" stroke-width="0.5"><title>2024-04-27 10.1km</title><desc>9223370322649067555</desc></polyline><polyline fill="none" points="32.50000001490116,244.09473817422986 44.0714285671711,244.09473817422986 29.607142850756645,250.9052618239075 12.25,244.09473817422986 52.75,250.9052618239075 20.928571417927742,250.9052618239075" stroke="#4dd2ff" stroke-linecap="round" stroke-linejoin="round" stroke-width="0.5"><title>2024-04-26 5.2km</title><desc>9223370322713802999</desc></polyline><polyline fill="none" points="104.59782608691603,247.50000909809023 104.01086956541985,247.26970147294924 105.38043478224427,247.96062427409925 106.55434782523662,249.11216177721508 109.88043478224427,249.11216177721508 111.44565217383206,248.19093182473443 111.64130434766412,247.03939382219687 110.85869565140456,248.19093182473443 110.27173912990838,247.26970147294924 111.25,246.80908614676446 115.55434782616794,246.80908614676446 117.11956521682441,247.26970147294924 119.85869565233588,247.03939382219687 120.25,245.88785519613884 119.2717391308397,244.73631594586186 116.3369565224275,243.35446802224033 114.77173912990838,242.43323557265103 112.61956521682441,241.2816944506485 111.44565217383206,245.4272395707667 111.44565217383206,246.80908614676446 110.46739130374044,247.73031669901684 109.29347825981677,247.50000909809023 107.7282608691603,247.73031669901684 105.96739130374044,247.26970147294924 105.57608695607632,248.88185432646424 107.33695652149618,249.57277660351247 105.96739130374044,250.4940059571527 107.33695652149618,250.7243132328149 106.94565217290074,251.8758492388297 105.96739130374044,252.56677054218017 102.25,253.7183055493515 107.53260869532824,249.80308397929184 108.90217391308397,249.11216177721508 108.51086956448853,247.73031669901684 112.8152173915878,249.11216177721508 114.57608695700765,248.88185432646424 115.94565217290074,249.57277660351247 115.1630434775725,250.4940059571527 115.55434782616794,251.41523491148837 116.7282608691603,252.33646346605383 116.7282608691603,253.25769162084907 115.1630434775725,253.7183055493515 112.03260869439691,252.33646346605383 111.83695652149618,250.95462048402987 113.79347826074809,250.7243132328149 114.77173912990838,251.41523491148837 117.11956521682441,250.7243132328149 117.51086956541985,252.10615636478178 115.94565217290074,253.02738461992703 114.1847826084122,253.02738461992703 108.90217391308397,249.80308397929184 105.96739130374044,247.26970147294924 104.59782608691603,246.80908614676446 103.2282608691603,247.03939382219687 104.01086956541985,246.11816297168843 105.57608695607632,246.578778446652 106.75,246.34847072139382 105.96739130374044,247.26970147294924 104.20652173832059,247.26970147294924 102.25,247.50000909809023 106.55434782523662,247.73031669901684 108.11956521682441,247.03939382219687 109.29347825981677,247.03939382219687 110.27173912990838,247.96062427409925 112.61956521682441,246.80908614676446 113.5978260859847,247.26970147294924 114.77173912990838,247.26970147294924 115.55434782616794,247.96062427409925 116.7282608691603,248.4212393502239 117.90217391308397,248.19093182473443 118.88043478224427,248.4212393502239 120.05434782616794,249.80308397929184 122.01086956541985,251.18492770986632 123.57608695607632,250.95462048402987 124.75,251.41523491148837 123.1847826084122,250.7243132328149 120.25,250.03339133015834 121.42391304299235,249.57277660351247 121.61956521682441,250.95462048402987 122.98913043551147,250.7243132328149 123.1847826084122,249.57277660351247 124.1630434775725,250.4940059571527 125.33695652149618,250.7243132328149 122.01086956541985,250.7243132328149 123.57608695607632,250.95462048402987 123.96739130467176,250.26369865587912 124.94565217383206,250.7243132328149 125.92391304392368,251.41523491148837 122.5978260859847,252.56677054218017 124.75,251.8758492388297 127.29347826074809,249.80308397929184 126.3152173915878,248.65154685056768 126.3152173915878,249.57277660351247 124.1630434775725,250.03339133015834 122.01086956541985,249.80308397929184 120.44565217290074,248.88185432646424 116.7282608691603,248.65154685056768 118.48913043458015,248.88185432646424 119.46739130374044,250.03339133015834 121.42391304299235,249.11216177721508 125.33695652149618,248.88185432646424 127.68478260934353,249.57277660351247 130.03260869532824,249.80308397929184 131.59782608691603,249.80308397929184 135.90217391215265,250.26369865587912 140.01086956541985,250.7243132328149 142.75,251.18492770986632 140.01086956541985,251.18492770986632 139.42391304392368,251.18492770986632 136.8804347831756,251.18492770986632 134.72826087009162,250.95462048402987 133.16304347850382,251.18492770986632 131.01086956448853,251.18492770986632 130.2282608691603,250.4940059571527 127.68478260934353,249.80308397929184 131.59782608691603,249.34246920305304 133.16304347850382,250.26369865587912 134.14130434766412,249.80308397929184 132.96739130467176,249.57277660351247 133.55434782616794,249.80308397929184 132.57608695607632,250.26369865587912 131.40217391308397,250.26369865587912 132.96739130467176,249.34246920305304" stroke="#4dd2ff" stroke-linecap="round" stroke-linejoin="round" stroke-width="0.5"><title>2024-04-24 3.4km</title><desc>9223370322893282018</desc></polyline><polyline fill="none" points="187.75,249.6032503694296 150.823529407382,243.99458322674036 147.25,251.00541677325964 152.0147058814764,245.39675023965538" stroke="#4dd2ff" stroke-linecap="round" stroke-linejoin="round" stroke-width="0.5"><title>2024-04-23 3.1km</title><desc>9223370322979897699</desc></polyline></svg>