<?xml version="1.0" encoding="utf-8" ?>
<svg baseProfile="full" height="300mm" version="1.1" viewBox="0,0,200,300" width="200mm" xmlns="http://www.w3.org/2000/svg" xmlns:ev="http://www.w3.org/2001/xml-events" xmlns:xlink="http://www.w3.org/1999/xlink"><defs /><rect fill="#222222" height="300" width="200" x="0" y="0" /><text fill="#FFFFFF" style="font-size:12px; font-family:Arial; font-weight:bold;" x="10" y="20">Over 5km Runs</text><text fill="#FFFFFF" style="font-size:4px; font-family:Arial" x="10" y="280">ATHLETE</text><text fill="#FFFFFF" style="font-size:9px; font-family:Arial" x="10" y="290">L</text><text fill="#FFFFFF" style="font-size:4px; font-family:Arial" x="120" y="280">STATISTICS</text><text fill="#FFFFFF" style="font-size:3px; font-family:Arial" x="120" y="285">Number: 16</text><text fill="#FFFFFF" style="font-size:3px; font-family:Arial" x="120" y="290">Weekly: 2.0</text><text fill="#FFFFFF" style="font-size:3px; font-family:Arial" x="141" y="285">Total: 99.7 km</text><text fill="#FFFFFF" style="font-size:3px; font-family:Arial" x="141" y="290">Avg: 6.2 km</text><text fill="#FFFFFF" style="font-size:3px; font-family:Arial" x="167" y="285">Min: 5.0 km</text><text fill="#FFFFFF" style="font-size:3px; font-family:Arial" x="167" y="290">Max: 10.1 km</text><polyline fill="none" points="41.449334340170026,41.1460188429337 40.85271205101162,39.507281282916665 38.068474700674415,36.698014001594856 34.0909927720204,34.825167117174715 30.9090072279796,33.88874306669459 28.721392166800797,34.59106114297174 26.136028913781047,36.46390822972171 24.942784334532917,38.33675369317643 22.954043369740248,43.01886024652049 22.755169274285436,45.35990971629508 22.755169274285436,49.80789671908133 23.351791562512517,60.108463030774146 23.152917467057705,63.151802766602486 23.550665659829974,64.79052238725126 24.942784334532917,67.83385552605614 26.931525298394263,69.94077595626004 30.51125903520733,72.28179624653421 32.301125903613865,72.51589813572355 36.27860783226788,72.28179624653421 38.86397108528763,70.64308231021278 41.25046024285257,67.599753129296 42.04595662932843,65.25872776424512 42.24483072478324,45.59401452424936 41.64820843655616,42.082439747639 39.65946747176349,38.80496480525471 36.875230121426284,35.99569661007263 34.0909927720204,34.59106114297174 30.51125903520733,34.122849117266014 27.92589578125626,35.05927306693047 26.73265120293945,35.76159076252952 25.14165843091905,37.16622546920553 24.147287948988378,39.507281282916665 23.152917467057705,44.423490232555196 23.550665659829974,47.46685207076371 23.152917467057705,62.44949397747405 23.74953975621611,65.49283041479066 26.33490301016718,69.70667378790677 27.52814758848399,70.87718437681906 28.721392166800797,71.81359239085577 32.69887409545481,72.75 34.6876150611788,72.51589813572355 37.670726507902145,71.57949042553082 40.45496385637671,69.23846937459894 41.64820843655616,66.19513821438886 42.24483072478324,62.21539099654183 41.847082532942295,46.29632879490964 41.449334340170026,42.082439747639 39.858341568149626,38.33675369317643 36.477481928654015,35.52748488960788 33.693244577385485,34.3569551424589 29.914636746048927,34.3569551424589 27.92589578125626,35.05927306693047 24.743910238146782,38.57085926248692 23.550665659829974,41.1460188429337 23.152917467057705,42.31654490996152 23.550665659829974,60.81077258102596 23.152917467057705,63.151802766602486 24.743910238146782,66.89744578604586 26.33490301016718,69.23846937459894 28.522518071345985,71.1112864187453 30.9090072279796,72.04769433126785 33.89211867470294,72.04769433126785 36.67635602504015,71.34538843482733 39.261719279922545,69.70667378790677 40.45496385637671,68.06795789767057 41.25046024285257,66.66334328753874 42.04595662932843,63.85411132709123 41.64820843655616,60.57666942267679 41.847082532942295,46.99864283576608 41.64820843655616,42.7847551596351 40.653837953694165,39.507281282916665 38.26734879706055,36.46390822972171 36.477481928654015,35.05927306693047 32.69887409545481,33.65463699004613 29.318014456890523,34.122849117266014 26.931525298394263,35.76159076252952 24.545036141760647,39.03907032310963 23.351791562512517,42.082439747639 23.550665659829974,58.93794660526328 23.948413853533566,60.81077258102596 23.948413853533566,63.151802766602486 24.545036141760647,66.42924076411873 26.136028913781047,69.00436713034287 27.92589578125626,70.87718437681906 30.71013313252479,72.28179624653421 34.0909927720204,72.51589813572355 38.26734879706055,70.87718437681906 40.653837953694165,68.06795789767057 41.847082532942295,64.79052238725126 41.64820843655616,43.48707034345716 40.85271205101162,40.91191355371848 39.858341568149626,38.80496480525471 36.67635602504015,35.52748488960788 33.89211867470294,33.88874306669459 30.312384938821197,33.42053088871762 26.931525298394263,35.52748488960788 26.136028913781047,36.46390822972171 23.74953975621611,40.44370289798826 23.152917467057705,42.7847551596351 22.954043369740248,44.89170002588071 23.351791562512517,52.85125096933916 23.351791562512517,61.27897882112302 24.942784334532917,66.66334328753874 26.931525298394263,69.70667378790677 29.516888553276658,71.81359239085577 30.51125903520733,72.28179624653421 33.89211867470294,72.51589813572355 36.875230121426284,71.57949042553082 38.86397108528763,70.17487809900194 40.85271205101162,67.36565070715733 41.847082532942295,63.620008499128744 41.449334340170026,57.7674295459874 41.847082532942295,46.76453818031587 41.05158614739776,40.67780823842622 37.272978314198554,35.76159076252952 35.88085963949561,34.59106114297174 33.693244577385485,33.42053088871762 30.9090072279796,32.718212431296706 28.522518071345985,33.65463699004613 25.738280721008778,36.46390822972171 24.346162045374513,38.57085926248692 23.152917467057705,42.7847551596351 23.351791562512517,56.596911852480844 23.152917467057705,61.51308190310374 23.74953975621611,64.08821413037367 25.340532527305186,67.599753129296 28.32364397495985,71.1112864187453 30.312384938821197,72.04769433126785 33.693244577385485,72.75 35.88085963949561,72.28179624653421 38.466222893446684,70.87718437681906 40.85271205101162,68.06795789767057 41.847082532942295,65.49283041479066 41.449334340170026,54.72408222290687 41.847082532942295,42.082439747639 41.05158614739776,38.57085926248692 38.466222893446684,35.05927306693047 37.07410421781242,34.122849117266014 33.29549638554454,32.48410622822121 31.107881324365735,32.25 28.920266264118254,32.718212431296706 26.931525298394263,34.59106114297174 23.948413853533566,40.44370289798826 23.152917467057705,43.25296530802734 23.152917467057705,51.21252229064703 23.550665659829974,57.533326057717204 23.351791562512517,59.874359796056524 23.74953975621611,60.57666942267679 24.942784334532917,66.42924076411873 26.136028913781047,68.77026485977694 27.52814758848399,70.40898021729663 30.113510842435062,72.04769433126785 32.10225180629641,72.51589813572355 34.0909927720204,72.51589813572355 37.07410421781242,71.57949042553082 39.858341568149626,69.47257159417495 41.449334340170026,66.66334328753874 41.847082532942295,62.21539099654183 41.847082532942295,56.596911852480844 41.05158614739776,47.23274746583775 41.25046024285257,43.48707034345716 40.45496385637671,39.74138672510162 38.86397108528763,37.16622546920553 36.079733735881746,34.3569551424589 34.28986686747521,33.42053088871762 32.301125903613865,32.952318609459326 29.318014456890523,33.42053088871762 26.73265120293945,35.05927306693047 24.545036141760647,38.57085926248692 23.550665659829974,41.61422934662551 23.351791562512517,44.6575951424893 23.550665659829974,52.14893883140758 23.351791562512517,61.98128799092956 23.74953975621611,65.49283041479066 24.545036141760647,67.13154825917445 27.13039939571172,70.17487809900194 29.11914036050439,71.34538843482733 32.89774819277227,72.04769433126785 34.88648915756494,71.81359239085577 38.068474700674415,70.64308231021278 40.45496385637671,68.30206024344079 41.847082532942295,64.79052238725126 41.05158614739776,42.7847551596351 40.653837953694165,39.507281282916665 39.261719279922545,37.16622546920553 36.477481928654015,34.3569551424589 33.693244577385485,33.42053088871762 30.113510842435062,33.88874306669459 28.124769877642393,35.05927306693047 25.340532527305186,37.63443683506921 24.346162045374513,39.27317581605166 23.351791562512517,42.550650047836825 23.74953975621611,49.57379236887209 23.351791562512517,56.36280823731795 23.550665659829974,63.385905645787716 24.147287948988378,66.89744578604586 27.92589578125626,70.64308231021278 29.715762649662793,71.57949042553082 32.301125903613865,72.51589813572355 35.28423735033721,72.51589813572355 38.068474700674415,71.34538843482733 40.256089760921896,69.23846937459894 40.85271205101162,68.30206024344079 41.847082532942295,63.620008499128744 41.449334340170026,56.36280823731795 41.64820843655616,46.53043350065127 41.449334340170026,42.31654490996152 40.85271205101162,40.67780823842622 37.272978314198554,34.825167117174715 35.28423735033721,33.42053088871762 31.107881324365735,32.25 29.318014456890523,32.718212431296706 27.727021684870124,33.65463699004613 25.340532527305186,36.46390822972171 23.74953975621611,39.507281282916665 22.954043369740248,42.7847551596351 23.351791562512517,63.151802766602486 23.74953975621611,65.49283041479066 25.14165843091905,68.53616256406531 26.73265120293945,70.40898021729663 29.715762649662793,72.28179624653421 31.505629517138004,72.75 36.477481928654015,72.04769433126785 38.86397108528763,70.87718437681906 40.256089760921896,69.47257159417495 41.449334340170026,67.13154825917445 42.04595662932843,64.32231690827757 41.449334340170026,59.17204994079657 41.449334340170026,43.01886024652049 40.85271205101162,40.20959753287025 38.466222893446684,36.229802432935685 36.875230121426284,34.825167117174715 34.28986686747521,33.18642476154491 30.71013313252479,32.718212431296706 29.318014456890523,32.952318609459326 26.73265120293945,34.825167117174715 25.340532527305186,36.46390822972171 23.74953975621611,39.975492142140865 23.152917467057705,43.48707034345716 23.152917467057705,50.276105344993994 23.550665659829974,54.48997840494849 24.743910238146782,59.40615325164981 24.346162045374513,62.6835969327949 24.942784334532917,65.72693303995766 25.539406624622643,67.599753129296 27.92589578125626,70.64308231021278 29.516888553276658,71.81359239085577" stroke="#4dd2ff" stroke-linecap="round" stroke-linejoin="round" stroke-width="0.5"><title>2024-08-20 5.2km</title><desc>12192768473</desc></polyline><polyline fill="none" points="86.45911357388832,61.44295212122961 86.5141618908383,60.438580482732505 86.43158941552974,59.82299619761761 86.37654109869618,59.0130149438919 86.32149278162979,58.591823824623134 86.32149278162979,57.846638082904974 86.23892030620482,57.32824690613779 86.1012995140627,57.101450483547524 85.9361545634456,57.03665147413267 85.13795396848582,56.97185245068977 84.36727753200103,57.06905098055722 82.7433521838393,57.00425196415745 82.30296564870514,56.77745529584354 82.05524822277948,56.58305801457027 82.00019990571309,56.453459756827215 82.02772406418808,56.16186347149778 82.46811059932224,55.351872297527734 83.15621456049848,54.41227978625102 83.48650446184911,53.86148280301131 83.62412525410764,53.56988398928661 83.81679436308332,53.343084715277655 84.14708426455036,52.46828590356745 84.50489832414314,52.01468551188009 84.69756743346807,51.56108443174162 84.75261575018521,51.39908387931064 84.97280901786871,51.17228295822861 85.63338882056996,50.07067603661562 86.01872703875415,49.617072006542 86.2939686231548,49.06626618743758 86.76187931676395,48.48305891978089 88.05551476369146,46.18261915651965 88.33075634809211,45.923413566255476 88.55094961577561,45.76140995827154 89.70696427032817,45.82621141202981 91.08317219268065,45.76140995827154 91.19326882634778,45.79381068688235 91.46851041098125,46.020615688932594 91.71622783690691,46.11781777997385 92.12909021356609,46.08541708646226 92.21166268887464,45.98821498488542 92.6520492240088,47.80264900269685 92.3217593227746,46.668629032355966 92.10156605520751,46.37702320161043 91.936421104474,46.312221867294284 91.46851041098125,46.24742051895009 91.41346209391486,46.21501983946655 91.3584137770813,46.053016389516415 91.19326882634778,45.923413566255476 90.7804064496886,45.79381068688235 89.15648110152688,45.82621141202981 88.7160945662763,45.72900922608096 89.43172268592753,43.655355063587194 90.67030981602147,41.970500463387 90.94555140042212,41.45208175270818 91.79880031209905,40.058827011846006 92.12909021356609,39.41079933816218 92.6520492240088,38.60076277022017 93.20253239292651,37.88792877440574 93.58787061122712,37.20749473798787 93.83558803726919,36.91587967670057 94.05578130483627,36.39745219852193 94.63378863199614,35.81422021074104 94.96407853334676,35.36059454458882 95.04665100877173,35.32819268494495 94.9365543751046,35.10137956906692 94.33102288923692,34.80976245284546 93.89063635410275,34.48574310107506 93.53282229427714,34.35613526208908 93.34015318518505,34.06451741865021 92.81719417474233,33.80530131905107 92.54195259022526,33.837703343771864 91.85384862916544,33.80530131905107 89.45924684440251,33.31927052635001 87.11969337658957,33.06005378026748 86.70683099993039,32.9628474425117 86.32149278162979,32.80083680950338 85.66091297904495,32.86564107320737 84.80766406713519,32.736032531567616 83.87184267991688,32.703630387433805 82.96354545140639,32.541619613737566 82.27544149023015,32.541619613737566 81.94515158887953,32.412010931642726 79.63312227942515,32.25 76.68803732586093,32.28240219329018 75.99993336480111,32.476815279747825 75.17420861136634,32.476815279747825 74.56867712561507,32.5740217755374 74.10076643200591,32.509217448474374 72.28417197463568,32.5740217755374 71.76121296430938,32.67122823977843 71.23825395375025,32.67122823977843 70.19233593286481,32.86564107320737 69.66937692242209,32.736032531567616 68.43078979232814,32.736032531567616 67.4123959299177,32.89804319984978 65.98113969073165,32.99524955864763 65.56827731407247,32.93044532297063 64.5774076100206,33.06005378026748 63.83425533212721,33.06005378026748 63.72415869834367,33.09245588578051 63.53148958913516,33.18966218130663 63.4764412723016,33.2868684453133 63.53148958913516,33.99971341487253 63.4764412723016,34.615350883919746 63.61406206456013,35.19858521121205 63.641586222918704,35.65221112337895 63.69663453986868,35.87902382123866 63.53148958913516,36.624264330923324 63.4764412723016,37.43430625559995 63.55901374761015,38.47115671570646 63.4764412723016,38.95717913057888 63.58653790608514,39.50800357881235 63.55901374761015,40.77165583014721 63.66911038139369,41.387279350543395 63.58653790608514,42.52131935840589 63.66911038139369,43.03973621461773 63.91682780731935,43.72015697389725 63.91682780731935,43.8821616882924 63.83425533212721,44.20617085372214 63.66911038139369,44.530179667810444 63.641586222918704,44.65978309509228 62.89843394502532,44.497778802207904 62.70576483581681,44.75698562868638 62.21032998384908,45.2105970341654 62.320426617516205,46.279821194912074 62.40299909294117,46.40942386360257 62.6782406772254,46.53902647594805 62.925958103267476,46.86303276132094 63.03605473716743,47.446243189886445 63.091103054000996,47.964651504385984 63.39386879687663,48.774662695941515 63.42139295535162,49.00146543618757 63.22872384637594,50.07067603661562 63.31129632156808,50.977882031787885 63.31129632156808,51.463884110795334 63.20119968790095,51.72308489657007 63.2562480046181,52.241485793783795 63.17367552930955,52.63028587671579 63.17367552930955,53.440284425218124 63.146151370950975,53.926282500789966 63.20119968790095,54.25028077882598 63.53148958913516,54.93067601977964 63.83425533212721,55.384271986666135 64.2195935503114,55.74066833496909 64.43978681787848,56.03226503112819 64.65998008544557,56.226662670611404 65.29303572955541,56.58305801457027 65.733422264806,57.101450483547524 66.50409870117437,57.78183923495817 66.69676781038288,58.00863514127559 67.0545818702085,58.36502836071304 68.1555482079275,59.23980991615099 68.37574147549458,59.36940696593956 69.55928028863855,59.53140319918748 71.21072979539167,59.59620166782406 73.46771078777965,59.79059698965284 74.15581474883948,59.82299619761761 74.56867712561507,59.88779460306978 74.92649118544068,59.85539540217724 75.42192603740841,59.95259299466852 75.88983673090115,59.82299619761761 76.33022326603532,59.59620166782406 76.82565811800305,59.59620166782406 77.29356881172862,59.69339934451273 77.8715761390049,60.04979055534932 78.36701099108905,60.24418558226898 78.47710762475617,60.30898389645154 78.55968010006472,60.73017259637709 78.55968010006472,61.08656257123221 78.4495834663976,61.79934124625288 78.11929356504697,62.41492146166274 77.98167277267203,62.965702685236465 77.92662445583846,63.87286954710726 77.89910029747989,64.06726208797772 77.81652782217134,64.22925577539718 77.45871376234572,64.65043895205599 77.34861712856218,65.07162153531681 77.3210929700872,65.88158637360903 76.90823059342802,67.20992395817302 76.90823059342802,68.44106083959923 76.66051316738594,69.31581291125622 76.63298900902737,69.5749982186826 76.71556148433592,70.12576625106158 76.63298900902737,70.38495085641625 76.46784405841026,70.67653326876462 76.24765079072677,71.1949012997502 76.22012663236819,71.97245166092762 76.24765079072677,72.231634665397 76.22012663236819,72.36122608324513 76.16507831553463,72.52321527665481 75.86231257254258,72.68520438237465 75.25678108667489,72.75 74.65124960092362,72.62040875057573 73.93562148138881,72.65280656822142 71.07310900301673,72.1992368020874 68.45831395080313,71.90765587479109 67.93535494036041,71.81046216917457 67.19220266235061,71.58367673319299 66.69676781038288,71.35689112509135 65.59580147254746,70.57933916285401 64.05444859957788,69.63979451055638 63.55901374761015,69.28341473196633 63.06357889564242,69.02422917174408 62.430523251299746,68.47345911004231 61.74241929012351,68.01988300328958 61.302032755105756,67.63110293541104 60.44878384331241,67.24232236214448 60.39373552647885,67.14512713972363 60.36621136800386,66.95073660023627 59.98087314981967,66.7239474777889 59.95334899134468,66.59435361629585 60.173542258911766,65.97878200685955 60.28363889257889,65.23361467843642 60.531356318620965,64.19685704499716 60.64145295252092,63.548881698196055 60.80659790325444,63.06289926636964 61.02679117070511,62.25292679108679 61.13688780448865,61.57254821577226 61.302032755105756,60.98936534745735 61.357081072055735,60.568177012813976 61.63232265645638,59.563802435208345 61.71489513188135,59.077813525043894 62.513095726724714,55.93506616403465 62.6782406772254,55.125074375537224 62.76081315265037,55.125074375537224 63.36634463851806,55.060274937713984 63.50396543066017,55.125074375537224 64.19206939183641,55.6758690304996 64.65998008544557,56.226662670611404 65.45818068028893,56.84225436139968 65.89856721553952,57.32824690613779 66.97200939478353,58.33262899474357 67.16467850399204,58.559424483188195 68.32069315866102,59.36940696593956 69.36661117943004,59.499003959528636 70.41252920043189,59.563802435208345 70.9630123693496,59.661000122490805 71.73368880571797,59.62860089694732 73.93562148138881,59.82299619761761 74.320959699573,59.88779460306978 75.11916029453278,59.88779460306978 75.6145951465005,59.79059698965284 75.97240920632612,59.62860089694732 76.08250584010966,59.62860089694732 76.33022326603532,59.466604716319125 77.01832722732797,59.36940696593956 77.8715761390049,59.88779460306978 77.98167277267203,59.98499218505458 78.42205930792261,60.146988084656186 78.6147284170147,60.146988084656186 78.72482505079824,60.01739137197728 79.05511495214887,59.110212810279336 79.3578806950245,58.527025138173485 79.96341218089219,57.61984205368208 80.01846049784217,57.42544532023021 80.01846049784217,56.84225436139968 80.18360544845928,56.226662670611404 80.32122624060139,56.32386144288466 80.45884703285992,56.32386144288466 80.65151614195202,56.42106018352206 80.98180604330264,56.745055757666705 81.72495832142886,57.00425196415745 82.00019990571309,57.00425196415745 82.60573139169719,56.87465388895362 83.29383535275701,57.101450483547524 83.78927020484116,57.166249479021644 85.41319555300288,56.93945293361321 85.99120288027916,56.97185245068977 86.26644446479622,57.166249479021644 86.32149278162979,57.45784478454152 86.34901694010478,58.04103454246069 86.48663773224689,59.175011370214634 86.54168604908045,60.30898389645154 86.62425852462184,60.79497080523288 86.59673436614685,61.70214425440645" stroke="#4dd2ff" stroke-linecap="round" stroke-linejoin="round" stroke-width="0.5"><title>2024-08-16 6.7km</title><desc>12157989761</desc></polyline><polyline fill="none" points="130.41265926137567,32.38150006963406 131.12014408945106,32.51300009666011 131.82762891752645,32.55683342940756 135.6257053629961,32.33766671779449 135.96082975529134,32.38150006963406 136.22148206015117,32.68833339927369 136.33319019107148,34.09099708404392 136.2959541475866,34.879993268608814 136.40766227827407,35.625154918496264 136.55660645244643,36.23881642241031 136.44489832175896,36.80864412803203 136.48213436524384,37.9482971301768 136.40766227827407,38.298958946281346 136.48213436524384,38.56195510874386 136.55660645244643,39.87693335561198 136.55660645244643,41.06041012183414 136.7427866703365,42.11238656198839 136.70555062685162,42.901367096201284 136.7800227140542,43.7341782124422 136.70555062685162,44.084835011395626 136.8172587575391,44.87381169752916 136.7427866703365,45.750450654304586 136.8172587575391,46.32026495732134 136.8917308447417,47.679049670521636 136.85449480102398,48.643345729622524 137.04067501914687,49.826796841429314 137.003438975662,50.87875047783018 137.11514710611664,52.10602626207401 137.04067501914687,52.54433813964715 137.15238314983435,54.29758089923416 137.07791106263176,55.6563388100185 137.18961919331923,56.48912366031436 137.18961919331923,57.23424549394986 137.26409128075466,59.075128844357096 137.22685523703694,60.17088876539492 137.37579941144213,60.6091919025348 137.26409128075466,61.3981363522762 137.4502714984119,63.19517074301257 137.413035454927,64.20325971016428 137.4875075421296,64.86070768293575 137.4502714984119,65.51815458689816 137.5247435856145,65.8687924988044 137.4875075421296,67.66580702606007 137.5247435856145,68.2794199140335 137.5992156730499,68.71771426399937 137.63645171630196,70.55854534782702 137.71092380350456,71.21598299013567 137.5619796293322,72.35553903883556 137.4502714984119,72.48702606870211 137.11514710611664,72.61851305575692 135.58846931927837,72.75 134.43415196845308,72.61851305575692 133.80113922734745,72.35553903883556 132.8702381378971,72.39936805347679 131.15738013316877,72.0925648510165 130.00306278211065,72.0487358031387 127.99231642857194,71.78576141581289 126.50287468521856,71.7419323346694 123.59846328571439,71.25981212838087 122.1834936295636,70.9530080613331 121.02917627850547,70.7776913473208 120.32169145043008,70.73386215686332 119.5769705788698,70.82152053291793 118.3109450971242,70.73386215686332 117.752404443454,70.64620376177481 115.89060226408765,70.6023745572893 115.55547787179239,70.51471613362082 114.92246513091959,70.25174074890674 112.39041416742839,69.98876519332407 111.6084572521504,69.81344806111883 110.3424317704048,69.7257894667855 107.6242005887907,69.28749620908638 107.43802037090063,69.15600813919445 107.28907619649544,68.93686126091052 107.32631224021316,68.54239658109145 107.58696454507299,67.31517067205277 107.66143663250841,66.30708946107188 107.81038080668077,65.60581409352017 107.81038080668077,64.72921817388851 107.84761685039848,64.46623902756255 107.81038080668077,63.98411014833255 107.92208893736824,63.01985066613997 108.03379706805572,61.880268314125715 108.44339354755357,60.696852472930914 108.81575398356654,58.68065454621683 109.07640628842637,57.97936595475767 109.22535046283156,57.19041483590263 109.56047485512681,56.620615848427406 109.74665507301688,55.963154480734374 110.00730737810954,55.6563388100185 109.97007133439183,55.4810154652514 110.00730737810954,55.26186117713223 110.1562515522819,54.73589040146908 110.37966781388968,54.16608795581851 110.52861198806204,53.508622597844806 110.8637363803573,52.85115617123665 111.19886077265255,51.88687014521565 111.53398516494781,51.27323238601093 111.75740142632276,50.52809956975398 112.20423394953832,49.47614502115175 112.3159420802258,48.99399827187881 112.76277460320853,47.94203973287949 113.32131525687873,46.84624667814933 113.54473151825368,46.670919513941044 114.17774425935932,46.01344197089202 114.66181282605976,45.26829946329235 115.51824182830751,43.77801032894058 115.74165808991529,43.295856786106015 116.15125456941314,42.68220599112101 116.44914291799068,41.89322502934374 116.70979522285052,41.58639868395403 117.30557192023844,40.49058840752696 117.67793235601857,40.05226346553536 117.93858466134407,39.43860774845234 118.38541718409397,38.781118446815526 119.98656705836765,35.80048687168164 120.43339958111756,35.1429916547786 120.8429960606154,34.39782911664224 121.43877275800332,33.52116554885288 122.1834936295636,32.73216671310365 122.63032615254633,32.60066675741109 126.76352699031122,32.51300009666011 127.13588742609136,32.38150006963406 130.52436739206314,32.33766671779449 131.26908826385625,32.25 133.5777229659725,32.38150006963406 135.77464953740127,32.25 136.10977392969653,32.51300009666011 136.2959541475866,32.951333210774465 136.33319019107148,33.52116554885288 136.2959541475866,34.13483024598099 136.55660645244643,36.28264935131301 136.44489832175896,36.76481125605642 136.63107853988186,39.26327737249085 136.55660645244643,39.78926827228861 136.63107853988186,40.139928491873434 136.59384249616414,40.84124801904545 136.8172587575391,41.717895717622014 136.7427866703365,42.41921250821906 136.7427866703365,43.38352110941196 136.9289668884594,45.18063554857508 136.8917308447417,45.48745916687767 136.9289668884594,45.969610096595716 136.85449480102398,46.670919513941044 136.96620293194428,48.99399827187881 136.9289668884594,49.56380800472107 136.96620293194428,50.13361693470506 136.9289668884594,50.61576232529478 137.15238314983435,52.894987299485365 137.15238314983435,53.24563615536317 137.04067501914687,53.815439897880424 137.11514710611664,54.51673570959247 137.07791106263176,54.911214069405105 136.96620293194428,55.744000453996705 137.18961919331923,56.53295439449721 137.11514710611664,57.146584173024166 137.22685523703694,58.067027095210506 137.33856336772442,60.65302219011937 137.4502714984119,61.09132480469998 137.37579941144213,61.70494766710908 137.5247435856145,62.713040348753566 137.5992156730499,63.58964063812164 137.4502714984119,64.42240915322327 137.5619796293322,66.00028163733077 137.4502714984119,66.92070441049873 137.413035454927,68.58622600891977 137.5619796293322,69.7257894667855 137.5247435856145,70.12025299252127 137.63645171630196,71.78576141581289 137.63645171630196,72.3117100194795 137.413035454927,72.574684064748 136.7427866703365,72.6623420419055 135.4022891013883,72.70617102322285 131.71592078683898,72.224051966361 130.30095113045536,71.91724863089621 127.69442807976156,71.78576141581289 124.8272527239751,71.34747039043577 122.59309010906145,71.17215384737938 121.81113319378346,70.99683722810005 121.14088440942578,70.99683722810005 120.13551123254001,70.82152053291793 119.76315079675987,70.86534971391666 119.05566596845165,70.73386215686332 118.23647300992161,70.69003296174924 117.78964048670605,70.55854534782702" stroke="#4dd2ff" stroke-linecap="round" stroke-linejoin="round" stroke-width="0.5"><title>2024-08-05 5.0km</title><desc>12068639381</desc></polyline><polyline fill="none" points="174.47420919127762,32.46892983384896 176.8547392617911,32.25 178.00780851463787,32.512715786433546 178.49135368550196,32.42514387649135 179.19807355012745,32.42514387649135 179.8304018501658,32.33757194777718 180.90907953842543,32.42514387649135 181.05786266783252,32.512715786433546 181.16945001482964,32.77543140191119 181.16945001482964,34.00143534861854 181.3926247090567,35.00850723544136 181.42982049123384,35.70907750201877 181.5042120560538,36.234504404390464 181.46701627387665,36.93507254472934 181.54140783846378,37.548068670672365 181.46701627387665,38.33620518006501 181.54140783846378,38.86162866538507 181.46701627387665,39.12434015181498 181.42982049123384,39.91247358574765 181.5042120560538,42.27686466174782 181.61579940305091,43.28391591765103 181.61579940305091,43.9406871231331 181.764582532458,44.947734231245704 181.83897409727797,46.30505462200381 181.80177831463516,47.268311487539904 181.72738675028086,47.61858614196535 181.69019096787088,48.36291877395706 181.9133656618651,52.30348044759012 182.0621487912722,52.87266951223137 182.09934457368217,53.354290402145125 181.98775722668506,54.536448333994485 182.02495300909504,55.01806724045309 181.9133656618651,55.80616966704838 181.98775722668506,56.8131871970254 181.9505614445079,57.732635793159716 182.0621487912722,58.69586541134049 182.0621487912722,59.308828517998336 182.24812770308927,60.88501509340131 182.24812770308927,62.89902232447639 182.4713023970835,63.38063126182533 182.62008552672341,63.993587260862114 182.5084981797263,64.08115232762066 182.35971505008638,64.51897737706895 182.28532348549925,65.525973189855 182.43410661490634,66.62053100930643 182.32251926790923,67.97777858722839 182.35971505008638,68.72207371023251 182.62008552672341,70.56091460669995 182.62008552672341,72.00571229710476 182.5084981797263,72.35596550465561 182.35971505008638,72.53109199454775 182.13654035585932,72.66243681212654 180.31394702079706,72.61865521094296 179.49563980894163,72.53109199454775 179.08648620313033,72.35596550465561 178.60294103249907,72.2684022312169 168.00214306171983,71.17385971246404 167.14664006768726,70.91116906673415 166.8118780264631,70.95495085281436 165.84478768520057,71.26142322298256 165.17526360275224,71.3489867146418 163.6874323086813,70.77982367973891 161.34409802034497,70.47335094420123 160.37700767931528,70.25444170515402 159.37272155564278,70.16687797629857 157.99647760856897,70.1230961047695 157.47573665576056,69.94796857109759 155.87631801445968,69.6852771283884 154.83483610861003,69.51014940504683 153.83054998493753,69.46636746221338 153.30980903212912,69.29123964393511 152.67748073209077,69.24745767755667 152.37991447327659,68.98476577928523 152.37991447327659,68.54694556939648 152.64028494991362,67.93399647835759 152.86345964367501,67.14591770942206 152.78906807908788,64.82545462925918 152.86345964367501,63.86223962507211 153.01224277331494,62.636326298466884 153.01224277331494,62.24228193931049 153.0866343381349,61.54175768510322 153.30980903212912,61.14771225818549 153.45859216153622,60.753666447038995 154.0537246791646,57.5137196504802 154.31409515580162,56.68183722678805 154.61166141438298,56.2002203038428 154.79764032620005,55.368335175386164 154.83483610861003,55.105634252686286 155.0208150204271,54.49266476853518 155.50436019082554,53.441857775032986 155.7275348850526,53.091588169685565 156.17388427327387,51.77807444520295 156.62023366149515,50.90239625619142 156.9921914851293,49.89536399231292 157.21536617935635,48.800760858139256 157.43854087335058,48.406703003682196 157.95928182639182,47.662370452308096 158.25684808497317,47.355880179587984 158.88917638524435,46.04234780545812 159.5215046852827,45.16665718326112 162.08801366761327,40.831960648618406 163.0551040088758,39.47462186779012 163.38986604986712,38.68648757963092 164.46854373812675,36.97885801305529 164.8405015617609,36.45343207876431 165.2496551675722,35.44636379441363 165.43563407938927,35.13986425299663 165.62161299097352,34.70200736174593 166.5515075500589,33.47600554145174 166.8118780264631,33.03814684660756 166.9234653734602,32.90678914572345 167.55579367349856,32.68785954907071 168.5972755793482,32.600287677312735 169.15521231479943,32.68785954907071 170.90341408527456,32.73164547793567 172.05648333835416,32.42514387649135 172.54002850898542,32.42514387649135 173.5071188500151,32.64407361554913 173.99066402064636,32.512715786433546 174.9205585794989,32.38135791456443 176.743151914794,32.38135791456443 177.22669708542526,32.42514387649135 177.82182960305363,32.38135791456443 178.86331150890328,32.42514387649135 179.64442293834873,32.33757194777718 180.87188375601545,32.38135791456443 181.05786266783252,32.46892983384896 181.28103736205958,32.77543140191119 181.2438415796496,34.00143534861854 181.3926247090567,34.351721507147886 181.3554289266467,34.48307873820886 181.3926247090567,34.87715017519076 181.3554289266467,35.183649915969 181.54140783846378,36.19071885533049 181.42982049123384,36.84750159361283 181.46701627387665,38.905413925036555 181.5042120560538,38.99298442999134 181.5042120560538,39.343266259878874 181.57860362087376,39.43083666995517 181.57860362087376,39.82490328029962 181.5042120560538,40.569250272848876 181.6529951854609,41.707660667569144 181.54140783846378,42.53957392697339 181.61579940305091,44.20339530639467 181.764582532458,45.95477882877458 181.72738675028086,46.436407966248225 181.83897409727797,46.961820915865246 181.80177831463516,47.70615475811064 181.9133656618651,48.275350300304126 181.87616987968795,50.55212444916833 181.9505614445079,51.07753204583423 181.9133656618651,52.56618319242261 181.98775722668506,53.13537188703776 181.9133656618651,53.7483434304595 182.02495300909504,54.44888119844836 181.98775722668506,55.80616966704838 182.0621487912722,56.63805389383924 181.98775722668506,57.601286121760495 182.09934457368217,58.21425088919932 182.09934457368217,59.046130157541484 182.24812770308927,62.06715098951827 182.21093192091212,62.37363010161789 182.35971505008638,62.636326298466884 182.24812770308927,63.90602217512787 182.32251926790923,65.17571406133357 182.39691083249636,65.74488499099971 182.32251926790923,66.31405511879711 182.39691083249636,66.97078888531541 182.35971505008638,68.15290697483579 182.43410661490634,68.54694556939648 182.35971505008638,69.0723297643417 182.4713023970835,69.64149520464707 182.58288974431343,70.82360548016732 182.5084981797263,72.35596550465561 182.28532348549925,72.61865521094296 180.46273015020415,72.75 179.5328355913516,72.61865521094296 179.04929042095318,72.39974713412812 178.6773325970862,72.31218387023546 177.41267599724233,72.224620587338 172.46563694416545,71.61167707573622 171.5729381677229,71.65545878603007 169.22960387938656,71.3489867146418 167.51859789108858,71.3052049712569 166.96066115587018,71.13007794995792 165.77039612061344,71.08629618273699 165.3984382969793,70.99873263415066 162.68314618524164,70.99873263415066 162.0508178852033,70.91116906673415" stroke="#4dd2ff" stroke-linecap="round" stroke-linejoin="round" stroke-width="0.5"><title>2024-08-01 5.0km</title><desc>12035805770</desc></polyline><polyline fill="none" points="40.44989616679959,97.293833361211 41.3807973570656,97.4253334167006 42.19999040476978,97.38150006969227 43.428779976209626,97.55683342934935 45.66294283326715,97.3376667178236 46.072539357002825,97.4253334167006 46.184247500030324,97.6006667574693 46.333191690500826,98.56499877251917 46.29595564282499,99.74849401146639 46.48213588097133,101.10731760691851 46.40766378561966,102.33463822022895 46.55660797609016,104.21944476652425 46.593844023765996,106.36723686612095 46.66831611911766,106.98088965655188 46.66831611911766,108.38352110929554 46.78002426191233,109.56698761341977 46.854496356798336,112.24073251968366 46.966204499825835,113.07353469973896 46.92896845238283,115.96641315717716 47.0034405477345,116.58005138181034 47.0406765951775,117.76349389995448 47.0406765951775,119.8673831593187 46.966204499825835,120.74400045385119 47.077912642853335,121.44529292127118 46.966204499825835,122.93553537721164 47.18962078541517,123.94363745421288 47.30132892844267,125.17088876513299 47.450273118913174,126.00366431957809 47.41303707123734,126.88026831386378 47.56198126194067,127.5815501413017 47.56198126194067,128.15134073075023 47.41303707123734,129.51006889686687 47.52474521403201,132.09602279632236 47.450273118913174,132.70963654870866 47.48750916658901,133.06027256074594 47.450273118913174,133.3670788218733 47.56198126194067,134.5943015392113 47.52474521403201,135.16408224933548 47.63645335705951,136.21598299013567 47.63645335705951,137.311710019334 47.48750916658901,137.53085506902426 47.226856833323836,137.66234204173088 46.03530330955982,137.75 44.806513738119975,137.6185130556696 43.9873206904158,137.3993680534477 40.44989616679959,137.00490675040055 39.55623102374375,136.82959049215424 37.69442864297889,136.7419323345821 34.15700411936268,136.34747039034846 32.928214547922835,136.47895774777862 32.10902150021866,136.43512863342767 30.619579595513642,136.5666159624816 29.800386547809467,136.43512863342767 28.94395745266229,136.43512863342767 27.93858416704461,136.21598299013567 26.747030643280596,136.08449554714025 26.076781786046922,135.73386215683422 25.40653292904608,135.60237455705646 24.066035214811563,135.60237455705646 22.800009595695883,135.12025299246307 21.12438745284453,134.9011066367675 19.150876929285005,134.55047222055146 18.85298854811117,134.55047222055146 18.443392024142668,134.41898423616658 17.661435024347156,134.33132555612247 17.43801873875782,134.199837500375 17.363546643173322,134.06834940199042 17.400782691081986,133.63005543182953 17.549726881319657,133.3670788218733 17.624198976671323,132.884954592766 17.69867107179016,131.26325978606474 17.810379214817658,130.73730331729166 17.810379214817658,128.32666075063753 17.996559452963993,127.84453051301534 18.10826759575866,126.83643815934192 18.33168388158083,126.13515503986855 18.48062807205133,125.39004039316205 18.368919929023832,124.77641553568537 18.406155976699665,124.38194192142691 18.555100167170167,123.85597650380805 18.927460643462837,123.28617986288737 19.74665369093418,120.56867714691907 19.97006997675635,120.21803030505544 20.11901416699402,119.56056665736833 20.416902548167855,118.90310194069752 20.528610690962523,118.50862259772839 22.12976073869504,114.91445974871749 22.688301452668384,113.20502962396131 23.13513402431272,112.54755457499414 23.358550309902057,112.06540552646038 24.02879916713573,111.14493756479351 24.512867785990238,110.57512301480165 25.18311664322391,109.21633123242646 25.592713166959584,108.64651396495174 25.55547711928375,108.64651396495174 26.78426669095643,106.49873397106421 27.491751595633104,105.44675593456486 28.08752835751511,104.3071099735098 29.46526211919263,102.0716412596521 30.58234354783781,99.96765941634658 31.513244738336653,98.56499877251917 31.960077309748158,98.03899977658875 32.51861802418716,97.77600002218969 32.890978500247,97.68833339930279 35.981570452451706,97.55683342934935 36.65181930968538,97.6006667574693 37.65719259553589,97.5130000965728 38.625329833477736,97.55683342934935 39.59346707141958,97.4253334167006 40.78502059541643,97.4253334167006 41.82762992870994,97.25 42.75853111897595,97.3376667178236 43.20536369038746,97.293833361211 45.067166071385145,97.3376667178236 45.84912307141349,97.293833361211 46.10977540491149,97.4253334167006 46.29595564282499,97.77600002218969 46.29595564282499,99.66082781623118 46.48213588097133,101.10731760691851 46.444899833295494,101.72097837927868 46.55660797609016,103.51812242675805 46.55660797609016,104.35094256981392 46.51937192864716,104.57010548037942 46.593844023765996,105.2275934991194 46.593844023765996,106.32340448838659 46.66831611911766,106.98088965655188 46.63108007144183,107.63837375570438 46.66831611911766,108.29585678590229 46.63108007144183,108.60268183427979 46.817260309588164,109.7861476970429 46.7427882142365,111.0134419707174 46.817260309588164,111.62708771080361 46.891732404707,111.84624667800381 46.854496356798336,112.41605943685863 46.92896845238283,112.81054472288815 46.891732404707,113.07353469973896 47.0034405477345,113.46801934417454 46.966204499825835,115.08978550683241 46.854496356798336,115.70342506168527 46.92896845238283,116.6238826480112 46.891732404707,117.10602626181208 47.0406765951775,117.89498729922343 47.0034405477345,118.50862259772839 47.0406765951775,119.99887587458943 47.0034405477345,120.96315448055975 47.077912642853335,121.70827728309087 47.0406765951775,122.05892283291905 47.11514869029634,122.80404361663386 47.11514869029634,123.68065454592579 47.26409288099967,124.55726357517415 47.26409288099967,125.43387070443714 47.18962078541517,126.22281549626496 47.338564976118505,127.93219059909461 47.226856833323836,128.8964502903109 47.37580102379434,129.90453750951565 47.338564976118505,130.64964383936604 47.48750916658901,132.1398523808748 47.37580102379434,133.06027256074594 47.48750916658901,134.9011066367675 47.41303707123734,135.6462037617748 47.63645335705951,137.0925648509001 47.52474521403201,137.44319706349052 47.41303707123734,137.5746840647771 46.78002426191233,137.75 44.91822188091464,137.70617102325195 43.24259973806329,137.3993680534477 41.902102023828775,137.2240519662446 41.418033404741436,137.2678809952631 40.48713221447542,137.00490675040055 40.22647988097742,137.00490675040055 38.364677500212565,136.7419323345821 37.471012357156724,136.7419323345821 35.01343321450986,136.34747039034846 34.52936459542252,136.34747039034846 34.04529597633518,136.39129951430368 32.7792703572195,136.34747039034846 32.183493595570326,136.25981212823535 31.699424976250157,136.25981212823535 31.066412166925147,136.04066638991935 30.656815642956644,135.99683722795453 28.94395745266229,136.17215384714655 28.124764404958114,136.12832469964633 26.9332108811941,135.86534971377114 25.965073643252254,135.90917888985132 25.40653292904608,135.60237455705646" stroke="#4dd2ff" stroke-linecap="round" stroke-linejoin="round" stroke-width="0.5"><title>2024-07-29 5.1km</title><desc>12014148662</desc></polyline><polyline fill="none" points="85.77676465641707,97.51214900624473 86.51907538808882,97.64322344542597 88.96870080195367,97.59953197048162 90.67601548461244,97.42476602303213 91.01005531381816,97.55584049067693 91.23274853313342,97.90537219593534 91.30697960639372,98.38597779566771 91.26986406953074,99.4345698422112 91.3812106794212,100.00255606180872 91.3812106794212,100.74530606434564 91.60390389873646,101.53174575167941 91.49255728907883,102.5366386747337 91.60390389873646,103.23569314362248 91.56678836210631,105.81344601968885 91.71525050862692,106.81832826841855 91.67813497199677,108.26011146698147 91.82659711828455,109.87665013264632 91.82659711828455,112.06115154354484 91.86371265468188,113.19708759873174 91.82659711828455,113.54660574087757 91.97505926457234,114.81360646593384 92.04929033783264,116.60487655809266 91.97505926457234,117.52235327888047 92.08640587422997,118.35244946493185 92.01217480120249,120.14370383205824 91.97505926457234,120.49321595134097 92.04929033783264,121.49806160587468 92.01217480120249,122.06601673760451 92.1977524838876,123.37667937218794 92.12352141086012,124.64364920157823 92.34621463040821,125.43004226544872 92.42044570343569,125.95430345574277 92.38333016703837,127.9639650361205 92.494676776696,128.88141590499436 92.34621463040821,129.71148870172328 92.42044570343569,130.1920563816675 92.38333016703837,130.45418396574678 92.45756124006584,131.24056569524691 92.45756124006584,132.72594922137796 92.60602338658646,133.29388853508863 92.45756124006584,134.47345224552555 92.494676776696,135.21613873701426 92.60602338658646,135.52195042424137 92.5689078499563,136.3083222687419 92.68025445961393,137.13837977388175 92.64313892298378,137.4005028415122 92.494676776696,137.53156431144453 91.75236604502425,137.75 90.00793582596816,137.70631287174183 89.52543385070749,137.53156431144453 89.22850955813192,137.5752514586784 85.55407143686898,136.96363096754067 82.17655760864727,136.745194852876 81.21155365766026,136.61413312738296 79.467123438837,136.5267586199625 78.13096412201412,136.26463498422527 77.3144223173149,136.17726040107664 76.75768926856108,136.17726040107664 76.34941836632788,136.3083222687419 75.56999209825881,136.22094769511023 75.19883673242293,136.26463498422527 74.19671724480577,136.3083222687419 72.45228702598251,135.9151365380676 72.08113166037947,135.95882386047742 71.22747431905009,135.74038720151293 69.85419946559705,135.6966998554708 69.11188873415813,135.43457568014855 68.40669353911653,135.34720091708004 67.96130710025318,135.12876392676844 67.55303619801998,135.04138909745961 65.02917971066199,134.73557704585255 64.47244666214101,134.6045146670076 62.91359412600286,134.47345224552555 62.728016443084925,134.42976476228796 62.43109215050936,134.21132727476652 62.3197455406189,133.81813949919888 62.43109215050936,133.20651330816327 62.76513197971508,132.50751081079943 62.91359412600286,131.93957038928056 62.95070966263302,131.15319002329488 62.87647858937271,130.54155978924246 62.91359412600286,130.01730456444784 62.76513197971508,129.01248014435987 62.98782519903034,127.52708293599426 64.06417575990781,123.68250004039146 64.32398451585323,122.328149605426 64.80648649134673,121.06117249862291 65.1034107839223,119.9252586037328 65.43745061312802,119.40098957260489 66.25399241782725,117.2602172860934 66.58803224703297,115.86215577853727 66.92207207623869,115.33788146311417 67.47880512475967,114.07088238603319 67.96130710025318,112.6291199712723 68.2211158561986,112.19222125166561 68.74073336832225,111.58056224885513 69.48304409976117,110.3572414588125 70.33670144109055,109.13391695611062 70.89343448984437,108.08535014165682 71.48728307476267,107.21154237934388 72.08113166037947,105.94451775948983 72.74921131832525,105.15808668182581 73.26882883044891,104.15320029409486 74.08537063538097,103.01723875233438 74.64210368390195,102.05603802407859 75.23595226905309,100.70161492572515 75.56999209825881,100.35208564531058 75.79268531757407,99.95886484248331 76.2009562200401,98.9539654928958 76.38653390295804,98.60443469687016 76.79480480519123,98.12382935770438 77.0917290977668,97.86168074930902 77.72269321954809,97.64322344542597 79.31866129231639,97.6869149156264 81.10020704800263,97.51214900624473 82.13944207224995,97.59953197048162 84.29214319353923,97.46845751701039 85.96234233933501,97.25 87.15003950963728,97.38107452442637 88.44908329006284,97.38107452442637 88.70889204577543,97.33738302101847 90.56466887472197,97.42476602303213 90.78736209427007,97.38107452442637 91.15851745987311,97.59953197048162 91.23274853313342,97.86168074930902 91.26986406953074,98.16752077583806 91.19563299650326,99.04134814452846 91.45544175268151,100.26470327781863 91.45544175268151,100.83268832752947 91.60390389873646,101.35698150933604 91.49255728907883,101.96865602603066 91.49255728907883,103.06092964010895 91.56678836210631,104.10950952483108 91.52967282570899,104.85225195955718 91.56678836210631,105.90082718426129 91.67813497199677,106.51249480579281 91.64101943559945,107.38630408339668 91.75236604502425,108.21642114268616 91.67813497199677,109.83295998367248 91.75236604502425,109.96403041644953 91.71525050862692,110.9689023179235 91.78948158188723,111.36211238009855 91.75236604502425,111.84270193523844 91.78948158188723,112.89125897572376 91.86371265468188,113.45922623385559 91.93794372817501,114.81360646593384 92.04929033783264,115.5563291774888 91.93794372817501,116.34273996867705 91.97505926457234,117.39128530377639 92.12352141086012,118.30876023464953 92.08640587422997,119.70681325695477 91.97505926457234,120.44952695292886 92.01217480120249,120.93010567410965 92.01217480120249,121.54175049066544 92.08640587422997,121.97863907707506 92.23486802051775,124.20676350328722 92.1977524838876,124.77471481877728 92.27198355738074,125.08053442646633 92.1977524838876,125.82323822201579 92.27198355738074,126.26012216854724 92.34621463040821,127.8329004557163 92.53179231309332,128.75035162302083 92.30909909377806,130.97843862249283 92.53179231309332,132.94438751370762 92.53179231309332,135.12876392676844 92.64313892298378,135.9151365380676 92.5689078499563,136.43938409365364 92.60602338658646,137.09469257929595 92.5689078499563,137.35681567538995 92.38333016703837,137.53156431144453 91.56678836210631,137.70631287174183 90.41620672843419,137.66262573868153 90.15639797248878,137.5752514586784 89.7852426066529,137.61893860108103 89.37697170418687,137.5752514586784 89.00581633858383,137.48787715955405 87.7067725583911,137.31312850455288 86.77888414403424,137.09469257929595 85.33137821755372,137.00731817618362 84.25502765690908,137.00731817618362 83.62406353512779,136.87625653587747 80.72905168216676,136.48307135910727 79.72693219454959,136.48307135910727 77.12884463439696,136.13357310259016 76.49788051261567,136.26463498422527 75.60710763465613,136.26463498422527 74.75345029355958,136.3520095484273 73.52863758662716,136.3083222687419 72.48940256261267,136.0025111780269 72.00690058688633,135.78407454272383" stroke="#4dd2ff" stroke-linecap="round" stroke-linejoin="round" stroke-width="0.5"><title>2024-07-27 5.1km</title><desc>11997575827</desc></polyline><polyline fill="none" points="142.75,103.19790729880333 102.25,131.80209270119667" stroke="#4dd2ff" stroke-linecap="round" stroke-linejoin="round" stroke-width="0.5"><title>2024-05-09 8.0km</title><desc>9223370321595310162</desc></polyline><polyline fill="none" points="147.25,111.22715498134494 155.77631579339504,114.99086439795792 150.4473684206605,108.7180146900937 173.894736841321,122.51827956177294 187.75,126.2819853099063 179.22368421405554,125.0274168625474 150.4473684206605,120.00914171803743" stroke="#4dd2ff" stroke-linecap="round" stroke-linejoin="round" stroke-width="0.5"><title>2024-05-08 6.2km</title><desc>9223370321684028463</desc></polyline><polyline fill="none" points="32.50000002980232,162.25 26.244399935007095,202.75 38.755600079894066,188.02273286134005 38.755600079894066,191.70455024763942" stroke="#4dd2ff" stroke-linecap="round" stroke-linejoin="round" stroke-width="0.5"><title>2024-05-07 6.1km</title><desc>9223370321771754451</desc></polyline><polyline fill="none" points="117.58488619327545,162.25 142.16045525670052,202.75 102.83954474329948,202.75" stroke="#4dd2ff" stroke-linecap="round" stroke-linejoin="round" stroke-width="0.5"><title>2024-05-02 6.8km</title><desc>9223370322200251369</desc></polyline><polyline fill="none" points="147.25,186.60979942325503 187.75,178.39020057674497 175.18103448301554,183.32196042127907 186.3534482717514,186.60979942325503" stroke="#4dd2ff" stroke-linecap="round" stroke-linejoin="round" stroke-width="0.5"><title>2024-04-30 5.3km</title><desc>9223370322373916531</desc></polyline><polyline fill="none" points="12.25,244.68472626793664 13.972047243732959,246.56166023784317 17.41614173189737,245.8108872602461 18.75551181100309,246.86196920106886 33.29724409431219,234.32395923056174 48.92322834627703,234.47411638125777 51.98464566911571,237.55233079823665 52.62244094465859,255.94625380076468 48.92322834627703,260.3006620311644 31.128740157466382,260.4508135509677 28.13110236194916,258.64899316593073 18.309055117657408,258.1985373374773 17.735039369901642,248.51366617128951 20.3499999998603,245.1351908846409 33.488582676742226,234.32395923056174 48.73188976361416,234.47411638125777 51.665748031577095,237.40217431494966 52.62244094465859,241.00592093379237 52.23976377933286,257.07239648437826 48.47677165316418,260.6009650378837 31.57519685011357,260.6009650378837 28.51377952727489,258.7240691089537 17.543700787005946,257.74808121594833 18.117716534994543,247.7628953094245 32.40433070831932,234.69935204647481 49.36968503892422,234.62427349953214 52.62244094465859,238.82865959370974 52.30354330688715,255.2705673117889 51.92086614132859,257.4477769721998 48.604330708505586,260.52588929852936 31.57519685011357,260.3757377950242 28.13110236194916,258.5739172147005 18.436614172998816,258.12346133746905 17.41614173189737,256.39671109378105 17.607480314560235,250.4656666041701 18.117716534994543,247.9881266534212 32.59566929121502,234.84950911585474 48.604330708505586,234.3990378099843 51.98464566911571,237.4772525606677 52.30354330688715,256.99732036248315 48.79566929116845,260.4508135509677 47.13740157475695,260.6009650378837 32.212992125889286,260.67604076943826 28.449999999720603,258.7991450437112 18.500393700553104,258.1985373374773 17.224803149234504,254.1444216988748 17.671259842347354,251.89212498022243 18.69173228321597,251.51674148184247 17.543700787005946,251.291511285468 17.607480314560235,249.78997476940276 20.286220472073182,245.51057784131262 33.105905511649325,234.69935204647481 49.68858267716132,235.14982315682573 52.43110236222856,238.37819087563548 52.558661417337134,255.79610130458605 48.987007873598486,260.0003588940017 31.064960629679263,260.6009650378837 26.217716535320505,258.42376528825844 18.69173228321597,258.1985373374773 17.671259842347354,257.07239648437826 17.479921259684488,250.4656666041701 18.309055117657408,247.46258673683042 32.59566929121502,234.69935204647481 49.050787401385605,234.774430585152 52.23976377933286,238.3031127275899 52.75,244.1591838450986 52.30354330688715,255.49579621461453 49.114566929172724,260.1505104788812 31.001181102124974,260.6009650378837 28.19488188950345,258.64899316593073 18.117716534994543,258.0483853293117 18.309055117657408,247.6878181786742" stroke="#4dd2ff" stroke-linecap="round" stroke-linejoin="round" stroke-width="0.5"><title>2024-04-27 9.8km</title><desc>1714200483443</desc></polyline><polyline fill="none" points="57.25,243.65784849203192 57.883802816970274,245.8214661135571 59.15140845067799,246.71675417444203 61.116197183029726,246.49293226841837 62.57394366199151,245.9706808712217 63.46126760565676,246.71675417444203 65.4260563380085,245.89607349637663 67.64436619728804,244.2547092048917 68.21478873258457,243.35941794147948 69.48239436629228,242.38951775885653 72.65140845091082,239.2559847519151 74.61619718326256,237.4653880575206 77.08802816923708,235.00330999691505 80.57394366222434,234.40644126193365 85.0739436619915,234.48104988213163 86.84859154932201,234.10800670046592 88.49647887330502,234.63026709819678 92.74295774661005,234.70487569412217 94.32746478868648,234.92870143335313 96.92605633824132,237.76382116321474 97.5598591552116,241.49422406993108 97.5598591552116,245.67225132341264 97.5598591552116,250.22328786825528 97.5598591552116,254.55047503806418 96.92605633824132,257.4601200815523 93.8838028172031,260.3697528266348 89.57394366175868,260.5935702206916 85.32746478868648,260.51896443084115 80.44718309887685,260.7427817762946 76.20070422557183,260.51896443084115 74.17253521131352,259.2506647647824 71.19366197171621,258.4299990297877 66.82042253552936,258.4299990297877 63.46126760565676,258.2807869730168 62.89084507059306,257.38551395206014 62.51056338031776,252.75991812895518 62.89084507059306,248.65654097840888 63.714788732584566,247.31361223495333 65.48943661991507,245.29921420686878 67.39084507082589,244.18010164395673 70.81338028167374,241.49422406993108 73.79225352127105,238.5845115375123 76.77112676086836,235.67478670499986 78.54577464796603,234.55565849429695 83.04577464796603,234.70487569412217 86.46830985927954,235.1525270997663 87.48239436629228,234.92870143335313 90.1443661970552,234.70487569412217 93.69366197218187,234.70487569412217 95.2147887328174,235.82400366233196 97.3697183104232,239.03216042008717 97.62323943688534,243.43402559141396 97.3697183104232,247.01518326933729 97.5598591552116,250.67092918162234 97.68661971855909,255.22193267813418 95.7852112678811,258.72842304664664 93.44014084502123,260.668176002393 88.49647887330502,260.7427817762946 85.0105633805506,260.8173875421053 80.89084507059306,260.7427817762946 76.64436619728804,260.668176002393 73.98239436629228,259.1760588293546 72.14436619728804,258.72842304664664 70.49647887353785,258.9522409742349 65.80633802805096,258.5046050461824 63.397887324215844,258.5046050461824 62.44718309864402,257.38551395206014 62.44718309864402,253.0583446038654 63.08098591538146,248.3581125952769 64.8556338029448,246.49293226841837 67.0739436619915,244.47853183862753 69.73591549275443,242.38951775885653 72.58802816900425,239.2559847519151 76.0105633805506,236.2716543400893 78.29225352127105,234.63026709819678 83.23591549322009,234.48104988213163 85.70774647896178,234.70487569412217 87.48239436629228,234.63026709819678 92.36267605633475,234.48104988213163 94.32746478868648,234.85409286170034 97.1795774649363,238.1368623637827 97.68661971855909,240.89736096333945 97.30633802851662,244.702354399662 97.49647887353785,245.74685872264672 97.30633802851662,250.44710856146412 97.24295774661005,255.3711453981232 96.86267605633475,257.53472620312823 94.70774647896178,259.6236943207914 93.56690140860155,260.5935702206916 88.87676056381315,260.668176002393 85.51760563394055,260.5935702206916 81.27112676063552,260.444358632667 76.64436619728804,260.444358632667 73.72887323936448,258.9522409742349 72.14436619728804,258.5792110543698 68.84859154955484,258.3553930053604 64.15845070430078,258.2807869730168 62.827464788919315,257.4601200815523 62.57394366199151,254.0282297540689 62.76408450701274,250.59632231621072 64.8556338029448,246.49293226841837 67.45422535203397,245.0007843679632 69.92605633824132,242.46412551385583 70.55985915497877,241.6434397653211 72.5246478873305,239.85284928168403 74.55281690158881,237.76382116321474 77.6584507045336,235.07791855244432 79.55985915497877,234.63026709819678 82.03169014095329,234.85409286170034 85.20070422557183,234.70487569412217 86.84859154932201,235.07791855244432 90.27112676086836,234.63026709819678 93.56690140860155,234.63026709819678 95.84859154955484,236.4954795697704 97.49647887353785,238.88294415804558 97.3697183104232,243.43402559141396 97.30633802851662,246.7913614604622 97.43309859163128,251.1185702039511 97.3697183104232,255.3711453981232 97.24295774661005,257.0870893530664 95.34154929616489,259.10145288560307 92.1091549298726,260.668176002393 88.49647887330502,260.7427817762946 84.82042253529653,260.7427817762946 81.58802816923708,260.8919932995923 78.92605633847415,260.7427817762946 77.27816901425831,260.7427817762946 74.55281690158881,259.84751195757417 71.82746478891931,258.5792110543698 69.54577464819886,258.2807869730168 66.75704225362279,258.0569688268006 63.65140845067799,258.2807869730168 62.89084507059306,257.60933231632225 62.383802816970274,254.2520492100739 62.827464788919315,252.01385137543548 63.841549295699224,251.64081769547192 63.08098591538146,251.64081769547192 62.76408450701274,249.9248601643485 64.41197183099575,246.8659687381005 65.4260563380085,245.67225132341264 67.13732394389808,244.62774688727222 69.54577464819886,242.6133409991744 71.89084507059306,240.67353716492653 73.91901408461854,238.50990336219547 76.96126760565676,235.60017821425572 78.16549295792356,234.92870143335313 82.34859154932201,234.7794842820149 85.89788732398301,235.07791855244432 86.84859154932201,235.22713563893922 89.82746478891931,234.92870143335313 93.44014084502123,234.7794842820149 96.16549295792356,237.01773815625347 97.5598591552116,240.8227530386066 97.62323943688534,245.22460675914772 97.49647887353785,249.55182535218773 97.43309859163128,253.8044102253043 97.1795774649363,256.78866462485166 93.94718309864402,260.07132952136453 89.63732394366525,260.3697528266348 85.51760563394055,260.29514701251173 81.33450704230927,260.2205411902396 79.05281690158881,260.444358632667 76.13732394366525,260.668176002393 73.2852112678811,258.87763500656 68.97535211290233,258.5046050461824 64.8556338029448,258.4299990297877 63.397887324215844,258.0569688268006 62.827464788919315,257.16169551492203 62.700704225106165,252.98373799724504 62.63732394389808,250.59632231621072 63.144366197288036,248.05968408263288 65.299295774661,246.0452882378595 67.58098591538146,243.7324561093119 70.75000000023283,241.12118468870176 74.23591549298726,238.21147057955386 77.15140845067799,235.3763526933035 78.2288732395973,234.70487569412217 82.47535211290233,234.85409286170034 86.91197183122858,235.1525270997663 90.01760563394055,234.92870143335313 94.01056338031776,235.00330999691505 96.22887323936448,237.24156314315042 97.1795774649363,238.50990336219547 97.49647887353785,241.19579258118756 97.68661971855909,244.32931675750297 97.49647887353785,248.73114805406658 97.49647887353785,252.83452475990634 97.24295774661005,255.5949644173961 96.67253521131352,257.53472620312823 94.58098591561429,259.922117820126 91.98239436652511,260.51896443084115 87.67253521131352,260.668176002393 82.79225352127105,260.5935702206916 79.05281690158881,260.444358632667 76.07394366222434,260.668176002393 74.17253521131352,259.10145288560307 71.1302816902753,258.4299990297877 66.31338028190657,258.2061809322913 63.77816901402548,258.3553930053604 62.827464788919315,257.68393842177466 62.76408450701274,254.99811353744008 62.76408450701274,250.8201428882312 63.46126760565676,247.8358626132831" stroke="#4dd2ff" stroke-linecap="round" stroke-linejoin="round" stroke-width="0.5"><title>2024-04-27 10.1km</title><desc>9223370322649067555</desc></polyline><polyline fill="none" points="122.50000001490116,244.09473817422986 134.0714285671711,244.09473817422986 119.60714285075665,250.9052618239075 102.25,244.09473817422986 142.75,250.9052618239075 110.92857141792774,250.9052618239075" stroke="#4dd2ff" stroke-linecap="round" stroke-linejoin="round" stroke-width="0.5"><title>2024-04-26 5.2km</title><desc>9223370322713802999</desc></polyline></svg>