<?xml version="1.0" encoding="utf-8" ?>
<svg baseProfile="full" height="300mm" version="1.1" viewBox="0,0,200,300" width="200mm" xmlns="http://www.w3.org/2000/svg" xmlns:ev="http://www.w3.org/2001/xml-events" xmlns:xlink="http://www.w3.org/1999/xlink"><defs /><rect fill="#222222" height="300" width="200" x="0" y="0" /><text fill="#FFFFFF" style="font-size:12px; font-family:Arial; font-weight:bold;" x="10" y="20">Over 3km Runs</text><text fill="#FFFFFF" style="font-size:4px; font-family:Arial" x="10" y="280">ATHLETE</text><text fill="#FFFFFF" style="font-size:9px; font-family:Arial" x="10" y="290">L</text><text fill="#FFFFFF" style="font-size:4px; font-family:Arial" x="120" y="280">STATISTICS</text><text fill="#FFFFFF" style="font-size:3px; font-family:Arial" x="120" y="285">Number: 2</text><text fill="#FFFFFF" style="font-size:3px; font-family:Arial" x="120" y="290">Weekly: 2.0</text><text fill="#FFFFFF" style="font-size:3px; font-family:Arial" x="141" y="285">Total: 6.5 km</text><text fill="#FFFFFF" style="font-size:3px; font-family:Arial" x="141" y="290">Avg: 3.3 km</text><text fill="#FFFFFF" style="font-size:3px; font-family:Arial" x="167" y="285">Min: 3.1 km</text><text fill="#FFFFFF" style="font-size:3px; font-family:Arial" x="167" y="290">Max: 3.4 km</text><polyline fill="none" points="85.65217391215265,91.84248486626893 75.21739130467176,80.17355759022757 77.30434782616794,83.24433025671169 75.73913043551147,86.31510125799105 73.65217391215265,88.77171685919166 68.43478260934353,86.31510125799105 69.4782608691603,89.3858705945313 65.82608695887029,90.6141778640449 63.73913043551147,88.77171685919166 59.043478259816766,86.92925525736064 51.739130433648825,88.15756305772811 52.260869566351175,90.00002426188439 50.695652175694704,89.3858705945313 54.34782608598471,91.22833139775321 57.478260869160295,94.29909807257354 66.3478260859847,94.29909807257354 70.5217391308397,91.84248486626893 71.04347826167941,88.77171685919166 68.95652173645794,91.84248486626893 67.39130434766412,89.3858705945313 70.00000000186265,88.15756305772811 81.4782608691603,88.15756305772811 85.65217391215265,89.3858705945313 92.95652174018323,88.77171685919166 94.0,85.70094719016925 91.39130434952676,82.63017585547641 83.56521739251912,78.94524805946276 79.39130434766412,76.48862819373608 73.65217391215265,73.41785186855122 70.5217391308397,84.47263885568827 70.5217391308397,88.15756305772811 67.91304347850382,90.6141778640449 64.78260869532824,90.00002426188439 60.60869565233588,90.6141778640449 55.91304347664118,89.3858705945313 54.86956521682441,93.68494487088174 59.565217392519116,95.52740427618846 55.91304347664118,97.98401588620618 59.565217392519116,98.59816862130538 58.52173912897706,101.66893130354583 55.91304347664118,103.51138811232522 46.0,106.58214813191444 60.08695652149618,96.14155727811158 63.73913043551147,94.29909807257354 62.69565217383206,90.6141778640449 74.17391304299235,94.29909807257354 78.86956521868706,93.68494487088174 82.52173912897706,95.52740427618846 80.43478260748088,97.98401588620618 81.4782608691603,100.44062643079087 84.60869565233588,102.89723590947688 84.60869565233588,105.35384432272986 80.43478260748088,106.58214813191444 72.08695651963353,102.89723590947688 71.56521739065647,99.21232129121199 76.78260869532824,98.59816862130538 79.39130434766412,100.44062643079087 85.65217391215265,98.59816862130538 86.6956521756947,102.2830836395733 82.52173912897706,104.7396923196502 77.82608695700765,104.7396923196502 63.73913043551147,96.14155727811158 55.91304347664118,89.3858705945313 52.260869566351175,88.15756305772811 48.60869565047324,88.77171685919166 50.695652175694704,86.31510125799105 54.86956521682441,87.54340919107199 58.0,86.92925525736064 55.91304347664118,89.3858705945313 51.21739130280912,89.3858705945313 46.0,90.00002426188439 57.478260869160295,90.6141778640449 61.65217391401529,88.77171685919166 64.78260869532824,88.77171685919166 67.39130434766412,91.22833139775321 73.65217391215265,88.15756305772811 76.26086956262589,89.3858705945313 79.39130434766412,89.3858705945313 81.4782608691603,91.22833139775321 84.60869565233588,92.45663826726377 87.73913043551147,91.84248486626893 90.34782608784735,92.45663826726377 93.47826087102294,96.14155727811158 98.69565217383206,99.82647389313206 102.86956521682441,99.21232129121199 106.0,100.44062643079087 101.826086955145,98.59816862130538 94.0,96.75571021391079 97.13043478317559,95.52740427618846 97.65217391215265,99.21232129121199 101.30434782803059,98.59816862130538 101.826086955145,95.52740427618846 104.43478260748088,97.98401588620618 107.56521739251912,98.59816862130538 98.69565217383206,98.59816862130538 102.86956521682441,99.21232129121199 103.91304347850382,97.36986308265477 106.5217391308397,98.59816862130538 109.13043478317559,100.44062643079087 100.26086956448853,103.51138811232522 106.0,101.66893130354583 112.78260869719088,96.14155727811158 110.173913044855,93.07079160166904 110.173913044855,95.52740427618846 104.43478260748088,96.75571021391079 98.69565217383206,96.14155727811158 94.52173912897706,93.68494487088174 84.60869565233588,93.07079160166904 89.30434782803059,93.68494487088174 91.91304347850382,96.75571021391079 97.13043478317559,94.29909807257354 107.56521739251912,93.68494487088174 113.82608695887029,95.52740427618846 120.08695652149618,96.14155727811158 124.26086956635118,96.14155727811158 135.73913043364882,97.36986308265477 146.69565217383206,98.59816862130538 154.0,99.82647389313206 146.69565217383206,99.82647389313206 145.13043478503823,99.82647389313206 138.34782608971,99.82647389313206 132.60869565419853,99.21232129121199 128.43478260934353,99.82647389313206 122.69565217383206,99.82647389313206 120.60869565233588,97.98401588620618 113.82608695887029,96.14155727811158 124.26086956635118,94.91325120860711 128.43478260934353,97.36986308265477 131.0434782616794,96.14155727811158 127.91304348036647,95.52740427618846 129.47826087102294,96.14155727811158 126.86956521868706,97.36986308265477 123.73913043551147,97.36986308265477 127.91304348036647,94.91325120860711 122.69565217383206,96.75571021391079 116.43478260934353,99.82647389313206 109.6521739140153,101.66893130354583 111.73913043551147,102.89723590947688 117.99999999813735,102.2830836395733 117.47826087102294,98.59816862130538 115.39130434766412,97.98401588620618 116.43478260934353,96.75571021391079 120.08695652149618,97.98401588620618 123.73913043551147,101.66893130354583 122.173913044855,103.51138811232522 117.47826087102294,105.35384432272986 110.173913044855,101.05477889953181" stroke="#4dd2ff" stroke-linecap="round" stroke-linejoin="round" stroke-width="0.5"><title>2024-04-24 3.4km</title><desc>9223370322893282018</desc></polyline><polyline fill="none" points="154.0,215.608667653054 55.529411762952805,200.65222194045782 46.0,219.34777806326747 58.70588235557079,204.39133397489786" stroke="#4dd2ff" stroke-linecap="round" stroke-linejoin="round" stroke-width="0.5"><title>2024-04-23 3.1km</title><desc>9223370322979897699</desc></polyline></svg>