<?xml version="1.0" encoding="utf-8" ?>
<svg baseProfile="full" height="300mm" version="1.1" viewBox="0,0,200,300" width="200mm" xmlns="http://www.w3.org/2000/svg" xmlns:ev="http://www.w3.org/2001/xml-events" xmlns:xlink="http://www.w3.org/1999/xlink"><defs /><rect fill="#222222" height="300" width="200" x="0" y="0" /><text fill="#FFFFFF" style="font-size:12px; font-family:Arial; font-weight:bold;" x="10" y="20">Over 3km Runs</text><text fill="#FFFFFF" style="font-size:4px; font-family:Arial" x="10" y="280">ATHLETE</text><text fill="#FFFFFF" style="font-size:9px; font-family:Arial" x="10" y="290">L</text><text fill="#FFFFFF" style="font-size:4px; font-family:Arial" x="120" y="280">STATISTICS</text><text fill="#FFFFFF" style="font-size:3px; font-family:Arial" x="120" y="285">Number: 12</text><text fill="#FFFFFF" style="font-size:3px; font-family:Arial" x="120" y="290">Weekly: 4.0</text><text fill="#FFFFFF" style="font-size:3px; font-family:Arial" x="141" y="285">Total: 61.8 km</text><text fill="#FFFFFF" style="font-size:3px; font-family:Arial" x="141" y="290">Avg: 5.1 km</text><text fill="#FFFFFF" style="font-size:3px; font-family:Arial" x="167" y="285">Min: 3.0 km</text><text fill="#FFFFFF" style="font-size:3px; font-family:Arial" x="167" y="290">Max: 10.1 km</text><polyline fill="none" points="40.00000002980232,33.0 31.65919990837574,87.0 48.34080010652542,67.36364381015301 48.34080010652542,72.27273366227746" stroke="#4dd2ff" stroke-linecap="round" stroke-linejoin="round" stroke-width="0.5"><title>2024-05-07 6.1km</title><desc>9223370321771754451</desc></polyline><polyline fill="none" points="96.40200896561146,60.529449061490595 118.8894529119134,39.3529566694051 116.19095963984728,43.58825882151723 109.89447533339262,43.58825882151723 105.39698654413223,44.6470840703696 102.69849327206612,48.88238392397761 99.10050223767757,52.05885761231184 119.78895067051053,33.0 107.19598205760121,47.82355913333595 80.21104932576418,87.0 108.09547981992364,61.58827247470617" stroke="#4dd2ff" stroke-linecap="round" stroke-linejoin="round" stroke-width="0.5"><title>2024-05-05 4.5km</title><desc>9223370321934722240</desc></polyline><polyline fill="none" points="173.76230002194643,72.60001716949046 158.47085554897785,79.80001014657319 134.00454437732697,87.0 155.41256663948298,54.60002107359469 185.99545561522245,33.0 176.82058891654015,45.60001570545137 153.883422203362,60.0000219438225 155.41256663948298,69.00001950562 149.29598885029554,61.800021851435304 137.0628332644701,79.80001014657319 141.65026661008596,76.2000140491873" stroke="#4dd2ff" stroke-linecap="round" stroke-linejoin="round" stroke-width="0.5"><title>2024-05-04 3.0km</title><desc>9223370322023120704</desc></polyline><polyline fill="none" points="38.76015267521143,128.02705170586705 62.31725176423788,93.0 56.11801516264677,94.45946230459958 28.84137412160635,129.48651021439582 31.32106875628233,138.24325795657933 42.47969464212656,147.0 37.52030535787344,145.54054338950664 26.36167947947979,144.08108661696315 17.68274823576212,141.16217260155827 23.88198483735323,138.24325795657933 26.36167947947979,136.78380039334297" stroke="#4dd2ff" stroke-linecap="round" stroke-linejoin="round" stroke-width="0.5"><title>2024-05-03 5.0km</title><desc>9223370322115228759</desc></polyline><polyline fill="none" points="93.4465149641037,93.0 126.21394035220146,147.0 73.78605967760086,147.0" stroke="#4dd2ff" stroke-linecap="round" stroke-linejoin="round" stroke-width="0.5"><title>2024-05-02 6.8km</title><desc>9223370322200251369</desc></polyline><polyline fill="none" points="146.5,135.8912412840873 133.0,140.43159087374806 187.0,120.00000996515155 179.28571428358555,126.81053914688528 185.07142855972052,113.1894785668701 187.0,99.56840912625194 187.0,101.83858797699213" stroke="#4dd2ff" stroke-linecap="round" stroke-linejoin="round" stroke-width="0.5"><title>2024-05-01 4.0km</title><desc>9223370322286947528</desc></polyline><polyline fill="none" points="22.529411766678095,177.7565357373096 67.0,185.23475372977555 13.0,178.50435790186748 31.423529412597418,174.7652462697588 25.705882351845503,177.00871349312365 30.788235291838646,178.50435790186748 28.8823529407382,175.51306875934824 23.800000000745058,177.7565357373096 28.24705882743001,177.00871349312365 16.81176470592618,178.50435790186748 26.341176468878984,177.00871349312365 38.411764707416296,174.7652462697588 39.68235294148326,175.51306875934824 22.529411766678095,176.26089116605 23.164705883711576,178.50435790186748" stroke="#4dd2ff" stroke-linecap="round" stroke-linejoin="round" stroke-width="0.5"><title>2024-04-30 5.3km</title><desc>9223370322373916531</desc></polyline><polyline fill="none" points="75.183514774777,164.82542821147945 73.58786936290562,166.80260791117325 73.33592534996569,171.7455384080531 73.33592534996569,174.90899986802833 74.17573872487992,177.77587733854307 75.85536547424272,178.962168828235 78.45878693601117,178.6655961004435 80.39035769831389,177.97359269391745 81.56609642319381,178.962168828235 84.16951788496226,177.87473502149805 87.1088646966964,175.69986351864645 87.8646967341192,174.5135677854414 89.54432348394766,173.22841233352665 93.74339035805315,169.07635926676448 96.3468118198216,166.7037490279181 99.62208398152143,163.44139987131348 104.24105754308403,162.65052559110336 110.20373250404373,162.74938491365174 112.55520995333791,162.25508819398237 114.7387247281149,162.94710352655966 120.36547433910891,163.0459628169192 122.46500777639449,163.34254062385298 125.90824261307716,167.0991844960954 126.74805598799139,172.04211338644382 126.74805598799139,177.57816194009501 126.74805598799139,183.60846230742754 126.74805598799139,189.34215354954358 125.90824261307716,193.1975463598501 121.87713841395453,197.05292287439806 116.16640746500343,197.3494896235643 110.53965785400942,197.2506340513355 104.07309486810118,197.54720073612407 98.44634525710717,197.2506340513355 95.75894245738164,195.57008768199012 91.81181959575042,194.48267367540393 86.01710730977356,194.48267367540393 81.56609642319381,194.28496189881116 80.810264385771,193.09869033761788 80.30637636082247,186.96959602768766 80.810264385771,181.53246176289394 81.9020217731595,179.7530289644492 84.25349922245368,177.08387325692456 86.77293934719637,175.6010055996594 91.30793157080188,172.04211338644382 95.2550544324331,168.1866311506601 99.20217729452997,164.33113261673134 101.55365474335849,162.84824422554811 107.51632970478386,163.0459628169192 112.05132192885503,163.63911833422026 113.39502332825214,163.34254062385298 116.92223950242624,163.0459628169192 121.62519440148026,163.0459628169192 123.64074650174007,164.52885088679614 126.49611197598279,168.77978332474595 126.83203732548282,174.61242582235718 126.49611197598279,179.35759898199467 126.74805598799139,184.20160445210058 126.91601866297424,190.23186102911131 124.39657853869721,194.87809710059082 121.28926905151457,197.44834518502466 114.7387247281149,197.54720073612407 110.1197511665523,197.64605627651326 104.66096423054114,197.54720073612407 99.03421461908147,197.44834518502466 95.50699844490737,195.47123191691935 93.07153965812176,194.87809710059082 90.88802488381043,195.1746645567473 84.6734059099108,194.58152954786783 81.48211508616805,194.58152954786783 80.22239502379671,193.09869033761788 80.22239502379671,187.36502270988422 81.06220839824528,181.137032552273 83.41368584753945,178.6655961004435 86.3530326592736,175.99643721064785 89.8802488334477,173.22841233352665 93.65940902009606,169.07635926676448 98.1944012446329,165.12200543965446 101.21772939385846,162.94710352655966 107.76827371725813,162.74938491365174 111.04354587895796,163.0459628169192 113.39502332825214,162.94710352655966 119.86158631416038,162.74938491365174 122.46500777639449,163.24368136556586 126.24416796304286,167.59347859077388 126.91601866297424,171.25124656409025 126.4121306380257,176.29301080625737 126.66407465049997,177.67701964481967 126.4121306380257,183.90503342816373 126.32814930053428,190.42957368452335 125.82426127558574,193.29640237172134 122.96889580134302,196.06436634721467 121.45723172649741,197.3494896235643 115.2426127535291,197.44834518502466 110.79160186648369,197.3494896235643 105.16485225502402,197.15177846810548 99.03421461908147,197.15177846810548 95.17107309494168,195.1746645567473 93.07153965812176,194.6803854093887 88.70451010903344,194.38381779240444 82.48989113559946,194.28496189881116 80.72628304874524,193.1975463598501 80.39035769831389,188.65015824319562 80.64230171078816,184.10274745471543 83.41368584753945,178.6655961004435 86.85692068422213,176.68844211735995 90.13219284638762,173.32727050967515 90.97200622130185,172.23982998443535 93.5754276830703,169.86722797498805 96.26283048233017,167.0991844960954 100.37791601894423,163.5402591082384 102.89735614322126,162.94710352655966 106.17262830492109,163.24368136556586 110.37169517902657,163.0459628169192 112.55520995333791,163.5402591082384 117.09020217787474,162.94710352655966 121.45723172649741,162.94710352655966 124.48055987618864,165.41858257132117 126.66407465049997,168.582065975992 126.49611197598279,174.61242582235718 126.4121306380257,179.0610263829003 126.58009331300855,184.79474621103145 126.49611197598279,190.42957368452335 126.32814930053428,192.70326614117948 123.80870917625725,195.37237614073092 119.52566096466035,197.44834518502466 114.7387247281149,197.54720073612407 109.86780715407804,197.54720073612407 105.58475894294679,197.74491180595942 102.05754276877269,197.54720073612407 99.8740279939957,197.54720073612407 96.26283048233017,196.36093341797823 92.65163297066465,194.6803854093887 89.62830482143909,194.28496189881116 85.93312597228214,193.98839415301336 81.81804043566808,194.28496189881116 80.810264385771,193.3952583723585 80.13841368583962,188.94672772457125 80.72628304874524,185.98102857201593 82.06998444814235,185.4867444424308 81.06220839824528,185.4867444424308 80.64230171078816,183.21303399681346 82.82581648556516,179.15988392662257 84.16951788496226,177.57816194009501 86.43701399723068,176.19415295158979 89.62830482143909,173.52498682925943 92.73561430815607,170.95467132888734 95.42301710741594,168.0877724175807 99.45412130653858,164.23227346577914 101.04976671887562,163.34254062385298 106.5925349923782,163.14482209668495 111.29548989143223,163.5402591082384 112.55520995333791,163.73797754949192 116.50233281543478,163.34254062385298 121.28926905151457,163.14482209668495 124.90046656318009,166.1105955039966 126.74805598799139,171.15238816296915 126.83203732548282,176.98501548793865 126.66407465049997,182.71874836704228 126.58009331300855,188.3535886654863 126.24416796304286,192.30784177337773 121.96111975098029,196.65750039211707 116.25038880249485,197.05292287439806 110.79160186648369,196.95406726998044 105.24883359251544,196.8552116547362 102.22550544375554,197.15177846810548 98.36236391915008,197.44834518502466 94.58320373296738,195.0758087488357 88.87247278401628,194.58152954786783 83.41368584753945,194.48267367540393 81.48211508616805,193.98839415301336 80.72628304874524,192.80212220625253 80.55832037329674,187.26616605534218 80.47433903627098,184.10274745471543 81.1461897357367,180.7416031699977 84.00155520997941,178.07245035551023 87.02488335920498,175.0078578616376 91.22395023377612,171.54782170249382 95.84292379487306,167.69233737746254 99.70606531854719,163.93569594807923 101.13374805636704,163.0459628169192 106.76049766736105,163.24368136556586 112.63919129129499,163.63911833422026 116.75427682744339,163.34254062385298 122.04510108893737,163.44139987131348 124.98444790067151,166.40717231394956 126.24416796304286,168.0877724175807 126.66407465049997,171.6466800607741 126.91601866297424,175.79872142663226 126.66407465049997,181.63131903891917 126.66407465049997,187.06845271441853 126.32814930053428,190.7261425871984 125.57231726311147,193.29640237172134 122.80093312636018,196.4597890865989 119.3576982896775,197.2506340513355 113.6469673407264,197.44834518502466 107.18040435481817,197.3494896235643 102.22550544375554,197.15177846810548 98.27838258212432,197.44834518502466 95.75894245738164,195.37237614073092 91.72783825872466,194.48267367540393 85.34525660984218,194.18610599415842 81.98600311018527,194.38381779240444 80.72628304874524,193.49411436275113 80.64230171078816,189.93529196555028 80.64230171078816,184.39931841479847 81.56609642319381,180.44503102090675 79.71850699884817,177.57816194009501 79.80248833587393,172.93183774146019 79.88646967336535,170.75695445179008" stroke="#4dd2ff" stroke-linecap="round" stroke-linejoin="round" stroke-width="0.5"><title>2024-04-27 10.1km</title><desc>9223370322649067555</desc></polyline><polyline fill="none" points="160.0,175.4596509002149 175.42857141792774,175.4596509002149 156.1428571343422,184.5403490997851 133.0,175.4596509002149 187.0,184.5403490997851 144.5714285671711,184.5403490997851" stroke="#4dd2ff" stroke-linecap="round" stroke-linejoin="round" stroke-width="0.5"><title>2024-04-26 5.2km</title><desc>9223370322713802999</desc></polyline><polyline fill="none" points="42.57142857462168,261.1883233534172 67.0,218.81167664658278 59.28571428358555,218.81167664658278 52.857142858207226,221.8385842423886 46.4285714328289,223.3520377986133 34.857142858207226,223.3520377986133 20.71428571641445,233.9462080867961 15.571428567171097,244.54037034139037 28.428571417927742,247.56727236509323 13.0,240.00001607555896 20.71428571641445,246.05382143799216 29.71428570896387,247.56727236509323 32.28571428358555,250.59417373035103 21.99999999254942,259.6748739015311 25.857142858207226,255.13452455494553 20.71428571641445,252.10762416943908 21.99999999254942,252.10762416943908" stroke="#4dd2ff" stroke-linecap="round" stroke-linejoin="round" stroke-width="0.5"><title>2024-04-25 5.2km</title><desc>9223370322805955311</desc></polyline><polyline fill="none" points="92.82608695607632,240.92124243313447 87.60869565233588,235.0867787951138 88.65217391308397,236.62216512835585 87.86956521775573,238.15755062899552 86.82608695607632,239.38585842959583 84.21739130467176,238.15755062899552 84.73913043458015,239.69293529726565 82.91304347943515,240.30708893202245 81.86956521775573,239.38585842959583 79.52173912990838,238.46462762868032 75.86956521682441,239.07878152886406 76.13043478317559,240.0000121309422 75.34782608784735,239.69293529726565 77.17391304299235,240.6141656988766 78.73913043458015,242.14954903628677 83.17391304299235,242.14954903628677 85.26086956541985,240.92124243313447 85.5217391308397,239.38585842959583 84.47826086822897,240.92124243313447 83.69565217383206,239.69293529726565 85.00000000093132,239.07878152886406 90.73913043458015,239.07878152886406 92.82608695607632,239.69293529726565 96.47826087009162,239.38585842959583 97.0,237.85047359508462 95.69565217476338,236.3150879277382 91.78260869625956,234.47262402973138 89.69565217383206,233.24431409686804 86.82608695607632,231.7089259342756 85.26086956541985,237.23631942784414 85.26086956541985,239.07878152886406 83.95652173925191,240.30708893202245 82.39130434766412,240.0000121309422 80.30434782616794,240.30708893202245 77.95652173832059,239.69293529726565 77.4347826084122,241.84247243544087 79.78260869625956,242.76370213809423 77.95652173832059,243.9920079431031 79.78260869625956,244.2990843106527 79.26086956448853,245.83446565177292 77.95652173832059,246.7556940561626 73.0,248.29107406595722 80.04347826074809,243.0707786390558 81.86956521775573,242.14954903628677 81.34782608691603,240.30708893202245 87.08695652149618,242.14954903628677 89.43478260934353,241.84247243544087 91.26086956448853,242.76370213809423 90.21739130374044,243.9920079431031 90.73913043458015,245.22031321539544 92.30434782616794,246.44861795473844 92.30434782616794,247.67692216136493 90.21739130374044,248.29107406595722 86.04347825981677,246.44861795473844 85.78260869532824,244.606160645606 88.39130434766412,244.2990843106527 89.69565217383206,245.22031321539544 92.82608695607632,244.2990843106527 93.34782608784735,246.14154181978665 91.26086956448853,247.3698461598251 88.91304347850382,247.3698461598251 81.86956521775573,243.0707786390558 77.95652173832059,239.69293529726565 76.13043478317559,239.07878152886406 74.30434782523662,239.38585842959583 75.34782608784735,238.15755062899552 77.4347826084122,238.771704595536 79.0,238.46462762868032 77.95652173832059,239.69293529726565 75.60869565140456,239.69293529726565 73.0,240.0000121309422 78.73913043458015,240.30708893202245 80.82608695700765,239.38585842959583 82.39130434766412,239.38585842959583 83.69565217383206,240.6141656988766 86.82608695607632,239.07878152886406 88.13043478131294,239.69293529726565 89.69565217383206,239.69293529726565 90.73913043458015,240.6141656988766 92.30434782616794,241.22831913363189 93.86956521775573,240.92124243313447 95.17391304392368,241.22831913363189 96.73913043551147,243.0707786390558 99.34782608691603,244.91323694656603 101.4347826084122,244.606160645606 103.0,245.22031321539544 100.9130434775725,244.2990843106527 97.0,243.3778551069554 98.5652173915878,242.76370213809423 98.82608695607632,244.606160645606 100.6521739140153,244.2990843106527 100.9130434775725,242.76370213809423 102.21739130374044,243.9920079431031 103.78260869625956,244.2990843106527 99.34782608691603,244.2990843106527 101.4347826084122,244.606160645606 101.95652173925191,243.6849315413274 103.26086956541985,244.2990843106527 104.5652173915878,245.22031321539544 100.13043478224427,246.7556940561626 103.0,245.83446565177292 106.39130434859544,243.0707786390558 105.0869565224275,241.53539580083452 105.0869565224275,242.76370213809423 102.21739130374044,243.3778551069554 99.34782608691603,243.0707786390558 97.26086956448853,241.84247243544087 92.30434782616794,241.53539580083452 94.6521739140153,241.84247243544087 95.95652173925191,243.3778551069554 98.5652173915878,242.14954903628677 103.78260869625956,241.84247243544087 106.91304347943515,242.76370213809423 110.04347826074809,243.0707786390558 112.13043478317559,243.0707786390558 117.86956521682441,243.6849315413274 123.34782608691603,244.2990843106527 127.0,244.91323694656603 123.34782608691603,244.91323694656603 122.56521739251912,244.91323694656603 119.173913044855,244.91323694656603 116.30434782709926,244.606160645606 114.21739130467176,244.91323694656603 111.34782608691603,244.91323694656603 110.30434782616794,243.9920079431031 106.91304347943515,243.0707786390558 112.13043478317559,242.45662560430355 114.21739130467176,243.6849315413274 115.5217391308397,243.0707786390558 113.95652174018323,242.76370213809423 114.73913043551147,243.0707786390558 113.43478260934353,243.6849315413274 111.86956521775573,243.6849315413274 113.95652174018323,242.45662560430355 111.34782608691603,243.3778551069554 108.21739130467176,244.91323694656603 104.82608695700765,245.83446565177292 105.86956521775573,246.44861795473844 108.99999999906868,246.14154181978665 108.73913043551147,244.2990843106527 107.69565217383206,243.9920079431031 108.21739130467176,243.3778551069554 110.04347826074809,243.9920079431031 111.86956521775573,245.83446565177292 111.0869565224275,246.7556940561626 108.73913043551147,247.67692216136493 105.0869565224275,245.5273894497659" stroke="#4dd2ff" stroke-linecap="round" stroke-linejoin="round" stroke-width="0.5"><title>2024-04-24 3.4km</title><desc>9223370322893282018</desc></polyline><polyline fill="none" points="187.0,242.804333826527 137.7647058814764,235.3261109702289 133.0,244.67388903163373 139.3529411777854,237.19566698744893" stroke="#4dd2ff" stroke-linecap="round" stroke-linejoin="round" stroke-width="0.5"><title>2024-04-23 3.1km</title><desc>9223370322979897699</desc></polyline></svg>