<?xml version="1.0" encoding="utf-8" ?>
<svg baseProfile="full" height="300mm" version="1.1" viewBox="0,0,200,300" width="200mm" xmlns="http://www.w3.org/2000/svg" xmlns:ev="http://www.w3.org/2001/xml-events" xmlns:xlink="http://www.w3.org/1999/xlink"><defs /><rect fill="#222222" height="300" width="200" x="0" y="0" /><text fill="#FFFFFF" style="font-size:12px; font-family:Arial; font-weight:bold;" x="10" y="20">Over 5km Runs</text><text fill="#FFFFFF" style="font-size:4px; font-family:Arial" x="10" y="280">ATHLETE</text><text fill="#FFFFFF" style="font-size:9px; font-family:Arial" x="10" y="290">L</text><text fill="#FFFFFF" style="font-size:4px; font-family:Arial" x="120" y="280">STATISTICS</text><text fill="#FFFFFF" style="font-size:3px; font-family:Arial" x="120" y="285">Number: 14</text><text fill="#FFFFFF" style="font-size:3px; font-family:Arial" x="120" y="290">Weekly: 2.3</text><text fill="#FFFFFF" style="font-size:3px; font-family:Arial" x="141" y="285">Total: 87.9 km</text><text fill="#FFFFFF" style="font-size:3px; font-family:Arial" x="141" y="290">Avg: 6.3 km</text><text fill="#FFFFFF" style="font-size:3px; font-family:Arial" x="167" y="285">Min: 5.0 km</text><text fill="#FFFFFF" style="font-size:3px; font-family:Arial" x="167" y="290">Max: 10.1 km</text><polyline fill="none" points="42.440169878769666,32.540266740950756 43.19482036214322,32.68053343644715 43.94947084528394,32.727288991358364 48.00075238710269,32.493511165637756 48.35821840562858,32.540266740950756 48.63624753104523,32.86755562588223 48.75540287070908,34.3637302229763 48.71568442392163,35.20532615319826 48.83483976358548,36.00016524636885 48.99371354933828,36.65473751723766 48.87455820990726,37.2625537365675 48.91427665646188,38.47818360553356 48.83483976358548,38.852222876041196 48.91427665646188,39.13275211601285 48.99371354933828,40.53539557932527 48.99371354933828,41.79777079663472 49.1923057816457,42.9198789994698 49.152587335323915,43.76145823596744 49.23202422843315,44.64979009324452 49.152587335323915,45.023824012168916 49.27174267475493,45.865399144007824 49.1923057816457,46.80048069791519 49.27174267475493,47.40828262112336 49.351179567631334,48.857652981881984 49.31146112107672,49.88623544492293 49.5100533538498,51.14858329753042 49.47033490729518,52.27066717634443 49.5894902467262,53.57976134622004 49.5100533538498,54.04729401561781 49.629208693280816,55.917419625853654 49.549771800171584,57.366761397366645 49.6689271396026,58.25506523766671 49.6689271396026,59.0498618602287 49.748364032711834,61.01347076729871 49.70864558615722,62.18228134975652 49.86751937214285,62.64980469603324 49.748364032711834,63.49134544242406 49.94695626501925,65.40818212588783 49.90723781846464,66.48347702418687 49.98667471157387,67.18475486178068 49.94695626501925,67.88603155934834 50.026393157895654,68.26004533207742 49.98667471157387,70.1768608278071 50.026393157895654,70.83138124164543 50.10583005123772,71.29889521494624 50.1455484975595,73.26244837103877 50.224985390435904,73.9637151894567 50.0661116046831,75.1792416414246 49.94695626501925,75.31949447328225 49.5894902467262,75.45974725947599 47.96103394054808,75.60000000000582 46.729762099683285,75.45974725947599 46.054548509186134,75.1792416414246 45.061587346950546,75.2259925903636 43.234538808697835,74.89873584106681 42.00326696760021,74.85198485667934 39.8584708571434,74.57147884354345 38.269732997519895,74.5247278236493 35.171694171382114,74.01046627026517 33.66239320486784,73.6832085987844 32.43112136377022,73.49620410380885 31.676470880629495,73.44945296732476 30.882101950701326,73.54295523511246 29.531674770172685,73.44945296732476 28.935898073017597,73.35595067922259 26.94997574831359,73.30919952777913 26.592509730020538,73.21569720917614 25.917296139523387,72.93519013217883 23.216441778466105,72.65468287287513 22.38235440221615,72.46767793185427 21.03192722168751,72.37417543126503 18.13248062808998,71.90666262301966 17.93388839554973,71.7664086818113 17.775014609564096,71.53265201163595 17.814733056118712,71.11188968649367 18.092762181535363,69.80284871684853 18.172199074644595,68.72756209180807 18.3310728603974,67.97953503308236 18.3310728603974,67.04449938549078 18.370791306952015,66.76398829606478 18.3310728603974,66.24971749156248 18.450228199828416,65.22117404386518 18.569383539259434,64.00561953507713 19.00628645066172,62.7433093044383 19.40347091574222,60.59269818261964 19.68150004092604,59.84465701840236 19.840373827144504,59.00310915830778 20.197839845437557,58.39532357166172 20.396432077744976,57.69403144612443 20.674461203161627,57.366761397366645 20.63474275683984,57.17974982957821 20.674461203161627,56.945985255617416 20.83333498914726,56.384949761559255 21.071645668242127,55.77716048620641 21.23051945399493,55.075864104379434 21.587985472520813,54.37456658264273 21.945451490813866,53.3459948215459 22.30291750933975,52.69144787843106 22.541228188201785,51.89663954108255 23.017849546158686,50.774554689240176 23.137004885589704,50.26026482335874 23.613626243313774,49.13817571505206 24.209402940701693,47.96932979000849 24.44771361956373,47.78231414820766 25.12292720982805,47.08100476895925 25.639267014339566,46.286186094162986 26.552791283698753,44.69654435085249 26.791101962560788,44.18224723849562 27.228004873963073,43.52768639053102 27.54575244570151,42.686106697976356 27.82378157111816,42.35882526286878 28.459276715060696,41.189960968040396 28.856461179675534,40.72241436326294 29.134490305325016,40.06784826502553 29.611111663049087,39.36652634324855 31.319004862336442,36.187185996474 31.795626219827682,35.48585776507389 32.2325291314628,34.69101772442809 32.8680242751725,33.75590991877834 33.66239320486784,32.9143111606536 34.13901456282474,32.774044541234616 38.54776212316938,32.68053343644715 38.944946587784216,32.540266740950756 42.559325218200684,32.493511165637756 43.35369414812885,32.39999999999418 45.8162378303241,32.540266740950756 48.15962617308833,32.39999999999418 48.51709219161421,32.68053343644715 48.71568442392163,33.14808875817107 48.75540287070908,33.75590991877834 48.71568442392163,34.41048559572664 48.99371354933828,36.70149264141219 48.87455820990726,37.21579867310356 49.07315044244751,39.88082919732551 48.99371354933828,40.44188615711755 49.07315044244751,40.81592372464365 49.0334319958929,41.563997886987636 49.27174267475493,42.49908876547124 49.1923057816457,43.24716000875924 49.1923057816457,44.27575585004524 49.39089801418595,46.19267791847233 49.351179567631334,46.51995644465205 49.39089801418595,47.03425076970598 49.31146112107672,47.78231414820766 49.430616460740566,50.26026482335874 49.39089801418595,50.86806187170441 49.430616460740566,51.475858063669875 49.39089801418595,51.990146480326075 49.629208693280816,54.42131978610996 49.629208693280816,54.79534523238544 49.5100533538498,55.40313589107245 49.5894902467262,56.15118475689087 49.549771800171584,56.57196167402435 49.430616460740566,57.46026715092012 49.6689271396026,58.30181802081643 49.5894902467262,58.956356451206375 49.70864558615722,59.93816223490285 49.827800925588235,62.69655700281146 49.94695626501925,63.16407979169162 49.86751937214285,63.818610844929935 50.026393157895654,64.89390970533714 50.10583005123772,65.82895001399447 49.94695626501925,66.71723643012228 50.0661116046831,68.4003004131664 49.94695626501925,69.3820847045281 49.90723781846464,71.15864107618108 50.0661116046831,72.37417543126503 50.026393157895654,72.79493652534438 50.1455484975595,74.57147884354345 50.1455484975595,75.13249068745063 49.90723781846464,75.4129963357409 49.1923057816457,75.5064981780306 47.76244170824066,75.55324909143383 43.83031550585292,75.03898876413587 42.32101453933865,74.7117318729579 39.540723285172135,74.57147884354345 36.48240290558897,74.10396841648617 34.099296116270125,73.91696410387522 33.26520874002017,73.72995970997727 32.550276703434065,73.72995970997727 31.477878648089245,73.54295523511246 31.080694183241576,73.58970636152662 30.326043699868023,73.44945296732476 29.452237877063453,73.40270182586391 28.975616519339383,73.26244837103877" stroke="#4dd2ff" stroke-linecap="round" stroke-linejoin="round" stroke-width="0.5"><title>2024-08-05 5.0km</title><desc>12068639381</desc></polyline><polyline fill="none" points="107.43915647058748,32.63352515612496 109.9783885460347,32.40000000002328 111.20832908246666,32.68023017220548 111.72411059774458,32.58682013495127 112.47794512007385,32.58682013495127 113.15242864005268,32.49341007764451 114.30301817436703,32.58682013495127 114.46172017906792,32.68023017220548 114.5807466825936,32.96046016208129 114.5807466825936,34.26819770524162 114.81879968964495,35.342407717806054 114.85847519082017,36.08968266885495 114.93782619293779,36.65013803137117 114.8981506919954,37.39741071438766 114.97750169434585,38.05127324874047 114.8981506919954,38.891952192090685 114.97750169434585,39.452403909759596 114.8981506919954,39.73262949529453 114.85847519082017,40.57330515817739 114.93782619293779,43.09532230588957 115.0568526966963,44.16951031220378 115.0568526966963,44.87006626470247 115.2155547013972,45.94424984671059 115.29490570374765,47.39205826350371 115.25523020233959,48.41953225340694 115.17587920022197,48.79315855144523 115.13620369904675,49.5871133589244 115.3742567060981,53.79037914413493 115.532958710799,54.39751414640341 115.57263421197422,54.91124309564475 115.45360770844854,56.17221155628795 115.49328320962377,56.68593838982633 115.3742567060981,57.52658097821404 115.45360770844854,58.60073301018565 115.41393220727332,59.58147817940335 115.532958710799,60.60892310543568 115.532958710799,61.262750419205986 115.73133621667512,62.94401609964552 115.73133621667512,65.09229047948611 115.96938922372647,65.60600667929975 116.12809122842737,66.25982641160954 116.00906472490169,66.35322914947756 115.85036272020079,66.82024253555574 115.77101171785034,67.89437140253722 115.92971372255124,69.06189974327572 115.81068721902557,70.50963049306301 115.85036272020079,71.30354529092438 116.12809122842737,73.26497558050323 116.12809122842737,74.80609311693115 116.00906472490169,75.17969653831096 115.85036272020079,75.36649812755059 115.61230971291661,75.50659926628578 113.66821015556343,75.45989889171324 112.79534912970848,75.36649812755059 112.35891861654818,75.17969653831096 111.84313710127026,75.0862957133213 100.53561926586553,73.91878369331243 99.62308273883536,73.63858033786528 99.26600322825834,73.68528090970358 98.23444019746967,74.01218477121438 97.52028117631562,74.10558582897647 95.93326112930663,73.49847859173315 93.43370455526747,73.17157434052206 92.40214152471162,72.93807115219533 91.33090299274772,72.84466984140454 89.86290944926441,72.79796917844214 89.30745243281126,72.6111664758646 87.60140588204376,72.33096227032365 86.49049184913747,72.14415936538717 85.41925331717357,72.09745862640557 84.86379630095325,71.91065562021686 84.1893127807416,71.86395485608955 83.87190877157263,71.58375016460195 83.87190877157263,71.11674194072839 84.14963727979921,70.4629295769555 84.38769028661773,69.62231222342234 84.30833928450011,67.14715160455671 84.38769028661773,66.1197222667688 84.54639229155146,64.81208138505463 84.54639229155146,64.39176740197581 84.6257432939019,63.64454153081169 84.86379630095325,63.224226408754475 85.02249830565415,62.80391087685712 85.65730632445775,59.34796762719634 85.93503483268432,58.46062637527939 86.25243884208612,57.94690165744396 86.45081634796225,57.05955752043519 86.49049184913747,56.779343202884775 86.6888693550136,56.125509086443344 87.20465087029152,55.00464829339762 87.44270387734286,54.63102738102316 87.91880989144556,53.229946074890904 88.39491590578109,52.29588933996274 88.79167091753334,51.22172159180627 89.02972392458469,50.054144915397046 89.26777693163604,49.63381653727265 89.82323394808918,48.839861815824406 90.14063795749098,48.51293885827181 90.81512147770263,47.11183765917667 91.48960499768145,46.17776766215684 94.22721457877196,41.55409135855734 95.25877760932781,40.10626332566608 95.61585711990483,39.2655867516296 96.76644665398635,37.444115213962505 97.1632016657386,36.88366088405019 97.5996321788989,35.809454714064486 97.79800968477502,35.482521869882476 97.99638719041832,35.0154745192267 98.98827472003177,33.707739244244294 99.26600322825834,33.240689969738014 99.38502973178402,33.10057508878526 100.05951325176284,32.86705018568318 101.17042728466913,32.773640189145226 101.7655598022975,32.86705018568318 103.6303083577659,32.91375517647248 104.8602488944307,32.58682013495127 105.37603040947579,32.58682013495127 106.40759344003163,32.82034518994624 106.92337495530955,32.68023017220548 107.91526248469017,32.54011510888813 109.85936204227619,32.54011510888813 110.37514355778694,32.58682013495127 111.00995157659054,32.54011510888813 112.12086560949683,32.58682013495127 112.95405113440938,32.49341007764451 114.26334267295897,32.54011510888813 114.46172017906792,32.63352515612496 114.69977318611927,32.96046016208129 114.66009768494405,34.26819770524162 114.81879968964495,34.64183627432794 114.77912418846972,34.781950654112734 114.81879968964495,35.202293520240346 114.77912418846972,35.52922657705494 114.97750169434585,36.603433445707196 114.85847519082017,37.30400169987115 114.8981506919954,39.49910818671924 114.93782619293779,39.59251672535902 114.93782619293779,39.96615067720995 115.01717719552107,40.05955911465571 115.01717719552107,40.47989683234482 114.93782619293779,41.273866957752034 115.09652819787152,42.48817137876176 114.97750169434585,43.37554552213987 115.0568526966963,45.15028832684038 115.2155547013972,47.018430750700645 115.17587920022197,47.532168497360544 115.29490570374765,48.09260897693457 115.25523020233959,48.88656507534324 115.3742567060981,49.493706987035694 115.33458120492287,51.92226607914199 115.41393220727332,52.48270084892283 115.3742567060981,54.07059540526825 115.45360770844854,54.67773001285968 115.3742567060981,55.33156632585451 115.49328320962377,56.07880661168019 115.45360770844854,57.52658097821404 115.532958710799,58.41392415345763 115.45360770844854,59.44137186324224 115.57263421197422,60.0952009485045 115.57263421197422,60.982538834708976 115.73133621667512,64.20496105551138 115.69166071549989,64.53187210843316 115.85036272020079,64.81208138505463 115.73133621667512,66.16642365351436 115.81068721902557,67.52076166545157 115.89003822137602,68.12787732374272 115.81068721902557,68.7349921267305 115.89003822137602,69.43550814435002 115.85036272020079,70.69643410650315 115.92971372255124,71.11674194072839 115.85036272020079,71.67715174867772 115.96938922372647,72.28426155165653 116.08841572725214,73.54517917885096 116.00906472490169,75.17969653831096 115.77101171785034,75.45989889171324 113.8269121600315,75.60000000000582 112.83502463065088,75.45989889171324 112.31924311560579,75.22639694312238 111.92248810362071,75.13299612828996 110.57352106366307,75.03959529320127 105.29667940712534,74.38578888081247 104.34446737891994,74.43248937180033 101.84491080464795,74.10558582897647 100.01983775058761,74.05888530271477 99.42470523295924,73.87208314664895 98.15508919535205,73.8253825949505 97.75833418336697,73.73198147644871 94.86202259757556,73.73198147644871 94.18753907759674,73.63858033786528" stroke="#4dd2ff" stroke-linecap="round" stroke-linejoin="round" stroke-width="0.5"><title>2024-08-01 5.0km</title><desc>12035805770</desc></polyline><polyline fill="none" points="174.47988924453966,32.4467555853189 175.472850514343,32.587022311170585 176.34665643190965,32.54026674100896 177.65736530791037,32.72728899132926 180.04047235567123,32.49351116569596 180.47737531433813,32.587022311170585 180.59653066657484,32.77404454132193 180.75540447002277,33.80266535739065 180.71568601904437,35.06506027892465 180.91427827300504,36.51447211406776 180.8348413715139,37.82361410159501 180.99371517449617,39.834074417623924 181.03343362524174,42.1250526572112 181.1128705269657,42.77961563368444 181.1128705269657,44.27575584992883 181.23202587943524,45.53812012099661 181.31146278069355,48.39011468767421 181.43061813316308,49.27843701306847 181.3908996824175,52.36417403433006 181.47033658414148,53.018721473927144 181.51005503488705,54.28106015996309 181.51005503488705,56.52520870330045 181.43061813316308,57.4602671507746 181.5497734856326,58.20831244936562 181.43061813316308,59.79790440236684 181.66892883786932,60.87321328453254 181.78808419057168,62.18228134949459 181.94695799355395,63.070575274236035 181.90723954280838,64.0056195348152 182.06611334602349,64.7536534840765 182.06611334602349,65.36143011282547 181.90723954280838,66.81074015668128 182.0263948950451,69.56909098275355 181.94695799355395,70.22361231865943 181.98667644429952,70.5976240648015 181.94695799355395,70.92488407669589 182.06611334602349,72.23392164186225 182.0263948950451,72.84168773263809 182.14555024751462,73.96371518951491 182.14555024751462,75.13249068730511 181.98667644429952,75.36624540697085 181.70864728884771,75.50649817785597 180.43765686359257,75.60000000000582 179.12694798735902,75.45974725938868 178.25314206979237,75.2259925903636 174.47988924453966,74.80523386711138 173.52664642548189,74.61822985831532 171.5407238858752,74.52472782356199 167.76747106062248,74.10396841639886 166.45676218438894,74.24422159764799 165.5829562668223,74.19747054233449 163.99421823513694,74.33772369334474 163.12041231780313,74.19747054233449 162.20688794949092,74.19747054233449 161.13448977819644,73.96371518951491 159.86349935270846,73.82346191696706 159.14856723858975,73.44945296729566 158.4336351242382,73.3091995275172 157.00377089576796,73.3091995275172 155.65334356878884,72.79493652531528 153.86601328314282,72.56118041256559 151.7609353910666,72.18717036861926 151.4431877846364,72.18717036861926 151.0062848259695,72.04691651862231 150.17219735938124,71.95341392655973 149.933886654675,71.81316000042716 149.8544497527182,71.6729060288053 149.8941682036966,71.20539246062981 150.0530420069117,70.92488407669589 150.13247890863568,70.4106182322721 150.2119158101268,68.68081043849816 150.33107116236351,68.11979020512081 150.33107116236351,65.54843813402113 150.529663416557,65.03416588055552 150.64881876879372,63.95886736997636 150.88712947373278,63.210832042532274 151.04600327671506,62.41604308606475 150.92684792447835,61.76150990475435 150.96656637522392,61.340738049533684 151.1254401782062,60.77970827074023 151.52262468636036,60.1719251871109 152.39643060369417,57.27325562338228 152.6347413084004,56.89923232540605 152.79361511138268,56.19793776786537 153.1113627180457,55.49664207009482 153.23051807028241,55.07586410426302 154.93841145467013,51.24209039864945 155.5341882163193,49.41869826556649 156.01080962573178,48.717391546670115 156.24912033067085,48.20309922823799 156.96405244478956,47.22126673581079 157.48039230518043,46.61346454912564 158.19532441953197,45.164086647942895 158.63222737819888,44.55628156263265 158.59250892722048,44.55628156263265 159.90321780368686,42.26531623583287 160.65786836855114,41.14320633021998 161.29336358141154,39.927583971759304 162.76294626039453,37.54308401030721 163.95449978439137,35.298836710775504 164.94746105419472,33.80266535739065 165.42408246384002,33.24159976170631 166.01985922572203,32.96106669033179 166.41704373364337,32.86755562594044 169.7136751494836,32.72728899132926 170.42860726383515,32.77404454132193 171.50100543512963,32.68053343638894 172.53368515567854,32.72728899132926 173.56636487622745,32.587022311170585 174.83735530171543,32.587022311170585 175.9494719239883,32.39999999999418 176.94243319355883,32.49351116569596 177.41905460320413,32.4467555853189 179.40497714281082,32.49351116569596 180.23906460939907,32.4467555853189 180.5170937650837,32.587022311170585 180.71568601904437,32.96106669033179 180.71568601904437,34.97154967064853 180.91427827300504,36.51447211406776 180.87455982225947,37.16904360457556 180.99371517449617,39.085997255227994 180.99371517449617,39.974338741158135 180.9539967237506,40.20811251242412 181.03343362524174,40.9094330657681 181.03343362524174,42.07829812093405 181.1128705269657,42.77961563368444 181.07315207622014,43.48093200608855 181.1128705269657,44.18224723829189 181.07315207622014,44.50952728991979 181.2717443301808,45.77189087684383 181.19230742845684,47.081004768784624 181.2717443301808,47.73556022485718 181.35118123167194,47.96932978989207 181.31146278069355,48.57713006599806 181.3908996824175,48.9979143710807 181.35118123167194,49.27843701306847 181.47033658414148,49.69922063377453 181.43061813316308,51.429104540642584 181.31146278069355,52.083653399167815 181.3908996824175,53.06547482457245 181.35118123167194,53.579761345958104 181.51005503488705,54.42131978584803 181.47033658414148,55.07586410426302 181.51005503488705,56.66546759958146 181.47033658414148,57.694031445949804 181.5497734856326,58.48882910198881 181.51005503488705,58.86285102178226 181.58949193637818,59.657646524428856 181.58949193637818,60.592698182328604 181.7483657398261,61.527747813554015 181.7483657398261,62.462795418075984 181.66892883786932,63.30433652937063 181.82780264131725,65.12766997239669 181.70864728884771,66.15621364302933 181.86752109206282,67.23150667684968 181.82780264131725,68.02628676200402 181.98667644429952,69.61584253961337 181.86752109206282,70.5976240648015 181.98667644429952,72.56118041256559 181.90723954280838,73.35595067925169 182.14555024751462,74.8987358409795 182.0263948950451,75.27274353441317 181.90723954280838,75.41299633577 181.23202587943524,75.60000000000582 179.24610333959572,75.55324909149203 177.4587730539497,75.2259925903636 176.02890882547945,75.03898876401945 175.51256896508858,75.08573972829618 174.51960769551806,74.80523386711138 174.24157853983343,74.80523386711138 172.25565600022674,74.52472782356199 171.30241318116896,74.52472782356199 168.68099542870186,74.10396841639886 168.16465556854382,74.10396841639886 167.64831570815295,74.15071948192781 166.29788838117383,74.10396841639886 165.66239316854626,74.01046627011965 165.1460533081554,74.01046627011965 164.47083964454941,73.77671081593144 164.0339366858825,73.72995970983175 162.20688794949092,73.91696410364239 161.3330820321571,73.87021301296772 160.06209160666913,73.5897063613811 159.02941188612022,73.63645748252748 158.4336351242382,73.3091995275172" stroke="#4dd2ff" stroke-linecap="round" stroke-linejoin="round" stroke-width="0.5"><title>2024-07-29 5.1km</title><desc>12014148662</desc></polyline><polyline fill="none" points="42.828548966674134,80.6796256066591 43.62034708028659,80.81943834177218 46.23328085523099,80.77283410186647 48.054416516562924,80.58641709122458 48.41072566760704,80.72622985672206 48.64826510171406,81.099063675676 48.727444913005456,81.61170964871417 48.68785500735976,82.73020783168613 48.80662472429685,83.33605979927233 48.80662472429685,84.12832646863535 49.04416415840387,84.96719546845998 48.92539444146678,86.03908125305315 49.04416415840387,86.78473935319926 49.004574252758175,89.53434242101503 49.1629338755738,90.60621681966586 49.1233439699281,92.14411889814073 49.281703592510894,93.86842680818518 49.281703592510894,96.19856164645171 49.32129349792376,97.41022677198634 49.281703592510894,97.7830461236299 49.44006321532652,99.13451356365113 49.519243026617914,101.04520166196744 49.44006321532652,102.02384349747445 49.55883293226361,102.90927942929557 49.479653120972216,104.81995075420127 49.44006321532652,105.19276368143619 49.519243026617914,106.26459904629155 49.479653120972216,106.870417853439 49.67760264920071,108.26845799700823 49.59842283790931,109.61989248168538 49.83596227201633,110.45871174984495 49.91514208330773,111.0179236861295 49.87555217789486,113.16156270517968 49.994321894831955,114.1401769653312 49.83596227201633,115.02558794850484 49.91514208330773,115.53819347379613 49.87555217789486,115.81779623011244 49.95473198918626,116.6566034082789 49.95473198918626,118.24101250281092 50.11309161200188,118.84681443744921 49.95473198918626,120.10501572856447 49.994321894831955,120.89721465282491 50.11309161200188,121.22341378586134 50.07350170612335,122.06221042000107 50.19227142329328,122.94760509213666 50.15268151741475,123.22720303095412 49.994321894831955,123.36700193223078 49.2025237812195,123.60000000000582 47.34179821424186,123.55340039651492 46.82712944038212,123.36700193223078 46.510410194983706,123.41360155594884 42.591009532567114,122.76120636539417 38.98832811554894,122.5282078430755 37.95899056782946,122.38840866921237 36.098265001084656,122.29520919464994 34.67302839644253,122.01561064983252 33.80205047130585,121.92241109450697 33.20820188615471,121.92241109450697 32.77271292358637,122.06221042000107 31.941324904561043,121.96901087477454 31.5454258476384,122.01561064983252 30.47649839427322,122.06221042000107 28.615772827295586,121.64281230728375 28.219873770605773,121.6894121178484 27.30930594005622,121.45641301496653 25.844479429535568,121.40981317916885 25.05268131592311,121.13021405882319 24.30047310795635,121.03701431155787 23.82539423997514,120.80401485523907 23.389905277406797,120.71081503730966 20.697791691171005,120.38461551559158 20.10394310601987,120.24481564483722 18.441167067270726,120.10501572856447 18.243217539042234,120.05841574646183 17.926498293643817,119.82541575975483 17.80772857647389,119.40601546582184 17.926498293643817,118.75361419536057 18.282807444687933,118.00801153152133 18.441167067270726,117.40220841523842 18.480756973149255,116.56340269150678 18.401577161625028,115.91099710852723 18.441167067270726,115.35179153541685 18.282807444687933,114.27997882067575 18.520346878562123,112.69555513173691 19.668454143451527,108.59466670977417 19.945583483204246,107.15002624579938 20.460252257063985,105.79858399851946 20.776971502462402,104.58694251065026 21.133280653739348,104.02772221076884 22.004258578643203,101.74423177185236 22.360567729687318,100.25296616379637 22.716876880964264,99.693740227347 23.3107254661154,98.34227454510983 23.82539423997514,96.80439463601215 24.10252357972786,96.33836933513521 24.656782259233296,95.68593306545517 25.448580372845754,94.3810575560783 26.359148203395307,93.07617808651412 26.952996788779274,91.95770681774593 27.586435279576108,91.02564520464512 28.219873770605773,89.67415227679885 28.932492072694004,88.83529246062972 29.48675075219944,87.76341364704422 30.357728677336127,86.55172133582528 30.951577262487262,85.52644055901328 31.585015753516927,84.08172258743434 31.941324904561043,83.70889135499601 32.17886433843523,83.2894558319822 32.614353301236406,82.21756319241831 32.8123028294649,81.8447303433204 33.24779179180041,81.33208464822383 33.56451103719883,81.05245946595096 34.23753943387419,80.81943834177218 35.9399053780362,80.86604257667204 37.840220850659534,80.6796256066591 38.94873821013607,80.77283410186647 41.24495273944922,80.63302135147387 43.026498495135456,80.40000000002328 44.293375476729125,80.53981282605673 45.67902217572555,80.53981282605673 45.95615151524544,80.49320855576661 47.935646799393,80.58641709122458 48.17318623350002,80.53981282605673 48.56908529018983,80.77283410186647 48.64826510171406,81.05245946595096 48.68785500735976,81.37868882756447 48.60867519606836,82.31077135418309 48.88580453582108,83.61568349634763 48.88580453582108,84.22153421601979 49.04416415840387,84.78078027663287 48.92539444146678,85.43323309443076 48.92539444146678,86.59832494944567 49.004574252758175,87.71681015982176 48.96498434711248,88.50906875685905 49.004574252758175,89.62754899656284 49.1233439699281,90.27999445953174 49.0837540642824,91.21205768894288 49.2025237812195,92.09751588554354 49.1233439699281,93.8218239825801 49.2025237812195,93.96163244420313 49.1629338755738,95.03349580577924 49.242113686865196,95.4529198721284 49.2025237812195,95.965548730921 49.242113686865196,97.08400957411504 49.32129349792376,97.68984131613979 49.40047330968082,99.13451356365113 49.519243026617914,99.92675112263532 49.40047330968082,100.76558929993189 49.44006321532652,101.88403765734984 49.59842283790931,102.86267758361646 49.55883293226361,104.35393414075952 49.44006321532652,105.14616208313964 49.479653120972216,105.65877938573249 49.479653120972216,106.31120052337064 49.55883293226361,106.77721501555061 49.71719255507924,109.15388107017498 49.67760264920071,109.75969580671517 49.756782460724935,110.08590338824433 49.67760264920071,110.87812077015406 49.756782460724935,111.34413031311124 49.83596227201633,113.02176048609545 50.033911800477654,114.00037506455556 49.79637236637063,116.37700119733927 50.033911800477654,118.4740133479645 50.033911800477654,120.80401485523907 50.15268151741475,121.64281230728375 50.07350170612335,122.20200969991856 50.11309161200188,122.90100541792344 50.07350170612335,123.1806033870671 49.87555217789486,123.36700193223078 49.004574252758175,123.55340039651492 47.777287176577374,123.50680078793084 47.500157837057486,123.41360155594884 47.10425878013484,123.46020117451553 46.6687698175665,123.41360155594884 46.272870760876685,123.32040230353596 44.88722406188026,123.13400373820332 43.89747642003931,122.90100541792344 42.35347009822726,122.80780605459586 41.20536283380352,122.80780605459586 40.532334437128156,122.66800697159488 37.44432179420255,122.24860944974353 36.375394340604544,122.24860944974353 33.604100943077356,121.87581130943727 32.93107254663482,122.01561064983252 31.98091480997391,122.01561064983252 31.070346979657188,122.10881018498912 29.76388009195216,122.06221042000107 28.655362733174115,121.73601192323258 28.140693959081545,121.50301284558373" stroke="#4dd2ff" stroke-linecap="round" stroke-linejoin="round" stroke-width="0.5"><title>2024-07-27 5.1km</title><desc>11997575827</desc></polyline><polyline fill="none" points="121.59999999403954,86.744434453547 78.40000000596046,117.255565546453" stroke="#4dd2ff" stroke-linecap="round" stroke-linejoin="round" stroke-width="0.5"><title>2024-05-09 8.0km</title><desc>9223370321595310162</desc></polyline><polyline fill="none" points="144.39999999850988,95.30896531417966 153.4947368428111,99.32358869165182 147.81052631139755,92.63254900369793 172.82105262577534,107.35283153224736 187.59999999403954,111.36745099723339 178.5052631571889,110.0292446538806 147.81052631139755,104.67641783226281" stroke="#4dd2ff" stroke-linecap="round" stroke-linejoin="round" stroke-width="0.5"><title>2024-05-08 6.2km</title><desc>9223370321684028463</desc></polyline><polyline fill="none" points="34.00000002980232,128.40000000223517 27.327359929680824,171.60000000149012 40.67264008522034,155.89091505110264 40.67264008522034,159.81818693131208" stroke="#4dd2ff" stroke-linecap="round" stroke-linejoin="round" stroke-width="0.5"><title>2024-05-07 6.1km</title><desc>9223370321771754451</desc></polyline><polyline fill="none" points="160.75721192359924,128.40000000223517 186.97115224599838,171.60000000149012 145.0288477241993,171.60000000149012" stroke="#4dd2ff" stroke-linecap="round" stroke-linejoin="round" stroke-width="0.5"><title>2024-05-02 6.8km</title><desc>9223370322200251369</desc></polyline><polyline fill="none" points="12.399999998509884,202.3837860506028 55.600000001490116,193.61621394753456 42.193103447556496,198.87675778195262 54.11034481972456,202.3837860506028" stroke="#4dd2ff" stroke-linecap="round" stroke-linejoin="round" stroke-width="0.5"><title>2024-04-30 5.3km</title><desc>9223370322373916531</desc></polyline><polyline fill="none" points="78.39999999990687,194.99704135244247 80.23685039323755,196.9991042536567 83.9105511805974,196.19827974418877 85.33921259804629,197.31943381438032 100.85039370064624,183.94555651256815 117.51811023592018,184.10572413995396 120.78362204693258,187.38915285136318 121.46393700758927,207.00933738739695 117.51811023592018,211.65403949981555 98.53732283436693,211.81420112098567 95.33984251925722,209.89225937688025 84.86299212556332,209.41177315992536 84.25070866104215,199.08124391600722 87.03999999957159,195.47753694356652 101.05448818858713,183.94555651256815 117.31401574774645,184.10572413995396 120.44346456672065,187.22898593591526 121.46393700758927,191.07298232929315 121.05574803124182,208.21055624994915 117.04188976320438,211.97436270705657 99.01354330661707,211.97436270705657 95.74803149560466,209.97234038281022 84.0466141726356,208.93128663027892 84.65889763715677,198.28042166330852 99.89795275544748,184.34597551613115 117.99433070817031,184.26589173270622 121.46393700758927,188.75057023321278 121.1237795271445,206.28860513248947 120.71559055079706,208.61096210364485 117.17795275547542,211.8942819183576 99.01354330661707,211.73412031459156 95.33984251925722,209.81217836227734 84.99905511760153,209.3316920932266 83.9105511805974,207.48982516664546 84.11464566877112,201.16337771102553 84.65889763715677,198.52066843025386 100.10204724385403,184.50614305684576 117.17795275547542,184.02564033056842 120.78362204693258,187.3090693979757 121.1237795271445,208.13047505327268 117.38204724364914,211.81420112098567 115.61322834622115,211.97436270705657 99.69385826750658,212.05444348737365 95.67999999970198,210.0524213798344 85.06708661373705,209.41177315992536 83.70645669242367,205.08738314540824 84.18267716513947,202.68493331217906 85.27118110191077,202.28452424728312 84.0466141726356,202.04427870444488 84.11464566877112,200.44263975397917 86.97196850343607,195.87794969737297 100.64629921223968,184.34597551613115 118.3344881888479,184.82647803390864 121.25984251964837,188.27007026731735 121.39590551168658,206.84917472483357 117.58614173159003,211.33371615357464 98.46929133823141,211.97436270705657 93.29889763751999,209.65201630740194 85.27118110191077,209.41177315992536 84.18267716513947,208.21055624994915 83.97858267696574,201.16337771102553 84.86299212556332,197.96009251917712 100.10204724385403,184.34597551613115 117.65417322795838,184.42605929076672 121.05574803124182,188.18998690939043 121.5999999998603,194.43646276800428 121.1237795271445,206.5288492955151 117.72220472432673,211.49387784407008 98.4012598420959,211.97436270705657 95.40787401539274,209.89225937688025 84.65889763715677,209.25161101785488 84.86299212556332,198.2003393904888" stroke="#4dd2ff" stroke-linecap="round" stroke-linejoin="round" stroke-width="0.5"><title>2024-04-27 9.8km</title><desc>1714200483443</desc></polyline><polyline fill="none" points="144.39999999990687,193.90170505811693 145.07605633791536,196.2095638544415 146.42816901393235,197.16453778604046 148.5239436617121,196.9257944195997 150.07887323922478,196.3687262625317 151.02535211248323,197.16453778604046 153.121126760263,196.28914506273577 155.48732394352555,194.53835648513632 156.09577464777976,193.58337913750438 157.44788732402958,192.5488189427415 160.82816901407205,189.20638373529073 162.9239436618518,187.2964139279793 165.56056338036433,184.6701973299496 169.27887323941104,184.0335373459966 174.0788732394576,184.11311987420777 175.9718309857417,183.71520714712096 177.72957746475004,184.2722849047277 182.25915492954664,184.35186740697827 183.94929577456787,184.59061486221617 186.72112676058896,187.61474257404916 187.39718309859745,191.59383900789544 187.39718309859745,196.05040141160134 187.39718309859745,200.90484039275907 187.39718309859745,205.52050670719473 186.72112676058896,208.62412808689987 183.47605633805506,211.72773634834448 178.8788732390385,211.9664749020012 174.34929577447474,211.88689539284678 169.14366197190247,212.1256338946405 164.61408450710587,211.88689539284678 162.450704225339,210.53404241573298 159.27323943632655,209.65866563166492 154.6084507042542,209.65866563166492 151.02535211248323,209.4995061045047 150.41690140846185,208.54454821551917 150.0112676054705,203.61057933745906 150.41690140846185,199.233643710264 151.29577464796603,197.8011863839347 153.1887323942501,195.6524951539468 155.21690140874125,194.45877508685226 158.86760563380085,191.59383900789544 162.04507042234764,188.49014563998207 165.22253521136008,185.38643915194552 167.11549295764416,184.19270239386242 171.9154929574579,184.35186740697827 175.566197183216,184.82936223968863 176.64788732375018,184.59061486221617 179.48732394329272,184.35186740697827 183.2732394367922,184.35186740697827 184.895774648292,185.54560390638653 187.19436619756743,188.96763778134482 187.46478873235174,193.66296063078335 187.19436619756743,197.48286215390544 187.39718309859745,201.38232446037 187.53239436633885,206.23672818997875 185.50422535231337,209.97698458301602 183.00281690130942,212.0460544024827 177.72957746475004,212.1256338946405 174.01126760570332,212.20521337818354 169.61690140864812,212.1256338946405 165.08732394338585,212.0460544024827 162.24788732384332,210.45446275128052 160.28732394357212,209.97698458301602 158.5295774647966,210.21572370582726 153.52676056325436,209.73824538249755 150.95774647896178,209.73824538249755 149.9436619717162,208.54454821551917 149.9436619717162,203.92890091077425 150.61971830949187,198.91532010160154 152.51267605624162,196.9257944195997 154.87887323927134,194.77710062783444 157.71830985881388,192.5488189427415 160.76056338008493,189.20638373529073 164.4112676056102,186.0230979627231 166.8450704223942,184.2722849047277 172.1183098591864,184.11311987420777 174.7549295774661,184.35186740697827 176.64788732375018,184.2722849047277 181.85352112655528,184.11311987420777 183.94929577456787,184.5110323857516 186.99154929583892,188.01265318796504 187.53239436633885,190.9571850275388 187.12676056358032,195.01584469294176 187.32957746484317,196.1299826374161 187.12676056358032,201.14358246553456 187.0591549295932,206.3958884246531 186.65352112660185,208.70370794995688 184.3549295773264,210.9319406087743 183.1380281690508,211.9664749020012 178.1352112677414,212.0460544024827 174.55211267597042,211.9664749020012 170.02253521117382,211.80731587478658 165.08732394338585,211.80731587478658 161.97746478836052,210.21572370582726 160.28732394357212,209.81782512459904 156.77183098578826,209.57908587233396 151.76901408447884,209.4995061045047 150.34929577470757,208.62412808689987 150.07887323922478,204.96344507095637 150.28169014072046,201.30274380394258 152.51267605624162,196.9257944195997 155.28450704202987,195.33416999247856 157.9211267605424,192.6284005480702 158.5971830985509,191.7530024163425 160.69295774633065,189.84303923370317 162.85633802809753,187.61474257404916 166.16901408461854,184.7497797892429 168.1971830984112,184.2722849047277 170.8338028169237,184.5110323857516 174.214084507199,184.35186740697827 175.9718309857417,184.7497797892429 179.62253521126695,184.2722849047277 183.1380281690508,184.2722849047277 185.57183098606765,186.26184487435967 187.32957746484317,188.80847376852762 187.19436619756743,193.66296063078335 187.12676056358032,197.24411889107432 187.26197183085606,201.85980821750127 187.19436619756743,206.3958884246531 187.0591549295932,208.22622864320874 185.03098591556773,210.37488307792228 181.58309859177098,212.0460544024827 177.72957746475004,212.1256338946405 173.80845070420764,212.1256338946405 170.3605633804109,212.28479285287904 167.52112676063552,212.1256338946405 165.76338028186,212.1256338946405 162.85633802809753,211.17067942133872 159.94929577456787,209.81782512459904 157.5154929580167,209.4995061045047 154.5408450702671,209.26076674857177 151.2281690139789,209.4995061045047 150.41690140846185,208.7832878039917 149.8760563377291,205.20218582404777 150.34929577470757,202.81477480038302 151.43098591524176,202.41687220847234 150.61971830949187,202.41687220847234 150.28169014072046,200.58651750854915 152.0394366197288,197.32369998726062 153.121126760263,196.05040141160134 154.94647887325846,194.9362633464043 157.5154929580167,192.78756373235956 160.01690140832216,190.71843964257278 162.18028169008903,188.41056358627975 165.42535211262293,185.30685676186113 166.70985915488563,184.59061486221617 171.17183098569512,184.4314499007305 174.95774647872895,184.7497797892429 175.9718309857417,184.90894468151964 179.14929577475414,184.59061486221617 183.00281690130942,184.4314499007305 185.90985915483907,186.81892069999594 187.39718309859745,190.87760324112605 187.46478873235174,195.57291387638543 187.32957746484317,200.18861370894592 187.26197183085606,204.72470424027415 186.99154929583892,207.90790893312078 183.5436619715765,211.40941815607948 178.94647887302563,211.72773634834448 174.55211267597042,211.64815681328764 170.0901408449281,211.56857726949966 167.6563380281441,211.80731587478658 164.54647887311876,212.0460544024827 161.50422535208054,210.13614400691586 156.90704225352965,209.73824538249755 152.51267605624162,209.65866563166492 150.95774647896178,209.26076674857177 150.34929577470757,208.3058085491648 150.21408450673334,203.84932053030934 150.1464788732119,201.30274380394258 150.687323943479,198.59699635475408 152.98591549275443,196.4483074536547 155.41971830953844,193.9812865165295 158.80000000004657,191.19593033456476 162.51830985909328,188.09223528479924 165.62816901388578,185.06810953945387 166.77746478863992,184.35186740697827 171.30704225343652,184.5110323857516 176.0394366197288,184.82936223968863 179.352112676017,184.59061486221617 183.61126760556363,184.6701973299496 185.97746478859335,187.0576673526084 186.99154929583892,188.41056358627975 187.32957746484317,191.27551208651857 187.53239436633885,194.61793787463102 187.32957746484317,199.31322459096555 187.32957746484317,203.69015974382637 187.0591549295932,206.63462871185038 186.45070422510616,208.70370794995688 184.21971830981784,211.25025900808396 181.44788732402958,211.88689539284678 176.85070422524586,212.0460544024827 171.64507042244077,211.9664749020012 167.6563380281441,211.80731587478658 164.47887323936448,212.0460544024827 162.450704225339,210.37488307792228 159.2056338028051,209.65866563166492 154.06760563375428,209.41992632771144 151.36338028125465,209.57908587233396 150.34929577470757,208.86286764981924 150.28169014072046,205.9979877732112 150.28169014072046,201.54148574743886 151.02535211248323,198.35825345409103" stroke="#4dd2ff" stroke-linecap="round" stroke-linejoin="round" stroke-width="0.5"><title>2024-04-27 10.1km</title><desc>9223370322649067555</desc></polyline><polyline fill="none" points="34.00000001490116,242.36772071942687 46.342857137322426,242.36772071942687 30.914285719394684,249.63227928057313 12.400000005960464,242.36772071942687 55.6000000089407,249.63227928057313 21.657142847776413,249.63227928057313" stroke="#4dd2ff" stroke-linecap="round" stroke-linejoin="round" stroke-width="0.5"><title>2024-04-26 5.2km</title><desc>9223370322713802999</desc></polyline></svg>