<?xml version="1.0" encoding="utf-8" ?>
<svg baseProfile="full" height="300mm" version="1.1" viewBox="0,0,200,300" width="200mm" xmlns="http://www.w3.org/2000/svg" xmlns:ev="http://www.w3.org/2001/xml-events" xmlns:xlink="http://www.w3.org/1999/xlink"><defs /><rect fill="#222222" height="300" width="200" x="0" y="0" /><text fill="#FFFFFF" style="font-size:12px; font-family:Arial; font-weight:bold;" x="10" y="20">Over 3km Runs</text><text fill="#FFFFFF" style="font-size:4px; font-family:Arial" x="10" y="280">ATHLETE</text><text fill="#FFFFFF" style="font-size:9px; font-family:Arial" x="10" y="290">L</text><text fill="#FFFFFF" style="font-size:4px; font-family:Arial" x="120" y="280">STATISTICS</text><text fill="#FFFFFF" style="font-size:3px; font-family:Arial" x="120" y="285">Number: 23</text><text fill="#FFFFFF" style="font-size:3px; font-family:Arial" x="120" y="290">Weekly: 2.6</text><text fill="#FFFFFF" style="font-size:3px; font-family:Arial" x="141" y="285">Total: 118.1 km</text><text fill="#FFFFFF" style="font-size:3px; font-family:Arial" x="141" y="290">Avg: 5.1 km</text><text fill="#FFFFFF" style="font-size:3px; font-family:Arial" x="167" y="285">Min: 3.0 km</text><text fill="#FFFFFF" style="font-size:3px; font-family:Arial" x="167" y="290">Max: 10.1 km</text><polyline fill="none" points="37.06657437037211,32.03896298777545 37.894042095169425,32.15585192598519 38.62221369310282,32.1168889508408 39.7144710898865,32.272740826098016 41.70039362949319,32.07792597141815 42.06447942845989,32.15585192598519 42.163775555440225,32.31170378442039 42.296170391491614,33.16888779783039 42.26307168242056,34.22088356578024 42.42856522731017,35.42872676171828 42.362367809400894,36.519678418000694 42.49476264521945,38.19506201471086 42.52786135429051,40.1042105476954 42.5940587723162,40.649679694732185 42.5940587723162,41.896463208278874 42.69335489941295,42.94843343415414 42.7595523170894,45.32509557309095 42.858848444302566,46.06536417757161 42.82574973534793,48.636811695294455 42.89194715337362,49.18226789493929 42.92504586232826,50.234216799988644 42.92504586232826,52.10434058608371 42.858848444302566,52.883555959007936 42.9581445712829,53.50692704113317 42.858848444302566,54.831587001972366 43.05744069814682,55.72767773710075 43.15673682524357,56.81856779125519 43.289131661178544,57.55881272853003 43.25603295210749,58.33801627901266 43.38842778815888,58.96137790338253 43.38842778815888,59.46785842734971 43.25603295210749,60.6756167972344 43.355329079087824,62.97424248562311 43.289131661178544,63.519676932221046 43.322230370133184,63.83135338732973 43.289131661178544,64.10407006391324 43.38842778815888,65.19493470154703 43.355329079087824,65.70140644386993 43.45462520606816,66.63642932460061 43.45462520606816,67.61040890609729 43.322230370133184,67.80520450582844 43.090539407217875,67.92208181490423 42.03138071950525,68.0 40.939123322605155,67.88312271615723 40.21095172467176,67.68832715865574 37.06657437037211,67.33769488925464 36.27220535441302,67.18185821527732 34.617269904818386,67.10393985299743 31.47289255040232,66.75330701365601 30.38063515361864,66.87018466470181 29.652463555685245,66.8312254519551 28.32851519586984,66.94810307779699 27.600343597936444,66.8312254519551 26.839073291048408,66.8312254519551 25.945408148341812,66.63642932460061 24.886249460512772,66.5195515974774 24.290472698630765,66.20787747274153 23.694695936865173,66.09099960626918 22.503142412984744,66.09099960626918 21.377786307246424,65.66244710443425 19.88834440242499,65.46765034380951 18.134112825850025,65.15597530719242 17.86932315363083,65.15597530719242 17.505237354780547,65.03909709883737 16.81016446603462,64.96117827211856 16.611572212073952,64.84430000034627 16.545374793931842,64.72742169068079 16.578473503002897,64.33782705053454 16.71086833893787,64.10407006391324 16.777065756963566,63.675515193579486 16.843263174872845,62.234008698753314 16.94255930185318,61.766491837624926 16.94255930185318,59.62369844503701 17.108052846975625,59.19513823380112 17.20734897395596,58.29905614166637 17.405941227916628,57.675693368772045 17.538336063851602,57.01336923838244 17.439039936871268,56.467924920638325 17.472138645942323,56.11728170796414 17.604533481760882,55.649756892293226 17.935520571889356,55.143270989268785 18.663692169589922,52.72771301949979 18.862284423667006,52.416026937862625 18.994679259485565,51.83161480657873 19.259468931588344,51.24720172508387 19.358765058452263,50.896553420228884 20.782009545364417,47.70174199886969 21.27849018003326,46.18224855462904 21.675674688071012,45.59782628889661 21.87426694203168,45.16924935686984 22.47004370391369,44.351055613165954 22.900326920906082,43.844553790957434 23.49610368278809,42.6367388732906 23.860189481754787,42.130234635522356 23.827090772683732,42.130234635522356 24.919348169583827,40.22109686318436 25.548223640420474,39.28600527520757 26.077802984276786,38.27298664316186 27.30245521699544,36.285903341922676 28.2954164869152,34.41569725898444 29.122884211712517,33.16888779783039 29.52006871975027,32.70133313478436 30.016549354651943,32.467555575305596 30.347536444547586,32.38962968828855 33.09472929104231,32.272740826098016 33.690506053040735,32.31170378442039 34.584171195863746,32.2337778636429 35.4447376296157,32.272740826098016 36.30530406348407,32.15585192598519 37.36446275131311,32.15585192598519 38.29122660309076,32.0 39.11869432788808,32.07792597141815 39.51587883592583,32.03896298777545 41.17081428563688,32.07792597141815 41.86588717449922,32.03896298777545 42.097578137530945,32.15585192598519 42.26307168242056,32.467555575305596 42.26307168242056,34.142958058888325 42.42856522731017,35.42872676171828 42.39546651835553,35.97420300383237 42.49476264521945,37.57166437935666 42.49476264521945,38.311948950984515 42.46166393638123,38.5067604270298 42.52786135429051,39.09119422145886 42.52786135429051,40.06524843414081 42.5940587723162,40.649679694732185 42.56096006336156,41.234110005083494 42.5940587723162,41.818539365252946 42.56096006336156,42.091272741614375 42.72645360836759,43.143242397374706 42.66025619022548,44.234170640673256 42.72645360836759,44.77963352072402 42.79265102627687,44.97444149159128 42.7595523170894,45.48094172167475 42.82574973534793,45.831595309253316 42.79265102627687,46.06536417757161 42.89194715337362,46.41601719483151 42.858848444302566,47.857587117207004 42.7595523170894,48.40304449931136 42.82574973534793,49.22122902047704 42.79265102627687,49.6498011216172 42.92504586232826,50.351099821564276 42.89194715337362,50.896553420228884 42.92504586232826,52.22122299965122 42.89194715337362,53.0783595382818 42.9581445712829,53.74069091831916 42.92504586232826,54.05237585149007 42.99124328023754,54.71470543704345 42.99124328023754,55.493915151950205 43.12363811628893,56.27312317796168 43.12363811628893,57.05232951507787 43.05744069814682,57.75361377446097 43.18983553419821,59.27305831032572 43.090539407217875,60.130178035848076 43.222934243269265,61.026255564036546 43.18983553419821,61.68857230167487 43.322230370133184,63.013202116359025 43.222934243269265,63.83135338732973 43.322230370133184,65.46765034380951 43.25603295210749,66.12995889937156 43.45462520606816,67.41561320080655 43.355329079087824,67.72728627867764 43.25603295210749,67.84416361313197 42.69335489941295,68.0 41.038419449469075,67.9610409095767 39.54897754488047,67.68832715865574 38.35742402100004,67.53249063668773 37.927140804124065,67.57144977358985 37.099673079443164,67.33769488925464 36.867982116295025,67.33769488925464 35.21304666681681,67.10393985299743 34.41867765085772,67.10393985299743 32.23416285717394,66.75330701365601 31.803879640297964,66.75330701365601 31.37359642330557,66.79226623495924 30.248240317450836,66.75330701365601 29.71866097371094,66.6753885584476 29.28837775660213,66.6753885584476 28.72569970379118,66.48059234663378 28.36161390482448,66.44163309154101 26.839073291048408,66.59747008635895 26.110901693231426,66.55851084413007 25.051743005402386,66.32475530117517 24.19117657165043,66.3637145687826 23.694695936865173,66.09099960626918" stroke="#4dd2ff" stroke-linecap="round" stroke-linejoin="round" stroke-width="0.5"><title>2024-07-29 5.1km</title><desc>12014148662</desc></polyline><polyline fill="none" points="84.02379080560058,32.23302133890684 84.68362256686669,32.34953195147682 86.86106737935916,32.31069508488872 88.3786804304691,32.15534757601563 88.67560472316109,32.27185821393505 88.87355425138958,32.58255306305364 88.93953742762096,33.00975804059999 88.90654583950527,33.94183985973359 89.00552060373593,34.44671649939846 89.00552060373593,35.106938723882195 89.20347013208084,35.805996223702095 89.10449536785018,36.699234377534594 89.20347013208084,37.3206161276612 89.17047854396515,39.61195201749797 89.3024448963115,40.50518068304518 89.26945330831222,41.78676574843121 89.40141966054216,43.22368900681613 89.40141966054216,45.16546803872916 89.43441124842502,46.17518897666014 89.40141966054216,46.485871769691585 89.5333860127721,47.61209463636624 89.59936918900348,49.20433471829165 89.5333860127721,50.01986958121415 89.63236077700276,50.757732857746305 89.5663776010042,52.34995896182954 89.5333860127721,52.66063640118227 89.59936918900348,53.55383253857144 89.5663776010042,54.058681544527644 89.731335541117,55.223714997497154 89.66535236500204,56.349910401389934 89.86330189346336,57.048926458199276 89.92928506946191,57.51493640511762 89.89629348157905,59.3013022543164 89.9952682456933,60.116814137785695 89.86330189346336,60.85465662376373 89.92928506946191,61.281827894825255 89.89629348157905,61.51483019176521 89.96227665769402,62.21383617355605 89.96227665769402,63.534177085675765 90.09424301004037,64.03901203119312 89.96227665769402,65.08751310713706 89.9952682456933,65.74767887734924 90.09424301004037,66.01951148820808 90.06125142192468,66.71850868331967 90.16022618615534,67.45633757679025 90.12723459792323,67.68933585914783 89.9952682456933,67.80583494351595 89.33543648431078,68.0 87.78483184520155,67.96116699709091 87.35594120039605,67.80583494351595 87.09200849581975,67.84466796327615 83.82584127713926,67.3010053045 80.82360676303506,67.10683986922959 79.96582547330763,66.99034055767697 78.41522083419841,66.91267432886525 77.22752366377972,66.6796755415271 76.50170872628223,66.60200924542733 76.00683490512893,66.60200924542733 75.64392743643839,66.71850868331967 74.95110408728942,66.64084239566 74.62118820648175,66.6796755415271 73.73041532863863,66.71850868331967 72.1798106895294,66.36901025607949 71.84989480895456,66.40784343154519 71.09108828334138,66.2136775124527 69.870399524807,66.17484431597404 69.21056776342448,65.94184504903387 68.58372759004124,65.86417859297944 68.18782853335142,65.6700123793562 67.82492106466088,65.59234586442471 65.58149307605345,65.32051292964024 65.08661925501656,65.2040130373498 63.70097255613655,65.08751310713706 63.536014615907334,65.04867978871334 63.27208191144746,64.85451313311933 63.17310714710038,64.50501288819942 63.27208191144746,63.961345162795624 63.569006204023026,63.34000960961566 63.70097255613655,62.8351736793702 63.733964144368656,62.13616890957928 63.66798096813727,61.592497590434505 63.70097255613655,61.12649294617586 63.569006204023026,60.23331568390131 63.76695573225152,58.91296260978561 64.72371178632602,55.49555559147848 64.95465290278662,54.291688538185554 65.38354354759213,53.165486665442586 65.64747625216842,52.15578542553703 65.9444005448604,51.68976850897889 66.67021548235789,49.78685980985756 66.96713977493346,48.54413846982061 67.26406406750903,48.078116856107954 67.7589378884295,46.95189545425819 68.18782853335142,45.67032886334346 68.41876964981202,45.28197444594116 68.88065188273322,44.73827755454113 69.54048364411574,43.65088129672222 70.2992901696125,42.563481738761766 70.79416399076581,41.63142234814586 71.32202939968556,40.854704337223666 71.84989480895456,39.72846023066086 72.44374339398928,39.0294103838678 72.90562562691048,38.13617803918896 73.63144056452438,37.126434446516214 74.12631438544486,36.272033799177734 74.65417979459744,35.068102156190434 74.95110408728942,34.75740946250153 75.1490536154015,34.407879859994864 75.51196108432487,33.51463599369163 75.6769190246705,33.203941952757305 76.03982649336103,32.77673720684834 76.30375919782091,32.54371622161125 76.86461619497277,32.34953195147682 78.28325448185205,32.38836881390307 79.86685070907697,32.23302133890684 80.7906151751522,32.31069508488872 82.70412728283554,32.19418445957126 84.18874874594621,32.0 85.24447956401855,32.11651068838546 86.39918514643796,32.11651068838546 86.63012626278214,32.07767379647703 88.27970566623844,32.15534757601563 88.47765519469976,32.11651068838546 88.80757107527461,32.31069508488872 88.87355425138958,32.54371622161125 88.90654583950527,32.815574022970395 88.8405626633903,33.59230946181924 89.0715037798509,34.679736246936955 89.0715037798509,35.18461184669286 89.20347013208084,35.65065023052739 89.10449536785018,36.194360912020784 89.10449536785018,37.165270791214425 89.17047854396515,38.09734179987572 89.13748695608228,38.75755729738739 89.17047854396515,39.68962416378781 89.26945330831222,40.233328716276446 89.23646172031295,41.010048074123915 89.33543648431078,41.74792990460992 89.26945330831222,43.18485331881675 89.33543648431078,43.30136037018383 89.3024448963115,44.19457983816392 89.36842807254288,44.54409989345004 89.33543648431078,44.97129060910083 89.36842807254288,45.903341311757686 89.43441124842502,46.40820109678316 89.50039442477282,47.61209463636624 89.59936918900348,48.2722926021961 89.50039442477282,48.97132441660506 89.5333860127721,49.9033647144679 89.66535236500204,50.7188979863422 89.63236077700276,51.961611783946864 89.5333860127721,52.6218017359497 89.5663776010042,53.04898282143404 89.5663776010042,53.59266710281372 89.63236077700276,53.98101251295884 89.7643271292327,55.961567558464594 89.731335541117,56.46641317225294 89.79731871734839,56.73825282353209 89.731335541117,57.39843397511868 89.79731871734839,57.78677526093088 89.86330189346336,59.18480040508439 90.02825983369257,60.000312553806 89.83031030546408,61.980834331101505 90.02825983369257,63.72834445661283 90.02825983369257,65.6700123793562 90.12723459792323,66.36901025607949 90.06125142192468,66.83500808326062 90.09424301004037,67.4175045149459 90.06125142192468,67.65050282256561 89.89629348157905,67.80583494351595 89.17047854396515,67.96116699709091 88.14773931389209,67.92233398993267 87.9167981975479,67.84466796327615 87.58688231685665,67.8835009787581 87.22397484804969,67.84466796327615 86.89405896735843,67.767001919623 85.73935338493902,67.61166978185065 84.91456368332729,67.4175045149459 83.62789174867794,67.33983837882988 82.67113569483627,67.33983837882988 82.11027869768441,67.22333914300543 79.53693482850213,66.87384120811475 78.64616195054259,66.87384120811475 76.3367507859366,66.56317609120742 75.77589378890116,66.6796755415271 74.98409567517228,66.6796755415271 74.22528914967552,66.75734182083397 73.13656674348749,66.71850868331967 72.2128022776451,66.44667660267442 71.78391163260676,66.2525107046531" stroke="#4dd2ff" stroke-linecap="round" stroke-linejoin="round" stroke-width="0.5"><title>2024-07-27 5.1km</title><desc>11997575827</desc></polyline><polyline fill="none" points="129.98401847062632,32.23428494864493 130.51474646152928,32.11714249331271 132.7371699239593,32.15618998266291 134.89325238741003,32.0 135.35763937945012,32.07809499971336 135.49032137717586,32.19523746770574 135.55666237615515,32.39047482961905 135.5898328756448,33.52284944220446 135.65617387450766,34.53807882696856 135.6230033749016,34.69426770915743 135.8883673704695,35.74854089244036 135.78885587200057,36.2171057612577 135.82202637160663,37.23232755297795 135.78885587200057,38.59896775431116 135.92153786995914,40.785581292555435 135.82202637160663,41.4103255799273 135.987878868822,43.20645937122754 135.95470836933237,43.90929189531016 135.95470836933237,45.35399888877873 136.0873903670581,45.9396892626246 136.18690186552703,47.69675467105117 136.31958386325277,51.71844990638783 136.2532428642735,53.20217079241411 136.31958386325277,55.27156077124528 136.2532428642735,56.05245956097497 136.31958386325277,56.911446274782065 136.31958386325277,57.536162598611554 136.38592486199923,57.653296788659645 136.58494785870425,59.05890409956919 136.5517773590982,59.64457219405449 136.61811835807748,60.89399428025354 136.5517773590982,61.323482121690176 136.51860685984138,62.10436779452721 136.58494785870425,63.19760489312466 136.5517773590982,64.17370664241025 136.58494785870425,64.5251026248443 136.61811835807748,66.04781458855723 136.8171413546661,67.21912710461766 136.75080035580322,67.7657383090118 136.48543636035174,67.92191278657992 135.19178688235115,68.0 134.66105889121536,68.0 133.69911440752912,67.80478193477029 133.23472741537262,67.8828691735689 132.93619292031508,67.84382555633783 130.41523496317677,67.33625814685365 128.6571984931361,67.25817078954424 125.83770604082383,66.82869002237567 124.47771556384396,66.78964629082475 123.34991858305875,66.67251507108449 122.55382659635507,66.51634005189408 121.65822311176453,66.51634005189408 119.83384564262815,66.20398981060134 118.24166166957002,66.24303360562772 116.71581869549118,65.96972695202567 116.28460220282432,65.8525954655488 115.28948721964844,65.81355162835098 112.40365376858972,65.26693746235105 110.28074180451222,65.07171791637666 109.94903681008145,64.91554220340913 109.84952531196177,64.72032246706658 109.84952531196177,64.4470146583335 110.01537780906074,63.90039841918042 110.1812303061597,62.768119285756256 110.11488930741325,62.02627930336166 110.21440080576576,61.518703698558966 110.24757130502257,59.605527683947 110.4465943017276,59.09794866887387 110.6124467990594,57.926609750807984 110.87781079451088,57.14571502315812 111.20951578882523,55.31060575085576 111.34219778655097,54.842065715260105 111.37536828615703,54.52970535311033 111.57439128262922,54.17829962191172 111.83975527819712,53.358351582865 111.90609627705999,52.85076376635698 112.1051192736486,52.30412993347272 112.50316526694223,51.406086835981114 112.7685292622773,50.42995049527963 113.23291625455022,49.18049212000915 113.4982802500017,48.79003548907349 114.09534923988394,47.30629643195425 114.42705423431471,46.17396514545544 114.65924773039296,45.705413227318786 115.28948721964844,44.88544590398669 115.7207037123153,44.18261528437142 116.94801219156943,42.34743997966871 118.4075141667854,39.73132285082829 119.4357996492181,38.24754648338421 120.76261962694116,35.904729249712545 121.19383611960802,35.006645270390436 121.52554111392237,34.49903159585665 121.92358710721601,33.639991440140875 122.52065609709825,32.859044066484785 122.81919059203938,32.585712085827254 123.25040708470624,32.39047482961905 125.47283054690342,32.35142736576381 126.16941103513818,32.27333242518944 126.96550302184187,32.312379897542996 127.5625720116077,32.23428494864493 130.1498709677253,32.11714249331271 132.3722944300389,32.23428494864493 134.89325238741003,32.03904750201036 135.3244688800769,32.11714249331271 135.423980378313,32.23428494864493 135.5234918765491,32.46856974478578 135.55666237615515,34.03046449212707 135.82202637160663,35.631399579986464 135.7225148732541,35.94377632855321 135.68934437388089,36.2561528061633 135.78885587200057,36.91995192176546 135.7225148732541,37.62279671095894 135.78885587200057,39.57513615244534" stroke="#4dd2ff" stroke-linecap="round" stroke-linejoin="round" stroke-width="0.5"><title>2024-07-26 3.8km</title><desc>11987014491</desc></polyline><polyline fill="none" points="179.46385733957868,32.273629188217456 180.22760722995736,32.234539316938026 180.39363981492352,32.117269677546574 180.55967239977326,32.0781797892414 181.09097667154856,32.0781797892414 181.6886939770775,32.0 182.05396566400304,32.0781797892414 182.1535852147499,32.117269677546574 182.2532047657296,32.31271905536414 182.3196177999489,32.703617493156344 182.2199982488528,33.36814386502374 182.452443867689,35.322626096603926 182.38603083381895,36.02623710694024 182.5520634186687,38.37159722627257 182.452443867689,39.075202287727734 182.51885690155905,40.56058624270372 182.48565038468223,41.10783142072614 182.58526993566193,41.61598691390827 182.58526993566193,43.726778990530875 182.65168296953198,45.17305531798047 182.7845090373885,46.0330006548902 182.75130252051167,46.932032224023715 182.8841285884846,49.82455337178544 182.85092207149137,50.37178449277417 182.98374813934788,51.114453971909825 183.0169546563411,51.81803417284391 183.0169546563411,52.20891146926442 182.85092207149137,52.95157716542599 183.05016117345076,53.73332887751167 182.98374813934788,54.82777842783253 183.05016117345076,56.313097505655605 183.28260679217055,57.251190613693325 183.24940027529374,58.111107152624754 183.3158133091638,60.143629004072864 183.2161937581841,60.7299312556861 183.28260679217055,61.58983950089896 183.2161937581841,61.980706207454205 183.28260679217055,62.72335178274079 183.24940027529374,63.58325527558918 183.34901982615702,65.18579722361756 183.34901982615702,66.47564288822468 183.41543286014348,67.17919312496088 183.51505241112318,67.49188167852117 183.48184589401353,67.7263979158306 183.24940027529374,67.92182799713919 183.0169546563411,67.96091400072328 182.5520634186687,68.0 181.82152004516684,67.96091400072328 180.36043329781387,67.76548394051497 178.70010744896717,67.7263979158306 177.8699445243692,67.49188167852117 176.2428251922829,67.37462350272108 174.38326024147682,67.10102094424656 171.49429326422978,66.8665043003275 170.1992391020758,66.71015978630749 169.63472831319086,66.55381520453375 168.97059797367547,66.55381520453375 167.97440246422775,66.78833205177216 167.40989167557564,66.63198750396259 166.6129352680873,66.47564288822468 165.25146807183046,66.63198750396259 163.82358784170356,66.24112583781243 162.59494671341963,66.12386725540273 161.7979903058149,65.81117751586135 156.58456713997293,64.99036565996357 156.48494758887682,64.56041584711056 156.48494758887682,64.1304655217682 156.81701275880914,63.387822843506 156.8834257926792,62.87969802488806 156.85021927580237,61.94161955584423 156.8834257926792,61.277145830739755 156.7838062416995,60.37815001906711 157.01625186076853,59.28371731081279 157.08266489463858,58.6192386893963 157.24869747960474,57.759323361795396 157.38152354746126,57.32936492920271 157.9792408531066,54.86686585037387 158.21168647205923,54.046029087970965 158.37771905690897,53.26427805359708 158.57695815863553,52.67796366586117 158.7429907437181,52.404349958727835 158.94222984544467,51.661683135753265 159.3739145663567,50.489048196410295 159.57315366819967,50.17634490208002 159.87201232113875,49.27732142046443 160.4697296266677,47.98741424977197 161.0342404153198,46.42388422120712 161.7979903058149,45.01670140004717 163.8567943588132,41.967786451248685 164.68695728306193,40.28696334219421 165.94880492857192,38.37159722627257 166.97820695478003,36.57348916574847 167.40989167557564,35.98714764235774 167.808369879378,35.12717835017247 167.9411959471181,34.736282539437525 168.17364156607073,34.38447594741592 168.37288066803012,33.95448964679963 169.26945662638173,32.66452766844304 169.73434786417056,32.39089877682272 170.46489123778883,32.273629188217456 171.2950541622704,32.351808918174356 174.51608630933333,32.15635956154438 175.74472743761726,32.117269677546574 176.0103795734467,32.15635956154438 176.67450991319492,32.039089896687074 177.13940115075093,32.039089896687074 178.60048789798748,32.15635956154438 178.93255306780338,32.0781797892414 179.56347689032555,32.15635956154438 180.72570498473942,32.0 181.3566288072616,32.0781797892414 182.18679173185956,32.039089896687074 182.2532047657296,32.0781797892414 182.3528243167093,32.46907848137198 182.3196177999489,33.52450283340295 182.41923735069577,34.89264091453515 182.5520634186687,35.557163252611645 182.48565038468223,36.53439976045047 182.51885690155905,37.23800840644981 182.48565038468223,38.1761511322693" stroke="#4dd2ff" stroke-linecap="round" stroke-linejoin="round" stroke-width="0.5"><title>2024-07-24 3.7km</title><desc>11969555111</desc></polyline><polyline fill="none" points="36.52576140931342,107.51536927850975 36.52576140931342,107.03073756262893 36.615927370032296,105.44221552177623 36.615927370032296,104.74218546804332 36.773717801319435,102.37283758152626 36.8413422718877,101.83434611032135 36.796259291586466,101.18815472420829 36.886425252305344,100.70351002423558 36.86388376215473,99.41111929513863 36.93150823272299,98.25334659431246 36.954049722873606,95.37235267966753 37.0442156837089,93.94530529393523 36.99913270317484,93.64912456722232 37.02167419344187,92.46439794532489 36.99913270317484,91.65662638620415 37.02167419344187,90.55266745320114 37.111840154160745,89.61025940261607 37.066757173859514,89.42177734118013 36.99913270317484,89.36792529597005 36.435595448478125,89.36792529597005 35.91714117419906,89.26022116870445 34.88023262552451,89.20636908660526 34.42940282181371,89.1255909405445 33.775699606281705,89.15251699236978 33.16707937128376,89.01788670282986 32.919122979277745,89.01788670282986 32.64862509712111,89.09866488576517 31.97238039143849,89.1255909405445 31.54409207776189,88.93710849231866 30.41701756848488,88.88325633655768 29.988729255041108,88.77555198816117 29.58298243151512,88.61399537368561 29.26740156894084,88.66784759082657 28.70386431424413,88.66784759082657 28.117785569280386,88.5601431443065 27.644414275418967,88.53321702497487 26.9230865893187,88.34473410382634 26.22430039360188,88.23702950985171 25.277557805762626,88.21010335373285 23.74473647295963,88.02162017463706 23.384072629967704,87.99469399389636 23.136116237845272,87.8600630442379 23.09103325754404,87.6985058033024 23.09103325754404,87.5638746847253 23.203740708413534,87.13305458961986 23.90252690424677,85.67903096516966 24.08285882580094,85.03279536913033 24.804186511784792,83.36334522653488 25.02960141375661,82.71710329261259 25.02960141375661,82.52861572873371 24.939435452921316,82.17856699663389 25.02960141375661,81.93622526277613 25.322640786063857,81.37076024958515 25.435348237049766,80.91300186612352 25.548055688035674,80.13211786971078 26.04396847204771,77.7625230367994 26.111592942732386,77.35861245430715 26.111592942732386,77.17012061267451 26.20175890333485,76.8739188433101 26.359549334738404,75.95838375203311 26.78783764829859,74.31579718961439 27.058335530455224,73.02326202434779 27.080877020722255,72.78091089308145 27.328833412844688,72.08078400527302 27.306291922577657,72.02692800480872 27.21612596185878,72.0 27.10341851087287,72.24235193290224 27.03579404030461,72.48470361699583 26.900545099168085,73.34639647911536 26.53988125617616,74.74664067226695 26.22430039360188,76.28151418962807 25.998885491746478,77.17012061267451 25.95380251132883,77.46632201063039 25.931261021178216,78.16643292832305 25.796012079925276,78.73190561561205 25.548055688035674,79.35123129060958 25.480431217467412,79.64742995222332 25.34518227633089,80.75143987189222 25.322640786063857,81.07456374986214 24.55623011966236,82.85173717472935 24.26319074735511,83.71339220211667 23.992692865082063,84.25192499757395 22.955784316407517,86.7291600364988 22.843076865421608,87.15998086855689 22.888159845839255,87.45616973465076 23.045950277126394,87.67157958577445 23.36153113981709,87.88698924030177 23.789819453377277,87.99469399389636 25.750929099624045,88.156251032211 26.697671687579714,88.26395566291467 27.238667452009395,88.39858638236183 27.689497255836613,88.39858638236183 28.140327059431,88.47936477711482 28.478449412388727,88.42551251698751 29.380109019810334,88.47936477711482 30.73259843105916,88.69477369482047 31.431384626892395,88.77555198816117 31.63425803859718,88.85633025407151 32.445751685416326,89.07173882788629 32.78387403814122,89.0448127669224 33.48266023397446,89.1794430410082 34.00111450825352,89.1794430410082 34.33923686109483,89.2332951292774 35.48885286063887,89.20636908660526 36.34542948775925,89.31407323849271 36.954049722873606,89.28714720511925 37.111840154160745,89.36792529597005 37.15692313457839,90.4449638663209 37.08929866401013,91.25273957039462 37.13438164431136,91.629700619902 37.08929866401013,92.27591816202039 37.111840154160745,92.94905955452123 37.066757173859514,93.13753880056902 37.0442156837089,93.78375221628812 37.066757173859514,94.56459106771217 37.02167419344187,95.23772593615286 37.0442156837089,96.28781249969325 37.02167419344187,96.42243864457123 37.0442156837089,96.5301395051647 36.99913270317484,96.93401729484322 37.0442156837089,97.5532952308422 36.97659121314064,97.98409631554387 36.99913270317484,98.9803208137455 36.954049722873606,100.21886432958127 36.97659121314064,100.6496605516586 36.886425252305344,101.43047670123633 36.90896674245596,102.23821482884523 36.86388376215473,102.7497808807675 36.886425252305344,103.20749693531252 36.90896674245596,103.42289241867547 36.86388376215473,103.71906088769902 36.90896674245596,103.90753153817786 36.90896674245596,104.41909397410927 36.72863482090179,105.19989766107756 36.68355184060056,105.33451872550359 36.63846886018291,105.6576089670707 36.50321991904639,107.24612955914927 36.52576140931342,108.0" stroke="#4dd2ff" stroke-linecap="round" stroke-linejoin="round" stroke-width="0.5"><title>2024-07-21 4.3km</title><desc>11945152036</desc></polyline><polyline fill="none" points="69.9297665534541,100.95109287742525 70.78524593356997,103.97205569199286 71.85459515731782,105.48253562580794 74.42103329580277,107.24476097361185 76.34586189966649,108.0 78.91230003722012,108.0 81.26486833021045,107.24476097361185 83.61743662320077,105.48253562580794 84.90065569244325,103.216815356398 85.54226522706449,99.69235721183941 83.18969693407416,77.28674823697656 82.12034770939499,75.52450016164221 80.62325879558921,73.76225074916147 78.69843019265682,72.50350035028532 76.5597317442298,72.0 73.77942376118153,72.25175018818118 71.21298562269658,73.258750671288 69.50202686432749,75.02100046584383 68.00493794959038,77.79024744196795 67.7910681059584,80.55949111632071 69.9297665534541,101.202839928912 70.57137608900666,103.72030894085765 72.49620469193906,105.98602871852927 74.84877298492938,107.49650734313764 77.20134127791971,108.0 79.98164926189929,107.74825368495658 82.54808739945292,106.23777522472665 84.25904615782201,104.47554911207408 85.32839538250118,102.20982786081731 85.54226522706449,99.44060999643989 83.40356677863747,77.79024744196795 82.33421755488962,75.77624996821396 81.05099848564714,74.01400074688718 78.91230003722012,72.50350035028532 76.98747143428773,72.0 74.42103329580277,72.0 71.21298562269658,73.51050072349608 69.28815701976418,75.27275032759644 68.00493794959038,78.2937465372961 67.7910681059584,80.81124037737027 70.14363639894873,102.4615747758653 71.21298562269658,104.72729578171857 72.49620469193906,105.98602871852927 74.42103329580277,107.24476097361185 76.98747143428773,108.0 79.34003972727805,108.0 81.47873817477375,106.9930145770777 83.8313064686954,104.97904242342338 84.90065569244325,103.216815356398 85.54226522706449,99.69235721183941 83.18969693407416,77.53849785355851 82.12034770939499,75.27275032759644 80.4093889510259,73.51050072349608 78.27069050259888,72.25175018818118 75.91812220960855,72.0 72.92394438106567,72.50350035028532 70.35750624351203,74.01400074688718 68.64654748514295,76.27974950103089 67.7910681059584,79.30074440105818 85.54226522706449,99.94410439929925 83.61743662320077,79.30074440105818 82.97582708857954,76.53149922587909 81.69260802026838,74.76925057731569 79.76777941640466,73.00700059183873 77.62908096797764,72.25175018818118 74.63490314036608,72.0 72.49620469193906,72.75525048514828 70.14363639894873,74.26575071783736 68.64654748514295,76.27974950103089 68.00493794959038,78.54549604374915 68.00493794959038,81.06298961187713 70.14363639894873,102.20982786081731 70.99911577813327,104.2238024158869 72.49620469193906,106.23777522472665 75.276512674056,107.74825368495658 77.62908096797764,108.0 80.4093889510259,107.49650734313764 82.33421755488962,106.48952170298435 84.25904615782201,104.47554911207408 85.32839538250118,102.20982786081731 85.54226522706449,99.44060999643989 83.40356677863747,78.04199700360186 82.33421755488962,75.77624996821396 80.83712864015251,74.01400074688718 78.69843019265682,72.50350035028532 76.13199205417186,72.0 73.3516840711236,72.25175018818118 70.78524593356997,73.76225074916147 69.07428717426956,75.52450016164221 68.00493794959038,78.04199700360186 67.7910681059584,80.55949111632071 70.14363639894873,102.20982786081731 71.21298562269658,104.72729578171857 72.92394438106567,106.48952170298435 75.49038251955062,107.74825368495658 77.84295081347227,108.0 80.83712864015251,107.49650734313764 82.97582708857954,105.98602871852927 84.25904615782201,104.47554911207408 85.32839538250118,101.95808091876097 85.54226522706449,98.93711548461579 83.18969693407416,77.53849785355851 81.69260802026838,74.51750066154636 79.98164926189929,73.258750671288 78.05682065803558,72.25175018818118 75.49038251955062,72.0 73.3516840711236,72.25175018818118 70.78524593356997,73.76225074916147 68.86041732970625,76.02799974824302 68.00493794959038,78.04199700360186 67.7910681059584,80.81124037737027 69.9297665534541,100.95109287742525 70.35750624351203,102.96506852377206 71.85459515731782,105.48253562580794 73.77942376118153,106.9930145770777 76.34586189966649,108.0 79.12616988178343,108.0 81.69260802026838,106.9930145770777 83.8313064686954,105.230789037887 85.11452553700656,102.96506852377206 85.54226522706449,100.4475986927282 83.61743662320077,79.30074440105818 82.76195724401623,76.27974950103089 80.62325879558921,73.76225074916147 78.05682065803558,72.25175018818118 75.06264283042401,72.0 72.28233484737575,72.75525048514828 70.78524593356997,73.51050072349608 69.28815701976418,75.27275032759644 68.21880779508501,77.28674823697656 67.7910681059584,79.0489949756302 69.9297665534541,100.69934579916298 70.78524593356997,103.72030894085765 72.28233484737575,105.98602871852927 74.63490314036608,107.49650734313764 77.62908096797764,108.0 79.76777941640466,107.74825368495658 82.12034770939499,106.7412681535352 83.8313064686954,105.230789037887 85.11452553700656,102.71332166320644 85.54226522706449,100.69934579916298 85.32839538250118,98.43362086382695 75.70425236504525,72.0 73.77942376118153,72.25175018818118 85.54226522706449,98.6853681881912 83.40356677863747,78.79724552389234 82.54808739945292,76.02799974824302 81.05099848564714,74.01400074688718 78.27069050259888,72.50350035028532 75.276512674056,72.0 72.71007453743368,72.50350035028532 70.78524593356997,73.51050072349608 69.07428717426956,75.52450016164221 68.21880779508501,77.79024744196795 67.7910681059584,79.55249379901215 69.9297665534541,100.95109287742525 70.99911577813327,104.47554911207408" stroke="#4dd2ff" stroke-linecap="round" stroke-linejoin="round" stroke-width="0.5"><title>2024-07-05 3.3km</title><desc>11814633384</desc></polyline><polyline fill="none" points="121.96235373057425,72.0 119.22039452660829,72.74483331805095 116.68935526069254,74.73105431371368 115.00199575070292,77.71038257912733 115.00199575070292,80.44143008510582 117.1111951386556,101.04831993649714 117.7439549556002,103.77933962037787 119.00947458855808,105.51725954189897 120.90775403752923,107.00690414011478 123.01695342641324,108.0 125.33707275241613,108.0 127.44627214036882,107.50345212430693 129.55547152925283,106.01380784926005 130.8209911622107,104.27588830399327 131.87559085525572,101.7931438095402 131.87559085525572,99.06212175777182 129.76639146730304,78.70349113992415 128.71179177425802,75.4758867432829 126.18075250741094,73.24138872791082 122.80603348650038,72.0 119.22039452660829,72.74483331805095 116.47843532357365,74.97933181701228 115.00199575070292,77.95865975995548 115.00199575070292,80.93798382743262 117.1111951386556,101.04831993649714 118.16579483356327,104.52416260517202 119.85315434355289,106.51035604788922 121.75143379345536,107.50345212430693 124.07155311945826,108.0 126.60259238537401,107.75172607554123 129.34455158933997,106.26208196184598 130.8209911622107,104.52416260517202 131.6646709172055,102.04141838033684 131.87559085525572,99.55867146397941 129.76639146730304,79.94487623521127 129.13363165128976,76.46899627288803 127.86811201833189,74.73105431371368 125.33707275241613,72.74483331805095 122.80603348650038,72.0 120.48591416049749,72.24827779899351 118.37671477161348,73.24138872791082 116.47843532357365,74.73105431371368 115.42383562866598,76.71727358759381 114.79107581172138,78.95176821248606 117.1111951386556,101.29659458762035 117.7439549556002,103.53106523817405 118.79855464957654,105.2689853485208 120.69683409947902,107.00690414011478 123.01695342641324,107.75172607554123 125.33707275241613,108.0 128.0790319563821,107.00690414011478 129.97731140628457,105.51725954189897 131.24283103924245,103.53106523817405 131.87559085525572,101.29659458762035 129.76639146730304,79.44832227821462 129.34455158933997,76.96555087622255 128.0790319563821,74.73105431371368 126.39167244639248,73.24138872791082 123.64971324242651,72.24827779899351 120.90775403752923,72.24827779899351 118.37671477161348,73.24138872791082 116.68935526069254,74.4827767838724 115.42383562866598,76.96555087622255 114.79107581172138,78.95176821248606 117.1111951386556,101.29659458762035 117.53303501661867,103.28279082919471 119.00947458855808,105.51725954189897 120.69683409947902,107.00690414011478 123.01695342641324,107.75172607554123 125.54799269139767,108.0 127.86811201833189,107.25517814536579 129.97731140628457,105.51725954189897 131.45375097729266,103.28279082919471 131.87559085525572,100.80004525883123 129.76639146730304,79.94487623521127 129.34455158933997,76.96555087622255 127.86811201833189,74.4827767838724 125.96983256936073,72.99311103648506 123.64971324242651,72.24827779899351 120.48591416049749,72.24827779899351 118.37671477161348,73.24138872791082 116.68935526069254,74.4827767838724 115.42383562866598,76.96555087622255 114.79107581172138,78.95176821248606 117.1111951386556,101.04831993649714 117.7439549556002,103.77933962037787 118.79855464957654,105.51725954189897 120.69683409947902,107.00690414011478 123.01695342641324,108.0 126.18075250741094,107.75172607554123 128.28995189629495,107.00690414011478 130.1882313452661,105.2689853485208 131.45375097729266,103.03451639274135 131.87559085525572,100.80004525883123 129.76639146730304,80.19315317319706 129.13363165128976,76.71727358759381 127.86811201833189,74.4827767838724 125.33707275241613,72.74483331805095 122.80603348650038,72.0 119.43131446652114,72.74483331805095 117.1111951386556,73.98622164176777 115.84567550569773,75.72416416555643 115.00199575070292,77.71038257912733 114.79107581172138,79.20004525897093 117.1111951386556,101.7931438095402 118.16579483356327,104.52416260517202 119.64223440457135,106.26208196184598 121.96235373057425,107.50345212430693 124.28247305843979,108.0 127.44627214036882,107.50345212430693 129.13363165128976,106.26208196184598 131.0319110993296,104.0276139753405 131.87559085525572,101.7931438095402 131.87559085525572,99.3103966244962 129.76639146730304,78.95176821248606 129.13363165128976,76.46899627288803 127.86811201833189,74.4827767838724 125.75891262944788,72.99311103648506 123.01695342641324,72.0 120.27499422058463,72.24827779899351 118.37671477161348,72.99311103648506 116.68935526069254,74.73105431371368 115.42383562866598,76.71727358759381 115.00199575070292,78.70349113992415 117.1111951386556,101.29659458762035 117.7439549556002,103.77933962037787 119.00947458855808,105.76553370943293 120.90775403752923,107.00690414011478 123.64971324242651,108.0 125.96983256936073,107.75172607554123 128.0790319563821,107.00690414011478 129.97731140628457,105.51725954189897 131.45375097729266,103.03451639274135 131.87559085525572,100.80004525883123 129.76639146730304,79.44832227821462 128.92271171230823,76.2207189311739 127.02443226333708,73.73794403090142 123.86063318047673,72.24827779899351 121.5405138535425,72.0 118.58763471059501,72.99311103648506 117.32211507856846,73.98622164176777 115.84567550569773,75.72416416555643 115.42383562866598,76.71727358759381 114.79107581172138,79.20004525897093 116.90027520060539,100.80004525883123 117.7439549556002,103.77933962037787 119.64223440457135,106.26208196184598 121.5405138535425,107.50345212430693 124.07155311945826,108.0 126.39167244639248,107.75172607554123 128.50087183434516,106.75863010738976 129.97731140628457,105.51725954189897 131.24283103924245,103.53106523817405 131.87559085525572,101.29659458762035 129.34455158933997,77.21382813691162 128.0790319563821,74.73105431371368 126.39167244639248,73.24138872791082 124.07155311945826,72.24827779899351 121.5405138535425,72.0 119.00947458855808,72.74483331805095 117.1111951386556,74.23449922609143 115.63475556764752,75.97244156198576 115.00199575070292,78.4552140396554 116.90027520060539,100.55177055345848 117.7439549556002,103.77933962037787 119.00947458855808,105.51725954189897 121.11867397651076,107.25517814536579 124.07155311945826,108.0 126.18075250741094,107.75172607554123 128.71179177425802,106.75863010738976 130.39915128424764,105.2689853485208 131.45375097729266,103.28279082919471 131.87559085525572,100.80004525883123 129.76639146730304,78.70349113992415 129.13363165128976,76.46899627288803 127.23535220231861,73.98622164176777 125.1261528134346,72.49655557191 121.96235373057425,72.0 119.22039452660829,72.74483331805095 117.32211507856846,73.98622164176777 116.05659544561058,75.4758867432829 115.21291569061577,77.46210537198931 114.79107581172138,78.95176821248606" stroke="#4dd2ff" stroke-linecap="round" stroke-linejoin="round" stroke-width="0.5"><title>2024-06-26 3.9km</title><desc>11744480107</desc></polyline><polyline fill="none" points="177.38043852464762,72.31237989763031 179.07213454588782,72.27333242518944 181.19504720030818,72.0 181.82528689457104,72.0 181.9911394455703,72.03904750206857 182.15699199656956,72.19523746773484 182.2896740376018,72.42952228934155 182.25650352728553,74.45998436035006 182.2896740376018,74.88950371657847 182.42235607851762,75.43616397451842 182.55503811931703,77.89612486943952 182.52186760900076,78.52087416796712 182.62137913983315,79.9265561279608 182.5882086296333,81.44937206161558 182.75406118074898,83.59692205340252 182.72089067054912,84.41689230949851 182.787231690716,85.62732118117856 182.75406118074898,86.56442461136612 182.82040220103227,87.89198363138712 182.787231690716,88.47766987903742 182.9530842420645,90.74231441164738 182.9530842420645,91.09372349418118 183.05259577278048,91.95272203095374 182.9530842420645,92.69458275541547 183.15210730349645,94.29543490329525 183.0194252624642,95.70105531456647 183.08576628286391,96.09150445566047 183.15210730349645,98.08278849278577 183.21844832377974,98.43419041577727 183.1852778135799,99.01985952572431 183.251618834096,99.48839412815869 183.1852778135799,100.69877236449975 183.251618834096,100.85494990527513 183.251618834096,101.63583659363212 183.38430087489542,102.80716345272958 183.3179598544957,103.5880459100008 183.41747138521168,105.03267399437027 183.35113036469556,106.086858400231 183.48381240549497,107.02390861633467 183.41747138521168,107.76573830907 183.11893679318018,107.8828691735689 182.48869709903374,107.8828691735689 181.6262638331391,108.0 180.92968311847653,107.92191278652172 180.13359087321442,107.72669467914966 179.27115760731976,107.5705201170058 177.94433719827794,107.49243281051167 177.1814154633321,107.29721447036718 175.88776556460653,107.1410397219297 173.79802342061885,107.06295232244884 172.43803250137717,106.78964629082475 171.64194025599863,106.71155881512095 171.24389413336758,106.71155881512095 170.21560831659008,106.59442756979843 169.25366352009587,106.36016496494994 168.62342382583302,106.39920874306699 167.99318413157016,106.32112118275836 167.13075086579192,106.04781458849902 166.46734066132922,106.16494601132581 165.60490739543457,106.16494601132581 164.64296259905677,105.96972695190925 163.38248321064748,105.96972695190925 162.3210268835537,105.81355162832187 161.49176412797533,105.54024464893155 159.99909116793424,105.4231130227854 159.00397586124018,105.1888496565225 156.6820401456207,104.9155422032054 156.5161875943886,104.64223454269813 156.5161875943886,104.44701465824619 156.91423371713609,103.47091364936205 156.88106320693623,103.15856076794444 156.94740422745235,102.57289838552242 156.81472218653653,100.659727968683 157.2791093296837,97.96565444237785 157.1464272888843,97.18475979936193 157.17959779896773,96.71622220112476 157.2791093296837,96.2476839934825 157.5776439215988,95.11538080961327 158.34056565677747,93.51453230515472 158.7717822898412,92.14794868548051 159.16982841235586,91.21085977894836 159.53470402478706,90.19567737955367 159.89957963733468,89.41476589505328 160.09860269841738,88.79003548852052 160.76201290322933,87.345342274406 160.96103596431203,86.56442461136612 161.25957055634353,86.17396514498978 161.4254231074592,85.70541322676581 161.85663974040654,85.15876855191891 162.58639096526895,83.94833810607088 162.5532204551855,83.94833810607088 162.71907300618477,83.79215323607787 163.11711912881583,83.12836678358144 163.44882423104718,82.42553273585509 164.3444280071417,80.86367438736488 164.90832668100484,80.08274267386878 165.6712484160671,78.91134192922618 166.43417015112936,77.54470291300095 166.73270474316087,76.84185797139071 167.13075086579192,76.25615280601778 167.5951380088227,75.04569244626327 168.22537770331837,74.53807882682304 169.4526865814114,72.58571208576905 169.81756219395902,72.35142736576381 169.98341474495828,72.31237989763031" stroke="#4dd2ff" stroke-linecap="round" stroke-linejoin="round" stroke-width="0.5"><title>2024-06-17 3.2km</title><desc>11672403120</desc></polyline><polyline fill="none" points="48.0,117.28702870756388 12.0,142.71297129243612" stroke="#4dd2ff" stroke-linecap="round" stroke-linejoin="round" stroke-width="0.5"><title>2024-05-09 8.0km</title><desc>9223370321595310162</desc></polyline><polyline fill="none" points="58.66666666790843,124.42413776181638 66.24561404064298,127.7696572439745 61.50877192988992,122.19379083625972 82.3508771955967,134.46069294400513 94.66666666790843,137.8062091646716 87.08771930262446,136.69103721156716 61.50877192988992,132.230348194018" stroke="#4dd2ff" stroke-linecap="round" stroke-linejoin="round" stroke-width="0.5"><title>2024-05-08 6.2km</title><desc>9223370321684028463</desc></polyline><polyline fill="none" points="123.3333333581686,112.0 117.77279993891716,148.0 128.89386673271656,134.90909587591887 128.89386673271656,138.18182244338095" stroke="#4dd2ff" stroke-linecap="round" stroke-linejoin="round" stroke-width="0.5"><title>2024-05-07 6.1km</title><desc>9223370321771754451</desc></polyline><polyline fill="none" points="118.96434327960014,152.0 140.80929355323315,188.0 105.85737310349941,188.0" stroke="#4dd2ff" stroke-linecap="round" stroke-linejoin="round" stroke-width="0.5"><title>2024-05-02 6.8km</title><desc>9223370322200251369</desc></polyline><polyline fill="none" points="161.00000000745058,180.59416085481644 152.0,183.62106058280915 188.0,170.00000664312392 182.8571428656578,174.5403594309464 186.71428571641445,165.45965237822384 188.0,156.37893941625953 188.0,157.89239198341966" stroke="#4dd2ff" stroke-linecap="round" stroke-linejoin="round" stroke-width="0.5"><title>2024-05-01 4.0km</title><desc>9223370322286947528</desc></polyline><polyline fill="none" points="12.0,213.65315504278988 48.0,206.34684495721012 36.82758620381355,210.7306314855814 46.75862068682909,213.65315504278988" stroke="#4dd2ff" stroke-linecap="round" stroke-linejoin="round" stroke-width="0.5"><title>2024-04-30 5.3km</title><desc>9223370322373916531</desc></polyline><polyline fill="none" points="58.66666666674428,207.49753446038812 60.1973753280472,209.1659202114679 63.25879265065305,208.49856645357795 64.44934383197688,209.4328615120612 77.37532808398828,198.28796376049286 91.26509186369367,198.42143678333377 93.98635170608759,201.1576273762039 94.55328083992936,217.50778115622234 91.26509186369367,221.3783662499045 75.44776902883314,221.51183426752687 72.78320209961385,219.91021614748752 64.05249343812466,219.50981096667238 63.54225721792318,210.9010365967406 65.86666666669771,207.8979474530206 77.54540682397783,198.28796376049286 91.09501312347129,198.42143678333377 93.70288713928312,201.02415494667366 94.55328083992936,204.22748527448857 94.2131233594846,218.50879687501583 90.86824146960862,221.64530225592898 75.84461942245252,221.64530225592898 73.1233595800586,219.97695031907642 63.37217847746797,219.10940552526154 63.88241469790228,210.23368471948197 76.58162729651667,198.62164626352023 91.66194225708023,198.5549097773619 94.55328083992936,202.29214186104946 94.26981627289206,216.90717094379943 93.9296587924473,218.84246841975255 90.98162729642354,221.5785682653659 75.84461942245252,221.44510026223725 72.78320209961385,219.84348196862265 64.16587926493958,219.4430767443846 63.25879265065305,217.90818763891002 63.42887139087543,212.63614809256978 63.88241469790228,210.4338903586031 76.75170603697188,198.75511921412544 90.98162729642354,198.3547002755222 93.98635170608759,201.09089116507675 94.26981627289206,218.4420625444618 91.15170603664592,221.51183426752687 89.67769028875045,221.64530225592898 76.41154855652712,221.71203623950714 73.06666666665114,220.04368448327295 64.22257217834704,219.50981096667238 63.0887139106635,215.90615262126084 63.48556430451572,213.90411109355045 64.39265091856942,213.57043687277474 63.37217847746797,213.37023225374287 63.42887139087543,212.03553312836448 65.80997375305742,208.2316247478593 77.2052493437659,198.62164626352023 91.94540682435036,199.0220650283154 94.38320209993981,201.89172522281297 94.4965879265219,217.37431227072375 91.32178477663547,221.11143012804678 75.39107611542568,221.64530225592898 71.08241469832137,219.71001358958893 64.39265091856942,219.50981096667238 63.48556430451572,218.50879687501583 63.31548556429334,212.63614809256978 64.05249343812466,209.96674376603914 76.75170603697188,198.62164626352023 91.37847769027576,198.6883827424026 94.2131233594846,201.8249890911975 94.66666666674428,207.03038564010058 94.26981627289206,217.10737441299716 91.43517060368322,221.24489820346935 75.33438320201822,221.64530225592898 72.8398950130213,219.91021614748752 63.88241469790228,219.37634251493728 64.05249343812466,210.1669494921225" stroke="#4dd2ff" stroke-linecap="round" stroke-linejoin="round" stroke-width="0.5"><title>2024-04-27 9.8km</title><desc>1714200483443</desc></polyline><polyline fill="none" points="105.33333333325572,206.58475421514595 105.89671361492947,208.50796987867216 107.02347417827696,209.30378148838645 108.76995305158198,209.10482868301915 110.06572769931518,208.64060521882493 110.85446009365842,209.30378148838645 112.60093896696344,208.57428755232831 114.57276995293796,207.11529707093723 115.07981220656075,206.31948261457728 116.20657276990823,205.45734911895124 119.02347417850979,202.6719864460756 120.76995305158198,201.08034494001186 122.967136150226,198.89183110831073 126.065727699548,198.36128112167353 130.065727699548,198.42759989516344 131.6431924882345,198.09600595594384 133.10798122058623,198.56023742060643 136.88262910791673,198.6265561725013 138.2910798122175,198.82551238517044 140.60093896719627,201.34561881172704 141.16431924887002,204.66153250657953 141.16431924887002,208.3753345097066 141.16431924887002,212.42070032731863 141.16431924887002,216.26708892267197 140.60093896719627,218.85344007244566 137.8967136151623,221.43978029035497 134.06572769931518,221.6387290849816 130.2910798122175,221.57241282740142 125.95305164344609,221.77136157889618 122.17840375611559,221.57241282740142 120.37558685452677,220.44503534643445 117.72769953031093,219.7155546930735 113.84037558687851,219.7155546930735 110.85446009365842,219.5829217537539 110.3474178405013,218.78712351294234 110.00938967126422,214.6754827812547 110.3474178405013,211.0280364252394 111.07981220656075,209.83432198659284 112.65727699524723,208.04374596162234 114.3474178405013,207.04897923907265 117.38967136153951,204.66153250657953 120.03755868552253,202.07512136665173 122.68544600950554,199.48869929328794 124.2629107979592,198.49391866155202 128.2629107979592,198.6265561725013 131.30516431946307,199.02446853311267 132.20657276990823,198.82551238517044 134.57276995293796,198.6265561725013 137.72769953054376,198.6265561725013 139.07981220679358,199.62133658869425 140.99530516471714,202.47303148446372 141.22065727692097,206.3858005256625 140.99530516471714,209.5690517949406 141.16431924887002,212.8186037169653 141.2769953054376,216.86394015833503 139.58685446018353,219.98082048585638 137.50234741787426,221.70504533540225 133.10798122058623,221.77136157889618 130.00938967149705,221.83767781517236 126.3474178405013,221.77136157889618 122.57276995293796,221.70504533540225 120.20657276990823,220.37871895940043 118.57276995293796,219.98082048585638 117.10798122081906,220.17976975487545 112.93896713596769,219.7818711521104 110.79812206584029,219.7818711521104 109.95305164321326,218.78712351294234 109.95305164321326,214.94075075897854 110.51643192465417,210.76276675134432 112.09389671357349,209.10482868301915 114.06572769931518,207.31425052322447 116.4319248823449,205.45734911895124 118.967136150226,202.6719864460756 122.00938967149705,200.01924830226926 124.0375586852897,198.56023742060643 128.43192488281056,198.42759989516344 130.62910798122175,198.6265561725013 132.20657276990823,198.56023742060643 136.54460093891248,198.42759989516344 138.2910798122175,198.7591936548124 140.82629107986577,201.67721098999027 141.2769953054376,204.130987522949 140.93896713620052,207.5132039107848 141.10798122081906,208.44165219785646 140.93896713620052,212.61965205462184 140.88262910791673,216.99657368724002 140.54460093891248,218.91975662496407 138.62910798122175,220.7766171740368 137.615023474209,221.6387290849816 133.4460093898233,221.70504533540225 130.4600938966032,221.6387290849816 126.68544600927271,221.50609656237066 122.57276995293796,221.50609656237066 119.9812206570059,220.17976975487545 118.57276995293796,219.84818760381313 115.64319248823449,219.64923822699348 111.47417840384878,219.5829217537539 110.2910798122175,218.85344007244566 110.06572769931518,215.80287089245394 110.23474178393371,212.75228650326608 112.09389671357349,209.10482868301915 114.40375586855225,207.77847499377094 116.60093896719627,205.52366712340154 117.16431924887002,204.794168680266 118.91079812194221,203.20253269479144 120.71361502353102,201.34561881172704 123.47417840384878,198.95814982434968 125.16431924887002,198.56023742060643 127.36150234751403,198.7591936548124 130.17840375588275,198.6265561725013 131.6431924882345,198.95814982434968 134.68544600950554,198.56023742060643 137.615023474209,198.56023742060643 139.64319248846732,200.2182040619664 141.10798122081906,202.34039480710635 140.99530516471714,206.3858005256625 140.93896713620052,209.37009907589527 141.05164319253527,213.21650684793713 140.99530516471714,216.99657368724002 140.88262910791673,218.52185720269335 139.19248826312833,220.31240256497404 136.3192488264758,221.70504533540225 133.10798122058623,221.77136157889618 129.8403755868785,221.77136157889618 126.967136150226,221.90399404405616 124.6009389674291,221.77136157889618 123.13615023484454,221.77136157889618 120.71361502353102,220.97556618443923 118.2910798122175,219.84818760381313 116.26291079819202,219.5829217537539 113.78403755859472,219.38397229049588 111.02347417827696,219.5829217537539 110.3474178405013,218.9860731700319 109.89671361492947,216.0018215200398 110.2910798122175,214.01231233368162 111.1924882628955,213.68072684039362 110.51643192465417,213.68072684039362 110.23474178393371,212.1554312571534 111.69953051651828,209.43641665606992 112.60093896696344,208.3753345097066 114.1220657278318,207.44688612199388 116.26291079819202,205.65630311029963 118.34741784026846,203.93203303549672 120.15023474185728,202.00880298862467 122.85446009389125,199.42238063487457 123.92488262918778,198.82551238517044 127.64319248823449,198.69287491729483 130.7981220658403,198.95814982434968 131.6431924882345,199.0907872345997 134.29107981245033,198.82551238517044 137.50234741787426,198.69287491729483 139.92488262918778,200.68243391666329 141.16431924887002,204.06466936762445 141.22065727692097,207.9774282303406 141.10798122081906,211.82384475751314 141.05164319253527,215.60392020025756 140.82629107986577,218.25659077760065 137.95305164298043,221.17451513005653 134.12206572759897,221.43978029035497 130.4600938966032,221.37346401112154 126.7417840375565,221.30714772461215 124.71361502353102,221.50609656237066 122.12206572759897,221.70504533540225 119.58685446018353,220.11345333914505 115.75586854480207,219.7818711521104 112.09389671357349,219.7155546930735 110.79812206584029,219.38397229049588 110.2910798122175,218.58817379100947 110.17840375564992,214.874433775316 110.1220657278318,212.75228650326608 110.57276995293796,210.49749696231447 112.48826291062869,208.7069228780456 114.51643192465417,206.65107209712733 117.33333333348855,204.32994194549974 120.43192488257773,201.74352940404788 123.02347417827696,199.22342461626977 123.98122065723874,198.6265561725013 127.75586854456924,198.7591936548124 131.69953051651828,199.02446853311267 134.4600938966032,198.82551238517044 138.00938967126422,198.89183110831073 139.98122065723874,200.8813894605264 140.82629107986577,202.00880298862467 141.10798122081906,204.39626007212792 141.2769953054376,207.18161489552585 141.10798122081906,211.09435382584343 141.10798122081906,214.74179978657048 140.88262910791673,217.19552392652258 140.37558685429394,218.91975662496407 138.516431924887,221.04188250674633 136.20657277014107,221.57241282740142 132.37558685452677,221.70504533540225 128.0375586852897,221.6387290849816 124.71361502353102,221.50609656237066 122.065727699548,221.70504533540225 120.37558685452677,220.31240256497404 117.6713615024928,219.7155546930735 113.38967136153951,219.51660527312197 111.13615023437887,219.64923822699348 110.2910798122175,219.052389708173 110.23474178393371,216.66498981101904 110.23474178393371,212.95123812288512 110.85446009365842,210.29854454507586" stroke="#4dd2ff" stroke-linecap="round" stroke-linejoin="round" stroke-width="0.5"><title>2024-04-27 10.1km</title><desc>9223370322649067555</desc></polyline><polyline fill="none" points="170.0,206.9731005989015 180.28571428358555,206.9731005989015 167.42857141792774,213.02689939923584 152.0,206.9731005989015 188.0,213.02689939923584 159.7142857015133,213.02689939923584" stroke="#4dd2ff" stroke-linecap="round" stroke-linejoin="round" stroke-width="0.5"><title>2024-04-26 5.2km</title><desc>9223370322713802999</desc></polyline><polyline fill="none" points="60.75362318940461,250.0000080873724 60.2318840585649,249.79529019829351 61.44927536230534,250.40944379928987 62.49275362305343,251.43303269089665 65.44927536230534,251.43303269089665 66.84057971090078,250.61416162212845 67.01449275389314,249.59057228639722 66.31884057912976,250.61416162212845 65.79710144922137,249.79529019829351 66.66666666697711,249.38585435261484 70.49275362305343,249.38585435261484 71.88405797071755,249.79529019829351 74.31884058006108,249.59057228639722 74.66666666697711,248.56698239664547 73.7971014501527,247.54339195194189 71.18840579781681,246.31508268648759 69.79710144922137,245.49620939791203 67.88405797071755,244.47261728951707 66.84057971090078,248.15754628519062 66.84057971090078,249.38585435261484 65.97101449314505,250.20472595468163 64.92753623146564,250.0000080873724 63.53623188380152,250.20472595468163 61.971014492213726,249.79529019829351 61.62318840622902,251.22831495699938 63.18840579781681,251.84246809210163 61.971014492213726,252.6613386287354 63.18840579781681,252.8660562071018 62.84057970996946,253.8896437678486 61.971014492213726,254.50379603740294 58.66666666697711,255.52738271059934 63.362318840809166,252.04718575940933 64.57971014548093,251.43303269089665 64.23188405763358,250.20472595468163 68.05797101464123,251.43303269089665 69.62318840622902,251.22831495699938 70.84057970996946,251.84246809210163 70.1449275361374,252.6613386287354 70.49275362305343,253.48020881030243 71.53623188473284,254.2990786364535 71.53623188473284,255.1179481075378 70.1449275361374,255.52738271059934 67.36231883987784,254.2990786364535 67.18840579688549,253.07077376369853 68.92753623146564,252.8660562071018 69.79710144922137,253.48020881030243 71.88405797071755,252.8660562071018 72.2318840585649,254.0943612131523 70.84057970996946,254.91323077329434 69.27536231931299,254.91323077329434 64.57971014548093,252.04718575940933 61.971014492213726,249.79529019829351 60.75362318940461,249.38585435261484 59.53623188380152,249.59057228639722 60.2318840585649,248.77170041936915 61.62318840622902,249.1811363970628 62.66666666697711,248.97641841915902 61.971014492213726,249.79529019829351 60.40579710062593,249.79529019829351 58.66666666697711,250.0000080873724 62.49275362305343,250.20472595468163 63.88405797164887,249.59057228639722 64.92753623146564,249.59057228639722 65.79710144922137,250.40944379928987 67.88405797071755,249.38585435261484 68.75362318754196,249.79529019829351 69.79710144922137,249.79529019829351 70.49275362305343,250.40944379928987 71.53623188473284,250.81887942238245 72.57971014548093,250.61416162212845 73.44927536230534,250.81887942238245 74.49275362398475,252.04718575940933 76.2318840585649,253.2754912978271 77.62318840622902,253.07077376369853 78.66666666697711,253.48020881030243 77.27536231838167,252.8660562071018 74.66666666697711,252.25190340471454 75.7101449277252,251.84246809210163 75.88405797071755,253.07077376369853 77.10144927632064,252.8660562071018 77.27536231838167,251.84246809210163 78.1449275361374,252.6613386287354 79.18840579781681,252.8660562071018 76.2318840585649,252.8660562071018 77.62318840622902,253.07077376369853 77.97101449314505,252.4566210275516 78.84057970996946,252.8660562071018 79.7101449277252,253.48020881030243 76.75362318847328,254.50379603740294 78.66666666697711,253.8896437678486 80.92753623239696,252.04718575940933 80.05797101557255,251.02359720063396 80.05797101557255,251.84246809210163 78.1449275361374,252.25190340471454 76.2318840585649,252.04718575940933 74.84057970996946,251.22831495699938 71.53623188473284,251.02359720063396 73.10144927632064,251.22831495699938 73.97101449314505,252.25190340471454 75.7101449277252,251.43303269089665 79.18840579781681,251.22831495699938 81.27536231931299,251.84246809210163 83.36231884080917,252.04718575940933 84.7536231894046,252.04718575940933 88.57971014454961,252.4566210275516 92.2318840585649,252.8660562071018 94.66666666697711,253.2754912978271 92.2318840585649,253.2754912978271 91.71014492865652,253.2754912978271 89.44927536323667,253.2754912978271 87.53623188473284,253.07077376369853 86.14492753706872,253.2754912978271 84.23188405763358,253.2754912978271 83.53623188380152,252.6613386287354 81.27536231931299,252.04718575940933 84.7536231894046,251.63775040290784 86.14492753706872,252.4566210275516 87.01449275389314,252.04718575940933 85.97101449314505,251.84246809210163 86.49275362398475,252.04718575940933 85.62318840622902,252.4566210275516 84.57971014548093,252.4566210275516 85.97101449314505,251.63775040290784" stroke="#4dd2ff" stroke-linecap="round" stroke-linejoin="round" stroke-width="0.5"><title>2024-04-24 3.4km</title><desc>9223370322893282018</desc></polyline><polyline fill="none" points="141.33333333209157,251.8695558840409 108.50980392098427,246.88407397922128 105.33333333209157,253.11592602077872 109.56862745434046,248.13044465705752" stroke="#4dd2ff" stroke-linecap="round" stroke-linejoin="round" stroke-width="0.5"><title>2024-04-23 3.1km</title><desc>9223370322979897699</desc></polyline></svg>