<?xml version="1.0" encoding="utf-8" ?>
<svg baseProfile="full" height="300mm" version="1.1" viewBox="0,0,200,300" width="200mm" xmlns="http://www.w3.org/2000/svg" xmlns:ev="http://www.w3.org/2001/xml-events" xmlns:xlink="http://www.w3.org/1999/xlink"><defs /><rect fill="#222222" height="300" width="200" x="0" y="0" /><text fill="#FFFFFF" style="font-size:12px; font-family:Arial; font-weight:bold;" x="10" y="20">Over 3km Runs</text><text fill="#FFFFFF" style="font-size:4px; font-family:Arial" x="10" y="280">ATHLETE</text><text fill="#FFFFFF" style="font-size:9px; font-family:Arial" x="10" y="290">L</text><text fill="#FFFFFF" style="font-size:4px; font-family:Arial" x="120" y="280">STATISTICS</text><text fill="#FFFFFF" style="font-size:3px; font-family:Arial" x="120" y="285">Number: 8</text><text fill="#FFFFFF" style="font-size:3px; font-family:Arial" x="120" y="290">Weekly: 4.0</text><text fill="#FFFFFF" style="font-size:3px; font-family:Arial" x="141" y="285">Total: 43.2 km</text><text fill="#FFFFFF" style="font-size:3px; font-family:Arial" x="141" y="290">Avg: 5.4 km</text><text fill="#FFFFFF" style="font-size:3px; font-family:Arial" x="167" y="285">Min: 3.1 km</text><text fill="#FFFFFF" style="font-size:3px; font-family:Arial" x="167" y="290">Max: 10.1 km</text><polyline fill="none" points="33.4465149641037,33.0 66.21394035220146,87.0 13.78605967760086,87.0" stroke="#4dd2ff" stroke-linecap="round" stroke-linejoin="round" stroke-width="0.5"><title>2024-05-02 6.8km</title><desc>9223370322200251369</desc></polyline><polyline fill="none" points="146.5,75.8912412840873 133.0,80.43159087374806 187.0,60.00000996515155 179.28571428358555,66.81053914688528 185.07142855972052,53.18947856687009 187.0,39.568409126251936 187.0,41.83858797699213" stroke="#4dd2ff" stroke-linecap="round" stroke-linejoin="round" stroke-width="0.5"><title>2024-05-01 4.0km</title><desc>9223370322286947528</desc></polyline><polyline fill="none" points="22.529411766678095,117.7565357373096 67.0,125.23475372977555 13.0,118.50435790186748 31.423529412597418,114.76524626975879 25.705882351845503,117.00871349312365 30.788235291838646,118.50435790186748 28.8823529407382,115.51306875934824 23.800000000745058,117.7565357373096 28.24705882743001,117.00871349312365 16.81176470592618,118.50435790186748 26.341176468878984,117.00871349312365 38.411764707416296,114.76524626975879 39.68235294148326,115.51306875934824 22.529411766678095,116.26089116604999 23.164705883711576,118.50435790186748" stroke="#4dd2ff" stroke-linecap="round" stroke-linejoin="round" stroke-width="0.5"><title>2024-04-30 5.3km</title><desc>9223370322373916531</desc></polyline><polyline fill="none" points="135.183514774777,104.82542821147945 133.58786936290562,106.80260791117325 133.3359253499657,111.74553840805311 133.3359253499657,114.90899986802833 134.17573872487992,117.77587733854307 135.85536547424272,118.96216882823501 138.45878693601117,118.66559610044351 140.3903576983139,117.97359269391745 141.5660964231938,118.96216882823501 144.16951788496226,117.87473502149805 147.1088646966964,115.69986351864645 147.8646967341192,114.51356778544141 149.54432348394766,113.22841233352665 153.74339035805315,109.07635926676448 156.3468118198216,106.7037490279181 159.62208398152143,103.44139987131348 164.24105754308403,102.65052559110336 170.20373250404373,102.74938491365174 172.5552099533379,102.25508819398237 174.7387247281149,102.94710352655966 180.3654743391089,103.0459628169192 182.4650077763945,103.34254062385298 185.90824261307716,107.0991844960954 186.7480559879914,112.04211338644382 186.7480559879914,117.57816194009501 186.7480559879914,123.60846230742754 186.7480559879914,129.34215354954358 185.90824261307716,133.1975463598501 181.87713841395453,137.05292287439806 176.16640746500343,137.3494896235643 170.53965785400942,137.2506340513355 164.07309486810118,137.54720073612407 158.44634525710717,137.2506340513355 155.75894245738164,135.57008768199012 151.81181959575042,134.48267367540393 146.01710730977356,134.48267367540393 141.5660964231938,134.28496189881116 140.810264385771,133.09869033761788 140.30637636082247,126.96959602768766 140.810264385771,121.53246176289394 141.9020217731595,119.75302896444919 144.25349922245368,117.08387325692456 146.77293934719637,115.6010055996594 151.30793157080188,112.04211338644382 155.2550544324331,108.1866311506601 159.20217729452997,104.33113261673134 161.5536547433585,102.84824422554811 167.51632970478386,103.0459628169192 172.05132192885503,103.63911833422026 173.39502332825214,103.34254062385298 176.92223950242624,103.0459628169192 181.62519440148026,103.0459628169192 183.64074650174007,104.52885088679614 186.49611197598279,108.77978332474595 186.83203732548282,114.61242582235718 186.49611197598279,119.35759898199467 186.7480559879914,124.20160445210058 186.91601866297424,130.23186102911131 184.3965785386972,134.87809710059082 181.28926905151457,137.44834518502466 174.7387247281149,137.54720073612407 170.1197511665523,137.64605627651326 164.66096423054114,137.54720073612407 159.03421461908147,137.44834518502466 155.50699844490737,135.47123191691935 153.07153965812176,134.87809710059082 150.88802488381043,135.1746645567473 144.6734059099108,134.58152954786783 141.48211508616805,134.58152954786783 140.2223950237967,133.09869033761788 140.2223950237967,127.36502270988422 141.06220839824528,121.13703255227301 143.41368584753945,118.66559610044351 146.3530326592736,115.99643721064785 149.8802488334477,113.22841233352665 153.65940902009606,109.07635926676448 158.1944012446329,105.12200543965446 161.21772939385846,102.94710352655966 167.76827371725813,102.74938491365174 171.04354587895796,103.0459628169192 173.39502332825214,102.94710352655966 179.86158631416038,102.74938491365174 182.4650077763945,103.24368136556586 186.24416796304286,107.59347859077388 186.91601866297424,111.25124656409025 186.4121306380257,116.29301080625737 186.66407465049997,117.67701964481967 186.4121306380257,123.90503342816373 186.32814930053428,130.42957368452335 185.82426127558574,133.29640237172134 182.96889580134302,136.06436634721467 181.4572317264974,137.3494896235643 175.2426127535291,137.44834518502466 170.7916018664837,137.3494896235643 165.16485225502402,137.15177846810548 159.03421461908147,137.15177846810548 155.17107309494168,135.1746645567473 153.07153965812176,134.6803854093887 148.70451010903344,134.38381779240444 142.48989113559946,134.28496189881116 140.72628304874524,133.1975463598501 140.3903576983139,128.65015824319562 140.64230171078816,124.10274745471543 143.41368584753945,118.66559610044351 146.85692068422213,116.68844211735995 150.13219284638762,113.32727050967515 150.97200622130185,112.23982998443535 153.5754276830703,109.86722797498805 156.26283048233017,107.0991844960954 160.37791601894423,103.54025910823839 162.89735614322126,102.94710352655966 166.1726283049211,103.24368136556586 170.37169517902657,103.0459628169192 172.5552099533379,103.54025910823839 177.09020217787474,102.94710352655966 181.4572317264974,102.94710352655966 184.48055987618864,105.41858257132117 186.66407465049997,108.58206597599201 186.49611197598279,114.61242582235718 186.4121306380257,119.06102638290031 186.58009331300855,124.79474621103145 186.49611197598279,130.42957368452335 186.32814930053428,132.70326614117948 183.80870917625725,135.37237614073092 179.52566096466035,137.44834518502466 174.7387247281149,137.54720073612407 169.86780715407804,137.54720073612407 165.5847589429468,137.74491180595942 162.0575427687727,137.54720073612407 159.8740279939957,137.54720073612407 156.26283048233017,136.36093341797823 152.65163297066465,134.6803854093887 149.6283048214391,134.28496189881116 145.93312597228214,133.98839415301336 141.81804043566808,134.28496189881116 140.810264385771,133.3952583723585 140.13841368583962,128.94672772457125 140.72628304874524,125.98102857201593 142.06998444814235,125.48674444243079 141.06220839824528,125.48674444243079 140.64230171078816,123.21303399681346 142.82581648556516,119.15988392662257 144.16951788496226,117.57816194009501 146.43701399723068,116.19415295158979 149.6283048214391,113.52498682925943 152.73561430815607,110.95467132888734 155.42301710741594,108.08777241758071 159.45412130653858,104.23227346577914 161.04976671887562,103.34254062385298 166.5925349923782,103.14482209668495 171.29548989143223,103.54025910823839 172.5552099533379,103.73797754949192 176.50233281543478,103.34254062385298 181.28926905151457,103.14482209668495 184.9004665631801,106.11059550399659 186.7480559879914,111.15238816296915 186.83203732548282,116.98501548793865 186.66407465049997,122.71874836704228 186.58009331300855,128.3535886654863 186.24416796304286,132.30784177337773 181.9611197509803,136.65750039211707 176.25038880249485,137.05292287439806 170.7916018664837,136.95406726998044 165.24883359251544,136.8552116547362 162.22550544375554,137.15177846810548 158.36236391915008,137.44834518502466 154.58320373296738,135.0758087488357 148.87247278401628,134.58152954786783 143.41368584753945,134.48267367540393 141.48211508616805,133.98839415301336 140.72628304874524,132.80212220625253 140.55832037329674,127.26616605534218 140.47433903627098,124.10274745471543 141.1461897357367,120.74160316999769 144.00155520997941,118.07245035551023 147.02488335920498,115.0078578616376 151.22395023377612,111.54782170249382 155.84292379487306,107.69233737746254 159.7060653185472,103.93569594807923 161.13374805636704,103.0459628169192 166.76049766736105,103.24368136556586 172.639191291295,103.63911833422026 176.7542768274434,103.34254062385298 182.04510108893737,103.44139987131348 184.9844479006715,106.40717231394956 186.24416796304286,108.08777241758071 186.66407465049997,111.64668006077409 186.91601866297424,115.79872142663226 186.66407465049997,121.63131903891917 186.66407465049997,127.06845271441853 186.32814930053428,130.7261425871984 185.57231726311147,133.29640237172134 182.80093312636018,136.4597890865989 179.3576982896775,137.2506340513355 173.6469673407264,137.44834518502466 167.18040435481817,137.3494896235643 162.22550544375554,137.15177846810548 158.27838258212432,137.44834518502466 155.75894245738164,135.37237614073092 151.72783825872466,134.48267367540393 145.34525660984218,134.18610599415842 141.98600311018527,134.38381779240444 140.72628304874524,133.49411436275113 140.64230171078816,129.93529196555028 140.64230171078816,124.39931841479847 141.5660964231938,120.44503102090675 139.71850699884817,117.57816194009501 139.80248833587393,112.93183774146019 139.88646967336535,110.75695445179008" stroke="#4dd2ff" stroke-linecap="round" stroke-linejoin="round" stroke-width="0.5"><title>2024-04-27 10.1km</title><desc>9223370322649067555</desc></polyline><polyline fill="none" points="40.0,175.4596509002149 55.42857141792774,175.4596509002149 36.142857134342194,184.5403490997851 13.0,175.4596509002149 67.0,184.5403490997851 24.571428567171097,184.5403490997851" stroke="#4dd2ff" stroke-linecap="round" stroke-linejoin="round" stroke-width="0.5"><title>2024-04-26 5.2km</title><desc>9223370322713802999</desc></polyline><polyline fill="none" points="162.57142857462168,201.18832335341722 187.0,158.81167664658278 179.28571428358555,158.81167664658278 172.85714285820723,161.8385842423886 166.4285714328289,163.3520377986133 154.85714285820723,163.3520377986133 140.71428571641445,173.9462080867961 135.5714285671711,184.54037034139037 148.42857141792774,187.56727236509323 133.0,180.00001607555896 140.71428571641445,186.05382143799216 149.71428570896387,187.56727236509323 152.28571428358555,190.59417373035103 141.99999999254942,199.6748739015311 145.85714285820723,195.13452455494553 140.71428571641445,192.10762416943908 141.99999999254942,192.10762416943908" stroke="#4dd2ff" stroke-linecap="round" stroke-linejoin="round" stroke-width="0.5"><title>2024-04-25 5.2km</title><desc>9223370322805955311</desc></polyline><polyline fill="none" points="32.826086956076324,240.92124243313447 27.608695652335882,235.0867787951138 28.65217391308397,236.62216512835585 27.869565217755735,238.15755062899552 26.826086956076324,239.38585842959583 24.217391304671764,238.15755062899552 24.739130434580147,239.69293529726565 22.913043479435146,240.30708893202245 21.869565217755735,239.38585842959583 19.521739129908383,238.46462762868032 15.869565216824412,239.07878152886406 16.130434783175588,240.0000121309422 15.347826087847352,239.69293529726565 17.173913042992353,240.6141656988766 18.739130434580147,242.14954903628677 23.173913042992353,242.14954903628677 25.260869565419853,240.92124243313447 25.521739130839705,239.38585842959583 24.478260868228972,240.92124243313447 23.69565217383206,239.69293529726565 25.000000000931323,239.07878152886406 30.739130434580147,239.07878152886406 32.826086956076324,239.69293529726565 36.47826087009162,239.38585842959583 37.0,237.85047359508462 35.69565217476338,236.3150879277382 31.782608696259558,234.47262402973138 29.69565217383206,233.24431409686804 26.826086956076324,231.7089259342756 25.260869565419853,237.23631942784414 25.260869565419853,239.07878152886406 23.95652173925191,240.30708893202245 22.391304347664118,240.0000121309422 20.30434782616794,240.30708893202245 17.95652173832059,239.69293529726565 17.434782608412206,241.84247243544087 19.782608696259558,242.76370213809423 17.95652173832059,243.9920079431031 19.782608696259558,244.2990843106527 19.26086956448853,245.83446565177292 17.95652173832059,246.7556940561626 13.0,248.29107406595722 20.04347826074809,243.0707786390558 21.869565217755735,242.14954903628677 21.34782608691603,240.30708893202245 27.086956521496177,242.14954903628677 29.43478260934353,241.84247243544087 31.26086956448853,242.76370213809423 30.217391303740442,243.9920079431031 30.739130434580147,245.22031321539544 32.30434782616794,246.44861795473844 32.30434782616794,247.67692216136493 30.217391303740442,248.29107406595722 26.043478259816766,246.44861795473844 25.782608695328236,244.606160645606 28.391304347664118,244.2990843106527 29.69565217383206,245.22031321539544 32.826086956076324,244.2990843106527 33.34782608784735,246.14154181978665 31.26086956448853,247.3698461598251 28.913043478503823,247.3698461598251 21.869565217755735,243.0707786390558 17.95652173832059,239.69293529726565 16.130434783175588,239.07878152886406 14.304347825236619,239.38585842959583 15.347826087847352,238.15755062899552 17.434782608412206,238.771704595536 19.0,238.46462762868032 17.95652173832059,239.69293529726565 15.60869565140456,239.69293529726565 13.0,240.0000121309422 18.739130434580147,240.30708893202245 20.826086957007647,239.38585842959583 22.391304347664118,239.38585842959583 23.69565217383206,240.6141656988766 26.826086956076324,239.07878152886406 28.130434781312943,239.69293529726565 29.69565217383206,239.69293529726565 30.739130434580147,240.6141656988766 32.30434782616794,241.22831913363189 33.869565217755735,240.92124243313447 35.173913043923676,241.22831913363189 36.73913043551147,243.0707786390558 39.34782608691603,244.91323694656603 41.434782608412206,244.606160645606 43.0,245.22031321539544 40.9130434775725,244.2990843106527 37.0,243.3778551069554 38.565217391587794,242.76370213809423 38.826086956076324,244.606160645606 40.65217391401529,244.2990843106527 40.9130434775725,242.76370213809423 42.21739130374044,243.9920079431031 43.78260869625956,244.2990843106527 39.34782608691603,244.2990843106527 41.434782608412206,244.606160645606 41.95652173925191,243.6849315413274 43.26086956541985,244.2990843106527 44.565217391587794,245.22031321539544 40.130434782244265,246.7556940561626 43.0,245.83446565177292 46.39130434859544,243.0707786390558 45.0869565224275,241.53539580083452 45.0869565224275,242.76370213809423 42.21739130374044,243.3778551069554 39.34782608691603,243.0707786390558 37.26086956448853,241.84247243544087 32.30434782616794,241.53539580083452 34.65217391401529,241.84247243544087 35.95652173925191,243.3778551069554 38.565217391587794,242.14954903628677 43.78260869625956,241.84247243544087 46.913043479435146,242.76370213809423 50.04347826074809,243.0707786390558 52.13043478317559,243.0707786390558 57.86956521682441,243.6849315413274 63.34782608691603,244.2990843106527 67.0,244.91323694656603 63.34782608691603,244.91323694656603 62.565217392519116,244.91323694656603 59.173913044855,244.91323694656603 56.304347827099264,244.606160645606 54.217391304671764,244.91323694656603 51.34782608691603,244.91323694656603 50.30434782616794,243.9920079431031 46.913043479435146,243.0707786390558 52.13043478317559,242.45662560430355 54.217391304671764,243.6849315413274 55.521739130839705,243.0707786390558 53.956521740183234,242.76370213809423 54.73913043551147,243.0707786390558 53.43478260934353,243.6849315413274 51.869565217755735,243.6849315413274 53.956521740183234,242.45662560430355 51.34782608691603,243.3778551069554 48.217391304671764,244.91323694656603 44.82608695700765,245.83446565177292 45.869565217755735,246.44861795473844 48.99999999906868,246.14154181978665 48.73913043551147,244.2990843106527 47.69565217383206,243.9920079431031 48.217391304671764,243.3778551069554 50.04347826074809,243.9920079431031 51.869565217755735,245.83446565177292 51.0869565224275,246.7556940561626 48.73913043551147,247.67692216136493 45.0869565224275,245.5273894497659" stroke="#4dd2ff" stroke-linecap="round" stroke-linejoin="round" stroke-width="0.5"><title>2024-04-24 3.4km</title><desc>9223370322893282018</desc></polyline><polyline fill="none" points="187.0,242.804333826527 137.7647058814764,235.3261109702289 133.0,244.67388903163373 139.3529411777854,237.19566698744893" stroke="#4dd2ff" stroke-linecap="round" stroke-linejoin="round" stroke-width="0.5"><title>2024-04-23 3.1km</title><desc>9223370322979897699</desc></polyline></svg>