<?xml version="1.0" encoding="utf-8" ?>
<svg baseProfile="full" height="300mm" version="1.1" viewBox="0,0,200,300" width="200mm" xmlns="http://www.w3.org/2000/svg" xmlns:ev="http://www.w3.org/2001/xml-events" xmlns:xlink="http://www.w3.org/1999/xlink"><defs /><rect fill="#222222" height="300" width="200" x="0" y="0" /><text fill="#FFFFFF" style="font-size:12px; font-family:Arial; font-weight:bold;" x="10" y="20">Over 3km Runs</text><text fill="#FFFFFF" style="font-size:4px; font-family:Arial" x="10" y="280">ATHLETE</text><text fill="#FFFFFF" style="font-size:9px; font-family:Arial" x="10" y="290">L</text><text fill="#FFFFFF" style="font-size:4px; font-family:Arial" x="120" y="280">STATISTICS</text><text fill="#FFFFFF" style="font-size:3px; font-family:Arial" x="120" y="285">Number: 6</text><text fill="#FFFFFF" style="font-size:3px; font-family:Arial" x="120" y="290">Weekly: 3.0</text><text fill="#FFFFFF" style="font-size:3px; font-family:Arial" x="141" y="285">Total: 32.4 km</text><text fill="#FFFFFF" style="font-size:3px; font-family:Arial" x="141" y="290">Avg: 5.4 km</text><text fill="#FFFFFF" style="font-size:3px; font-family:Arial" x="167" y="285">Min: 3.1 km</text><text fill="#FFFFFF" style="font-size:3px; font-family:Arial" x="167" y="290">Max: 10.1 km</text><polyline fill="none" points="26.705882355570793,67.00871431734413 86.0,76.97967164032161 14.0,68.00581053644419 38.56470588594675,63.02032836060971 30.9411764703691,66.0116179920733 37.717647057026625,68.00581053644419 35.1764705888927,64.01742501370609 28.400000002235174,67.00871431734413 34.32941176742315,66.0116179920733 19.082352943718433,68.00581053644419 31.788235295563936,66.0116179920733 47.8823529407382,63.02032836060971 49.57647059112787,64.01742501370609 26.705882355570793,65.01452155504376 27.55294117704034,68.00581053644419" stroke="#4dd2ff" stroke-linecap="round" stroke-linejoin="round" stroke-width="0.5"><title>2024-04-30 5.3km</title><desc>9223370322373916531</desc></polyline><polyline fill="none" points="116.91135303257033,49.76723761530593 114.78382581658661,52.40347721497528 114.44790046615526,58.99405121081509 114.44790046615526,63.21199982415419 115.56765163270757,67.03450311813504 117.80715396581218,68.61622510442976 121.278382581193,68.22079480066895 123.8538102642633,67.29812359192874 125.42146189697087,68.61622510442976 128.89269051281735,67.16631336207502 132.81181959575042,64.2664846915286 133.8195956456475,62.68475704733282 136.05909797828645,60.97121644485742 141.6578538105823,55.43514568905812 145.12908242596313,52.27166537055746 149.49611197551712,47.92186649516225 155.65474339062348,46.86736745480448 163.60497667174786,46.99917988490779 166.74027993762866,46.340117592015304 169.65163297066465,47.262804702157155 177.15396578563377,47.39461708930321 179.9533437010832,47.790054165176116 184.54432348394766,52.798912661499344 185.66407465049997,59.38948451541364 185.66407465049997,66.77088258694857 185.66407465049997,74.81128307664767 185.66407465049997,82.45620473276358 184.54432348394766,87.59672847983893 179.16951788542792,92.73723049927503 171.55520995287225,93.13265283149667 164.05287713836879,93.0008454018971 155.43079315731302,93.39626764820423 147.9284603423439,93.0008454018971 144.34525660984218,90.76011690939777 139.08242612704635,89.31023156724405 131.35614307969809,89.31023156724405 125.42146189697087,89.04661586519796 124.41368584753945,87.46492045023479 123.74183514760807,79.29279470362235 124.41368584753945,72.04328235064168 125.86936236405745,69.67070528597105 129.00466562993824,66.11183100927155 132.36391912959516,64.13467413291801 138.41057542758062,59.38948451541364 143.6734059099108,54.24884153425228 148.93623639224097,49.108176822424866 152.0715396576561,47.13099230080843 160.02177293924615,47.39461708930321 166.06842923816293,48.18549111241009 167.86003110418096,47.790054165176116 172.56298600276932,47.39461708930321 178.83359253546223,47.39461708930321 181.52099533518776,49.37180118239485 185.32814930099994,55.03971109970007 185.77604976668954,62.81656776322052 185.32814930099994,69.14346530940384 185.66407465049997,75.60213926946744 185.88802488381043,83.64248137222603 182.52877138461918,89.83746280078776 178.38569206837565,93.26446024677716 169.65163297066465,93.39626764820423 163.4930015555583,93.52807503542863 156.21461897389963,93.39626764820423 148.71228615846485,93.26446024677716 144.0093312598765,90.62830922263674 140.7620528768748,89.83746280078776 137.85069984477013,90.23288607574068 129.56454121274874,89.44203939719591 125.30948678124696,89.44203939719591 123.62986003095284,87.46492045023479 123.62986003095284,79.82003027992323 124.74961119703948,71.5160434031859 127.88491446338594,68.22079480066895 131.80404354585335,64.66191628098022 136.5069984444417,60.97121644485742 141.54587869346142,55.43514568905812 147.5925349923782,50.16267391957808 151.62363919103518,47.262804702157155 160.3576982896775,46.99917988490779 164.72472783830017,47.39461708930321 167.86003110418096,47.262804702157155 176.4821150857024,46.99917988490779 179.9533437010832,47.6582418208709 184.9922239505686,53.457971454481594 185.88802488381043,58.33499541890342 185.21617418387905,65.05734774179291 185.55209953384474,66.90269285987597 185.21617418387905,75.20671123766806 185.10419906675816,83.90609824610874 184.43234836682677,87.72853649570607 180.6251944010146,91.41915512969717 178.6096423016861,93.13265283149667 170.3234836710617,93.26446024677716 164.38880248833448,93.13265283149667 156.88646967336535,92.86903795751277 148.71228615846485,92.86903795751277 143.5614307927899,90.23288607574068 140.7620528768748,89.57384721259587 134.93934681173414,89.17842372332234 126.65318818064407,89.04661586519796 124.30171073134989,87.59672847983893 123.8538102642633,81.53354432433844 124.189735614229,75.47032993962057 127.88491446338594,68.22079480066895 132.47589424578473,65.58458948985208 136.84292379487306,61.10302734631114 137.9626749609597,59.65310664603021 141.4339035768062,56.48963730002288 145.01710730977356,52.798912661499344 150.5038880254142,48.05367881106213 153.8631415241398,47.262804702157155 158.23017107322812,47.6582418208709 163.82892690552399,47.39461708930321 166.74027993762866,48.05367881106213 172.78693623654544,47.262804702157155 178.6096423016861,47.262804702157155 182.6407465012744,50.558110095211305 185.55209953384474,54.77608796802815 185.32814930099994,62.81656776322052 185.21617418387905,68.74803517723922 185.44012441672385,76.39299494808074 185.32814930099994,83.90609824610874 185.10419906675816,86.93768818827812 181.74494556803256,90.49650152097456 176.03421461954713,93.26446024677716 169.65163297066465,93.39626764820423 163.1570762055926,93.39626764820423 157.4463452566415,93.6598824079847 152.74339035805315,93.39626764820423 149.83203732548282,93.39626764820423 145.01710730977356,91.81457789079286 140.2021772940643,89.57384721259587 136.17107309540734,89.04661586519796 131.2441679625772,88.65119220409542 125.75738724693656,89.04661586519796 124.41368584753945,87.86034449655563 123.51788491429761,81.92897029954474 124.30171073134989,77.9747047626879 126.09331259690225,77.315659256652 124.74961119703948,77.315659256652 124.189735614229,74.28404532920104 127.10108864679933,68.87984523549676 128.89269051281735,66.77088258694857 131.91601866250858,64.92553726886399 136.17107309540734,61.366649105679244 140.31415241071954,57.9395617719274 143.89735614322126,54.11702989018522 149.272161741741,48.976364621077664 151.39968895819038,47.790054165176116 158.7900466560386,47.52642946236301 165.06065318826586,48.05367881106213 166.74027993762866,48.317303399322554 172.0031104204245,47.790054165176116 178.38569206837565,47.52642946236301 183.2006220840849,51.480794005445205 185.66407465049997,58.203184217331 185.77604976668954,65.98002065066248 185.55209953384474,73.62499782280065 185.44012441672385,81.13811822072603 184.9922239505686,86.41045569791459 179.28149300115183,92.21000052290037 171.66718506999314,92.73723049927503 164.38880248833448,92.6054230267182 156.99844479002059,92.47361553972587 152.9673405913636,92.86903795751277 147.81648522568867,93.26446024677716 142.77760497666895,90.10107833193615 135.16329704551026,89.44203939719591 127.88491446338594,89.31023156724405 125.30948678124696,88.65119220409542 124.30171073134989,87.06949627504218 124.0777604971081,79.68822140723933 123.9657853813842,75.47032993962057 124.86158631416038,70.9888042267412 128.66874027997255,67.42993380734697 132.69984447862953,63.34381048229989 138.29860031139106,58.73042893665843 144.45723172603175,53.58978317002766 149.60808709124103,48.58092793088872 151.5116640748456,47.39461708930321 159.01399688981473,47.6582418208709 166.85225505474955,48.18549111241009 172.33903576992452,47.790054165176116 179.39346811827272,47.92186649516225 183.31259720074013,51.87622975197155 184.9922239505686,54.11702989018522 185.55209953384474,58.86224008107092 185.88802488381043,64.39829523558728 185.55209953384474,72.17509205196984 185.55209953384474,79.42460361926351 185.10419906675816,84.30152344959788 184.09642301686108,87.72853649570607 180.4012441681698,91.94638544891495 175.81026438623667,93.0008454018971 168.19595645414665,93.26446024677716 159.57387247262523,93.13265283149667 152.9673405913636,92.86903795751277 147.70451010903344,93.26446024677716 144.34525660984218,90.49650152097456 138.97045101132244,89.31023156724405 130.46034214599058,88.91480799228884 125.98133748024702,89.17842372332234 124.30171073134989,87.9921524837846 124.189735614229,83.24705595406704 124.189735614229,75.86575788643677 125.42146189697087,70.59337469458114 122.95800933102146,66.77088258694857 123.06998444721103,60.57578365528025 123.18195956433192,57.67593926913105" stroke="#4dd2ff" stroke-linecap="round" stroke-linejoin="round" stroke-width="0.5"><title>2024-04-27 10.1km</title><desc>9223370322649067555</desc></polyline><polyline fill="none" points="50.0,143.94620119780302 70.5714285671711,143.94620119780302 44.857142835855484,156.0537987984717 14.0,143.94620119780302 86.0,156.0537987984717 29.42857140302658,156.0537987984717" stroke="#4dd2ff" stroke-linecap="round" stroke-linejoin="round" stroke-width="0.5"><title>2024-04-26 5.2km</title><desc>9223370322713802999</desc></polyline><polyline fill="none" points="153.42857142537832,178.2510978039354 186.0,121.74890219420195 175.71428570896387,121.74890219420195 167.14285714179277,125.78477898798883 158.57142857462168,127.80271706171334 143.14285714179277,127.80271706171334 124.28571428358555,141.9282774478197 117.42857141792774,156.05382711999118 134.57142855972052,160.08969648368657 114.0,150.0000214315951 124.28571428358555,158.07176191546023 136.28571427613497,160.08969648368657 139.71428570896387,164.12556497193873 125.99999999254942,176.2331652007997 131.14285714179277,170.17936607077718 124.28571428358555,166.1434988901019 125.99999999254942,166.1434988901019" stroke="#4dd2ff" stroke-linecap="round" stroke-linejoin="round" stroke-width="0.5"><title>2024-04-25 5.2km</title><desc>9223370322805955311</desc></polyline><polyline fill="none" points="40.434782607480884,231.2283232442569 33.478260869160295,223.44903839356266 34.86956521682441,225.49622017121874 33.82608695700765,227.5434008387383 32.434782607480884,229.18114457279444 28.956521740183234,227.5434008387383 29.652173912152648,229.59058039658703 27.217391304671764,230.40945190936327 25.826086957007647,229.18114457279444 22.69565217383206,227.95283683831804 17.826086955145,228.77170870522968 18.173913044855,230.00001617474481 17.130434783175588,229.59058039658703 19.56521739065647,230.81888759857975 21.652173912152648,232.8660653817933 27.56521739065647,232.8660653817933 30.347826087847352,231.2283232442569 30.69565217383206,229.18114457279444 29.304347824305296,231.2283232442569 28.26086956448853,229.59058039658703 30.0,228.77170870522968 37.65217391215265,228.77170870522968 40.434782607480884,229.59058039658703 45.30434782616794,229.18114457279444 46.0,227.13396479329094 44.260869566351175,225.08678390388377 39.04347826167941,222.63016537297517 36.26086956448853,220.99241879582405 32.434782607480884,218.94523457903415 30.347826087847352,226.31509257038124 30.347826087847352,228.77170870522968 28.608695652335882,230.40945190936327 26.52173912897706,230.00001617474481 23.739130433648825,230.40945190936327 20.608695650473237,229.59058039658703 19.913043478503823,232.45662991399877 23.04347826167941,233.68493618420325 20.608695650473237,235.3226772574708 23.04347826167941,235.73211241420358 22.347826085984707,237.77928753569722 20.608695650473237,239.00759207480587 14.0,241.05476542119868 23.391304347664118,234.09437151881866 25.826086957007647,232.8660653817933 25.130434781312943,230.40945190936327 32.782608695328236,232.8660653817933 35.91304347850382,232.45662991399877 38.34782608598471,233.68493618420325 36.95652173832059,235.3226772574708 37.65217391215265,236.96041762060486 39.73913043551147,238.59815727290697 39.73913043551147,240.23589621507563 36.95652173832059,241.05476542119868 31.391304345801473,238.59815727290697 31.043478259816766,236.14154752739705 34.52173912897706,235.73211241420358 36.26086956448853,236.96041762060486 40.434782607480884,235.73211241420358 41.13043478317559,238.1887224263046 38.34782608598471,239.8264615465887 35.217391304671764,239.8264615465887 25.826086957007647,234.09437151881866 20.608695650473237,229.59058039658703 18.173913044855,228.77170870522968 15.739130433648825,229.18114457279444 17.130434783175588,227.5434008387383 19.913043478503823,228.3622727941256 22.0,227.95283683831804 20.608695650473237,229.59058039658703 17.47826086729765,229.59058039658703 14.0,230.00001617474481 21.652173912152648,230.40945190936327 24.43478260934353,229.18114457279444 26.52173912897706,229.18114457279444 28.26086956448853,230.81888759857975 32.434782607480884,228.77170870522968 34.17391304112971,229.59058039658703 36.26086956448853,229.59058039658703 37.65217391215265,230.81888759857975 39.73913043551147,231.6377588447649 41.82608695700765,231.2283232442569 43.56521739065647,231.6377588447649 45.65217391401529,234.09437151881866 49.13043478317559,236.5509825956542 51.91304347850382,236.14154752739705 54.0,236.96041762060486 51.21739130280912,235.73211241420358 46.0,234.50380680942908 48.08695652149618,233.68493618420325 48.434782607480884,236.14154752739705 50.86956521868706,235.73211241420358 51.21739130280912,233.68493618420325 52.95652173832059,235.3226772574708 55.04347826167941,235.73211241420358 49.13043478317559,235.73211241420358 51.91304347850382,236.14154752739705 52.60869565233588,234.91324205510318 54.34782608598471,235.73211241420358 56.08695652149618,236.96041762060486 50.17391304299235,239.00759207480587 54.0,237.77928753569722 58.521739130839705,234.09437151881866 56.78260869719088,232.04719440126792 56.78260869719088,233.68493618420325 52.95652173832059,234.50380680942908 49.13043478317559,234.09437151881866 46.34782608598471,232.45662991399877 39.73913043551147,232.04719440126792 42.86956521868706,232.45662991399877 44.60869565233588,234.50380680942908 48.08695652149618,232.8660653817933 55.04347826167941,232.45662991399877 59.217391304671764,233.68493618420325 63.39130434766412,234.09437151881866 66.173913044855,234.09437151881866 73.826086955145,234.91324205510318 81.13043478317559,235.73211241420358 86.0,236.5509825956542 81.13043478317559,236.5509825956542 80.08695652335882,236.5509825956542 75.56521739251912,236.5509825956542 71.73913043551147,236.14154752739705 68.95652174018323,236.5509825956542 65.13043478131294,236.5509825956542 63.739130433648825,235.3226772574708 59.217391304671764,234.09437151881866 66.173913044855,233.27550080581568 68.95652174018323,234.91324205510318 70.69565217383206,234.09437151881866 68.60869565233588,233.68493618420325 69.6521739140153,234.09437151881866 67.91304347850382,234.91324205510318 65.82608695700765,234.91324205510318 68.60869565233588,233.27550080581568 65.13043478131294,234.50380680942908 60.95652173832059,236.5509825956542 56.43478260934353,237.77928753569722 57.82608695700765,238.59815727290697 61.999999998137355,238.1887224263046 61.65217391401529,235.73211241420358 60.26086956448853,235.3226772574708 60.95652173832059,234.50380680942908 63.39130434766412,235.3226772574708 65.82608695700765,237.77928753569722 64.78260869719088,239.00759207480587 61.65217391401529,240.23589621507563 56.78260869719088,237.36985259968787" stroke="#4dd2ff" stroke-linecap="round" stroke-linejoin="round" stroke-width="0.5"><title>2024-04-24 3.4km</title><desc>9223370322893282018</desc></polyline><polyline fill="none" points="186.0,233.73911176808178 120.3529411777854,223.76814795844257 114.0,236.23185204155743 122.47058824449778,226.26088931411505" stroke="#4dd2ff" stroke-linecap="round" stroke-linejoin="round" stroke-width="0.5"><title>2024-04-23 3.1km</title><desc>9223370322979897699</desc></polyline></svg>