<?xml version="1.0" encoding="utf-8" ?>
<svg baseProfile="full" height="300mm" version="1.1" viewBox="0,0,200,300" width="200mm" xmlns="http://www.w3.org/2000/svg" xmlns:ev="http://www.w3.org/2001/xml-events" xmlns:xlink="http://www.w3.org/1999/xlink"><defs /><rect fill="#222222" height="300" width="200" x="0" y="0" /><text fill="#FFFFFF" style="font-size:12px; font-family:Arial; font-weight:bold;" x="10" y="20">Over 3km Runs</text><text fill="#FFFFFF" style="font-size:4px; font-family:Arial" x="10" y="280">ATHLETE</text><text fill="#FFFFFF" style="font-size:9px; font-family:Arial" x="10" y="290">L</text><text fill="#FFFFFF" style="font-size:4px; font-family:Arial" x="120" y="280">STATISTICS</text><text fill="#FFFFFF" style="font-size:3px; font-family:Arial" x="120" y="285">Number: 19</text><text fill="#FFFFFF" style="font-size:3px; font-family:Arial" x="120" y="290">Weekly: 2.7</text><text fill="#FFFFFF" style="font-size:3px; font-family:Arial" x="141" y="285">Total: 100.4 km</text><text fill="#FFFFFF" style="font-size:3px; font-family:Arial" x="141" y="290">Avg: 5.3 km</text><text fill="#FFFFFF" style="font-size:3px; font-family:Arial" x="167" y="285">Min: 3.0 km</text><text fill="#FFFFFF" style="font-size:3px; font-family:Arial" x="167" y="290">Max: 10.1 km</text><polyline fill="none" points="39.84148158552125,72.20479043832165 39.84148158552125,71.65957975795027 39.942918291315436,69.87249246198917 39.942918291315436,69.08495865156874 40.120432526571676,66.41944227923523 40.196510055917315,65.8136393741297 40.14579170290381,65.08667406474706 40.24722840881441,64.54144877725048 40.22186923236586,63.08750920704915 40.2979467617115,61.78501491859788 40.32330593816005,58.543896764633246 40.42474264407065,56.938468455686234 40.37402429105714,56.60526513811783 40.399383467505686,55.27244768850505 40.37402429105714,54.36370468448149 40.399383467505686,53.121750884864014 40.50082017341629,52.06154182794853 40.450101820519194,51.84949950882583 40.37402429105714,51.78891595796449 39.740044879494235,51.78891595796449 39.15678382094484,51.66774881479796 37.99026170372963,51.60716522243456 37.48307817452587,51.51628980811802 36.747662057052366,51.54658161642146 36.062964292708784,51.39512254067813 35.78401335165836,51.39512254067813 35.4797032342758,51.485997996496735 34.71892794035375,51.51628980811802 34.237103587482125,51.304247053863946 32.969144764589146,51.24366337864194 32.487320411833934,51.12249598669587 32.03085523552727,50.94074479539995 31.67582676501479,51.001328539685346 31.041847353451885,51.001328539685346 30.382508765440434,50.880161037348444 29.84996605978813,50.849869153084 29.038472412968986,50.63782586681191 28.252337942714803,50.51665819858317 27.187252531410195,50.48636627296219 25.462828532094136,50.2743226964667 25.057081708684564,50.244030743138865 24.778130767517723,50.092570924782194 24.727412414737046,49.91081902870792 24.727412414737046,49.759359020303236 24.854208296979778,49.27468641332234 25.64034276723396,47.63890983580495 25.843216178938746,46.911894790275255 26.654709825641476,45.0337633798481 26.90830159035977,44.30674120420008 26.90830159035977,44.09469269483816 26.80686488444917,43.70088787120767 26.90830159035977,43.42825342062861 27.237970884307288,42.7921052807942 27.364766766666435,42.27712709939806 27.491562649025582,41.398632603435544 28.049464531126432,38.73283841641387 28.12554206047207,38.27843901110464 28.12554206047207,38.06638568924973 28.226978766266257,37.733158698742045 28.404493001522496,36.703181721037254 28.886317354277708,34.855271838314366 29.19062747177668,33.401169777382165 29.21598664834164,33.128524754720274 29.494937589392066,32.34088200592669 29.469578412827104,32.280294005409814 29.368141707149334,32.25 29.241345824673772,32.522645924502285 29.165268295328133,32.79529156911303 29.01311323652044,33.7646960389975 28.607366413227282,35.33997075629304 28.252337942714803,37.06670346335159 27.998746178112924,38.06638568924973 27.94802782521583,38.39961226194282 27.9226686488837,39.18723704435979 27.77051358995959,39.823393817583565 27.491562649025582,40.520135201950325 27.415485119563527,40.85335869624396 27.26333006087225,42.09536985587329 27.237970884307288,42.458884218591265 26.37575888459105,44.45820432159235 26.046089590759948,45.427566227386706 25.74177947314456,46.03341562228161 24.575257355929352,48.820305041066604 24.448461473570205,49.304978477128316 24.499179826583713,49.63819095148938 24.676694061723538,49.88052703399444 25.031722532236017,50.122862895339495 25.51354688499123,50.244030743138865 27.7197952370625,50.425782411242835 28.784880648483522,50.54695012079901 29.393500883481465,50.698409680160694 29.90068441280164,50.698409680160694 30.40786794188898,50.78928537425236 30.788255588850006,50.7287015816255 31.80262264725752,50.78928537425236 33.32417323498521,51.03162040669122 34.11030770523939,51.12249598669587 34.338540293392725,51.21337153582135 35.251470646006055,51.45570618138299 35.631858292850666,51.425414362805896 36.417992763221264,51.57687342114514 37.00125382177066,51.57687342114514 37.38164146873169,51.63745702043525 38.67495946818963,51.60716522243456 39.63860817370005,51.72833239330794 40.32330593816005,51.69804060575552 40.50082017341629,51.78891595796449 40.55153852631338,53.00058434961829 40.47546099696774,53.909332016686676 40.52617934986483,54.33341319739702 40.47546099696774,55.060407932294765 40.50082017341629,55.817691998847295 40.450101820519194,56.029731150658336 40.42474264407065,56.7567212433205 40.450101820519194,57.63516495117801 40.399383467505686,58.39244167818106 40.42474264407065,59.57378906215308 40.399383467505686,59.72524347514263 40.42474264407065,59.846406943310285 40.37402429105714,60.30076945669134 40.42474264407065,60.99745713468292 40.34866511472501,61.482108354975935 40.37402429105714,62.602860915474594 40.32330593816005,63.99622237079893 40.34866511472501,64.48086812061956 40.24722840881441,65.35928628887632 40.27258758514654,66.26799168245634 40.22186923236586,66.84350349087617 40.24722840881441,67.35843405223568 40.27258758514654,67.60075397099718 40.22186923236586,67.93394349867594 40.27258758514654,68.14597298044828 40.27258758514654,68.72148072088021 40.06971417355817,69.59988486871589 40.01899582054466,69.7513335661788 39.96827746776398,70.1148100879509 39.81612240895629,71.90189575403929 39.84148158552125,72.75" stroke="#4dd2ff" stroke-linecap="round" stroke-linejoin="round" stroke-width="0.5"><title>2024-07-21 4.3km</title><desc>11945152036</desc></polyline><polyline fill="none" points="69.92098737321794,64.819979486987 70.8834016751498,68.21856265352108 72.08641955256462,69.91785257891752 74.9736624583602,71.90035609551705 77.13909463770688,72.75 80.02633754257113,72.75 82.67297687288374,71.90035609551705 85.31961620226502,69.91785257891752 86.76323765423149,67.36891727615148 87.4850483816117,63.40390186337754 84.8384090512991,38.19759176648222 83.63539117388427,36.21506268181838 81.95116614643484,34.232532092835754 79.78573396708816,32.81643789424561 77.37969821225852,32.25 74.2518517319113,32.53321896167472 71.36460882611573,33.6660945052281 69.43978022318333,35.64862552424893 67.75555519387126,38.76402837224305 67.51495161931962,41.87942750588991 69.92098737321794,65.10319492011331 70.64279810059816,67.93534755846485 72.80823027901351,70.48428230849095 75.4548696083948,72.18357076100074 78.10150893777609,72.75 81.22935541998595,72.46678539551795 84.1165983248502,70.76749712787569 86.04142692871392,68.78499275096692 87.24444480519742,66.23605634341948 87.4850483816117,63.12068624608219 85.07901262585074,38.76402837224305 83.87599474936724,36.498281214153394 82.43237329646945,34.51575084030628 80.02633754257113,32.81643789424561 77.86090536415577,32.25 74.9736624583602,32.25 71.36460882611573,33.94931331393309 69.19917664770037,35.93184411851689 67.75555519387126,39.3304648543708 67.51495161931962,42.162645424716175 70.16159094963223,66.51927162287757 71.36460882611573,69.0682077545207 72.80823027901351,70.48428230849095 74.9736624583602,71.90035609551705 77.86090536415577,72.75 80.50754469353706,72.75 82.91358044650406,71.61714139929973 85.56021977774799,69.35142272640951 86.76323765423149,67.36891727615148 87.4850483816117,63.40390186337754 84.8384090512991,38.48081008531153 83.63539117388427,35.93184411851689 81.71056257002056,33.94931331393309 79.30452681705356,32.53321896167472 76.65788748580962,32.25 73.28943742904812,32.81643789424561 70.40219452418387,34.51575084030628 68.47736592125148,37.06471818871796 67.51495161931962,40.46333745121956 87.4850483816117,63.68711744924076 85.31961620226502,40.46333745121956 84.59780547581613,37.34793662908487 83.15418402291834,35.36540689948015 80.98875184357166,33.38287566578947 78.58271608967334,32.53321896167472 75.21426603291184,32.25 72.80823027901351,33.099656795850024 70.16159094963223,34.798969557508826 68.47736592125148,37.06471818871796 67.75555519387126,39.61368304933421 67.75555519387126,42.44586331327446 70.16159094963223,66.23605634341948 71.12400525063276,68.50177771784365 72.80823027901351,70.76749712787569 75.93607675842941,72.46678539551795 78.58271608967334,72.75 81.71056257002056,72.18357076100074 83.87599474936724,71.05071191582829 86.04142692871392,68.78499275096692 87.24444480519742,66.23605634341948 87.4850483816117,63.12068624608219 85.07901262585074,39.04724662913941 83.87599474936724,36.498281214153394 82.19176972005516,34.51575084030628 79.78573396708816,32.81643789424561 76.89849106129259,32.25 73.77064458001405,32.53321896167472 70.8834016751498,34.232532092835754 68.95857307128608,36.21506268181838 67.75555519387126,39.04724662913941 67.51495161931962,41.87942750588991 70.16159094963223,66.23605634341948 71.36460882611573,69.0682077545207 73.28943742904812,71.05071191582829 76.1766803348437,72.46678539551795 78.8233196651563,72.75 82.19176972005516,72.18357076100074 84.59780547581613,70.48428230849095 86.04142692871392,68.78499275096692 87.24444480519742,65.9528410336934 87.4850483816117,62.554254920221865 84.8384090512991,38.48081008531153 83.15418402291834,35.08218824444339 81.22935541998595,33.6660945052281 79.06392324063927,32.53321896167472 76.1766803348437,32.25 73.77064458001405,32.53321896167472 70.8834016751498,34.232532092835754 68.71796949673444,36.781499716918916 67.75555519387126,39.04724662913941 67.51495161931962,42.162645424716175 69.92098737321794,64.819979486987 70.40219452418387,67.08570208912715 72.08641955256462,69.91785257891752 74.2518517319113,71.61714139929973 77.13909463770688,72.75 80.26694111712277,72.75 83.15418402291834,71.61714139929973 85.56021977774799,69.63463766756468 87.00384123064578,67.08570208912715 87.4850483816117,64.25354852946475 85.31961620226502,40.46333745121956 84.35720189940184,37.06471818871796 81.95116614643484,34.232532092835754 79.06392324063927,32.53321896167472 75.69547318480909,32.25 72.56762670353055,33.099656795850024 70.8834016751498,33.94931331393309 69.19917664770037,35.93184411851689 67.99615877028555,38.19759176648222 67.51495161931962,40.18011934775859 69.92098737321794,64.53676402405836 70.8834016751498,67.93534755846485 72.56762670353055,70.48428230849095 75.21426603291184,72.18357076100074 78.58271608967334,72.75 80.98875184357166,72.46678539551795 83.63539117388427,71.33392667281441 85.56021977774799,69.63463766756468 87.00384123064578,66.80248687113635 87.4850483816117,64.53676402405836 87.24444480519742,61.987823471892625 76.41728391125798,32.25 74.2518517319113,32.53321896167472 87.4850483816117,62.2710392116569 85.07901262585074,39.89690121426247 84.1165983248502,36.781499716918916 82.43237329646945,34.51575084030628 79.30452681705356,32.81643789424561 75.93607675842941,32.25 73.04883385449648,32.81643789424561 70.8834016751498,33.94931331393309 68.95857307128608,36.21506268181838 67.99615877028555,38.76402837224305 67.51495161931962,40.74655552371405 69.92098737321794,64.819979486987 71.12400525063276,68.78499275096692" stroke="#4dd2ff" stroke-linecap="round" stroke-linejoin="round" stroke-width="0.5"><title>2024-07-05 3.3km</title><desc>11814633384</desc></polyline><polyline fill="none" points="120.95764794759452,32.25 117.87294384371489,33.0879374826327 115.02552466932684,35.32243610266596 113.12724522035569,38.67418040125631 113.12724522035569,41.74660884565674 115.50009453203529,64.92935992847197 116.21194932516664,68.00175707275048 117.63565891236067,69.9569169844035 119.77122329268605,71.6327671573963 122.14407260529697,72.75 124.75420684739947,72.75 127.12705615814775,72.19138363958336 129.49990547075868,70.5155338300392 130.9236150579527,68.56037434190512 132.11003971286118,65.76728678541258 132.11003971286118,62.694886977085844 129.73719040118158,39.791427532210946 128.5507657462731,36.160372585989535 125.70334657188505,33.64656231878325 121.90678767301142,32.25 117.87294384371489,33.0879374826327 114.78823973890394,35.60174829396419 113.12724522035569,38.9534922298044 113.12724522035569,42.30523180565797 115.50009453203529,64.92935992847197 116.68651918787509,68.8396829306148 118.58479863684624,71.07415055367164 120.72036301810294,72.19138363958336 123.33049726020545,72.75 126.1779164345935,72.47069183480926 129.26262053847313,70.794842206873 130.9236150579527,68.8396829306148 131.87275478243828,66.04659567750059 132.11003971286118,63.25350539665669 129.73719040118158,41.18798576435074 129.02533560805023,37.277620806824416 127.60162602178752,35.32243610266596 124.75420684739947,33.0879374826327 121.90678767301142,32.25 119.29665343090892,32.52931252354756 116.92380411922932,33.64656231878325 114.78823973890394,35.32243610266596 113.60181508306414,37.5569327857811 112.88996028807014,40.07073923898861 115.50009453203529,65.20866891066544 116.21194932516664,67.72244839277118 117.39837398193777,69.67760851699859 119.53393836226314,71.6327671573963 122.14407260529697,72.47069183480926 124.75420684739947,72.75 127.8389109512791,71.6327671573963 129.9744753325358,69.9569169844035 131.39818491972983,67.72244839277118 132.11003971286118,65.20866891066544 129.73719040118158,40.629362562671304 129.26262053847313,37.836244735401124 127.8389109512791,35.32243610266596 125.94063150230795,33.64656231878325 122.85592739842832,32.52931252354756 119.77122329268605,32.52931252354756 116.92380411922932,33.64656231878325 115.02552466932684,35.04312388156541 113.60181508306414,37.836244735401124 112.88996028807014,40.07073923898861 115.50009453203529,65.20866891066544 115.97466439474374,67.4431396825239 117.63565891236067,69.9569169844035 119.53393836226314,71.6327671573963 122.14407260529697,72.47069183480926 124.99149177782238,72.75 127.60162602178752,71.91207541315816 129.9744753325358,69.9569169844035 131.63546985015273,67.4431396825239 132.11003971286118,64.65005091577768 129.73719040118158,41.18798576435074 129.26262053847313,37.836244735401124 127.60162602178752,35.04312388156541 125.46606164053082,33.36724991584197 122.85592739842832,32.52931252354756 119.29665343090892,32.52931252354756 116.92380411922932,33.64656231878325 115.02552466932684,35.04312388156541 113.60181508306414,37.836244735401124 112.88996028807014,40.07073923898861 115.50009453203529,64.92935992847197 116.21194932516664,68.00175707275048 117.39837398193777,69.9569169844035 119.53393836226314,71.6327671573963 122.14407260529697,72.75 125.70334657188505,72.47069183480926 128.07619588356465,71.6327671573963 130.21176026389003,69.67760851699859 131.63546985015273,67.16383094154298 132.11003971286118,64.65005091577768 129.73719040118158,41.467297319555655 129.02533560805023,37.5569327857811 127.60162602178752,35.04312388156541 124.75420684739947,33.0879374826327 121.90678767301142,32.25 118.11022877506912,33.0879374826327 115.50009453203529,34.4844993466977 114.07638494484127,36.439684686018154 113.12724522035569,38.67418040125631 112.88996028807014,40.35005091619678 115.50009453203529,65.76728678541258 116.68651918787509,68.8396829306148 118.34751370549202,70.794842206873 120.95764794759452,72.19138363958336 123.56778219155967,72.75 127.12705615814775,72.19138363958336 129.02533560805023,70.794842206873 131.16089998744428,68.28106572199613 132.11003971286118,65.76728678541258 132.11003971286118,62.974196202354506 129.73719040118158,40.07073923898861 129.02533560805023,37.277620806824416 127.60162602178752,35.04312388156541 125.2287767091766,33.36724991584197 122.14407260529697,32.25 119.05936849862337,32.52931252354756 116.92380411922932,33.36724991584197 115.02552466932684,35.32243610266596 113.60181508306414,37.5569327857811 113.12724522035569,39.791427532210946 115.50009453203529,65.20866891066544 116.21194932516664,68.00175707275048 117.63565891236067,70.23622542293742 119.77122329268605,71.6327671573963 122.85592739842832,72.75 125.46606164053082,72.47069183480926 127.8389109512791,71.6327671573963 129.9744753325358,69.9569169844035 131.63546985015273,67.16383094154298 132.11003971286118,64.65005091577768 129.73719040118158,40.629362562671304 128.788050676696,36.99830879736692 126.65248629637063,34.20518703456037 123.09321232885122,32.52931252354756 120.4830780858174,32.25 117.16108904965222,33.36724991584197 115.73737946338952,34.4844993466977 114.07638494484127,36.439684686018154 113.60181508306414,37.5569327857811 112.88996028807014,40.35005091619678 115.26280960068107,64.65005091577768 116.21194932516664,68.00175707275048 118.34751370549202,70.794842206873 120.4830780858174,72.19138363958336 123.33049726020545,72.75 125.94063150230795,72.47069183480926 128.31348081398755,71.35345887043513 129.9744753325358,69.9569169844035 131.39818491972983,67.72244839277118 132.11003971286118,65.20866891066544 129.26262053847313,38.11555665382184 127.8389109512791,35.32243610266596 125.94063150230795,33.64656231878325 123.33049726020545,32.52931252354756 120.4830780858174,32.25 117.63565891236067,33.0879374826327 115.50009453203529,34.76381162926555 113.83910001348704,36.71899675694294 113.12724522035569,39.51211579423398 115.26280960068107,64.37074187234975 116.21194932516664,68.00175707275048 117.63565891236067,69.9569169844035 120.00850822404027,71.91207541315816 123.33049726020545,72.75 125.70334657188505,72.47069183480926 128.5507657462731,71.35345887043513 130.44904519524425,69.67760851699859 131.63546985015273,67.4431396825239 132.11003971286118,64.65005091577768 129.73719040118158,39.791427532210946 129.02533560805023,37.277620806824416 126.88977122772485,34.4844993466977 124.51692191511393,32.80862501822412 120.95764794759452,32.25 117.87294384371489,33.0879374826327 115.73737946338952,34.4844993466977 114.31366987619549,36.160372585989535 113.36453015170991,38.39486854313873 112.88996028807014,40.07073923898861" stroke="#4dd2ff" stroke-linecap="round" stroke-linejoin="round" stroke-width="0.5"><title>2024-06-26 3.9km</title><desc>11744480107</desc></polyline><polyline fill="none" points="175.8029933401849,32.60142738479772 177.70615136413835,32.55749897833448 180.09442810015753,32.25 180.8034477562178,32.25 180.99003187613562,32.29392843981623 181.17661599628627,32.46964215117623 181.32588329236023,32.733212575520156 181.28856646828353,35.01748240538291 181.32588329236023,35.50069168113987 181.47515058820136,36.11568447132595 181.62441788427532,38.883140478108544 181.58710106019862,39.585983438941184 181.69905153219588,41.167375643970445 181.66173470835201,42.880543569277506 181.84831882826984,45.29653731005965 181.81100200442597,46.219003848178545 181.8856356521137,47.5807363288186 181.84831882826984,48.63497768776142 181.9229524761904,50.128481585299596 181.8856356521137,50.78737861389527 182.07221977226436,53.33510371306329 182.07221977226436,53.73043893094291 182.18417024426162,54.696812284819316 182.07221977226436,55.53140559984604 182.29612071625888,57.33236426618532 182.14685342018493,58.913687228865456 182.2214870681055,59.35294251260348 182.29612071625888,61.59313705438399 182.37075436417945,61.988464217749424 182.33343754033558,62.6473419664253 182.40807118825614,63.174443394178525 182.33343754033558,64.53611891006585 182.40807118825614,64.71181864343816 182.40807118825614,65.59031616782886 182.55733848409727,66.90805888432078 182.4827048361767,67.7865516487218 182.5946553084068,69.41175824365928 182.5200216602534,70.59771570024895 182.66928895609453,71.65189719334012 182.5946553084068,72.48645559768192 182.2588038921822,72.61822782026138 181.54978423635475,72.61822782026138 180.57954681222327,72.75 179.79589350824244,72.66215188481146 178.90028973226435,72.44253151403973 177.9300523083657,72.26683513159514 176.43737934809178,72.17898691183655 175.5790923961904,71.95936627915944 174.123736260226,71.78366968716728 171.77277634828351,71.6958213627513 170.24278656416573,71.38835207716329 169.3471827879548,71.30050366700743 168.89938089996576,71.30050366700743 167.7425593561493,71.16873101599049 166.66037146002054,70.9051855855505 165.95135180396028,70.94910983595764 165.24233214790002,70.86126133057405 164.27209472400136,70.55379141206504 163.5257582438644,70.68556426273426 162.55552081996575,70.68556426273426 161.47333292406984,70.46594282091246 160.0552936119493,70.46594282091246 158.8611552438233,70.29024558182573 157.92823464400135,69.98277523001889 156.2489775638096,69.85100215062266 155.129472843837,69.58745586356963 152.5172951638233,69.27998497858061 152.33071104367264,68.97251386049902 152.33071104367264,68.75289149052696 152.77851293166168,67.65477785549592 152.7411961078178,67.30338086391566 152.8158297559712,66.64451068372 152.66656245966442,64.49219396474655 153.18899799580686,61.46136124766781 153.03973069996573,60.5828547742567 153.0770475238096,60.05574997625081 153.18899799580686,59.528644492675085 153.52484941179864,58.25480341081857 154.38313636393286,56.45384884328814 154.8682550759986,54.91644227114739 155.31605696398765,53.862217251298716 155.7265420279,52.72013705197605 156.13702709204517,51.84161163191311 156.36092803580686,51.138789924560115 157.10726451594383,49.51351005869219 157.33116545970552,48.63497768776142 157.66701687593013,48.195710788073484 157.85360099584796,47.6685898800788 158.3387197079137,47.05361462090514 159.15968983597122,45.6918803693261 159.12237301212735,45.6918803693261 159.30895713204518,45.516172390576685 159.7567590198014,44.76941263151821 160.12992725986987,43.97872432784061 161.13748150807805,42.22163368578185 161.77186751598492,41.3430855080951 162.63015446811914,40.0252596703649 163.48844142002054,38.48779077711515 163.82429283601232,37.69709021781455 164.27209472400136,37.03817190675181 164.79453025991097,35.67640400203527 165.50354991620407,35.10533868015045 166.88427240401506,32.9089260964538 167.29475746816024,32.64535578645882 167.48134158807807,32.60142738479772" stroke="#4dd2ff" stroke-linecap="round" stroke-linejoin="round" stroke-width="0.5"><title>2024-06-17 3.2km</title><desc>11672403120</desc></polyline><polyline fill="none" points="52.75,86.94790729880333 12.25,115.55209270119667" stroke="#4dd2ff" stroke-linecap="round" stroke-linejoin="round" stroke-width="0.5"><title>2024-05-09 8.0km</title><desc>9223370321595310162</desc></polyline><polyline fill="none" points="57.25,94.97715498134494 65.77631579339504,98.74086439795792 60.447368420660496,92.4680146900937 83.89473684132099,106.26827956177294 97.75,110.0319853099063 89.22368421405554,108.7774168625474 60.447368420660496,103.75914171803743" stroke="#4dd2ff" stroke-linecap="round" stroke-linejoin="round" stroke-width="0.5"><title>2024-05-08 6.2km</title><desc>9223370321684028463</desc></polyline><polyline fill="none" points="122.50000002980232,81.0 116.2443999350071,121.5 128.75560007989407,106.77273286134005 128.75560007989407,110.45455024763942" stroke="#4dd2ff" stroke-linecap="round" stroke-linejoin="round" stroke-width="0.5"><title>2024-05-07 6.1km</title><desc>9223370321771754451</desc></polyline><polyline fill="none" points="117.58488619327545,129.75 142.16045525670052,170.25 102.83954474329948,170.25" stroke="#4dd2ff" stroke-linecap="round" stroke-linejoin="round" stroke-width="0.5"><title>2024-05-02 6.8km</title><desc>9223370322200251369</desc></polyline><polyline fill="none" points="157.375,161.9184309625998 147.25,165.32369315624237 187.75,150.00000747479498 181.96428570896387,155.10790436062962 186.30357141792774,144.89210892654955 187.75,134.67630684468895 187.75,136.3789409827441" stroke="#4dd2ff" stroke-linecap="round" stroke-linejoin="round" stroke-width="0.5"><title>2024-05-01 4.0km</title><desc>9223370322286947528</desc></polyline><polyline fill="none" points="12.25,202.85979942325503 52.75,194.64020057674497 40.18103448301554,199.57196042127907 51.353448271751404,202.85979942325503" stroke="#4dd2ff" stroke-linecap="round" stroke-linejoin="round" stroke-width="0.5"><title>2024-04-30 5.3km</title><desc>9223370322373916531</desc></polyline><polyline fill="none" points="57.25,195.93472626793664 58.97204724373296,197.81166023784317 62.41614173189737,197.0608872602461 63.75551181100309,198.11196920106886 78.29724409431219,185.57395923056174 93.92322834627703,185.72411638125777 96.98464566911571,188.80233079823665 97.62244094465859,207.19625380076468 93.92322834627703,211.5506620311644 76.12874015746638,211.70081355096772 73.13110236194916,209.89899316593073 63.30905511765741,209.44853733747732 62.73503936990164,199.76366617128951 65.3499999998603,196.3851908846409 78.48858267674223,185.57395923056174 93.73188976361416,185.72411638125777 96.6657480315771,188.65217431494966 97.62244094465859,192.25592093379237 97.23976377933286,208.32239648437826 93.47677165316418,211.85096503788373 76.57519685011357,211.85096503788373 73.51377952727489,209.9740691089537 62.543700787005946,208.99808121594833 63.11771653499454,199.0128953094245 77.40433070831932,185.94935204647481 94.36968503892422,185.87427349953214 97.62244094465859,190.07865959370974 97.30354330688715,206.5205673117889 96.92086614132859,208.6977769721998 93.60433070850559,211.77588929852936 76.57519685011357,211.62573779502418 73.13110236194916,209.8239172147005 63.436614172998816,209.37346133746905 62.41614173189737,207.64671109378105 62.607480314560235,201.7156666041701 63.11771653499454,199.2381266534212 77.59566929121502,186.09950911585474 93.60433070850559,185.6490378099843 96.98464566911571,188.7272525606677 97.30354330688715,208.24732036248315 93.79566929116845,211.70081355096772 92.13740157475695,211.85096503788373 77.21299212588929,211.92604076943826 73.4499999997206,210.04914504371118 63.500393700553104,209.44853733747732 62.2248031492345,205.3944216988748 62.671259842347354,203.14212498022243 63.69173228321597,202.76674148184247 62.543700787005946,202.541511285468 62.607480314560235,201.03997476940276 65.28622047207318,196.76057784131262 78.10590551164933,185.94935204647481 94.68858267716132,186.39982315682573 97.43110236222856,189.62819087563548 97.55866141733713,207.04610130458605 93.98700787359849,211.2503588940017 76.06496062967926,211.85096503788373 71.2177165353205,209.67376528825844 63.69173228321597,209.44853733747732 62.671259842347354,208.32239648437826 62.47992125968449,201.7156666041701 63.30905511765741,198.71258673683042 77.59566929121502,185.94935204647481 94.0507874013856,186.024430585152 97.23976377933286,189.5531127275899 97.75,195.4091838450986 97.30354330688715,206.74579621461453 94.11456692917272,211.4005104788812 76.00118110212497,211.85096503788373 73.19488188950345,209.89899316593073 63.11771653499454,209.2983853293117 63.30905511765741,198.9378181786742" stroke="#4dd2ff" stroke-linecap="round" stroke-linejoin="round" stroke-width="0.5"><title>2024-04-27 9.8km</title><desc>1714200483443</desc></polyline><polyline fill="none" points="102.25,194.90784849203192 102.88380281697027,197.0714661135571 104.15140845067799,197.96675417444203 106.11619718302973,197.74293226841837 107.5739436619915,197.2206808712217 108.46126760565676,197.96675417444203 110.4260563380085,197.14607349637663 112.64436619728804,195.5047092048917 113.21478873258457,194.60941794147948 114.48239436629228,193.63951775885653 117.65140845091082,190.5059847519151 119.61619718326256,188.7153880575206 122.08802816923708,186.25330999691505 125.57394366222434,185.65644126193365 130.0739436619915,185.73104988213163 131.848591549322,185.35800670046592 133.49647887330502,185.88026709819678 137.74295774661005,185.95487569412217 139.32746478868648,186.17870143335313 141.92605633824132,189.01382116321474 142.5598591552116,192.74422406993108 142.5598591552116,196.92225132341264 142.5598591552116,201.47328786825528 142.5598591552116,205.80047503806418 141.92605633824132,208.7101200815523 138.8838028172031,211.6197528266348 134.57394366175868,211.84357022069162 130.32746478868648,211.76896443084115 125.44718309887685,211.99278177629458 121.20070422557183,211.76896443084115 119.17253521131352,210.5006647647824 116.19366197171621,209.67999902978772 111.82042253552936,209.67999902978772 108.46126760565676,209.5307869730168 107.89084507059306,208.63551395206014 107.51056338031776,204.00991812895518 107.89084507059306,199.90654097840888 108.71478873258457,198.56361223495333 110.48943661991507,196.54921420686878 112.39084507082589,195.43010164395673 115.81338028167374,192.74422406993108 118.79225352127105,189.8345115375123 121.77112676086836,186.92478670499986 123.54577464796603,185.80565849429695 128.04577464796603,185.95487569412217 131.46830985927954,186.4025270997663 132.48239436629228,186.17870143335313 135.1443661970552,185.95487569412217 138.69366197218187,185.95487569412217 140.2147887328174,187.07400366233196 142.3697183104232,190.28216042008717 142.62323943688534,194.68402559141396 142.3697183104232,198.26518326933729 142.5598591552116,201.92092918162234 142.6866197185591,206.47193267813418 140.7852112678811,209.97842304664664 138.44014084502123,211.918176002393 133.49647887330502,211.99278177629458 130.0105633805506,212.06738754210528 125.89084507059306,211.99278177629458 121.64436619728804,211.918176002393 118.98239436629228,210.4260588293546 117.14436619728804,209.97842304664664 115.49647887353785,210.20224097423488 110.80633802805096,209.7546050461824 108.39788732421584,209.7546050461824 107.44718309864402,208.63551395206014 107.44718309864402,204.3083446038654 108.08098591538146,199.6081125952769 109.8556338029448,197.74293226841837 112.0739436619915,195.72853183862753 114.73591549275443,193.63951775885653 117.58802816900425,190.5059847519151 121.0105633805506,187.5216543400893 123.29225352127105,185.88026709819678 128.2359154932201,185.73104988213163 130.70774647896178,185.95487569412217 132.48239436629228,185.88026709819678 137.36267605633475,185.73104988213163 139.32746478868648,186.10409286170034 142.1795774649363,189.3868623637827 142.6866197185591,192.14736096333945 142.30633802851662,195.952354399662 142.49647887353785,196.99685872264672 142.30633802851662,201.69710856146412 142.24295774661005,206.6211453981232 141.86267605633475,208.78472620312823 139.70774647896178,210.8736943207914 138.56690140860155,211.84357022069162 133.87676056381315,211.918176002393 130.51760563394055,211.84357022069162 126.27112676063552,211.694358632667 121.64436619728804,211.694358632667 118.72887323936448,210.20224097423488 117.14436619728804,209.8292110543698 113.84859154955484,209.60539300536038 109.15845070430078,209.5307869730168 107.82746478891931,208.7101200815523 107.5739436619915,205.2782297540689 107.76408450701274,201.84632231621072 109.8556338029448,197.74293226841837 112.45422535203397,196.2507843679632 114.92605633824132,193.71412551385583 115.55985915497877,192.8934397653211 117.5246478873305,191.10284928168403 119.55281690158881,189.01382116321474 122.6584507045336,186.32791855244432 124.55985915497877,185.88026709819678 127.03169014095329,186.10409286170034 130.20070422557183,185.95487569412217 131.848591549322,186.32791855244432 135.27112676086836,185.88026709819678 138.56690140860155,185.88026709819678 140.84859154955484,187.7454795697704 142.49647887353785,190.13294415804558 142.3697183104232,194.68402559141396 142.30633802851662,198.0413614604622 142.43309859163128,202.3685702039511 142.3697183104232,206.6211453981232 142.24295774661005,208.3370893530664 140.34154929616489,210.35145288560307 137.1091549298726,211.918176002393 133.49647887330502,211.99278177629458 129.82042253529653,211.99278177629458 126.58802816923708,212.1419932995923 123.92605633847415,211.99278177629458 122.27816901425831,211.99278177629458 119.55281690158881,211.09751195757417 116.82746478891931,209.8292110543698 114.54577464819886,209.5307869730168 111.75704225362279,209.30696882680058 108.65140845067799,209.5307869730168 107.89084507059306,208.85933231632225 107.38380281697027,205.5020492100739 107.82746478891931,203.26385137543548 108.84154929569922,202.89081769547192 108.08098591538146,202.89081769547192 107.76408450701274,201.1748601643485 109.41197183099575,198.1159687381005 110.4260563380085,196.92225132341264 112.13732394389808,195.87774688727222 114.54577464819886,193.8633409991744 116.89084507059306,191.92353716492653 118.91901408461854,189.75990336219547 121.96126760565676,186.85017821425572 123.16549295792356,186.17870143335313 127.34859154932201,186.0294842820149 130.897887323983,186.32791855244432 131.848591549322,186.47713563893922 134.82746478891931,186.17870143335313 138.44014084502123,186.0294842820149 141.16549295792356,188.26773815625347 142.5598591552116,192.0727530386066 142.62323943688534,196.47460675914772 142.49647887353785,200.80182535218773 142.43309859163128,205.0544102253043 142.1795774649363,208.03866462485166 138.94718309864402,211.32132952136453 134.63732394366525,211.6197528266348 130.51760563394055,211.54514701251173 126.33450704230927,211.4705411902396 124.05281690158881,211.694358632667 121.13732394366525,211.918176002393 118.2852112678811,210.12763500656 113.97535211290233,209.7546050461824 109.8556338029448,209.67999902978772 108.39788732421584,209.30696882680058 107.82746478891931,208.41169551492203 107.70070422510616,204.23373799724504 107.63732394389808,201.84632231621072 108.14436619728804,199.30968408263288 110.299295774661,197.2952882378595 112.58098591538146,194.9824561093119 115.75000000023283,192.37118468870176 119.23591549298726,189.46147057955386 122.15140845067799,186.6263526933035 123.2288732395973,185.95487569412217 127.47535211290233,186.10409286170034 131.91197183122858,186.4025270997663 135.01760563394055,186.17870143335313 139.01056338031776,186.25330999691505 141.22887323936448,188.49156314315042 142.1795774649363,189.75990336219547 142.49647887353785,192.44579258118756 142.6866197185591,195.57931675750297 142.49647887353785,199.98114805406658 142.49647887353785,204.08452475990634 142.24295774661005,206.8449644173961 141.67253521131352,208.78472620312823 139.5809859156143,211.172117820126 136.9823943665251,211.76896443084115 132.67253521131352,211.918176002393 127.79225352127105,211.84357022069162 124.05281690158881,211.694358632667 121.07394366222434,211.918176002393 119.17253521131352,210.35145288560307 116.1302816902753,209.67999902978772 111.31338028190657,209.45618093229132 108.77816901402548,209.60539300536038 107.82746478891931,208.93393842177466 107.76408450701274,206.24811353744008 107.76408450701274,202.0701428882312 108.46126760565676,199.0858626132831" stroke="#4dd2ff" stroke-linecap="round" stroke-linejoin="round" stroke-width="0.5"><title>2024-04-27 10.1km</title><desc>9223370322649067555</desc></polyline><polyline fill="none" points="167.50000001490116,195.34473817422986 179.0714285671711,195.34473817422986 164.60714285075665,202.1552618239075 147.25,195.34473817422986 187.75,202.1552618239075 155.92857141792774,202.1552618239075" stroke="#4dd2ff" stroke-linecap="round" stroke-linejoin="round" stroke-width="0.5"><title>2024-04-26 5.2km</title><desc>9223370322713802999</desc></polyline><polyline fill="none" points="59.59782608691603,247.50000909809023 59.01086956541985,247.26970147294924 60.380434782244265,247.96062427409925 61.55434782523662,249.11216177721508 64.88043478224427,249.11216177721508 66.44565217383206,248.19093182473443 66.64130434766412,247.03939382219687 65.85869565140456,248.19093182473443 65.27173912990838,247.26970147294924 66.25,246.80908614676446 70.55434782616794,246.80908614676446 72.11956521682441,247.26970147294924 74.85869565233588,247.03939382219687 75.25,245.88785519613884 74.2717391308397,244.73631594586186 71.3369565224275,243.35446802224033 69.77173912990838,242.43323557265103 67.61956521682441,241.2816944506485 66.44565217383206,245.4272395707667 66.44565217383206,246.80908614676446 65.46739130374044,247.73031669901684 64.29347825981677,247.50000909809023 62.728260869160295,247.73031669901684 60.96739130374044,247.26970147294924 60.576086956076324,248.88185432646424 62.33695652149618,249.57277660351247 60.96739130374044,250.4940059571527 62.33695652149618,250.7243132328149 61.945652172900736,251.8758492388297 60.96739130374044,252.56677054218017 57.25,253.7183055493515 62.532608695328236,249.80308397929184 63.90217391308397,249.11216177721508 63.51086956448853,247.73031669901684 67.8152173915878,249.11216177721508 69.57608695700765,248.88185432646424 70.94565217290074,249.57277660351247 70.1630434775725,250.4940059571527 70.55434782616794,251.41523491148837 71.7282608691603,252.33646346605383 71.7282608691603,253.25769162084907 70.1630434775725,253.7183055493515 67.03260869439691,252.33646346605383 66.83695652149618,250.95462048402987 68.79347826074809,250.7243132328149 69.77173912990838,251.41523491148837 72.11956521682441,250.7243132328149 72.51086956541985,252.10615636478178 70.94565217290074,253.02738461992703 69.1847826084122,253.02738461992703 63.90217391308397,249.80308397929184 60.96739130374044,247.26970147294924 59.59782608691603,246.80908614676446 58.228260869160295,247.03939382219687 59.01086956541985,246.11816297168843 60.576086956076324,246.578778446652 61.75,246.34847072139382 60.96739130374044,247.26970147294924 59.20652173832059,247.26970147294924 57.25,247.50000909809023 61.55434782523662,247.73031669901684 63.11956521682441,247.03939382219687 64.29347825981677,247.03939382219687 65.27173912990838,247.96062427409925 67.61956521682441,246.80908614676446 68.5978260859847,247.26970147294924 69.77173912990838,247.26970147294924 70.55434782616794,247.96062427409925 71.7282608691603,248.4212393502239 72.90217391308397,248.19093182473443 73.88043478224427,248.4212393502239 75.05434782616794,249.80308397929184 77.01086956541985,251.18492770986632 78.57608695607632,250.95462048402987 79.75,251.41523491148837 78.1847826084122,250.7243132328149 75.25,250.03339133015834 76.42391304299235,249.57277660351247 76.61956521682441,250.95462048402987 77.98913043551147,250.7243132328149 78.1847826084122,249.57277660351247 79.1630434775725,250.4940059571527 80.33695652149618,250.7243132328149 77.01086956541985,250.7243132328149 78.57608695607632,250.95462048402987 78.96739130467176,250.26369865587912 79.94565217383206,250.7243132328149 80.92391304392368,251.41523491148837 77.5978260859847,252.56677054218017 79.75,251.8758492388297 82.29347826074809,249.80308397929184 81.3152173915878,248.65154685056768 81.3152173915878,249.57277660351247 79.1630434775725,250.03339133015834 77.01086956541985,249.80308397929184 75.44565217290074,248.88185432646424 71.7282608691603,248.65154685056768 73.48913043458015,248.88185432646424 74.46739130374044,250.03339133015834 76.42391304299235,249.11216177721508 80.33695652149618,248.88185432646424 82.68478260934353,249.57277660351247 85.03260869532824,249.80308397929184 86.59782608691603,249.80308397929184 90.90217391215265,250.26369865587912 95.01086956541985,250.7243132328149 97.75,251.18492770986632 95.01086956541985,251.18492770986632 94.42391304392368,251.18492770986632 91.88043478317559,251.18492770986632 89.72826087009162,250.95462048402987 88.16304347850382,251.18492770986632 86.01086956448853,251.18492770986632 85.2282608691603,250.4940059571527 82.68478260934353,249.80308397929184 86.59782608691603,249.34246920305304 88.16304347850382,250.26369865587912 89.14130434766412,249.80308397929184 87.96739130467176,249.57277660351247 88.55434782616794,249.80308397929184 87.57608695607632,250.26369865587912 86.40217391308397,250.26369865587912 87.96739130467176,249.34246920305304" stroke="#4dd2ff" stroke-linecap="round" stroke-linejoin="round" stroke-width="0.5"><title>2024-04-24 3.4km</title><desc>9223370322893282018</desc></polyline><polyline fill="none" points="142.75,249.6032503694296 105.82352940738201,243.99458322674036 102.25,251.00541677325964 107.0147058814764,245.39675023965538" stroke="#4dd2ff" stroke-linecap="round" stroke-linejoin="round" stroke-width="0.5"><title>2024-04-23 3.1km</title><desc>9223370322979897699</desc></polyline></svg>