<?xml version="1.0" encoding="utf-8" ?>
<svg baseProfile="full" height="300mm" version="1.1" viewBox="0,0,200,300" width="200mm" xmlns="http://www.w3.org/2000/svg" xmlns:ev="http://www.w3.org/2001/xml-events" xmlns:xlink="http://www.w3.org/1999/xlink"><defs /><rect fill="#222222" height="300" width="200" x="0" y="0" /><text fill="#FFFFFF" style="font-size:12px; font-family:Arial; font-weight:bold;" x="10" y="20">Over 3km Runs</text><text fill="#FFFFFF" style="font-size:4px; font-family:Arial" x="10" y="280">ATHLETE</text><text fill="#FFFFFF" style="font-size:9px; font-family:Arial" x="10" y="290">L</text><text fill="#FFFFFF" style="font-size:4px; font-family:Arial" x="120" y="280">STATISTICS</text><text fill="#FFFFFF" style="font-size:3px; font-family:Arial" x="120" y="285">Number: 5</text><text fill="#FFFFFF" style="font-size:3px; font-family:Arial" x="120" y="290">Weekly: 5.0</text><text fill="#FFFFFF" style="font-size:3px; font-family:Arial" x="141" y="285">Total: 27.0 km</text><text fill="#FFFFFF" style="font-size:3px; font-family:Arial" x="141" y="290">Avg: 5.4 km</text><text fill="#FFFFFF" style="font-size:3px; font-family:Arial" x="167" y="285">Min: 3.1 km</text><text fill="#FFFFFF" style="font-size:3px; font-family:Arial" x="167" y="290">Max: 10.1 km</text><polyline fill="none" points="16.911353032570332,49.76723761530593 14.783825816586614,52.40347721497528 14.44790046615526,58.99405121081509 14.44790046615526,63.21199982415419 15.567651632707566,67.03450311813504 17.807153965812176,68.61622510442976 21.278382581193,68.22079480066895 23.853810264263302,67.29812359192874 25.421461896970868,68.61622510442976 28.892690512817353,67.16631336207502 32.81181959575042,64.2664846915286 33.819595645647496,62.68475704733282 36.059097978286445,60.97121644485742 41.65785381058231,55.43514568905812 45.129082425963134,52.27166537055746 49.496111975517124,47.92186649516225 55.65474339062348,46.86736745480448 63.60497667174786,46.99917988490779 66.74027993762866,46.340117592015304 69.65163297066465,47.262804702157155 77.15396578563377,47.39461708930321 79.95334370108321,47.790054165176116 84.54432348394766,52.798912661499344 85.66407465049997,59.38948451541364 85.66407465049997,66.77088258694857 85.66407465049997,74.81128307664767 85.66407465049997,82.45620473276358 84.54432348394766,87.59672847983893 79.16951788542792,92.73723049927503 71.55520995287225,93.13265283149667 64.05287713836879,93.0008454018971 55.43079315731302,93.39626764820423 47.9284603423439,93.0008454018971 44.34525660984218,90.76011690939777 39.08242612704635,89.31023156724405 31.356143079698086,89.31023156724405 25.421461896970868,89.04661586519796 24.413685847539455,87.46492045023479 23.74183514760807,79.29279470362235 24.413685847539455,72.04328235064168 25.86936236405745,69.67070528597105 29.004665629938245,66.11183100927155 32.36391912959516,64.13467413291801 38.410575427580625,59.38948451541364 43.6734059099108,54.24884153425228 48.93623639224097,49.108176822424866 52.0715396576561,47.13099230080843 60.02177293924615,47.39461708930321 66.06842923816293,48.18549111241009 67.86003110418096,47.790054165176116 72.56298600276932,47.39461708930321 78.83359253546223,47.39461708930321 81.52099533518776,49.37180118239485 85.32814930099994,55.03971109970007 85.77604976668954,62.81656776322052 85.32814930099994,69.14346530940384 85.66407465049997,75.60213926946744 85.88802488381043,83.64248137222603 82.52877138461918,89.83746280078776 78.38569206837565,93.26446024677716 69.65163297066465,93.39626764820423 63.493001555558294,93.52807503542863 56.21461897389963,93.39626764820423 48.71228615846485,93.26446024677716 44.00933125987649,90.62830922263674 40.762052876874804,89.83746280078776 37.85069984477013,90.23288607574068 29.564541212748736,89.44203939719591 25.30948678124696,89.44203939719591 23.62986003095284,87.46492045023479 23.62986003095284,79.82003027992323 24.749611197039485,71.5160434031859 27.88491446338594,68.22079480066895 31.804043545853347,64.66191628098022 36.506998444441706,60.97121644485742 41.54587869346142,55.43514568905812 47.592534992378205,50.16267391957808 51.62363919103518,47.262804702157155 60.3576982896775,46.99917988490779 64.72472783830017,47.39461708930321 67.86003110418096,47.262804702157155 76.48211508570239,46.99917988490779 79.95334370108321,47.6582418208709 84.99222395056859,53.457971454481594 85.88802488381043,58.33499541890342 85.21617418387905,65.05734774179291 85.55209953384474,66.90269285987597 85.21617418387905,75.20671123766806 85.10419906675816,83.90609824610874 84.43234836682677,87.72853649570607 80.6251944010146,91.41915512969717 78.60964230168611,93.13265283149667 70.3234836710617,93.26446024677716 64.38880248833448,93.13265283149667 56.886469673365355,92.86903795751277 48.71228615846485,92.86903795751277 43.561430792789906,90.23288607574068 40.762052876874804,89.57384721259587 34.93934681173414,89.17842372332234 26.653188180644065,89.04661586519796 24.301710731349885,87.59672847983893 23.853810264263302,81.53354432433844 24.189735614228994,75.47032993962057 27.88491446338594,68.22079480066895 32.47589424578473,65.58458948985208 36.84292379487306,61.10302734631114 37.9626749609597,59.65310664603021 41.43390357680619,56.48963730002288 45.017107309773564,52.798912661499344 50.5038880254142,48.05367881106213 53.86314152413979,47.262804702157155 58.23017107322812,47.6582418208709 63.828926905523986,47.39461708930321 66.74027993762866,48.05367881106213 72.78693623654544,47.262804702157155 78.60964230168611,47.262804702157155 82.6407465012744,50.558110095211305 85.55209953384474,54.77608796802815 85.32814930099994,62.81656776322052 85.21617418387905,68.74803517723922 85.44012441672385,76.39299494808074 85.32814930099994,83.90609824610874 85.10419906675816,86.93768818827812 81.74494556803256,90.49650152097456 76.03421461954713,93.26446024677716 69.65163297066465,93.39626764820423 63.1570762055926,93.39626764820423 57.44634525664151,93.6598824079847 52.74339035805315,93.39626764820423 49.832037325482816,93.39626764820423 45.017107309773564,91.81457789079286 40.20217729406431,89.57384721259587 36.17107309540734,89.04661586519796 31.244167962577194,88.65119220409542 25.75738724693656,89.04661586519796 24.413685847539455,87.86034449655563 23.51788491429761,81.92897029954474 24.301710731349885,77.9747047626879 26.09331259690225,77.315659256652 24.749611197039485,77.315659256652 24.189735614228994,74.28404532920104 27.101088646799326,68.87984523549676 28.892690512817353,66.77088258694857 31.916018662508577,64.92553726886399 36.17107309540734,61.366649105679244 40.314152410719544,57.9395617719274 43.89735614322126,54.11702989018522 49.272161741741,48.976364621077664 51.39968895819038,47.790054165176116 58.79004665603861,47.52642946236301 65.06065318826586,48.05367881106213 66.74027993762866,48.317303399322554 72.00311042042449,47.790054165176116 78.38569206837565,47.52642946236301 83.2006220840849,51.480794005445205 85.66407465049997,58.203184217331 85.77604976668954,65.98002065066248 85.55209953384474,73.62499782280065 85.44012441672385,81.13811822072603 84.99222395056859,86.41045569791459 79.28149300115183,92.21000052290037 71.66718506999314,92.73723049927503 64.38880248833448,92.6054230267182 56.998444790020585,92.47361553972587 52.96734059136361,92.86903795751277 47.816485225688666,93.26446024677716 42.777604976668954,90.10107833193615 35.16329704551026,89.44203939719591 27.88491446338594,89.31023156724405 25.30948678124696,88.65119220409542 24.301710731349885,87.06949627504218 24.077760497108102,79.68822140723933 23.965785381384194,75.47032993962057 24.861586314160377,70.9888042267412 28.668740279972553,67.42993380734697 32.69984447862953,63.34381048229989 38.298600311391056,58.73042893665843 44.45723172603175,53.58978317002766 49.60808709124103,48.58092793088872 51.51166407484561,47.39461708930321 59.013996889814734,47.6582418208709 66.85225505474955,48.18549111241009 72.33903576992452,47.790054165176116 79.39346811827272,47.92186649516225 83.31259720074013,51.87622975197155 84.99222395056859,54.11702989018522 85.55209953384474,58.86224008107092 85.88802488381043,64.39829523558728 85.55209953384474,72.17509205196984 85.55209953384474,79.42460361926351 85.10419906675816,84.30152344959788 84.09642301686108,87.72853649570607 80.4012441681698,91.94638544891495 75.81026438623667,93.0008454018971 68.19595645414665,93.26446024677716 59.573872472625226,93.13265283149667 52.96734059136361,92.86903795751277 47.704510109033436,93.26446024677716 44.34525660984218,90.49650152097456 38.97045101132244,89.31023156724405 30.46034214599058,88.91480799228884 25.98133748024702,89.17842372332234 24.301710731349885,87.9921524837846 24.189735614228994,83.24705595406704 24.189735614228994,75.86575788643677 25.421461896970868,70.59337469458114 22.958009331021458,66.77088258694857 23.069984447211027,60.57578365528025 23.18195956433192,57.67593926913105" stroke="#4dd2ff" stroke-linecap="round" stroke-linejoin="round" stroke-width="0.5"><title>2024-04-27 10.1km</title><desc>9223370322649067555</desc></polyline><polyline fill="none" points="150.0,63.94620119780302 170.5714285671711,63.94620119780302 144.85714283585548,76.05379879847169 114.0,63.94620119780302 186.0,76.05379879847169 129.42857140302658,76.05379879847169" stroke="#4dd2ff" stroke-linecap="round" stroke-linejoin="round" stroke-width="0.5"><title>2024-04-26 5.2km</title><desc>9223370322713802999</desc></polyline><polyline fill="none" points="53.42857142537832,178.2510978039354 86.0,121.74890219420195 75.71428570896387,121.74890219420195 67.14285714179277,125.78477898798883 58.57142857462168,127.80271706171334 43.142857141792774,127.80271706171334 24.28571428358555,141.9282774478197 17.428571417927742,156.05382711999118 34.571428559720516,160.08969648368657 14.0,150.0000214315951 24.28571428358555,158.07176191546023 36.28571427613497,160.08969648368657 39.71428570896387,164.12556497193873 25.99999999254942,176.2331652007997 31.142857141792774,170.17936607077718 24.28571428358555,166.1434988901019 25.99999999254942,166.1434988901019" stroke="#4dd2ff" stroke-linecap="round" stroke-linejoin="round" stroke-width="0.5"><title>2024-04-25 5.2km</title><desc>9223370322805955311</desc></polyline><polyline fill="none" points="140.43478260748088,151.2283232442569 133.4782608691603,143.44903839356266 134.8695652168244,145.49622017121874 133.82608695700765,147.5434008387383 132.43478260748088,149.18114457279444 128.95652174018323,147.5434008387383 129.65217391215265,149.59058039658703 127.21739130467176,150.40945190936327 125.82608695700765,149.18114457279444 122.69565217383206,147.95283683831804 117.826086955145,148.77170870522968 118.173913044855,150.00001617474481 117.13043478317559,149.59058039658703 119.56521739065647,150.81888759857975 121.65217391215265,152.8660653817933 127.56521739065647,152.8660653817933 130.34782608784735,151.2283232442569 130.69565217383206,149.18114457279444 129.3043478243053,151.2283232442569 128.26086956448853,149.59058039658703 130.0,148.77170870522968 137.65217391215265,148.77170870522968 140.43478260748088,149.59058039658703 145.30434782616794,149.18114457279444 146.0,147.13396479329094 144.26086956635118,145.08678390388377 139.0434782616794,142.63016537297517 136.26086956448853,140.99241879582405 132.43478260748088,138.94523457903415 130.34782608784735,146.31509257038124 130.34782608784735,148.77170870522968 128.60869565233588,150.40945190936327 126.52173912897706,150.00001617474481 123.73913043364882,150.40945190936327 120.60869565047324,149.59058039658703 119.91304347850382,152.45662991399877 123.04347826167941,153.68493618420325 120.60869565047324,155.3226772574708 123.04347826167941,155.73211241420358 122.3478260859847,157.77928753569722 120.60869565047324,159.00759207480587 114.0,161.05476542119868 123.39130434766412,154.09437151881866 125.82608695700765,152.8660653817933 125.13043478131294,150.40945190936327 132.78260869532824,152.8660653817933 135.91304347850382,152.45662991399877 138.3478260859847,153.68493618420325 136.9565217383206,155.3226772574708 137.65217391215265,156.96041762060486 139.73913043551147,158.59815727290697 139.73913043551147,160.23589621507563 136.9565217383206,161.05476542119868 131.39130434580147,158.59815727290697 131.04347825981677,156.14154752739705 134.52173912897706,155.73211241420358 136.26086956448853,156.96041762060486 140.43478260748088,155.73211241420358 141.1304347831756,158.1887224263046 138.3478260859847,159.8264615465887 135.21739130467176,159.8264615465887 125.82608695700765,154.09437151881866 120.60869565047324,149.59058039658703 118.173913044855,148.77170870522968 115.73913043364882,149.18114457279444 117.13043478317559,147.5434008387383 119.91304347850382,148.3622727941256 122.0,147.95283683831804 120.60869565047324,149.59058039658703 117.47826086729765,149.59058039658703 114.0,150.00001617474481 121.65217391215265,150.40945190936327 124.43478260934353,149.18114457279444 126.52173912897706,149.18114457279444 128.26086956448853,150.81888759857975 132.43478260748088,148.77170870522968 134.1739130411297,149.59058039658703 136.26086956448853,149.59058039658703 137.65217391215265,150.81888759857975 139.73913043551147,151.6377588447649 141.82608695700765,151.2283232442569 143.56521739065647,151.6377588447649 145.6521739140153,154.09437151881866 149.1304347831756,156.5509825956542 151.91304347850382,156.14154752739705 154.0,156.96041762060486 151.21739130280912,155.73211241420358 146.0,154.50380680942908 148.08695652149618,153.68493618420325 148.43478260748088,156.14154752739705 150.86956521868706,155.73211241420358 151.21739130280912,153.68493618420325 152.9565217383206,155.3226772574708 155.0434782616794,155.73211241420358 149.1304347831756,155.73211241420358 151.91304347850382,156.14154752739705 152.60869565233588,154.91324205510318 154.3478260859847,155.73211241420358 156.08695652149618,156.96041762060486 150.17391304299235,159.00759207480587 154.0,157.77928753569722 158.5217391308397,154.09437151881866 156.78260869719088,152.04719440126792 156.78260869719088,153.68493618420325 152.9565217383206,154.50380680942908 149.1304347831756,154.09437151881866 146.3478260859847,152.45662991399877 139.73913043551147,152.04719440126792 142.86956521868706,152.45662991399877 144.60869565233588,154.50380680942908 148.08695652149618,152.8660653817933 155.0434782616794,152.45662991399877 159.21739130467176,153.68493618420325 163.39130434766412,154.09437151881866 166.173913044855,154.09437151881866 173.826086955145,154.91324205510318 181.1304347831756,155.73211241420358 186.0,156.5509825956542 181.1304347831756,156.5509825956542 180.08695652335882,156.5509825956542 175.56521739251912,156.5509825956542 171.73913043551147,156.14154752739705 168.95652174018323,156.5509825956542 165.13043478131294,156.5509825956542 163.73913043364882,155.3226772574708 159.21739130467176,154.09437151881866 166.173913044855,153.27550080581568 168.95652174018323,154.91324205510318 170.69565217383206,154.09437151881866 168.60869565233588,153.68493618420325 169.6521739140153,154.09437151881866 167.91304347850382,154.91324205510318 165.82608695700765,154.91324205510318 168.60869565233588,153.27550080581568 165.13043478131294,154.50380680942908 160.9565217383206,156.5509825956542 156.43478260934353,157.77928753569722 157.82608695700765,158.59815727290697 161.99999999813735,158.1887224263046 161.6521739140153,155.73211241420358 160.26086956448853,155.3226772574708 160.9565217383206,154.50380680942908 163.39130434766412,155.3226772574708 165.82608695700765,157.77928753569722 164.78260869719088,159.00759207480587 161.6521739140153,160.23589621507563 156.78260869719088,157.36985259968787" stroke="#4dd2ff" stroke-linecap="round" stroke-linejoin="round" stroke-width="0.5"><title>2024-04-24 3.4km</title><desc>9223370322893282018</desc></polyline><polyline fill="none" points="86.0,233.73911176808178 20.352941177785397,223.76814795844257 14.0,236.23185204155743 22.470588244497776,226.26088931411505" stroke="#4dd2ff" stroke-linecap="round" stroke-linejoin="round" stroke-width="0.5"><title>2024-04-23 3.1km</title><desc>9223370322979897699</desc></polyline></svg>