<?xml version="1.0" encoding="utf-8" ?>
<svg baseProfile="full" height="300mm" version="1.1" viewBox="0,0,200,300" width="200mm" xmlns="http://www.w3.org/2000/svg" xmlns:ev="http://www.w3.org/2001/xml-events" xmlns:xlink="http://www.w3.org/1999/xlink"><defs /><rect fill="#222222" height="300" width="200" x="0" y="0" /><text fill="#FFFFFF" style="font-size:12px; font-family:Arial; font-weight:bold;" x="10" y="20">Over 3km Runs</text><text fill="#FFFFFF" style="font-size:4px; font-family:Arial" x="10" y="280">ATHLETE</text><text fill="#FFFFFF" style="font-size:9px; font-family:Arial" x="10" y="290">L</text><text fill="#FFFFFF" style="font-size:4px; font-family:Arial" x="120" y="280">STATISTICS</text><text fill="#FFFFFF" style="font-size:3px; font-family:Arial" x="120" y="285">Number: 15</text><text fill="#FFFFFF" style="font-size:3px; font-family:Arial" x="120" y="290">Weekly: 5.0</text><text fill="#FFFFFF" style="font-size:3px; font-family:Arial" x="141" y="285">Total: 85.8 km</text><text fill="#FFFFFF" style="font-size:3px; font-family:Arial" x="141" y="290">Avg: 5.7 km</text><text fill="#FFFFFF" style="font-size:3px; font-family:Arial" x="167" y="285">Min: 3.0 km</text><text fill="#FFFFFF" style="font-size:3px; font-family:Arial" x="167" y="290">Max: 10.1 km</text><polyline fill="none" points="46.0,57.53139706328511 55.599999994039536,34.930528613738716 48.400000005960464,40.58074940275401 44.79999999701977,46.23096774145961 38.79999999701977,49.056075987406075 32.79999999701977,54.70629065018147 35.19999999552965,66.00671262852848 31.600000001490116,64.59416041523218 24.399999991059303,58.94395004119724 23.19999999552965,63.18160805106163 28.0,68.83181658945978 26.799999997019768,63.18160805106163 13.599999994039536,58.94395004119724 24.399999991059303,60.356502862647176 18.399999991059303,61.769055533222854 12.399999998509884,66.00671262852848 50.80000000447035,46.23096774145961 44.79999999701977,73.0694713871926 30.399999998509884,64.59416041523218 24.399999991059303,61.769055533222854 31.600000001490116,56.11884393543005 25.599999994039536,51.88118362426758 31.600000001490116,60.356502862647176 29.19999999552965,49.056075987406075 33.99999999254942,44.81841338425875" stroke="#4dd2ff" stroke-linecap="round" stroke-linejoin="round" stroke-width="0.5"><title>2024-05-09 8.0km</title><desc>9223370321595310162</desc></polyline><polyline fill="none" points="78.39999999850988,47.30896531417966 87.49473684281111,51.32358869165182 81.81052631139755,44.63254900369793 106.82105262577534,59.352831532247365 121.59999999403954,63.36745099723339 112.50526315718889,62.029244653880596 81.81052631139755,56.676417832262814" stroke="#4dd2ff" stroke-linecap="round" stroke-linejoin="round" stroke-width="0.5"><title>2024-05-08 6.2km</title><desc>9223370321684028463</desc></polyline><polyline fill="none" points="166.00000002980232,32.400000002235174 159.32735992968082,75.60000000149012 172.67264008522034,59.89091505110264 172.67264008522034,63.818186931312084" stroke="#4dd2ff" stroke-linecap="round" stroke-linejoin="round" stroke-width="0.5"><title>2024-05-07 6.1km</title><desc>9223370321771754451</desc></polyline><polyline fill="none" points="31.121607173234224,102.42355924937874 49.111562326550484,85.48236533580348 46.952767711132765,88.87060705712065 41.91558026522398,88.87060705712065 38.31758923456073,89.71766725648195 36.15879461541772,93.10590713936836 33.28040178865194,95.6470860899426 49.83116053789854,80.39999999990687 39.75678564608097,92.25884730694816 18.16883946210146,123.60000000009313 40.47638385370374,103.27061798004434" stroke="#4dd2ff" stroke-linecap="round" stroke-linejoin="round" stroke-width="0.5"><title>2024-05-05 4.5km</title><desc>9223370321934722240</desc></polyline><polyline fill="none" points="111.00984002649784,112.08001373521984 98.77668444812298,117.84000811632723 79.20363550633192,123.59999999962747 96.33005332201719,97.68001685850322 120.79636450111866,80.3999999994412 113.45647113770247,90.48001256398857 95.10673777014017,102.00001755543053 96.33005332201719,109.200015604496 91.43679109215736,103.44001748040318 81.65026661753654,117.84000811632723 85.32021329551935,114.96001123916358" stroke="#4dd2ff" stroke-linecap="round" stroke-linejoin="round" stroke-width="0.5"><title>2024-05-04 3.0km</title><desc>9223370322023120704</desc></polyline><polyline fill="none" points="165.0081221461296,108.42164136376232 183.85380141437054,80.3999999994412 178.89441213011742,81.56756984256208 157.07309929654002,109.5892081707716 159.0568550080061,116.59460636414587 167.98375571519136,123.59999999962747 164.01624428853393,122.43243471067399 155.08934358507395,121.26486929319799 148.14619858935475,118.92973808106035 153.10558786988258,116.59460636414587 155.08934358507395,115.42704031430185" stroke="#4dd2ff" stroke-linecap="round" stroke-linejoin="round" stroke-width="0.5"><title>2024-05-03 5.0km</title><desc>9223370322115228759</desc></polyline><polyline fill="none" points="28.757211923599243,128.40000000223517 54.97115224599838,171.60000000149012 13.028847724199295,171.60000000149012" stroke="#4dd2ff" stroke-linecap="round" stroke-linejoin="round" stroke-width="0.5"><title>2024-05-02 6.8km</title><desc>9223370322200251369</desc></polyline><polyline fill="none" points="89.20000000298023,162.71299302764237 78.39999999850988,166.34527269937098 121.59999999403954,150.00000797212124 115.42857142537832,155.4484313186258 120.05714285373688,144.55158285424113 121.59999999403954,133.65472730062902 121.59999999403954,135.47087038122118" stroke="#4dd2ff" stroke-linecap="round" stroke-linejoin="round" stroke-width="0.5"><title>2024-05-01 4.0km</title><desc>9223370322286947528</desc></polyline><polyline fill="none" points="152.02352941408753,148.20522858994082 187.60000000149012,154.18780298391357 144.40000000037253,148.80348632205278 159.1388235297054,145.81219701608643 154.56470588222146,147.60697079496458 158.63058823533356,148.80348632205278 157.10588235221803,146.4104550080374 153.04000000096858,148.20522858994082 156.59764706157148,147.60697079496458 147.4494117666036,148.80348632205278 155.0729411765933,147.60697079496458 164.72941176593304,145.81219701608643 165.74588235467672,146.4104550080374 152.02352941408753,147.00871293293312 152.53176470659673,148.80348632205278" stroke="#4dd2ff" stroke-linecap="round" stroke-linejoin="round" stroke-width="0.5"><title>2024-04-30 5.3km</title><desc>9223370322373916531</desc></polyline><polyline fill="none" points="13.692598424851894,185.5472312248894 12.399999999906868,187.14890246512368 12.399999999906868,194.99704135244247 14.236850393237546,196.9991042536567 17.910551180597395,196.19827974418877 19.339212598046288,197.31943381438032 34.85039370064624,183.94555651256815 51.518110235920176,184.10572413995396 54.78362204693258,187.38915285136318 55.463937007589266,207.00933738739695 51.518110235920176,211.65403949981555 32.53732283436693,211.81420112098567 29.339842519257218,209.89225937688025 18.862992125563323,209.41177315992536 18.250708661042154,199.08124391600722 21.03999999957159,195.47753694356652 35.05448818858713,183.94555651256815 51.31401574774645,184.10572413995396 54.44346456672065,187.22898593591526 55.463937007589266,191.07298232929315 55.05574803124182,208.21055624994915 51.04188976320438,211.97436270705657 33.013543306617066,211.97436270705657 29.748031495604664,209.97234038281022 18.0466141726356,208.93128663027892 18.65889763715677,198.28042166330852 33.89795275544748,184.34597551613115 51.99433070817031,184.26589173270622 55.463937007589266,188.75057023321278 55.12377952714451,206.28860513248947 54.71559055079706,208.61096210364485 51.17795275547542,211.8942819183576 33.013543306617066,211.73412031459156 29.339842519257218,209.81217836227734 18.99905511760153,209.3316920932266 17.910551180597395,207.48982516664546 18.114645668771118,201.16337771102553 18.65889763715677,198.52066843025386 34.10204724385403,184.50614305684576 51.17795275547542,184.02564033056842 54.78362204693258,187.3090693979757 55.12377952714451,208.13047505327268 51.38204724364914,211.81420112098567 49.61322834622115,211.97436270705657 33.693858267506585,212.05444348737365 29.679999999701977,210.0524213798344 19.067086613737047,209.41177315992536 17.70645669242367,205.08738314540824 18.182677165139467,202.68493331217906 19.27118110191077,202.28452424728312 18.0466141726356,202.04427870444488 18.114645668771118,200.44263975397917 20.971968503436074,195.87794969737297 34.64629921223968,184.34597551613115 52.3344881888479,184.82647803390864 55.25984251964837,188.27007026731735 55.39590551168658,206.84917472483357 51.58614173159003,211.33371615357464 32.469291338231415,211.97436270705657 27.298897637519985,209.65201630740194 19.27118110191077,209.41177315992536 18.182677165139467,208.21055624994915 17.978582676965743,201.16337771102553 18.862992125563323,197.96009251917712 34.10204724385403,184.34597551613115 51.65417322795838,184.42605929076672 55.05574803124182,188.18998690939043 55.5999999998603,194.43646276800428 55.12377952714451,206.5288492955151 51.72220472432673,211.49387784407008 32.4012598420959,211.97436270705657 29.407874015392736,209.89225937688025 18.65889763715677,209.25161101785488 18.862992125563323,198.2003393904888 17.366299212211743,195.87794969737297 17.50236220424995,190.35223452886567" stroke="#4dd2ff" stroke-linecap="round" stroke-linejoin="round" stroke-width="0.5"><title>2024-04-27 9.8km</title><desc>1714200483443</desc></polyline><polyline fill="none" points="80.14681181963533,185.86034256918356 78.87029549013823,187.44208632898517 78.66874027997255,191.39643072645413 78.66874027997255,193.92719989444595 79.3405909796711,196.22070187085774 80.68429237953387,197.16973506263457 82.7670295489952,196.9324768804363 84.31228615855798,196.3788741551689 85.25287713832222,197.16973506263457 87.33561430778354,196.29978801723337 89.68709175754339,194.55989081494045 90.29175738734193,193.6108542283764 91.63545878697187,192.5827298669028 94.99471228639595,189.2610874134698 97.07744945585728,187.36299922235776 99.69766718521714,184.75311989709735 103.39284603437409,184.12042047292925 108.16298600332811,184.19950793095632 110.04416796262376,183.80407055519754 111.79097978235222,184.35768282128265 116.2923794714734,184.43677025358193 117.97200622083619,184.6740324991406 120.72659409046173,187.67934759688796 121.39844479039311,191.63369070918998 121.39844479039311,196.06252955214586 121.39844479039311,200.88676984596532 121.39844479039311,205.4737228396698 120.72659409046173,208.55803708796157 117.50171073130332,211.64233829954173 112.93312597181648,211.87959169887472 108.43172628316097,211.80050724110333 103.25847589457408,212.03776058898075 98.75707620568573,211.80050724110333 96.60715396585874,210.4560701456503 93.4494556763675,209.58613894035807 88.81368584791198,209.58613894035807 85.25287713832222,209.42796951910714 84.6482115087565,208.4789522701758 84.24510108865798,203.57567682216177 84.6482115087565,199.225969410385 85.52161741862074,197.80242317158263 87.40279937791638,195.66709860553965 89.41835147771053,194.48080447979737 93.04634525673464,191.63369070918998 96.20404354599304,188.54930492059793 99.36174183548428,185.46490609343164 101.24292379477993,184.27859538048506 106.01306376350112,184.43677025358193 109.6410575429909,184.9112946673995 110.71601866255514,184.6740324991406 113.53779160184786,184.43677025358193 117.30015552137047,184.43677025358193 118.91259720106609,185.62308070948347 121.1968895806931,189.02382665983168 121.46562986029312,193.6899406579323 121.1968895806931,197.48607918561902 121.39844479039311,201.36128356168047 121.53281493042596,206.18548882333562 119.51726283086464,209.90247768047266 117.03141524107195,211.95867614803137 111.79097978235222,212.03776058898075 108.09580093342811,212.11684502125718 103.72877138433978,212.03776058898075 99.22737169521861,211.95867614803137 96.4055987559259,210.3769855335704 94.45723172626458,209.90247768047266 92.71041990700178,210.1397316454677 87.73872472788207,209.66522363835247 85.18569206865504,209.66522363835247 84.17791601875797,208.4789522701758 84.17791601875797,203.8920181679423 84.84976671845652,198.90962604188826 86.73094867821783,196.9324768804363 89.08242612751201,194.79714976856485 91.90419906680472,192.5827298669028 94.92752721626312,189.2610874134698 98.55552099552006,186.0976043517585 100.97418351494707,184.35768282128265 106.21461897389963,184.19950793095632 108.83483670302667,184.43677025358193 110.71601866255514,184.35768282128265 115.88926905137487,184.19950793095632 117.97200622083619,184.5949450925109 120.99533437029459,188.07478287263075 121.53281493042596,191.00099725130713 121.12970451032743,195.0344086450641 121.33125972049311,196.14161571592558 121.12970451032743,201.1240267425892 121.06251944019459,206.3436589476769 120.6594090203289,208.63712189736543 118.37511664093472,210.8514930778183 117.1657853811048,211.87959169887472 112.19409020268358,211.95867614803137 108.63328149309382,211.87959169887472 104.13188180420548,211.72142277448438 99.22737169521861,211.72142277448438 96.13685847586021,210.1397316454677 94.45723172626458,209.74430832755752 90.96360808727331,209.50705423398176 85.99191290838644,209.42796951910714 84.5810264388565,208.55803708796157 84.31228615855798,204.92012659460306 84.51384136849083,201.28219796379562 86.73094867821783,196.9324768804363 89.4855365473777,195.3507536938996 92.1057542769704,192.66181640780997 92.77760497690178,191.79186398757156 94.86034214636311,189.8937823799788 97.01026438595727,187.67934759688796 100.30233281524852,184.832207286614 102.31788491457701,184.35768282128265 104.9381026441697,184.5949450925109 108.29735614336096,184.43677025358193 110.04416796262376,184.832207286614 113.67216174211353,184.35768282128265 117.1657853811048,184.35768282128265 119.58444790076464,186.33486605709186 121.33125972049311,188.86565278080525 121.1968895806931,193.6899406579323 121.12970451032743,197.2488211063901 121.26407465012744,201.835796968895 121.1968895806931,206.3436589476769 121.06251944019459,208.1626129129436 119.0469673408661,210.29790091258474 115.62052877177484,211.95867614803137 111.79097978235222,212.03776058898075 107.89424572326243,212.03776058898075 104.46780715417117,212.19592944480246 101.64603421487845,212.03776058898075 99.89922239538282,212.03776058898075 97.01026438595727,211.08874673442915 94.12130637653172,209.74430832755752 91.70264385733753,209.42796951910714 88.74650077777915,209.1907153224456 85.45443234825507,209.42796951910714 84.6482115087565,208.71620669792173 84.11073094862513,205.15738217969192 84.5810264388565,202.78482285764767 85.65598755842075,202.38939555402612 84.84976671845652,202.38939555402612 84.51384136849083,200.57042719749734 86.2606531882193,197.32790714129806 87.33561430778354,196.06252955214586 89.14961119764484,194.9553223613184 91.70264385733753,192.81998946343083 94.18849144643173,190.76373706315644 96.33841368602589,188.47021793411113 99.5632970451843,185.38581877265824 100.83981337514706,184.6740324991406 105.27402799390256,184.51585767738288 109.03639191295952,184.832207286614 110.04416796262376,184.99038203962846 113.20186625234783,184.6740324991406 117.03141524107195,184.51585767738288 119.9203732504975,186.88847640325548 121.39844479039311,190.92191053042188 121.46562986029312,195.58801239036256 121.33125972049311,200.17499869369203 121.26407465012744,204.68287093244726 120.99533437029459,207.84627341874875 117.5688958009705,211.32600031374022 113.00031104194932,211.64233829954173 108.63328149309382,211.56325381604256 104.19906687410548,211.48416932381224 101.78040435467847,211.72142277448438 98.68989113532007,211.95867614803137 95.6665629860945,210.06064699910348 91.09797822730616,209.66522363835247 86.73094867821783,209.58613894035807 85.18569206865504,209.1907153224456 84.5810264388565,208.24169776507188 84.446656298358,203.81293284433195 84.37947122869082,201.28219796379562 84.91695178858936,198.59328253602143 87.20124416798353,196.45796028443146 89.61990668717772,194.0062862893683 92.97916018683463,191.23825736204162 96.67433903575875,188.1538699020166 99.76485225488432,185.14855675847502 100.90699844504707,184.43677025358193 105.4083981339354,184.5949450925109 110.11135303298943,184.9112946673995 113.40342146204785,184.6740324991406 117.63608087110333,184.75311989709735 119.98755832039751,187.12573785119457 120.99533437029459,188.47021793411113 121.33125972049311,191.31734404864255 121.53281493042596,194.63897714135237 121.33125972049311,199.30505523114698 121.33125972049311,203.6547621715581 121.06251944019459,206.580914069782 120.45785381039605,208.63712189736543 118.24074650113471,211.1678312693257 115.486158631742,211.80050724110333 110.91757387248799,211.95867614803137 105.74432348366827,211.87959169887472 101.78040435467847,211.72142277448438 98.62270606542006,211.95867614803137 96.60715396585874,210.29790091258474 93.38227060670033,209.58613894035807 88.27620528778061,209.34888479538495 85.58880248805508,209.50705423398176 84.5810264388565,208.79529149027076 84.51384136849083,205.94823357247515 84.51384136849083,201.51945473189699 85.25287713832222,198.3560248167487 83.77480559889227,196.06252955214586 83.84199066855945,192.34547019319143 83.90917573869228,190.60556356149027" stroke="#4dd2ff" stroke-linecap="round" stroke-linejoin="round" stroke-width="0.5"><title>2024-04-27 10.1km</title><desc>9223370322649067555</desc></polyline><polyline fill="none" points="166.00000001490116,194.36772071942687 178.34285713732243,194.36772071942687 162.91428571939468,201.63227928057313 144.40000000596046,194.36772071942687 187.6000000089407,201.63227928057313 153.6571428477764,201.63227928057313" stroke="#4dd2ff" stroke-linecap="round" stroke-linejoin="round" stroke-width="0.5"><title>2024-04-26 5.2km</title><desc>9223370322713802999</desc></polyline><polyline fill="none" points="36.05714285746217,262.9506586827338 55.600000001490116,229.04934131726623 49.42857142537832,229.04934131726623 44.28571428731084,231.47086739446968 39.142857145518064,232.68163023795933 29.885714285075665,232.68163023795933 18.571428570896387,241.15696646925062 14.457142855972052,249.6322962725535 24.74285713583231,252.0538178915158 12.399999998509884,246.0000128597021 18.571428570896387,250.8430571500212 25.77142856642604,252.0538178915158 27.828571427613497,254.47533898428082 19.599999994039536,261.7398991212249 22.685714285820723,258.10761964321136 18.571428570896387,255.68609933555126 19.599999994039536,255.68609933555126" stroke="#4dd2ff" stroke-linecap="round" stroke-linejoin="round" stroke-width="0.5"><title>2024-04-25 5.2km</title><desc>9223370322805955311</desc></polyline><polyline fill="none" points="94.26086956541985,246.73699394636787 90.0869565224275,242.06942303595133 90.92173913121223,243.29773210268468 90.29565217439085,244.52604050305672 89.4608695646748,245.50868674344383 87.37391304410994,244.52604050305672 87.79130434803665,245.75434823776595 86.33043478336185,246.24567114538513 85.49565217457712,245.50868674344383 83.61739130411297,244.77170210285112 80.69565217383206,245.26302522304468 80.90434782672673,246.00000970461406 80.27826086990535,245.75434823776595 81.73913043458015,246.49133255891502 82.99130434729159,247.71963922888972 86.53913043439388,247.71963922888972 88.20869565289468,246.73699394636787 88.41739130485803,245.50868674344383 87.58260869514197,246.73699394636787 86.95652173925191,245.75434823776595 88.00000000093132,245.26302522304468 92.59130434785038,245.26302522304468 94.26086956541985,245.75434823776595 97.18260869663209,245.50868674344383 97.6000000005588,244.2803788757883 96.5565217398107,243.05207034223713 93.42608695756644,241.57809922355227 91.75652173906565,240.59545127744786 89.4608695646748,239.3671407471411 88.20869565289468,243.78905554208905 88.20869565289468,245.26302522304468 87.16521739121526,246.24567114538513 85.9130434775725,246.00000970461406 84.24347826093435,246.24567114538513 82.36521739140153,245.75434823776595 81.94782608747482,247.47397794830613 83.82608695700765,248.21096171042882 82.36521739140153,249.1936063542962 83.82608695700765,249.43926744838245 83.4086956512183,250.66757252137177 82.36521739140153,251.40455524483696 78.40000000037253,252.63285925262608 84.034782608971,248.4566229111515 85.49565217457712,247.71963922888972 85.07826086971909,246.24567114538513 89.66956521756947,247.71963922888972 91.5478260871023,247.47397794830613 93.00869565177709,248.21096171042882 92.17391304299235,249.1936063542962 92.59130434785038,250.17625057208352 93.84347826149315,251.15889436355792 93.84347826149315,252.14153772895224 92.17391304299235,252.63285925262608 88.83478260785341,251.15889436355792 88.62608695682138,249.68492851639166 90.71304347831756,249.43926744838245 91.75652173906565,250.17625057208352 94.26086956541985,249.43926744838245 94.67826087027788,250.91323345550336 93.00869565177709,251.89587692776695 91.13043478317559,251.89587692776695 85.49565217457712,248.4566229111515 82.36521739140153,245.75434823776595 80.90434782672673,245.26302522304468 79.44347826112062,245.50868674344383 80.27826086990535,244.52604050305672 81.94782608747482,245.01736367633566 83.20000000018626,244.77170210285112 82.36521739140153,245.75434823776595 80.48695652093738,245.75434823776595 78.40000000037253,246.00000970461406 82.99130434729159,246.24567114538513 84.66086956579238,245.50868674344383 85.9130434775725,245.50868674344383 86.95652173925191,246.49133255891502 89.4608695646748,245.26302522304468 90.50434782542288,245.75434823776595 91.75652173906565,245.75434823776595 92.59130434785038,246.49133255891502 93.84347826149315,246.98265530681238 95.09565217420459,246.73699394636787 96.13913043495268,246.98265530681238 97.39130434859544,248.4566229111515 99.47826087009162,249.9305895571597 101.14782608672976,249.68492851639166 102.40000000037253,250.17625057208352 100.73043478280306,249.43926744838245 97.6000000005588,248.70228408556432 98.85217391327024,248.21096171042882 99.06086956523359,249.68492851639166 100.5217391308397,249.43926744838245 100.73043478280306,248.21096171042882 101.77391304261982,249.1936063542962 103.02608695719391,249.43926744838245 99.47826087009162,249.43926744838245 101.14782608672976,249.68492851639166 101.5652173915878,248.94794523296878 102.60869565233588,249.43926744838245 103.6521739140153,250.17625057208352 100.10434782598168,251.40455524483696 102.40000000037253,250.66757252137177 105.11304347869009,248.4566229111515 104.069565217942,247.22831664071418 104.069565217942,248.21096171042882 101.77391304261982,248.70228408556432 99.47826087009162,248.4566229111515 97.80869565252215,247.47397794830613 93.84347826149315,247.22831664071418 95.72173913102597,247.47397794830613 96.76521739177406,248.70228408556432 98.85217391327024,247.71963922888972 103.02608695719391,247.47397794830613 105.53043478354812,248.21096171042882 108.034782608971,248.4566229111515 109.70434782654047,248.4566229111515 114.29565217345953,248.94794523296878 118.67826087027788,249.43926744838245 121.6000000005588,249.9305895571597 118.67826087027788,249.9305895571597 118.05217391438782,249.9305895571597 115.33913043607026,249.9305895571597 113.04347826167941,249.68492851639166 111.37391304410994,249.9305895571597 109.07826086971909,249.9305895571597 108.24347826093435,249.1936063542962 105.53043478354812,248.4566229111515 109.70434782654047,247.96530048316345 111.37391304410994,248.94794523296878 112.41739130485803,248.4566229111515 111.16521739214659,248.21096171042882 111.79130434896797,248.4566229111515 110.74782608728856,248.94794523296878 109.49565217457712,248.94794523296878 111.16521739214659,247.96530048316345 109.07826086971909,248.70228408556432 106.5739130442962,249.9305895571597 103.86086956504732,250.66757252137177 104.69565217383206,251.15889436355792 107.19999999925494,250.91323345550336 106.99130434822291,249.43926744838245 106.15652173943818,249.1936063542962 106.5739130442962,248.70228408556432 108.034782608971,249.1936063542962 109.49565217457712,250.66757252137177 108.86956521868706,251.40455524483696 106.99130434822291,252.14153772895224 104.069565217942,250.42191155976616" stroke="#4dd2ff" stroke-linecap="round" stroke-linejoin="round" stroke-width="0.5"><title>2024-04-24 3.4km</title><desc>9223370322893282018</desc></polyline><polyline fill="none" points="187.60000000149012,248.24346706084907 148.21176470816135,242.2608887758106 144.39999999850988,249.73911122512072 149.48235294222832,243.75653358828276" stroke="#4dd2ff" stroke-linecap="round" stroke-linejoin="round" stroke-width="0.5"><title>2024-04-23 3.1km</title><desc>9223370322979897699</desc></polyline></svg>