<?xml version="1.0" encoding="utf-8" ?>
<svg baseProfile="full" height="300mm" version="1.1" viewBox="0,0,200,300" width="200mm" xmlns="http://www.w3.org/2000/svg" xmlns:ev="http://www.w3.org/2001/xml-events" xmlns:xlink="http://www.w3.org/1999/xlink"><defs /><rect fill="#222222" height="300" width="200" x="0" y="0" /><text fill="#FFFFFF" style="font-size:12px; font-family:Arial; font-weight:bold;" x="10" y="20">Over 3km Runs</text><text fill="#FFFFFF" style="font-size:4px; font-family:Arial" x="10" y="280">ATHLETE</text><text fill="#FFFFFF" style="font-size:9px; font-family:Arial" x="10" y="290">L</text><text fill="#FFFFFF" style="font-size:4px; font-family:Arial" x="120" y="280">STATISTICS</text><text fill="#FFFFFF" style="font-size:3px; font-family:Arial" x="120" y="285">Number: 21</text><text fill="#FFFFFF" style="font-size:3px; font-family:Arial" x="120" y="290">Weekly: 2.6</text><text fill="#FFFFFF" style="font-size:3px; font-family:Arial" x="141" y="285">Total: 107.9 km</text><text fill="#FFFFFF" style="font-size:3px; font-family:Arial" x="141" y="290">Avg: 5.1 km</text><text fill="#FFFFFF" style="font-size:3px; font-family:Arial" x="167" y="285">Min: 3.0 km</text><text fill="#FFFFFF" style="font-size:3px; font-family:Arial" x="167" y="290">Max: 10.1 km</text><polyline fill="none" points="36.650685137254186,32.23428494864493 37.181413128157146,32.11714249331271 39.40383659058716,32.15618998266291 41.55991905403789,32.0 42.02430604607798,32.07809499971336 42.15698804380372,32.19523746770574 42.22332904278301,32.39047482961905 42.25649954227265,33.52284944220446 42.32284054113552,34.53807882696856 42.28967004152946,34.69426770915743 42.55503403709736,35.74854089244036 42.45552253862843,36.2171057612577 42.48869303823449,37.23232755297795 42.45552253862843,38.59896775431116 42.588204536587,40.785581292555435 42.48869303823449,41.4103255799273 42.65454553544987,43.20645937122754 42.62137503596023,43.90929189531016 42.62137503596023,45.35399888877873 42.75405703368597,45.9396892626246 42.853568532154895,47.69675467105117 42.986250529880635,51.71844990638783 42.91990953090135,53.20217079241411 42.986250529880635,55.27156077124528 42.91990953090135,56.05245956097497 42.986250529880635,56.911446274782065 42.986250529880635,57.536162598611554 43.05259152862709,57.653296788659645 43.251614525332116,59.05890409956919 43.21844402572606,59.64457219405449 43.28478502470534,60.89399428025354 43.21844402572606,61.323482121690176 43.185273526469246,62.10436779452721 43.251614525332116,63.19760489312466 43.21844402572606,64.17370664241025 43.251614525332116,64.5251026248443 43.28478502470534,66.04781458855723 43.48380802129395,67.21912710461766 43.41746702243108,67.7657383090118 43.1521030269796,67.92191278657992 41.858453548979014,68.0 41.32772555784322,68.0 40.365781074156985,67.80478193477029 39.90139408200048,67.8828691735689 39.60285958694294,67.84382555633783 37.081901629804634,67.33625814685365 35.323865159763955,67.25817078954424 32.504372707451694,66.82869002237567 31.14438223047182,66.78964629082475 30.016585249686614,66.67251507108449 29.220493262982927,66.51634005189408 28.32488977839239,66.51634005189408 26.50051230925601,66.20398981060134 24.908328336197883,66.24303360562772 23.38248536211904,65.96972695202567 22.95126886945218,65.8525954655488 21.956153886276297,65.81355162835098 19.07032043521758,65.26693746235105 16.94740847114008,65.07171791637666 16.615703476709314,64.91554220340913 16.51619197858963,64.72032246706658 16.51619197858963,64.4470146583335 16.6820444756886,63.90039841918042 16.847896972787566,62.768119285756256 16.78155597404111,62.02627930336166 16.881067472393624,61.518703698558966 16.914237971650437,59.605527683947 17.113260968355462,59.09794866887387 17.27911346568726,57.926609750807984 17.54447746113874,57.14571502315812 17.87618245545309,55.31060575085576 18.00886445317883,54.842065715260105 18.04203495278489,54.52970535311033 18.241057949257083,54.17829962191172 18.50642194482498,53.358351582865 18.57276294368785,52.85076376635698 18.77178594027646,52.30412993347272 19.169831933570094,51.406086835981114 19.43519592890516,50.42995049527963 19.89958292117808,49.18049212000915 20.16494691662956,48.79003548907349 20.762015906511806,47.30629643195425 21.09372090094257,46.17396514545544 21.325914397020824,45.705413227318786 21.956153886276297,44.88544590398669 22.38737037894316,44.18261528437142 23.614678858197294,42.34743997966871 25.074180833413266,39.73132285082829 26.10246631584596,38.24754648338421 27.42928629356902,35.904729249712545 27.860502786235884,35.006645270390436 28.192207780550234,34.49903159585665 28.59025377384387,33.639991440140875 29.187322763726115,32.859044066484785 29.485857258667238,32.585712085827254 29.9170737513341,32.39047482961905 32.139497213531286,32.35142736576381 32.836077701766044,32.27333242518944 33.63216968846973,32.312379897542996 34.22923867823556,32.23428494864493 36.81653763435315,32.11714249331271 39.03896109666675,32.23428494864493 41.55991905403789,32.03904750201036 41.991135546704754,32.11714249331271 42.09064704494085,32.23428494864493 42.19015854317695,32.46856974478578 42.22332904278301,34.03046449212707 42.48869303823449,35.631399579986464 42.389181539881974,35.94377632855321 42.35601104050875,36.2561528061633 42.45552253862843,36.91995192176546 42.389181539881974,37.62279671095894 42.45552253862843,39.57513615244534" stroke="#4dd2ff" stroke-linecap="round" stroke-linejoin="round" stroke-width="0.5"><title>2024-07-26 3.8km</title><desc>11987014491</desc></polyline><polyline fill="none" points="86.13052400620654,32.273629188217456 86.89427389658522,32.234539316938026 87.06030648155138,32.117269677546574 87.22633906640112,32.0781797892414 87.75764333817642,32.0781797892414 88.35536064370535,32.0 88.7206323306309,32.0781797892414 88.82025188137777,32.117269677546574 88.91987143235747,32.31271905536414 88.98628446657676,32.703617493156344 88.88666491548065,33.36814386502374 89.11911053431686,35.322626096603926 89.05269750044681,36.02623710694024 89.21873008529656,38.37159722627257 89.11911053431686,39.075202287727734 89.18552356818691,40.56058624270372 89.15231705131009,41.10783142072614 89.25193660228979,41.61598691390827 89.25193660228979,43.726778990530875 89.31834963615984,45.17305531798047 89.45117570401635,46.0330006548902 89.41796918713953,46.932032224023715 89.55079525511246,49.82455337178544 89.51758873811923,50.37178449277417 89.65041480597574,51.114453971909825 89.68362132296897,51.81803417284391 89.68362132296897,52.20891146926442 89.51758873811923,52.95157716542599 89.71682784007862,53.73332887751167 89.65041480597574,54.82777842783253 89.71682784007862,56.313097505655605 89.94927345879842,57.251190613693325 89.9160669419216,58.111107152624754 89.98247997579165,60.143629004072864 89.88286042481195,60.7299312556861 89.94927345879842,61.58983950089896 89.88286042481195,61.980706207454205 89.94927345879842,62.72335178274079 89.9160669419216,63.58325527558918 90.01568649278488,65.18579722361756 90.01568649278488,66.47564288822468 90.08209952677134,67.17919312496088 90.18171907775104,67.49188167852117 90.1485125606414,67.7263979158306 89.9160669419216,67.92182799713919 89.68362132296897,67.96091400072328 89.21873008529656,68.0 88.4881867117947,67.96091400072328 87.02709996444173,67.76548394051497 85.36677411559504,67.7263979158306 84.53661119099706,67.49188167852117 82.90949185891077,67.37462350272108 81.04992690810468,67.10102094424656 78.16095993085764,66.8665043003275 76.86590576870367,66.71015978630749 76.30139497981872,66.55381520453375 75.63726464030333,66.55381520453375 74.64106913085561,66.78833205177216 74.0765583422035,66.63198750396259 73.27960193471517,66.47564288822468 71.91813473845832,66.63198750396259 70.49025450833142,66.24112583781243 69.26161338004749,66.12386725540273 68.46465697244275,65.81117751586135 63.251233806600794,64.99036565996357 63.15161425550468,64.56041584711056 63.15161425550468,64.1304655217682 63.483679425437,63.387822843506 63.55009245930705,62.87969802488806 63.516885942430235,61.94161955584423 63.55009245930705,61.277145830739755 63.450472908327356,60.37815001906711 63.682918527396396,59.28371731081279 63.749331561266445,58.6192386893963 63.915364146232605,57.759323361795396 64.04819021408912,57.32936492920271 64.64590751973446,54.86686585037387 64.87835313868709,54.046029087970965 65.04438572353683,53.26427805359708 65.2436248252634,52.67796366586117 65.40965741034597,52.404349958727835 65.60889651207253,51.661683135753265 66.04058123298455,50.489048196410295 66.23982033482753,50.17634490208002 66.53867898776662,49.27732142046443 67.13639629329555,47.98741424977197 67.70090708194766,46.42388422120712 68.46465697244275,45.01670140004717 70.52346102544107,41.967786451248685 71.35362394968979,40.28696334219421 72.61547159519978,38.37159722627257 73.6448736214079,36.57348916574847 74.0765583422035,35.98714764235774 74.47503654600587,35.12717835017247 74.60786261374597,34.736282539437525 74.84030823269859,34.38447594741592 75.03954733465798,33.95448964679963 75.93612329300959,32.66452766844304 76.40101453079842,32.39089877682272 77.1315579044167,32.273629188217456 77.96172082889825,32.351808918174356 81.1827529759612,32.15635956154438 82.41139410424512,32.117269677546574 82.67704624007456,32.15635956154438 83.34117657982279,32.039089896687074 83.80606781737879,32.039089896687074 85.26715456461534,32.15635956154438 85.59921973443124,32.0781797892414 86.23014355695341,32.15635956154438 87.39237165136728,32.0 88.02329547388945,32.0781797892414 88.85345839848742,32.039089896687074 88.91987143235747,32.0781797892414 89.01949098333716,32.46907848137198 88.98628446657676,33.52450283340295 89.08590401732363,34.89264091453515 89.21873008529656,35.557163252611645 89.15231705131009,36.53439976045047 89.18552356818691,37.23800840644981 89.15231705131009,38.1761511322693" stroke="#4dd2ff" stroke-linecap="round" stroke-linejoin="round" stroke-width="0.5"><title>2024-07-24 3.7km</title><desc>11969555111</desc></polyline><polyline fill="none" points="129.85909474268556,67.51536927850975 129.85909474268556,67.03073756262893 129.94926070340443,65.44221552177623 129.94926070340443,64.74218546804332 130.10705113469157,62.372837581526255 130.17467560525984,61.83434611032135 130.1295926249586,61.18815472420829 130.21975858567748,60.703510024235584 130.19721709552687,59.41111929513863 130.26484156609513,58.25334659431246 130.28738305624574,55.37235267966753 130.37754901708104,53.945305293935235 130.33246603654698,53.649124567222316 130.355007526814,52.46439794532489 130.33246603654698,51.65662638620415 130.355007526814,50.55266745320114 130.44517348753288,49.610259402616066 130.40009050723165,49.42177734118013 130.33246603654698,49.36792529597005 129.76892878185026,49.36792529597005 129.2504745075712,49.26022116870445 128.21356595889665,49.206369086605264 127.76273615518585,49.1255909405445 127.10903293965384,49.15251699236978 126.5004127046559,49.017886702829855 126.25245631264988,49.017886702829855 125.98195843049325,49.098664885765174 125.30571372481063,49.1255909405445 124.87742541113403,48.93710849231866 123.75035090185702,48.88325633655768 123.32206258841325,48.77555198816117 122.91631576488726,48.61399537368561 122.60073490231298,48.66784759082657 122.03719764761627,48.66784759082657 121.45111890265252,48.560143144306494 120.9777476087911,48.533217024974874 120.25641992269084,48.34473410382634 119.55763372697402,48.23702950985171 118.61089113913476,48.21010335373285 117.07806980633177,48.021620174637064 116.71740596333984,47.99469399389636 116.46944957121741,47.860063044237904 116.42436659091618,47.698505803302396 116.42436659091618,47.563874684725306 116.53707404178567,47.13305458961986 117.23586023761891,45.67903096516966 117.41619215917308,45.032795369130326 118.13751984515693,43.363345226534875 118.36293474712875,42.71710329261259 118.36293474712875,42.52861572873371 118.27276878629345,42.17856699663389 118.36293474712875,41.936225262776134 118.655974119436,41.370760249585146 118.7686815704219,40.91300186612352 118.88138902140781,40.13211786971078 119.37730180541985,37.762523036799394 119.44492627610452,37.35861245430715 119.44492627610452,37.17012061267451 119.53509223670699,36.87391884331009 119.69288266811054,35.958383752033114 120.12117098167073,34.315797189614386 120.39166886382736,33.02326202434779 120.4142103540944,32.780910893081455 120.66216674621683,32.08078400527302 120.6396252559498,32.026928004808724 120.54945929523092,32.0 120.43675184424501,32.24235193290224 120.36912737367675,32.48470361699583 120.23387843254022,33.346396479115356 119.8732145895483,34.74664067226695 119.55763372697402,36.28151418962807 119.33221882511862,37.17012061267451 119.28713584470097,37.46632201063039 119.26459435455035,38.16643292832305 119.12934541329741,38.73190561561205 118.88138902140781,39.351231290609576 118.81376455083955,39.64742995222332 118.67851560970303,40.75143987189222 118.655974119436,41.074563749862136 117.8895634530345,42.85173717472935 117.59652408072725,43.713392202116665 117.3260261984542,44.25192499757395 116.28911764977966,46.7291600364988 116.17641019879375,47.159980868556886 116.2214931792114,47.45616973465076 116.37928361049853,47.67157958577445 116.69486447318923,47.88698924030177 117.12315278674942,47.99469399389636 119.08426243299618,48.156251032211 120.03100502095185,48.26395566291467 120.57200078538153,48.39858638236183 121.02283058920875,48.39858638236183 121.47366039280314,48.479364777114824 121.81178274576087,48.42551251698751 122.71344235318247,48.479364777114824 124.0659317644313,48.69477369482047 124.76471796026453,48.77555198816117 124.96759137196932,48.85633025407151 125.77908501878846,49.07173882788629 126.11720737151336,49.044812766922405 126.8159935673466,49.1794430410082 127.33444784162566,49.1794430410082 127.67257019446697,49.233295129277394 128.822186194011,49.206369086605264 129.6787628211314,49.31407323849271 130.28738305624574,49.287147205119254 130.44517348753288,49.36792529597005 130.49025646795053,50.444963866320904 130.42263199738227,51.252739570394624 130.4677149776835,51.629700619901996 130.42263199738227,52.27591816202039 130.44517348753288,52.94905955452123 130.40009050723165,53.13753880056902 130.37754901708104,53.78375221628812 130.40009050723165,54.56459106771217 130.355007526814,55.237725936152856 130.37754901708104,56.287812499693246 130.355007526814,56.42243864457123 130.37754901708104,56.5301395051647 130.33246603654698,56.934017294843215 130.37754901708104,57.553295230842195 130.30992454651278,57.984096315543866 130.33246603654698,58.98032081374549 130.28738305624574,60.218864329581265 130.30992454651278,60.6496605516586 130.21975858567748,61.43047670123633 130.2423000758281,62.23821482884523 130.19721709552687,62.7497808807675 130.21975858567748,63.20749693531252 130.2423000758281,63.422892418675474 130.19721709552687,63.719060887699015 130.2423000758281,63.907531538177864 130.2423000758281,64.41909397410927 130.06196815427393,65.19989766107756 130.0168851739727,65.33451872550359 129.97180219355505,65.6576089670707 129.83655325241853,67.24612955914927 129.85909474268556,68.0" stroke="#4dd2ff" stroke-linecap="round" stroke-linejoin="round" stroke-width="0.5"><title>2024-07-21 4.3km</title><desc>11945152036</desc></polyline><polyline fill="none" points="163.263099886477,60.95109287742525 164.11857926659286,63.972055691992864 165.1879284903407,65.48253562580794 167.75436662882566,67.24476097361185 169.67919523268938,68.0 172.245633370243,68.0 174.59820166323334,67.24476097361185 176.95076995622367,65.48253562580794 178.23398902546614,63.216815356398 178.87559856008738,59.69235721183941 176.52303026709706,37.286748236976564 175.45368104241788,35.52450016164221 173.9565921286121,33.76225074916147 172.0317635256797,32.50350035028532 169.8930650772527,32.0 167.11275709420443,32.25175018818118 164.54631895571947,33.258750671288 162.83536019735038,35.02100046584383 161.33827128261328,37.79024744196795 161.1244014389813,40.559491116320714 163.263099886477,61.202839928912 163.90470942202955,63.72030894085765 165.82953802496195,65.98602871852927 168.18210631795228,67.49650734313764 170.5346746109426,68.0 173.31498259492218,67.74825368495658 175.88142073247582,66.23777522472665 177.5923794908449,64.47554911207408 178.66172871552408,62.20982786081731 178.87559856008738,59.44060999643989 176.73690011166036,37.79024744196795 175.6675508879125,35.77624996821396 174.38433181867003,34.01400074688718 172.245633370243,32.50350035028532 170.32080476731062,32.0 167.75436662882566,32.0 164.54631895571947,33.51050072349608 162.62149035278708,35.27275032759644 161.33827128261328,38.2937465372961 161.1244014389813,40.81124037737027 163.47696973197162,62.4615747758653 164.54631895571947,64.72729578171857 165.82953802496195,65.98602871852927 167.75436662882566,67.24476097361185 170.32080476731062,68.0 172.67337306030095,68.0 174.81207150779665,66.9930145770777 177.1646398017183,64.97904242342338 178.23398902546614,63.216815356398 178.87559856008738,59.69235721183941 176.52303026709706,37.53849785355851 175.45368104241788,35.27275032759644 173.7427222840488,33.51050072349608 171.60402383562177,32.25175018818118 169.25145554263145,32.0 166.25727771408856,32.50350035028532 163.69083957653493,34.01400074688718 161.97988081816584,36.27974950103089 161.1244014389813,39.30074440105818 178.87559856008738,59.94410439929925 176.95076995622367,39.30074440105818 176.30916042160243,36.53149922587909 175.02594135329127,34.76925057731569 173.10111274942756,33.00700059183873 170.96241430100054,32.25175018818118 167.96823647338897,32.0 165.82953802496195,32.75525048514828 163.47696973197162,34.26575071783736 161.97988081816584,36.27974950103089 161.33827128261328,38.545496043749154 161.33827128261328,41.06298961187713 163.47696973197162,62.20982786081731 164.33244911115617,64.2238024158869 165.82953802496195,66.23777522472665 168.6098460070789,67.74825368495658 170.96241430100054,68.0 173.7427222840488,67.49650734313764 175.6675508879125,66.48952170298435 177.5923794908449,64.47554911207408 178.66172871552408,62.20982786081731 178.87559856008738,59.44060999643989 176.73690011166036,38.041997003601864 175.6675508879125,35.77624996821396 174.1704619731754,34.01400074688718 172.0317635256797,32.50350035028532 169.46532538719475,32.0 166.6850174041465,32.25175018818118 164.11857926659286,33.76225074916147 162.40762050729245,35.52450016164221 161.33827128261328,38.041997003601864 161.1244014389813,40.559491116320714 163.47696973197162,62.20982786081731 164.54631895571947,64.72729578171857 166.25727771408856,66.48952170298435 168.8237158525735,67.74825368495658 171.17628414649516,68.0 174.1704619731754,67.49650734313764 176.30916042160243,65.98602871852927 177.5923794908449,64.47554911207408 178.66172871552408,61.95808091876097 178.87559856008738,58.93711548461579 176.52303026709706,37.53849785355851 175.02594135329127,34.517500661546364 173.31498259492218,33.258750671288 171.39015399105847,32.25175018818118 168.8237158525735,32.0 166.6850174041465,32.25175018818118 164.11857926659286,33.76225074916147 162.19375066272914,36.02799974824302 161.33827128261328,38.041997003601864 161.1244014389813,40.81124037737027 163.263099886477,60.95109287742525 163.69083957653493,62.96506852377206 165.1879284903407,65.48253562580794 167.11275709420443,66.9930145770777 169.67919523268938,68.0 172.45950321480632,68.0 175.02594135329127,66.9930145770777 177.1646398017183,65.230789037887 178.44785887002945,62.96506852377206 178.87559856008738,60.44759869272821 176.95076995622367,39.30074440105818 176.09529057703912,36.27974950103089 173.9565921286121,33.76225074916147 171.39015399105847,32.25175018818118 168.3959761634469,32.0 165.61566818039864,32.75525048514828 164.11857926659286,33.51050072349608 162.62149035278708,35.27275032759644 161.5521411281079,37.286748236976564 161.1244014389813,39.048994975630194 163.263099886477,60.699345799162984 164.11857926659286,63.72030894085765 165.61566818039864,65.98602871852927 167.96823647338897,67.49650734313764 170.96241430100054,68.0 173.10111274942756,67.74825368495658 175.45368104241788,66.7412681535352 177.1646398017183,65.230789037887 178.44785887002945,62.71332166320644 178.87559856008738,60.699345799162984 178.66172871552408,58.433620863826945 169.03758569806814,32.0 167.11275709420443,32.25175018818118 178.87559856008738,58.685368188191205 176.73690011166036,38.79724552389234 175.88142073247582,36.02799974824302 174.38433181867003,34.01400074688718 171.60402383562177,32.50350035028532 168.6098460070789,32.0 166.04340787045658,32.50350035028532 164.11857926659286,33.51050072349608 162.40762050729245,35.52450016164221 161.5521411281079,37.79024744196795 161.1244014389813,39.552493799012154 163.263099886477,60.95109287742525 164.33244911115617,64.47554911207408" stroke="#4dd2ff" stroke-linecap="round" stroke-linejoin="round" stroke-width="0.5"><title>2024-07-05 3.3km</title><desc>11814633384</desc></polyline><polyline fill="none" points="28.629020396620035,72.0 25.887061192654073,72.74483331805095 23.356021926738322,74.73105431371368 21.668662416748703,77.71038257912733 21.668662416748703,80.44143008510582 23.777861804701388,101.04831993649714 24.410621621645987,103.77933962037787 25.676141254603863,105.51725954189897 27.574420703575015,107.00690414011478 29.683620092459023,108.0 32.00373941846192,108.0 34.112938806414604,107.50345212430693 36.22213819529861,106.01380784926005 37.48765782825649,104.27588830399327 38.54225752130151,101.7931438095402 38.54225752130151,99.06212175777182 36.43305813334882,78.70349113992415 35.3784584403038,75.4758867432829 32.84741917345673,73.24138872791082 29.472700152546167,72.0 25.887061192654073,72.74483331805095 23.145101989619434,74.97933181701228 21.668662416748703,77.95865975995548 21.668662416748703,80.93798382743262 23.777861804701388,101.04831993649714 24.832461499609053,104.52416260517202 26.519821009598672,106.51035604788922 28.418100459501147,107.50345212430693 30.738219785504043,108.0 33.269259051419795,107.75172607554123 36.01121825538576,106.26208196184598 37.48765782825649,104.52416260517202 38.3313375832513,102.04141838033684 38.54225752130151,99.55867146397941 36.43305813334882,79.94487623521127 35.800298317335546,76.46899627288803 34.53477868437767,74.73105431371368 32.00373941846192,72.74483331805095 29.472700152546167,72.0 27.15258082654327,72.24827779899351 25.043381437659264,73.24138872791082 23.145101989619434,74.73105431371368 22.09050229471177,76.71727358759381 21.45774247776717,78.95176821248606 23.777861804701388,101.29659458762035 24.410621621645987,103.53106523817405 25.46522131562233,105.2689853485208 27.363500765524805,107.00690414011478 29.683620092459023,107.75172607554123 32.00373941846192,108.0 34.74569862242788,107.00690414011478 36.643978072330356,105.51725954189897 37.90949770528823,103.53106523817405 38.54225752130151,101.29659458762035 36.43305813334882,79.44832227821462 36.01121825538576,76.96555087622255 34.74569862242788,74.73105431371368 33.05833911243826,73.24138872791082 30.3163799084723,72.24827779899351 27.574420703575015,72.24827779899351 25.043381437659264,73.24138872791082 23.356021926738322,74.4827767838724 22.09050229471177,76.96555087622255 21.45774247776717,78.95176821248606 23.777861804701388,101.29659458762035 24.199701682664454,103.28279082919471 25.676141254603863,105.51725954189897 27.363500765524805,107.00690414011478 29.683620092459023,107.75172607554123 32.21465935744345,108.0 34.53477868437767,107.25517814536579 36.643978072330356,105.51725954189897 38.12041764333844,103.28279082919471 38.54225752130151,100.80004525883123 36.43305813334882,79.94487623521127 36.01121825538576,76.96555087622255 34.53477868437767,74.4827767838724 32.63649923540652,72.99311103648506 30.3163799084723,72.24827779899351 27.15258082654327,72.24827779899351 25.043381437659264,73.24138872791082 23.356021926738322,74.4827767838724 22.09050229471177,76.96555087622255 21.45774247776717,78.95176821248606 23.777861804701388,101.04831993649714 24.410621621645987,103.77933962037787 25.46522131562233,105.51725954189897 27.363500765524805,107.00690414011478 29.683620092459023,108.0 32.84741917345673,107.75172607554123 34.956618562340736,107.00690414011478 36.85489801131189,105.2689853485208 38.12041764333844,103.03451639274135 38.54225752130151,100.80004525883123 36.43305813334882,80.19315317319706 35.800298317335546,76.71727358759381 34.53477868437767,74.4827767838724 32.00373941846192,72.74483331805095 29.472700152546167,72.0 26.09798113256693,72.74483331805095 23.777861804701388,73.98622164176777 22.512342171743512,75.72416416555643 21.668662416748703,77.71038257912733 21.45774247776717,79.20004525897093 23.777861804701388,101.7931438095402 24.832461499609053,104.52416260517202 26.30890107061714,106.26208196184598 28.629020396620035,107.50345212430693 30.949139724485576,108.0 34.112938806414604,107.50345212430693 35.800298317335546,106.26208196184598 37.698577765375376,104.0276139753405 38.54225752130151,101.7931438095402 38.54225752130151,99.3103966244962 36.43305813334882,78.95176821248606 35.800298317335546,76.46899627288803 34.53477868437767,74.4827767838724 32.42557929549366,72.99311103648506 29.683620092459023,72.0 26.941660886630416,72.24827779899351 25.043381437659264,72.99311103648506 23.356021926738322,74.73105431371368 22.09050229471177,76.71727358759381 21.668662416748703,78.70349113992415 23.777861804701388,101.29659458762035 24.410621621645987,103.77933962037787 25.676141254603863,105.76553370943293 27.574420703575015,107.00690414011478 30.3163799084723,108.0 32.63649923540652,107.75172607554123 34.74569862242788,107.00690414011478 36.643978072330356,105.51725954189897 38.12041764333844,103.03451639274135 38.54225752130151,100.80004525883123 36.43305813334882,79.44832227821462 35.58937837835401,76.2207189311739 33.69109892938286,73.73794403090142 30.52729984652251,72.24827779899351 28.20718051958829,72.0 25.254301376640797,72.99311103648506 23.988781744614244,73.98622164176777 22.512342171743512,75.72416416555643 22.09050229471177,76.71727358759381 21.45774247776717,79.20004525897093 23.566941866651177,100.80004525883123 24.410621621645987,103.77933962037787 26.30890107061714,106.26208196184598 28.20718051958829,107.50345212430693 30.738219785504043,108.0 33.05833911243826,107.75172607554123 35.16753850039095,106.75863010738976 36.643978072330356,105.51725954189897 37.90949770528823,103.53106523817405 38.54225752130151,101.29659458762035 36.01121825538576,77.21382813691162 34.74569862242788,74.73105431371368 33.05833911243826,73.24138872791082 30.738219785504043,72.24827779899351 28.20718051958829,72.0 25.676141254603863,72.74483331805095 23.777861804701388,74.23449922609143 22.3014222336933,75.97244156198576 21.668662416748703,78.4552140396554 23.566941866651177,100.55177055345848 24.410621621645987,103.77933962037787 25.676141254603863,105.51725954189897 27.785340642556548,107.25517814536579 30.738219785504043,108.0 32.84741917345673,107.75172607554123 35.3784584403038,106.75863010738976 37.06581795029342,105.2689853485208 38.12041764333844,103.28279082919471 38.54225752130151,100.80004525883123 36.43305813334882,78.70349113992415 35.800298317335546,76.46899627288803 33.902018868364394,73.98622164176777 31.792819479480386,72.49655557191 28.629020396620035,72.0 25.887061192654073,72.74483331805095 23.988781744614244,73.98622164176777 22.723262111656368,75.4758867432829 21.879582356661558,77.46210537198931 21.45774247776717,78.95176821248606" stroke="#4dd2ff" stroke-linecap="round" stroke-linejoin="round" stroke-width="0.5"><title>2024-06-26 3.9km</title><desc>11744480107</desc></polyline><polyline fill="none" points="84.04710519139189,72.31237989763031 85.7388012126321,72.27333242518944 87.86171386705246,72.0 88.49195356131531,72.0 88.65780611231457,72.03904750206857 88.82365866331384,72.19523746773484 88.95634070434608,72.42952228934155 88.92317019402981,74.45998436035006 88.95634070434608,74.88950371657847 89.0890227452619,75.43616397451842 89.22170478606131,77.89612486943952 89.18853427574504,78.52087416796712 89.28804580657743,79.9265561279608 89.25487529637758,81.44937206161558 89.42072784749325,83.59692205340252 89.3875573372934,84.41689230949851 89.45389835746028,85.62732118117856 89.42072784749325,86.56442461136612 89.48706886777654,87.89198363138712 89.45389835746028,88.47766987903742 89.61975090880878,90.74231441164738 89.61975090880878,91.09372349418118 89.71926243952475,91.95272203095374 89.61975090880878,92.69458275541547 89.81877397024073,94.29543490329525 89.68609192920849,95.70105531456647 89.75243294960819,96.09150445566047 89.81877397024073,98.08278849278577 89.88511499052402,98.43419041577727 89.85194448032416,99.01985952572431 89.91828550084028,99.48839412815869 89.85194448032416,100.69877236449975 89.91828550084028,100.85494990527513 89.91828550084028,101.63583659363212 90.0509675416397,102.80716345272958 89.98462652123999,103.5880459100008 90.08413805195596,105.03267399437027 90.01779703143984,106.086858400231 90.15047907223925,107.02390861633467 90.08413805195596,107.76573830907 89.78560345992446,107.8828691735689 89.15536376577802,107.8828691735689 88.29293049988337,108.0 87.59634978522081,107.92191278652172 86.8002575399587,107.72669467914966 85.93782427406404,107.5705201170058 84.61100386502221,107.49243281051167 83.84808213007636,107.29721447036718 82.5544322313508,107.1410397219297 80.46469008736312,107.06295232244884 79.10469916812144,106.78964629082475 78.30860692274291,106.71155881512095 77.91056080011185,106.71155881512095 76.88227498333436,106.59442756979843 75.92033018684015,106.36016496494994 75.29009049257729,106.39920874306699 74.65985079831444,106.32112118275836 73.7974175325362,106.04781458849902 73.1340073280735,106.16494601132581 72.27157406217884,106.16494601132581 71.30962926580105,105.96972695190925 70.04914987739176,105.96972695190925 68.98769355029799,105.81355162832187 68.1584307947196,105.54024464893155 66.66575783467852,105.4231130227854 65.67064252798446,105.1888496565225 63.34870681236498,104.9155422032054 63.18285426113289,104.64223454269813 63.18285426113289,104.44701465824619 63.58090038388036,103.47091364936205 63.54772987368051,103.15856076794444 63.61407089419663,102.57289838552242 63.481388853280805,100.659727968683 63.94577599642798,97.96565444237785 63.813093955628574,97.18475979936193 63.84626446571201,96.71622220112476 63.94577599642798,96.2476839934825 64.24431058834307,95.11538080961327 65.00723232352175,93.51453230515472 65.43844895658549,92.14794868548051 65.83649507910013,91.21085977894836 66.20137069153134,90.19567737955367 66.56624630407896,89.41476589505328 66.76526936516166,88.79003548852052 67.42867956997361,87.345342274406 67.62770263105631,86.56442461136612 67.92623722308781,86.17396514498978 68.09208977420349,85.70541322676581 68.52330640715081,85.15876855191891 69.25305763201322,83.94833810607088 69.21988712192979,83.94833810607088 69.38573967292905,83.79215323607787 69.7837857955601,83.12836678358144 70.11549089779146,82.42553273585509 71.01109467388596,80.86367438736488 71.57499334774911,80.08274267386878 72.33791508281138,78.91134192922618 73.10083681787364,77.54470291300095 73.39937140990514,76.84185797139071 73.7974175325362,76.25615280601778 74.26180467556696,75.04569244626327 74.89204437006265,74.53807882682304 76.11935324815568,72.58571208576905 76.4842288607033,72.35142736576381 76.65008141170256,72.31237989763031" stroke="#4dd2ff" stroke-linecap="round" stroke-linejoin="round" stroke-width="0.5"><title>2024-06-17 3.2km</title><desc>11672403120</desc></polyline><polyline fill="none" points="141.33333334326744,77.28702870756388 105.33333334326744,102.71297129243612" stroke="#4dd2ff" stroke-linecap="round" stroke-linejoin="round" stroke-width="0.5"><title>2024-05-09 8.0km</title><desc>9223370321595310162</desc></polyline><polyline fill="none" points="152.0,84.42413776181638 159.57894737273455,87.7696572439745 154.8421052619815,82.19379083625972 175.68421052768826,94.46069294400513 188.0,97.8062091646716 180.42105263471603,96.69103721156716 154.8421052619815,92.230348194018" stroke="#4dd2ff" stroke-linecap="round" stroke-linejoin="round" stroke-width="0.5"><title>2024-05-08 6.2km</title><desc>9223370321684028463</desc></polyline><polyline fill="none" points="30.000000029802322,112.0 24.43946661055088,148.0 35.56053340435028,134.90909587591887 35.56053340435028,138.18182244338095" stroke="#4dd2ff" stroke-linecap="round" stroke-linejoin="round" stroke-width="0.5"><title>2024-05-07 6.1km</title><desc>9223370321771754451</desc></polyline><polyline fill="none" points="25.631009951233864,152.0 47.47596022486687,188.0 12.524039775133133,188.0" stroke="#4dd2ff" stroke-linecap="round" stroke-linejoin="round" stroke-width="0.5"><title>2024-05-02 6.8km</title><desc>9223370322200251369</desc></polyline><polyline fill="none" points="67.66666667163372,180.59416085481644 58.66666666418314,183.62106058280915 94.66666666418314,170.00000664312392 89.52380952984095,174.5403594309464 93.38095238059759,165.45965237822384 94.66666666418314,156.37893941625953 94.66666666418314,157.89239198341966" stroke="#4dd2ff" stroke-linecap="round" stroke-linejoin="round" stroke-width="0.5"><title>2024-05-01 4.0km</title><desc>9223370322286947528</desc></polyline><polyline fill="none" points="105.33333333581686,173.65315504278988 141.33333333581686,166.34684495721012 130.1609195396304,170.7306314855814 140.09195402264595,173.65315504278988" stroke="#4dd2ff" stroke-linecap="round" stroke-linejoin="round" stroke-width="0.5"><title>2024-04-30 5.3km</title><desc>9223370322373916531</desc></polyline><polyline fill="none" points="152.0,167.49753446038812 153.53070866130292,169.1659202114679 156.59212598390877,168.49856645357795 157.7826771652326,169.4328615120612 170.708661417244,158.28796376049286 184.5984251969494,158.42143678333377 187.3196850393433,161.1576273762039 187.88661417318508,177.50778115622234 184.5984251969494,181.3783662499045 168.78110236208886,181.51183426752687 166.11653543286957,179.91021614748752 157.38582677138038,179.50981096667238 156.8755905511789,170.9010365967406 159.19999999995343,167.8979474530206 170.87874015723355,158.28796376049286 184.428346456727,158.42143678333377 187.03622047253884,161.02415494667366 187.88661417318508,164.22748527448857 187.54645669274032,178.50879687501583 184.20157480286434,181.64530225592898 169.17795275570825,181.64530225592898 166.45669291331433,179.97695031907642 156.7055118107237,179.10940552526154 157.215748031158,170.23368471948197 169.9149606297724,158.62164626352023 184.99527559033595,158.5549097773619 187.88661417318508,162.29214186104946 187.60314960614778,176.90717094379943 187.26299212570302,178.84246841975255 184.31496062967926,181.5785682653659 169.17795275570825,181.44510026223725 166.11653543286957,179.84348196862265 157.4992125981953,179.4430767443846 156.59212598390877,177.90818763891002 156.76220472413115,172.63614809256978 157.215748031158,170.4338903586031 170.0850393702276,158.75511921412544 184.31496062967926,158.3547002755222 187.3196850393433,161.09089116507675 187.60314960614778,178.4420625444618 184.48503936990164,181.51183426752687 183.01102362200618,181.64530225592898 169.74488188978285,181.71203623950714 166.39999999990687,180.04368448327295 157.55590551160276,179.50981096667238 156.42204724391922,175.90615262126084 156.81889763777144,173.90411109355045 157.72598425182514,173.57043687277474 156.7055118107237,173.37023225374287 156.76220472413115,172.03553312836448 159.14330708631314,168.2316247478593 170.53858267702162,158.62164626352023 185.27874015760608,159.0220650283154 187.71653543319553,161.89172522281297 187.82992125977762,177.37431227072375 184.6551181098912,181.11143012804678 168.7244094486814,181.64530225592898 164.4157480315771,179.71001358958893 157.72598425182514,179.50981096667238 156.81889763777144,178.50879687501583 156.64881889754906,172.63614809256978 157.38582677138038,169.96674376603914 170.0850393702276,158.62164626352023 184.71181102353148,158.6883827424026 187.54645669274032,161.8249890911975 188.0,167.03038564010058 187.60314960614778,177.10737441299716 184.76850393693894,181.24489820346935 168.66771653527394,181.64530225592898 166.17322834627703,179.91021614748752 157.215748031158,179.37634251493728 157.38582677138038,170.1669494921225" stroke="#4dd2ff" stroke-linecap="round" stroke-linejoin="round" stroke-width="0.5"><title>2024-04-27 9.8km</title><desc>1714200483443</desc></polyline><polyline fill="none" points="12.0,206.58475421514595 12.563380281673744,208.50796987867216 13.690140845021233,209.30378148838645 15.436619718326256,209.10482868301915 16.732394366059452,208.64060521882493 17.521126760402694,209.30378148838645 19.267605633707717,208.57428755232831 21.239436619682238,207.11529707093723 21.746478873305023,206.31948261457728 22.87323943665251,205.45734911895124 25.690140845254064,202.6719864460756 27.436619718326256,201.08034494001186 29.633802816970274,198.89183110831073 32.73239436629228,198.36128112167353 36.73239436629228,198.42759989516344 38.30985915497877,198.09600595594384 39.7746478873305,198.56023742060643 43.549295774661005,198.6265561725013 44.95774647896178,198.82551238517044 47.26760563394055,201.34561881172704 47.83098591561429,204.66153250657953 47.83098591561429,208.3753345097066 47.83098591561429,212.42070032731863 47.83098591561429,216.26708892267197 47.26760563394055,218.85344007244566 44.563380281906575,221.43978029035497 40.73239436605945,221.6387290849816 36.95774647896178,221.57241282740142 32.619718310190365,221.77136157889618 28.845070422859862,221.57241282740142 27.04225352127105,220.44503534643445 24.394366197055206,219.7155546930735 20.507042253622785,219.7155546930735 17.521126760402694,219.5829217537539 17.01408450724557,218.78712351294234 16.676056338008493,214.6754827812547 17.01408450724557,211.0280364252394 17.746478873305023,209.83432198659284 19.323943661991507,208.04374596162234 21.01408450724557,207.04897923907265 24.05633802828379,204.66153250657953 26.704225352266803,202.07512136665173 29.352112676249817,199.48869929328794 30.92957746470347,198.49391866155202 34.92957746470347,198.6265561725013 37.97183098620735,199.02446853311267 38.87323943665251,198.82551238517044 41.23943661968224,198.6265561725013 44.394366197288036,198.6265561725013 45.74647887353785,199.62133658869425 47.661971831461415,202.47303148446372 47.88732394366525,206.3858005256625 47.661971831461415,209.5690517949406 47.83098591561429,212.8186037169653 47.94366197218187,216.86394015833503 46.25352112692781,219.98082048585638 44.16901408461854,221.70504533540225 39.7746478873305,221.77136157889618 36.676056338241324,221.83767781517236 33.01408450724557,221.77136157889618 29.239436619682238,221.70504533540225 26.87323943665251,220.37871895940043 25.239436619682238,219.98082048585638 23.774647887563333,220.17976975487545 19.605633802711964,219.7818711521104 17.464788732584566,219.7818711521104 16.619718309957534,218.78712351294234 16.619718309957534,214.94075075897854 17.183098591398448,210.76276675134432 18.760563380317762,209.10482868301915 20.732394366059452,207.31425052322447 23.09859154908918,205.45734911895124 25.633802816970274,202.6719864460756 28.676056338241324,200.01924830226926 30.704225352033973,198.56023742060643 35.09859154955484,198.42759989516344 37.29577464796603,198.6265561725013 38.87323943665251,198.56023742060643 43.21126760565676,198.42759989516344 44.95774647896178,198.7591936548124 47.492957746610045,201.67721098999027 47.94366197218187,204.130987522949 47.605633802944794,207.5132039107848 47.77464788756333,208.44165219785646 47.605633802944794,212.61965205462184 47.549295774661005,216.99657368724002 47.21126760565676,218.91975662496407 45.29577464796603,220.7766171740368 44.28169014095329,221.6387290849816 40.11267605656758,221.70504533540225 37.12676056334749,221.6387290849816 33.352112676016986,221.50609656237066 29.239436619682238,221.50609656237066 26.647887323750183,220.17976975487545 25.239436619682238,219.84818760381313 22.309859154978767,219.64923822699348 18.14084507059306,219.5829217537539 16.95774647896178,218.85344007244566 16.732394366059452,215.80287089245394 16.90140845067799,212.75228650326608 18.760563380317762,209.10482868301915 21.07042253529653,207.77847499377094 23.267605633940548,205.52366712340154 23.830985915614292,204.794168680266 25.577464788686484,203.20253269479144 27.380281690275297,201.34561881172704 30.14084507059306,198.95814982434968 31.830985915614292,198.56023742060643 34.02816901425831,198.7591936548124 36.84507042262703,198.6265561725013 38.30985915497877,198.95814982434968 41.35211267624982,198.56023742060643 44.28169014095329,198.56023742060643 46.3098591552116,200.2182040619664 47.77464788756333,202.34039480710635 47.661971831461415,206.3858005256625 47.605633802944794,209.37009907589527 47.71830985927954,213.21650684793713 47.661971831461415,216.99657368724002 47.549295774661005,218.52185720269335 45.8591549298726,220.31240256497404 42.98591549322009,221.70504533540225 39.7746478873305,221.77136157889618 36.507042253622785,221.77136157889618 33.633802816970274,221.90399404405616 31.26760563417338,221.77136157889618 29.802816901588812,221.77136157889618 27.380281690275297,220.97556618443923 24.95774647896178,219.84818760381313 22.9295774649363,219.5829217537539 20.450704225338995,219.38397229049588 17.690140845021233,219.5829217537539 17.01408450724557,218.9860731700319 16.563380281673744,216.0018215200398 16.95774647896178,214.01231233368162 17.85915492963977,213.68072684039362 17.183098591398448,213.68072684039362 16.90140845067799,212.1554312571534 18.366197183262557,209.43641665606992 19.267605633707717,208.3753345097066 20.788732394576073,207.44688612199388 22.9295774649363,205.65630311029963 25.01408450701274,203.93203303549672 26.816901408601552,202.00880298862467 29.521126760635525,199.42238063487457 30.591549295932055,198.82551238517044 34.30985915497877,198.69287491729483 37.464788732584566,198.95814982434968 38.30985915497877,199.0907872345997 40.95774647919461,198.82551238517044 44.16901408461854,198.69287491729483 46.591549295932055,200.68243391666329 47.83098591561429,204.06466936762445 47.88732394366525,207.9774282303406 47.77464788756333,211.82384475751314 47.71830985927954,215.60392020025756 47.492957746610045,218.25659077760065 44.6197183097247,221.17451513005653 40.78873239434324,221.43978029035497 37.12676056334749,221.37346401112154 33.408450704300776,221.30714772461215 31.380281690275297,221.50609656237066 28.788732394343242,221.70504533540225 26.253521126927808,220.11345333914505 22.422535211546347,219.7818711521104 18.760563380317762,219.7155546930735 17.464788732584566,219.38397229049588 16.95774647896178,218.58817379100947 16.8450704223942,214.874433775316 16.788732394576073,212.75228650326608 17.239436619682238,210.49749696231447 19.154929577372968,208.7069228780456 21.183098591398448,206.65107209712733 24.00000000023283,204.32994194549974 27.09859154932201,201.74352940404788 29.690140845021233,199.22342461626977 30.647887323983014,198.6265561725013 34.422535211313516,198.7591936548124 38.36619718326256,199.02446853311267 41.12676056334749,198.82551238517044 44.67605633800849,198.89183110831073 46.647887323983014,200.8813894605264 47.492957746610045,202.00880298862467 47.77464788756333,204.39626007212792 47.94366197218187,207.18161489552585 47.77464788756333,211.09435382584343 47.77464788756333,214.74179978657048 47.549295774661005,217.19552392652258 47.04225352103822,218.91975662496407 45.18309859163128,221.04188250674633 42.87323943688534,221.57241282740142 39.04225352127105,221.70504533540225 34.70422535203397,221.6387290849816 31.380281690275297,221.50609656237066 28.732394366292283,221.70504533540225 27.04225352127105,220.31240256497404 24.338028169237077,219.7155546930735 20.05633802828379,219.51660527312197 17.80281690112315,219.64923822699348 16.95774647896178,219.052389708173 16.90140845067799,216.66498981101904 16.90140845067799,212.95123812288512 17.521126760402694,210.29854454507586" stroke="#4dd2ff" stroke-linecap="round" stroke-linejoin="round" stroke-width="0.5"><title>2024-04-27 10.1km</title><desc>9223370322649067555</desc></polyline><polyline fill="none" points="76.66666667163372,206.9731005989015 86.95238095521927,206.9731005989015 74.09523808956146,213.02689939923584 58.66666667163372,206.9731005989015 94.66666667163372,213.02689939923584 66.38095237314701,213.02689939923584" stroke="#4dd2ff" stroke-linecap="round" stroke-linejoin="round" stroke-width="0.5"><title>2024-04-26 5.2km</title><desc>9223370322713802999</desc></polyline><polyline fill="none" points="154.0869565224275,210.0000080873724 153.5652173915878,209.79529019829351 154.78260869532824,210.40944379928987 155.82608695607632,211.43303269089665 158.78260869532824,211.43303269089665 160.17391304392368,210.61416162212845 160.34782608691603,209.59057228639722 159.65217391215265,210.61416162212845 159.13043478224427,209.79529019829351 160.0,209.38585435261484 163.82608695607632,209.38585435261484 165.21739130374044,209.79529019829351 167.65217391308397,209.59057228639722 168.0,208.56698239664547 167.1304347831756,207.54339195194189 164.5217391308397,206.31508268648759 163.13043478224427,205.49620939791203 161.21739130374044,204.47261728951707 160.17391304392368,208.15754628519062 160.17391304392368,209.38585435261484 159.30434782616794,210.20472595468163 158.26086956448853,210.0000080873724 156.8695652168244,210.20472595468163 155.30434782523662,209.79529019829351 154.9565217392519,211.22831495699938 156.5217391308397,211.84246809210163 155.30434782523662,212.6613386287354 156.5217391308397,212.8660562071018 156.17391304299235,213.8896437678486 155.30434782523662,214.50379603740294 152.0,215.52738271059934 156.69565217383206,212.04718575940933 157.91304347850382,211.43303269089665 157.56521739065647,210.20472595468163 161.39130434766412,211.43303269089665 162.9565217392519,211.22831495699938 164.17391304299235,211.84246809210163 163.4782608691603,212.6613386287354 163.82608695607632,213.48020881030243 164.86956521775573,214.2990786364535 164.86956521775573,215.1179481075378 163.4782608691603,215.52738271059934 160.69565217290074,214.2990786364535 160.52173912990838,213.07077376369853 162.26086956448853,212.8660562071018 163.13043478224427,213.48020881030243 165.21739130374044,212.8660562071018 165.5652173915878,214.0943612131523 164.17391304299235,214.91323077329434 162.60869565233588,214.91323077329434 157.91304347850382,212.04718575940933 155.30434782523662,209.79529019829351 154.0869565224275,209.38585435261484 152.8695652168244,209.59057228639722 153.5652173915878,208.77170041936915 154.9565217392519,209.1811363970628 156.0,208.97641841915902 155.30434782523662,209.79529019829351 153.73913043364882,209.79529019829351 152.0,210.0000080873724 155.82608695607632,210.20472595468163 157.21739130467176,209.59057228639722 158.26086956448853,209.59057228639722 159.13043478224427,210.40944379928987 161.21739130374044,209.38585435261484 162.08695652056485,209.79529019829351 163.13043478224427,209.79529019829351 163.82608695607632,210.40944379928987 164.86956521775573,210.81887942238245 165.91304347850382,210.61416162212845 166.78260869532824,210.81887942238245 167.82608695700765,212.04718575940933 169.5652173915878,213.2754912978271 170.9565217392519,213.07077376369853 172.0,213.48020881030243 170.60869565140456,212.8660562071018 168.0,212.25190340471454 169.0434782607481,211.84246809210163 169.21739130374044,213.07077376369853 170.43478260934353,212.8660562071018 170.60869565140456,211.84246809210163 171.4782608691603,212.6613386287354 172.5217391308397,212.8660562071018 169.5652173915878,212.8660562071018 170.9565217392519,213.07077376369853 171.30434782616794,212.4566210275516 172.17391304299235,212.8660562071018 173.0434782607481,213.48020881030243 170.08695652149618,214.50379603740294 172.0,213.8896437678486 174.26086956541985,212.04718575940933 173.39130434859544,211.02359720063396 173.39130434859544,211.84246809210163 171.4782608691603,212.25190340471454 169.5652173915878,212.04718575940933 168.17391304299235,211.22831495699938 164.86956521775573,211.02359720063396 166.43478260934353,211.22831495699938 167.30434782616794,212.25190340471454 169.0434782607481,211.43303269089665 172.5217391308397,211.22831495699938 174.60869565233588,211.84246809210163 176.69565217383206,212.04718575940933 178.0869565224275,212.04718575940933 181.9130434775725,212.4566210275516 185.5652173915878,212.8660562071018 188.0,213.2754912978271 185.5652173915878,213.2754912978271 185.0434782616794,213.2754912978271 182.78260869625956,213.2754912978271 180.86956521775573,213.07077376369853 179.47826087009162,213.2754912978271 177.56521739065647,213.2754912978271 176.8695652168244,212.6613386287354 174.60869565233588,212.04718575940933 178.0869565224275,211.63775040290784 179.47826087009162,212.4566210275516 180.34782608691603,212.04718575940933 179.30434782616794,211.84246809210163 179.82608695700765,212.04718575940933 178.9565217392519,212.4566210275516 177.91304347850382,212.4566210275516 179.30434782616794,211.63775040290784" stroke="#4dd2ff" stroke-linecap="round" stroke-linejoin="round" stroke-width="0.5"><title>2024-04-24 3.4km</title><desc>9223370322893282018</desc></polyline><polyline fill="none" points="48.0,251.8695558840409 15.176470588892698,246.88407397922128 12.0,253.11592602077872 16.235294122248888,248.13044465705752" stroke="#4dd2ff" stroke-linecap="round" stroke-linejoin="round" stroke-width="0.5"><title>2024-04-23 3.1km</title><desc>9223370322979897699</desc></polyline></svg>