<?xml version="1.0" encoding="utf-8" ?>
<svg baseProfile="full" height="300mm" version="1.1" viewBox="0,0,200,300" width="200mm" xmlns="http://www.w3.org/2000/svg" xmlns:ev="http://www.w3.org/2001/xml-events" xmlns:xlink="http://www.w3.org/1999/xlink"><defs /><rect fill="#222222" height="300" width="200" x="0" y="0" /><text fill="#FFFFFF" style="font-size:12px; font-family:Arial; font-weight:bold;" x="10" y="20">Over 3km Runs</text><text fill="#FFFFFF" style="font-size:4px; font-family:Arial" x="10" y="280">ATHLETE</text><text fill="#FFFFFF" style="font-size:9px; font-family:Arial" x="10" y="290">L</text><text fill="#FFFFFF" style="font-size:4px; font-family:Arial" x="120" y="280">STATISTICS</text><text fill="#FFFFFF" style="font-size:3px; font-family:Arial" x="120" y="285">Number: 10</text><text fill="#FFFFFF" style="font-size:3px; font-family:Arial" x="120" y="290">Weekly: 5.0</text><text fill="#FFFFFF" style="font-size:3px; font-family:Arial" x="141" y="285">Total: 51.2 km</text><text fill="#FFFFFF" style="font-size:3px; font-family:Arial" x="141" y="290">Avg: 5.1 km</text><text fill="#FFFFFF" style="font-size:3px; font-family:Arial" x="167" y="285">Min: 3.0 km</text><text fill="#FFFFFF" style="font-size:3px; font-family:Arial" x="167" y="290">Max: 10.1 km</text><polyline fill="none" points="53.76230002194643,72.60001716949046 38.47085554897785,79.80001014657319 14.004544377326965,87.0 35.412566639482975,54.60002107359469 65.99545561522245,33.0 56.820588916540146,45.60001570545137 33.88342220336199,60.0000219438225 35.412566639482975,69.00001950562 29.295988850295544,61.800021851435304 17.0628332644701,79.80001014657319 21.650266610085964,76.2000140491873" stroke="#4dd2ff" stroke-linecap="round" stroke-linejoin="round" stroke-width="0.5"><title>2024-05-04 3.0km</title><desc>9223370322023120704</desc></polyline><polyline fill="none" points="98.76015267521143,68.02705170586705 122.31725176423788,33.0 116.11801516264677,34.45946230459958 88.84137412160635,69.48651021439582 91.32106875628233,78.24325795657933 102.47969464212656,87.0 97.52030535787344,85.54054338950664 86.36167947947979,84.08108661696315 77.68274823576212,81.16217260155827 83.88198483735323,78.24325795657933 86.36167947947979,76.78380039334297" stroke="#4dd2ff" stroke-linecap="round" stroke-linejoin="round" stroke-width="0.5"><title>2024-05-03 5.0km</title><desc>9223370322115228759</desc></polyline><polyline fill="none" points="153.4465149641037,33.0 186.21394035220146,87.0 133.78605967760086,87.0" stroke="#4dd2ff" stroke-linecap="round" stroke-linejoin="round" stroke-width="0.5"><title>2024-05-02 6.8km</title><desc>9223370322200251369</desc></polyline><polyline fill="none" points="26.5,135.8912412840873 13.0,140.43159087374806 67.0,120.00000996515155 59.28571428358555,126.81053914688528 65.07142855972052,113.1894785668701 67.0,99.56840912625194 67.0,101.83858797699213" stroke="#4dd2ff" stroke-linecap="round" stroke-linejoin="round" stroke-width="0.5"><title>2024-05-01 4.0km</title><desc>9223370322286947528</desc></polyline><polyline fill="none" points="82.5294117666781,117.7565357373096 127.0,125.23475372977555 73.0,118.50435790186748 91.42352941259742,114.76524626975879 85.7058823518455,117.00871349312365 90.78823529183865,118.50435790186748 88.8823529407382,115.51306875934824 83.80000000074506,117.7565357373096 88.24705882743001,117.00871349312365 76.81176470592618,118.50435790186748 86.34117646887898,117.00871349312365 98.4117647074163,114.76524626975879 99.68235294148326,115.51306875934824 82.5294117666781,116.26089116604999 83.16470588371158,118.50435790186748" stroke="#4dd2ff" stroke-linecap="round" stroke-linejoin="round" stroke-width="0.5"><title>2024-04-30 5.3km</title><desc>9223370322373916531</desc></polyline><polyline fill="none" points="135.183514774777,104.82542821147945 133.58786936290562,106.80260791117325 133.3359253499657,111.74553840805311 133.3359253499657,114.90899986802833 134.17573872487992,117.77587733854307 135.85536547424272,118.96216882823501 138.45878693601117,118.66559610044351 140.3903576983139,117.97359269391745 141.5660964231938,118.96216882823501 144.16951788496226,117.87473502149805 147.1088646966964,115.69986351864645 147.8646967341192,114.51356778544141 149.54432348394766,113.22841233352665 153.74339035805315,109.07635926676448 156.3468118198216,106.7037490279181 159.62208398152143,103.44139987131348 164.24105754308403,102.65052559110336 170.20373250404373,102.74938491365174 172.5552099533379,102.25508819398237 174.7387247281149,102.94710352655966 180.3654743391089,103.0459628169192 182.4650077763945,103.34254062385298 185.90824261307716,107.0991844960954 186.7480559879914,112.04211338644382 186.7480559879914,117.57816194009501 186.7480559879914,123.60846230742754 186.7480559879914,129.34215354954358 185.90824261307716,133.1975463598501 181.87713841395453,137.05292287439806 176.16640746500343,137.3494896235643 170.53965785400942,137.2506340513355 164.07309486810118,137.54720073612407 158.44634525710717,137.2506340513355 155.75894245738164,135.57008768199012 151.81181959575042,134.48267367540393 146.01710730977356,134.48267367540393 141.5660964231938,134.28496189881116 140.810264385771,133.09869033761788 140.30637636082247,126.96959602768766 140.810264385771,121.53246176289394 141.9020217731595,119.75302896444919 144.25349922245368,117.08387325692456 146.77293934719637,115.6010055996594 151.30793157080188,112.04211338644382 155.2550544324331,108.1866311506601 159.20217729452997,104.33113261673134 161.5536547433585,102.84824422554811 167.51632970478386,103.0459628169192 172.05132192885503,103.63911833422026 173.39502332825214,103.34254062385298 176.92223950242624,103.0459628169192 181.62519440148026,103.0459628169192 183.64074650174007,104.52885088679614 186.49611197598279,108.77978332474595 186.83203732548282,114.61242582235718 186.49611197598279,119.35759898199467 186.7480559879914,124.20160445210058 186.91601866297424,130.23186102911131 184.3965785386972,134.87809710059082 181.28926905151457,137.44834518502466 174.7387247281149,137.54720073612407 170.1197511665523,137.64605627651326 164.66096423054114,137.54720073612407 159.03421461908147,137.44834518502466 155.50699844490737,135.47123191691935 153.07153965812176,134.87809710059082 150.88802488381043,135.1746645567473 144.6734059099108,134.58152954786783 141.48211508616805,134.58152954786783 140.2223950237967,133.09869033761788 140.2223950237967,127.36502270988422 141.06220839824528,121.13703255227301 143.41368584753945,118.66559610044351 146.3530326592736,115.99643721064785 149.8802488334477,113.22841233352665 153.65940902009606,109.07635926676448 158.1944012446329,105.12200543965446 161.21772939385846,102.94710352655966 167.76827371725813,102.74938491365174 171.04354587895796,103.0459628169192 173.39502332825214,102.94710352655966 179.86158631416038,102.74938491365174 182.4650077763945,103.24368136556586 186.24416796304286,107.59347859077388 186.91601866297424,111.25124656409025 186.4121306380257,116.29301080625737 186.66407465049997,117.67701964481967 186.4121306380257,123.90503342816373 186.32814930053428,130.42957368452335 185.82426127558574,133.29640237172134 182.96889580134302,136.06436634721467 181.4572317264974,137.3494896235643 175.2426127535291,137.44834518502466 170.7916018664837,137.3494896235643 165.16485225502402,137.15177846810548 159.03421461908147,137.15177846810548 155.17107309494168,135.1746645567473 153.07153965812176,134.6803854093887 148.70451010903344,134.38381779240444 142.48989113559946,134.28496189881116 140.72628304874524,133.1975463598501 140.3903576983139,128.65015824319562 140.64230171078816,124.10274745471543 143.41368584753945,118.66559610044351 146.85692068422213,116.68844211735995 150.13219284638762,113.32727050967515 150.97200622130185,112.23982998443535 153.5754276830703,109.86722797498805 156.26283048233017,107.0991844960954 160.37791601894423,103.54025910823839 162.89735614322126,102.94710352655966 166.1726283049211,103.24368136556586 170.37169517902657,103.0459628169192 172.5552099533379,103.54025910823839 177.09020217787474,102.94710352655966 181.4572317264974,102.94710352655966 184.48055987618864,105.41858257132117 186.66407465049997,108.58206597599201 186.49611197598279,114.61242582235718 186.4121306380257,119.06102638290031 186.58009331300855,124.79474621103145 186.49611197598279,130.42957368452335 186.32814930053428,132.70326614117948 183.80870917625725,135.37237614073092 179.52566096466035,137.44834518502466 174.7387247281149,137.54720073612407 169.86780715407804,137.54720073612407 165.5847589429468,137.74491180595942 162.0575427687727,137.54720073612407 159.8740279939957,137.54720073612407 156.26283048233017,136.36093341797823 152.65163297066465,134.6803854093887 149.6283048214391,134.28496189881116 145.93312597228214,133.98839415301336 141.81804043566808,134.28496189881116 140.810264385771,133.3952583723585 140.13841368583962,128.94672772457125 140.72628304874524,125.98102857201593 142.06998444814235,125.48674444243079 141.06220839824528,125.48674444243079 140.64230171078816,123.21303399681346 142.82581648556516,119.15988392662257 144.16951788496226,117.57816194009501 146.43701399723068,116.19415295158979 149.6283048214391,113.52498682925943 152.73561430815607,110.95467132888734 155.42301710741594,108.08777241758071 159.45412130653858,104.23227346577914 161.04976671887562,103.34254062385298 166.5925349923782,103.14482209668495 171.29548989143223,103.54025910823839 172.5552099533379,103.73797754949192 176.50233281543478,103.34254062385298 181.28926905151457,103.14482209668495 184.9004665631801,106.11059550399659 186.7480559879914,111.15238816296915 186.83203732548282,116.98501548793865 186.66407465049997,122.71874836704228 186.58009331300855,128.3535886654863 186.24416796304286,132.30784177337773 181.9611197509803,136.65750039211707 176.25038880249485,137.05292287439806 170.7916018664837,136.95406726998044 165.24883359251544,136.8552116547362 162.22550544375554,137.15177846810548 158.36236391915008,137.44834518502466 154.58320373296738,135.0758087488357 148.87247278401628,134.58152954786783 143.41368584753945,134.48267367540393 141.48211508616805,133.98839415301336 140.72628304874524,132.80212220625253 140.55832037329674,127.26616605534218 140.47433903627098,124.10274745471543 141.1461897357367,120.74160316999769 144.00155520997941,118.07245035551023 147.02488335920498,115.0078578616376 151.22395023377612,111.54782170249382 155.84292379487306,107.69233737746254 159.7060653185472,103.93569594807923 161.13374805636704,103.0459628169192 166.76049766736105,103.24368136556586 172.639191291295,103.63911833422026 176.7542768274434,103.34254062385298 182.04510108893737,103.44139987131348 184.9844479006715,106.40717231394956 186.24416796304286,108.08777241758071 186.66407465049997,111.64668006077409 186.91601866297424,115.79872142663226 186.66407465049997,121.63131903891917 186.66407465049997,127.06845271441853 186.32814930053428,130.7261425871984 185.57231726311147,133.29640237172134 182.80093312636018,136.4597890865989 179.3576982896775,137.2506340513355 173.6469673407264,137.44834518502466 167.18040435481817,137.3494896235643 162.22550544375554,137.15177846810548 158.27838258212432,137.44834518502466 155.75894245738164,135.37237614073092 151.72783825872466,134.48267367540393 145.34525660984218,134.18610599415842 141.98600311018527,134.38381779240444 140.72628304874524,133.49411436275113 140.64230171078816,129.93529196555028 140.64230171078816,124.39931841479847 141.5660964231938,120.44503102090675 139.71850699884817,117.57816194009501 139.80248833587393,112.93183774146019 139.88646967336535,110.75695445179008" stroke="#4dd2ff" stroke-linecap="round" stroke-linejoin="round" stroke-width="0.5"><title>2024-04-27 10.1km</title><desc>9223370322649067555</desc></polyline><polyline fill="none" points="40.0,175.4596509002149 55.42857141792774,175.4596509002149 36.142857134342194,184.5403490997851 13.0,175.4596509002149 67.0,184.5403490997851 24.571428567171097,184.5403490997851" stroke="#4dd2ff" stroke-linecap="round" stroke-linejoin="round" stroke-width="0.5"><title>2024-04-26 5.2km</title><desc>9223370322713802999</desc></polyline><polyline fill="none" points="102.57142857462168,201.18832335341722 127.0,158.81167664658278 119.28571428358555,158.81167664658278 112.85714285820723,161.8385842423886 106.4285714328289,163.3520377986133 94.85714285820723,163.3520377986133 80.71428571641445,173.9462080867961 75.5714285671711,184.54037034139037 88.42857141792774,187.56727236509323 73.0,180.00001607555896 80.71428571641445,186.05382143799216 89.71428570896387,187.56727236509323 92.28571428358555,190.59417373035103 81.99999999254942,199.6748739015311 85.85714285820723,195.13452455494553 80.71428571641445,192.10762416943908 81.99999999254942,192.10762416943908" stroke="#4dd2ff" stroke-linecap="round" stroke-linejoin="round" stroke-width="0.5"><title>2024-04-25 5.2km</title><desc>9223370322805955311</desc></polyline><polyline fill="none" points="152.82608695607632,180.92124243313447 147.60869565233588,175.0867787951138 148.65217391308397,176.62216512835585 147.86956521775573,178.15755062899552 146.82608695607632,179.38585842959583 144.21739130467176,178.15755062899552 144.73913043458015,179.69293529726565 142.91304347943515,180.30708893202245 141.86956521775573,179.38585842959583 139.52173912990838,178.46462762868032 135.8695652168244,179.07878152886406 136.1304347831756,180.0000121309422 135.34782608784735,179.69293529726565 137.17391304299235,180.6141656988766 138.73913043458015,182.14954903628677 143.17391304299235,182.14954903628677 145.26086956541985,180.92124243313447 145.5217391308397,179.38585842959583 144.47826086822897,180.92124243313447 143.69565217383206,179.69293529726565 145.00000000093132,179.07878152886406 150.73913043458015,179.07878152886406 152.82608695607632,179.69293529726565 156.47826087009162,179.38585842959583 157.0,177.85047359508462 155.69565217476338,176.3150879277382 151.78260869625956,174.47262402973138 149.69565217383206,173.24431409686804 146.82608695607632,171.7089259342756 145.26086956541985,177.23631942784414 145.26086956541985,179.07878152886406 143.9565217392519,180.30708893202245 142.39130434766412,180.0000121309422 140.30434782616794,180.30708893202245 137.9565217383206,179.69293529726565 137.4347826084122,181.84247243544087 139.78260869625956,182.76370213809423 137.9565217383206,183.9920079431031 139.78260869625956,184.2990843106527 139.26086956448853,185.83446565177292 137.9565217383206,186.7556940561626 133.0,188.29107406595722 140.0434782607481,183.0707786390558 141.86956521775573,182.14954903628677 141.34782608691603,180.30708893202245 147.08695652149618,182.14954903628677 149.43478260934353,181.84247243544087 151.26086956448853,182.76370213809423 150.21739130374044,183.9920079431031 150.73913043458015,185.22031321539544 152.30434782616794,186.44861795473844 152.30434782616794,187.67692216136493 150.21739130374044,188.29107406595722 146.04347825981677,186.44861795473844 145.78260869532824,184.606160645606 148.39130434766412,184.2990843106527 149.69565217383206,185.22031321539544 152.82608695607632,184.2990843106527 153.34782608784735,186.14154181978665 151.26086956448853,187.3698461598251 148.91304347850382,187.3698461598251 141.86956521775573,183.0707786390558 137.9565217383206,179.69293529726565 136.1304347831756,179.07878152886406 134.30434782523662,179.38585842959583 135.34782608784735,178.15755062899552 137.4347826084122,178.771704595536 139.0,178.46462762868032 137.9565217383206,179.69293529726565 135.60869565140456,179.69293529726565 133.0,180.0000121309422 138.73913043458015,180.30708893202245 140.82608695700765,179.38585842959583 142.39130434766412,179.38585842959583 143.69565217383206,180.6141656988766 146.82608695607632,179.07878152886406 148.13043478131294,179.69293529726565 149.69565217383206,179.69293529726565 150.73913043458015,180.6141656988766 152.30434782616794,181.22831913363189 153.86956521775573,180.92124243313447 155.17391304392368,181.22831913363189 156.73913043551147,183.0707786390558 159.34782608691603,184.91323694656603 161.4347826084122,184.606160645606 163.0,185.22031321539544 160.9130434775725,184.2990843106527 157.0,183.3778551069554 158.5652173915878,182.76370213809423 158.82608695607632,184.606160645606 160.6521739140153,184.2990843106527 160.9130434775725,182.76370213809423 162.21739130374044,183.9920079431031 163.78260869625956,184.2990843106527 159.34782608691603,184.2990843106527 161.4347826084122,184.606160645606 161.9565217392519,183.6849315413274 163.26086956541985,184.2990843106527 164.5652173915878,185.22031321539544 160.13043478224427,186.7556940561626 163.0,185.83446565177292 166.39130434859544,183.0707786390558 165.0869565224275,181.53539580083452 165.0869565224275,182.76370213809423 162.21739130374044,183.3778551069554 159.34782608691603,183.0707786390558 157.26086956448853,181.84247243544087 152.30434782616794,181.53539580083452 154.6521739140153,181.84247243544087 155.9565217392519,183.3778551069554 158.5652173915878,182.14954903628677 163.78260869625956,181.84247243544087 166.91304347943515,182.76370213809423 170.0434782607481,183.0707786390558 172.1304347831756,183.0707786390558 177.8695652168244,183.6849315413274 183.34782608691603,184.2990843106527 187.0,184.91323694656603 183.34782608691603,184.91323694656603 182.56521739251912,184.91323694656603 179.173913044855,184.91323694656603 176.30434782709926,184.606160645606 174.21739130467176,184.91323694656603 171.34782608691603,184.91323694656603 170.30434782616794,183.9920079431031 166.91304347943515,183.0707786390558 172.1304347831756,182.45662560430355 174.21739130467176,183.6849315413274 175.5217391308397,183.0707786390558 173.95652174018323,182.76370213809423 174.73913043551147,183.0707786390558 173.43478260934353,183.6849315413274 171.86956521775573,183.6849315413274 173.95652174018323,182.45662560430355 171.34782608691603,183.3778551069554 168.21739130467176,184.91323694656603 164.82608695700765,185.83446565177292 165.86956521775573,186.44861795473844 168.99999999906868,186.14154181978665 168.73913043551147,184.2990843106527 167.69565217383206,183.9920079431031 168.21739130467176,183.3778551069554 170.0434782607481,183.9920079431031 171.86956521775573,185.83446565177292 171.0869565224275,186.7556940561626 168.73913043551147,187.67692216136493 165.0869565224275,185.5273894497659" stroke="#4dd2ff" stroke-linecap="round" stroke-linejoin="round" stroke-width="0.5"><title>2024-04-24 3.4km</title><desc>9223370322893282018</desc></polyline><polyline fill="none" points="67.0,242.804333826527 17.764705881476402,235.3261109702289 13.0,244.67388903163373 19.352941177785397,237.19566698744893" stroke="#4dd2ff" stroke-linecap="round" stroke-linejoin="round" stroke-width="0.5"><title>2024-04-23 3.1km</title><desc>9223370322979897699</desc></polyline></svg>