<?xml version="1.0" encoding="utf-8" ?>
<svg baseProfile="full" height="300mm" version="1.1" viewBox="0,0,200,300" width="200mm" xmlns="http://www.w3.org/2000/svg" xmlns:ev="http://www.w3.org/2001/xml-events" xmlns:xlink="http://www.w3.org/1999/xlink"><defs /><rect fill="#222222" height="300" width="200" x="0" y="0" /><text fill="#FFFFFF" style="font-size:12px; font-family:Arial; font-weight:bold;" x="10" y="20">Over 3km Runs</text><text fill="#FFFFFF" style="font-size:4px; font-family:Arial" x="10" y="280">ATHLETE</text><text fill="#FFFFFF" style="font-size:9px; font-family:Arial" x="10" y="290">L</text><text fill="#FFFFFF" style="font-size:4px; font-family:Arial" x="120" y="280">STATISTICS</text><text fill="#FFFFFF" style="font-size:3px; font-family:Arial" x="120" y="285">Number: 16</text><text fill="#FFFFFF" style="font-size:3px; font-family:Arial" x="120" y="290">Weekly: 4.0</text><text fill="#FFFFFF" style="font-size:3px; font-family:Arial" x="141" y="285">Total: 88.9 km</text><text fill="#FFFFFF" style="font-size:3px; font-family:Arial" x="141" y="290">Avg: 5.6 km</text><text fill="#FFFFFF" style="font-size:3px; font-family:Arial" x="167" y="285">Min: 3.0 km</text><text fill="#FFFFFF" style="font-size:3px; font-family:Arial" x="167" y="290">Max: 10.1 km</text><polyline fill="none" points="40.80299334018491,32.60142738479772 42.70615136413835,32.55749897833448 45.09442810015753,32.25 45.80344775621779,32.25 45.99003187613562,32.29392843981623 46.17661599628627,32.46964215117623 46.32588329236023,32.733212575520156 46.288566468283534,35.01748240538291 46.32588329236023,35.50069168113987 46.47515058820136,36.11568447132595 46.62441788427532,38.883140478108544 46.58710106019862,39.585983438941184 46.69905153219588,41.167375643970445 46.661734708352014,42.880543569277506 46.84831882826984,45.29653731005965 46.81100200442597,46.219003848178545 46.885635652113706,47.5807363288186 46.84831882826984,48.63497768776142 46.9229524761904,50.128481585299596 46.885635652113706,50.78737861389527 47.07221977226436,53.33510371306329 47.07221977226436,53.73043893094291 47.18417024426162,54.696812284819316 47.07221977226436,55.53140559984604 47.29612071625888,57.33236426618532 47.146853420184925,58.913687228865456 47.22148706810549,59.35294251260348 47.29612071625888,61.59313705438399 47.37075436417945,61.988464217749424 47.33343754033558,62.6473419664253 47.408071188256145,63.174443394178525 47.33343754033558,64.53611891006585 47.408071188256145,64.71181864343816 47.408071188256145,65.59031616782886 47.55733848409727,66.90805888432078 47.48270483617671,67.7865516487218 47.5946553084068,69.41175824365928 47.520021660253406,70.59771570024895 47.66928895609453,71.65189719334012 47.5946553084068,72.48645559768192 47.258803892182186,72.61822782026138 46.54978423635475,72.61822782026138 45.57954681222327,72.75 44.79589350824244,72.66215188481146 43.900289732264355,72.44253151403973 42.9300523083657,72.26683513159514 41.43737934809178,72.17898691183655 40.57909239619039,71.95936627915944 39.123736260225996,71.78366968716728 36.772776348283514,71.6958213627513 35.242786564165726,71.38835207716329 34.34718278795481,71.30050366700743 33.89938089996576,71.30050366700743 32.742559356149286,71.16873101599049 31.660371460020542,70.9051855855505 30.95135180396028,70.94910983595764 30.242332147900015,70.86126133057405 29.272094724001363,70.55379141206504 28.525758243864402,70.68556426273426 27.55552081996575,70.68556426273426 26.473332924069837,70.46594282091246 25.05529361194931,70.46594282091246 23.861155243823305,70.29024558182573 22.92823464400135,69.98277523001889 21.248977563809603,69.85100215062266 20.129472843836993,69.58745586356963 17.51729516382329,69.27998497858061 17.330711043672636,68.97251386049902 17.330711043672636,68.75289149052696 17.77851293166168,67.65477785549592 17.741196107817814,67.30338086391566 17.815829755971208,66.64451068372 17.66656245966442,64.49219396474655 18.188997995806858,61.46136124766781 18.03973069996573,60.5828547742567 18.077047523809597,60.05574997625081 18.188997995806858,59.528644492675085 18.52484941179864,58.25480341081857 19.383136363932863,56.45384884328814 19.868255075998604,54.91644227114739 20.31605696398765,53.862217251298716 20.726542027899995,52.72013705197605 21.137027092045173,51.84161163191311 21.360928035806865,51.138789924560115 22.107264515943825,49.51351005869219 22.331165459705517,48.63497768776142 22.66701687593013,48.195710788073484 22.853600995847955,47.6685898800788 23.338719707913697,47.05361462090514 24.15968983597122,45.6918803693261 24.122373012127355,45.6918803693261 24.30895713204518,45.516172390576685 24.756759019801393,44.76941263151821 25.129927259869874,43.97872432784061 26.137481508078054,42.22163368578185 26.771867515984923,41.3430855080951 27.630154468119144,40.0252596703649 28.488441420020536,38.48779077711515 28.82429283601232,37.69709021781455 29.272094724001363,37.03817190675181 29.79453025991097,35.67640400203527 30.503549916204065,35.10533868015045 31.884272404015064,32.9089260964538 32.29475746816024,32.64535578645882 32.48134158807807,32.60142738479772" stroke="#4dd2ff" stroke-linecap="round" stroke-linejoin="round" stroke-width="0.5"><title>2024-06-17 3.2km</title><desc>11672403120</desc></polyline><polyline fill="none" points="97.75,38.19790729880333 57.25,66.80209270119667" stroke="#4dd2ff" stroke-linecap="round" stroke-linejoin="round" stroke-width="0.5"><title>2024-05-09 8.0km</title><desc>9223370321595310162</desc></polyline><polyline fill="none" points="102.25,46.22715498134494 110.77631579339504,49.99086439795792 105.4473684206605,43.718014690093696 128.894736841321,57.51827956177294 142.75,61.281985309906304 134.22368421405554,60.0274168625474 105.4473684206605,55.00914171803743" stroke="#4dd2ff" stroke-linecap="round" stroke-linejoin="round" stroke-width="0.5"><title>2024-05-08 6.2km</title><desc>9223370321684028463</desc></polyline><polyline fill="none" points="167.50000002980232,32.25 161.2443999350071,72.75 173.75560007989407,58.022732861340046 173.75560007989407,61.70455024763942" stroke="#4dd2ff" stroke-linecap="round" stroke-linejoin="round" stroke-width="0.5"><title>2024-05-07 6.1km</title><desc>9223370321771754451</desc></polyline><polyline fill="none" points="162.58488619327545,97.25 187.16045525670052,137.75 147.83954474329948,137.75" stroke="#4dd2ff" stroke-linecap="round" stroke-linejoin="round" stroke-width="0.5"><title>2024-05-02 6.8km</title><desc>9223370322200251369</desc></polyline><polyline fill="none" points="22.375,194.4184309625998 12.25,197.82369315624237 52.75,182.50000747479498 46.96428570896387,187.60790436062962 51.30357141792774,177.39210892654955 52.75,167.17630684468895 52.75,168.8789409827441" stroke="#4dd2ff" stroke-linecap="round" stroke-linejoin="round" stroke-width="0.5"><title>2024-05-01 4.0km</title><desc>9223370322286947528</desc></polyline><polyline fill="none" points="57.25,186.60979942325503 97.75,178.39020057674497 85.18103448301554,183.32196042127907 96.3534482717514,186.60979942325503" stroke="#4dd2ff" stroke-linecap="round" stroke-linejoin="round" stroke-width="0.5"><title>2024-04-30 5.3km</title><desc>9223370322373916531</desc></polyline><polyline fill="none" points="102.25,179.68472626793664 103.97204724373296,181.56166023784317 107.41614173189737,180.8108872602461 108.75551181100309,181.86196920106886 123.29724409431219,169.32395923056174 138.92322834627703,169.47411638125777 141.9846456691157,172.55233079823665 142.6224409446586,190.94625380076468 138.92322834627703,195.3006620311644 121.12874015746638,195.45081355096772 118.13110236194916,193.64899316593073 108.30905511765741,193.19853733747732 107.73503936990164,183.51366617128951 110.3499999998603,180.1351908846409 123.48858267674223,169.32395923056174 138.73188976361416,169.47411638125777 141.6657480315771,172.40217431494966 142.6224409446586,176.00592093379237 142.23976377933286,192.07239648437826 138.47677165316418,195.60096503788373 121.57519685011357,195.60096503788373 118.51377952727489,193.7240691089537 107.54370078700595,192.74808121594833 108.11771653499454,182.7628953094245 122.40433070831932,169.69935204647481 139.36968503892422,169.62427349953214 142.6224409446586,173.82865959370974 142.30354330688715,190.2705673117889 141.9208661413286,192.4477769721998 138.6043307085056,195.52588929852936 121.57519685011357,195.37573779502418 118.13110236194916,193.5739172147005 108.43661417299882,193.12346133746905 107.41614173189737,191.39671109378105 107.60748031456023,185.4656666041701 108.11771653499454,182.9881266534212 122.59566929121502,169.84950911585474 138.6043307085056,169.3990378099843 141.9846456691157,172.4772525606677 142.30354330688715,191.99732036248315 138.79566929116845,195.45081355096772 137.13740157475695,195.60096503788373 122.21299212588929,195.67604076943826 118.4499999997206,193.79914504371118 108.5003937005531,193.19853733747732 107.2248031492345,189.1444216988748 107.67125984234735,186.89212498022243 108.69173228321597,186.51674148184247 107.54370078700595,186.291511285468 107.60748031456023,184.78997476940276 110.28622047207318,180.51057784131262 123.10590551164933,169.69935204647481 139.68858267716132,170.14982315682573 142.43110236222856,173.37819087563548 142.55866141733713,190.79610130458605 138.9870078735985,195.0003588940017 121.06496062967926,195.60096503788373 116.2177165353205,193.42376528825844 108.69173228321597,193.19853733747732 107.67125984234735,192.07239648437826 107.47992125968449,185.4656666041701 108.30905511765741,182.46258673683042 122.59566929121502,169.69935204647481 139.0507874013856,169.774430585152 142.23976377933286,173.3031127275899 142.75,179.1591838450986 142.30354330688715,190.49579621461453 139.11456692917272,195.1505104788812 121.00118110212497,195.60096503788373 118.19488188950345,193.64899316593073 108.11771653499454,193.0483853293117 108.30905511765741,182.6878181786742" stroke="#4dd2ff" stroke-linecap="round" stroke-linejoin="round" stroke-width="0.5"><title>2024-04-27 9.8km</title><desc>1714200483443</desc></polyline><polyline fill="none" points="147.25,178.65784849203192 147.88380281697027,180.8214661135571 149.151408450678,181.71675417444203 151.11619718302973,181.49293226841837 152.5739436619915,180.9706808712217 153.46126760565676,181.71675417444203 155.4260563380085,180.89607349637663 157.64436619728804,179.2547092048917 158.21478873258457,178.35941794147948 159.48239436629228,177.38951775885653 162.65140845091082,174.2559847519151 164.61619718326256,172.4653880575206 167.08802816923708,170.00330999691505 170.57394366222434,169.40644126193365 175.0739436619915,169.48104988213163 176.848591549322,169.10800670046592 178.49647887330502,169.63026709819678 182.74295774661005,169.70487569412217 184.32746478868648,169.92870143335313 186.92605633824132,172.76382116321474 187.5598591552116,176.49422406993108 187.5598591552116,180.67225132341264 187.5598591552116,185.22328786825528 187.5598591552116,189.55047503806418 186.92605633824132,192.4601200815523 183.8838028172031,195.3697528266348 179.57394366175868,195.59357022069162 175.32746478868648,195.51896443084115 170.44718309887685,195.74278177629458 166.20070422557183,195.51896443084115 164.17253521131352,194.2506647647824 161.1936619717162,193.42999902978772 156.82042253552936,193.42999902978772 153.46126760565676,193.2807869730168 152.89084507059306,192.38551395206014 152.51056338031776,187.75991812895518 152.89084507059306,183.65654097840888 153.71478873258457,182.31361223495333 155.48943661991507,180.29921420686878 157.3908450708259,179.18010164395673 160.81338028167374,176.49422406993108 163.79225352127105,173.5845115375123 166.77112676086836,170.67478670499986 168.54577464796603,169.55565849429695 173.04577464796603,169.70487569412217 176.46830985927954,170.1525270997663 177.48239436629228,169.92870143335313 180.1443661970552,169.70487569412217 183.69366197218187,169.70487569412217 185.2147887328174,170.82400366233196 187.3697183104232,174.03216042008717 187.62323943688534,178.43402559141396 187.3697183104232,182.01518326933729 187.5598591552116,185.67092918162234 187.6866197185591,190.22193267813418 185.7852112678811,193.72842304664664 183.44014084502123,195.668176002393 178.49647887330502,195.74278177629458 175.0105633805506,195.81738754210528 170.89084507059306,195.74278177629458 166.64436619728804,195.668176002393 163.98239436629228,194.1760588293546 162.14436619728804,193.72842304664664 160.49647887353785,193.95224097423488 155.80633802805096,193.5046050461824 153.39788732421584,193.5046050461824 152.44718309864402,192.38551395206014 152.44718309864402,188.0583446038654 153.08098591538146,183.3581125952769 154.8556338029448,181.49293226841837 157.0739436619915,179.47853183862753 159.73591549275443,177.38951775885653 162.58802816900425,174.2559847519151 166.0105633805506,171.2716543400893 168.29225352127105,169.63026709819678 173.2359154932201,169.48104988213163 175.70774647896178,169.70487569412217 177.48239436629228,169.63026709819678 182.36267605633475,169.48104988213163 184.32746478868648,169.85409286170034 187.1795774649363,173.1368623637827 187.6866197185591,175.89736096333945 187.30633802851662,179.702354399662 187.49647887353785,180.74685872264672 187.30633802851662,185.44710856146412 187.24295774661005,190.3711453981232 186.86267605633475,192.53472620312823 184.70774647896178,194.6236943207914 183.56690140860155,195.59357022069162 178.87676056381315,195.668176002393 175.51760563394055,195.59357022069162 171.27112676063552,195.444358632667 166.64436619728804,195.444358632667 163.72887323936448,193.95224097423488 162.14436619728804,193.5792110543698 158.84859154955484,193.35539300536038 154.15845070430078,193.2807869730168 152.82746478891931,192.4601200815523 152.5739436619915,189.0282297540689 152.76408450701274,185.59632231621072 154.8556338029448,181.49293226841837 157.45422535203397,180.0007843679632 159.92605633824132,177.46412551385583 160.55985915497877,176.6434397653211 162.5246478873305,174.85284928168403 164.5528169015888,172.76382116321474 167.6584507045336,170.07791855244432 169.55985915497877,169.63026709819678 172.0316901409533,169.85409286170034 175.20070422557183,169.70487569412217 176.848591549322,170.07791855244432 180.27112676086836,169.63026709819678 183.56690140860155,169.63026709819678 185.84859154955484,171.4954795697704 187.49647887353785,173.88294415804558 187.3697183104232,178.43402559141396 187.30633802851662,181.7913614604622 187.43309859163128,186.1185702039511 187.3697183104232,190.3711453981232 187.24295774661005,192.0870893530664 185.34154929616489,194.10145288560307 182.1091549298726,195.668176002393 178.49647887330502,195.74278177629458 174.82042253529653,195.74278177629458 171.58802816923708,195.8919932995923 168.92605633847415,195.74278177629458 167.2781690142583,195.74278177629458 164.5528169015888,194.84751195757417 161.82746478891931,193.5792110543698 159.54577464819886,193.2807869730168 156.75704225362279,193.05696882680058 153.651408450678,193.2807869730168 152.89084507059306,192.60933231632225 152.38380281697027,189.2520492100739 152.82746478891931,187.01385137543548 153.84154929569922,186.64081769547192 153.08098591538146,186.64081769547192 152.76408450701274,184.9248601643485 154.41197183099575,181.8659687381005 155.4260563380085,180.67225132341264 157.13732394389808,179.62774688727222 159.54577464819886,177.6133409991744 161.89084507059306,175.67353716492653 163.91901408461854,173.50990336219547 166.96126760565676,170.60017821425572 168.16549295792356,169.92870143335313 172.348591549322,169.7794842820149 175.897887323983,170.07791855244432 176.848591549322,170.22713563893922 179.82746478891931,169.92870143335313 183.44014084502123,169.7794842820149 186.16549295792356,172.01773815625347 187.5598591552116,175.8227530386066 187.62323943688534,180.22460675914772 187.49647887353785,184.55182535218773 187.43309859163128,188.8044102253043 187.1795774649363,191.78866462485166 183.94718309864402,195.07132952136453 179.63732394366525,195.3697528266348 175.51760563394055,195.29514701251173 171.33450704230927,195.2205411902396 169.0528169015888,195.444358632667 166.13732394366525,195.668176002393 163.2852112678811,193.87763500656 158.97535211290233,193.5046050461824 154.8556338029448,193.42999902978772 153.39788732421584,193.05696882680058 152.82746478891931,192.16169551492203 152.70070422510616,187.98373799724504 152.63732394389808,185.59632231621072 153.14436619728804,183.05968408263288 155.299295774661,181.0452882378595 157.58098591538146,178.7324561093119 160.75000000023283,176.12118468870176 164.23591549298726,173.21147057955386 167.151408450678,170.3763526933035 168.2288732395973,169.70487569412217 172.47535211290233,169.85409286170034 176.91197183122858,170.1525270997663 180.01760563394055,169.92870143335313 184.01056338031776,170.00330999691505 186.22887323936448,172.24156314315042 187.1795774649363,173.50990336219547 187.49647887353785,176.19579258118756 187.6866197185591,179.32931675750297 187.49647887353785,183.73114805406658 187.49647887353785,187.83452475990634 187.24295774661005,190.5949644173961 186.67253521131352,192.53472620312823 184.5809859156143,194.922117820126 181.9823943665251,195.51896443084115 177.67253521131352,195.668176002393 172.79225352127105,195.59357022069162 169.0528169015888,195.444358632667 166.07394366222434,195.668176002393 164.17253521131352,194.10145288560307 161.1302816902753,193.42999902978772 156.31338028190657,193.20618093229132 153.77816901402548,193.35539300536038 152.82746478891931,192.68393842177466 152.76408450701274,189.99811353744008 152.76408450701274,185.8201428882312 153.46126760565676,182.8358626132831" stroke="#4dd2ff" stroke-linecap="round" stroke-linejoin="round" stroke-width="0.5"><title>2024-04-27 10.1km</title><desc>9223370322649067555</desc></polyline><polyline fill="none" points="32.50000001490116,244.09473817422986 44.0714285671711,244.09473817422986 29.607142850756645,250.9052618239075 12.25,244.09473817422986 52.75,250.9052618239075 20.928571417927742,250.9052618239075" stroke="#4dd2ff" stroke-linecap="round" stroke-linejoin="round" stroke-width="0.5"><title>2024-04-26 5.2km</title><desc>9223370322713802999</desc></polyline><polyline fill="none" points="104.59782608691603,247.50000909809023 104.01086956541985,247.26970147294924 105.38043478224427,247.96062427409925 106.55434782523662,249.11216177721508 109.88043478224427,249.11216177721508 111.44565217383206,248.19093182473443 111.64130434766412,247.03939382219687 110.85869565140456,248.19093182473443 110.27173912990838,247.26970147294924 111.25,246.80908614676446 115.55434782616794,246.80908614676446 117.11956521682441,247.26970147294924 119.85869565233588,247.03939382219687 120.25,245.88785519613884 119.2717391308397,244.73631594586186 116.3369565224275,243.35446802224033 114.77173912990838,242.43323557265103 112.61956521682441,241.2816944506485 111.44565217383206,245.4272395707667 111.44565217383206,246.80908614676446 110.46739130374044,247.73031669901684 109.29347825981677,247.50000909809023 107.7282608691603,247.73031669901684 105.96739130374044,247.26970147294924 105.57608695607632,248.88185432646424 107.33695652149618,249.57277660351247 105.96739130374044,250.4940059571527 107.33695652149618,250.7243132328149 106.94565217290074,251.8758492388297 105.96739130374044,252.56677054218017 102.25,253.7183055493515 107.53260869532824,249.80308397929184 108.90217391308397,249.11216177721508 108.51086956448853,247.73031669901684 112.8152173915878,249.11216177721508 114.57608695700765,248.88185432646424 115.94565217290074,249.57277660351247 115.1630434775725,250.4940059571527 115.55434782616794,251.41523491148837 116.7282608691603,252.33646346605383 116.7282608691603,253.25769162084907 115.1630434775725,253.7183055493515 112.03260869439691,252.33646346605383 111.83695652149618,250.95462048402987 113.79347826074809,250.7243132328149 114.77173912990838,251.41523491148837 117.11956521682441,250.7243132328149 117.51086956541985,252.10615636478178 115.94565217290074,253.02738461992703 114.1847826084122,253.02738461992703 108.90217391308397,249.80308397929184 105.96739130374044,247.26970147294924 104.59782608691603,246.80908614676446 103.2282608691603,247.03939382219687 104.01086956541985,246.11816297168843 105.57608695607632,246.578778446652 106.75,246.34847072139382 105.96739130374044,247.26970147294924 104.20652173832059,247.26970147294924 102.25,247.50000909809023 106.55434782523662,247.73031669901684 108.11956521682441,247.03939382219687 109.29347825981677,247.03939382219687 110.27173912990838,247.96062427409925 112.61956521682441,246.80908614676446 113.5978260859847,247.26970147294924 114.77173912990838,247.26970147294924 115.55434782616794,247.96062427409925 116.7282608691603,248.4212393502239 117.90217391308397,248.19093182473443 118.88043478224427,248.4212393502239 120.05434782616794,249.80308397929184 122.01086956541985,251.18492770986632 123.57608695607632,250.95462048402987 124.75,251.41523491148837 123.1847826084122,250.7243132328149 120.25,250.03339133015834 121.42391304299235,249.57277660351247 121.61956521682441,250.95462048402987 122.98913043551147,250.7243132328149 123.1847826084122,249.57277660351247 124.1630434775725,250.4940059571527 125.33695652149618,250.7243132328149 122.01086956541985,250.7243132328149 123.57608695607632,250.95462048402987 123.96739130467176,250.26369865587912 124.94565217383206,250.7243132328149 125.92391304392368,251.41523491148837 122.5978260859847,252.56677054218017 124.75,251.8758492388297 127.29347826074809,249.80308397929184 126.3152173915878,248.65154685056768 126.3152173915878,249.57277660351247 124.1630434775725,250.03339133015834 122.01086956541985,249.80308397929184 120.44565217290074,248.88185432646424 116.7282608691603,248.65154685056768 118.48913043458015,248.88185432646424 119.46739130374044,250.03339133015834 121.42391304299235,249.11216177721508 125.33695652149618,248.88185432646424 127.68478260934353,249.57277660351247 130.03260869532824,249.80308397929184 131.59782608691603,249.80308397929184 135.90217391215265,250.26369865587912 140.01086956541985,250.7243132328149 142.75,251.18492770986632 140.01086956541985,251.18492770986632 139.42391304392368,251.18492770986632 136.8804347831756,251.18492770986632 134.72826087009162,250.95462048402987 133.16304347850382,251.18492770986632 131.01086956448853,251.18492770986632 130.2282608691603,250.4940059571527 127.68478260934353,249.80308397929184 131.59782608691603,249.34246920305304 133.16304347850382,250.26369865587912 134.14130434766412,249.80308397929184 132.96739130467176,249.57277660351247 133.55434782616794,249.80308397929184 132.57608695607632,250.26369865587912 131.40217391308397,250.26369865587912 132.96739130467176,249.34246920305304" stroke="#4dd2ff" stroke-linecap="round" stroke-linejoin="round" stroke-width="0.5"><title>2024-04-24 3.4km</title><desc>9223370322893282018</desc></polyline><polyline fill="none" points="187.75,249.6032503694296 150.823529407382,243.99458322674036 147.25,251.00541677325964 152.0147058814764,245.39675023965538" stroke="#4dd2ff" stroke-linecap="round" stroke-linejoin="round" stroke-width="0.5"><title>2024-04-23 3.1km</title><desc>9223370322979897699</desc></polyline></svg>