<?xml version="1.0" encoding="utf-8" ?>
<svg baseProfile="full" height="300mm" version="1.1" viewBox="0,0,200,300" width="200mm" xmlns="http://www.w3.org/2000/svg" xmlns:ev="http://www.w3.org/2001/xml-events" xmlns:xlink="http://www.w3.org/1999/xlink"><defs /><rect fill="#222222" height="300" width="200" x="0" y="0" /><text fill="#FFFFFF" style="font-size:12px; font-family:Arial; font-weight:bold;" x="10" y="20">Over 5km Runs</text><text fill="#FFFFFF" style="font-size:4px; font-family:Arial" x="10" y="280">ATHLETE</text><text fill="#FFFFFF" style="font-size:9px; font-family:Arial" x="10" y="290">L</text><text fill="#FFFFFF" style="font-size:4px; font-family:Arial" x="120" y="280">STATISTICS</text><text fill="#FFFFFF" style="font-size:3px; font-family:Arial" x="120" y="285">Number: 15</text><text fill="#FFFFFF" style="font-size:3px; font-family:Arial" x="120" y="290">Weekly: 2.1</text><text fill="#FFFFFF" style="font-size:3px; font-family:Arial" x="141" y="285">Total: 94.6 km</text><text fill="#FFFFFF" style="font-size:3px; font-family:Arial" x="141" y="290">Avg: 6.3 km</text><text fill="#FFFFFF" style="font-size:3px; font-family:Arial" x="167" y="285">Min: 5.0 km</text><text fill="#FFFFFF" style="font-size:3px; font-family:Arial" x="167" y="290">Max: 10.1 km</text><polyline fill="none" points="43.5563878120156,63.539148929325165 43.61510601674672,62.46781918159104 43.527028709766455,61.811195944144856 43.46831050515175,60.947215940163005 43.40959230030421,60.49794541293522 43.40959230030421,59.70308062178083 43.32151499320753,59.15013003323111 43.174719481612556,58.90821384912124 42.998564867535606,58.839094905764796 42.147150899632834,58.76997594741988 41.32509603409562,58.87365437927656 39.59290899604093,58.80453542844043 39.123163358541206,58.56261898225057 38.85893143748399,58.35526188221411 38.80021323263645,58.217023740609875 38.82957233511843,57.90598770295037 39.29931797250174,57.04199711739784 40.033295531058684,56.03976510534994 40.38560475921258,55.45224832321401 40.53240027104039,55.141209588589845 40.73791398725007,54.89929036295507 41.09022321540397,53.96617163051269 41.471891545690596,53.48233121269732 41.67740526224952,52.998490060534095 41.73612346686423,52.82568947126856 41.9709962856723,52.58376848878106 42.67561474186368,51.40872110571945 43.08664217451587,50.9248768069956 43.38023319793865,50.33735059996252 43.87933793780394,49.71526284777792 45.259215747821145,47.261460433655884 45.55280677124392,46.98497447068803 45.787679590051994,46.812170622171834 47.02076188835781,46.881292172853136 48.488717005355284,46.812170622171834 48.60615341470111,46.84673139936058 48.899744438240305,47.088656734878896 49.16397635929752,47.19233896530932 49.60436289431527,47.157778225577204 49.692440201411955,47.0540959839127 50.16218583879527,48.98949226955301 49.8098766108742,47.77987096787547 49.57500379218254,47.468824748386396 49.39884917810559,47.39970332512166 48.899744438240305,47.33058188689756 48.84102623339277,47.296021162124816 48.78230802877806,47.1232174821489 48.60615341470111,46.98497447068803 48.165766879566945,46.84673139936058 46.433579841512255,46.881292172853136 45.96383420401253,46.77760984117049 46.72717086493503,44.565712067851564 48.04833047033753,42.76853382762056 48.34192149376031,42.21555386955151 49.25205366616137,40.72941547931987 49.60436289431527,40.03818596072961 50.16218583879527,39.17414695493062 50.74936788564082,38.413790692720795 51.16039531852584,37.687994387204526 51.424627239699475,37.3769383218314 51.65950005839113,36.82394901177031 52.27604120736942,36.20183489145711 52.628350435523316,35.71796751426882 52.71642774250358,35.68340553063899 52.59899133327417,35.44147154033999 51.95309108181391,35.13041328304098 51.48334544431418,34.78479264114867 51.10167711379472,34.64654427958885 50.89616339746863,34.33548524658545 50.33834045287222,34.058988073666114 50.044749429565854,34.09355023337412 49.31077187100891,34.058988073666114 46.756529967300594,33.54055522810086 44.261006268206984,33.26405736565357 43.82061973318923,33.16037060535746 43.40959230030421,32.98755926347803 42.704973844229244,33.05668381144642 41.79484167159535,32.918434700375656 40.796632191864774,32.88387241325108 39.82778181473259,32.711060921341414 39.093804256175645,32.711060921341414 38.741495028021745,32.57281166044413 36.275330431293696,32.39999999999418 33.13390648085624,32.43456233953475 32.39992892241571,32.641936298430664 31.519155852030963,32.641936298430664 30.8732556005707,32.74562322723796 30.37415086082183,32.67649861171958 28.436450106208213,32.74562322723796 27.878627161844634,32.849310122430325 27.320804217248224,32.849310122430325 26.20515832840465,33.05668381144642 25.64733538380824,32.918434700375656 24.32617577840574,32.918434700375656 23.239888991811313,33.09124607985723 21.713215670082718,33.194932862592395 21.27282913494855,33.12580834451364 20.21590145060327,33.26405736565357 19.42320568743162,33.26405736565357 19.30576927808579,33.29861961150891 19.10025556164328,33.402306326752296 19.041537357028574,33.50599300835165 19.10025556164328,34.266360975889256 19.041537357028574,34.92304094287101 19.188332868856378,35.545157558633946 19.217691970989108,36.02902519828058 19.27641017572023,36.270958742679795 19.10025556164328,37.06588195299264 19.041537357028574,37.92992667265935 19.129614664125256,39.035900496761315 19.041537357028574,39.55432440596633 19.1589737663744,40.14187048407621 19.129614664125256,41.489766218845034 19.247051073471084,42.14643130725017 19.1589737663744,43.35607398231514 19.247051073471084,43.90905196228414 19.511282994411886,44.63483410549816 19.511282994411886,44.80763913420378 19.42320568743162,45.15324891064665 19.247051073471084,45.4988583123486 19.217691970989108,45.63710196813918 18.424996207933873,45.46429738905863 18.219482491374947,45.740784670604626 17.691018649260513,46.2246368364722 17.80845505860634,47.365142607915914 17.896532365703024,47.50338545450359 18.190123389009386,47.64162824102095 18.454355310066603,47.987234945438104 18.571791719528846,48.60932606921415 18.630509924143553,49.1622949380253 18.95346004993189,50.02630687569035 18.982819152297452,50.26822979861754 18.777305436087772,51.40872110571945 18.865382742951624,52.376407500589266 18.865382742951624,52.89480971818557 18.747946333605796,53.17129055634723 18.806664538220502,53.72425151336938 18.718587231240235,54.1389716018748 18.718587231240235,55.00297005358152 18.689228128874674,55.52136800086009 18.747946333605796,55.86696616408881 19.10025556164328,56.59272108777077 19.42320568743162,57.07655678578885 19.834233120200224,57.456712890649214 20.06910593889188,57.767749366525095 20.30397875769995,57.975106848665746 20.979238111525774,58.35526188221411 21.448983749141917,58.90821384912124 22.271038614446297,59.63396185066085 22.476552331005223,59.87587748403894 22.858220661408268,60.256030251446646 24.032584754982963,61.189130577258766 24.267457573791035,61.32736743034911 25.529898974462412,61.50016341247829 27.291445114999078,61.569281779025914 29.69889150687959,61.77663678897079 30.432869065436535,61.811195944144856 30.8732556005707,61.880314243317116 31.254923930973746,61.84575509568094 31.78338777308818,61.94943252764642 32.28249251295347,61.811195944144856 32.752238150453195,61.569281779025914 33.28070199256763,61.569281779025914 33.77980673243292,61.67295930083492 34.39634788152762,62.05310992573504 34.92481172375847,62.26046462109662 35.04224813298788,62.32958282288746 35.13032544008456,62.778850769478595 35.13032544008456,63.1590000759752 35.012889030738734,63.91929732935387 34.66057980270125,64.57591622578911 34.51378429075703,65.16341619758168 34.455066086142324,66.13106085028267 34.42570698389318,66.33841289384873 34.33762967691291,66.511206160445 33.95596134639345,66.96046821554773 33.83852493704762,67.40972963767126 33.80916583468206,68.27369213188649 33.368779299547896,69.69058555539232 33.368779299547896,71.00379822892137 33.10454737849068,71.93686710533802 33.07518827624153,72.21333143327502 33.1632655832218,72.8008173344715 33.07518827624153,73.07728091353783 32.899033662164584,73.38830215335474 32.66416084335651,73.94122805306688 32.63480174110737,74.77061510499334 32.66416084335651,75.04707697645063 32.63480174110737,75.18530782216112 32.57608353649266,75.35809629512369 32.25313341058791,75.53088467457565 31.60723315901123,75.60000000000582 30.961332907667384,75.46176933395327 30.19799624674488,75.49632700611255 27.14464960305486,75.01251925557153 24.3555348807713,74.7014995997888 23.797711936291307,74.59782631380949 23.005016173119657,74.3559218487353 22.476552331005223,74.11401720010326 21.302188237314112,73.28462844039313 19.658078506123275,72.28244747794815 19.129614664125256,71.90230904743657 18.601150822010823,71.6258444498526 17.92589146795217,71.03835638405872 17.191913909395225,70.55454187019495 16.722168272011913,70.13984313112451 15.812036099494435,69.72514385296381 15.753317894879729,69.62146894904436 15.723958792397752,69.41411904027336 15.312931359629147,69.17221064298064 15.283572257380001,69.0339771907311 15.518445076071657,68.37736747399322 15.635881485417485,67.58252232367522 15.900113406474702,66.47664751467528 16.017549815936945,65.78547381141107 16.193704430013895,65.26709255081369 16.42857724870555,64.40312191049452 16.54601365805138,63.67738476351951 16.722168272011913,63.05532303728978 16.780886476743035,62.60605548034073 17.074477500165813,61.534722597600194 17.16255480714608,61.01633442673483 18.013968775165267,57.66407057500328 18.190123389009386,56.800079333916074 18.27820069610607,56.800079333916074 18.924100947682746,56.730959933571285 19.070896459394135,56.800079333916074 19.804874017834663,57.387593632534845 20.30397875769995,57.975106848665746 21.155392725602724,58.631737985502696 21.625138363218866,59.15013003323111 22.770143354428,60.2214709277614 22.975657070754096,60.46338611541432 24.208739369176328,61.32736743034911 25.324385258019902,61.465604223514674 26.44003114697989,61.534722597600194 27.027213193825446,61.63840013067238 27.849268059362657,61.60384095675545 30.19799624674488,61.811195944144856 30.609023679513484,61.880314243317116 31.460437647416256,61.880314243317116 31.98890148953069,61.77663678897079 32.370569819933735,61.60384095675545 32.48800622939598,61.60384095675545 32.752238150453195,61.431045030767564 33.48621570901014,61.32736743034911 34.39634788152762,61.880314243317116 34.51378429075703,61.98399166407762 34.98352992837317,62.15678729029605 35.18904364481568,62.15678729029605 35.30648005416151,62.01855079678353 35.65878928231541,61.05089366433094 35.981739407987334,60.42882681408082 36.62763965956401,59.46116485726088 36.68635786429513,59.25380834157113 36.68635786429513,58.631737985502696 36.86251247825567,57.975106848665746 37.00930798985064,58.078785539080855 37.156103501678444,58.078785539080855 37.36161721800454,58.18246419579373 37.713926446042024,58.52805947486195 38.50662220933009,58.80453542844043 38.80021323263645,58.80453542844043 39.446113484329544,58.66629748156993 40.18009104288649,58.90821384912124 40.70855488500092,58.97733277763473 42.44074192317203,58.73541646252852 43.05728307226673,58.76997594741988 43.350874095689505,58.97733277763473 43.40959230030421,59.288367770204786 43.43895140266977,59.91043684529723 43.58574691438116,61.12001212823088 43.64446511899587,62.32958282288746 43.73254242609255,62.84796885892865 43.703183323843405,63.81562053805101" stroke="#4dd2ff" stroke-linecap="round" stroke-linejoin="round" stroke-width="0.5"><title>2024-08-16 6.7km</title><desc>12157989761</desc></polyline><polyline fill="none" points="108.44016987876967,32.540266740950756 109.19482036214322,32.68053343644715 109.94947084528394,32.727288991358364 114.0007523871027,32.493511165637756 114.35821840562858,32.540266740950756 114.63624753104523,32.86755562588223 114.75540287070908,34.3637302229763 114.71568442392163,35.20532615319826 114.83483976358548,36.00016524636885 114.99371354933828,36.65473751723766 114.87455820990726,37.2625537365675 114.91427665646188,38.47818360553356 114.83483976358548,38.852222876041196 114.91427665646188,39.13275211601285 114.99371354933828,40.53539557932527 114.99371354933828,41.79777079663472 115.1923057816457,42.9198789994698 115.15258733532391,43.76145823596744 115.23202422843315,44.64979009324452 115.15258733532391,45.023824012168916 115.27174267475493,45.865399144007824 115.1923057816457,46.80048069791519 115.27174267475493,47.40828262112336 115.35117956763133,48.857652981881984 115.31146112107672,49.88623544492293 115.5100533538498,51.14858329753042 115.47033490729518,52.27066717634443 115.5894902467262,53.57976134622004 115.5100533538498,54.04729401561781 115.62920869328082,55.917419625853654 115.54977180017158,57.366761397366645 115.6689271396026,58.25506523766671 115.6689271396026,59.0498618602287 115.74836403271183,61.01347076729871 115.70864558615722,62.18228134975652 115.86751937214285,62.64980469603324 115.74836403271183,63.49134544242406 115.94695626501925,65.40818212588783 115.90723781846464,66.48347702418687 115.98667471157387,67.18475486178068 115.94695626501925,67.88603155934834 116.02639315789565,68.26004533207742 115.98667471157387,70.1768608278071 116.02639315789565,70.83138124164543 116.10583005123772,71.29889521494624 116.1455484975595,73.26244837103877 116.2249853904359,73.9637151894567 116.0661116046831,75.1792416414246 115.94695626501925,75.31949447328225 115.5894902467262,75.45974725947599 113.96103394054808,75.60000000000582 112.72976209968328,75.45974725947599 112.05454850918613,75.1792416414246 111.06158734695055,75.2259925903636 109.23453880869783,74.89873584106681 108.00326696760021,74.85198485667934 105.8584708571434,74.57147884354345 104.2697329975199,74.5247278236493 101.17169417138211,74.01046627026517 99.66239320486784,73.6832085987844 98.43112136377022,73.49620410380885 97.6764708806295,73.44945296732476 96.88210195070133,73.54295523511246 95.53167477017269,73.44945296732476 94.9358980730176,73.35595067922259 92.94997574831359,73.30919952777913 92.59250973002054,73.21569720917614 91.91729613952339,72.93519013217883 89.2164417784661,72.65468287287513 88.38235440221615,72.46767793185427 87.03192722168751,72.37417543126503 84.13248062808998,71.90666262301966 83.93388839554973,71.7664086818113 83.7750146095641,71.53265201163595 83.81473305611871,71.11188968649367 84.09276218153536,69.80284871684853 84.1721990746446,68.72756209180807 84.3310728603974,67.97953503308236 84.3310728603974,67.04449938549078 84.37079130695201,66.76398829606478 84.3310728603974,66.24971749156248 84.45022819982842,65.22117404386518 84.56938353925943,64.00561953507713 85.00628645066172,62.7433093044383 85.40347091574222,60.59269818261964 85.68150004092604,59.84465701840236 85.8403738271445,59.00310915830778 86.19783984543756,58.39532357166172 86.39643207774498,57.69403144612443 86.67446120316163,57.366761397366645 86.63474275683984,57.17974982957821 86.67446120316163,56.945985255617416 86.83333498914726,56.384949761559255 87.07164566824213,55.77716048620641 87.23051945399493,55.075864104379434 87.58798547252081,54.37456658264273 87.94545149081387,53.3459948215459 88.30291750933975,52.69144787843106 88.54122818820179,51.89663954108255 89.01784954615869,50.774554689240176 89.1370048855897,50.26026482335874 89.61362624331377,49.13817571505206 90.2094029407017,47.96932979000849 90.44771361956373,47.78231414820766 91.12292720982805,47.08100476895925 91.63926701433957,46.286186094162986 92.55279128369875,44.69654435085249 92.79110196256079,44.18224723849562 93.22800487396307,43.52768639053102 93.54575244570151,42.686106697976356 93.82378157111816,42.35882526286878 94.4592767150607,41.189960968040396 94.85646117967553,40.72241436326294 95.13449030532502,40.06784826502553 95.61111166304909,39.36652634324855 97.31900486233644,36.187185996474 97.79562621982768,35.48585776507389 98.2325291314628,34.69101772442809 98.8680242751725,33.75590991877834 99.66239320486784,32.9143111606536 100.13901456282474,32.774044541234616 104.54776212316938,32.68053343644715 104.94494658778422,32.540266740950756 108.55932521820068,32.493511165637756 109.35369414812885,32.39999999999418 111.8162378303241,32.540266740950756 114.15962617308833,32.39999999999418 114.51709219161421,32.68053343644715 114.71568442392163,33.14808875817107 114.75540287070908,33.75590991877834 114.71568442392163,34.41048559572664 114.99371354933828,36.70149264141219 114.87455820990726,37.21579867310356 115.07315044244751,39.88082919732551 114.99371354933828,40.44188615711755 115.07315044244751,40.81592372464365 115.0334319958929,41.563997886987636 115.27174267475493,42.49908876547124 115.1923057816457,43.24716000875924 115.1923057816457,44.27575585004524 115.39089801418595,46.19267791847233 115.35117956763133,46.51995644465205 115.39089801418595,47.03425076970598 115.31146112107672,47.78231414820766 115.43061646074057,50.26026482335874 115.39089801418595,50.86806187170441 115.43061646074057,51.475858063669875 115.39089801418595,51.990146480326075 115.62920869328082,54.42131978610996 115.62920869328082,54.79534523238544 115.5100533538498,55.40313589107245 115.5894902467262,56.15118475689087 115.54977180017158,56.57196167402435 115.43061646074057,57.46026715092012 115.6689271396026,58.30181802081643 115.5894902467262,58.956356451206375 115.70864558615722,59.93816223490285 115.82780092558824,62.69655700281146 115.94695626501925,63.16407979169162 115.86751937214285,63.818610844929935 116.02639315789565,64.89390970533714 116.10583005123772,65.82895001399447 115.94695626501925,66.71723643012228 116.0661116046831,68.4003004131664 115.94695626501925,69.3820847045281 115.90723781846464,71.15864107618108 116.0661116046831,72.37417543126503 116.02639315789565,72.79493652534438 116.1455484975595,74.57147884354345 116.1455484975595,75.13249068745063 115.90723781846464,75.4129963357409 115.1923057816457,75.5064981780306 113.76244170824066,75.55324909143383 109.83031550585292,75.03898876413587 108.32101453933865,74.7117318729579 105.54072328517213,74.57147884354345 102.48240290558897,74.10396841648617 100.09929611627012,73.91696410387522 99.26520874002017,73.72995970997727 98.55027670343406,73.72995970997727 97.47787864808924,73.54295523511246 97.08069418324158,73.58970636152662 96.32604369986802,73.44945296732476 95.45223787706345,73.40270182586391 94.97561651933938,73.26244837103877" stroke="#4dd2ff" stroke-linecap="round" stroke-linejoin="round" stroke-width="0.5"><title>2024-08-05 5.0km</title><desc>12068639381</desc></polyline><polyline fill="none" points="173.43915647058748,32.63352515612496 175.9783885460347,32.40000000002328 177.20832908246666,32.68023017220548 177.72411059774458,32.58682013495127 178.47794512007385,32.58682013495127 179.15242864005268,32.49341007764451 180.30301817436703,32.58682013495127 180.46172017906792,32.68023017220548 180.5807466825936,32.96046016208129 180.5807466825936,34.26819770524162 180.81879968964495,35.342407717806054 180.85847519082017,36.08968266885495 180.9378261929378,36.65013803137117 180.8981506919954,37.39741071438766 180.97750169434585,38.05127324874047 180.8981506919954,38.891952192090685 180.97750169434585,39.452403909759596 180.8981506919954,39.73262949529453 180.85847519082017,40.57330515817739 180.9378261929378,43.09532230588957 181.0568526966963,44.16951031220378 181.0568526966963,44.87006626470247 181.2155547013972,45.94424984671059 181.29490570374765,47.39205826350371 181.2552302023396,48.41953225340694 181.17587920022197,48.79315855144523 181.13620369904675,49.5871133589244 181.3742567060981,53.79037914413493 181.532958710799,54.39751414640341 181.57263421197422,54.91124309564475 181.45360770844854,56.17221155628795 181.49328320962377,56.68593838982633 181.3742567060981,57.52658097821404 181.45360770844854,58.60073301018565 181.41393220727332,59.58147817940335 181.532958710799,60.60892310543568 181.532958710799,61.262750419205986 181.73133621667512,62.94401609964552 181.73133621667512,65.09229047948611 181.96938922372647,65.60600667929975 182.12809122842737,66.25982641160954 182.0090647249017,66.35322914947756 181.8503627202008,66.82024253555574 181.77101171785034,67.89437140253722 181.92971372255124,69.06189974327572 181.81068721902557,70.50963049306301 181.8503627202008,71.30354529092438 182.12809122842737,73.26497558050323 182.12809122842737,74.80609311693115 182.0090647249017,75.17969653831096 181.8503627202008,75.36649812755059 181.6123097129166,75.50659926628578 179.66821015556343,75.45989889171324 178.79534912970848,75.36649812755059 178.35891861654818,75.17969653831096 177.84313710127026,75.0862957133213 166.53561926586553,73.91878369331243 165.62308273883536,73.63858033786528 165.26600322825834,73.68528090970358 164.23444019746967,74.01218477121438 163.52028117631562,74.10558582897647 161.93326112930663,73.49847859173315 159.43370455526747,73.17157434052206 158.40214152471162,72.93807115219533 157.33090299274772,72.84466984140454 155.8629094492644,72.79796917844214 155.30745243281126,72.6111664758646 153.60140588204376,72.33096227032365 152.49049184913747,72.14415936538717 151.41925331717357,72.09745862640557 150.86379630095325,71.91065562021686 150.1893127807416,71.86395485608955 149.87190877157263,71.58375016460195 149.87190877157263,71.11674194072839 150.1496372797992,70.4629295769555 150.38769028661773,69.62231222342234 150.3083392845001,67.14715160455671 150.38769028661773,66.1197222667688 150.54639229155146,64.81208138505463 150.54639229155146,64.39176740197581 150.6257432939019,63.64454153081169 150.86379630095325,63.224226408754475 151.02249830565415,62.80391087685712 151.65730632445775,59.34796762719634 151.93503483268432,58.46062637527939 152.25243884208612,57.94690165744396 152.45081634796225,57.05955752043519 152.49049184913747,56.779343202884775 152.6888693550136,56.125509086443344 153.20465087029152,55.00464829339762 153.44270387734286,54.63102738102316 153.91880989144556,53.229946074890904 154.3949159057811,52.29588933996274 154.79167091753334,51.22172159180627 155.0297239245847,50.054144915397046 155.26777693163604,49.63381653727265 155.82323394808918,48.839861815824406 156.14063795749098,48.51293885827181 156.81512147770263,47.11183765917667 157.48960499768145,46.17776766215684 160.22721457877196,41.55409135855734 161.2587776093278,40.10626332566608 161.61585711990483,39.2655867516296 162.76644665398635,37.444115213962505 163.1632016657386,36.88366088405019 163.5996321788989,35.809454714064486 163.79800968477502,35.482521869882476 163.99638719041832,35.0154745192267 164.98827472003177,33.707739244244294 165.26600322825834,33.240689969738014 165.38502973178402,33.10057508878526 166.05951325176284,32.86705018568318 167.17042728466913,32.773640189145226 167.7655598022975,32.86705018568318 169.6303083577659,32.91375517647248 170.8602488944307,32.58682013495127 171.3760304094758,32.58682013495127 172.40759344003163,32.82034518994624 172.92337495530955,32.68023017220548 173.91526248469017,32.54011510888813 175.8593620422762,32.54011510888813 176.37514355778694,32.58682013495127 177.00995157659054,32.54011510888813 178.12086560949683,32.58682013495127 178.95405113440938,32.49341007764451 180.26334267295897,32.54011510888813 180.46172017906792,32.63352515612496 180.69977318611927,32.96046016208129 180.66009768494405,34.26819770524162 180.81879968964495,34.64183627432794 180.77912418846972,34.781950654112734 180.81879968964495,35.202293520240346 180.77912418846972,35.52922657705494 180.97750169434585,36.603433445707196 180.85847519082017,37.30400169987115 180.8981506919954,39.49910818671924 180.9378261929378,39.59251672535902 180.9378261929378,39.96615067720995 181.01717719552107,40.05955911465571 181.01717719552107,40.47989683234482 180.9378261929378,41.273866957752034 181.09652819787152,42.48817137876176 180.97750169434585,43.37554552213987 181.0568526966963,45.15028832684038 181.2155547013972,47.018430750700645 181.17587920022197,47.532168497360544 181.29490570374765,48.09260897693457 181.2552302023396,48.88656507534324 181.3742567060981,49.493706987035694 181.33458120492287,51.92226607914199 181.41393220727332,52.48270084892283 181.3742567060981,54.07059540526825 181.45360770844854,54.67773001285968 181.3742567060981,55.33156632585451 181.49328320962377,56.07880661168019 181.45360770844854,57.52658097821404 181.532958710799,58.41392415345763 181.45360770844854,59.44137186324224 181.57263421197422,60.0952009485045 181.57263421197422,60.982538834708976 181.73133621667512,64.20496105551138 181.6916607154999,64.53187210843316 181.8503627202008,64.81208138505463 181.73133621667512,66.16642365351436 181.81068721902557,67.52076166545157 181.89003822137602,68.12787732374272 181.81068721902557,68.7349921267305 181.89003822137602,69.43550814435002 181.8503627202008,70.69643410650315 181.92971372255124,71.11674194072839 181.8503627202008,71.67715174867772 181.96938922372647,72.28426155165653 182.08841572725214,73.54517917885096 182.0090647249017,75.17969653831096 181.77101171785034,75.45989889171324 179.8269121600315,75.60000000000582 178.83502463065088,75.45989889171324 178.3192431156058,75.22639694312238 177.9224881036207,75.13299612828996 176.57352106366307,75.03959529320127 171.29667940712534,74.38578888081247 170.34446737891994,74.43248937180033 167.84491080464795,74.10558582897647 166.0198377505876,74.05888530271477 165.42470523295924,73.87208314664895 164.15508919535205,73.8253825949505 163.75833418336697,73.73198147644871 160.86202259757556,73.73198147644871 160.18753907759674,73.63858033786528" stroke="#4dd2ff" stroke-linecap="round" stroke-linejoin="round" stroke-width="0.5"><title>2024-08-01 5.0km</title><desc>12035805770</desc></polyline><polyline fill="none" points="42.47988924453966,80.4467555853189 43.47285051434301,80.58702231117059 44.34665643190965,80.54026674100896 45.65736530791037,80.72728899132926 48.04047235567123,80.49351116569596 48.47737531433813,80.58702231117059 48.596530666574836,80.77404454132193 48.75540447002277,81.80266535739065 48.71568601904437,83.06506027892465 48.91427827300504,84.51447211406776 48.8348413715139,85.82361410159501 48.993715174496174,87.83407441762392 49.03343362524174,90.1250526572112 49.11287052696571,90.77961563368444 49.11287052696571,92.27575584992883 49.23202587943524,93.53812012099661 49.311462780693546,96.39011468767421 49.43061813316308,97.27843701306847 49.39089968241751,100.36417403433006 49.47033658414148,101.01872147392714 49.510055034887046,102.28106015996309 49.510055034887046,104.52520870330045 49.43061813316308,105.4602671507746 49.54977348563261,106.20831244936562 49.43061813316308,107.79790440236684 49.668928837869316,108.87321328453254 49.78808419057168,110.18228134949459 49.94695799355395,111.07057527423603 49.907239542808384,112.0056195348152 50.066113346023485,112.7536534840765 50.066113346023485,113.36143011282547 49.907239542808384,114.81074015668128 50.02639489504509,117.56909098275355 49.94695799355395,118.22361231865943 49.98667644429952,118.5976240648015 49.94695799355395,118.92488407669589 50.066113346023485,120.23392164186225 50.02639489504509,120.84168773263809 50.14555024751462,121.96371518951491 50.14555024751462,123.13249068730511 49.98667644429952,123.36624540697085 49.708647288847715,123.50649817785597 48.437656863592565,123.60000000000582 47.12694798735902,123.45974725938868 46.253142069792375,123.2259925903636 42.47988924453966,122.80523386711138 41.526646425481886,122.61822985831532 39.540723885875195,122.52472782356199 35.76747106062248,122.10396841639886 34.456762184388936,122.24422159764799 33.58295626682229,122.19747054233449 31.99421823513694,122.33772369334474 31.12041231780313,122.19747054233449 30.20688794949092,122.19747054233449 29.13448977819644,121.96371518951491 27.86349935270846,121.82346191696706 27.14856723858975,121.44945296729566 26.433635124238208,121.3091995275172 25.003770895767957,121.3091995275172 23.65334356878884,120.79493652531528 21.86601328314282,120.56118041256559 19.760935391066596,120.18717036861926 19.443187784636393,120.18717036861926 19.006284825969487,120.04691651862231 18.172197359381244,119.95341392655973 17.933886654675007,119.81316000042716 17.85444975271821,119.6729060288053 17.89416820369661,119.20539246062981 18.05304200691171,118.92488407669589 18.132478908635676,118.4106182322721 18.21191581012681,116.68081043849816 18.331071162363514,116.11979020512081 18.331071162363514,113.54843813402113 18.529663416557014,113.03416588055552 18.648818768793717,111.95886736997636 18.887129473732784,111.21083204253227 19.046003276715055,110.41604308606475 18.926847924478352,109.76150990475435 18.96656637522392,109.34073804953368 19.12544017820619,108.77970827074023 19.52262468636036,108.1719251871109 20.39643060369417,105.27325562338228 20.634741308400407,104.89923232540605 20.793615111382678,104.19793776786537 21.11136271804571,103.49664207009482 21.230518070282415,103.07586410426302 22.93841145467013,99.24209039864945 23.534188216319308,97.41869826556649 24.01080962573178,96.71739154667011 24.24912033067085,96.20309922823799 24.96405244478956,95.22126673581079 25.48039230518043,94.61346454912564 26.19532441953197,93.1640866479429 26.632227378198877,92.55628156263265 26.59250892722048,92.55628156263265 27.903217803686857,90.26531623583287 28.657868368551135,89.14320633021998 29.29336358141154,87.9275839717593 30.76294626039453,85.54308401030721 31.954499784391373,83.2988367107755 32.94746105419472,81.80266535739065 33.42408246384002,81.24159976170631 34.01985922572203,80.96106669033179 34.41704373364337,80.86755562594044 37.713675149483606,80.72728899132926 38.42860726383515,80.77404454132193 39.50100543512963,80.68053343638894 40.53368515567854,80.72728899132926 41.56636487622745,80.58702231117059 42.837355301715434,80.58702231117059 43.94947192398831,80.39999999999418 44.94243319355883,80.49351116569596 45.41905460320413,80.4467555853189 47.40497714281082,80.49351116569596 48.239064609399065,80.4467555853189 48.5170937650837,80.58702231117059 48.71568601904437,80.96106669033179 48.71568601904437,82.97154967064853 48.91427827300504,84.51447211406776 48.87455982225947,85.16904360457556 48.993715174496174,87.085997255228 48.993715174496174,87.97433874115814 48.953996723750606,88.20811251242412 49.03343362524174,88.9094330657681 49.03343362524174,90.07829812093405 49.11287052696571,90.77961563368444 49.07315207622014,91.48093200608855 49.11287052696571,92.1822472382919 49.07315207622014,92.50952728991979 49.27174433018081,93.77189087684383 49.19230742845684,95.08100476878462 49.27174433018081,95.73556022485718 49.351181231671944,95.96932978989207 49.311462780693546,96.57713006599806 49.39089968241751,96.9979143710807 49.351181231671944,97.27843701306847 49.47033658414148,97.69922063377453 49.43061813316308,99.42910454064258 49.311462780693546,100.08365339916782 49.39089968241751,101.06547482457245 49.351181231671944,101.5797613459581 49.510055034887046,102.42131978584803 49.47033658414148,103.07586410426302 49.510055034887046,104.66546759958146 49.47033658414148,105.6940314459498 49.54977348563261,106.48882910198881 49.510055034887046,106.86285102178226 49.58949193637818,107.65764652442886 49.58949193637818,108.5926981823286 49.74836573982611,109.52774781355402 49.74836573982611,110.46279541807598 49.668928837869316,111.30433652937063 49.82780264131725,113.12766997239669 49.708647288847715,114.15621364302933 49.867521092062816,115.23150667684968 49.82780264131725,116.02628676200402 49.98667644429952,117.61584253961337 49.867521092062816,118.5976240648015 49.98667644429952,120.56118041256559 49.907239542808384,121.35595067925169 50.14555024751462,122.8987358409795 50.02639489504509,123.27274353441317 49.907239542808384,123.41299633577 49.23202587943524,123.60000000000582 47.24610333959572,123.55324909149203 45.4587730539497,123.2259925903636 44.02890882547945,123.03898876401945 43.512568965088576,123.08573972829618 42.51960769551806,122.80523386711138 42.24157853983343,122.80523386711138 40.255656000226736,122.52472782356199 39.30241318116896,122.52472782356199 36.68099542870186,122.10396841639886 36.16465556854382,122.10396841639886 35.64831570815295,122.15071948192781 34.297888381173834,122.10396841639886 33.66239316854626,122.01046627011965 33.14605330815539,122.01046627011965 32.470839644549415,121.77671081593144 32.03393668588251,121.72995970983175 30.20688794949092,121.91696410364239 29.333082032157108,121.87021301296772 28.062091606669128,121.5897063613811 27.029411886120215,121.63645748252748 26.433635124238208,121.3091995275172" stroke="#4dd2ff" stroke-linecap="round" stroke-linejoin="round" stroke-width="0.5"><title>2024-07-29 5.1km</title><desc>12014148662</desc></polyline><polyline fill="none" points="108.82854896667413,80.6796256066591 109.62034708028659,80.81943834177218 112.23328085523099,80.77283410186647 114.05441651656292,80.58641709122458 114.41072566760704,80.72622985672206 114.64826510171406,81.099063675676 114.72744491300546,81.61170964871417 114.68785500735976,82.73020783168613 114.80662472429685,83.33605979927233 114.80662472429685,84.12832646863535 115.04416415840387,84.96719546845998 114.92539444146678,86.03908125305315 115.04416415840387,86.78473935319926 115.00457425275818,89.53434242101503 115.1629338755738,90.60621681966586 115.1233439699281,92.14411889814073 115.2817035925109,93.86842680818518 115.2817035925109,96.19856164645171 115.32129349792376,97.41022677198634 115.2817035925109,97.7830461236299 115.44006321532652,99.13451356365113 115.51924302661791,101.04520166196744 115.44006321532652,102.02384349747445 115.55883293226361,102.90927942929557 115.47965312097222,104.81995075420127 115.44006321532652,105.19276368143619 115.51924302661791,106.26459904629155 115.47965312097222,106.870417853439 115.67760264920071,108.26845799700823 115.59842283790931,109.61989248168538 115.83596227201633,110.45871174984495 115.91514208330773,111.0179236861295 115.87555217789486,113.16156270517968 115.99432189483196,114.1401769653312 115.83596227201633,115.02558794850484 115.91514208330773,115.53819347379613 115.87555217789486,115.81779623011244 115.95473198918626,116.6566034082789 115.95473198918626,118.24101250281092 116.11309161200188,118.84681443744921 115.95473198918626,120.10501572856447 115.99432189483196,120.89721465282491 116.11309161200188,121.22341378586134 116.07350170612335,122.06221042000107 116.19227142329328,122.94760509213666 116.15268151741475,123.22720303095412 115.99432189483196,123.36700193223078 115.2025237812195,123.60000000000582 113.34179821424186,123.55340039651492 112.82712944038212,123.36700193223078 112.5104101949837,123.41360155594884 108.59100953256711,122.76120636539417 104.98832811554894,122.5282078430755 103.95899056782946,122.38840866921237 102.09826500108466,122.29520919464994 100.67302839644253,122.01561064983252 99.80205047130585,121.92241109450697 99.20820188615471,121.92241109450697 98.77271292358637,122.06221042000107 97.94132490456104,121.96901087477454 97.5454258476384,122.01561064983252 96.47649839427322,122.06221042000107 94.61577282729559,121.64281230728375 94.21987377060577,121.6894121178484 93.30930594005622,121.45641301496653 91.84447942953557,121.40981317916885 91.05268131592311,121.13021405882319 90.30047310795635,121.03701431155787 89.82539423997514,120.80401485523907 89.3899052774068,120.71081503730966 86.697791691171,120.38461551559158 86.10394310601987,120.24481564483722 84.44116706727073,120.10501572856447 84.24321753904223,120.05841574646183 83.92649829364382,119.82541575975483 83.80772857647389,119.40601546582184 83.92649829364382,118.75361419536057 84.28280744468793,118.00801153152133 84.44116706727073,117.40220841523842 84.48075697314925,116.56340269150678 84.40157716162503,115.91099710852723 84.44116706727073,115.35179153541685 84.28280744468793,114.27997882067575 84.52034687856212,112.69555513173691 85.66845414345153,108.59466670977417 85.94558348320425,107.15002624579938 86.46025225706398,105.79858399851946 86.7769715024624,104.58694251065026 87.13328065373935,104.02772221076884 88.0042585786432,101.74423177185236 88.36056772968732,100.25296616379637 88.71687688096426,99.693740227347 89.3107254661154,98.34227454510983 89.82539423997514,96.80439463601215 90.10252357972786,96.33836933513521 90.6567822592333,95.68593306545517 91.44858037284575,94.3810575560783 92.3591482033953,93.07617808651412 92.95299678877927,91.95770681774593 93.58643527957611,91.02564520464512 94.21987377060577,89.67415227679885 94.932492072694,88.83529246062972 95.48675075219944,87.76341364704422 96.35772867733613,86.55172133582528 96.95157726248726,85.52644055901328 97.58501575351693,84.08172258743434 97.94132490456104,83.70889135499601 98.17886433843523,83.2894558319822 98.6143533012364,82.21756319241831 98.8123028294649,81.8447303433204 99.24779179180041,81.33208464822383 99.56451103719883,81.05245946595096 100.23753943387419,80.81943834177218 101.9399053780362,80.86604257667204 103.84022085065953,80.6796256066591 104.94873821013607,80.77283410186647 107.24495273944922,80.63302135147387 109.02649849513546,80.40000000002328 110.29337547672912,80.53981282605673 111.67902217572555,80.53981282605673 111.95615151524544,80.49320855576661 113.935646799393,80.58641709122458 114.17318623350002,80.53981282605673 114.56908529018983,80.77283410186647 114.64826510171406,81.05245946595096 114.68785500735976,81.37868882756447 114.60867519606836,82.31077135418309 114.88580453582108,83.61568349634763 114.88580453582108,84.22153421601979 115.04416415840387,84.78078027663287 114.92539444146678,85.43323309443076 114.92539444146678,86.59832494944567 115.00457425275818,87.71681015982176 114.96498434711248,88.50906875685905 115.00457425275818,89.62754899656284 115.1233439699281,90.27999445953174 115.0837540642824,91.21205768894288 115.2025237812195,92.09751588554354 115.1233439699281,93.8218239825801 115.2025237812195,93.96163244420313 115.1629338755738,95.03349580577924 115.2421136868652,95.4529198721284 115.2025237812195,95.965548730921 115.2421136868652,97.08400957411504 115.32129349792376,97.68984131613979 115.40047330968082,99.13451356365113 115.51924302661791,99.92675112263532 115.40047330968082,100.76558929993189 115.44006321532652,101.88403765734984 115.59842283790931,102.86267758361646 115.55883293226361,104.35393414075952 115.44006321532652,105.14616208313964 115.47965312097222,105.65877938573249 115.47965312097222,106.31120052337064 115.55883293226361,106.77721501555061 115.71719255507924,109.15388107017498 115.67760264920071,109.75969580671517 115.75678246072493,110.08590338824433 115.67760264920071,110.87812077015406 115.75678246072493,111.34413031311124 115.83596227201633,113.02176048609545 116.03391180047765,114.00037506455556 115.79637236637063,116.37700119733927 116.03391180047765,118.4740133479645 116.03391180047765,120.80401485523907 116.15268151741475,121.64281230728375 116.07350170612335,122.20200969991856 116.11309161200188,122.90100541792344 116.07350170612335,123.1806033870671 115.87555217789486,123.36700193223078 115.00457425275818,123.55340039651492 113.77728717657737,123.50680078793084 113.50015783705749,123.41360155594884 113.10425878013484,123.46020117451553 112.6687698175665,123.41360155594884 112.27287076087669,123.32040230353596 110.88722406188026,123.13400373820332 109.89747642003931,122.90100541792344 108.35347009822726,122.80780605459586 107.20536283380352,122.80780605459586 106.53233443712816,122.66800697159488 103.44432179420255,122.24860944974353 102.37539434060454,122.24860944974353 99.60410094307736,121.87581130943727 98.93107254663482,122.01561064983252 97.98091480997391,122.01561064983252 97.07034697965719,122.10881018498912 95.76388009195216,122.06221042000107 94.65536273317412,121.73601192323258 94.14069395908155,121.50301284558373" stroke="#4dd2ff" stroke-linecap="round" stroke-linejoin="round" stroke-width="0.5"><title>2024-07-27 5.1km</title><desc>11997575827</desc></polyline><polyline fill="none" points="187.59999999403954,86.744434453547 144.40000000596046,117.255565546453" stroke="#4dd2ff" stroke-linecap="round" stroke-linejoin="round" stroke-width="0.5"><title>2024-05-09 8.0km</title><desc>9223370321595310162</desc></polyline><polyline fill="none" points="12.399999998509884,143.30896531417966 21.494736842811108,147.32358869165182 15.810526311397552,140.63254900369793 40.82105262577534,155.35283153224736 55.599999994039536,159.3674509972334 46.50526315718889,158.0292446538806 15.810526311397552,152.6764178322628" stroke="#4dd2ff" stroke-linecap="round" stroke-linejoin="round" stroke-width="0.5"><title>2024-05-08 6.2km</title><desc>9223370321684028463</desc></polyline><polyline fill="none" points="100.00000002980232,128.40000000223517 93.32735992968082,171.60000000149012 106.67264008522034,155.89091505110264 106.67264008522034,159.81818693131208" stroke="#4dd2ff" stroke-linecap="round" stroke-linejoin="round" stroke-width="0.5"><title>2024-05-07 6.1km</title><desc>9223370321771754451</desc></polyline><polyline fill="none" points="28.757211923599243,176.40000000223517 54.97115224599838,219.60000000149012 13.028847724199295,219.60000000149012" stroke="#4dd2ff" stroke-linecap="round" stroke-linejoin="round" stroke-width="0.5"><title>2024-05-02 6.8km</title><desc>9223370322200251369</desc></polyline><polyline fill="none" points="78.39999999850988,202.3837860506028 121.60000000149012,193.61621394753456 108.1931034475565,198.87675778195262 120.11034481972456,202.3837860506028" stroke="#4dd2ff" stroke-linecap="round" stroke-linejoin="round" stroke-width="0.5"><title>2024-04-30 5.3km</title><desc>9223370322373916531</desc></polyline><polyline fill="none" points="144.39999999990687,194.99704135244247 146.23685039323755,196.9991042536567 149.9105511805974,196.19827974418877 151.3392125980463,197.31943381438032 166.85039370064624,183.94555651256815 183.51811023592018,184.10572413995396 186.78362204693258,187.38915285136318 187.46393700758927,207.00933738739695 183.51811023592018,211.65403949981555 164.53732283436693,211.81420112098567 161.33984251925722,209.89225937688025 150.86299212556332,209.41177315992536 150.25070866104215,199.08124391600722 153.0399999995716,195.47753694356652 167.05448818858713,183.94555651256815 183.31401574774645,184.10572413995396 186.44346456672065,187.22898593591526 187.46393700758927,191.07298232929315 187.05574803124182,208.21055624994915 183.04188976320438,211.97436270705657 165.01354330661707,211.97436270705657 161.74803149560466,209.97234038281022 150.0466141726356,208.93128663027892 150.65889763715677,198.28042166330852 165.89795275544748,184.34597551613115 183.9943307081703,184.26589173270622 187.46393700758927,188.75057023321278 187.1237795271445,206.28860513248947 186.71559055079706,208.61096210364485 183.17795275547542,211.8942819183576 165.01354330661707,211.73412031459156 161.33984251925722,209.81217836227734 150.99905511760153,209.3316920932266 149.9105511805974,207.48982516664546 150.11464566877112,201.16337771102553 150.65889763715677,198.52066843025386 166.10204724385403,184.50614305684576 183.17795275547542,184.02564033056842 186.78362204693258,187.3090693979757 187.1237795271445,208.13047505327268 183.38204724364914,211.81420112098567 181.61322834622115,211.97436270705657 165.69385826750658,212.05444348737365 161.67999999970198,210.0524213798344 151.06708661373705,209.41177315992536 149.70645669242367,205.08738314540824 150.18267716513947,202.68493331217906 151.27118110191077,202.28452424728312 150.0466141726356,202.04427870444488 150.11464566877112,200.44263975397917 152.97196850343607,195.87794969737297 166.64629921223968,184.34597551613115 184.3344881888479,184.82647803390864 187.25984251964837,188.27007026731735 187.39590551168658,206.84917472483357 183.58614173159003,211.33371615357464 164.46929133823141,211.97436270705657 159.29889763751999,209.65201630740194 151.27118110191077,209.41177315992536 150.18267716513947,208.21055624994915 149.97858267696574,201.16337771102553 150.86299212556332,197.96009251917712 166.10204724385403,184.34597551613115 183.65417322795838,184.42605929076672 187.05574803124182,188.18998690939043 187.5999999998603,194.43646276800428 187.1237795271445,206.5288492955151 183.72220472432673,211.49387784407008 164.4012598420959,211.97436270705657 161.40787401539274,209.89225937688025 150.65889763715677,209.25161101785488 150.86299212556332,198.2003393904888" stroke="#4dd2ff" stroke-linecap="round" stroke-linejoin="round" stroke-width="0.5"><title>2024-04-27 9.8km</title><desc>1714200483443</desc></polyline><polyline fill="none" points="12.399999999906868,241.90170505811693 13.076056337915361,244.2095638544415 14.428169013932347,245.16453778604046 16.52394366171211,244.9257944195997 18.078873239224777,244.3687262625317 19.025352112483233,245.16453778604046 21.121126760262996,244.28914506273577 23.487323943525553,242.53835648513632 24.095774647779763,241.58337913750438 25.44788732402958,240.5488189427415 28.828169014072046,237.20638373529073 30.92394366185181,235.2964139279793 33.56056338036433,232.6701973299496 37.27887323941104,232.0335373459966 42.07887323945761,232.11311987420777 43.97183098574169,231.71520714712096 45.72957746475004,232.2722849047277 50.25915492954664,232.35186740697827 51.94929577456787,232.59061486221617 54.72112676058896,235.61474257404916 55.39718309859745,239.59383900789544 55.39718309859745,244.05040141160134 55.39718309859745,248.90484039275907 55.39718309859745,253.52050670719473 54.72112676058896,256.6241280868999 51.47605633805506,259.7277363483445 46.87887323903851,259.9664749020012 42.34929577447474,259.8868953928468 37.143661971902475,260.1256338946405 32.61408450710587,259.8868953928468 30.450704225338995,258.534042415733 27.27323943632655,257.6586656316649 22.60845070425421,257.6586656316649 19.025352112483233,257.4995061045047 18.416901408461854,256.54454821551917 18.011267605470493,251.61057933745906 18.416901408461854,247.233643710264 19.295774647966027,245.8011863839347 21.18873239425011,243.6524951539468 23.21690140874125,242.45877508685226 26.86760563380085,239.59383900789544 30.045070422347635,236.49014563998207 33.22253521136008,233.38643915194552 35.115492957644165,232.19270239386242 39.9154929574579,232.35186740697827 43.56619718321599,232.82936223968863 44.64788732375018,232.59061486221617 47.48732394329272,232.35186740697827 51.27323943679221,232.35186740697827 52.89577464829199,233.54560390638653 55.19436619756743,236.96763778134482 55.464788732351735,241.66296063078335 55.19436619756743,245.48286215390544 55.39718309859745,249.38232446037 55.53239436633885,254.23672818997875 53.50422535231337,257.976984583016 51.002816901309416,260.0460544024827 45.72957746475004,260.1256338946405 42.011267605703324,260.20521337818354 37.61690140864812,260.1256338946405 33.087323943385854,260.0460544024827 30.247887323843315,258.4544627512805 28.28732394357212,257.976984583016 26.529577464796603,258.21572370582726 21.526760563254356,257.73824538249755 18.95774647896178,257.73824538249755 17.94366197171621,256.54454821551917 17.94366197171621,251.92890091077425 18.619718309491873,246.91532010160154 20.512676056241617,244.9257944195997 22.878873239271343,242.77710062783444 25.718309858813882,240.5488189427415 28.760563380084932,237.20638373529073 32.41126760561019,234.0230979627231 34.8450704223942,232.2722849047277 40.11830985918641,232.11311987420777 42.7549295774661,232.35186740697827 44.64788732375018,232.2722849047277 49.85352112655528,232.11311987420777 51.94929577456787,232.5110323857516 54.99154929583892,236.01265318796504 55.53239436633885,238.9571850275388 55.12676056358032,243.01584469294176 55.32957746484317,244.1299826374161 55.12676056358032,249.14358246553456 55.059154929593205,254.3958884246531 54.653521126601845,256.7037079499569 52.3549295773264,258.9319406087743 51.13802816905081,259.9664749020012 46.1352112677414,260.0460544024827 42.55211267597042,259.9664749020012 38.02253521117382,259.8073158747866 33.087323943385854,259.8073158747866 29.97746478836052,258.21572370582726 28.28732394357212,257.81782512459904 24.771830985788256,257.57908587233396 19.76901408447884,257.4995061045047 18.34929577470757,256.6241280868999 18.078873239224777,252.96344507095637 18.281690140720457,249.30274380394258 20.512676056241617,244.9257944195997 23.284507042029873,243.33416999247856 25.921126760542393,240.6284005480702 26.597183098550886,239.7530024163425 28.69295774633065,237.84303923370317 30.856338028097525,235.61474257404916 34.16901408461854,232.7497797892429 36.19718309841119,232.2722849047277 38.83380281692371,232.5110323857516 42.214084507199004,232.35186740697827 43.97183098574169,232.7497797892429 47.62253521126695,232.2722849047277 51.13802816905081,232.2722849047277 53.57183098606765,234.26184487435967 55.32957746484317,236.80847376852762 55.19436619756743,241.66296063078335 55.12676056358032,245.24411889107432 55.261971830856055,249.85980821750127 55.19436619756743,254.3958884246531 55.059154929593205,256.22622864320874 53.030985915567726,258.3748830779223 49.58309859177098,260.0460544024827 45.72957746475004,260.1256338946405 41.808450704207644,260.1256338946405 38.360563380410895,260.28479285287904 35.521126760635525,260.1256338946405 33.76338028186001,260.1256338946405 30.856338028097525,259.1706794213387 27.949295774567872,257.81782512459904 25.515492958016694,257.4995061045047 22.540845070267096,257.26076674857177 19.228169013978913,257.4995061045047 18.416901408461854,256.7832878039917 17.876056337729096,253.20218582404777 18.34929577470757,250.81477480038302 19.430985915241763,250.41687220847234 18.619718309491873,250.41687220847234 18.281690140720457,248.58651750854915 20.039436619728804,245.32369998726062 21.121126760262996,244.05040141160134 22.946478873258457,242.9362633464043 25.515492958016694,240.78756373235956 28.016901408322155,238.71843964257278 30.180281690089032,236.41056358627975 33.42535211262293,233.30685676186113 34.709859154885635,232.59061486221617 39.171830985695124,232.4314499007305 42.95774647872895,232.7497797892429 43.97183098574169,232.90894468151964 47.14929577475414,232.59061486221617 51.002816901309416,232.4314499007305 53.90985915483907,234.81892069999594 55.39718309859745,238.87760324112605 55.464788732351735,243.57291387638543 55.32957746484317,248.18861370894592 55.261971830856055,252.72470424027415 54.99154929583892,255.90790893312078 51.54366197157651,259.4094181560795 46.946478873025626,259.7277363483445 42.55211267597042,259.64815681328764 38.0901408449281,259.56857726949966 35.65633802814409,259.8073158747866 32.54647887311876,260.0460544024827 29.50422535208054,258.13614400691586 24.907042253529653,257.73824538249755 20.512676056241617,257.6586656316649 18.95774647896178,257.26076674857177 18.34929577470757,256.3058085491648 18.214084506733343,251.84932053030934 18.14647887321189,249.30274380394258 18.687323943478987,246.59699635475408 20.98591549275443,244.4483074536547 23.41971830953844,241.9812865165295 26.800000000046566,239.19593033456476 30.51830985909328,236.09223528479924 33.62816901388578,233.06810953945387 34.77746478863992,232.35186740697827 39.30704225343652,232.5110323857516 44.039436619728804,232.82936223968863 47.352112676016986,232.59061486221617 51.611267605563626,232.6701973299496 53.97746478859335,235.0576673526084 54.99154929583892,236.41056358627975 55.32957746484317,239.27551208651857 55.53239436633885,242.61793787463102 55.32957746484317,247.31322459096555 55.32957746484317,251.69015974382637 55.059154929593205,254.63462871185038 54.450704225106165,256.7037079499569 52.219718309817836,259.25025900808396 49.44788732402958,259.8868953928468 44.85070422524586,260.0460544024827 39.64507042244077,259.9664749020012 35.65633802814409,259.8073158747866 32.478873239364475,260.0460544024827 30.450704225338995,258.3748830779223 27.205633802805096,257.6586656316649 22.067605633754283,257.41992632771144 19.36338028125465,257.57908587233396 18.34929577470757,256.86286764981924 18.281690140720457,253.9979877732112 18.281690140720457,249.54148574743886 19.025352112483233,246.35825345409103" stroke="#4dd2ff" stroke-linecap="round" stroke-linejoin="round" stroke-width="0.5"><title>2024-04-27 10.1km</title><desc>9223370322649067555</desc></polyline><polyline fill="none" points="100.00000001490116,242.36772071942687 112.34285713732243,242.36772071942687 96.91428571939468,249.63227928057313 78.40000000596046,242.36772071942687 121.6000000089407,249.63227928057313 87.65714284777641,249.63227928057313" stroke="#4dd2ff" stroke-linecap="round" stroke-linejoin="round" stroke-width="0.5"><title>2024-04-26 5.2km</title><desc>9223370322713802999</desc></polyline></svg>