<?xml version="1.0" encoding="utf-8" ?>
<svg baseProfile="full" height="300mm" version="1.1" viewBox="0,0,200,300" width="200mm" xmlns="http://www.w3.org/2000/svg" xmlns:ev="http://www.w3.org/2001/xml-events" xmlns:xlink="http://www.w3.org/1999/xlink"><defs /><rect fill="#222222" height="300" width="200" x="0" y="0" /><text fill="#FFFFFF" style="font-size:12px; font-family:Arial; font-weight:bold;" x="10" y="20">Over 3km Runs</text><text fill="#FFFFFF" style="font-size:4px; font-family:Arial" x="10" y="280">ATHLETE</text><text fill="#FFFFFF" style="font-size:9px; font-family:Arial" x="10" y="290">L</text><text fill="#FFFFFF" style="font-size:4px; font-family:Arial" x="120" y="280">STATISTICS</text><text fill="#FFFFFF" style="font-size:3px; font-family:Arial" x="120" y="285">Number: 17</text><text fill="#FFFFFF" style="font-size:3px; font-family:Arial" x="120" y="290">Weekly: 3.4</text><text fill="#FFFFFF" style="font-size:3px; font-family:Arial" x="141" y="285">Total: 92.9 km</text><text fill="#FFFFFF" style="font-size:3px; font-family:Arial" x="141" y="290">Avg: 5.5 km</text><text fill="#FFFFFF" style="font-size:3px; font-family:Arial" x="167" y="285">Min: 3.0 km</text><text fill="#FFFFFF" style="font-size:3px; font-family:Arial" x="167" y="290">Max: 10.1 km</text><polyline fill="none" points="30.957647947594523,32.25 27.872943843714893,33.0879374826327 25.025524669326842,35.32243610266596 23.12724522035569,38.67418040125631 23.12724522035569,41.74660884565674 25.50009453203529,64.92935992847197 26.211949325166643,68.00175707275048 27.635658912360668,69.9569169844035 29.771223292686045,71.6327671573963 32.14407260529697,72.75 34.75420684739947,72.75 37.12705615814775,72.19138363958336 39.49990547075868,70.5155338300392 40.9236150579527,68.56037434190512 42.11003971286118,65.76728678541258 42.11003971286118,62.694886977085844 39.73719040118158,39.791427532210946 38.5507657462731,36.160372585989535 35.70334657188505,33.64656231878325 31.906787673011422,32.25 27.872943843714893,33.0879374826327 24.78823973890394,35.60174829396419 23.12724522035569,38.9534922298044 23.12724522035569,42.30523180565797 25.50009453203529,64.92935992847197 26.686519187875092,68.8396829306148 28.584798636846244,71.07415055367164 30.720363018102944,72.19138363958336 33.33049726020545,72.75 36.1779164345935,72.47069183480926 39.26262053847313,70.794842206873 40.9236150579527,68.8396829306148 41.87275478243828,66.04659567750059 42.11003971286118,63.25350539665669 39.73719040118158,41.18798576435074 39.02533560805023,37.277620806824416 37.601626021787524,35.32243610266596 34.75420684739947,33.0879374826327 31.906787673011422,32.25 29.29665343090892,32.52931252354756 26.923804119229317,33.64656231878325 24.78823973890394,35.32243610266596 23.60181508306414,37.5569327857811 22.889960288070142,40.07073923898861 25.50009453203529,65.20866891066544 26.211949325166643,67.72244839277118 27.398373981937766,69.67760851699859 29.533938362263143,71.6327671573963 32.14407260529697,72.47069183480926 34.75420684739947,72.75 37.838910951279104,71.6327671573963 39.9744753325358,69.9569169844035 41.39818491972983,67.72244839277118 42.11003971286118,65.20866891066544 39.73719040118158,40.629362562671304 39.26262053847313,37.836244735401124 37.838910951279104,35.32243610266596 35.94063150230795,33.64656231878325 32.85592739842832,32.52931252354756 29.771223292686045,32.52931252354756 26.923804119229317,33.64656231878325 25.025524669326842,35.04312388156541 23.60181508306414,37.836244735401124 22.889960288070142,40.07073923898861 25.50009453203529,65.20866891066544 25.97466439474374,67.4431396825239 27.635658912360668,69.9569169844035 29.533938362263143,71.6327671573963 32.14407260529697,72.47069183480926 34.991491777822375,72.75 37.601626021787524,71.91207541315816 39.9744753325358,69.9569169844035 41.63546985015273,67.4431396825239 42.11003971286118,64.65005091577768 39.73719040118158,41.18798576435074 39.26262053847313,37.836244735401124 37.601626021787524,35.04312388156541 35.466061640530825,33.36724991584197 32.85592739842832,32.52931252354756 29.29665343090892,32.52931252354756 26.923804119229317,33.64656231878325 25.025524669326842,35.04312388156541 23.60181508306414,37.836244735401124 22.889960288070142,40.07073923898861 25.50009453203529,64.92935992847197 26.211949325166643,68.00175707275048 27.398373981937766,69.9569169844035 29.533938362263143,71.6327671573963 32.14407260529697,72.75 35.70334657188505,72.47069183480926 38.07619588356465,71.6327671573963 40.21176026389003,69.67760851699859 41.63546985015273,67.16383094154298 42.11003971286118,64.65005091577768 39.73719040118158,41.467297319555655 39.02533560805023,37.5569327857811 37.601626021787524,35.04312388156541 34.75420684739947,33.0879374826327 31.906787673011422,32.25 28.110228775069118,33.0879374826327 25.50009453203529,34.4844993466977 24.076384944841266,36.439684686018154 23.12724522035569,38.67418040125631 22.889960288070142,40.35005091619678 25.50009453203529,65.76728678541258 26.686519187875092,68.8396829306148 28.34751370549202,70.794842206873 30.957647947594523,72.19138363958336 33.56778219155967,72.75 37.12705615814775,72.19138363958336 39.02533560805023,70.794842206873 41.16089998744428,68.28106572199613 42.11003971286118,65.76728678541258 42.11003971286118,62.974196202354506 39.73719040118158,40.07073923898861 39.02533560805023,37.277620806824416 37.601626021787524,35.04312388156541 35.2287767091766,33.36724991584197 32.14407260529697,32.25 29.05936849862337,32.52931252354756 26.923804119229317,33.36724991584197 25.025524669326842,35.32243610266596 23.60181508306414,37.5569327857811 23.12724522035569,39.791427532210946 25.50009453203529,65.20866891066544 26.211949325166643,68.00175707275048 27.635658912360668,70.23622542293742 29.771223292686045,71.6327671573963 32.85592739842832,72.75 35.466061640530825,72.47069183480926 37.838910951279104,71.6327671573963 39.9744753325358,69.9569169844035 41.63546985015273,67.16383094154298 42.11003971286118,64.65005091577768 39.73719040118158,40.629362562671304 38.788050676696,36.99830879736692 36.652486296370625,34.20518703456037 33.09321232885122,32.52931252354756 30.483078085817397,32.25 27.16108904965222,33.36724991584197 25.737379463389516,34.4844993466977 24.076384944841266,36.439684686018154 23.60181508306414,37.5569327857811 22.889960288070142,40.35005091619678 25.262809600681067,64.65005091577768 26.211949325166643,68.00175707275048 28.34751370549202,70.794842206873 30.483078085817397,72.19138363958336 33.33049726020545,72.75 35.94063150230795,72.47069183480926 38.31348081398755,71.35345887043513 39.9744753325358,69.9569169844035 41.39818491972983,67.72244839277118 42.11003971286118,65.20866891066544 39.26262053847313,38.11555665382184 37.838910951279104,35.32243610266596 35.94063150230795,33.64656231878325 33.33049726020545,32.52931252354756 30.483078085817397,32.25 27.635658912360668,33.0879374826327 25.50009453203529,34.76381162926555 23.83910001348704,36.71899675694294 23.12724522035569,39.51211579423398 25.262809600681067,64.37074187234975 26.211949325166643,68.00175707275048 27.635658912360668,69.9569169844035 30.00850822404027,71.91207541315816 33.33049726020545,72.75 35.70334657188505,72.47069183480926 38.5507657462731,71.35345887043513 40.44904519524425,69.67760851699859 41.63546985015273,67.4431396825239 42.11003971286118,64.65005091577768 39.73719040118158,39.791427532210946 39.02533560805023,37.277620806824416 36.88977122772485,34.4844993466977 34.516921915113926,32.80862501822412 30.957647947594523,32.25 27.872943843714893,33.0879374826327 25.737379463389516,34.4844993466977 24.31366987619549,36.160372585989535 23.364530151709914,38.39486854313873 22.889960288070142,40.07073923898861" stroke="#4dd2ff" stroke-linecap="round" stroke-linejoin="round" stroke-width="0.5"><title>2024-06-26 3.9km</title><desc>11744480107</desc></polyline><polyline fill="none" points="85.80299334018491,32.60142738479772 87.70615136413835,32.55749897833448 90.09442810015753,32.25 90.80344775621779,32.25 90.99003187613562,32.29392843981623 91.17661599628627,32.46964215117623 91.32588329236023,32.733212575520156 91.28856646828353,35.01748240538291 91.32588329236023,35.50069168113987 91.47515058820136,36.11568447132595 91.62441788427532,38.883140478108544 91.58710106019862,39.585983438941184 91.69905153219588,41.167375643970445 91.66173470835201,42.880543569277506 91.84831882826984,45.29653731005965 91.81100200442597,46.219003848178545 91.8856356521137,47.5807363288186 91.84831882826984,48.63497768776142 91.9229524761904,50.128481585299596 91.8856356521137,50.78737861389527 92.07221977226436,53.33510371306329 92.07221977226436,53.73043893094291 92.18417024426162,54.696812284819316 92.07221977226436,55.53140559984604 92.29612071625888,57.33236426618532 92.14685342018493,58.913687228865456 92.22148706810549,59.35294251260348 92.29612071625888,61.59313705438399 92.37075436417945,61.988464217749424 92.33343754033558,62.6473419664253 92.40807118825614,63.174443394178525 92.33343754033558,64.53611891006585 92.40807118825614,64.71181864343816 92.40807118825614,65.59031616782886 92.55733848409727,66.90805888432078 92.48270483617671,67.7865516487218 92.5946553084068,69.41175824365928 92.5200216602534,70.59771570024895 92.66928895609453,71.65189719334012 92.5946553084068,72.48645559768192 92.25880389218219,72.61822782026138 91.54978423635475,72.61822782026138 90.57954681222327,72.75 89.79589350824244,72.66215188481146 88.90028973226435,72.44253151403973 87.9300523083657,72.26683513159514 86.43737934809178,72.17898691183655 85.57909239619039,71.95936627915944 84.123736260226,71.78366968716728 81.77277634828351,71.6958213627513 80.24278656416573,71.38835207716329 79.34718278795481,71.30050366700743 78.89938089996576,71.30050366700743 77.74255935614929,71.16873101599049 76.66037146002054,70.9051855855505 75.95135180396028,70.94910983595764 75.24233214790002,70.86126133057405 74.27209472400136,70.55379141206504 73.5257582438644,70.68556426273426 72.55552081996575,70.68556426273426 71.47333292406984,70.46594282091246 70.05529361194931,70.46594282091246 68.8611552438233,70.29024558182573 67.92823464400135,69.98277523001889 66.2489775638096,69.85100215062266 65.129472843837,69.58745586356963 62.51729516382329,69.27998497858061 62.330711043672636,68.97251386049902 62.330711043672636,68.75289149052696 62.77851293166168,67.65477785549592 62.741196107817814,67.30338086391566 62.81582975597121,66.64451068372 62.66656245966442,64.49219396474655 63.18899799580686,61.46136124766781 63.03973069996573,60.5828547742567 63.0770475238096,60.05574997625081 63.18899799580686,59.528644492675085 63.52484941179864,58.25480341081857 64.38313636393286,56.45384884328814 64.8682550759986,54.91644227114739 65.31605696398765,53.862217251298716 65.7265420279,52.72013705197605 66.13702709204517,51.84161163191311 66.36092803580686,51.138789924560115 67.10726451594383,49.51351005869219 67.33116545970552,48.63497768776142 67.66701687593013,48.195710788073484 67.85360099584796,47.6685898800788 68.3387197079137,47.05361462090514 69.15968983597122,45.6918803693261 69.12237301212735,45.6918803693261 69.30895713204518,45.516172390576685 69.7567590198014,44.76941263151821 70.12992725986987,43.97872432784061 71.13748150807805,42.22163368578185 71.77186751598492,41.3430855080951 72.63015446811914,40.0252596703649 73.48844142002054,38.48779077711515 73.82429283601232,37.69709021781455 74.27209472400136,37.03817190675181 74.79453025991097,35.67640400203527 75.50354991620407,35.10533868015045 76.88427240401506,32.9089260964538 77.29475746816024,32.64535578645882 77.48134158807807,32.60142738479772" stroke="#4dd2ff" stroke-linecap="round" stroke-linejoin="round" stroke-width="0.5"><title>2024-06-17 3.2km</title><desc>11672403120</desc></polyline><polyline fill="none" points="142.75,38.19790729880333 102.25,66.80209270119667" stroke="#4dd2ff" stroke-linecap="round" stroke-linejoin="round" stroke-width="0.5"><title>2024-05-09 8.0km</title><desc>9223370321595310162</desc></polyline><polyline fill="none" points="147.25,46.22715498134494 155.77631579339504,49.99086439795792 150.4473684206605,43.718014690093696 173.894736841321,57.51827956177294 187.75,61.281985309906304 179.22368421405554,60.0274168625474 150.4473684206605,55.00914171803743" stroke="#4dd2ff" stroke-linecap="round" stroke-linejoin="round" stroke-width="0.5"><title>2024-05-08 6.2km</title><desc>9223370321684028463</desc></polyline><polyline fill="none" points="32.50000002980232,81.0 26.244399935007095,121.5 38.755600079894066,106.77273286134005 38.755600079894066,110.45455024763942" stroke="#4dd2ff" stroke-linecap="round" stroke-linejoin="round" stroke-width="0.5"><title>2024-05-07 6.1km</title><desc>9223370321771754451</desc></polyline><polyline fill="none" points="27.58488619327545,129.75 52.160455256700516,170.25 12.839544743299484,170.25" stroke="#4dd2ff" stroke-linecap="round" stroke-linejoin="round" stroke-width="0.5"><title>2024-05-02 6.8km</title><desc>9223370322200251369</desc></polyline><polyline fill="none" points="67.375,161.9184309625998 57.25,165.32369315624237 97.75,150.00000747479498 91.96428570896387,155.10790436062962 96.30357141792774,144.89210892654955 97.75,134.67630684468895 97.75,136.3789409827441" stroke="#4dd2ff" stroke-linecap="round" stroke-linejoin="round" stroke-width="0.5"><title>2024-05-01 4.0km</title><desc>9223370322286947528</desc></polyline><polyline fill="none" points="102.25,154.10979942325503 142.75,145.89020057674497 130.18103448301554,150.82196042127907 141.3534482717514,154.10979942325503" stroke="#4dd2ff" stroke-linecap="round" stroke-linejoin="round" stroke-width="0.5"><title>2024-04-30 5.3km</title><desc>9223370322373916531</desc></polyline><polyline fill="none" points="147.25,147.18472626793664 148.97204724373296,149.06166023784317 152.41614173189737,148.3108872602461 153.7555118110031,149.36196920106886 168.2972440943122,136.82395923056174 183.92322834627703,136.97411638125777 186.9846456691157,140.05233079823665 187.6224409446586,158.44625380076468 183.92322834627703,162.8006620311644 166.12874015746638,162.95081355096772 163.13110236194916,161.14899316593073 153.3090551176574,160.69853733747732 152.73503936990164,151.01366617128951 155.3499999998603,147.6351908846409 168.48858267674223,136.82395923056174 183.73188976361416,136.97411638125777 186.6657480315771,139.90217431494966 187.6224409446586,143.50592093379237 187.23976377933286,159.57239648437826 183.47677165316418,163.10096503788373 166.57519685011357,163.10096503788373 163.5137795272749,161.2240691089537 152.54370078700595,160.24808121594833 153.11771653499454,150.2628953094245 167.40433070831932,137.19935204647481 184.36968503892422,137.12427349953214 187.6224409446586,141.32865959370974 187.30354330688715,157.7705673117889 186.9208661413286,159.9477769721998 183.6043307085056,163.02588929852936 166.57519685011357,162.87573779502418 163.13110236194916,161.0739172147005 153.43661417299882,160.62346133746905 152.41614173189737,158.89671109378105 152.60748031456023,152.9656666041701 153.11771653499454,150.4881266534212 167.59566929121502,137.34950911585474 183.6043307085056,136.8990378099843 186.9846456691157,139.9772525606677 187.30354330688715,159.49732036248315 183.79566929116845,162.95081355096772 182.13740157475695,163.10096503788373 167.2129921258893,163.17604076943826 163.4499999997206,161.29914504371118 153.5003937005531,160.69853733747732 152.2248031492345,156.6444216988748 152.67125984234735,154.39212498022243 153.69173228321597,154.01674148184247 152.54370078700595,153.791511285468 152.60748031456023,152.28997476940276 155.28622047207318,148.01057784131262 168.10590551164933,137.19935204647481 184.68858267716132,137.64982315682573 187.43110236222856,140.87819087563548 187.55866141733713,158.29610130458605 183.9870078735985,162.5003588940017 166.06496062967926,163.10096503788373 161.2177165353205,160.92376528825844 153.69173228321597,160.69853733747732 152.67125984234735,159.57239648437826 152.4799212596845,152.9656666041701 153.3090551176574,149.96258673683042 167.59566929121502,137.19935204647481 184.0507874013856,137.274430585152 187.23976377933286,140.8031127275899 187.75,146.6591838450986 187.30354330688715,157.99579621461453 184.11456692917272,162.6505104788812 166.00118110212497,163.10096503788373 163.19488188950345,161.14899316593073 153.11771653499454,160.5483853293117 153.3090551176574,150.1878181786742" stroke="#4dd2ff" stroke-linecap="round" stroke-linejoin="round" stroke-width="0.5"><title>2024-04-27 9.8km</title><desc>1714200483443</desc></polyline><polyline fill="none" points="12.25,194.90784849203192 12.883802816970274,197.0714661135571 14.151408450677991,197.96675417444203 16.116197183029726,197.74293226841837 17.573943661991507,197.2206808712217 18.461267605656758,197.96675417444203 20.426056338008493,197.14607349637663 22.644366197288036,195.5047092048917 23.214788732584566,194.60941794147948 24.482394366292283,193.63951775885653 27.65140845091082,190.5059847519151 29.616197183262557,188.7153880575206 32.08802816923708,186.25330999691505 35.57394366222434,185.65644126193365 40.07394366199151,185.73104988213163 41.84859154932201,185.35800670046592 43.49647887330502,185.88026709819678 47.742957746610045,185.95487569412217 49.327464788686484,186.17870143335313 51.926056338241324,189.01382116321474 52.5598591552116,192.74422406993108 52.5598591552116,196.92225132341264 52.5598591552116,201.47328786825528 52.5598591552116,205.80047503806418 51.926056338241324,208.7101200815523 48.883802817203104,211.6197528266348 44.573943661758676,211.84357022069162 40.327464788686484,211.76896443084115 35.44718309887685,211.99278177629458 31.200704225571826,211.76896443084115 29.172535211313516,210.5006647647824 26.19366197171621,209.67999902978772 21.82042253552936,209.67999902978772 18.461267605656758,209.5307869730168 17.89084507059306,208.63551395206014 17.510563380317762,204.00991812895518 17.89084507059306,199.90654097840888 18.714788732584566,198.56361223495333 20.489436619915068,196.54921420686878 22.39084507082589,195.43010164395673 25.813380281673744,192.74422406993108 28.79225352127105,189.8345115375123 31.771126760868356,186.92478670499986 33.54577464796603,185.80565849429695 38.04577464796603,185.95487569412217 41.46830985927954,186.4025270997663 42.48239436629228,186.17870143335313 45.144366197055206,185.95487569412217 48.69366197218187,185.95487569412217 50.2147887328174,187.07400366233196 52.369718310423195,190.28216042008717 52.62323943688534,194.68402559141396 52.369718310423195,198.26518326933729 52.5598591552116,201.92092918162234 52.686619718559086,206.47193267813418 50.785211267881095,209.97842304664664 48.44014084502123,211.918176002393 43.49647887330502,211.99278177629458 40.01056338055059,212.06738754210528 35.89084507059306,211.99278177629458 31.644366197288036,211.918176002393 28.982394366292283,210.4260588293546 27.144366197288036,209.97842304664664 25.496478873537853,210.20224097423488 20.80633802805096,209.7546050461824 18.397887324215844,209.7546050461824 17.447183098644018,208.63551395206014 17.447183098644018,204.3083446038654 18.08098591538146,199.6081125952769 19.855633802944794,197.74293226841837 22.073943661991507,195.72853183862753 24.73591549275443,193.63951775885653 27.588028169004247,190.5059847519151 31.010563380550593,187.5216543400893 33.29225352127105,185.88026709819678 38.23591549322009,185.73104988213163 40.70774647896178,185.95487569412217 42.48239436629228,185.88026709819678 47.36267605633475,185.73104988213163 49.327464788686484,186.10409286170034 52.1795774649363,189.3868623637827 52.686619718559086,192.14736096333945 52.30633802851662,195.952354399662 52.49647887353785,196.99685872264672 52.30633802851662,201.69710856146412 52.242957746610045,206.6211453981232 51.86267605633475,208.78472620312823 49.70774647896178,210.8736943207914 48.56690140860155,211.84357022069162 43.87676056381315,211.918176002393 40.51760563394055,211.84357022069162 36.271126760635525,211.694358632667 31.644366197288036,211.694358632667 28.728873239364475,210.20224097423488 27.144366197288036,209.8292110543698 23.84859154955484,209.60539300536038 19.158450704300776,209.5307869730168 17.827464788919315,208.7101200815523 17.573943661991507,205.2782297540689 17.76408450701274,201.84632231621072 19.855633802944794,197.74293226841837 22.454225352033973,196.2507843679632 24.926056338241324,193.71412551385583 25.559859154978767,192.8934397653211 27.524647887330502,191.10284928168403 29.552816901588812,189.01382116321474 32.65845070453361,186.32791855244432 34.55985915497877,185.88026709819678 37.03169014095329,186.10409286170034 40.200704225571826,185.95487569412217 41.84859154932201,186.32791855244432 45.271126760868356,185.88026709819678 48.56690140860155,185.88026709819678 50.84859154955484,187.7454795697704 52.49647887353785,190.13294415804558 52.369718310423195,194.68402559141396 52.30633802851662,198.0413614604622 52.43309859163128,202.3685702039511 52.369718310423195,206.6211453981232 52.242957746610045,208.3370893530664 50.341549296164885,210.35145288560307 47.1091549298726,211.918176002393 43.49647887330502,211.99278177629458 39.82042253529653,211.99278177629458 36.58802816923708,212.1419932995923 33.926056338474154,211.99278177629458 32.27816901425831,211.99278177629458 29.552816901588812,211.09751195757417 26.827464788919315,209.8292110543698 24.545774648198858,209.5307869730168 21.757042253622785,209.30696882680058 18.65140845067799,209.5307869730168 17.89084507059306,208.85933231632225 17.383802816970274,205.5020492100739 17.827464788919315,203.26385137543548 18.841549295699224,202.89081769547192 18.08098591538146,202.89081769547192 17.76408450701274,201.1748601643485 19.411971830995753,198.1159687381005 20.426056338008493,196.92225132341264 22.137323943898082,195.87774688727222 24.545774648198858,193.8633409991744 26.89084507059306,191.92353716492653 28.91901408461854,189.75990336219547 31.961267605656758,186.85017821425572 33.16549295792356,186.17870143335313 37.34859154932201,186.0294842820149 40.897887323983014,186.32791855244432 41.84859154932201,186.47713563893922 44.827464788919315,186.17870143335313 48.44014084502123,186.0294842820149 51.16549295792356,188.26773815625347 52.5598591552116,192.0727530386066 52.62323943688534,196.47460675914772 52.49647887353785,200.80182535218773 52.43309859163128,205.0544102253043 52.1795774649363,208.03866462485166 48.94718309864402,211.32132952136453 44.63732394366525,211.6197528266348 40.51760563394055,211.54514701251173 36.33450704230927,211.4705411902396 34.05281690158881,211.694358632667 31.13732394366525,211.918176002393 28.285211267881095,210.12763500656 23.97535211290233,209.7546050461824 19.855633802944794,209.67999902978772 18.397887324215844,209.30696882680058 17.827464788919315,208.41169551492203 17.700704225106165,204.23373799724504 17.637323943898082,201.84632231621072 18.144366197288036,199.30968408263288 20.299295774661005,197.2952882378595 22.58098591538146,194.9824561093119 25.75000000023283,192.37118468870176 29.23591549298726,189.46147057955386 32.15140845067799,186.6263526933035 33.228873239597306,185.95487569412217 37.47535211290233,186.10409286170034 41.911971831228584,186.4025270997663 45.01760563394055,186.17870143335313 49.01056338031776,186.25330999691505 51.228873239364475,188.49156314315042 52.1795774649363,189.75990336219547 52.49647887353785,192.44579258118756 52.686619718559086,195.57931675750297 52.49647887353785,199.98114805406658 52.49647887353785,204.08452475990634 52.242957746610045,206.8449644173961 51.672535211313516,208.78472620312823 49.58098591561429,211.172117820126 46.982394366525114,211.76896443084115 42.672535211313516,211.918176002393 37.79225352127105,211.84357022069162 34.05281690158881,211.694358632667 31.073943662224337,211.918176002393 29.172535211313516,210.35145288560307 26.130281690275297,209.67999902978772 21.313380281906575,209.45618093229132 18.77816901402548,209.60539300536038 17.827464788919315,208.93393842177466 17.76408450701274,206.24811353744008 17.76408450701274,202.0701428882312 18.461267605656758,199.0858626132831" stroke="#4dd2ff" stroke-linecap="round" stroke-linejoin="round" stroke-width="0.5"><title>2024-04-27 10.1km</title><desc>9223370322649067555</desc></polyline><polyline fill="none" points="77.50000001490116,195.34473817422986 89.0714285671711,195.34473817422986 74.60714285075665,202.1552618239075 57.25,195.34473817422986 97.75,202.1552618239075 65.92857141792774,202.1552618239075" stroke="#4dd2ff" stroke-linecap="round" stroke-linejoin="round" stroke-width="0.5"><title>2024-04-26 5.2km</title><desc>9223370322713802999</desc></polyline><polyline fill="none" points="149.59782608691603,198.75000909809023 149.01086956541985,198.51970147294924 150.38043478224427,199.21062427409925 151.55434782523662,200.36216177721508 154.88043478224427,200.36216177721508 156.44565217383206,199.44093182473443 156.64130434766412,198.28939382219687 155.85869565140456,199.44093182473443 155.27173912990838,198.51970147294924 156.25,198.05908614676446 160.55434782616794,198.05908614676446 162.1195652168244,198.51970147294924 164.85869565233588,198.28939382219687 165.25,197.13785519613884 164.2717391308397,195.98631594586186 161.3369565224275,194.60446802224033 159.77173912990838,193.68323557265103 157.6195652168244,192.5316944506485 156.44565217383206,196.6772395707667 156.44565217383206,198.05908614676446 155.46739130374044,198.98031669901684 154.29347825981677,198.75000909809023 152.7282608691603,198.98031669901684 150.96739130374044,198.51970147294924 150.57608695607632,200.13185432646424 152.33695652149618,200.82277660351247 150.96739130374044,201.7440059571527 152.33695652149618,201.9743132328149 151.94565217290074,203.1258492388297 150.96739130374044,203.81677054218017 147.25,204.9683055493515 152.53260869532824,201.05308397929184 153.90217391308397,200.36216177721508 153.51086956448853,198.98031669901684 157.8152173915878,200.36216177721508 159.57608695700765,200.13185432646424 160.94565217290074,200.82277660351247 160.1630434775725,201.7440059571527 160.55434782616794,202.66523491148837 161.7282608691603,203.58646346605383 161.7282608691603,204.50769162084907 160.1630434775725,204.9683055493515 157.0326086943969,203.58646346605383 156.83695652149618,202.20462048402987 158.7934782607481,201.9743132328149 159.77173912990838,202.66523491148837 162.1195652168244,201.9743132328149 162.51086956541985,203.35615636478178 160.94565217290074,204.27738461992703 159.1847826084122,204.27738461992703 153.90217391308397,201.05308397929184 150.96739130374044,198.51970147294924 149.59782608691603,198.05908614676446 148.2282608691603,198.28939382219687 149.01086956541985,197.36816297168843 150.57608695607632,197.828778446652 151.75,197.59847072139382 150.96739130374044,198.51970147294924 149.2065217383206,198.51970147294924 147.25,198.75000909809023 151.55434782523662,198.98031669901684 153.1195652168244,198.28939382219687 154.29347825981677,198.28939382219687 155.27173912990838,199.21062427409925 157.6195652168244,198.05908614676446 158.5978260859847,198.51970147294924 159.77173912990838,198.51970147294924 160.55434782616794,199.21062427409925 161.7282608691603,199.6712393502239 162.90217391308397,199.44093182473443 163.88043478224427,199.6712393502239 165.05434782616794,201.05308397929184 167.01086956541985,202.43492770986632 168.57608695607632,202.20462048402987 169.75,202.66523491148837 168.1847826084122,201.9743132328149 165.25,201.28339133015834 166.42391304299235,200.82277660351247 166.6195652168244,202.20462048402987 167.98913043551147,201.9743132328149 168.1847826084122,200.82277660351247 169.1630434775725,201.7440059571527 170.33695652149618,201.9743132328149 167.01086956541985,201.9743132328149 168.57608695607632,202.20462048402987 168.96739130467176,201.51369865587912 169.94565217383206,201.9743132328149 170.92391304392368,202.66523491148837 167.5978260859847,203.81677054218017 169.75,203.1258492388297 172.2934782607481,201.05308397929184 171.3152173915878,199.90154685056768 171.3152173915878,200.82277660351247 169.1630434775725,201.28339133015834 167.01086956541985,201.05308397929184 165.44565217290074,200.13185432646424 161.7282608691603,199.90154685056768 163.48913043458015,200.13185432646424 164.46739130374044,201.28339133015834 166.42391304299235,200.36216177721508 170.33695652149618,200.13185432646424 172.68478260934353,200.82277660351247 175.03260869532824,201.05308397929184 176.59782608691603,201.05308397929184 180.90217391215265,201.51369865587912 185.01086956541985,201.9743132328149 187.75,202.43492770986632 185.01086956541985,202.43492770986632 184.42391304392368,202.43492770986632 181.8804347831756,202.43492770986632 179.72826087009162,202.20462048402987 178.16304347850382,202.43492770986632 176.01086956448853,202.43492770986632 175.2282608691603,201.7440059571527 172.68478260934353,201.05308397929184 176.59782608691603,200.59246920305304 178.16304347850382,201.51369865587912 179.14130434766412,201.05308397929184 177.96739130467176,200.82277660351247 178.55434782616794,201.05308397929184 177.57608695607632,201.51369865587912 176.40217391308397,201.51369865587912 177.96739130467176,200.59246920305304" stroke="#4dd2ff" stroke-linecap="round" stroke-linejoin="round" stroke-width="0.5"><title>2024-04-24 3.4km</title><desc>9223370322893282018</desc></polyline><polyline fill="none" points="52.75,249.6032503694296 15.823529407382011,243.99458322674036 12.25,251.00541677325964 17.014705881476402,245.39675023965538" stroke="#4dd2ff" stroke-linecap="round" stroke-linejoin="round" stroke-width="0.5"><title>2024-04-23 3.1km</title><desc>9223370322979897699</desc></polyline></svg>