<?xml version="1.0" encoding="utf-8" ?>
<svg baseProfile="full" height="300mm" version="1.1" viewBox="0,0,200,300" width="200mm" xmlns="http://www.w3.org/2000/svg" xmlns:ev="http://www.w3.org/2001/xml-events" xmlns:xlink="http://www.w3.org/1999/xlink"><defs /><rect fill="#222222" height="300" width="200" x="0" y="0" /><text fill="#FFFFFF" style="font-size:12px; font-family:Arial; font-weight:bold;" x="10" y="20">Over 3km Runs</text><text fill="#FFFFFF" style="font-size:4px; font-family:Arial" x="10" y="280">ATHLETE</text><text fill="#FFFFFF" style="font-size:9px; font-family:Arial" x="10" y="290">L</text><text fill="#FFFFFF" style="font-size:4px; font-family:Arial" x="120" y="280">STATISTICS</text><text fill="#FFFFFF" style="font-size:3px; font-family:Arial" x="120" y="285">Number: 11</text><text fill="#FFFFFF" style="font-size:3px; font-family:Arial" x="120" y="290">Weekly: 5.5</text><text fill="#FFFFFF" style="font-size:3px; font-family:Arial" x="141" y="285">Total: 55.7 km</text><text fill="#FFFFFF" style="font-size:3px; font-family:Arial" x="141" y="290">Avg: 5.1 km</text><text fill="#FFFFFF" style="font-size:3px; font-family:Arial" x="167" y="285">Min: 3.0 km</text><text fill="#FFFFFF" style="font-size:3px; font-family:Arial" x="167" y="290">Max: 10.1 km</text><polyline fill="none" points="36.40200896561146,60.529449061490595 58.889452911913395,39.3529566694051 56.19095963984728,43.58825882151723 49.89447533339262,43.58825882151723 45.39698654413223,44.6470840703696 42.698493272066116,48.88238392397761 39.100502237677574,52.05885761231184 59.78895067051053,33.0 47.19598205760121,47.82355913333595 20.21104932576418,87.0 48.09547981992364,61.58827247470617" stroke="#4dd2ff" stroke-linecap="round" stroke-linejoin="round" stroke-width="0.5"><title>2024-05-05 4.5km</title><desc>9223370321934722240</desc></polyline><polyline fill="none" points="113.76230002194643,72.60001716949046 98.47085554897785,79.80001014657319 74.00454437732697,87.0 95.41256663948298,54.60002107359469 125.99545561522245,33.0 116.82058891654015,45.60001570545137 93.88342220336199,60.0000219438225 95.41256663948298,69.00001950562 89.29598885029554,61.800021851435304 77.0628332644701,79.80001014657319 81.65026661008596,76.2000140491873" stroke="#4dd2ff" stroke-linecap="round" stroke-linejoin="round" stroke-width="0.5"><title>2024-05-04 3.0km</title><desc>9223370322023120704</desc></polyline><polyline fill="none" points="158.76015267521143,68.02705170586705 182.31725176423788,33.0 176.11801516264677,34.45946230459958 148.84137412160635,69.48651021439582 151.32106875628233,78.24325795657933 162.47969464212656,87.0 157.52030535787344,85.54054338950664 146.3616794794798,84.08108661696315 137.68274823576212,81.16217260155827 143.88198483735323,78.24325795657933 146.3616794794798,76.78380039334297" stroke="#4dd2ff" stroke-linecap="round" stroke-linejoin="round" stroke-width="0.5"><title>2024-05-03 5.0km</title><desc>9223370322115228759</desc></polyline><polyline fill="none" points="33.4465149641037,93.0 66.21394035220146,147.0 13.78605967760086,147.0" stroke="#4dd2ff" stroke-linecap="round" stroke-linejoin="round" stroke-width="0.5"><title>2024-05-02 6.8km</title><desc>9223370322200251369</desc></polyline><polyline fill="none" points="86.5,135.8912412840873 73.0,140.43159087374806 127.0,120.00000996515155 119.28571428358555,126.81053914688528 125.07142855972052,113.1894785668701 127.0,99.56840912625194 127.0,101.83858797699213" stroke="#4dd2ff" stroke-linecap="round" stroke-linejoin="round" stroke-width="0.5"><title>2024-05-01 4.0km</title><desc>9223370322286947528</desc></polyline><polyline fill="none" points="142.5294117666781,117.7565357373096 187.0,125.23475372977555 133.0,118.50435790186748 151.42352941259742,114.76524626975879 145.7058823518455,117.00871349312365 150.78823529183865,118.50435790186748 148.8823529407382,115.51306875934824 143.80000000074506,117.7565357373096 148.24705882743,117.00871349312365 136.81176470592618,118.50435790186748 146.34117646887898,117.00871349312365 158.4117647074163,114.76524626975879 159.68235294148326,115.51306875934824 142.5294117666781,116.26089116604999 143.16470588371158,118.50435790186748" stroke="#4dd2ff" stroke-linecap="round" stroke-linejoin="round" stroke-width="0.5"><title>2024-04-30 5.3km</title><desc>9223370322373916531</desc></polyline><polyline fill="none" points="15.183514774776995,164.82542821147945 13.587869362905622,166.80260791117325 13.335925349965692,171.7455384080531 13.335925349965692,174.90899986802833 14.17573872487992,177.77587733854307 15.855365474242717,178.962168828235 18.458786936011165,178.6655961004435 20.390357698313892,177.97359269391745 21.566096423193812,178.962168828235 24.16951788496226,177.87473502149805 27.1088646966964,175.69986351864645 27.864696734119207,174.5135677854414 29.544323483947664,173.22841233352665 33.74339035805315,169.07635926676448 36.346811819821596,166.7037490279181 39.62208398152143,163.44139987131348 44.241057543084025,162.65052559110336 50.20373250404373,162.74938491365174 52.55520995333791,162.25508819398237 54.7387247281149,162.94710352655966 60.365474339108914,163.0459628169192 62.465007776394486,163.34254062385298 65.90824261307716,167.0991844960954 66.74805598799139,172.04211338644382 66.74805598799139,177.57816194009501 66.74805598799139,183.60846230742754 66.74805598799139,189.34215354954358 65.90824261307716,193.1975463598501 61.877138413954526,197.05292287439806 56.16640746500343,197.3494896235643 50.53965785400942,197.2506340513355 44.07309486810118,197.54720073612407 38.44634525710717,197.2506340513355 35.758942457381636,195.57008768199012 31.81181959575042,194.48267367540393 26.017107309773564,194.48267367540393 21.566096423193812,194.28496189881116 20.810264385771006,193.09869033761788 20.30637636082247,186.96959602768766 20.810264385771006,181.53246176289394 21.902021773159504,179.7530289644492 24.253499222453684,177.08387325692456 26.77293934719637,175.6010055996594 31.307931570801884,172.04211338644382 35.2550544324331,168.1866311506601 39.202177294529974,164.33113261673134 41.55365474335849,162.84824422554811 47.51632970478386,163.0459628169192 52.05132192885503,163.63911833422026 53.39502332825214,163.34254062385298 56.92223950242624,163.0459628169192 61.62519440148026,163.0459628169192 63.64074650174007,164.52885088679614 66.49611197598279,168.77978332474595 66.83203732548282,174.61242582235718 66.49611197598279,179.35759898199467 66.74805598799139,184.20160445210058 66.91601866297424,190.23186102911131 64.39657853869721,194.87809710059082 61.289269051514566,197.44834518502466 54.7387247281149,197.54720073612407 50.119751166552305,197.64605627651326 44.66096423054114,197.54720073612407 39.03421461908147,197.44834518502466 35.50699844490737,195.47123191691935 33.071539658121765,194.87809710059082 30.88802488381043,195.1746645567473 24.673405909910798,194.58152954786783 21.48211508616805,194.58152954786783 20.222395023796707,193.09869033761788 20.222395023796707,187.36502270988422 21.062208398245275,181.137032552273 23.413685847539455,178.6655961004435 26.353032659273595,175.99643721064785 29.880248833447695,173.22841233352665 33.659409020096064,169.07635926676448 38.1944012446329,165.12200543965446 41.21772939385846,162.94710352655966 47.768273717258126,162.74938491365174 51.04354587895796,163.0459628169192 53.39502332825214,162.94710352655966 59.86158631416038,162.74938491365174 62.465007776394486,163.24368136556586 66.24416796304286,167.59347859077388 66.91601866297424,171.25124656409025 66.4121306380257,176.29301080625737 66.66407465049997,177.67701964481967 66.4121306380257,183.90503342816373 66.32814930053428,190.42957368452335 65.82426127558574,193.29640237172134 62.968895801343024,196.06436634721467 61.45723172649741,197.3494896235643 55.2426127535291,197.44834518502466 50.79160186648369,197.3494896235643 45.164852255024016,197.15177846810548 39.03421461908147,197.15177846810548 35.171073094941676,195.1746645567473 33.071539658121765,194.6803854093887 28.704510109033436,194.38381779240444 22.489891135599464,194.28496189881116 20.726283048745245,193.1975463598501 20.390357698313892,188.65015824319562 20.64230171078816,184.10274745471543 23.413685847539455,178.6655961004435 26.856920684222132,176.68844211735995 30.132192846387625,173.32727050967515 30.972006221301854,172.23982998443535 33.5754276830703,169.86722797498805 36.26283048233017,167.0991844960954 40.377916018944234,163.5402591082384 42.89735614322126,162.94710352655966 46.17262830492109,163.24368136556586 50.371695179026574,163.0459628169192 52.55520995333791,163.5402591082384 57.090202177874744,162.94710352655966 61.45723172649741,162.94710352655966 64.48055987618864,165.41858257132117 66.66407465049997,168.582065975992 66.49611197598279,174.61242582235718 66.4121306380257,179.0610263829003 66.58009331300855,184.79474621103145 66.49611197598279,190.42957368452335 66.32814930053428,192.70326614117948 63.80870917625725,195.37237614073092 59.52566096466035,197.44834518502466 54.7387247281149,197.54720073612407 49.86780715407804,197.54720073612407 45.58475894294679,197.74491180595942 42.05754276877269,197.54720073612407 39.874027993995696,197.54720073612407 36.26283048233017,196.36093341797823 32.65163297066465,194.6803854093887 29.628304821439087,194.28496189881116 25.93312597228214,193.98839415301336 21.81804043566808,194.28496189881116 20.810264385771006,193.3952583723585 20.138413685839623,188.94672772457125 20.726283048745245,185.98102857201593 22.06998444814235,185.4867444424308 21.062208398245275,185.4867444424308 20.64230171078816,183.21303399681346 22.825816485565156,179.15988392662257 24.16951788496226,177.57816194009501 26.43701399723068,176.19415295158979 29.628304821439087,173.52498682925943 32.73561430815607,170.95467132888734 35.423017107415944,168.0877724175807 39.45412130653858,164.23227346577914 41.04976671887562,163.34254062385298 46.592534992378205,163.14482209668495 51.295489891432226,163.5402591082384 52.55520995333791,163.73797754949192 56.502332815434784,163.34254062385298 61.289269051514566,163.14482209668495 64.90046656318009,166.1105955039966 66.74805598799139,171.15238816296915 66.83203732548282,176.98501548793865 66.66407465049997,182.71874836704228 66.58009331300855,188.3535886654863 66.24416796304286,192.30784177337773 61.96111975098029,196.65750039211707 56.250388802494854,197.05292287439806 50.79160186648369,196.95406726998044 45.24883359251544,196.8552116547362 42.22550544375554,197.15177846810548 38.362363919150084,197.44834518502466 34.58320373296738,195.0758087488357 28.87247278401628,194.58152954786783 23.413685847539455,194.48267367540393 21.48211508616805,193.98839415301336 20.726283048745245,192.80212220625253 20.558320373296738,187.26616605534218 20.474339036270976,184.10274745471543 21.146189735736698,180.7416031699977 24.001555209979415,178.07245035551023 27.024883359204978,175.0078578616376 31.223950233776122,171.54782170249382 35.84292379487306,167.69233737746254 39.70606531854719,163.93569594807923 41.13374805636704,163.0459628169192 46.76049766736105,163.24368136556586 52.63919129129499,163.63911833422026 56.75427682744339,163.34254062385298 62.04510108893737,163.44139987131348 64.98444790067151,166.40717231394956 66.24416796304286,168.0877724175807 66.66407465049997,171.6466800607741 66.91601866297424,175.79872142663226 66.66407465049997,181.63131903891917 66.66407465049997,187.06845271441853 66.32814930053428,190.7261425871984 65.57231726311147,193.29640237172134 62.80093312636018,196.4597890865989 59.3576982896775,197.2506340513355 53.646967340726405,197.44834518502466 47.180404354818165,197.3494896235643 42.22550544375554,197.15177846810548 38.27838258212432,197.44834518502466 35.758942457381636,195.37237614073092 31.72783825872466,194.48267367540393 25.34525660984218,194.18610599415842 21.986003110185266,194.38381779240444 20.726283048745245,193.49411436275113 20.64230171078816,189.93529196555028 20.64230171078816,184.39931841479847 21.566096423193812,180.44503102090675 19.71850699884817,177.57816194009501 19.80248833587393,172.93183774146019 19.886469673365355,170.75695445179008" stroke="#4dd2ff" stroke-linecap="round" stroke-linejoin="round" stroke-width="0.5"><title>2024-04-27 10.1km</title><desc>9223370322649067555</desc></polyline><polyline fill="none" points="100.0,175.4596509002149 115.42857141792774,175.4596509002149 96.1428571343422,184.5403490997851 73.0,175.4596509002149 127.0,184.5403490997851 84.5714285671711,184.5403490997851" stroke="#4dd2ff" stroke-linecap="round" stroke-linejoin="round" stroke-width="0.5"><title>2024-04-26 5.2km</title><desc>9223370322713802999</desc></polyline><polyline fill="none" points="162.57142857462168,201.18832335341722 187.0,158.81167664658278 179.28571428358555,158.81167664658278 172.85714285820723,161.8385842423886 166.4285714328289,163.3520377986133 154.85714285820723,163.3520377986133 140.71428571641445,173.9462080867961 135.5714285671711,184.54037034139037 148.42857141792774,187.56727236509323 133.0,180.00001607555896 140.71428571641445,186.05382143799216 149.71428570896387,187.56727236509323 152.28571428358555,190.59417373035103 141.99999999254942,199.6748739015311 145.85714285820723,195.13452455494553 140.71428571641445,192.10762416943908 141.99999999254942,192.10762416943908" stroke="#4dd2ff" stroke-linecap="round" stroke-linejoin="round" stroke-width="0.5"><title>2024-04-25 5.2km</title><desc>9223370322805955311</desc></polyline><polyline fill="none" points="32.826086956076324,240.92124243313447 27.608695652335882,235.0867787951138 28.65217391308397,236.62216512835585 27.869565217755735,238.15755062899552 26.826086956076324,239.38585842959583 24.217391304671764,238.15755062899552 24.739130434580147,239.69293529726565 22.913043479435146,240.30708893202245 21.869565217755735,239.38585842959583 19.521739129908383,238.46462762868032 15.869565216824412,239.07878152886406 16.130434783175588,240.0000121309422 15.347826087847352,239.69293529726565 17.173913042992353,240.6141656988766 18.739130434580147,242.14954903628677 23.173913042992353,242.14954903628677 25.260869565419853,240.92124243313447 25.521739130839705,239.38585842959583 24.478260868228972,240.92124243313447 23.69565217383206,239.69293529726565 25.000000000931323,239.07878152886406 30.739130434580147,239.07878152886406 32.826086956076324,239.69293529726565 36.47826087009162,239.38585842959583 37.0,237.85047359508462 35.69565217476338,236.3150879277382 31.782608696259558,234.47262402973138 29.69565217383206,233.24431409686804 26.826086956076324,231.7089259342756 25.260869565419853,237.23631942784414 25.260869565419853,239.07878152886406 23.95652173925191,240.30708893202245 22.391304347664118,240.0000121309422 20.30434782616794,240.30708893202245 17.95652173832059,239.69293529726565 17.434782608412206,241.84247243544087 19.782608696259558,242.76370213809423 17.95652173832059,243.9920079431031 19.782608696259558,244.2990843106527 19.26086956448853,245.83446565177292 17.95652173832059,246.7556940561626 13.0,248.29107406595722 20.04347826074809,243.0707786390558 21.869565217755735,242.14954903628677 21.34782608691603,240.30708893202245 27.086956521496177,242.14954903628677 29.43478260934353,241.84247243544087 31.26086956448853,242.76370213809423 30.217391303740442,243.9920079431031 30.739130434580147,245.22031321539544 32.30434782616794,246.44861795473844 32.30434782616794,247.67692216136493 30.217391303740442,248.29107406595722 26.043478259816766,246.44861795473844 25.782608695328236,244.606160645606 28.391304347664118,244.2990843106527 29.69565217383206,245.22031321539544 32.826086956076324,244.2990843106527 33.34782608784735,246.14154181978665 31.26086956448853,247.3698461598251 28.913043478503823,247.3698461598251 21.869565217755735,243.0707786390558 17.95652173832059,239.69293529726565 16.130434783175588,239.07878152886406 14.304347825236619,239.38585842959583 15.347826087847352,238.15755062899552 17.434782608412206,238.771704595536 19.0,238.46462762868032 17.95652173832059,239.69293529726565 15.60869565140456,239.69293529726565 13.0,240.0000121309422 18.739130434580147,240.30708893202245 20.826086957007647,239.38585842959583 22.391304347664118,239.38585842959583 23.69565217383206,240.6141656988766 26.826086956076324,239.07878152886406 28.130434781312943,239.69293529726565 29.69565217383206,239.69293529726565 30.739130434580147,240.6141656988766 32.30434782616794,241.22831913363189 33.869565217755735,240.92124243313447 35.173913043923676,241.22831913363189 36.73913043551147,243.0707786390558 39.34782608691603,244.91323694656603 41.434782608412206,244.606160645606 43.0,245.22031321539544 40.9130434775725,244.2990843106527 37.0,243.3778551069554 38.565217391587794,242.76370213809423 38.826086956076324,244.606160645606 40.65217391401529,244.2990843106527 40.9130434775725,242.76370213809423 42.21739130374044,243.9920079431031 43.78260869625956,244.2990843106527 39.34782608691603,244.2990843106527 41.434782608412206,244.606160645606 41.95652173925191,243.6849315413274 43.26086956541985,244.2990843106527 44.565217391587794,245.22031321539544 40.130434782244265,246.7556940561626 43.0,245.83446565177292 46.39130434859544,243.0707786390558 45.0869565224275,241.53539580083452 45.0869565224275,242.76370213809423 42.21739130374044,243.3778551069554 39.34782608691603,243.0707786390558 37.26086956448853,241.84247243544087 32.30434782616794,241.53539580083452 34.65217391401529,241.84247243544087 35.95652173925191,243.3778551069554 38.565217391587794,242.14954903628677 43.78260869625956,241.84247243544087 46.913043479435146,242.76370213809423 50.04347826074809,243.0707786390558 52.13043478317559,243.0707786390558 57.86956521682441,243.6849315413274 63.34782608691603,244.2990843106527 67.0,244.91323694656603 63.34782608691603,244.91323694656603 62.565217392519116,244.91323694656603 59.173913044855,244.91323694656603 56.304347827099264,244.606160645606 54.217391304671764,244.91323694656603 51.34782608691603,244.91323694656603 50.30434782616794,243.9920079431031 46.913043479435146,243.0707786390558 52.13043478317559,242.45662560430355 54.217391304671764,243.6849315413274 55.521739130839705,243.0707786390558 53.956521740183234,242.76370213809423 54.73913043551147,243.0707786390558 53.43478260934353,243.6849315413274 51.869565217755735,243.6849315413274 53.956521740183234,242.45662560430355 51.34782608691603,243.3778551069554 48.217391304671764,244.91323694656603 44.82608695700765,245.83446565177292 45.869565217755735,246.44861795473844 48.99999999906868,246.14154181978665 48.73913043551147,244.2990843106527 47.69565217383206,243.9920079431031 48.217391304671764,243.3778551069554 50.04347826074809,243.9920079431031 51.869565217755735,245.83446565177292 51.0869565224275,246.7556940561626 48.73913043551147,247.67692216136493 45.0869565224275,245.5273894497659" stroke="#4dd2ff" stroke-linecap="round" stroke-linejoin="round" stroke-width="0.5"><title>2024-04-24 3.4km</title><desc>9223370322893282018</desc></polyline><polyline fill="none" points="127.0,242.804333826527 77.7647058814764,235.3261109702289 73.0,244.67388903163373 79.3529411777854,237.19566698744893" stroke="#4dd2ff" stroke-linecap="round" stroke-linejoin="round" stroke-width="0.5"><title>2024-04-23 3.1km</title><desc>9223370322979897699</desc></polyline></svg>