<?xml version="1.0" encoding="utf-8" ?>
<svg baseProfile="full" height="300mm" version="1.1" viewBox="0,0,200,300" width="200mm" xmlns="http://www.w3.org/2000/svg" xmlns:ev="http://www.w3.org/2001/xml-events" xmlns:xlink="http://www.w3.org/1999/xlink"><defs /><rect fill="#222222" height="300" width="200" x="0" y="0" /><text fill="#FFFFFF" style="font-size:12px; font-family:Arial; font-weight:bold;" x="10" y="20">Over 3km Runs</text><text fill="#FFFFFF" style="font-size:4px; font-family:Arial" x="10" y="280">ATHLETE</text><text fill="#FFFFFF" style="font-size:9px; font-family:Arial" x="10" y="290">L</text><text fill="#FFFFFF" style="font-size:4px; font-family:Arial" x="120" y="280">STATISTICS</text><text fill="#FFFFFF" style="font-size:3px; font-family:Arial" x="120" y="285">Number: 27</text><text fill="#FFFFFF" style="font-size:3px; font-family:Arial" x="120" y="290">Weekly: 3.0</text><text fill="#FFFFFF" style="font-size:3px; font-family:Arial" x="141" y="285">Total: 133.8 km</text><text fill="#FFFFFF" style="font-size:3px; font-family:Arial" x="141" y="290">Avg: 5.0 km</text><text fill="#FFFFFF" style="font-size:3px; font-family:Arial" x="167" y="285">Min: 3.0 km</text><text fill="#FFFFFF" style="font-size:3px; font-family:Arial" x="167" y="290">Max: 10.1 km</text><polyline fill="none" points="33.8576295953244,31.975904497288866 34.27603170927614,31.975904497288866 34.57489036221523,31.870361810317263 36.78644439310301,31.94072360539576 36.9657595846802,31.94072360539576 36.9657595846802,31.835180907015456 38.071536600240506,31.800000000017462 38.430166983627714,31.870361810317263 38.90834082814399,31.835180907015456 38.99799842399079,31.90554270980647 39.11754188523628,32.04626626940444 39.1773136156844,32.43325574384653 39.11754188523628,33.383137042983435 39.1773136156844,34.01638969784835 39.326742942095734,34.86072464901372 39.23708534624893,35.4236133962695 39.2669712115312,37.147454111633124 39.326742942095734,37.921420434257016 39.29685707669705,38.44912368687801 39.416400537942536,39.39898737973999 39.356628807378,39.96186825624318 39.4462864032248,40.595108075620374 39.50605813378934,41.720864703907864 39.47617226850707,42.318921324505936 39.53594399895519,43.02251593803521 39.50605813378934,43.72610902629094 39.59571572963614,44.0427254185488 39.53594399895519,44.71113678769325 39.59571572963614,45.414726215589326 39.59571572963614,46.85707977489801 39.71525919076521,47.77173968660645 39.655487460200675,48.36978515840019 39.775030921329744,50.09355711803073 39.71525919076521,50.797134879016085 39.83480265189428,51.43035355999018 39.71525919076521,52.0635710057104 39.92446024774108,54.31500080888509 39.804916786495596,55.616601540357806 39.864688517176546,56.214632559072925 39.95434611313976,56.707127864821814 39.89457438245881,58.184609298972646 39.9842319781892,58.92334749424481 40.01411784358788,59.87315127509646 40.04400370887015,60.154574083921034 39.95434611313976,60.89330779630109 40.073889574036,61.49132909398759 40.073889574036,62.441125361365266 39.9842319781892,63.03914380769129 40.163547169882804,63.70751606178237 40.13366130483337,63.95375812423299 39.9842319781892,64.094467790419 39.655487460200675,64.1648226006655 37.83244967798237,64.20000000001164 36.99564544996247,64.0241129649512 36.48758574016392,64.05929037966416 34.27603170927614,63.63716115243733 33.55877094261814,63.601983692118665 32.63230911886785,63.42609633304528 32.213907004799694,63.46127381248516 31.88516248681117,63.35574136278592 30.898928932496347,63.25020887871506 30.002352973795496,63.179853870300576 29.613836725242436,63.21503137645777 28.806918362737633,63.03914380769129 28.17931519181002,63.03914380769129 27.73102721257601,62.863256143726176 27.073538176366128,62.75772349961335 25.489587316289544,62.722545943863224 23.815978860482574,62.441125361365266 22.710201845038682,62.476302947470685 21.57453896442894,62.26523737327079 20.4986478141509,62.19488215146703 19.42275666410569,61.9486387547513 18.04800686100498,61.702395171276294 17.06177330657374,61.702395171276294 16.135311482823454,61.59686214974499 16.0157680218108,61.52650678300415 15.926110425963998,61.38579600388766 15.836452830117196,60.99884104641387 15.985882156528533,60.71741896957974 16.045653886976652,60.40081884150277 16.045653886976652,59.83797340691672 16.25485494406894,58.46603357154527 16.105425617774017,57.37551315611927 16.105425617774017,56.77748427609913 16.135311482823454,56.49605853960384 16.314626674633473,56.03874119737884 16.374398405198008,55.75731482048286 16.434170135762542,55.05374781045248 16.58359946217388,54.70196373361978 16.703142923419364,54.279822338256054 17.002001576125622,53.3651807649876 17.36063195951283,51.64142617917969 17.719262343016453,50.72677717154147 18.197436187416315,49.28444080759073 18.526180705521256,48.61603885592194 18.58595243608579,48.193889545771526 18.85492522350978,47.173693112883484 19.123898011166602,46.75154192687478 19.42275666410569,45.696161559724715 19.900930508505553,44.746316295379074 20.37910435302183,44.00754583464004 20.767620601691306,43.51503126003081 21.06647925451398,42.98733624361921 21.18602271564305,42.635539089445956 21.903283482417464,41.5097856335633 22.08259867411107,41.333886303327745 22.261913865804672,40.87654759871657 23.666549534071237,38.58984440940549 24.682668953668326,37.04191310648457 25.42981558572501,35.56433543044841 25.788445969112217,34.72000230973936 26.05741875676904,34.22747364154202 26.26661981374491,34.051570364652434 26.5355926011689,33.5590406821284 27.402282694354653,32.43325574384653 27.85057067370508,32.04626626940444 28.059771730564535,31.975904497288866 29.046005284995772,32.08144714985974 29.524179129395634,32.04626626940444 30.211554030887783,31.870361810317263 30.779385471367277,31.94072360539576 31.377102777012624,31.870361810317263 33.02082536742091,32.011085385252954 34.66454795806203,31.90554270980647 36.338156413752586,31.94072360539576 36.93587371939793,31.870361810317263 37.98187900427729,31.870361810317263 38.54971044464037,31.800000000017462 38.84856909769587,31.870361810317263 38.96811255859211,31.975904497288866 39.087656019837596,32.50361741686356 39.087656019837596,33.17205255010049 39.207199480966665,33.98120902717346 39.207199480966665,34.50891868630424 39.2669712115312,34.93108579580439 39.326742942095734,35.071808043605415 39.23708534624893,35.4939744209405 39.207199480966665,35.81059884355636 39.29685707669705,37.182634439028334 39.2669712115312,37.63997834865586 39.29685707669705,37.99178091753856 39.416400537942536,38.378763302840525 39.416400537942536,38.80092537868768 39.47617226850707,39.3286272015539 39.38651467266027,40.17294833328924 39.4462864032248,40.66546797924093 39.47617226850707,41.65050502901431 39.56582986423746,41.96712344590924 39.50605813378934,42.494820120948134 39.62560159491841,44.14826414725394 39.655487460200675,45.274008451990085 39.59571572963614,45.907237907726085 39.62560159491841,46.3293901917059 39.59571572963614,47.419947717833566 39.655487460200675,47.77173968660645 39.71525919076521,48.54568067577202 39.68537332548294,48.79193423985271 39.775030921329744,49.56587279646192" stroke="#4dd2ff" stroke-linecap="round" stroke-linejoin="round" stroke-width="0.5"><title>2024-08-03 4.1km</title><desc>12052009014</desc></polyline><polyline fill="none" points="70.16988715040497,31.97628729531425 70.55924896069337,31.870514929585624 71.00851258821785,31.800000000017462 72.14664711104706,31.800000000017462 73.10507618298288,31.941029843932483 74.75237615022343,31.800000000017462 74.96203250985127,31.870514929585624 75.05188523523975,31.97628729531425 75.14173796086106,32.575663384690415 75.11178705224302,33.95069847512059 75.26154159475118,35.85458361922065 75.26154159475118,36.98280659414013 75.35139432025608,37.86422807039344 75.32144341163803,38.53410679491935 75.44124704576097,39.2039841398655 75.35139432025608,39.627063857536996 75.44124704576097,41.35463365999749 75.41129613725934,41.77771058038343 75.56105067953467,43.11745053122286 75.50114886276424,43.50526896084193 75.53109977126587,44.35141665692208 75.74075613066088,45.796913879254134 75.65090340515599,46.572543887246866 75.65090340515599,48.12379835473257 75.71080522215925,48.44109949361882 75.65090340515599,48.864167197287316 75.77070703916252,49.886578543053474 75.71080522215925,50.803220465924824 75.80065794766415,51.12051899122889 75.71080522215925,51.5788385370397 75.68085431377403,52.07241271037492 75.74075613066088,52.31919951620512 75.77070703916252,52.84802775559365 75.83060885604937,53.4121102631907 75.92046158167068,53.62364095138037 75.95041249017231,54.505017338407924 76.04026521567721,55.033842024364276 76.07021612406243,55.597920741915004 76.04026521567721,56.33827257438679 76.19001975806896,56.97285851844936 76.10016703256406,57.431169819203205 76.10016703256406,58.17151747972821 76.01031430705916,58.77084530421416 76.07021612406243,59.29966305589187 75.98036339867394,60.004752054432174 76.10016703256406,60.95661977844429 76.04026521567721,61.62645095185144 76.1301179411821,62.19051823866903 76.1301179411821,63.03661733510671 76.24992157507222,63.74169823466218 76.219970666687,63.91796822086326 76.07021612406243,64.09423811145825 75.38134522875771,64.20000000001164 74.72242524183821,64.20000000001164 72.89541982358787,63.98847618850414 72.6558125554584,63.882714231236605 72.35630347055849,63.953222206560895 72.02684347704053,63.91796822086326 71.2481198561145,63.776952239481034 68.25302900641691,63.459666058275616 67.17479630070738,63.24814176547807 66.30621995427646,63.14237956752186 65.1381345228292,63.14237956752186 64.32945999340154,63.001363250165014 63.31112910457887,63.001363250165014 63.13142365356907,63.10712549384334 62.62225820904132,63.17763363732956 61.90343640523497,63.10712549384334 61.03486005880404,62.82509276721976 59.92667644447647,62.648822189017665 58.87839464703575,62.366789065185 57.65040739858523,62.26102658067248 56.033058339962736,61.97899312066147 54.02634747058619,61.767467865225626 53.60703475167975,61.767467865225626 52.558752954239026,61.52068822662113 52.10948932671454,61.4854339773301 51.86988205881789,61.34441694163252 51.75007842481136,61.02712838794105 51.86988205881789,60.85085683554644 51.89983296743594,60.56882215299993 52.10948932671454,60.18102406535763 52.139440235332586,60.004752054432174 52.10948932671454,59.93424322336796 52.199342052219436,58.59457252922584 52.139440235332586,58.101008251309395 52.1693911437178,57.14913217202411 52.49885113723576,55.38639133743709 52.82831113075372,54.29348722330178 53.09786930726841,52.8127725663071 53.60703475167975,51.15577436386957 53.6669365685666,50.83847587290802 54.86497290851548,47.348172045632964 55.16448199341539,46.60779975273181 55.34418744430877,46.29049682550249 55.58379471243825,45.691146007651696 55.82340198045131,45.23281816649251 56.332567424862646,44.104623806255404 57.05138922878541,43.08219428744633 57.91996557509992,41.63668500143103 58.51898374501616,40.720017247716896 59.41751100006513,38.88667399060796 60.07643098686822,38.0757688692247 60.525694614392705,37.22960484822397 61.21456550993025,36.24241070818971" stroke="#4dd2ff" stroke-linecap="round" stroke-linejoin="round" stroke-width="0.5"><title>2024-08-02 3.0km</title><desc>12043451201</desc></polyline><polyline fill="none" points="105.5793673528824,31.975143867108272 107.4837914094096,31.800000000017462 108.40624681173358,32.01017262917594 108.79308294830844,31.940115101228002 109.35845884005539,31.940115101228002 109.86432148003951,31.870057558262488 110.72726363071706,31.940115101228002 110.84629013435915,32.01017262917594 110.93556001188699,32.22034512157552 110.93556001188699,33.20114827892394 111.1140997671755,34.00680578837637 111.14385639305692,34.56726200165576 111.20336964470334,34.987603523535654 111.17361301893834,35.54805803581257 111.23312627070118,36.038454936555354 111.17361301893834,36.66896414407529 111.23312627070118,37.0893029323197 111.17361301893834,37.29947212146362 111.14385639305692,37.92997886863304 111.20336964470334,39.8214917294099 111.29263952246401,40.62713273416739 111.29263952246401,41.15254969854141 111.41166602598969,41.95818738502567 111.47117927775253,43.04404369764961 111.44142265175469,43.814649190055206 111.38190940010827,44.09486891358392 111.35215277422685,44.690335019200575 111.53069252951536,47.8427843581012 111.64971903304104,48.29813560983166 111.67947565903887,48.683432321762666 111.5902057812782,49.62915866723051 111.61996240715962,50.01445379239158 111.53069252951536,50.64493573366781 111.5902057812782,51.45054975763196 111.5604491555132,52.186108634545235 111.64971903304104,52.956692329084035 111.64971903304104,53.44706281443359 111.79850216244813,54.70801207475597 111.79850216244813,56.31921785962186 111.97704191773664,56.70450500948937 112.09606842137873,57.19486980870715 112.00679854361806,57.26492186210817 111.88777204009239,57.6151819016668 111.82825878832955,58.42077855192474 111.94728529185522,59.29642480745679 111.85801541432738,60.38222286981181 111.88777204009239,60.97765896821511 112.09606842137873,62.448731685377425 112.09606842137873,63.604569837712916 112.00679854361806,63.884772403747775 111.88777204009239,64.02487359565566 111.70923228468746,64.12994944973616 110.25115761661436,64.09492416877765 109.59651184722316,64.02487359565566 109.26918896241114,63.884772403747775 108.8823528259527,63.81472178502008 100.40171444939915,62.93908776997705 99.71731205412652,62.72893525342806 99.44950242107734,62.763960682292236 98.67583014816046,63.00913857843261 98.14021088217851,63.07918937175418 96.94994584692176,62.62385894381441 95.0752784163924,62.37868075541337 94.30160614347551,62.2035533641465 93.4981772445608,62.133502381067956 92.39718208683189,62.098476883838885 91.98058932449203,61.958374856913 90.70105441159103,61.74822170275729 89.86786888691131,61.60811952405493 89.06443998788018,61.57309396981145 88.64784722565673,61.432991715177195 88.1419845855562,61.39796614207444 87.90393157862127,61.187812623451464 87.90393157862127,60.83755645554629 88.11222795990761,60.34719718270935 88.2907677149633,59.716734167566756 88.23125446320046,57.86036370342481 88.2907677149633,57.08979170009843 88.40979421860538,56.10906103879097 88.40979421860538,55.793825551489135 88.46930747036822,55.23340614812332 88.64784722565673,54.91816980656586 88.76687372918241,54.60293315767194 89.2429797432851,52.01097572038998 89.45127612457145,51.34546978145954 89.68932913150638,50.96017624309752 89.83811226091348,50.294668140326394 89.86786888691131,50.08450740217813 90.01665201620199,49.594131814839784 90.40348815277684,48.75348622005549 90.58202790806536,48.4732705357892 90.93910741852596,47.42245955619728 91.2961869292194,46.72191700496478 91.59375318803359,45.91629119386198 91.7722929433221,45.04060868654051 91.95083269872703,44.72536240296904 92.36742546106689,44.12989636187558 92.60547846800182,43.88470414371113 93.11134110810235,42.83387824438978 93.61720374820288,42.13332574663218 95.67041093402077,38.66556851891801 96.44408320693765,37.57969749427866 96.71189283987042,36.9491900637222 97.57483499043155,35.583086410479154 97.87240124936216,35.16274566305219 98.19972413405776,34.357091035548365 98.34850726346485,34.11189140242641 98.49729039287195,33.761605889420025 99.24120603990741,32.7808044331905 99.44950242107734,32.430517477332614 99.53877229883801,32.32543131659622 100.04463493882213,32.15028763926239 100.87782046350185,32.08023014187347 101.32416985172313,32.15028763926239 102.72273126826622,32.18531638238346 103.64518667070661,31.940115101228002 104.03202280704863,31.940115101228002 104.80569508008193,32.11525889247423 105.19253121642396,32.01017262917594 105.93644686357584,31.90508633168065 107.39452153176535,31.90508633168065 107.7813576683402,31.940115101228002 108.2574636824429,31.90508633168065 109.09064920712262,31.940115101228002 109.71553835074883,31.870057558262488 110.69750700471923,31.90508633168065 110.84629013435915,31.975143867108272 111.02482988964766,32.22034512157552 110.99507326364983,33.20114827892394 111.1140997671755,33.48137720575323 111.08434314129408,33.58646299058455 111.1140997671755,33.901720140187535 111.08434314129408,34.14691993279848 111.23312627070118,34.95257508428767 111.14385639305692,35.47800127492519 111.17361301893834,37.124331140046706 111.20336964470334,37.194387544033816 111.20336964470334,37.47461300791474 111.26288289669901,37.54466933599906 111.26288289669901,37.85992262428044 111.20336964470334,38.455400218314026 111.32239614834543,39.3661285340786 111.23312627070118,40.03165914161946 111.29263952246401,41.36271624514484 111.41166602598969,42.76382306305459 111.38190940010827,43.149126373027684 111.47117927775253,43.56945673271548 111.44142265175469,44.16492380652926 111.53069252951536,44.620280240284046 111.50093590363394,46.44169955936377 111.5604491555132,46.86202563671395 111.53069252951536,48.052946553973015 111.5902057812782,48.508297509659315 111.53069252951536,48.99867474439088 111.61996240715962,49.55910495878197 111.5902057812782,50.64493573366781 111.64971903304104,51.3104431151005 111.5902057812782,52.08102889743168 111.67947565903887,52.5714007113711 111.67947565903887,53.23690412603901 111.79850216244813,55.65372079165536 111.76874553668313,55.898904081317596 111.88777204009239,56.10906103879097 111.79850216244813,57.124817740143044 111.85801541432738,58.140571249095956 111.9175286659738,58.59590799282887 111.85801541432738,59.051244095055154 111.9175286659738,59.576631108269794 111.88777204009239,60.52232557989191 111.94728529185522,60.83755645554629 111.88777204009239,61.25786381150829 111.97704191773664,61.71319616376422 112.0663117953809,62.658884384145495 112.00679854361806,63.884772403747775 111.82825878832955,64.09492416877765 110.37018412002362,64.20000000001164 109.62626847298816,64.09492416877765 109.23943233664613,63.91979770734906 108.94186607771553,63.84974709621747 107.9301407977473,63.77969646989368 103.97250955540221,63.289341660623904 103.25835053413175,63.3243670288648 101.38368310348596,63.07918937175418 100.0148783128243,63.044163977057906 99.56852892460302,62.90406236000126 98.61631689639762,62.86903694621287 98.31875063746702,62.79898610734381 96.14651694812346,62.79898610734381 95.64065430813935,62.72893525342806" stroke="#4dd2ff" stroke-linecap="round" stroke-linejoin="round" stroke-width="0.5"><title>2024-08-01 5.0km</title><desc>12035805770</desc></polyline><polyline fill="none" points="142.2272819391219,32.00994567212183 142.88122085412033,31.939963796554366 144.09992519533262,32.0799275325553 145.31862953677773,31.939963796554366 146.1806399244815,31.939963796554366 146.4184358936036,31.869981905823806 146.86430333554745,31.974954736273503 147.0129258161178,32.184900294669205 147.0723748083692,32.70976359341876 146.98320131993387,33.12965361797251 146.98320131993387,33.479561554355314 147.22099728893954,34.984161359549034 147.16154829680454,35.61399175380939 147.19127279298846,36.243820919218706 147.19127279298846,37.85337875914411 147.3101707774913,39.183007443265524 147.3398952735588,41.38737977447454 147.45879325794522,42.4020857885771 147.48851775412913,43.13687091105385 147.45879325794522,43.97662328882143 147.57769124268088,45.20125825770083 147.48851775412913,46.810771437420044 147.54796674649697,47.12567525138729 147.6074157387484,48.52524404175347 147.57769124268088,49.22502616161364 147.6371402348159,49.95979575495585 147.57769124268088,50.44964122152305 147.69658922718372,51.35935225896537 147.6668647309998,52.09411699490738 147.75603821931873,52.72391400896595 147.75603821931873,53.42368702814565 147.90466070000548,54.68327464052709 147.81548721168656,55.52299698541174 147.90466070000548,56.01283401128603 147.9938341883244,56.957517605420435 147.87493620393798,57.867210305819754 147.9641096922569,58.28706761074136 147.9343851961894,58.56697217733017 147.9938341883244,60.1064429563703 147.90466070000548,60.80619997481699 148.02355868462473,61.470967737579485 148.02355868462473,62.13573413161794 148.14245666901115,62.7305239556008 148.11273217294365,63.5702253713971 148.02355868462473,63.92010031663813 147.9343851961894,64.02506272634491 147.75603821931873,64.09503764717374 146.4778848857386,64.20000000001164 145.64559899421874,64.06005018868018 144.9322110869689,63.85012535791611 143.83240473014303,63.74516289142775 143.20819031156134,63.5702253713971 142.34617992374115,63.535237855947344 139.7601487605134,63.2553375964344 137.53081155079417,63.11538737564115 136.66880116297398,63.15037493646378 135.98513775202446,63.29032514212304 135.4798213178292,63.29032514212304 134.70698441844434,63.01042467018124 134.0233210073784,63.08039981091861 132.95323914685287,62.94044951428077 131.97233077452984,62.94044951428077 131.73453480540775,62.83548675203929 131.34811635583173,62.83548675203929 130.6941774408333,62.695536349288886 130.01051402988378,62.52059826054028 129.26740162668284,62.45062299858546 127.90007480466738,61.99578342560562 127.66227883566171,61.89082035617321 127.3353093782207,61.8208449575759 127.0380644169636,61.78585725274752 126.35440100601409,61.855832658853615 125.99770705238916,61.78585725274752 125.52211511437781,61.57593094339245 124.3331352690002,61.435979994625086 124.00616581179202,61.33101674335194 123.88726782728918,61.15607791530783 123.85754333098885,60.981138992356136 124.09533929999452,60.491309504111996 124.18451278842986,60.14143084330135 124.24396178068127,58.21709143125918 124.15478829247877,57.37737609326723 124.39258426148444,56.2577522455249 124.51148224598728,55.27807819377631 125.28431914525572,51.95416193600977 125.70046209113207,50.86950817279285 125.78963557945099,50.344674398424104 126.26522751769517,49.085069858963834 126.7110949595226,48.17535241288715 126.94889092864469,47.47556801774772 127.21641139371786,46.77578210577485 127.48393185890745,46.32092044950696 127.9297993008513,45.02631068942719 128.04869728535414,44.74639438308077 129.14850364218,42.8569529663655 129.53492209187243,42.4020857885771 130.24830999888945,41.0024904521415 130.6644529448822,40.51263065089006 131.46701434033457,39.21799759782152 131.67508581327274,38.79811549265287 132.180402247468,38.06332049440243 133.1613106195582,36.17383996161516 133.60717806161847,35.648982295242604 133.9935965114273,35.05414257515804 134.17194348794874,34.4942924255447 134.70698441844434,33.51455232719309 134.8853313951986,33.059671985014575 135.5095458138967,32.4298366070434 135.77706627908628,32.28987302276073 136.1634847287787,32.184900294669205 136.84714813984465,32.149909377796575 137.20384209312033,32.0799275325553 139.10620984563138,32.184900294669205 139.96822023333516,32.00994567212183 141.3058225591667,32.00994567212183 141.6030675204238,31.939963796554366 142.94066984637175,31.869981905823806 143.86212922632694,31.904972853022628 144.6646906217793,31.83499095478328 146.03201744391117,31.869981905823806 146.59678287035786,31.79999999998836 146.86430333554745,31.939963796554366 147.0129258161178,32.35985482245451" stroke="#4dd2ff" stroke-linecap="round" stroke-linejoin="round" stroke-width="0.5"><title>2024-07-31 3.5km</title><desc>12027390271</desc></polyline><polyline fill="none" points="178.35991693334654,31.835066689003725 179.10463788558263,31.94026673337794 179.7599923236994,31.905200055771274 180.74302398087457,32.045466743496945 182.530354266637,31.8701333742938 182.85803148557898,31.94026673337794 182.94739799993113,32.08053340599872 183.06655335240066,32.851999018050265 183.03676451416686,33.79879520920804 183.18570870463736,34.885854085558094 183.126131028519,35.86771057621809 183.24528638075572,37.37555581322522 183.2750752188731,39.0937894929084 183.33465289510787,39.58471172527061 183.33465289510787,40.7068168874539 183.42401940946002,41.65359009074746 183.48359708546195,43.79258601577021 183.5729635998141,44.45882775980863 183.54317476181313,46.77313052574755 183.6027524380479,47.26404110545991 183.63254127604887,48.21079511998687 183.63254127604887,49.893906527460786 183.5729635998141,50.59520036311005 183.66233011416625,51.15623433701694 183.5729635998141,52.34842830177513 183.75169662828557,53.154909963399405 183.84106314275414,54.13671101213549 183.96021849510726,54.80293145569158 183.93042965687346,55.50421465112595 184.049585009343,56.06524011306465 184.049585009343,56.52107258461183 183.93042965687346,57.60805511751096 184.0197961712256,59.67681823705789 183.96021849510726,60.16770923900185 183.99000733310822,60.448218048608396 183.96021849510726,60.69366305752192 184.049585009343,61.675441231403966 184.0197961712256,62.131265799485845 184.10916268546134,62.97278639214346 184.10916268546134,63.84936801547883 183.99000733310822,64.02468405524269 183.78148546651937,64.12987363341381 182.828242647578,64.20000000001164 181.84521099040285,64.09481044454151 181.18985655228607,63.919494442787254 178.35991693334654,63.60392540032626 177.644984818995,63.46367239372921 176.15554291428998,63.39354586767149 173.32560329535045,63.07797631228459 172.3425716381753,63.18316619822872 171.6872172000585,63.148102906765416 170.4956636762945,63.25329277000856 169.84030923817772,63.148102906765416 169.15516596194357,63.148102906765416 168.35086733358912,62.97278639214346 167.39762451441493,62.867596437747125 166.8614254287677,62.58708972547902 166.32522634312045,62.48189964564517 165.25282817170955,62.48189964564517 164.24000767653342,62.096202393993735 162.8995099621825,61.92088530943147 161.32070154324174,61.64037777646445 161.08239083830267,61.64037777646445 160.75471361924428,61.53518738897401 160.12914801947773,61.465060444927076 159.95041499088984,61.35987000033492 159.89083731453866,61.254679521603975 159.92062615265604,60.90404434548691 160.03978150500916,60.69366305752192 160.09935918124393,60.30796367421863 160.15893685736228,59.01060782888089 160.24830337171443,58.58984265386243 160.24830337171443,56.661328600515844 160.39724756218493,56.275624410423916 160.48661407653708,55.46915052749682 160.66534710512497,54.90812403190648 160.78450245747808,54.312032314541284 160.69513594312593,53.82113242856576 160.72492478135973,53.505553537164815 160.84408013359644,53.084781203069724 161.14196851465385,52.628943890333176 161.7973229526542,50.45494171752944 161.9760559812421,50.17442424406181 162.0952113334788,49.6484533259063 162.33352203841787,49.12248155256384 162.4228885526536,48.80689807818271 163.70380859088618,45.93156779897981 164.15064116206486,44.56402369917487 164.50810721924063,44.03804365999531 164.6868402478285,43.65232442118577 165.22303933347575,42.91595005185809 165.6102942287689,42.46009841185878 166.14649331453256,41.37306498596445 166.47417053359095,40.91721117196721 166.44438169535715,40.91721117196721 167.42741335264873,39.19898717687465 167.99340127641335,38.357404747686815 168.47002268594224,37.44568797884858 169.5722096952377,35.65731300774496 170.46587483829353,33.974127533088904 171.21059579052962,32.851999018050265 171.5680618477054,32.431199821294285 172.01489441923331,32.220800017763395 172.3127828000579,32.150666719448054 174.78525636193808,32.045466743496945 175.32145544770174,32.08053340599872 176.125754076289,32.01040007729898 176.9002638666425,32.045466743496945 177.67477365711238,31.94026673337794 178.62801647617016,31.94026673337794 179.4621039427584,31.800000000017462 180.2068248951109,31.8701333742938 180.56429095228668,31.835066689003725 182.0537328569917,31.8701333742938 182.6792984569911,31.835066689003725 182.88782032381278,31.94026673337794 183.03676451416686,32.220800017763395 183.03676451416686,33.728662253008224 183.18570870463736,34.885854085558094 183.15591986651998,35.376782703446224 183.24528638075572,36.81449794143555 183.24528638075572,37.4807540558686 183.21549754275475,37.656084384332644 183.2750752188731,38.1820747993188 183.2750752188731,39.05872359071509 183.33465289510787,39.58471172527061 183.3048640571069,40.110699004580965 183.33465289510787,40.63668542873347 183.3048640571069,40.88214546744712 183.45380824746098,41.828918157640146 183.39423057122622,42.81075357660302 183.45380824746098,43.301670168642886 183.51338592357934,43.47699734242633 183.48359708546195,43.93284754952765 183.54317476181313,44.24843577831052 183.51338592357934,44.45882775980863 183.6027524380479,44.77441547534545 183.5729635998141,46.071828405489214 183.48359708546195,46.56274004938314 183.54317476181313,47.299106118414784 183.51338592357934,47.6848210094613 183.63254127604887,48.31598983940785 183.6027524380479,48.80689807818271 183.63254127604887,49.99910069970065 183.6027524380479,50.7705235844478 183.66233011416625,51.366621826484334 183.63254127604887,51.647138266358525 183.69211895216722,52.243234893336194 183.69211895216722,52.94452363674645 183.81127430463675,53.64581086018006 183.81127430463675,54.347096563578816 183.75169662828557,54.97825239703525 183.8708519807551,56.34575247930479 183.78148546651937,57.117160232272 183.9006408189889,57.92363000762998 183.8708519807551,58.51971507151029 183.99000733310822,59.7118819047173 183.9006408189889,60.448218048608396 183.99000733310822,61.92088530943147 183.93042965687346,62.51696300943149 184.10916268546134,63.67405188072007 184.0197961712256,63.954557650809875 183.93042965687346,64.0597472518275 183.42401940946002,64.20000000001164 181.93457750452217,64.16493681861903 180.59407979040407,63.919494442787254 179.52168161887676,63.77924157300731 179.13442672370002,63.81430479622213 178.38970577146392,63.60392540032626 178.18118390475865,63.60392540032626 176.69174200005364,63.39354586767149 175.9768098857021,63.39354586767149 174.0107465714682,63.07797631228459 173.62349167629145,63.07797631228459 173.2362367809983,63.11303961146041 172.22341628570575,63.07797631228459 171.74679487629328,63.007849702611566 171.35953998100013,63.007849702611566 170.85312973335385,62.832533111970406 170.52545251441188,62.797469782381086 169.15516596194357,62.93772307771724 168.4998115239432,62.902659759740345 167.54656870488543,62.692279771057656 166.77205891453195,62.72734311191016 166.32522634312045,62.48189964564517" stroke="#4dd2ff" stroke-linecap="round" stroke-linejoin="round" stroke-width="0.5"><title>2024-07-29 5.1km</title><desc>12014148662</desc></polyline><polyline fill="none" points="34.621411725180224,72.80971920498996 35.21526031033136,72.9145787563175 37.174960641539656,72.87962557637366 38.540812387596816,72.73981281841407 38.80804425093811,72.8446723925299 38.98619882646017,73.12429775673081 39.04558368504513,73.50878223651671 39.01589125569444,74.34765587374568 39.10496854339726,74.80204484943533 39.10496854339726,75.39624485146487 39.283123119035736,76.02539660132607 39.1940458312165,76.82931093976367 39.283123119035736,77.38855451488052 39.25343068968505,79.4507568157569 39.37220040685497,80.2546626147232 39.3425079776207,81.40808917357936 39.46127769455779,82.70132010610541 39.46127769455779,84.44892123484169 39.49097012367565,85.3576700789854 39.46127769455779,85.63728459269623 39.580047411611304,86.65088517271215 39.63943227019627,88.08390124645666 39.580047411611304,88.81788262308692 39.66912469943054,89.48195957194548 39.60973984096199,90.91496306564659 39.580047411611304,91.19457276104367 39.63943227019627,91.99844928469975 39.60973984096199,92.45281339006033 39.75820198713336,93.50134349774453 39.698817128664814,94.51491936124512 39.87697170418687,95.1440338123648 39.93635656265542,95.56344276460004 39.90666413353756,97.17117202887312 39.99574142124038,97.9051327240013 39.87697170418687,98.56919096136698 39.93635656265542,98.95364510532818 39.90666413353756,99.16334717257996 39.96604899200611,99.79245255619753 39.96604899200611,100.98075937709655 40.084818709176034,101.43511082805344 39.96604899200611,102.37876179639716 39.99574142124038,102.97291098959977 40.084818709176034,103.21756033936981 40.055126279825345,103.84665781498188 40.14420356764458,104.5107038191054 40.11451113829389,104.72040227320394 39.99574142124038,104.82525144916144 39.401892836089246,105.0 38.00634866079781,104.96505029738182 37.62034708051942,104.82525144916144 37.3828076464124,104.86020116694272 34.44325714954175,104.37090477402671 31.741246086894535,104.19615588229499 30.969242926104926,104.09130650188308 29.573698750929907,104.02140689597582 28.50477129756473,103.81170798736275 27.851537853712216,103.74180832086131 27.40615141473245,103.74180832086131 27.079534692922607,103.84665781498188 26.455993678653613,103.77675815607654 26.15906938596163,103.81170798736275 25.357373795937747,103.84665781498188 23.961829620646313,103.53210923043662 23.66490532818716,103.56705908838194 22.981979455216788,103.3923097611987 21.883359572384506,103.357359884365 21.28951098723337,103.14766054411302 20.725354831200093,103.07776073366404 20.369045680155978,102.90301114140311 20.042428958346136,102.83311127795605 18.023343768552877,102.58846163668204 17.577957329689525,102.48361173359444 16.330875300685875,102.37876179639716 16.18241315439809,102.34381180984201 15.944873720407486,102.16906181978993 15.855796432471834,101.85451159934746 15.944873720407486,101.36521064650151 16.21210558374878,100.80600864862208 16.330875300685875,100.35165631139535 16.360567730036564,99.72255201861844 16.3011828714516,99.2332478313765 16.330875300685875,98.81384365152917 16.21210558374878,98.0099841154879 16.390260159154423,96.82166634878376 17.251340607879683,93.74600003231899 17.459187612636015,92.66251968435245 17.845189192914404,91.6489379988925 18.08272862713784,90.74020688296878 18.349960490479134,90.32079165807227 19.003193934215233,88.60817382886307 19.270425797556527,87.48972462283564 19.53765766089782,87.07030517049134 19.983044099761173,86.05670590882073 20.369045680155978,84.90329597698292 20.57689268491231,84.55377700133249 20.992586694541387,84.06444979907246 21.58643527980894,83.08579316703253 22.26936115277931,82.1071335648594 22.714747591759078,81.26828011329053 23.189826459856704,80.56923390348675 23.66490532818716,79.55561420758022 24.199369054636918,78.92646934546065 24.615063064265996,78.12256023526425 25.268296508234926,77.21379100185004 25.713682947098278,76.44483041923377 26.18876181531232,75.36129194055684 26.455993678653613,75.08166851624264 26.63414825394284,74.767091873975 26.960764976101927,73.96317239431664 27.109227122273296,73.68354775747866 27.435843844083138,73.2990634861344 27.67338327819016,73.08934459942975 28.178154575638473,72.9145787563175 29.45492903375998,72.94953193247784 30.88016563828569,72.80971920498996 31.711553657776676,72.87962557637366 33.43371455464512,72.77476601360831 34.76987387146801,72.60000000000582 35.720031607779674,72.70485961952363 36.75926663191058,72.70485961952363 36.96711363666691,72.6699064168206 38.45173509977758,72.73981281841407 38.62988967541605,72.70485961952363 38.926813967875205,72.87962557637366 38.98619882646017,73.08934459942975 39.01589125569444,73.33401662067627 38.956506397225894,74.03307851561112 39.164353401982225,75.01176262224908 39.164353401982225,75.46615066198865 39.283123119035736,75.88558520746301 39.1940458312165,76.3749248208187 39.1940458312165,77.24874371205806 39.25343068968505,78.0876076198474 39.22373826056719,78.68180156763992 39.25343068968505,79.52066174740321 39.3425079776207,80.00999584462261 39.312815548386425,80.70904326668824 39.401892836089246,81.37313691413146 39.3425079776207,82.66636798690888 39.401892836089246,82.77122433314798 39.37220040685497,83.57512185431551 39.431585265439935,83.88968990408466 39.401892836089246,84.27416154817911 39.431585265439935,85.11300718056737 39.49097012367565,85.56738098707865 39.55035498237703,86.65088517271215 39.63943227019627,87.2450633419794 39.55035498237703,87.87419197493 39.580047411611304,88.71302824301529 39.698817128664814,89.44700818770798 39.66912469943054,90.565450605558 39.580047411611304,91.15962156234309 39.60973984096199,91.54408453928772 39.60973984096199,92.03340039250907 39.66912469943054,92.38291126166587 39.78789441648405,94.16541080261231 39.75820198713336,94.61977185501019 39.81758684583474,94.86442754114978 39.75820198713336,95.45859057758935 39.81758684583474,95.80809773481451 39.87697170418687,97.06632036456722 40.025433850474656,97.80028129840503 39.84727927506901,99.58275089797098 40.025433850474656,101.15551001095446 40.025433850474656,102.90301114140311 40.11451113829389,103.53210923043662 40.055126279825345,103.95150727490545 40.084818709176034,104.47575406343094 40.055126279825345,104.68545254028868 39.90666413353756,104.82525144916144 39.25343068968505,104.96505029738182 38.332965382607654,104.93010059092194 38.12511837796774,104.86020116694272 37.82819408539217,104.89515088085318 37.5015773633495,104.86020116694272 37.20465307077393,104.79030172762577 36.165418046643026,104.65050280364812 35.423107315204106,104.47575406343094 34.26510257390328,104.40585454093525 33.40402212552726,104.40585454093525 32.89925082807895,104.30100522868452 30.583241345826536,103.98645708727418 29.78154575568624,103.98645708727418 27.703075707540847,103.70685848206631 27.198304410092533,103.81170798736275 26.48568610777147,103.81170798736275 25.8027602348011,103.8816076387302 24.82291006925516,103.84665781498188 23.991522049997002,103.60200894239824 23.605520469485782,103.4272596341907" stroke="#4dd2ff" stroke-linecap="round" stroke-linejoin="round" stroke-width="0.5"><title>2024-07-27 5.1km</title><desc>11997575827</desc></polyline><polyline fill="none" points="69.98561662354041,72.81085645378334 70.46327181532979,72.70542824399308 72.46345293160994,72.74057098440244 74.40392714866903,72.60000000000582 74.8218754415866,72.67028549974202 74.94128923944663,72.77571372094098 75.00099613855127,72.95142734667752 75.03084958810359,73.97056449798401 75.0905564869754,74.88427094428334 75.06070303742308,75.02484093824751 75.2995306334924,75.9736868031905 75.20997028483544,76.39539518512902 75.23982373438776,77.30909479770344 75.20997028483544,78.53907097890624 75.3293840829283,80.50702316331444 75.23982373438776,81.06929302195203 75.38909098191652,82.68581343413098 75.3592375323642,83.31836270578788 75.3592375323642,84.61859899989213 75.47865133034065,85.14572033638251 75.56821167899761,86.72707920393441 75.68762547685765,90.34660491574323 75.62791857786942,91.68195371318143 75.68762547685765,93.54440469411202 75.62791857786942,94.24721360488911 75.68762547685765,95.02030164730968 75.68762547685765,95.58254633875913 75.74733237584587,95.68796710981405 75.92645307281055,96.95301368963555 75.89659962325823,97.48011497466359 75.95630652224645,98.60459485222236 75.89659962325823,98.99113390952698 75.86674617393874,99.69393101509195 75.92645307281055,100.67784440383548 75.89659962325823,101.55633597818087 75.92645307281055,101.8725923623715 75.95630652224645,103.24303312969278 76.13542721921112,104.29721439417335 76.0757203202229,104.7891644781048 75.83689272427,104.9297215079423 74.67260819417424,105.0 74.19495300203562,105.0 73.32920296688098,104.8243037413049 72.911254673847,104.8945822562091 72.64257362834178,104.85944300072151 70.37371146690566,104.40263233217411 68.79147864377592,104.33235371060437 66.25393543671817,103.94582102014101 65.02994400751777,103.91068166174227 64.01492672471795,103.80526356396149 63.29844393674284,103.66470604669303 62.49240080057643,103.66470604669303 60.85046107834205,103.38359082955867 59.41749550262466,103.41873024508823 58.044236825895496,103.17275425684056 57.656141982530244,103.06733591901138 56.76053849759046,103.03219646553043 54.163288391777314,102.54024371612468 52.25266762403771,102.36454612473608 51.95413312909659,102.22398798310314 51.864572780788876,102.0482902203803 51.864572780788876,101.8023131925147 52.01384002820123,101.31035857726238 52.163107275613584,100.29130735716899 52.10340037662536,99.6236513730546 52.192960725165904,99.16683332872344 52.22281417448539,97.44497491556103 52.40193487156648,96.98815380199812 52.55120211909525,95.93394877572428 52.79002971504815,95.23114352085395 53.08856420998927,93.57954517577309 53.20797800796572,93.15785914374283 53.23783145751804,92.87673481780803 53.4169521543663,92.56046965971473 53.65577975043561,91.82251642458141 53.71548664930742,91.36568738974165 53.894607346272096,90.87371694014291 54.25284874031786,90.06547815239173 54.491676336037926,89.18695544576622 54.909624629071914,88.06244290800532 55.14845222502481,87.7110319401545 55.68581431591883,86.3756667887792 55.984348810859956,85.35656863093027 56.19332295737695,84.93487190461019 56.76053849759046,84.1969013135822 57.14863334107213,83.56435375593719 58.25321097241249,81.91269598170766 59.566762750037014,79.55819056576001 60.49221968429629,78.22279183505452 61.686357664177194,76.1142563247704 62.07445250765886,75.30598074334557 62.37298700248357,74.84912843629718 62.73122839641292,74.0759922961297 63.26859048742335,73.37313965984504 63.537271532812156,73.12714087724453 63.92536637617741,72.95142734667752 65.92554749222472,72.91628462920198 66.55246993165929,72.84599918269669 67.2689527196344,72.88114190779743 67.806314810412,72.81085645378334 70.13488387095276,72.70542824399308 72.1350649871165,72.81085645378334 74.40392714866903,72.63514275182388 74.79202199203428,72.70542824399308 74.88158234045841,72.81085645378334 74.97114268899895,73.02171277033631 75.00099613855127,74.42741804293473 75.23982373438776,75.86825962198782 75.15026338596363,76.14939869570662 75.12040993652772,76.43053752553533 75.20997028483544,77.02795672958018 75.15026338596363,77.66051703985431 75.20997028483544,79.41762253720663" stroke="#4dd2ff" stroke-linecap="round" stroke-linejoin="round" stroke-width="0.5"><title>2024-07-26 3.8km</title><desc>11987014491</desc></polyline><polyline fill="none" points="108.5174716055626,72.8462662693928 109.20484650705475,72.81108538524131 109.35427583346609,72.70554270979483 109.50370515987743,72.67036181030562 109.9818790043937,72.67036181030562 110.5198245793581,72.60000000000582 110.84856909757946,72.67036181030562 110.93822669330984,72.70554270979483 111.02788428915665,72.8814471498481 111.08765601995401,73.23325574383489 110.9979984239908,73.83132947853301 111.20719948096666,75.59036348693189 111.14742775040213,76.22361339625786 111.29685707681347,78.33443750362494 111.20719948096666,78.96768205895205 111.26697121141478,80.30452761842753 111.23708534624893,80.79704827864771 111.32674294209573,81.25438822252909 111.32674294209573,83.15410109146615 111.38651467266027,84.45574978619698 111.50605813367292,85.229700589407 111.47617226850707,86.03882900162716 111.59571572963614,88.64209803458652 111.56582986435387,89.13460604351712 111.68537332548294,89.80300857473048 111.71525919076521,90.43623075555661 111.71525919076521,90.78802032233216 111.56582986435387,91.45641944889212 111.74514505604748,92.15999598975759 111.68537332548294,93.14500058503472 111.74514505604748,94.48178775506676 111.95434611290693,95.32607155232108 111.9244602478575,96.09999643734773 111.98423197830562,97.92926610365976 111.89457438245881,98.45693813011167 111.95434611290693,99.2308555508207 111.89457438245881,99.58263558673207 111.95434611290693,100.25101660448126 111.9244602478575,101.02492974803317 112.01411784358788,102.46721750125289 112.01411784358788,103.62807859940222 112.07388957415242,104.26127381247352 112.16354716999922,104.54269351065159 112.13366130460054,104.75375812422135 111.9244602478575,104.92964519740781 111.71525919076521,104.96482260065386 111.29685707681347,105.0 110.63936804060359,104.96482260065386 109.32438996806741,104.7889355464722 107.83009670407046,104.75375812422135 107.08295007201377,104.54269351065159 105.61854267306626,104.43716115242569 103.9449342173757,104.19091884981026 101.34486393781845,103.97985387028893 100.17931519181002,103.83914380767965 99.67125548189506,103.69843368406873 99.07353817624971,103.69843368406873 98.17696221778169,103.90949884659494 97.66890250798315,103.76878875357215 96.95164174120873,103.62807859940222 95.72632126475219,103.76878875357215 94.44122905749828,103.41701325401664 93.33545204205438,103.31148052986828 92.61819127516355,103.03005976427812 87.926110425964,102.29132909397595 87.83645283000078,101.90437426240533 87.83645283000078,101.5174189695681 88.13531148293987,100.84904055917286 88.19508321338799,100.39172822239925 88.16519734822214,99.54745760024525 88.19508321338799,98.94943124765996 88.10542561754119,98.14033501714584 88.31462667463347,97.1553455797548 88.37439840519801,96.55731482047122 88.52382773160934,95.78339102561586 88.64337119273841,95.39642843627371 89.18131676781923,93.18017926532775 89.39051782491151,92.44142617916805 89.53994715120643,91.73785024823155 89.71926234278362,91.21016729925759 89.86869166942779,90.96391496283468 90.04800686088856,90.29551482218085 90.43652310967445,89.2401433767809 90.61583830136806,88.95871041185455 90.88481108902488,88.14958927841508 91.42275666398928,86.98867282478022 91.93081637378782,85.58149579909514 92.61819127516355,84.31503126001917 94.47111492289696,81.57100780613837 95.21826155483723,80.05826700798934 96.3539244356798,78.33443750362494 97.28038625931367,76.71614024919108 97.66890250798315,76.18843287811615 98.02753289148677,75.41446051513776 98.14707635238301,75.06265428551706 98.3562774094753,74.74602835267433 98.53559260128532,74.35904068211676 99.34251096379012,73.19807490159292 99.76091307774186,72.95180889914627 100.41840211406816,72.8462662693928 101.16554874600843,72.91662802634528 104.06447767850477,72.74072360538412 105.17025469394866,72.70554270979483 105.40934161609039,72.74072360538412 106.00705892185215,72.63518090700381 106.42546103568748,72.63518090700381 107.74043910822365,72.74072360538412 108.03929776104633,72.67036181030562 108.60712920129299,72.74072360538412 109.65313448628876,72.60000000000582 110.22096592653543,72.67036181030562 110.96811255870853,72.63518090700381 111.02788428915665,72.67036181030562 111.11754188511986,73.02217063322314 111.08765601995401,73.97205255008885 111.1773136156844,75.20337682307581 111.29685707681347,75.80144692733302 111.23708534624893,76.68095978439669 111.26697121141478,77.3142075657961 111.23708534624893,78.15853601903655" stroke="#4dd2ff" stroke-linecap="round" stroke-linejoin="round" stroke-width="0.5"><title>2024-07-24 3.7km</title><desc>11969555111</desc></polyline><polyline fill="none" points="141.87318526837043,104.56383235065732 141.87318526837043,104.12766380637186 141.95433463307563,102.69799396958842 141.95433463307563,102.06796692124044 142.09634602128062,99.93555382337945 142.15720804478042,99.4509114992834 142.1166333623696,98.86933925178892 142.1977827270748,98.4331590218062 142.1774953858694,97.27000736563059 142.2383574093692,96.22801193487248 142.2586447505746,93.63511741168622 142.3397941152798,92.35077476453444 142.299219432869,92.08421211049426 142.3195067740744,91.01795815079822 142.299219432869,90.29096374758228 142.3195067740744,89.29740070787375 142.4006561387796,88.4492334623501 142.3600814564852,88.27959960706357 142.299219432869,88.23113276637741 141.79203590366524,88.23113276637741 141.32542705675587,88.13419905184128 140.39220936305355,88.08573217794765 139.98646253964398,88.01303184649441 139.39812964573503,88.03726529312553 138.85037143423688,87.91609803255415 138.6272106814431,87.91609803255415 138.38376258744393,87.98879839718575 137.77514235232957,88.01303184649441 137.38968287000898,87.84339764308243 136.37531581171788,87.79493070290482 135.9898563295137,87.69799678934214 135.62468418839853,87.55259583631414 135.34066141210496,87.60106283173081 134.8334778827848,87.60106283173081 134.30600701237563,87.50412882988167 133.87997284787707,87.4798953224672 133.23077793046832,87.3102606934408 132.60187035426497,87.21332655886363 131.74980202515144,87.18909301835811 130.37026282574516,87.01945815717045 130.04566536704078,86.99522459450236 129.8225046141306,86.87405673981993 129.7819299318362,86.72865522296343 129.7819299318362,86.60748721624259 129.8833666376304,86.21974913065787 130.51227421383373,84.91112786864687 130.67457294324413,84.32951583221438 131.32376786053646,82.8270107038843 131.52664127235767,82.24539296334842 131.52664127235767,82.07575415585598 131.44549190765247,81.76071029696323 131.52664127235767,81.54260273648833 131.79037670744583,81.03368422463245 131.89181341335643,80.62170167949807 131.99325011926703,79.91890608273388 132.43957162485458,77.78627073312236 132.5004336484708,77.42275120886916 132.5004336484708,77.2531085514056 132.58158301305957,76.98652695897908 132.72359440126456,76.16254537683562 133.10905388346873,74.6842174706544 133.3525019774679,73.52093582189991 133.3727893186733,73.30281980376458 133.5959500715835,72.67270560473844 133.57566273026168,72.62423520431912 133.4945133656729,72.59999999999127 133.3930766597623,72.81811673961056 133.33221463637892,73.03623325529043 133.21049058926292,73.81175683120091 132.88589313055854,75.07197660503152 132.60187035426497,76.45336277066963 132.3989969425602,77.2531085514056 132.35842226014938,77.51968980956008 132.3381349190604,78.14978963548492 132.2164108719444,78.65871505405812 131.99325011926703,79.21610816154862 131.93238809576724,79.48268695699517 131.81066404865123,80.47629588469863 131.79037670744583,80.76710737487883 131.1006071077427,82.3665634572535 130.83687167265452,83.14205298191519 130.59342357853893,83.62673249781074 129.6602058847202,85.85624403283873 129.558769178926,86.24398278169974 129.5993438612204,86.51055276118859 129.7413552494254,86.70442162720428 130.02537802583538,86.89829031626869 130.41083750803955,86.99522459450236 132.17583618965,87.14062592897972 133.02790451887995,87.23756009661884 133.5148007067619,87.35872774412564 133.92054753028788,87.35872774412564 134.32629435358103,87.43142829940189 134.63060447108,87.38296126529167 135.44209811789915,87.43142829940189 136.65933858801145,87.62529632533551 137.2882461642148,87.69799678934214 137.47083223471418,87.77069722865417 138.20117651682813,87.96456494509766 138.5054866343271,87.94033149023016 139.13439421053044,88.06149873690447 139.6010030574398,88.06149873690447 139.9053131750552,88.10996561635693 140.93996757466812,88.08573217794765 141.71088653896004,88.1826659146318 142.2586447505746,88.15843248460442 142.4006561387796,88.23113276637741 142.441230821074,89.20046747969172 142.3803687975742,89.92746561334934 142.42094347986858,90.26673055790889 142.3803687975742,90.84832634581835 142.4006561387796,91.45415359907201 142.3600814564852,91.6237849205063 142.3397941152798,92.20537699465058 142.3600814564852,92.9081319609395 142.3195067740744,93.51395334253903 142.3397941152798,94.4590312497312 142.3195067740744,94.58019478010829 142.3397941152798,94.67712555464823 142.299219432869,95.04061556534725 142.3397941152798,95.59796570775507 142.27893209178,95.98568668398366 142.299219432869,96.88228873237676 142.2586447505746,97.99697789661877 142.27893209178,98.38469449648983 142.1977827270748,99.08742903110397 142.2180700681638,99.81439334596507 142.1774953858694,100.27480279268639 142.1977827270748,100.68674724177981 142.2180700681638,100.88060317680356 142.1774953858694,101.14715479893493 142.2180700681638,101.3167783843528 142.2180700681638,101.7771845766838 142.05577133886982,102.47990789497271 142.015196656459,102.60106685294886 141.97462197416462,102.89184807035781 141.85289792716503,104.32151660323143 141.87318526837043,105.0" stroke="#4dd2ff" stroke-linecap="round" stroke-linejoin="round" stroke-width="0.5"><title>2024-07-21 4.3km</title><desc>11945152036</desc></polyline><polyline fill="none" points="165.93678989820182,98.65598358982243 166.7067213403061,101.37485012295656 167.66913564130664,102.73428206332028 169.97892996575683,104.32028487650678 171.71127570979297,105.0 174.02107003331184,105.0 176.13838149793446,104.32028487650678 178.25569296162575,102.73428206332028 179.4105901233852,100.69513382087462 179.98803870473057,97.5231214906089 177.87072724010795,77.35807341337204 176.90831293910742,75.77205014554784 175.56093291658908,74.18602567445487 173.82858717348427,73.05315031530336 171.90375856962055,72.5999999998603 169.40148138441145,72.82657516933978 167.09168705996126,73.73287560441531 165.55182417761534,75.31890041939914 164.20444415416569,77.811222697841 164.01196129526943,80.30354200489819 165.93678989820182,98.88255593623035 166.5142384795472,101.14827804686502 168.24658422265202,103.18742584669963 170.3638956863433,104.54685660894029 172.4812071500346,105.0 174.9834843352437,104.77342831646092 177.2932786596939,103.41399770230055 178.83314154297113,101.82799420086667 179.79555584397167,99.78884507482871 179.98803870473057,97.29654899681918 178.06321010086685,77.811222697841 177.100795798935,75.99862497136928 175.94589863717556,74.41260067233816 174.02107003331184,73.05315031530336 172.28872429020703,72.5999999998603 169.97892996575683,72.5999999998603 167.09168705996126,73.95945065119304 165.35934131778777,75.54547529504634 164.20444415416569,78.26437188358977 164.01196129526943,80.53011633967981 166.12927275896072,100.01541729830205 167.09168705996126,102.05456620361656 168.24658422265202,103.18742584669963 169.97892996575683,104.32028487650678 172.28872429020703,105.0 174.40603575389832,105.0 176.33086435683072,104.09371311939321 178.44817582145333,102.28113818122074 179.4105901233852,100.69513382087462 179.98803870473057,97.5231214906089 177.87072724010795,77.58464806829579 176.90831293910742,75.54547529504634 175.36845005583018,73.95945065119304 173.4436214528978,72.82657516933978 171.32630998827517,72.5999999998603 168.6315499432385,73.05315031530336 166.3217556187883,74.41260067233816 164.7818927364424,76.4517745510675 164.01196129526943,79.17066996102221 179.98803870473057,97.74969395948574 178.25569296162575,79.17066996102221 177.67824438028038,76.67834930331446 176.52334721758962,75.09232551953755 174.7910014744848,73.50630053272471 172.86617287062109,72.82657516933978 170.17141282651573,72.5999999998603 168.24658422265202,73.27972543681972 166.12927275896072,74.63917564600706 164.7818927364424,76.4517745510675 164.20444415416569,78.4909464395605 164.20444415416569,80.7566906507127 166.12927275896072,99.78884507482871 166.89920420013368,101.60142217436805 168.24658422265202,103.41399770230055 170.7488614069298,104.77342831646092 172.86617287062109,105.0 175.36845005583018,104.54685660894029 177.100795798935,103.64056953275576 178.83314154297113,101.82799420086667 179.79555584397167,99.78884507482871 179.98803870473057,97.29654899681918 178.06321010086685,78.03779730340466 177.100795798935,75.99862497136928 175.75341577548534,74.41260067233816 173.82858717348427,73.05315031530336 171.51879284810275,72.5999999998603 169.01651566382498,72.82657516933978 166.7067213403061,74.18602567445487 165.16685845702887,75.77205014554784 164.20444415416569,78.03779730340466 164.01196129526943,80.30354200489819 166.12927275896072,99.78884507482871 167.09168705996126,102.05456620361656 168.6315499432385,103.64056953275576 170.9413442676887,104.77342831646092 173.0586557323113,105.0 175.75341577548534,104.54685660894029 177.67824438028038,103.18742584669963 178.83314154297113,101.82799420086667 179.79555584397167,99.56227282690816 179.98803870473057,96.84340393636376 177.87072724010795,77.58464806829579 176.52334721758962,74.86575059546158 174.9834843352437,73.73287560441531 173.2511385921389,72.82657516933978 170.9413442676887,72.5999999998603 169.01651566382498,72.82657516933978 166.7067213403061,74.18602567445487 164.97437559626997,76.22519977367483 164.20444415416569,78.03779730340466 164.01196129526943,80.53011633967981 165.93678989820182,98.65598358982243 166.3217556187883,100.46856167144142 167.66913564130664,102.73428206332028 169.40148138441145,104.09371311939321 171.71127570979297,105.0 174.21355289313942,105.0 176.52334721758962,104.09371311939321 178.44817582145333,102.50771013414487 179.6030729841441,100.46856167144142 179.98803870473057,98.2028388234321 178.25569296162575,79.17066996102221 177.48576151952147,76.4517745510675 175.56093291658908,74.18602567445487 173.2511385921389,72.82657516933978 170.5563785471022,72.5999999998603 168.05410136282444,73.27972543681972 166.7067213403061,73.95945065119304 165.35934131778777,75.54547529504634 164.3969270158559,77.35807341337204 164.01196129526943,78.9440954781603 165.93678989820182,98.42941121920012 166.7067213403061,101.14827804686502 168.05410136282444,103.18742584669963 170.17141282651573,104.54685660894029 172.86617287062109,105.0 174.7910014744848,104.77342831646092 176.90831293910742,103.8671413382981 178.44817582145333,102.50771013414487 179.6030729841441,100.24198949686252 179.98803870473057,98.42941121920012 179.79555584397167,96.3902587776538 171.1338271284476,72.5999999998603 169.40148138441145,72.82657516933978 179.98803870473057,96.61683136946522 178.06321010086685,78.71752097154967 177.2932786596939,76.22519977367483 175.94589863717556,74.41260067233816 173.4436214528978,73.05315031530336 170.7488614069298,72.5999999998603 168.43906708341092,73.05315031530336 166.7067213403061,73.95945065119304 165.16685845702887,75.77205014554784 164.3969270158559,77.811222697841 164.01196129526943,79.39724441897124 165.93678989820182,98.65598358982243 166.89920420013368,101.82799420086667" stroke="#4dd2ff" stroke-linecap="round" stroke-linejoin="round" stroke-width="0.5"><title>2024-07-05 3.3km</title><desc>11814633384</desc></polyline><polyline fill="none" points="26.766118357889354,113.4000000001397 24.298355073668063,114.07034998619929 22.02041973453015,115.8579488825053 20.501796175725758,118.53934432123788 20.501796175725758,120.99728707666509 22.40007562469691,139.54348794277757 22.96955945994705,142.0014056584332 24.108527129516006,143.56553358770907 25.816978633403778,144.90621372591704 27.715258083306253,145.80000000004657 29.803365477360785,145.80000000004657 31.701644925400615,145.35310691175982 33.59992437623441,144.0124270641245 34.73889204580337,142.44829947361723 35.68803176935762,140.21382942865603 35.68803176935762,137.7559095819015 33.78975232038647,119.43314202595502 32.84061259590089,116.52829806902446 30.56267725676298,114.51724985521287 27.525430138222873,113.4000000001397 24.298355073668063,114.07034998619929 21.830591790378094,116.08139863540418 20.501796175725758,118.76279378402978 20.501796175725758,121.44418544485234 22.40007562469691,139.54348794277757 23.34921535011381,142.67174634477124 24.867838908918202,144.4593204432167 26.576290413737297,145.35310691175982 28.66439780779183,145.80000000004657 30.94233314692974,145.57655346789397 33.41009643021971,144.2358737657778 34.73889204580337,142.67174634477124 35.498203825205564,140.43727654218674 35.68803176935762,138.20280431746505 33.78975232038647,120.55038861162029 33.22026848606765,117.42209664569236 32.0813008164987,115.8579488825053 29.803365477360785,114.07034998619929 27.525430138222873,113.4000000001397 25.43732274416834,113.62345001893118 23.539043294265866,114.51724985521287 21.830591790378094,115.8579488825053 20.881452065892518,117.64554622885771 20.311968229711056,119.65659139119089 22.40007562469691,139.76693512871861 22.96955945994705,141.7779587144032 23.918699184432626,143.34208681364544 25.62715068925172,144.90621372591704 27.715258083306253,145.57655346789397 29.803365477360785,145.80000000004657 32.271128760650754,144.90621372591704 33.97958026546985,143.56553358770907 35.118547935038805,141.7779587144032 35.68803176935762,139.76693512871861 33.78975232038647,120.10349005041644 33.41009643021971,117.86899578850716 32.271128760650754,115.8579488825053 30.75250520184636,114.51724985521287 28.284741918556392,113.62345001893118 25.816978633403778,113.62345001893118 23.539043294265866,114.51724985521287 22.02041973453015,115.63449910539202 20.881452065892518,117.86899578850716 20.311968229711056,119.65659139119089 22.40007562469691,139.76693512871861 22.77973151486367,141.55451174639165 24.108527129516006,143.56553358770907 25.62715068925172,144.90621372591704 27.715258083306253,145.57655346789397 29.993193421512842,145.80000000004657 32.0813008164987,145.1296603307128 33.97958026546985,143.56553358770907 35.30837587919086,141.55451174639165 35.68803176935762,139.32004073285498 33.78975232038647,120.55038861162029 33.41009643021971,117.86899578850716 32.0813008164987,115.63449910539202 30.3728493116796,114.29379993281327 28.284741918556392,113.62345001893118 25.43732274416834,113.62345001893118 23.539043294265866,114.51724985521287 22.02041973453015,115.63449910539202 20.881452065892518,117.86899578850716 20.311968229711056,119.65659139119089 22.40007562469691,139.54348794277757 22.96955945994705,142.0014056584332 23.918699184432626,143.56553358770907 25.62715068925172,144.90621372591704 27.715258083306253,145.80000000004657 30.56267725676298,145.57655346789397 32.460956705734134,144.90621372591704 34.16940821055323,143.34208681364544 35.30837587919086,141.33106475346722 35.68803176935762,139.32004073285498 33.78975232038647,120.77383785578422 33.22026848606765,117.64554622885771 32.0813008164987,115.63449910539202 29.803365477360785,114.07034998619929 27.525430138222873,113.4000000001397 24.488183019682765,114.07034998619929 22.40007562469691,115.187599477591 21.261107955127954,116.75174774904735 20.501796175725758,118.53934432123788 20.311968229711056,119.88004073314369 22.40007562469691,140.21382942865603 23.34921535011381,142.67174634477124 24.678010963834822,144.2358737657778 26.766118357889354,145.35310691175982 28.854225751943886,145.80000000004657 31.701644925400615,145.35310691175982 33.22026848606765,144.2358737657778 34.9287199890241,142.22485257778317 35.68803176935762,140.21382942865603 35.68803176935762,137.9793569620233 33.78975232038647,119.65659139119089 33.22026848606765,117.42209664569236 32.0813008164987,115.63449910539202 30.183021366596222,114.29379993281327 27.715258083306253,113.4000000001397 25.24749479815364,113.62345001893118 23.539043294265866,114.29379993281327 22.02041973453015,115.8579488825053 20.881452065892518,117.64554622885771 20.501796175725758,119.43314202595502 22.40007562469691,139.76693512871861 22.96955945994705,142.0014056584332 24.108527129516006,143.78898033848964 25.816978633403778,144.90621372591704 28.284741918556392,145.80000000004657 30.3728493116796,145.57655346789397 32.271128760650754,144.90621372591704 33.97958026546985,143.56553358770907 35.30837587919086,141.33106475346722 35.68803176935762,139.32004073285498 33.78975232038647,120.10349005041644 33.03044054098427,117.1986470380798 31.321989036165178,114.96414962783456 28.474569861777127,113.62345001893118 26.386462467722595,113.4000000001397 23.728871239349246,114.29379993281327 22.589903570711613,115.187599477591 21.261107955127954,116.75174774904735 20.881452065892518,117.64554622885771 20.311968229711056,119.88004073314369 22.210247680544853,139.32004073285498 22.96955945994705,142.0014056584332 24.678010963834822,144.2358737657778 26.386462467722595,145.35310691175982 28.66439780779183,145.80000000004657 30.75250520184636,145.57655346789397 32.65078465081751,144.68276709667407 33.97958026546985,143.56553358770907 35.118547935038805,141.7779587144032 35.68803176935762,139.76693512871861 33.41009643021971,118.09244532324374 32.271128760650754,115.8579488825053 30.75250520184636,114.51724985521287 28.66439780779183,113.62345001893118 26.386462467722595,113.4000000001397 24.108527129516006,114.07034998619929 22.40007562469691,115.4110493035987 21.071280010044575,116.97519740578718 20.501796175725758,119.20969263557345 22.210247680544853,139.0965934980195 22.96955945994705,142.0014056584332 24.108527129516006,143.56553358770907 26.006806578487158,145.1296603307128 28.66439780779183,145.80000000004657 30.56267725676298,145.57655346789397 32.84061259590089,144.68276709667407 34.35923615563661,143.34208681364544 35.30837587919086,141.55451174639165 35.68803176935762,139.32004073285498 33.78975232038647,119.43314202595502 33.22026848606765,117.42209664569236 31.51181698217988,115.187599477591 29.613537531346083,113.84690001490526 26.766118357889354,113.4000000001397 24.298355073668063,114.07034998619929 22.589903570711613,115.187599477591 21.450935900211334,116.52829806902446 20.691624120809138,118.31589483469725 20.311968229711056,119.65659139119089" stroke="#4dd2ff" stroke-linecap="round" stroke-linejoin="round" stroke-width="0.5"><title>2024-06-26 3.9km</title><desc>11744480107</desc></polyline><polyline fill="none" points="70.64239467226434,113.68114190781489 72.1649210912874,113.64599918265594 74.07554248021916,113.39999999999418 74.64275820506737,113.39999999999418 74.79202550102491,113.43514275184134 74.94129279698245,113.57571372092934 75.06070663384162,113.78657006038702 75.03085317462683,115.61398592428304 75.06070663384162,116.00055334490025 75.18012047070079,116.4925475770433 75.29953430744354,118.70651238245773 75.26968084822875,119.2687867511413 75.35924122587312,120.53390051514725 75.32938776677474,121.90443485541618 75.47865506273229,123.83722984802444 75.4488016035175,124.57520307853702 75.50850852171425,125.6645890630316 75.47865506273229,126.50798215018585 75.53836198104545,127.70278526822221 75.50850852171425,128.22990289109293 75.65777581790462,130.26808297043317 75.65777581790462,130.58435114476015 75.747336195549,131.35744982783217 75.65777581790462,132.0251244798419 75.83689657319337,133.46589141292498 75.71748273621779,134.73094978305744 75.77718965453096,135.08235401005368 75.83689657319337,136.87450964347227 75.89660349150654,137.19077137418208 75.86675003229175,137.7178735731286 75.92645695072133,138.139554715337 75.86675003229175,139.22889512803522 75.92645695072133,139.36945491473307 75.92645695072133,140.07225293424563 76.04587078746408,141.12644710743916 75.9861638690345,141.82924131897744 76.07572424667887,143.12940659490414 76.01601732824929,144.07817256019916 76.13543116499204,144.9215177546721 76.07572424667887,145.58916447812226 75.80704311386216,145.69458225619746 75.23982738913037,145.69458225619746 74.46363744989503,145.79999999998836 73.83671480673365,145.72972150784335 73.1202317859279,145.55402521122596 72.34404184669256,145.41346810525283 71.14990347856656,145.3431895294343 70.4632739169756,145.16749302329845 69.2989890081808,145.02693574971636 67.41822107858025,144.95665709019522 66.19422925135586,144.71068166173063 65.4777462304337,144.64040293358266 65.11950472008903,144.64040293358266 64.19404748501256,144.53498481278075 63.32829716813285,144.3241484684404 62.76108144328464,144.35928786874865 62.19386571843643,144.28900906446506 61.41767577920109,144.04303312962293 60.8206065952545,144.14845141017577 60.044416656019166,144.14845141017577 59.17866633925587,143.9727542567125 58.04423488967586,143.9727542567125 57.088924195151776,143.83219646546058 56.342587715247646,143.58622018402093 54.9991820511641,143.4808017204923 54.10357827518601,143.26996469084406 52.013836131081916,143.02398798285867 51.86456883500796,142.77801108837593 51.86456883500796,142.60231319238665 52.22281034546904,141.72382228437345 52.192956886370666,141.44270469111507 52.25266380480025,140.91560854695854 52.13324996782467,139.1937551717856 52.55119839683175,136.76908899811679 52.431784559972584,136.06628381941118 52.461638019187376,135.64459998099483 52.55119839683175,135.22291559411678 52.819879529532045,134.20384272863157 53.50650909112301,132.76307907461887 53.8946040609153,131.5331538169121 54.25284557114355,130.6897738010157 54.581233622389846,129.77610964156338 54.90962167363614,129.07328930552467 55.08874242869206,128.5110319396481 55.685811612871476,127.21080804691883 55.864932367927395,126.50798215018585 56.133613500744104,126.15656863045297 56.28288079681806,125.73487190404558 56.67097576637752,125.24289169671829 57.327751868753694,124.15350429544924 57.29789840965532,124.15350429544924 57.44716570561286,124.01293791245553 57.80540721595753,123.41553010520875 58.10394180798903,122.78297946226667 58.909985206555575,121.37730694859056 59.4174940129742,120.67446840647608 60.104123574565165,119.62020773626864 60.79075313603971,118.39023262169212 61.05943426885642,117.75767217422253 61.41767577920109,117.23053752537817 61.83562420797534,116.14112320161075 62.40283993293997,115.68427094409708 63.507417923305184,113.92714087714558 63.83580597455148,113.71628462916124 63.98507327050902,113.68114190781489" stroke="#4dd2ff" stroke-linecap="round" stroke-linejoin="round" stroke-width="0.5"><title>2024-06-17 3.2km</title><desc>11672403120</desc></polyline><polyline fill="none" points="116.19999998807907,118.15832583606243 83.80000001192093,141.04167415946722" stroke="#4dd2ff" stroke-linecap="round" stroke-linejoin="round" stroke-width="0.5"><title>2024-05-09 8.0km</title><desc>9223370321595310162</desc></polyline><polyline fill="none" points="119.80000000074506,124.58172398433089 126.62105263397098,127.59269151836634 122.35789473354816,122.57441175170243 141.1157894730568,133.61462364904583 152.19999999925494,136.6255882475525 145.37894736975431,135.6219334891066 122.35789473354816,131.6073133731261" stroke="#4dd2ff" stroke-linecap="round" stroke-linejoin="round" stroke-width="0.5"><title>2024-05-08 6.2km</title><desc>9223370321684028463</desc></polyline><polyline fill="none" points="172.00000001490116,113.40000000037253 166.9955199509859,145.80000000074506 177.00448006391525,134.01818628795445 177.00448006391525,136.96364019811153" stroke="#4dd2ff" stroke-linecap="round" stroke-linejoin="round" stroke-width="0.5"><title>2024-05-07 6.1km</title><desc>9223370321771754451</desc></polyline><polyline fill="none" points="132.0679089576006,154.19999999925494 151.72836419939995,186.60000000149012 120.27163580060005,186.60000000149012" stroke="#4dd2ff" stroke-linecap="round" stroke-linejoin="round" stroke-width="0.5"><title>2024-05-02 6.8km</title><desc>9223370322200251369</desc></polyline><polyline fill="none" points="163.89999999850988,179.93474477063864 155.79999999701977,182.6589545244351 188.19999999552965,170.40000597946346 183.57142857462168,174.48632348887622 187.04285714030266,166.31368714105338 188.19999999552965,158.14104547537863 188.19999999552965,159.50315278582275" stroke="#4dd2ff" stroke-linecap="round" stroke-linejoin="round" stroke-width="0.5"><title>2024-05-01 4.0km</title><desc>9223370322286947528</desc></polyline><polyline fill="none" points="11.800000000745058,214.48783953860402 44.19999999925494,207.9121604617685 34.14482758566737,211.85756833665073 43.082758616656065,214.48783953860402" stroke="#4dd2ff" stroke-linecap="round" stroke-linejoin="round" stroke-width="0.5"><title>2024-04-30 5.3km</title><desc>9223370322373916531</desc></polyline><polyline fill="none" points="47.800000000046566,208.9477810143726 49.17763779498637,210.44932819029782 51.93291338556446,209.84870980819687 53.00440944870934,210.6895753608551 64.63779527554289,200.65916738443775 77.13858267711475,200.77929310500622 79.58771653519943,203.24186463857768 80.09795275586657,217.95700304058846 77.13858267711475,221.44052962493151 62.90299212583341,221.5606508407509 60.50488188955933,220.11919453268638 52.64724409417249,219.7588298699702 52.188031495781615,212.0109329370316 54.27999999979511,209.30815270770108 64.79086614144035,200.65916738443775 76.98551181098446,200.77929310500622 79.33259842521511,203.1217394519481 80.09795275586657,206.0047367470106 79.79181102337316,218.8579171875026 76.78141732257791,221.68077203031862 63.26015747990459,221.68077203031862 60.81102362181991,220.17925528716296 52.03496062941849,219.39846497273538 52.4941732280422,211.41031624755124 63.92346456670202,200.9594816371682 77.49574803118594,200.89941879961407 80.09795275586657,204.26292767492123 79.84283464541659,217.41645384940784 79.536692913156,219.15822157775983 76.88346456666477,221.6207114388235 63.26015747990459,221.50059023598442 60.50488188955933,220.05913377174875 52.749291338259354,219.69876906997524 51.93291338556446,218.31736887502484 52.085984251694754,213.57253328332445 52.4941732280422,211.59050132276025 64.07653543306515,201.0796072926605 76.88346456666477,200.7192302479525 79.58771653519943,203.1818020485225 79.84283464541659,218.7978562899516 77.03653543279506,221.5606508407509 75.70992125989869,221.68077203031862 63.77039370080456,221.74083261552732 60.75999999977648,220.23931603494566 52.800314960302785,219.7588298699702 51.77984251943417,216.51553735911148 52.137007873971015,214.7136999841896 52.95338582643308,214.41339318547398 52.03496062941849,214.2332090283744 52.085984251694754,213.03197981551057 54.22897637751885,209.60846227302682 64.48472440941259,200.9594816371682 77.75086614163592,201.31985852547223 79.94488188973628,203.9025527005433 80.04692913382314,217.83688104362227 77.18960629892536,221.20028711517807 62.851968503789976,221.68077203031862 58.974173228256404,219.93901223060675 52.95338582643308,219.7588298699702 52.137007873971015,218.8579171875026 51.98393700784072,213.57253328332445 52.64724409417249,211.1700693894527 64.07653543306515,200.9594816371682 77.24062992096879,201.0195444681449 79.79181102337316,203.84249018208357 80.19999999995343,208.52734707604395 79.84283464541659,217.59663697169162 77.29165354324505,221.3204083830933 62.800944881746545,221.68077203031862 60.55590551160276,220.11919453268638 52.4941732280422,219.638708263461 52.64724409417249,211.3502545428928" stroke="#4dd2ff" stroke-linecap="round" stroke-linejoin="round" stroke-width="0.5"><title>2024-04-27 9.8km</title><desc>1714200483443</desc></polyline><polyline fill="none" points="83.80000000004657,208.1262787936139 84.30704225366935,209.85717289079912 85.32112676068209,210.57340333954198 86.89295774651691,210.39434581471141 88.0591549295932,209.97654469695408 88.76901408447884,210.57340333954198 90.34084507031366,209.91685879707802 92.115492957877,208.60376736387843 92.57183098606765,207.88753435312537 93.58591549308039,207.11161420703866 96.12112676072866,204.6047878015088 97.69295774656348,203.17231044598157 99.67042253538966,201.20264799747383 102.4591549297329,200.72515300952364 106.05915492982604,200.78483990568202 107.4788732395973,200.4864053603378 108.79718309873715,200.90421367855743 112.1943661973346,200.96390055521624 113.46197183104232,201.14296114665922 115.54084507073276,203.4110569305485 116.04788732412271,206.39537925593322 116.04788732412271,209.73780105874175 116.04788732412271,213.37863029458094 116.04788732412271,216.84038003039313 115.54084507073276,219.168096065172 113.10704225371592,221.49580226128455 109.6591549294535,221.67485617648344 106.26197183108889,221.61517154466128 102.35774647910148,221.79422542097745 98.96056338050403,221.61517154466128 97.33802816923708,220.60053181176772 94.95492957741953,219.94399922376033 91.45633802842349,219.94399922376033 88.76901408447884,219.82462957839016 88.31267605652101,219.10841116163647 88.00845070439391,215.40793450310593 88.31267605652101,212.12523278273875 88.97183098620735,211.05088978796266 90.39154929597862,209.43937136547174 91.91267605661415,208.54408131516539 94.65070422552526,206.39537925593322 97.03380281710997,204.0676092299982 99.41690140869468,201.73982936394168 100.83661971846595,200.84452679537935 104.43661971832626,200.96390055521624 107.1746478874702,201.32202167977812 107.98591549298726,201.14296114665922 110.11549295764416,200.96390055521624 112.95492957765236,200.96390055521624 114.17183098639362,201.85920292983064 115.89577464829199,204.4257283360348 116.09859154955484,207.9472204730846 115.89577464829199,210.81214661546983 116.04788732412271,213.7367433452746 116.14929577498697,217.3775461424957 114.62816901435144,220.1827384372591 112.75211267615668,221.73454080184456 108.79718309873715,221.79422542097745 106.00845070439391,221.8539100336493 102.71267605666071,221.79422542097745 99.31549295783043,221.73454080184456 97.18591549317352,220.54084706347203 95.7154929577373,220.1827384372591 94.39718309883028,220.36179277935298 90.64507042244077,220.00368403689936 88.71830985951237,220.00368403689936 87.95774647896178,219.10841116163647 87.95774647896178,215.64667568309233 88.46478873235174,211.88649007619824 89.88450704235584,210.39434581471141 91.65915492968634,208.78282547090203 93.78873239434324,207.11161420703866 96.07042253529653,204.6047878015088 98.80845070444047,202.21732347208308 100.63380281697027,200.90421367855743 104.58873239462264,200.78483990568202 106.56619718321599,200.96390055521624 107.98591549298726,200.90421367855743 111.8901408452075,200.78483990568202 113.46197183104232,201.08327428932535 115.7436619719956,203.70948989101453 116.14929577498697,205.91788877063664 115.84507042285986,208.96188351971796 115.99718309892341,209.79748697805917 115.84507042285986,213.557686849148 115.7943661971949,217.4969163184869 115.4901408450678,219.2277809624793 113.76619718316942,220.89895545662148 112.85352112702094,221.67485617648344 109.10140845109709,221.73454080184456 106.41408450715244,221.67485617648344 103.01690140855499,221.55548690608703 99.31549295783043,221.55548690608703 96.98309859144501,220.36179277935298 95.7154929577373,220.06336884346092 93.07887323969044,219.88431440427667 89.32676056353375,219.82462957839016 88.26197183108889,219.168096065172 88.0591549295932,216.42258380318526 88.21126760565676,213.67705785296857 89.88450704235584,210.39434581471141 91.96338028181344,209.20062749437056 93.94084507063963,207.17130041104974 94.44788732402958,206.5147518122685 96.0197183098644,205.08227942528902 97.64225352136418,203.4110569305485 100.12676056358032,201.2623348419438 101.64788732398301,200.90421367855743 103.6253521128092,201.08327428932535 106.16056338045746,200.96390055521624 107.4788732395973,201.2623348419438 110.21690140874125,200.90421367855743 112.85352112702094,200.90421367855743 114.67887323978357,202.3963836557814 115.99718309892341,204.30635532637825 115.89577464829199,207.9472204730846 115.84507042285986,210.63308916828828 115.94647887349129,214.0948561631376 115.89577464829199,217.4969163184869 115.7943661971949,218.8696714824182 114.27323943702504,220.48116230842425 111.68732394394465,221.73454080184456 108.79718309873715,221.79422542097745 105.85633802833036,221.79422542097745 103.2704225354828,221.91359463968547 101.14084507082589,221.79422542097745 99.82253521145321,221.79422542097745 97.64225352136418,221.07800956600113 95.46197183104232,220.06336884346092 93.63661971851252,219.82462957839016 91.40563380299136,219.64557506144047 88.92112676054239,219.82462957839016 88.31267605652101,219.2874658529763 87.90704225352965,216.60163936804747 88.26197183108889,214.81108110031346 89.07323943660595,214.5126541563659 88.46478873235174,214.5126541563659 88.21126760565676,213.13988813146716 89.52957746502943,210.6927749904571 90.34084507031366,209.73780105874175 91.70985915511847,208.9021975097712 93.63661971851252,207.2906727992813 95.51267605647445,205.73882973194122 97.1352112677414,204.00792268972145 99.56901408475824,201.68014257139293 100.53239436633885,201.14296114665922 103.87887323950417,201.02358742558863 106.71830985927954,201.2623348419438 107.4788732395973,201.38170851115137 109.86197183118202,201.14296114665922 112.75211267615668,201.02358742558863 114.93239436624572,202.8141905249795 116.04788732412271,205.85820243082708 116.09859154955484,209.3796854072716 115.99718309892341,212.8414602817502 115.94647887349129,216.2435281802318 115.7436619719956,218.63093169982312 113.15774647891521,221.2570636170567 109.70985915488563,221.49580226128455 106.41408450715244,221.43611760996282 103.06760563375428,221.37643295212183 101.24225352122448,221.55548690608703 98.9098591550719,221.73454080184456 96.62816901435144,220.30210800521309 93.18028169032186,220.00368403689936 89.88450704235584,219.94399922376033 88.71830985951237,219.64557506144047 88.26197183108889,218.92935641185613 88.16056338022463,215.58699039777275 88.10985915502533,213.67705785296857 88.51549295778386,211.6477472660481 90.23943661991507,210.03623059025267 92.06478873244487,208.18596488737967 94.60000000009313,206.09694775094977 97.38873239443637,203.76917646359652 99.72112676058896,201.50108215463115 100.58309859177098,200.96390055521624 103.98028169036843,201.08327428932535 107.52957746502943,201.32202167977812 110.01408450724557,201.14296114665922 113.20845070434734,201.20264799747383 114.98309859167784,202.99325051449705 115.7436619719956,204.00792268972145 115.99718309892341,206.15663406491512 116.14929577498697,208.663453406014 115.99718309892341,212.1849184432649 115.99718309892341,215.46761980786687 115.7943661971949,217.67597153387032 115.33802816900425,219.2277809624793 113.664788732538,221.13769425608916 111.58591549331322,221.61517154466128 108.13802816905081,221.73454080184456 104.2338028170634,221.67485617648344 101.24225352122448,221.55548690608703 98.8591549298726,221.73454080184456 97.33802816923708,220.48116230842425 94.90422535245307,219.94399922376033 91.05070422543213,219.76494474580977 89.02253521117382,219.88431440427667 88.26197183108889,219.34715073736152 88.21126760565676,217.1984908299055 88.21126760565676,213.85611431056168 88.76901408447884,211.4686900905799" stroke="#4dd2ff" stroke-linecap="round" stroke-linejoin="round" stroke-width="0.5"><title>2024-04-27 10.1km</title><desc>9223370322649067555</desc></polyline><polyline fill="none" points="136.0,208.47579054161906 145.25714284181595,208.47579054161906 133.68571427464485,213.9242094606161 119.79999999701977,208.47579054161906 152.19999998807907,213.9242094606161 126.74285712838173,213.9242094606161" stroke="#4dd2ff" stroke-linecap="round" stroke-linejoin="round" stroke-width="0.5"><title>2024-04-26 5.2km</title><desc>9223370322713802999</desc></polyline><polyline fill="none" points="13.678260869346559,252.00000727863517 13.208695651963353,251.81576117838267 14.304347825236619,252.36849941930268 15.243478260934353,253.2897294217255 17.904347825795412,253.2897294217255 19.156521739438176,252.55274545995053 19.31304347794503,251.6315150577575 18.686956521123648,252.55274545995053 18.217391303740442,251.81576117838267 19.0,251.44726891734172 22.443478261120617,251.44726891734172 23.69565217383206,251.81576117838267 25.886956522241235,251.6315150577575 26.200000000186265,250.71028415695764 25.41739130485803,249.78905275673606 23.069565217942,248.68357441783883 21.817391304299235,247.9465884581441 20.095652173273265,247.02535556047224 19.156521739438176,250.3417916566832 19.156521739438176,251.44726891734172 18.373913043178618,252.18425335921347 17.434782608412206,252.00000727863517 16.182608695700765,252.18425335921347 14.773913042619824,251.81576117838267 14.460869564674795,253.1054834612878 15.869565217755735,253.65822128287982 14.773913042619824,254.39520476583857 15.869565217755735,254.57945058634505 15.55652173794806,255.50067939108703 14.773913042619824,256.05341643374413 11.799999999813735,256.97464443952776 16.02608695626259,253.84246718348004 17.121739130467176,253.2897294217255 16.808695651590824,252.18425335921347 20.25217391271144,253.2897294217255 21.66086956579238,253.1054834612878 22.756521739065647,253.65822128287982 22.130434782244265,254.39520476583857 22.443478261120617,255.13218792923726 23.38260869588703,255.86917077284306 23.38260869588703,256.6061532967724 22.130434782244265,256.97464443952776 19.62608695589006,255.86917077284306 19.469565217383206,254.76369638729375 21.034782608039677,254.57945058634505 21.817391304299235,255.13218792923726 23.69565217383206,254.57945058634505 24.00869565270841,255.68492509180214 22.756521739065647,256.4219076959416 21.34782608691603,256.4219076959416 17.121739130467176,253.84246718348004 14.773913042619824,251.81576117838267 13.678260869346559,251.44726891734172 12.582608695141971,251.6315150577575 13.208695651963353,250.89453037746716 14.460869564674795,251.26302275736816 15.400000000372529,251.07877657725476 14.773913042619824,251.81576117838267 13.365217390470207,251.81576117838267 11.799999999813735,252.00000727863517 15.243478260934353,252.18425335921347 16.495652173645794,251.6315150577575 17.434782608412206,251.6315150577575 18.217391303740442,252.36849941930268 20.095652173273265,251.44726891734172 20.8782608686015,251.81576117838267 21.817391304299235,251.81576117838267 22.443478261120617,252.36849941930268 23.38260869588703,252.7369914802257 24.32173913065344,252.55274545995053 25.104347825981677,252.7369914802257 26.04347826074809,253.84246718348004 27.608695652335882,254.94794216798618 28.860869565047324,254.76369638729375 29.799999999813735,255.13218792923726 28.54782608617097,254.57945058634505 26.200000000186265,254.02671306428965 27.139130434952676,253.65822128287982 27.29565217345953,254.76369638729375 28.39130434859544,254.57945058634505 28.54782608617097,253.65822128287982 29.330434781499207,254.39520476583857 30.26956521719694,254.57945058634505 27.608695652335882,254.57945058634505 28.860869565047324,254.76369638729375 29.173913043923676,254.210958924843 29.95652173925191,254.57945058634505 30.739130434580147,255.13218792923726 28.078260868787766,256.05341643374413 29.799999999813735,255.50067939108703 31.834782608784735,253.84246718348004 31.0521739134565,252.92123748059385 31.0521739134565,253.65822128287982 29.330434781499207,254.02671306428965 27.608695652335882,253.84246718348004 26.356521738693118,253.1054834612878 23.38260869588703,252.92123748059385 24.791304348036647,253.1054834612878 25.573913043364882,254.02671306428965 27.139130434952676,253.2897294217255 30.26956521719694,253.1054834612878 32.14782608766109,253.65822128287982 34.02608695626259,253.84246718348004 35.27826086990535,253.84246718348004 38.72173913009465,254.210958924843 42.00869565177709,254.57945058634505 44.200000000186265,254.94794216798618 42.00869565177709,254.94794216798618 41.539130435325205,254.94794216798618 39.504347826354206,254.94794216798618 37.78260869625956,254.76369638729375 36.530434782616794,254.94794216798618 34.808695651590824,254.94794216798618 34.182608695700765,254.39520476583857 32.14782608766109,253.84246718348004 35.27826086990535,253.47397536260542 36.530434782616794,254.210958924843 37.31304347794503,253.84246718348004 36.37391304410994,253.65822128287982 36.843478261493146,253.84246718348004 36.06086956523359,254.210958924843 35.121739130467176,254.210958924843 36.37391304410994,253.47397536260542" stroke="#4dd2ff" stroke-linecap="round" stroke-linejoin="round" stroke-width="0.5"><title>2024-04-24 3.4km</title><desc>9223370322893282018</desc></polyline><polyline fill="none" points="80.19999999925494,253.68260029517114 50.658823531121016,249.1956665813923 47.80000000074506,254.8043334186077 51.61176471039653,250.31740019097924" stroke="#4dd2ff" stroke-linecap="round" stroke-linejoin="round" stroke-width="0.5"><title>2024-04-23 3.1km</title><desc>9223370322979897699</desc></polyline></svg>