<?xml version="1.0" encoding="utf-8" ?>
<svg baseProfile="full" height="300mm" version="1.1" viewBox="0,0,200,300" width="200mm" xmlns="http://www.w3.org/2000/svg" xmlns:ev="http://www.w3.org/2001/xml-events" xmlns:xlink="http://www.w3.org/1999/xlink"><defs /><rect fill="#222222" height="300" width="200" x="0" y="0" /><text fill="#FFFFFF" style="font-size:12px; font-family:Arial; font-weight:bold;" x="10" y="20">Over 3km Runs</text><text fill="#FFFFFF" style="font-size:4px; font-family:Arial" x="10" y="280">ATHLETE</text><text fill="#FFFFFF" style="font-size:9px; font-family:Arial" x="10" y="290">L</text><text fill="#FFFFFF" style="font-size:4px; font-family:Arial" x="120" y="280">STATISTICS</text><text fill="#FFFFFF" style="font-size:3px; font-family:Arial" x="120" y="285">Number: 22</text><text fill="#FFFFFF" style="font-size:3px; font-family:Arial" x="120" y="290">Weekly: 2.8</text><text fill="#FFFFFF" style="font-size:3px; font-family:Arial" x="141" y="285">Total: 112.9 km</text><text fill="#FFFFFF" style="font-size:3px; font-family:Arial" x="141" y="290">Avg: 5.1 km</text><text fill="#FFFFFF" style="font-size:3px; font-family:Arial" x="167" y="285">Min: 3.0 km</text><text fill="#FFFFFF" style="font-size:3px; font-family:Arial" x="167" y="290">Max: 10.1 km</text><polyline fill="none" points="37.35712413897272,32.23302133890684 38.01695590023883,32.34953195147682 40.194400712731294,32.31069508488872 41.71201376384124,32.15534757601563 42.008938056533225,32.27185821393505 42.206887584761716,32.58255306305364 42.2728707609931,33.00975804059999 42.23987917287741,33.94183985973359 42.33885393710807,34.44671649939846 42.33885393710807,35.106938723882195 42.53680346545298,35.805996223702095 42.437828701222315,36.699234377534594 42.53680346545298,37.3206161276612 42.503811877337284,39.61195201749797 42.63577822968364,40.50518068304518 42.60278664168436,41.78676574843121 42.7347529939143,43.22368900681613 42.7347529939143,45.16546803872916 42.76774458179716,46.17518897666014 42.7347529939143,46.485871769691585 42.86671934614424,47.61209463636624 42.93270252237562,49.20433471829165 42.86671934614424,50.01986958121415 42.9656941103749,50.757732857746305 42.899710934376344,52.34995896182954 42.86671934614424,52.66063640118227 42.93270252237562,53.55383253857144 42.899710934376344,54.058681544527644 43.06466887448914,55.223714997497154 42.998685698374175,56.349910401389934 43.1966352268355,57.048926458199276 43.26261840283405,57.51493640511762 43.22962681495119,59.3013022543164 43.328601579065435,60.116814137785695 43.1966352268355,60.85465662376373 43.26261840283405,61.281827894825255 43.22962681495119,61.51483019176521 43.29560999106616,62.21383617355605 43.29560999106616,63.534177085675765 43.42757634341251,64.03901203119312 43.29560999106616,65.08751310713706 43.328601579065435,65.74767887734924 43.42757634341251,66.01951148820808 43.39458475529682,66.71850868331967 43.49355951952748,67.45633757679025 43.46056793129537,67.68933585914783 43.328601579065435,67.80583494351595 42.668769817682914,68.0 41.11816517857369,67.96116699709091 40.689274533768184,67.80583494351595 40.42534182919189,67.84466796327615 37.1591746105114,67.3010053045 34.1569400964072,67.10683986922959 33.29915880667977,66.99034055767697 31.748554167570546,66.91267432886525 30.56085699715186,66.6796755415271 29.83504205965437,66.60200924542733 29.340168238501064,66.60200924542733 28.977260769810528,66.71850868331967 28.28443742066156,66.64084239566 27.954521539853886,66.6796755415271 27.063748662010767,66.71850868331967 25.513144022901542,66.36901025607949 25.183228142326698,66.40784343154519 24.424421616713516,66.2136775124527 23.203732858179137,66.17484431597404 22.543901096796617,65.94184504903387 21.917060923413374,65.86417859297944 21.52116186672356,65.6700123793562 21.158254398033023,65.59234586442471 18.914826409425586,65.32051292964024 18.419952588388696,65.2040130373498 17.034305889508687,65.08751310713706 16.869347949279472,65.04867978871334 16.605415244819596,64.85451313311933 16.50644048047252,64.50501288819942 16.605415244819596,63.961345162795624 16.902339537395164,63.34000960961566 17.034305889508687,62.8351736793702 17.067297477740794,62.13616890957928 17.00131430150941,61.592497590434505 17.034305889508687,61.12649294617586 16.902339537395164,60.23331568390131 17.100289065623656,58.91296260978561 18.05704511969816,55.49555559147848 18.28798623615876,54.291688538185554 18.716876880964264,53.165486665442586 18.980809585540555,52.15578542553703 19.27773387823254,51.68976850897889 20.003548815730028,49.78685980985756 20.300473108305596,48.54413846982061 20.597397400881164,48.078116856107954 21.09227122180164,46.95189545425819 21.52116186672356,45.67032886334346 21.75210298318416,45.28197444594116 22.213985216105357,44.73827755454113 22.873816977487877,43.65088129672222 23.632623502984643,42.563481738761766 24.12749732413795,41.63142234814586 24.6553627330577,40.854704337223666 25.183228142326698,39.72846023066086 25.77707672736142,39.0294103838678 26.238958960282616,38.13617803918896 26.96477389789652,37.126434446516214 27.459647718816996,36.272033799177734 27.987513127969578,35.068102156190434 28.28443742066156,34.75740946250153 28.482386948773637,34.407879859994864 28.845294417697005,33.51463599369163 29.010252358042635,33.203941952757305 29.373159826733172,32.77673720684834 29.637092531193048,32.54371622161125 30.197949528344907,32.34953195147682 31.616587815224193,32.38836881390307 33.20018404244911,32.23302133890684 34.123948508524336,32.31069508488872 36.03746061620768,32.19418445957126 37.52208207931835,32.0 38.577812897390686,32.11651068838546 39.732518479810096,32.11651068838546 39.96345959615428,32.07767379647703 41.61303899961058,32.15534757601563 41.8109885280719,32.11651068838546 42.14090440864675,32.31069508488872 42.206887584761716,32.54371622161125 42.23987917287741,32.815574022970395 42.17389599676244,33.59230946181924 42.40483711322304,34.679736246936955 42.40483711322304,35.18461184669286 42.53680346545298,35.65065023052739 42.437828701222315,36.194360912020784 42.437828701222315,37.165270791214425 42.503811877337284,38.09734179987572 42.47082028945442,38.75755729738739 42.503811877337284,39.68962416378781 42.60278664168436,40.233328716276446 42.569795053685084,41.010048074123915 42.668769817682914,41.74792990460992 42.60278664168436,43.18485331881675 42.668769817682914,43.30136037018383 42.63577822968364,44.19457983816392 42.70176140591502,44.54409989345004 42.668769817682914,44.97129060910083 42.70176140591502,45.903341311757686 42.76774458179716,46.40820109678316 42.83372775814496,47.61209463636624 42.93270252237562,48.2722926021961 42.83372775814496,48.97132441660506 42.86671934614424,49.9033647144679 42.998685698374175,50.7188979863422 42.9656941103749,51.961611783946864 42.86671934614424,52.6218017359497 42.899710934376344,53.04898282143404 42.899710934376344,53.59266710281372 42.9656941103749,53.98101251295884 43.097660462604836,55.961567558464594 43.06466887448914,56.46641317225294 43.13065205072053,56.73825282353209 43.06466887448914,57.39843397511868 43.13065205072053,57.78677526093088 43.1966352268355,59.18480040508439 43.36159316706471,60.000312553806 43.16364363883622,61.980834331101505 43.36159316706471,63.72834445661283 43.36159316706471,65.6700123793562 43.46056793129537,66.36901025607949 43.39458475529682,66.83500808326062 43.42757634341251,67.4175045149459 43.39458475529682,67.65050282256561 43.22962681495119,67.80583494351595 42.503811877337284,67.96116699709091 41.48107264726423,67.92233398993267 41.250131530920044,67.84466796327615 40.92021565022878,67.8835009787581 40.55730818142183,67.84466796327615 40.22739230073057,67.767001919623 39.07268671831116,67.61166978185065 38.247897016699426,67.4175045149459 36.96122508205008,67.33983837882988 36.004469028208405,67.33983837882988 35.443612031056546,67.22333914300543 32.870268161874264,66.87384120811475 31.97949528391473,66.87384120811475 29.67008411930874,66.56317609120742 29.109227122273296,66.6796755415271 28.317429008544423,66.6796755415271 27.558622483047657,66.75734182083397 26.46990007685963,66.71850868331967 25.546135611017235,66.44667660267442 25.117244965978898,66.2525107046531" stroke="#4dd2ff" stroke-linecap="round" stroke-linejoin="round" stroke-width="0.5"><title>2024-07-27 5.1km</title><desc>11997575827</desc></polyline><polyline fill="none" points="83.31735180399846,32.23428494864493 83.84807979490142,32.11714249331271 86.07050325733144,32.15618998266291 88.22658572078217,32.0 88.69097271282226,32.07809499971336 88.823654710548,32.19523746770574 88.88999570952728,32.39047482961905 88.92316620901693,33.52284944220446 88.9895072078798,34.53807882696856 88.95633670827374,34.69426770915743 89.22170070384163,35.74854089244036 89.1221892053727,36.2171057612577 89.15535970497876,37.23232755297795 89.1221892053727,38.59896775431116 89.25487120333128,40.785581292555435 89.15535970497876,41.4103255799273 89.32121220219415,43.20645937122754 89.2880417027045,43.90929189531016 89.2880417027045,45.35399888877873 89.42072370043024,45.9396892626246 89.52023519889917,47.69675467105117 89.65291719662491,51.71844990638783 89.58657619764563,53.20217079241411 89.65291719662491,55.27156077124528 89.58657619764563,56.05245956097497 89.65291719662491,56.911446274782065 89.65291719662491,57.536162598611554 89.71925819537137,57.653296788659645 89.91828119207639,59.05890409956919 89.88511069247033,59.64457219405449 89.95145169144962,60.89399428025354 89.88511069247033,61.323482121690176 89.85194019321352,62.10436779452721 89.91828119207639,63.19760489312466 89.88511069247033,64.17370664241025 89.91828119207639,64.5251026248443 89.95145169144962,66.04781458855723 90.15047468803823,67.21912710461766 90.08413368917536,67.7657383090118 89.81876969372388,67.92191278657992 88.52512021572329,68.0 87.9943922245875,68.0 87.03244774090126,67.80478193477029 86.56806074874476,67.8828691735689 86.26952625368722,67.84382555633783 83.74856829654891,67.33625814685365 81.99053182650823,67.25817078954424 79.17103937419597,66.82869002237567 77.8110488972161,66.78964629082475 76.68325191643089,66.67251507108449 75.8871599297272,66.51634005189408 74.99155644513667,66.51634005189408 73.16717897600029,66.20398981060134 71.57499500294216,66.24303360562772 70.04915202886332,65.96972695202567 69.61793553619646,65.8525954655488 68.62282055302057,65.81355162835098 65.73698710196186,65.26693746235105 63.614075137884356,65.07171791637666 63.28237014345359,64.91554220340913 63.18285864533391,64.72032246706658 63.18285864533391,64.4470146583335 63.348711142432876,63.90039841918042 63.51456363953184,62.768119285756256 63.44822264078539,62.02627930336166 63.5477341391379,61.518703698558966 63.58090463839471,59.605527683947 63.77992763509974,59.09794866887387 63.94578013243154,57.926609750807984 64.21114412788302,57.14571502315812 64.54284912219737,55.31060575085576 64.67553111992311,54.842065715260105 64.70870161952917,54.52970535311033 64.90772461600136,54.17829962191172 65.17308861156926,53.358351582865 65.23942961043213,52.85076376635698 65.43845260702074,52.30412993347272 65.83649860031437,51.406086835981114 66.10186259564944,50.42995049527963 66.56624958792236,49.18049212000915 66.83161358337384,48.79003548907349 67.42868257325608,47.30629643195425 67.76038756768685,46.17396514545544 67.9925810637651,45.705413227318786 68.62282055302057,44.88544590398669 69.05403704568744,44.18261528437142 70.28134552494157,42.34743997966871 71.74084750015754,39.73132285082829 72.76913298259024,38.24754648338421 74.0959529603133,35.904729249712545 74.52716945298016,35.006645270390436 74.85887444729451,34.49903159585665 75.25692044058815,33.639991440140875 75.85398943047039,32.859044066484785 76.15252392541151,32.585712085827254 76.58374041807838,32.39047482961905 78.80616388027556,32.35142736576381 79.50274436851032,32.27333242518944 80.29883635521401,32.312379897542996 80.89590534497984,32.23428494864493 83.48320430109743,32.11714249331271 85.70562776341103,32.23428494864493 88.22658572078217,32.03904750201036 88.65780221344903,32.11714249331271 88.75731371168513,32.23428494864493 88.85682520992123,32.46856974478578 88.88999570952728,34.03046449212707 89.15535970497876,35.631399579986464 89.05584820662625,35.94377632855321 89.02267770725302,36.2561528061633 89.1221892053727,36.91995192176546 89.05584820662625,37.62279671095894 89.1221892053727,39.57513615244534" stroke="#4dd2ff" stroke-linecap="round" stroke-linejoin="round" stroke-width="0.5"><title>2024-07-26 3.8km</title><desc>11987014491</desc></polyline><polyline fill="none" points="132.79719067295082,32.273629188217456 133.5609405633295,32.234539316938026 133.72697314829566,32.117269677546574 133.8930057331454,32.0781797892414 134.4243100049207,32.0781797892414 135.02202731044963,32.0 135.38729899737518,32.0781797892414 135.48691854812205,32.117269677546574 135.58653809910174,32.31271905536414 135.65295113332104,32.703617493156344 135.55333158222493,33.36814386502374 135.78577720106114,35.322626096603926 135.7193641671911,36.02623710694024 135.88539675204083,38.37159722627257 135.78577720106114,39.075202287727734 135.8521902349312,40.56058624270372 135.81898371805437,41.10783142072614 135.91860326903407,41.61598691390827 135.91860326903407,43.726778990530875 135.9850163029041,45.17305531798047 136.11784237076063,46.0330006548902 136.0846358538838,46.932032224023715 136.21746192185674,49.82455337178544 136.1842554048635,50.37178449277417 136.31708147272002,51.114453971909825 136.35028798971325,51.81803417284391 136.35028798971325,52.20891146926442 136.1842554048635,52.95157716542599 136.3834945068229,53.73332887751167 136.31708147272002,54.82777842783253 136.3834945068229,56.313097505655605 136.6159401255427,57.251190613693325 136.58273360866588,58.111107152624754 136.64914664253592,60.143629004072864 136.54952709155623,60.7299312556861 136.6159401255427,61.58983950089896 136.54952709155623,61.980706207454205 136.6159401255427,62.72335178274079 136.58273360866588,63.58325527558918 136.68235315952916,65.18579722361756 136.68235315952916,66.47564288822468 136.74876619351562,67.17919312496088 136.84838574449532,67.49188167852117 136.81517922738567,67.7263979158306 136.58273360866588,67.92182799713919 136.35028798971325,67.96091400072328 135.88539675204083,68.0 135.15485337853897,67.96091400072328 133.693766631186,67.76548394051497 132.0334407823393,67.7263979158306 131.20327785774134,67.49188167852117 129.57615852565505,67.37462350272108 127.71659357484896,67.10102094424656 124.82762659760192,66.8665043003275 123.53257243544795,66.71015978630749 122.968061646563,66.55381520453375 122.3039313070476,66.55381520453375 121.30773579759989,66.78833205177216 120.74322500894777,66.63198750396259 119.94626860145945,66.47564288822468 118.5848014052026,66.63198750396259 117.1569211750757,66.24112583781243 115.92828004679177,66.12386725540273 115.13132363918703,65.81117751586135 109.91790047334507,64.99036565996357 109.81828092224896,64.56041584711056 109.81828092224896,64.1304655217682 110.15034609218128,63.387822843506 110.21675912605133,62.87969802488806 110.18355260917451,61.94161955584423 110.21675912605133,61.277145830739755 110.11713957507163,60.37815001906711 110.34958519414067,59.28371731081279 110.41599822801072,58.6192386893963 110.58203081297688,57.759323361795396 110.7148568808334,57.32936492920271 111.31257418647874,54.86686585037387 111.54501980543137,54.046029087970965 111.71105239028111,53.26427805359708 111.91029149200767,52.67796366586117 112.07632407709025,52.404349958727835 112.27556317881681,51.661683135753265 112.70724789972883,50.489048196410295 112.9064870015718,50.17634490208002 113.2053456545109,49.27732142046443 113.80306296003982,47.98741424977197 114.36757374869194,46.42388422120712 115.13132363918703,45.01670140004717 117.19012769218534,41.967786451248685 118.02029061643407,40.28696334219421 119.28213826194406,38.37159722627257 120.31154028815217,36.57348916574847 120.74322500894777,35.98714764235774 121.14170321275014,35.12717835017247 121.27452928049024,34.736282539437525 121.50697489944287,34.38447594741592 121.70621400140226,33.95448964679963 122.60278995975386,32.66452766844304 123.0676811975427,32.39089877682272 123.79822457116097,32.273629188217456 124.62838749564253,32.351808918174356 127.84941964270547,32.15635956154438 129.0780607709894,32.117269677546574 129.34371290681884,32.15635956154438 130.00784324656706,32.039089896687074 130.47273448412307,32.039089896687074 131.93382123135962,32.15635956154438 132.26588640117552,32.0781797892414 132.89681022369768,32.15635956154438 134.05903831811156,32.0 134.68996214063372,32.0781797892414 135.5201250652317,32.039089896687074 135.58653809910174,32.0781797892414 135.68615765008144,32.46907848137198 135.65295113332104,33.52450283340295 135.7525706840679,34.89264091453515 135.88539675204083,35.557163252611645 135.81898371805437,36.53439976045047 135.8521902349312,37.23800840644981 135.81898371805437,38.1761511322693" stroke="#4dd2ff" stroke-linecap="round" stroke-linejoin="round" stroke-width="0.5"><title>2024-07-24 3.7km</title><desc>11969555111</desc></polyline><polyline fill="none" points="176.52576140931342,67.51536927850975 176.52576140931342,67.03073756262893 176.6159273700323,65.44221552177623 176.6159273700323,64.74218546804332 176.77371780131944,62.372837581526255 176.8413422718877,61.83434611032135 176.79625929158647,61.18815472420829 176.88642525230534,60.703510024235584 176.86388376215473,59.41111929513863 176.931508232723,58.25334659431246 176.9540497228736,55.37235267966753 177.0442156837089,53.945305293935235 176.99913270317484,53.649124567222316 177.02167419344187,52.46439794532489 176.99913270317484,51.65662638620415 177.02167419344187,50.55266745320114 177.11184015416075,49.610259402616066 177.06675717385951,49.42177734118013 176.99913270317484,49.36792529597005 176.43559544847813,49.36792529597005 175.91714117419906,49.26022116870445 174.8802326255245,49.206369086605264 174.4294028218137,49.1255909405445 173.7756996062817,49.15251699236978 173.16707937128376,49.017886702829855 172.91912297927774,49.017886702829855 172.6486250971211,49.098664885765174 171.9723803914385,49.1255909405445 171.5440920777619,48.93710849231866 170.41701756848488,48.88325633655768 169.9887292550411,48.77555198816117 169.58298243151512,48.61399537368561 169.26740156894084,48.66784759082657 168.70386431424413,48.66784759082657 168.1177855692804,48.560143144306494 167.64441427541897,48.533217024974874 166.9230865893187,48.34473410382634 166.22430039360188,48.23702950985171 165.27755780576263,48.21010335373285 163.74473647295963,48.021620174637064 163.3840726299677,47.99469399389636 163.13611623784527,47.860063044237904 163.09103325754404,47.698505803302396 163.09103325754404,47.563874684725306 163.20374070841353,47.13305458961986 163.90252690424677,45.67903096516966 164.08285882580094,45.032795369130326 164.8041865117848,43.363345226534875 165.0296014137566,42.71710329261259 165.0296014137566,42.52861572873371 164.93943545292132,42.17856699663389 165.0296014137566,41.936225262776134 165.32264078606386,41.370760249585146 165.43534823704977,40.91300186612352 165.54805568803567,40.13211786971078 166.0439684720477,37.762523036799394 166.1115929427324,37.35861245430715 166.1115929427324,37.17012061267451 166.20175890333485,36.87391884331009 166.3595493347384,35.958383752033114 166.7878376482986,34.315797189614386 167.05833553045522,33.02326202434779 167.08087702072226,32.780910893081455 167.3288334128447,32.08078400527302 167.30629192257766,32.026928004808724 167.21612596185878,32.0 167.10341851087287,32.24235193290224 167.0357940403046,32.48470361699583 166.90054509916808,33.346396479115356 166.53988125617616,34.74664067226695 166.22430039360188,36.28151418962807 165.99888549174648,37.17012061267451 165.95380251132883,37.46632201063039 165.93126102117822,38.16643292832305 165.79601207992528,38.73190561561205 165.54805568803567,39.351231290609576 165.4804312174674,39.64742995222332 165.3451822763309,40.75143987189222 165.32264078606386,41.074563749862136 164.55623011966236,42.85173717472935 164.2631907473551,43.713392202116665 163.99269286508206,44.25192499757395 162.95578431640752,46.7291600364988 162.8430768654216,47.159980868556886 162.88815984583925,47.45616973465076 163.0459502771264,47.67157958577445 163.3615311398171,47.88698924030177 163.78981945337728,47.99469399389636 165.75092909962405,48.156251032211 166.6976716875797,48.26395566291467 167.2386674520094,48.39858638236183 167.6894972558366,48.39858638236183 168.140327059431,48.479364777114824 168.47844941238873,48.42551251698751 169.38010901981033,48.479364777114824 170.73259843105916,48.69477369482047 171.4313846268924,48.77555198816117 171.63425803859718,48.85633025407151 172.44575168541633,49.07173882788629 172.78387403814122,49.044812766922405 173.48266023397446,49.1794430410082 174.00111450825352,49.1794430410082 174.33923686109483,49.233295129277394 175.48885286063887,49.206369086605264 176.34542948775925,49.31407323849271 176.9540497228736,49.287147205119254 177.11184015416075,49.36792529597005 177.1569231345784,50.444963866320904 177.08929866401013,51.252739570394624 177.13438164431136,51.629700619901996 177.08929866401013,52.27591816202039 177.11184015416075,52.94905955452123 177.06675717385951,53.13753880056902 177.0442156837089,53.78375221628812 177.06675717385951,54.56459106771217 177.02167419344187,55.237725936152856 177.0442156837089,56.287812499693246 177.02167419344187,56.42243864457123 177.0442156837089,56.5301395051647 176.99913270317484,56.934017294843215 177.0442156837089,57.553295230842195 176.97659121314064,57.984096315543866 176.99913270317484,58.98032081374549 176.9540497228736,60.218864329581265 176.97659121314064,60.6496605516586 176.88642525230534,61.43047670123633 176.90896674245596,62.23821482884523 176.86388376215473,62.7497808807675 176.88642525230534,63.20749693531252 176.90896674245596,63.422892418675474 176.86388376215473,63.719060887699015 176.90896674245596,63.907531538177864 176.90896674245596,64.41909397410927 176.7286348209018,65.19989766107756 176.68355184060056,65.33451872550359 176.6384688601829,65.6576089670707 176.5032199190464,67.24612955914927 176.52576140931342,68.0" stroke="#4dd2ff" stroke-linecap="round" stroke-linejoin="round" stroke-width="0.5"><title>2024-07-21 4.3km</title><desc>11945152036</desc></polyline><polyline fill="none" points="23.263099886476994,100.95109287742525 24.11857926659286,103.97205569199286 25.18792849034071,105.48253562580794 27.754366628825665,107.24476097361185 29.67919523268938,108.0 32.24563337024301,108.0 34.59820166323334,107.24476097361185 36.95076995622367,105.48253562580794 38.233989025466144,103.216815356398 38.87559856008738,99.69235721183941 36.523030267097056,77.28674823697656 35.453681042417884,75.52450016164221 33.9565921286121,73.76225074916147 32.03176352567971,72.50350035028532 29.893065077252686,72.0 27.112757094204426,72.25175018818118 24.54631895571947,73.258750671288 22.835360197350383,75.02100046584383 21.338271282613277,77.79024744196795 21.124401438981295,80.55949111632071 23.263099886476994,101.202839928912 23.904709422029555,103.72030894085765 25.82953802496195,105.98602871852927 28.182106317952275,107.49650734313764 30.534674610942602,108.0 33.314982594922185,107.74825368495658 35.88142073247582,106.23777522472665 37.592379490844905,104.47554911207408 38.66172871552408,102.20982786081731 38.87559856008738,99.44060999643989 36.73690011166036,77.79024744196795 35.66755088791251,75.77624996821396 34.384331818670034,74.01400074688718 32.24563337024301,72.50350035028532 30.32080476731062,72.0 27.754366628825665,72.0 24.54631895571947,73.51050072349608 22.621490352787077,75.27275032759644 21.338271282613277,78.2937465372961 21.124401438981295,80.81124037737027 23.47696973197162,102.4615747758653 24.54631895571947,104.72729578171857 25.82953802496195,105.98602871852927 27.754366628825665,107.24476097361185 30.32080476731062,108.0 32.673373060300946,108.0 34.812071507796645,106.9930145770777 37.164639801718295,104.97904242342338 38.233989025466144,103.216815356398 38.87559856008738,99.69235721183941 36.523030267097056,77.53849785355851 35.453681042417884,75.27275032759644 33.742722284048796,73.51050072349608 31.604023835621774,72.25175018818118 29.251455542631447,72.0 26.25727771408856,72.50350035028532 23.690839576534927,74.01400074688718 21.97988081816584,76.27974950103089 21.124401438981295,79.30074440105818 38.87559856008738,99.94410439929925 36.95076995622367,79.30074440105818 36.30916042160243,76.53149922587909 35.02594135329127,74.76925057731569 33.10111274942756,73.00700059183873 30.962414301000535,72.25175018818118 27.96823647338897,72.0 25.82953802496195,72.75525048514828 23.47696973197162,74.26575071783736 21.97988081816584,76.27974950103089 21.338271282613277,78.54549604374915 21.338271282613277,81.06298961187713 23.47696973197162,102.20982786081731 24.332449111156166,104.2238024158869 25.82953802496195,106.23777522472665 28.609846007078886,107.74825368495658 30.962414301000535,108.0 33.742722284048796,107.49650734313764 35.66755088791251,106.48952170298435 37.592379490844905,104.47554911207408 38.66172871552408,102.20982786081731 38.87559856008738,99.44060999643989 36.73690011166036,78.04199700360186 35.66755088791251,75.77624996821396 34.17046197317541,74.01400074688718 32.03176352567971,72.50350035028532 29.465325387194753,72.0 26.685017404146492,72.25175018818118 24.11857926659286,73.76225074916147 22.40762050729245,75.52450016164221 21.338271282613277,78.04199700360186 21.124401438981295,80.55949111632071 23.47696973197162,102.20982786081731 24.54631895571947,104.72729578171857 26.25727771408856,106.48952170298435 28.823715852573514,107.74825368495658 31.176284146495163,108.0 34.17046197317541,107.49650734313764 36.30916042160243,105.98602871852927 37.592379490844905,104.47554911207408 38.66172871552408,101.95808091876097 38.87559856008738,98.93711548461579 36.523030267097056,77.53849785355851 35.02594135329127,74.51750066154636 33.314982594922185,73.258750671288 31.39015399105847,72.25175018818118 28.823715852573514,72.0 26.685017404146492,72.25175018818118 24.11857926659286,73.76225074916147 22.193750662729144,76.02799974824302 21.338271282613277,78.04199700360186 21.124401438981295,80.81124037737027 23.263099886476994,100.95109287742525 23.690839576534927,102.96506852377206 25.18792849034071,105.48253562580794 27.112757094204426,106.9930145770777 29.67919523268938,108.0 32.45950321480632,108.0 35.02594135329127,106.9930145770777 37.164639801718295,105.230789037887 38.44785887002945,102.96506852377206 38.87559856008738,100.4475986927282 36.95076995622367,79.30074440105818 36.09529057703912,76.27974950103089 33.9565921286121,73.76225074916147 31.39015399105847,72.25175018818118 28.395976163446903,72.0 25.615668180398643,72.75525048514828 24.11857926659286,73.51050072349608 22.621490352787077,75.27275032759644 21.552141128107905,77.28674823697656 21.124401438981295,79.0489949756302 23.263099886476994,100.69934579916298 24.11857926659286,103.72030894085765 25.615668180398643,105.98602871852927 27.96823647338897,107.49650734313764 30.962414301000535,108.0 33.10111274942756,107.74825368495658 35.453681042417884,106.7412681535352 37.164639801718295,105.230789037887 38.44785887002945,102.71332166320644 38.87559856008738,100.69934579916298 38.66172871552408,98.43362086382695 29.037585698068142,72.0 27.112757094204426,72.25175018818118 38.87559856008738,98.6853681881912 36.73690011166036,78.79724552389234 35.88142073247582,76.02799974824302 34.384331818670034,74.01400074688718 31.604023835621774,72.50350035028532 28.609846007078886,72.0 26.043407870456576,72.50350035028532 24.11857926659286,73.51050072349608 22.40762050729245,75.52450016164221 21.552141128107905,77.79024744196795 21.124401438981295,79.55249379901215 23.263099886476994,100.95109287742525 24.332449111156166,104.47554911207408" stroke="#4dd2ff" stroke-linecap="round" stroke-linejoin="round" stroke-width="0.5"><title>2024-07-05 3.3km</title><desc>11814633384</desc></polyline><polyline fill="none" points="75.29568706359714,72.0 72.55372785963118,72.74483331805095 70.02268859371543,74.73105431371368 68.33532908372581,77.71038257912733 68.33532908372581,80.44143008510582 70.4445284716785,101.04831993649714 71.0772882886231,103.77933962037787 72.34280792158097,105.51725954189897 74.24108737055212,107.00690414011478 76.35028675943613,108.0 78.67040608543903,108.0 80.77960547339171,107.50345212430693 82.88880486227572,106.01380784926005 84.1543244952336,104.27588830399327 85.20892418827862,101.7931438095402 85.20892418827862,99.06212175777182 83.09972480032593,78.70349113992415 82.04512510728091,75.4758867432829 79.51408584043384,73.24138872791082 76.13936681952327,72.0 72.55372785963118,72.74483331805095 69.81176865659654,74.97933181701228 68.33532908372581,77.95865975995548 68.33532908372581,80.93798382743262 70.4445284716785,101.04831993649714 71.49912816658616,104.52416260517202 73.18648767657578,106.51035604788922 75.08476712647825,107.50345212430693 77.40488645248115,108.0 79.9359257183969,107.75172607554123 82.67788492236286,106.26208196184598 84.1543244952336,104.52416260517202 84.9980042502284,102.04141838033684 85.20892418827862,99.55867146397941 83.09972480032593,79.94487623521127 82.46696498431265,76.46899627288803 81.20144535135478,74.73105431371368 78.67040608543903,72.74483331805095 76.13936681952327,72.0 73.81924749352038,72.24827779899351 71.71004810463637,73.24138872791082 69.81176865659654,74.73105431371368 68.75716896168888,76.71727358759381 68.12440914474428,78.95176821248606 70.4445284716785,101.29659458762035 71.0772882886231,103.53106523817405 72.13188798259944,105.2689853485208 74.03016743250191,107.00690414011478 76.35028675943613,107.75172607554123 78.67040608543903,108.0 81.41236528940499,107.00690414011478 83.31064473930746,105.51725954189897 84.57616437226534,103.53106523817405 85.20892418827862,101.29659458762035 83.09972480032593,79.44832227821462 82.67788492236286,76.96555087622255 81.41236528940499,74.73105431371368 79.72500577941537,73.24138872791082 76.9830465754494,72.24827779899351 74.24108737055212,72.24827779899351 71.71004810463637,73.24138872791082 70.02268859371543,74.4827767838724 68.75716896168888,76.96555087622255 68.12440914474428,78.95176821248606 70.4445284716785,101.29659458762035 70.86636834964156,103.28279082919471 72.34280792158097,105.51725954189897 74.03016743250191,107.00690414011478 76.35028675943613,107.75172607554123 78.88132602442056,108.0 81.20144535135478,107.25517814536579 83.31064473930746,105.51725954189897 84.78708431031555,103.28279082919471 85.20892418827862,100.80004525883123 83.09972480032593,79.94487623521127 82.67788492236286,76.96555087622255 81.20144535135478,74.4827767838724 79.30316590238363,72.99311103648506 76.9830465754494,72.24827779899351 73.81924749352038,72.24827779899351 71.71004810463637,73.24138872791082 70.02268859371543,74.4827767838724 68.75716896168888,76.96555087622255 68.12440914474428,78.95176821248606 70.4445284716785,101.04831993649714 71.0772882886231,103.77933962037787 72.13188798259944,105.51725954189897 74.03016743250191,107.00690414011478 76.35028675943613,108.0 79.51408584043384,107.75172607554123 81.62328522931784,107.00690414011478 83.521564678289,105.2689853485208 84.78708431031555,103.03451639274135 85.20892418827862,100.80004525883123 83.09972480032593,80.19315317319706 82.46696498431265,76.71727358759381 81.20144535135478,74.4827767838724 78.67040608543903,72.74483331805095 76.13936681952327,72.0 72.76464779954404,72.74483331805095 70.4445284716785,73.98622164176777 69.17900883872062,75.72416416555643 68.33532908372581,77.71038257912733 68.12440914474428,79.20004525897093 70.4445284716785,101.7931438095402 71.49912816658616,104.52416260517202 72.97556773759425,106.26208196184598 75.29568706359714,107.50345212430693 77.61580639146268,108.0 80.77960547339171,107.50345212430693 82.46696498431265,106.26208196184598 84.36524443235248,104.0276139753405 85.20892418827862,101.7931438095402 85.20892418827862,99.3103966244962 83.09972480032593,78.95176821248606 82.46696498431265,76.46899627288803 81.20144535135478,74.4827767838724 79.09224596247077,72.99311103648506 76.35028675943613,72.0 73.60832755360752,72.24827779899351 71.71004810463637,72.99311103648506 70.02268859371543,74.73105431371368 68.75716896168888,76.71727358759381 68.33532908372581,78.70349113992415 70.4445284716785,101.29659458762035 71.0772882886231,103.77933962037787 72.34280792158097,105.76553370943293 74.24108737055212,107.00690414011478 76.9830465754494,108.0 79.30316590238363,107.75172607554123 81.41236528940499,107.00690414011478 83.31064473930746,105.51725954189897 84.78708431031555,103.03451639274135 85.20892418827862,100.80004525883123 83.09972480032593,79.44832227821462 82.25604504533112,76.2207189311739 80.35776559635997,73.73794403090142 77.19396651349962,72.24827779899351 74.8738471865654,72.0 71.9209680436179,72.99311103648506 70.65544841159135,73.98622164176777 69.17900883872062,75.72416416555643 68.75716896168888,76.71727358759381 68.12440914474428,79.20004525897093 70.23360853362828,100.80004525883123 71.0772882886231,103.77933962037787 72.97556773759425,106.26208196184598 74.8738471865654,107.50345212430693 77.40488645248115,108.0 79.72500577941537,107.75172607554123 81.83420516736805,106.75863010738976 83.31064473930746,105.51725954189897 84.57616437226534,103.53106523817405 85.20892418827862,101.29659458762035 82.67788492236286,77.21382813691162 81.41236528940499,74.73105431371368 79.72500577941537,73.24138872791082 77.40488645248115,72.24827779899351 74.8738471865654,72.0 72.34280792158097,72.74483331805095 70.4445284716785,74.23449922609143 68.96808890067041,75.97244156198576 68.33532908372581,78.4552140396554 70.23360853362828,100.55177055345848 71.0772882886231,103.77933962037787 72.34280792158097,105.51725954189897 74.45200730953366,107.25517814536579 77.40488645248115,108.0 79.51408584043384,107.75172607554123 82.04512510728091,106.75863010738976 83.73248461727053,105.2689853485208 84.78708431031555,103.28279082919471 85.20892418827862,100.80004525883123 83.09972480032593,78.70349113992415 82.46696498431265,76.46899627288803 80.5686855353415,73.98622164176777 78.4594861464575,72.49655557191 75.29568706359714,72.0 72.55372785963118,72.74483331805095 70.65544841159135,73.98622164176777 69.38992877863348,75.4758867432829 68.54624902363867,77.46210537198931 68.12440914474428,78.95176821248606" stroke="#4dd2ff" stroke-linecap="round" stroke-linejoin="round" stroke-width="0.5"><title>2024-06-26 3.9km</title><desc>11744480107</desc></polyline><polyline fill="none" points="130.71377185801975,72.31237989763031 132.40546787925996,72.27333242518944 134.52838053368032,72.0 135.15862022794317,72.0 135.32447277894244,72.03904750206857 135.4903253299417,72.19523746773484 135.62300737097394,72.42952228934155 135.58983686065767,74.45998436035006 135.62300737097394,74.88950371657847 135.75568941188976,75.43616397451842 135.88837145268917,77.89612486943952 135.8552009423729,78.52087416796712 135.9547124732053,79.9265561279608 135.92154196300544,81.44937206161558 136.08739451412112,83.59692205340252 136.05422400392126,84.41689230949851 136.12056502408814,85.62732118117856 136.08739451412112,86.56442461136612 136.1537355344044,87.89198363138712 136.12056502408814,88.47766987903742 136.28641757543664,90.74231441164738 136.28641757543664,91.09372349418118 136.38592910615262,91.95272203095374 136.28641757543664,92.69458275541547 136.4854406368686,94.29543490329525 136.35275859583635,95.70105531456647 136.41909961623605,96.09150445566047 136.4854406368686,98.08278849278577 136.55178165715188,98.43419041577727 136.51861114695203,99.01985952572431 136.58495216746815,99.48839412815869 136.51861114695203,100.69877236449975 136.58495216746815,100.85494990527513 136.58495216746815,101.63583659363212 136.71763420826755,102.80716345272958 136.65129318786785,103.5880459100008 136.75080471858382,105.03267399437027 136.6844636980677,106.086858400231 136.8171457388671,107.02390861633467 136.75080471858382,107.76573830907 136.45227012655232,107.8828691735689 135.82203043240588,107.8828691735689 134.95959716651123,108.0 134.26301645184867,107.92191278652172 133.46692420658655,107.72669467914966 132.6044909406919,107.5705201170058 131.27767053165007,107.49243281051167 130.51474879670423,107.29721447036718 129.22109889797866,107.1410397219297 127.13135675399099,107.06295232244884 125.7713658347493,106.78964629082475 124.97527358937077,106.71155881512095 124.57722746673971,106.71155881512095 123.54894164996222,106.59442756979843 122.58699685346801,106.36016496494994 121.95675715920515,106.39920874306699 121.3265174649423,106.32112118275836 120.46408419916406,106.04781458849902 119.80067399470136,106.16494601132581 118.9382407288067,106.16494601132581 117.97629593242891,105.96972695190925 116.71581654401962,105.96972695190925 115.65436021692585,105.81355162832187 114.82509746134747,105.54024464893155 113.33242450130638,105.4231130227854 112.33730919461232,105.1888496565225 110.01537347899284,104.9155422032054 109.84952092776075,104.64223454269813 109.84952092776075,104.44701465824619 110.24756705050822,103.47091364936205 110.21439654030837,103.15856076794444 110.28073756082449,102.57289838552242 110.14805551990867,100.659727968683 110.61244266305584,97.96565444237785 110.47976062225644,97.18475979936193 110.51293113233987,96.71622220112476 110.61244266305584,96.2476839934825 110.91097725497093,95.11538080961327 111.67389899014961,93.51453230515472 112.10511562321335,92.14794868548051 112.503161745728,91.21085977894836 112.8680373581592,90.19567737955367 113.23291297070682,89.41476589505328 113.43193603178952,88.79003548852052 114.09534623660147,87.345342274406 114.29436929768417,86.56442461136612 114.59290388971567,86.17396514498978 114.75875644083135,85.70541322676581 115.18997307377867,85.15876855191891 115.91972429864109,83.94833810607088 115.88655378855765,83.94833810607088 116.05240633955691,83.79215323607787 116.45045246218797,83.12836678358144 116.78215756441932,82.42553273585509 117.67776134051383,80.86367438736488 118.24166001437698,80.08274267386878 119.00458174943924,78.91134192922618 119.7675034845015,77.54470291300095 120.066038076533,76.84185797139071 120.46408419916406,76.25615280601778 120.92847134219483,75.04569244626327 121.55871103669051,74.53807882682304 122.78601991478354,72.58571208576905 123.15089552733116,72.35142736576381 123.31674807833042,72.31237989763031" stroke="#4dd2ff" stroke-linecap="round" stroke-linejoin="round" stroke-width="0.5"><title>2024-06-17 3.2km</title><desc>11672403120</desc></polyline><polyline fill="none" points="188.0,77.28702870756388 152.0,102.71297129243612" stroke="#4dd2ff" stroke-linecap="round" stroke-linejoin="round" stroke-width="0.5"><title>2024-05-09 8.0km</title><desc>9223370321595310162</desc></polyline><polyline fill="none" points="12.0,124.42413776181638 19.578947372734547,127.7696572439745 14.842105261981487,122.19379083625972 35.684210527688265,134.46069294400513 48.0,137.8062091646716 40.421052634716034,136.69103721156716 14.842105261981487,132.230348194018" stroke="#4dd2ff" stroke-linecap="round" stroke-linejoin="round" stroke-width="0.5"><title>2024-05-08 6.2km</title><desc>9223370321684028463</desc></polyline><polyline fill="none" points="76.66666668653488,112.0 71.10613326728344,148.0 82.22720006108284,134.90909587591887 82.22720006108284,138.18182244338095" stroke="#4dd2ff" stroke-linecap="round" stroke-linejoin="round" stroke-width="0.5"><title>2024-05-07 6.1km</title><desc>9223370321771754451</desc></polyline><polyline fill="none" points="72.29767662286758,152.0 94.14262689650059,188.0 59.19070644676685,188.0" stroke="#4dd2ff" stroke-linecap="round" stroke-linejoin="round" stroke-width="0.5"><title>2024-05-02 6.8km</title><desc>9223370322200251369</desc></polyline><polyline fill="none" points="114.33333334326744,180.59416085481644 105.33333333581686,183.62106058280915 141.33333333581686,170.00000664312392 136.19047620147467,174.5403594309464 140.0476190522313,165.45965237822384 141.33333333581686,156.37893941625953 141.33333333581686,157.89239198341966" stroke="#4dd2ff" stroke-linecap="round" stroke-linejoin="round" stroke-width="0.5"><title>2024-05-01 4.0km</title><desc>9223370322286947528</desc></polyline><polyline fill="none" points="152.0,173.65315504278988 188.0,166.34684495721012 176.82758620381355,170.7306314855814 186.7586206868291,173.65315504278988" stroke="#4dd2ff" stroke-linecap="round" stroke-linejoin="round" stroke-width="0.5"><title>2024-04-30 5.3km</title><desc>9223370322373916531</desc></polyline><polyline fill="none" points="12.0,207.49753446038812 13.530708661302924,209.1659202114679 16.592125983908772,208.49856645357795 17.7826771652326,209.4328615120612 30.708661417244002,198.28796376049286 44.59842519694939,198.42143678333377 47.31968503934331,201.1576273762039 47.88661417318508,217.50778115622234 44.59842519694939,221.3783662499045 28.78110236208886,221.51183426752687 26.11653543286957,219.91021614748752 17.38582677138038,219.50981096667238 16.875590551178902,210.9010365967406 19.199999999953434,207.8979474530206 30.87874015723355,198.28796376049286 44.42834645672701,198.42143678333377 47.036220472538844,201.02415494667366 47.88661417318508,204.22748527448857 47.54645669274032,218.50879687501583 44.20157480286434,221.64530225592898 29.177952755708247,221.64530225592898 26.456692913314328,219.97695031907642 16.705511810723692,219.10940552526154 17.215748031158,210.23368471948197 29.914960629772395,198.62164626352023 44.99527559033595,198.5549097773619 47.88661417318508,202.29214186104946 47.60314960614778,216.90717094379943 47.26299212570302,218.84246841975255 44.31496062967926,221.5785682653659 29.177952755708247,221.44510026223725 26.11653543286957,219.84348196862265 17.4992125981953,219.4430767443846 16.592125983908772,217.90818763891002 16.762204724131152,212.63614809256978 17.215748031158,210.4338903586031 30.085039370227605,198.75511921412544 44.31496062967926,198.3547002755222 47.31968503934331,201.09089116507675 47.60314960614778,218.4420625444618 44.48503936990164,221.51183426752687 43.01102362200618,221.64530225592898 29.744881889782846,221.71203623950714 26.399999999906868,220.04368448327295 17.55590551160276,219.50981096667238 16.422047243919224,215.90615262126084 16.818897637771443,213.90411109355045 17.72598425182514,213.57043687277474 16.705511810723692,213.37023225374287 16.762204724131152,212.03553312836448 19.143307086313143,208.2316247478593 30.538582677021623,198.62164626352023 45.27874015760608,199.0220650283154 47.71653543319553,201.89172522281297 47.82992125977762,217.37431227072375 44.65511810989119,221.11143012804678 28.7244094486814,221.64530225592898 24.415748031577095,219.71001358958893 17.72598425182514,219.50981096667238 16.818897637771443,218.50879687501583 16.648818897549063,212.63614809256978 17.38582677138038,209.96674376603914 30.085039370227605,198.62164626352023 44.71181102353148,198.6883827424026 47.54645669274032,201.8249890911975 48.0,207.03038564010058 47.60314960614778,217.10737441299716 44.76850393693894,221.24489820346935 28.66771653527394,221.64530225592898 26.17322834627703,219.91021614748752 17.215748031158,219.37634251493728 17.38582677138038,210.1669494921225" stroke="#4dd2ff" stroke-linecap="round" stroke-linejoin="round" stroke-width="0.5"><title>2024-04-27 9.8km</title><desc>1714200483443</desc></polyline><polyline fill="none" points="58.66666666674428,206.58475421514595 59.23004694841802,208.50796987867216 60.35680751176551,209.30378148838645 62.10328638507053,209.10482868301915 63.39906103280373,208.64060521882493 64.18779342714697,209.30378148838645 65.934272300452,208.57428755232831 67.90610328642651,207.11529707093723 68.4131455400493,206.31948261457728 69.53990610339679,205.45734911895124 72.35680751199834,202.6719864460756 74.10328638507053,201.08034494001186 76.30046948371455,198.89183110831073 79.39906103303656,198.36128112167353 83.39906103303656,198.42759989516344 84.97652582172304,198.09600595594384 86.44131455407478,198.56023742060643 90.21596244140528,198.6265561725013 91.62441314570606,198.82551238517044 93.93427230068482,201.34561881172704 94.49765258235857,204.66153250657953 94.49765258235857,208.3753345097066 94.49765258235857,212.42070032731863 94.49765258235857,216.26708892267197 93.93427230068482,218.85344007244566 91.23004694865085,221.43978029035497 87.39906103280373,221.6387290849816 83.62441314570606,221.57241282740142 79.28638497693464,221.77136157889618 75.51173708960414,221.57241282740142 73.70892018801533,220.44503534643445 71.06103286379948,219.7155546930735 67.17370892036706,219.7155546930735 64.18779342714697,219.5829217537539 63.68075117398985,218.78712351294234 63.34272300475277,214.6754827812547 63.68075117398985,211.0280364252394 64.4131455400493,209.83432198659284 65.99061032873578,208.04374596162234 67.68075117398985,207.04897923907265 70.72300469502807,204.66153250657953 73.37089201901108,202.07512136665173 76.0187793429941,199.48869929328794 77.59624413144775,198.49391866155202 81.59624413144775,198.6265561725013 84.63849765295163,199.02446853311267 85.53990610339679,198.82551238517044 87.90610328642651,198.6265561725013 91.06103286403231,198.6265561725013 92.41314554028213,199.62133658869425 94.32863849820569,202.47303148446372 94.55399061040953,206.3858005256625 94.32863849820569,209.5690517949406 94.49765258235857,212.8186037169653 94.61032863892615,216.86394015833503 92.92018779367208,219.98082048585638 90.83568075136282,221.70504533540225 86.44131455407478,221.77136157889618 83.3427230049856,221.83767781517236 79.68075117398985,221.77136157889618 75.90610328642651,221.70504533540225 73.53990610339679,220.37871895940043 71.90610328642651,219.98082048585638 70.44131455430761,220.17976975487545 66.27230046945624,219.7818711521104 64.13145539932884,219.7818711521104 63.28638497670181,218.78712351294234 63.28638497670181,214.94075075897854 63.849765258142725,210.76276675134432 65.42723004706204,209.10482868301915 67.39906103280373,207.31425052322447 69.76525821583346,205.45734911895124 72.30046948371455,202.6719864460756 75.3427230049856,200.01924830226926 77.37089201877825,198.56023742060643 81.76525821629912,198.42759989516344 83.9624413147103,198.6265561725013 85.53990610339679,198.56023742060643 89.87793427240103,198.42759989516344 91.62441314570606,198.7591936548124 94.15962441335432,201.67721098999027 94.61032863892615,204.130987522949 94.27230046968907,207.5132039107848 94.44131455430761,208.44165219785646 94.27230046968907,212.61965205462184 94.21596244140528,216.99657368724002 93.87793427240103,218.91975662496407 91.9624413147103,220.7766171740368 90.94835680769756,221.6387290849816 86.77934272331186,221.70504533540225 83.79342723009177,221.6387290849816 80.01877934276126,221.50609656237066 75.90610328642651,221.50609656237066 73.31455399049446,220.17976975487545 71.90610328642651,219.84818760381313 68.97652582172304,219.64923822699348 64.80751173733734,219.5829217537539 63.62441314570606,218.85344007244566 63.39906103280373,215.80287089245394 63.56807511742227,212.75228650326608 65.42723004706204,209.10482868301915 67.7370892020408,207.77847499377094 69.93427230068482,205.52366712340154 70.49765258235857,204.794168680266 72.24413145543076,203.20253269479144 74.04694835701957,201.34561881172704 76.80751173733734,198.95814982434968 78.49765258235857,198.56023742060643 80.69483568100259,198.7591936548124 83.51173708937131,198.6265561725013 84.97652582172304,198.95814982434968 88.0187793429941,198.56023742060643 90.94835680769756,198.56023742060643 92.97652582195587,200.2182040619664 94.44131455430761,202.34039480710635 94.32863849820569,206.3858005256625 94.27230046968907,209.37009907589527 94.38497652602382,213.21650684793713 94.32863849820569,216.99657368724002 94.21596244140528,218.52185720269335 92.52582159661688,220.31240256497404 89.65258215996437,221.70504533540225 86.44131455407478,221.77136157889618 83.17370892036706,221.77136157889618 80.30046948371455,221.90399404405616 77.93427230091766,221.77136157889618 76.46948356833309,221.77136157889618 74.04694835701957,220.97556618443923 71.62441314570606,219.84818760381313 69.59624413168058,219.5829217537539 67.11737089208327,219.38397229049588 64.35680751176551,219.5829217537539 63.68075117398985,218.9860731700319 63.23004694841802,216.0018215200398 63.62441314570606,214.01231233368162 64.52582159638405,213.68072684039362 63.849765258142725,213.68072684039362 63.56807511742227,212.1554312571534 65.03286385000683,209.43641665606992 65.934272300452,208.3753345097066 67.45539906132035,207.44688612199388 69.59624413168058,205.65630311029963 71.68075117375702,203.93203303549672 73.48356807534583,202.00880298862467 76.1877934273798,199.42238063487457 77.25821596267633,198.82551238517044 80.97652582172304,198.69287491729483 84.13145539932884,198.95814982434968 84.97652582172304,199.0907872345997 87.62441314593889,198.82551238517044 90.83568075136282,198.69287491729483 93.25821596267633,200.68243391666329 94.49765258235857,204.06466936762445 94.55399061040953,207.9774282303406 94.44131455430761,211.82384475751314 94.38497652602382,215.60392020025756 94.15962441335432,218.25659077760065 91.28638497646898,221.17451513005653 87.45539906108752,221.43978029035497 83.79342723009177,221.37346401112154 80.07511737104505,221.30714772461215 78.04694835701957,221.50609656237066 75.45539906108752,221.70504533540225 72.92018779367208,220.11345333914505 69.08920187829062,219.7818711521104 65.42723004706204,219.7155546930735 64.13145539932884,219.38397229049588 63.62441314570606,218.58817379100947 63.51173708913848,214.874433775316 63.45539906132035,212.75228650326608 63.906103286426514,210.49749696231447 65.82159624411725,208.7069228780456 67.84976525814272,206.65107209712733 70.66666666697711,204.32994194549974 73.76525821606629,201.74352940404788 76.35680751176551,199.22342461626977 77.31455399072729,198.6265561725013 81.08920187805779,198.7591936548124 85.03286385000683,199.02446853311267 87.79342723009177,198.82551238517044 91.34272300475277,198.89183110831073 93.31455399072729,200.8813894605264 94.15962441335432,202.00880298862467 94.44131455430761,204.39626007212792 94.61032863892615,207.18161489552585 94.44131455430761,211.09435382584343 94.44131455430761,214.74179978657048 94.21596244140528,217.19552392652258 93.7089201877825,218.91975662496407 91.84976525837556,221.04188250674633 89.53990610362962,221.57241282740142 85.70892018801533,221.70504533540225 81.37089201877825,221.6387290849816 78.04694835701957,221.50609656237066 75.39906103303656,221.70504533540225 73.70892018801533,220.31240256497404 71.00469483598135,219.7155546930735 66.72300469502807,219.51660527312197 64.46948356786743,219.64923822699348 63.62441314570606,219.052389708173 63.56807511742227,216.66498981101904 63.56807511742227,212.95123812288512 64.18779342714697,210.29854454507586" stroke="#4dd2ff" stroke-linecap="round" stroke-linejoin="round" stroke-width="0.5"><title>2024-04-27 10.1km</title><desc>9223370322649067555</desc></polyline><polyline fill="none" points="123.33333332836628,206.9731005989015 133.61904761195183,206.9731005989015 120.76190474629402,213.02689939923584 105.33333332836628,206.9731005989015 141.33333332836628,213.02689939923584 113.04761902987957,213.02689939923584" stroke="#4dd2ff" stroke-linecap="round" stroke-linejoin="round" stroke-width="0.5"><title>2024-04-26 5.2km</title><desc>9223370322713802999</desc></polyline><polyline fill="none" points="14.0869565224275,250.0000080873724 13.565217391587794,249.79529019829351 14.782608695328236,250.40944379928987 15.826086956076324,251.43303269089665 18.782608695328236,251.43303269089665 20.173913043923676,250.61416162212845 20.34782608691603,249.59057228639722 19.652173912152648,250.61416162212845 19.130434782244265,249.79529019829351 20.0,249.38585435261484 23.826086956076324,249.38585435261484 25.217391303740442,249.79529019829351 27.65217391308397,249.59057228639722 28.0,248.56698239664547 27.130434783175588,247.54339195194189 24.521739130839705,246.31508268648759 23.130434782244265,245.49620939791203 21.217391303740442,244.47261728951707 20.173913043923676,248.15754628519062 20.173913043923676,249.38585435261484 19.30434782616794,250.20472595468163 18.26086956448853,250.0000080873724 16.869565216824412,250.20472595468163 15.304347825236619,249.79529019829351 14.956521739251912,251.22831495699938 16.521739130839705,251.84246809210163 15.304347825236619,252.6613386287354 16.521739130839705,252.8660562071018 16.173913042992353,253.8896437678486 15.304347825236619,254.50379603740294 12.0,255.52738271059934 16.69565217383206,252.04718575940933 17.913043478503823,251.43303269089665 17.56521739065647,250.20472595468163 21.391304347664118,251.43303269089665 22.95652173925191,251.22831495699938 24.173913042992353,251.84246809210163 23.478260869160295,252.6613386287354 23.826086956076324,253.48020881030243 24.869565217755735,254.2990786364535 24.869565217755735,255.1179481075378 23.478260869160295,255.52738271059934 20.695652172900736,254.2990786364535 20.521739129908383,253.07077376369853 22.26086956448853,252.8660562071018 23.130434782244265,253.48020881030243 25.217391303740442,252.8660562071018 25.565217391587794,254.0943612131523 24.173913042992353,254.91323077329434 22.608695652335882,254.91323077329434 17.913043478503823,252.04718575940933 15.304347825236619,249.79529019829351 14.0869565224275,249.38585435261484 12.869565216824412,249.59057228639722 13.565217391587794,248.77170041936915 14.956521739251912,249.1811363970628 16.0,248.97641841915902 15.304347825236619,249.79529019829351 13.739130433648825,249.79529019829351 12.0,250.0000080873724 15.826086956076324,250.20472595468163 17.217391304671764,249.59057228639722 18.26086956448853,249.59057228639722 19.130434782244265,250.40944379928987 21.217391303740442,249.38585435261484 22.086956520564854,249.79529019829351 23.130434782244265,249.79529019829351 23.826086956076324,250.40944379928987 24.869565217755735,250.81887942238245 25.913043478503823,250.61416162212845 26.782608695328236,250.81887942238245 27.826086957007647,252.04718575940933 29.565217391587794,253.2754912978271 30.95652173925191,253.07077376369853 32.0,253.48020881030243 30.60869565140456,252.8660562071018 28.0,252.25190340471454 29.04347826074809,251.84246809210163 29.217391303740442,253.07077376369853 30.43478260934353,252.8660562071018 30.60869565140456,251.84246809210163 31.478260869160295,252.6613386287354 32.521739130839705,252.8660562071018 29.565217391587794,252.8660562071018 30.95652173925191,253.07077376369853 31.30434782616794,252.4566210275516 32.17391304299235,252.8660562071018 33.04347826074809,253.48020881030243 30.086956521496177,254.50379603740294 32.0,253.8896437678486 34.26086956541985,252.04718575940933 33.39130434859544,251.02359720063396 33.39130434859544,251.84246809210163 31.478260869160295,252.25190340471454 29.565217391587794,252.04718575940933 28.173913042992353,251.22831495699938 24.869565217755735,251.02359720063396 26.43478260934353,251.22831495699938 27.30434782616794,252.25190340471454 29.04347826074809,251.43303269089665 32.521739130839705,251.22831495699938 34.60869565233588,251.84246809210163 36.69565217383206,252.04718575940933 38.0869565224275,252.04718575940933 41.9130434775725,252.4566210275516 45.565217391587794,252.8660562071018 48.0,253.2754912978271 45.565217391587794,253.2754912978271 45.04347826167941,253.2754912978271 42.78260869625956,253.2754912978271 40.869565217755735,253.07077376369853 39.47826087009162,253.2754912978271 37.56521739065647,253.2754912978271 36.86956521682441,252.6613386287354 34.60869565233588,252.04718575940933 38.0869565224275,251.63775040290784 39.47826087009162,252.4566210275516 40.34782608691603,252.04718575940933 39.30434782616794,251.84246809210163 39.82608695700765,252.04718575940933 38.95652173925191,252.4566210275516 37.91304347850382,252.4566210275516 39.30434782616794,251.63775040290784" stroke="#4dd2ff" stroke-linecap="round" stroke-linejoin="round" stroke-width="0.5"><title>2024-04-24 3.4km</title><desc>9223370322893282018</desc></polyline><polyline fill="none" points="94.66666666790843,251.8695558840409 61.84313725680113,246.88407397922128 58.66666666790843,253.11592602077872 62.90196079015732,248.13044465705752" stroke="#4dd2ff" stroke-linecap="round" stroke-linejoin="round" stroke-width="0.5"><title>2024-04-23 3.1km</title><desc>9223370322979897699</desc></polyline></svg>