<?xml version="1.0" encoding="utf-8" ?>
<svg baseProfile="full" height="300mm" version="1.1" viewBox="0,0,200,300" width="200mm" xmlns="http://www.w3.org/2000/svg" xmlns:ev="http://www.w3.org/2001/xml-events" xmlns:xlink="http://www.w3.org/1999/xlink"><defs /><rect fill="#222222" height="300" width="200" x="0" y="0" /><text fill="#FFFFFF" style="font-size:12px; font-family:Arial; font-weight:bold;" x="10" y="20">Over 3km Runs</text><text fill="#FFFFFF" style="font-size:4px; font-family:Arial" x="10" y="280">ATHLETE</text><text fill="#FFFFFF" style="font-size:9px; font-family:Arial" x="10" y="290">L</text><text fill="#FFFFFF" style="font-size:4px; font-family:Arial" x="120" y="280">STATISTICS</text><text fill="#FFFFFF" style="font-size:3px; font-family:Arial" x="120" y="285">Number: 7</text><text fill="#FFFFFF" style="font-size:3px; font-family:Arial" x="120" y="290">Weekly: 3.5</text><text fill="#FFFFFF" style="font-size:3px; font-family:Arial" x="141" y="285">Total: 36.4 km</text><text fill="#FFFFFF" style="font-size:3px; font-family:Arial" x="141" y="290">Avg: 5.2 km</text><text fill="#FFFFFF" style="font-size:3px; font-family:Arial" x="167" y="285">Min: 3.1 km</text><text fill="#FFFFFF" style="font-size:3px; font-family:Arial" x="167" y="290">Max: 10.1 km</text><polyline fill="none" points="26.5,75.8912412840873 13.0,80.43159087374806 67.0,60.00000996515155 59.28571428358555,66.81053914688528 65.07142855972052,53.18947856687009 67.0,39.568409126251936 67.0,41.83858797699213" stroke="#4dd2ff" stroke-linecap="round" stroke-linejoin="round" stroke-width="0.5"><title>2024-05-01 4.0km</title><desc>9223370322286947528</desc></polyline><polyline fill="none" points="142.5294117666781,57.756535737309605 187.0,65.23475372977555 133.0,58.50435790186748 151.42352941259742,54.76524626975879 145.7058823518455,57.00871349312365 150.78823529183865,58.50435790186748 148.8823529407382,55.51306875934824 143.80000000074506,57.756535737309605 148.24705882743,57.00871349312365 136.81176470592618,58.50435790186748 146.34117646887898,57.00871349312365 158.4117647074163,54.76524626975879 159.68235294148326,55.51306875934824 142.5294117666781,56.26089116604999 143.16470588371158,58.50435790186748" stroke="#4dd2ff" stroke-linecap="round" stroke-linejoin="round" stroke-width="0.5"><title>2024-04-30 5.3km</title><desc>9223370322373916531</desc></polyline><polyline fill="none" points="15.183514774776995,104.82542821147945 13.587869362905622,106.80260791117325 13.335925349965692,111.74553840805311 13.335925349965692,114.90899986802833 14.17573872487992,117.77587733854307 15.855365474242717,118.96216882823501 18.458786936011165,118.66559610044351 20.390357698313892,117.97359269391745 21.566096423193812,118.96216882823501 24.16951788496226,117.87473502149805 27.1088646966964,115.69986351864645 27.864696734119207,114.51356778544141 29.544323483947664,113.22841233352665 33.74339035805315,109.07635926676448 36.346811819821596,106.7037490279181 39.62208398152143,103.44139987131348 44.241057543084025,102.65052559110336 50.20373250404373,102.74938491365174 52.55520995333791,102.25508819398237 54.7387247281149,102.94710352655966 60.365474339108914,103.0459628169192 62.465007776394486,103.34254062385298 65.90824261307716,107.0991844960954 66.74805598799139,112.04211338644382 66.74805598799139,117.57816194009501 66.74805598799139,123.60846230742754 66.74805598799139,129.34215354954358 65.90824261307716,133.1975463598501 61.877138413954526,137.05292287439806 56.16640746500343,137.3494896235643 50.53965785400942,137.2506340513355 44.07309486810118,137.54720073612407 38.44634525710717,137.2506340513355 35.758942457381636,135.57008768199012 31.81181959575042,134.48267367540393 26.017107309773564,134.48267367540393 21.566096423193812,134.28496189881116 20.810264385771006,133.09869033761788 20.30637636082247,126.96959602768766 20.810264385771006,121.53246176289394 21.902021773159504,119.75302896444919 24.253499222453684,117.08387325692456 26.77293934719637,115.6010055996594 31.307931570801884,112.04211338644382 35.2550544324331,108.1866311506601 39.202177294529974,104.33113261673134 41.55365474335849,102.84824422554811 47.51632970478386,103.0459628169192 52.05132192885503,103.63911833422026 53.39502332825214,103.34254062385298 56.92223950242624,103.0459628169192 61.62519440148026,103.0459628169192 63.64074650174007,104.52885088679614 66.49611197598279,108.77978332474595 66.83203732548282,114.61242582235718 66.49611197598279,119.35759898199467 66.74805598799139,124.20160445210058 66.91601866297424,130.23186102911131 64.39657853869721,134.87809710059082 61.289269051514566,137.44834518502466 54.7387247281149,137.54720073612407 50.119751166552305,137.64605627651326 44.66096423054114,137.54720073612407 39.03421461908147,137.44834518502466 35.50699844490737,135.47123191691935 33.071539658121765,134.87809710059082 30.88802488381043,135.1746645567473 24.673405909910798,134.58152954786783 21.48211508616805,134.58152954786783 20.222395023796707,133.09869033761788 20.222395023796707,127.36502270988422 21.062208398245275,121.13703255227301 23.413685847539455,118.66559610044351 26.353032659273595,115.99643721064785 29.880248833447695,113.22841233352665 33.659409020096064,109.07635926676448 38.1944012446329,105.12200543965446 41.21772939385846,102.94710352655966 47.768273717258126,102.74938491365174 51.04354587895796,103.0459628169192 53.39502332825214,102.94710352655966 59.86158631416038,102.74938491365174 62.465007776394486,103.24368136556586 66.24416796304286,107.59347859077388 66.91601866297424,111.25124656409025 66.4121306380257,116.29301080625737 66.66407465049997,117.67701964481967 66.4121306380257,123.90503342816373 66.32814930053428,130.42957368452335 65.82426127558574,133.29640237172134 62.968895801343024,136.06436634721467 61.45723172649741,137.3494896235643 55.2426127535291,137.44834518502466 50.79160186648369,137.3494896235643 45.164852255024016,137.15177846810548 39.03421461908147,137.15177846810548 35.171073094941676,135.1746645567473 33.071539658121765,134.6803854093887 28.704510109033436,134.38381779240444 22.489891135599464,134.28496189881116 20.726283048745245,133.1975463598501 20.390357698313892,128.65015824319562 20.64230171078816,124.10274745471543 23.413685847539455,118.66559610044351 26.856920684222132,116.68844211735995 30.132192846387625,113.32727050967515 30.972006221301854,112.23982998443535 33.5754276830703,109.86722797498805 36.26283048233017,107.0991844960954 40.377916018944234,103.54025910823839 42.89735614322126,102.94710352655966 46.17262830492109,103.24368136556586 50.371695179026574,103.0459628169192 52.55520995333791,103.54025910823839 57.090202177874744,102.94710352655966 61.45723172649741,102.94710352655966 64.48055987618864,105.41858257132117 66.66407465049997,108.58206597599201 66.49611197598279,114.61242582235718 66.4121306380257,119.06102638290031 66.58009331300855,124.79474621103145 66.49611197598279,130.42957368452335 66.32814930053428,132.70326614117948 63.80870917625725,135.37237614073092 59.52566096466035,137.44834518502466 54.7387247281149,137.54720073612407 49.86780715407804,137.54720073612407 45.58475894294679,137.74491180595942 42.05754276877269,137.54720073612407 39.874027993995696,137.54720073612407 36.26283048233017,136.36093341797823 32.65163297066465,134.6803854093887 29.628304821439087,134.28496189881116 25.93312597228214,133.98839415301336 21.81804043566808,134.28496189881116 20.810264385771006,133.3952583723585 20.138413685839623,128.94672772457125 20.726283048745245,125.98102857201593 22.06998444814235,125.48674444243079 21.062208398245275,125.48674444243079 20.64230171078816,123.21303399681346 22.825816485565156,119.15988392662257 24.16951788496226,117.57816194009501 26.43701399723068,116.19415295158979 29.628304821439087,113.52498682925943 32.73561430815607,110.95467132888734 35.423017107415944,108.08777241758071 39.45412130653858,104.23227346577914 41.04976671887562,103.34254062385298 46.592534992378205,103.14482209668495 51.295489891432226,103.54025910823839 52.55520995333791,103.73797754949192 56.502332815434784,103.34254062385298 61.289269051514566,103.14482209668495 64.90046656318009,106.11059550399659 66.74805598799139,111.15238816296915 66.83203732548282,116.98501548793865 66.66407465049997,122.71874836704228 66.58009331300855,128.3535886654863 66.24416796304286,132.30784177337773 61.96111975098029,136.65750039211707 56.250388802494854,137.05292287439806 50.79160186648369,136.95406726998044 45.24883359251544,136.8552116547362 42.22550544375554,137.15177846810548 38.362363919150084,137.44834518502466 34.58320373296738,135.0758087488357 28.87247278401628,134.58152954786783 23.413685847539455,134.48267367540393 21.48211508616805,133.98839415301336 20.726283048745245,132.80212220625253 20.558320373296738,127.26616605534218 20.474339036270976,124.10274745471543 21.146189735736698,120.74160316999769 24.001555209979415,118.07245035551023 27.024883359204978,115.0078578616376 31.223950233776122,111.54782170249382 35.84292379487306,107.69233737746254 39.70606531854719,103.93569594807923 41.13374805636704,103.0459628169192 46.76049766736105,103.24368136556586 52.63919129129499,103.63911833422026 56.75427682744339,103.34254062385298 62.04510108893737,103.44139987131348 64.98444790067151,106.40717231394956 66.24416796304286,108.08777241758071 66.66407465049997,111.64668006077409 66.91601866297424,115.79872142663226 66.66407465049997,121.63131903891917 66.66407465049997,127.06845271441853 66.32814930053428,130.7261425871984 65.57231726311147,133.29640237172134 62.80093312636018,136.4597890865989 59.3576982896775,137.2506340513355 53.646967340726405,137.44834518502466 47.180404354818165,137.3494896235643 42.22550544375554,137.15177846810548 38.27838258212432,137.44834518502466 35.758942457381636,135.37237614073092 31.72783825872466,134.48267367540393 25.34525660984218,134.18610599415842 21.986003110185266,134.38381779240444 20.726283048745245,133.49411436275113 20.64230171078816,129.93529196555028 20.64230171078816,124.39931841479847 21.566096423193812,120.44503102090675 19.71850699884817,117.57816194009501 19.80248833587393,112.93183774146019 19.886469673365355,110.75695445179008" stroke="#4dd2ff" stroke-linecap="round" stroke-linejoin="round" stroke-width="0.5"><title>2024-04-27 10.1km</title><desc>9223370322649067555</desc></polyline><polyline fill="none" points="160.0,115.45965090021491 175.42857141792774,115.45965090021491 156.1428571343422,124.54034909978509 133.0,115.45965090021491 187.0,124.54034909978509 144.5714285671711,124.54034909978509" stroke="#4dd2ff" stroke-linecap="round" stroke-linejoin="round" stroke-width="0.5"><title>2024-04-26 5.2km</title><desc>9223370322713802999</desc></polyline><polyline fill="none" points="42.57142857462168,201.18832335341722 67.0,158.81167664658278 59.28571428358555,158.81167664658278 52.857142858207226,161.8385842423886 46.4285714328289,163.3520377986133 34.857142858207226,163.3520377986133 20.71428571641445,173.9462080867961 15.571428567171097,184.54037034139037 28.428571417927742,187.56727236509323 13.0,180.00001607555896 20.71428571641445,186.05382143799216 29.71428570896387,187.56727236509323 32.28571428358555,190.59417373035103 21.99999999254942,199.6748739015311 25.857142858207226,195.13452455494553 20.71428571641445,192.10762416943908 21.99999999254942,192.10762416943908" stroke="#4dd2ff" stroke-linecap="round" stroke-linejoin="round" stroke-width="0.5"><title>2024-04-25 5.2km</title><desc>9223370322805955311</desc></polyline><polyline fill="none" points="152.82608695607632,180.92124243313447 147.60869565233588,175.0867787951138 148.65217391308397,176.62216512835585 147.86956521775573,178.15755062899552 146.82608695607632,179.38585842959583 144.21739130467176,178.15755062899552 144.73913043458015,179.69293529726565 142.91304347943515,180.30708893202245 141.86956521775573,179.38585842959583 139.52173912990838,178.46462762868032 135.8695652168244,179.07878152886406 136.1304347831756,180.0000121309422 135.34782608784735,179.69293529726565 137.17391304299235,180.6141656988766 138.73913043458015,182.14954903628677 143.17391304299235,182.14954903628677 145.26086956541985,180.92124243313447 145.5217391308397,179.38585842959583 144.47826086822897,180.92124243313447 143.69565217383206,179.69293529726565 145.00000000093132,179.07878152886406 150.73913043458015,179.07878152886406 152.82608695607632,179.69293529726565 156.47826087009162,179.38585842959583 157.0,177.85047359508462 155.69565217476338,176.3150879277382 151.78260869625956,174.47262402973138 149.69565217383206,173.24431409686804 146.82608695607632,171.7089259342756 145.26086956541985,177.23631942784414 145.26086956541985,179.07878152886406 143.9565217392519,180.30708893202245 142.39130434766412,180.0000121309422 140.30434782616794,180.30708893202245 137.9565217383206,179.69293529726565 137.4347826084122,181.84247243544087 139.78260869625956,182.76370213809423 137.9565217383206,183.9920079431031 139.78260869625956,184.2990843106527 139.26086956448853,185.83446565177292 137.9565217383206,186.7556940561626 133.0,188.29107406595722 140.0434782607481,183.0707786390558 141.86956521775573,182.14954903628677 141.34782608691603,180.30708893202245 147.08695652149618,182.14954903628677 149.43478260934353,181.84247243544087 151.26086956448853,182.76370213809423 150.21739130374044,183.9920079431031 150.73913043458015,185.22031321539544 152.30434782616794,186.44861795473844 152.30434782616794,187.67692216136493 150.21739130374044,188.29107406595722 146.04347825981677,186.44861795473844 145.78260869532824,184.606160645606 148.39130434766412,184.2990843106527 149.69565217383206,185.22031321539544 152.82608695607632,184.2990843106527 153.34782608784735,186.14154181978665 151.26086956448853,187.3698461598251 148.91304347850382,187.3698461598251 141.86956521775573,183.0707786390558 137.9565217383206,179.69293529726565 136.1304347831756,179.07878152886406 134.30434782523662,179.38585842959583 135.34782608784735,178.15755062899552 137.4347826084122,178.771704595536 139.0,178.46462762868032 137.9565217383206,179.69293529726565 135.60869565140456,179.69293529726565 133.0,180.0000121309422 138.73913043458015,180.30708893202245 140.82608695700765,179.38585842959583 142.39130434766412,179.38585842959583 143.69565217383206,180.6141656988766 146.82608695607632,179.07878152886406 148.13043478131294,179.69293529726565 149.69565217383206,179.69293529726565 150.73913043458015,180.6141656988766 152.30434782616794,181.22831913363189 153.86956521775573,180.92124243313447 155.17391304392368,181.22831913363189 156.73913043551147,183.0707786390558 159.34782608691603,184.91323694656603 161.4347826084122,184.606160645606 163.0,185.22031321539544 160.9130434775725,184.2990843106527 157.0,183.3778551069554 158.5652173915878,182.76370213809423 158.82608695607632,184.606160645606 160.6521739140153,184.2990843106527 160.9130434775725,182.76370213809423 162.21739130374044,183.9920079431031 163.78260869625956,184.2990843106527 159.34782608691603,184.2990843106527 161.4347826084122,184.606160645606 161.9565217392519,183.6849315413274 163.26086956541985,184.2990843106527 164.5652173915878,185.22031321539544 160.13043478224427,186.7556940561626 163.0,185.83446565177292 166.39130434859544,183.0707786390558 165.0869565224275,181.53539580083452 165.0869565224275,182.76370213809423 162.21739130374044,183.3778551069554 159.34782608691603,183.0707786390558 157.26086956448853,181.84247243544087 152.30434782616794,181.53539580083452 154.6521739140153,181.84247243544087 155.9565217392519,183.3778551069554 158.5652173915878,182.14954903628677 163.78260869625956,181.84247243544087 166.91304347943515,182.76370213809423 170.0434782607481,183.0707786390558 172.1304347831756,183.0707786390558 177.8695652168244,183.6849315413274 183.34782608691603,184.2990843106527 187.0,184.91323694656603 183.34782608691603,184.91323694656603 182.56521739251912,184.91323694656603 179.173913044855,184.91323694656603 176.30434782709926,184.606160645606 174.21739130467176,184.91323694656603 171.34782608691603,184.91323694656603 170.30434782616794,183.9920079431031 166.91304347943515,183.0707786390558 172.1304347831756,182.45662560430355 174.21739130467176,183.6849315413274 175.5217391308397,183.0707786390558 173.95652174018323,182.76370213809423 174.73913043551147,183.0707786390558 173.43478260934353,183.6849315413274 171.86956521775573,183.6849315413274 173.95652174018323,182.45662560430355 171.34782608691603,183.3778551069554 168.21739130467176,184.91323694656603 164.82608695700765,185.83446565177292 165.86956521775573,186.44861795473844 168.99999999906868,186.14154181978665 168.73913043551147,184.2990843106527 167.69565217383206,183.9920079431031 168.21739130467176,183.3778551069554 170.0434782607481,183.9920079431031 171.86956521775573,185.83446565177292 171.0869565224275,186.7556940561626 168.73913043551147,187.67692216136493 165.0869565224275,185.5273894497659" stroke="#4dd2ff" stroke-linecap="round" stroke-linejoin="round" stroke-width="0.5"><title>2024-04-24 3.4km</title><desc>9223370322893282018</desc></polyline><polyline fill="none" points="67.0,242.804333826527 17.764705881476402,235.3261109702289 13.0,244.67388903163373 19.352941177785397,237.19566698744893" stroke="#4dd2ff" stroke-linecap="round" stroke-linejoin="round" stroke-width="0.5"><title>2024-04-23 3.1km</title><desc>9223370322979897699</desc></polyline></svg>