<?xml version="1.0" encoding="utf-8" ?>
<svg baseProfile="full" height="300mm" version="1.1" viewBox="0,0,200,300" width="200mm" xmlns="http://www.w3.org/2000/svg" xmlns:ev="http://www.w3.org/2001/xml-events" xmlns:xlink="http://www.w3.org/1999/xlink"><defs /><rect fill="#222222" height="300" width="200" x="0" y="0" /><text fill="#FFFFFF" style="font-size:12px; font-family:Arial; font-weight:bold;" x="10" y="20">Over 3km Runs</text><text fill="#FFFFFF" style="font-size:4px; font-family:Arial" x="10" y="280">ATHLETE</text><text fill="#FFFFFF" style="font-size:9px; font-family:Arial" x="10" y="290">L</text><text fill="#FFFFFF" style="font-size:4px; font-family:Arial" x="120" y="280">STATISTICS</text><text fill="#FFFFFF" style="font-size:3px; font-family:Arial" x="120" y="285">Number: 15</text><text fill="#FFFFFF" style="font-size:3px; font-family:Arial" x="120" y="290">Weekly: 5.0</text><text fill="#FFFFFF" style="font-size:3px; font-family:Arial" x="141" y="285">Total: 85.8 km</text><text fill="#FFFFFF" style="font-size:3px; font-family:Arial" x="141" y="290">Avg: 5.7 km</text><text fill="#FFFFFF" style="font-size:3px; font-family:Arial" x="167" y="285">Min: 3.0 km</text><text fill="#FFFFFF" style="font-size:3px; font-family:Arial" x="167" y="290">Max: 10.1 km</text><polyline fill="none" points="55.599999994039536,38.744434453547 12.400000005960464,69.255565546453" stroke="#4dd2ff" stroke-linecap="round" stroke-linejoin="round" stroke-width="0.5"><title>2024-05-09 8.0km</title><desc>9223370321595310162</desc></polyline><polyline fill="none" points="78.39999999850988,47.30896531417966 87.49473684281111,51.32358869165182 81.81052631139755,44.63254900369793 106.82105262577534,59.352831532247365 121.59999999403954,63.36745099723339 112.50526315718889,62.029244653880596 81.81052631139755,56.676417832262814" stroke="#4dd2ff" stroke-linecap="round" stroke-linejoin="round" stroke-width="0.5"><title>2024-05-08 6.2km</title><desc>9223370321684028463</desc></polyline><polyline fill="none" points="166.00000002980232,32.400000002235174 159.32735992968082,75.60000000149012 172.67264008522034,59.89091505110264 172.67264008522034,63.818186931312084" stroke="#4dd2ff" stroke-linecap="round" stroke-linejoin="round" stroke-width="0.5"><title>2024-05-07 6.1km</title><desc>9223370321771754451</desc></polyline><polyline fill="none" points="28.757211923599243,128.40000000223517 54.97115224599838,171.60000000149012 13.028847724199295,171.60000000149012" stroke="#4dd2ff" stroke-linecap="round" stroke-linejoin="round" stroke-width="0.5"><title>2024-05-02 6.8km</title><desc>9223370322200251369</desc></polyline><polyline fill="none" points="89.20000000298023,162.71299302764237 78.39999999850988,166.34527269937098 121.59999999403954,150.00000797212124 115.42857142537832,155.4484313186258 120.05714285373688,144.55158285424113 121.59999999403954,133.65472730062902 121.59999999403954,135.47087038122118" stroke="#4dd2ff" stroke-linecap="round" stroke-linejoin="round" stroke-width="0.5"><title>2024-05-01 4.0km</title><desc>9223370322286947528</desc></polyline><polyline fill="none" points="144.39999999850988,154.3837860506028 187.60000000149012,145.61621394753456 174.1931034475565,150.87675778195262 186.11034481972456,154.3837860506028" stroke="#4dd2ff" stroke-linecap="round" stroke-linejoin="round" stroke-width="0.5"><title>2024-04-30 5.3km</title><desc>9223370322373916531</desc></polyline><polyline fill="none" points="12.399999999906868,194.99704135244247 14.236850393237546,196.9991042536567 17.910551180597395,196.19827974418877 19.339212598046288,197.31943381438032 34.85039370064624,183.94555651256815 51.518110235920176,184.10572413995396 54.78362204693258,187.38915285136318 55.463937007589266,207.00933738739695 51.518110235920176,211.65403949981555 32.53732283436693,211.81420112098567 29.339842519257218,209.89225937688025 18.862992125563323,209.41177315992536 18.250708661042154,199.08124391600722 21.03999999957159,195.47753694356652 35.05448818858713,183.94555651256815 51.31401574774645,184.10572413995396 54.44346456672065,187.22898593591526 55.463937007589266,191.07298232929315 55.05574803124182,208.21055624994915 51.04188976320438,211.97436270705657 33.013543306617066,211.97436270705657 29.748031495604664,209.97234038281022 18.0466141726356,208.93128663027892 18.65889763715677,198.28042166330852 33.89795275544748,184.34597551613115 51.99433070817031,184.26589173270622 55.463937007589266,188.75057023321278 55.12377952714451,206.28860513248947 54.71559055079706,208.61096210364485 51.17795275547542,211.8942819183576 33.013543306617066,211.73412031459156 29.339842519257218,209.81217836227734 18.99905511760153,209.3316920932266 17.910551180597395,207.48982516664546 18.114645668771118,201.16337771102553 18.65889763715677,198.52066843025386 34.10204724385403,184.50614305684576 51.17795275547542,184.02564033056842 54.78362204693258,187.3090693979757 55.12377952714451,208.13047505327268 51.38204724364914,211.81420112098567 49.61322834622115,211.97436270705657 33.693858267506585,212.05444348737365 29.679999999701977,210.0524213798344 19.067086613737047,209.41177315992536 17.70645669242367,205.08738314540824 18.182677165139467,202.68493331217906 19.27118110191077,202.28452424728312 18.0466141726356,202.04427870444488 18.114645668771118,200.44263975397917 20.971968503436074,195.87794969737297 34.64629921223968,184.34597551613115 52.3344881888479,184.82647803390864 55.25984251964837,188.27007026731735 55.39590551168658,206.84917472483357 51.58614173159003,211.33371615357464 32.469291338231415,211.97436270705657 27.298897637519985,209.65201630740194 19.27118110191077,209.41177315992536 18.182677165139467,208.21055624994915 17.978582676965743,201.16337771102553 18.862992125563323,197.96009251917712 34.10204724385403,184.34597551613115 51.65417322795838,184.42605929076672 55.05574803124182,188.18998690939043 55.5999999998603,194.43646276800428 55.12377952714451,206.5288492955151 51.72220472432673,211.49387784407008 32.4012598420959,211.97436270705657 29.407874015392736,209.89225937688025 18.65889763715677,209.25161101785488 18.862992125563323,198.2003393904888" stroke="#4dd2ff" stroke-linecap="round" stroke-linejoin="round" stroke-width="0.5"><title>2024-04-27 9.8km</title><desc>1714200483443</desc></polyline><polyline fill="none" points="78.39999999990687,193.90170505811693 79.07605633791536,196.2095638544415 80.42816901393235,197.16453778604046 82.52394366171211,196.9257944195997 84.07887323922478,196.3687262625317 85.02535211248323,197.16453778604046 87.121126760263,196.28914506273577 89.48732394352555,194.53835648513632 90.09577464777976,193.58337913750438 91.44788732402958,192.5488189427415 94.82816901407205,189.20638373529073 96.92394366185181,187.2964139279793 99.56056338036433,184.6701973299496 103.27887323941104,184.0335373459966 108.07887323945761,184.11311987420777 109.97183098574169,183.71520714712096 111.72957746475004,184.2722849047277 116.25915492954664,184.35186740697827 117.94929577456787,184.59061486221617 120.72112676058896,187.61474257404916 121.39718309859745,191.59383900789544 121.39718309859745,196.05040141160134 121.39718309859745,200.90484039275907 121.39718309859745,205.52050670719473 120.72112676058896,208.62412808689987 117.47605633805506,211.72773634834448 112.87887323903851,211.9664749020012 108.34929577447474,211.88689539284678 103.14366197190247,212.1256338946405 98.61408450710587,211.88689539284678 96.450704225339,210.53404241573298 93.27323943632655,209.65866563166492 88.60845070425421,209.65866563166492 85.02535211248323,209.4995061045047 84.41690140846185,208.54454821551917 84.0112676054705,203.61057933745906 84.41690140846185,199.233643710264 85.29577464796603,197.8011863839347 87.18873239425011,195.6524951539468 89.21690140874125,194.45877508685226 92.86760563380085,191.59383900789544 96.04507042234764,188.49014563998207 99.22253521136008,185.38643915194552 101.11549295764416,184.19270239386242 105.9154929574579,184.35186740697827 109.56619718321599,184.82936223968863 110.64788732375018,184.59061486221617 113.48732394329272,184.35186740697827 117.27323943679221,184.35186740697827 118.89577464829199,185.54560390638653 121.19436619756743,188.96763778134482 121.46478873235174,193.66296063078335 121.19436619756743,197.48286215390544 121.39718309859745,201.38232446037 121.53239436633885,206.23672818997875 119.50422535231337,209.97698458301602 117.00281690130942,212.0460544024827 111.72957746475004,212.1256338946405 108.01126760570332,212.20521337818354 103.61690140864812,212.1256338946405 99.08732394338585,212.0460544024827 96.24788732384332,210.45446275128052 94.28732394357212,209.97698458301602 92.5295774647966,210.21572370582726 87.52676056325436,209.73824538249755 84.95774647896178,209.73824538249755 83.94366197171621,208.54454821551917 83.94366197171621,203.92890091077425 84.61971830949187,198.91532010160154 86.51267605624162,196.9257944195997 88.87887323927134,194.77710062783444 91.71830985881388,192.5488189427415 94.76056338008493,189.20638373529073 98.41126760561019,186.0230979627231 100.8450704223942,184.2722849047277 106.11830985918641,184.11311987420777 108.7549295774661,184.35186740697827 110.64788732375018,184.2722849047277 115.85352112655528,184.11311987420777 117.94929577456787,184.5110323857516 120.99154929583892,188.01265318796504 121.53239436633885,190.9571850275388 121.12676056358032,195.01584469294176 121.32957746484317,196.1299826374161 121.12676056358032,201.14358246553456 121.0591549295932,206.3958884246531 120.65352112660185,208.70370794995688 118.3549295773264,210.9319406087743 117.13802816905081,211.9664749020012 112.1352112677414,212.0460544024827 108.55211267597042,211.9664749020012 104.02253521117382,211.80731587478658 99.08732394338585,211.80731587478658 95.97746478836052,210.21572370582726 94.28732394357212,209.81782512459904 90.77183098578826,209.57908587233396 85.76901408447884,209.4995061045047 84.34929577470757,208.62412808689987 84.07887323922478,204.96344507095637 84.28169014072046,201.30274380394258 86.51267605624162,196.9257944195997 89.28450704202987,195.33416999247856 91.92112676054239,192.6284005480702 92.59718309855089,191.7530024163425 94.69295774633065,189.84303923370317 96.85633802809753,187.61474257404916 100.16901408461854,184.7497797892429 102.19718309841119,184.2722849047277 104.83380281692371,184.5110323857516 108.214084507199,184.35186740697827 109.97183098574169,184.7497797892429 113.62253521126695,184.2722849047277 117.13802816905081,184.2722849047277 119.57183098606765,186.26184487435967 121.32957746484317,188.80847376852762 121.19436619756743,193.66296063078335 121.12676056358032,197.24411889107432 121.26197183085606,201.85980821750127 121.19436619756743,206.3958884246531 121.0591549295932,208.22622864320874 119.03098591556773,210.37488307792228 115.58309859177098,212.0460544024827 111.72957746475004,212.1256338946405 107.80845070420764,212.1256338946405 104.3605633804109,212.28479285287904 101.52112676063552,212.1256338946405 99.76338028186001,212.1256338946405 96.85633802809753,211.17067942133872 93.94929577456787,209.81782512459904 91.5154929580167,209.4995061045047 88.5408450702671,209.26076674857177 85.22816901397891,209.4995061045047 84.41690140846185,208.7832878039917 83.8760563377291,205.20218582404777 84.34929577470757,202.81477480038302 85.43098591524176,202.41687220847234 84.61971830949187,202.41687220847234 84.28169014072046,200.58651750854915 86.0394366197288,197.32369998726062 87.121126760263,196.05040141160134 88.94647887325846,194.9362633464043 91.5154929580167,192.78756373235956 94.01690140832216,190.71843964257278 96.18028169008903,188.41056358627975 99.42535211262293,185.30685676186113 100.70985915488563,184.59061486221617 105.17183098569512,184.4314499007305 108.95774647872895,184.7497797892429 109.97183098574169,184.90894468151964 113.14929577475414,184.59061486221617 117.00281690130942,184.4314499007305 119.90985915483907,186.81892069999594 121.39718309859745,190.87760324112605 121.46478873235174,195.57291387638543 121.32957746484317,200.18861370894592 121.26197183085606,204.72470424027415 120.99154929583892,207.90790893312078 117.54366197157651,211.40941815607948 112.94647887302563,211.72773634834448 108.55211267597042,211.64815681328764 104.0901408449281,211.56857726949966 101.65633802814409,211.80731587478658 98.54647887311876,212.0460544024827 95.50422535208054,210.13614400691586 90.90704225352965,209.73824538249755 86.51267605624162,209.65866563166492 84.95774647896178,209.26076674857177 84.34929577470757,208.3058085491648 84.21408450673334,203.84932053030934 84.14647887321189,201.30274380394258 84.68732394347899,198.59699635475408 86.98591549275443,196.4483074536547 89.41971830953844,193.9812865165295 92.80000000004657,191.19593033456476 96.51830985909328,188.09223528479924 99.62816901388578,185.06810953945387 100.77746478863992,184.35186740697827 105.30704225343652,184.5110323857516 110.0394366197288,184.82936223968863 113.35211267601699,184.59061486221617 117.61126760556363,184.6701973299496 119.97746478859335,187.0576673526084 120.99154929583892,188.41056358627975 121.32957746484317,191.27551208651857 121.53239436633885,194.61793787463102 121.32957746484317,199.31322459096555 121.32957746484317,203.69015974382637 121.0591549295932,206.63462871185038 120.45070422510616,208.70370794995688 118.21971830981784,211.25025900808396 115.44788732402958,211.88689539284678 110.85070422524586,212.0460544024827 105.64507042244077,211.9664749020012 101.65633802814409,211.80731587478658 98.47887323936448,212.0460544024827 96.450704225339,210.37488307792228 93.2056338028051,209.65866563166492 88.06760563375428,209.41992632771144 85.36338028125465,209.57908587233396 84.34929577470757,208.86286764981924 84.28169014072046,205.9979877732112 84.28169014072046,201.54148574743886 85.02535211248323,198.35825345409103" stroke="#4dd2ff" stroke-linecap="round" stroke-linejoin="round" stroke-width="0.5"><title>2024-04-27 10.1km</title><desc>9223370322649067555</desc></polyline><polyline fill="none" points="166.00000001490116,194.36772071942687 178.34285713732243,194.36772071942687 162.91428571939468,201.63227928057313 144.40000000596046,194.36772071942687 187.6000000089407,201.63227928057313 153.6571428477764,201.63227928057313" stroke="#4dd2ff" stroke-linecap="round" stroke-linejoin="round" stroke-width="0.5"><title>2024-04-26 5.2km</title><desc>9223370322713802999</desc></polyline><polyline fill="none" points="80.90434782672673,246.00000970461406 80.27826086990535,245.75434823776595 81.73913043458015,246.49133255891502 82.99130434729159,247.71963922888972 86.53913043439388,247.71963922888972 88.20869565289468,246.73699394636787 88.41739130485803,245.50868674344383 87.58260869514197,246.73699394636787 86.95652173925191,245.75434823776595 88.00000000093132,245.26302522304468 92.59130434785038,245.26302522304468 94.26086956541985,245.75434823776595 97.18260869663209,245.50868674344383 97.6000000005588,244.2803788757883 96.5565217398107,243.05207034223713 93.42608695756644,241.57809922355227 91.75652173906565,240.59545127744786 89.4608695646748,239.3671407471411 88.20869565289468,243.78905554208905 88.20869565289468,245.26302522304468 87.16521739121526,246.24567114538513 85.9130434775725,246.00000970461406 84.24347826093435,246.24567114538513 82.36521739140153,245.75434823776595 81.94782608747482,247.47397794830613 83.82608695700765,248.21096171042882 82.36521739140153,249.1936063542962 83.82608695700765,249.43926744838245 83.4086956512183,250.66757252137177 82.36521739140153,251.40455524483696 78.40000000037253,252.63285925262608 84.034782608971,248.4566229111515 85.49565217457712,247.71963922888972 85.07826086971909,246.24567114538513 89.66956521756947,247.71963922888972 91.5478260871023,247.47397794830613 93.00869565177709,248.21096171042882 92.17391304299235,249.1936063542962 92.59130434785038,250.17625057208352 93.84347826149315,251.15889436355792 93.84347826149315,252.14153772895224 92.17391304299235,252.63285925262608 88.83478260785341,251.15889436355792 88.62608695682138,249.68492851639166 90.71304347831756,249.43926744838245 91.75652173906565,250.17625057208352 94.26086956541985,249.43926744838245 94.67826087027788,250.91323345550336 93.00869565177709,251.89587692776695 91.13043478317559,251.89587692776695 85.49565217457712,248.4566229111515 82.36521739140153,245.75434823776595 80.90434782672673,245.26302522304468 79.44347826112062,245.50868674344383 80.27826086990535,244.52604050305672 81.94782608747482,245.01736367633566 83.20000000018626,244.77170210285112 82.36521739140153,245.75434823776595 80.48695652093738,245.75434823776595 78.40000000037253,246.00000970461406 82.99130434729159,246.24567114538513 84.66086956579238,245.50868674344383 85.9130434775725,245.50868674344383 86.95652173925191,246.49133255891502 89.4608695646748,245.26302522304468 90.50434782542288,245.75434823776595 91.75652173906565,245.75434823776595 92.59130434785038,246.49133255891502 93.84347826149315,246.98265530681238 95.09565217420459,246.73699394636787 96.13913043495268,246.98265530681238 97.39130434859544,248.4566229111515 99.47826087009162,249.9305895571597 101.14782608672976,249.68492851639166 102.40000000037253,250.17625057208352 100.73043478280306,249.43926744838245 97.6000000005588,248.70228408556432 98.85217391327024,248.21096171042882 99.06086956523359,249.68492851639166 100.5217391308397,249.43926744838245 100.73043478280306,248.21096171042882 101.77391304261982,249.1936063542962 103.02608695719391,249.43926744838245 99.47826087009162,249.43926744838245 101.14782608672976,249.68492851639166 101.5652173915878,248.94794523296878 102.60869565233588,249.43926744838245 103.6521739140153,250.17625057208352 100.10434782598168,251.40455524483696 102.40000000037253,250.66757252137177 105.11304347869009,248.4566229111515 104.069565217942,247.22831664071418 104.069565217942,248.21096171042882 101.77391304261982,248.70228408556432 99.47826087009162,248.4566229111515 97.80869565252215,247.47397794830613 93.84347826149315,247.22831664071418 95.72173913102597,247.47397794830613 96.76521739177406,248.70228408556432 98.85217391327024,247.71963922888972 103.02608695719391,247.47397794830613 105.53043478354812,248.21096171042882 108.034782608971,248.4566229111515 109.70434782654047,248.4566229111515 114.29565217345953,248.94794523296878 118.67826087027788,249.43926744838245 121.6000000005588,249.9305895571597 118.67826087027788,249.9305895571597 118.05217391438782,249.9305895571597 115.33913043607026,249.9305895571597 113.04347826167941,249.68492851639166 111.37391304410994,249.9305895571597 109.07826086971909,249.9305895571597 108.24347826093435,249.1936063542962 105.53043478354812,248.4566229111515 109.70434782654047,247.96530048316345 111.37391304410994,248.94794523296878 112.41739130485803,248.4566229111515 111.16521739214659,248.21096171042882 111.79130434896797,248.4566229111515 110.74782608728856,248.94794523296878 109.49565217457712,248.94794523296878 111.16521739214659,247.96530048316345" stroke="#4dd2ff" stroke-linecap="round" stroke-linejoin="round" stroke-width="0.5"><title>2024-04-24 3.4km</title><desc>9223370322893282018</desc></polyline><polyline fill="none" points="187.60000000149012,248.24346706084907 148.21176470816135,242.2608887758106 144.39999999850988,249.73911122512072 149.48235294222832,243.75653358828276" stroke="#4dd2ff" stroke-linecap="round" stroke-linejoin="round" stroke-width="0.5"><title>2024-04-23 3.1km</title><desc>9223370322979897699</desc></polyline></svg>