<?xml version="1.0" encoding="utf-8" ?>
<svg baseProfile="full" height="300mm" version="1.1" viewBox="0,0,200,300" width="200mm" xmlns="http://www.w3.org/2000/svg" xmlns:ev="http://www.w3.org/2001/xml-events" xmlns:xlink="http://www.w3.org/1999/xlink"><defs /><rect fill="#222222" height="300" width="200" x="0" y="0" /><text fill="#FFFFFF" style="font-size:12px; font-family:Arial; font-weight:bold;" x="10" y="20">Over 3km Runs</text><text fill="#FFFFFF" style="font-size:4px; font-family:Arial" x="10" y="280">ATHLETE</text><text fill="#FFFFFF" style="font-size:9px; font-family:Arial" x="10" y="290">L</text><text fill="#FFFFFF" style="font-size:4px; font-family:Arial" x="120" y="280">STATISTICS</text><text fill="#FFFFFF" style="font-size:3px; font-family:Arial" x="120" y="285">Number: 24</text><text fill="#FFFFFF" style="font-size:3px; font-family:Arial" x="120" y="290">Weekly: 2.7</text><text fill="#FFFFFF" style="font-size:3px; font-family:Arial" x="141" y="285">Total: 121.6 km</text><text fill="#FFFFFF" style="font-size:3px; font-family:Arial" x="141" y="290">Avg: 5.1 km</text><text fill="#FFFFFF" style="font-size:3px; font-family:Arial" x="167" y="285">Min: 3.0 km</text><text fill="#FFFFFF" style="font-size:3px; font-family:Arial" x="167" y="290">Max: 10.1 km</text><polyline fill="none" points="36.91920215450227,32.233272969024256 37.6458009488415,32.15551532950485 38.99991688365117,32.31103059172165 40.35403281857725,32.15551532950485 41.31182213826105,32.15551532950485 41.5760398816783,32.07775767316343 42.071448150556535,32.19439415141824 42.236584240105,32.42766699407366 42.30263867590111,33.01084843714489 42.20355702214874,33.47739290885511 42.20355702214874,33.86617950483924 42.467774765449576,35.537957066175295 42.40172032965347,36.237768615363166 42.43474754760973,36.93757879914483 42.43474754760973,38.72597639905871 42.566856419318356,40.203341603657464 42.5998836371582,42.65264419387677 42.73199250875041,43.78009532063152 42.76501972670667,44.596523234504275 42.73199250875041,45.52958143205615 42.864101380691864,46.890286953013856 42.76501972670667,48.67863493048935 42.83107416261919,49.028528057126096 42.89712859853171,50.58360449082102 42.864101380691864,51.36114017959335 42.93015581648797,52.17755083888187 42.864101380691864,52.72182357948623 42.99621025228407,53.732613621104974 42.96318303432781,54.54901888323366 43.06226468808018,55.2487933433149 43.06226468808018,56.02631892019417 43.227400777628645,57.425860711722635 43.128319123992696,58.358885539346375 43.227400777628645,58.90314890144509 43.32648243138101,59.95279733935604 43.194373559905216,60.963567006459925 43.293455213541165,61.430075123062124 43.26042799570132,61.74108019703999 43.32648243138101,63.45160328489146 43.227400777628645,64.22911108314293 43.359509649453685,64.96774193065357 43.359509649453685,65.70637125737267 43.49161852104589,66.36724883955321 43.45859130320605,67.30025041266344 43.359509649453685,67.68900035184924 43.26042799570132,67.80562525149435 43.06226468808018,67.88337516353931 41.6420943174744,68.0 40.71733221563045,67.84450020967051 39.924678985378705,67.61125039769104 38.70267192227766,67.49462543491973 38.009100346127525,67.30025041266344 37.05131102632731,67.26137539549381 34.177943067159504,66.9503751071461 31.700901723001152,66.79487486183643 30.74311240320094,66.8337499294139 29.98348639102187,66.98925015793066 29.42202368634753,66.98925015793066 28.563316020416096,66.67824963355088 27.80369000812061,66.7559997899225 26.61471016309224,66.60049946032814 25.524811971583404,66.60049946032814 25.260594228166156,66.48387416894548 24.831240395316854,66.48387416894548 24.1046416007448,66.3283737214224 23.345015588682145,66.13399806729285 22.51933514070697,66.0562477762287 21.000083116116002,65.55087047291454 20.73586537281517,65.43424484023126 20.372565975761972,65.35649439730332 20.04229379654862,65.3176191697421 19.28266778436955,65.39536962093553 18.88634116924368,65.3176191697421 18.357905682525598,65.0843677149096 17.036816965439357,64.92886666071718 16.673517568502575,64.812240825966 16.54140869679395,64.61786435035174 16.50838147883769,64.4234877692943 16.772599222138524,63.879232782375766 16.87168087589089,63.49047871478251 16.937735311803408,61.3523238125199 16.83865365816746,60.419306770316325 17.102871401468292,59.175280272815144 17.234980273176916,58.08675354864681 18.093687938991934,54.39351326224278 18.556068990030326,53.188342414214276 18.655150643666275,52.60519377604942 19.183586130617186,51.205633176636184 19.678994399379008,50.19483601435786 19.943212142796256,49.4172977975104 20.24045710405335,48.639757895318326 20.537702065426856,48.134356055030366 21.033110334188677,46.695900766033446 21.165219205780886,46.38488264786429 22.387226269114763,44.28550329597783 22.816580101964064,43.78009532063152 23.609233331982978,42.22498939128127 24.07161438302137,41.680700723227346 24.963349266909063,40.24221955315443 25.19453979237005,39.77568388072541 25.756002497044392,38.95924499380635 26.8459006883204,36.85982217959827 27.341308957198635,36.276646994723706 27.770662790397182,35.61571397242369 27.96882609766908,34.993658250634326 28.563316020416096,33.90505814136122 28.761479327920824,33.399635538924485 29.455050904187374,32.69981845226721 29.752295865560882,32.5443033586198 30.181649698643014,32.42766699407366 30.941275710822083,32.38878819756792 31.337602325715125,32.31103059172165 33.45134427282028,32.42766699407366 34.40913359262049,32.233272969024256 35.89535839902237,32.233272969024256 36.22563057823572,32.15551532950485 37.71185538475402,32.07775767316343 38.735699140350334,32.11663650337141 39.62743402412161,32.03887883864809 41.14668604871258,32.07775767316343 41.77420318918303,32.0 42.071448150556535,32.15551532950485 42.236584240105,32.62206091385451" stroke="#4dd2ff" stroke-linecap="round" stroke-linejoin="round" stroke-width="0.5"><title>2024-07-31 3.5km</title><desc>12027390271</desc></polyline><polyline fill="none" points="83.73324103699997,32.03896298777545 84.56070876179729,32.15585192598519 85.28888035973068,32.1168889508408 86.38113775651436,32.272740826098016 88.36706029612105,32.07792597141815 88.73114609508775,32.15585192598519 88.83044222206809,32.31170378442039 88.96283705811948,33.16888779783039 88.92973834904842,34.22088356578024 89.09523189393803,35.42872676171828 89.02903447602876,36.519678418000694 89.16142931184731,38.19506201471086 89.19452802091837,40.1042105476954 89.26072543894406,40.649679694732185 89.26072543894406,41.896463208278874 89.36002156604081,42.94843343415414 89.42621898371726,45.32509557309095 89.52551511093043,46.06536417757161 89.49241640197579,48.636811695294455 89.55861382000148,49.18226789493929 89.59171252895612,50.234216799988644 89.59171252895612,52.10434058608371 89.52551511093043,52.883555959007936 89.62481123791076,53.50692704113317 89.52551511093043,54.831587001972366 89.72410736477468,55.72767773710075 89.82340349187143,56.81856779125519 89.9557983278064,57.55881272853003 89.92269961873535,58.33801627901266 90.05509445478674,58.96137790338253 90.05509445478674,59.46785842734971 89.92269961873535,60.6756167972344 90.02199574571569,62.97424248562311 89.9557983278064,63.519676932221046 89.98889703676105,63.83135338732973 89.9557983278064,64.10407006391324 90.05509445478674,65.19493470154703 90.02199574571569,65.70140644386993 90.12129187269602,66.63642932460061 90.12129187269602,67.61040890609729 89.98889703676105,67.80520450582844 89.75720607384574,67.92208181490423 88.69804738613311,68.0 87.60578998923302,67.88312271615723 86.87761839129962,67.68832715865574 83.73324103699997,67.33769488925464 82.93887202104088,67.18185821527732 81.28393657144625,67.10393985299743 78.13955921703018,66.75330701365601 77.0473018202465,66.87018466470181 76.3191302223131,66.8312254519551 74.9951818624977,66.94810307779699 74.2670102645643,66.8312254519551 73.50573995767627,66.8312254519551 72.61207481496967,66.63642932460061 71.55291612714063,66.5195515974774 70.95713936525863,66.20787747274153 70.36136260349303,66.09099960626918 69.1698090796126,66.09099960626918 68.04445297387429,65.66244710443425 66.55501106905285,65.46765034380951 64.80077949247789,65.15597530719242 64.53598982025869,65.15597530719242 64.17190402140841,65.03909709883737 63.47683113266248,64.96117827211856 63.27823887870181,64.84430000034627 63.2120414605597,64.72742169068079 63.24514016963076,64.33782705053454 63.37753500556573,64.10407006391324 63.44373242359143,63.675515193579486 63.50992984150071,62.234008698753314 63.60922596848104,61.766491837624926 63.60922596848104,59.62369844503701 63.774719513603486,59.19513823380112 63.87401564058382,58.29905614166637 64.07260789454449,57.675693368772045 64.20500273047946,57.01336923838244 64.10570660349913,56.467924920638325 64.13880531257018,56.11728170796414 64.27120014838874,55.649756892293226 64.60218723851722,55.143270989268785 65.33035883621778,52.72771301949979 65.52895109029487,52.416026937862625 65.66134592611343,51.83161480657873 65.9261355982162,51.24720172508387 66.02543172508013,50.896553420228884 67.44867621199228,47.70174199886969 67.94515684666112,46.18224855462904 68.34234135469887,45.59782628889661 68.54093360865954,45.16924935686984 69.13671037054155,44.351055613165954 69.56699358753394,43.844553790957434 70.16277034941595,42.6367388732906 70.52685614838265,42.130234635522356 70.4937574393116,42.130234635522356 71.58601483621169,40.22109686318436 72.21489030704834,39.28600527520757 72.74446965090465,38.27298664316186 73.9691218836233,36.285903341922676 74.96208315354306,34.41569725898444 75.78955087834038,33.16888779783039 76.18673538637813,32.70133313478436 76.6832160212798,32.467555575305596 77.01420311117545,32.38962968828855 79.76139595767017,32.272740826098016 80.3571727196686,32.31170378442039 81.25083786249161,32.2337778636429 82.11140429624356,32.272740826098016 82.97197073011193,32.15585192598519 84.03112941794097,32.15585192598519 84.95789326971862,32.0 85.78536099451594,32.07792597141815 86.1825455025537,32.03896298777545 87.83748095226474,32.07792597141815 88.53255384112708,32.03896298777545 88.7642448041588,32.15585192598519 88.92973834904842,32.467555575305596 88.92973834904842,34.142958058888325 89.09523189393803,35.42872676171828 89.0621331849834,35.97420300383237 89.16142931184731,37.57166437935666 89.16142931184731,38.311948950984515 89.12833060300909,38.5067604270298 89.19452802091837,39.09119422145886 89.19452802091837,40.06524843414081 89.26072543894406,40.649679694732185 89.22762672998942,41.234110005083494 89.26072543894406,41.818539365252946 89.22762672998942,42.091272741614375 89.39312027499545,43.143242397374706 89.32692285685334,44.234170640673256 89.39312027499545,44.77963352072402 89.45931769290473,44.97444149159128 89.42621898371726,45.48094172167475 89.49241640197579,45.831595309253316 89.45931769290473,46.06536417757161 89.55861382000148,46.41601719483151 89.52551511093043,47.857587117207004 89.42621898371726,48.40304449931136 89.49241640197579,49.22122902047704 89.45931769290473,49.6498011216172 89.59171252895612,50.351099821564276 89.55861382000148,50.896553420228884 89.59171252895612,52.22122299965122 89.55861382000148,53.0783595382818 89.62481123791076,53.74069091831916 89.59171252895612,54.05237585149007 89.6579099468654,54.71470543704345 89.6579099468654,55.493915151950205 89.79030478291679,56.27312317796168 89.79030478291679,57.05232951507787 89.72410736477468,57.75361377446097 89.85650220082607,59.27305831032572 89.75720607384574,60.130178035848076 89.88960090989713,61.026255564036546 89.85650220082607,61.68857230167487 89.98889703676105,63.013202116359025 89.88960090989713,63.83135338732973 89.98889703676105,65.46765034380951 89.92269961873535,66.12995889937156 90.12129187269602,67.41561320080655 90.02199574571569,67.72728627867764 89.92269961873535,67.84416361313197 89.36002156604081,68.0 87.70508611609694,67.9610409095767 86.21564421150833,67.68832715865574 85.0240906876279,67.53249063668773 84.59380747075193,67.57144977358985 83.76633974607103,67.33769488925464 83.53464878292289,67.33769488925464 81.87971333344467,67.10393985299743 81.08534431748558,67.10393985299743 78.9008295238018,66.75330701365601 78.47054630692583,66.75330701365601 78.04026308993343,66.79226623495924 76.9149069840787,66.75330701365601 76.3853276403388,66.6753885584476 75.95504442322999,66.6753885584476 75.39236637041904,66.48059234663378 75.02828057145234,66.44163309154101 73.50573995767627,66.59747008635895 72.77756835985929,66.55851084413007 71.71840967203025,66.32475530117517 70.85784323827829,66.3637145687826 70.36136260349303,66.09099960626918" stroke="#4dd2ff" stroke-linecap="round" stroke-linejoin="round" stroke-width="0.5"><title>2024-07-29 5.1km</title><desc>12014148662</desc></polyline><polyline fill="none" points="130.69045747234486,32.23302133890684 131.35028923361097,32.34953195147682 133.52773404610343,32.31069508488872 135.04534709721338,32.15534757601563 135.34227138990536,32.27185821393505 135.54022091813385,32.58255306305364 135.60620409436524,33.00975804059999 135.57321250624955,33.94183985973359 135.6721872704802,34.44671649939846 135.6721872704802,35.106938723882195 135.87013679882511,35.805996223702095 135.77116203459445,36.699234377534594 135.87013679882511,37.3206161276612 135.83714521070942,39.61195201749797 135.96911156305578,40.50518068304518 135.9361199750565,41.78676574843121 136.06808632728644,43.22368900681613 136.06808632728644,45.16546803872916 136.1010779151693,46.17518897666014 136.06808632728644,46.485871769691585 136.20005267951638,47.61209463636624 136.26603585574776,49.20433471829165 136.20005267951638,50.01986958121415 136.29902744374704,50.757732857746305 136.23304426774848,52.34995896182954 136.20005267951638,52.66063640118227 136.26603585574776,53.55383253857144 136.23304426774848,54.058681544527644 136.39800220786128,55.223714997497154 136.3320190317463,56.349910401389934 136.52996856020764,57.048926458199276 136.5959517362062,57.51493640511762 136.56296014832333,59.3013022543164 136.66193491243757,60.116814137785695 136.52996856020764,60.85465662376373 136.5959517362062,61.281827894825255 136.56296014832333,61.51483019176521 136.6289433244383,62.21383617355605 136.6289433244383,63.534177085675765 136.76090967678465,64.03901203119312 136.6289433244383,65.08751310713706 136.66193491243757,65.74767887734924 136.76090967678465,66.01951148820808 136.72791808866896,66.71850868331967 136.82689285289962,67.45633757679025 136.7939012646675,67.68933585914783 136.66193491243757,67.80583494351595 136.00210315105505,68.0 134.45149851194583,67.96116699709091 134.02260786714032,67.80583494351595 133.75867516256403,67.84466796327615 130.49250794388354,67.3010053045 127.49027342977934,67.10683986922959 126.63249214005191,66.99034055767697 125.08188750094268,66.91267432886525 123.894190330524,66.6796755415271 123.16837539302651,66.60200924542733 122.6735015718732,66.60200924542733 122.31059410318267,66.71850868331967 121.6177707540337,66.64084239566 121.28785487322602,66.6796755415271 120.3970819953829,66.71850868331967 118.84647735627368,66.36901025607949 118.51656147569884,66.40784343154519 117.75775495008565,66.2136775124527 116.53706619155128,66.17484431597404 115.87723443016876,65.94184504903387 115.25039425678551,65.86417859297944 114.8544952000957,65.6700123793562 114.49158773140516,65.59234586442471 112.24815974279772,65.32051292964024 111.75328592176083,65.2040130373498 110.36763922288083,65.08751310713706 110.20268128265161,65.04867978871334 109.93874857819173,64.85451313311933 109.83977381384466,64.50501288819942 109.93874857819173,63.961345162795624 110.2356728707673,63.34000960961566 110.36763922288083,62.8351736793702 110.40063081111293,62.13616890957928 110.33464763488155,61.592497590434505 110.36763922288083,61.12649294617586 110.2356728707673,60.23331568390131 110.4336223989958,58.91296260978561 111.3903784530703,55.49555559147848 111.6213195695309,54.291688538185554 112.0502102143364,53.165486665442586 112.3141429189127,52.15578542553703 112.61106721160468,51.68976850897889 113.33688214910217,49.78685980985756 113.63380644167773,48.54413846982061 113.9307307342533,48.078116856107954 114.42560455517378,46.95189545425819 114.8544952000957,45.67032886334346 115.0854363165563,45.28197444594116 115.5473185494775,44.73827755454113 116.20715031086002,43.65088129672222 116.96595683635678,42.563481738761766 117.46083065751009,41.63142234814586 117.98869606642984,40.854704337223666 118.51656147569884,39.72846023066086 119.11041006073356,39.0294103838678 119.57229229365475,38.13617803918896 120.29810723126866,37.126434446516214 120.79298105218913,36.272033799177734 121.32084646134172,35.068102156190434 121.6177707540337,34.75740946250153 121.81572028214578,34.407879859994864 122.17862775106914,33.51463599369163 122.34358569141477,33.203941952757305 122.70649316010531,32.77673720684834 122.97042586456519,32.54371622161125 123.53128286171705,32.34953195147682 124.94992114859633,32.38836881390307 126.53351737582125,32.23302133890684 127.45728184189647,32.31069508488872 129.37079394957982,32.19418445957126 130.8554154126905,32.0 131.91114623076282,32.11651068838546 133.06585181318223,32.11651068838546 133.29679292952642,32.07767379647703 134.94637233298272,32.15534757601563 135.14432186144404,32.11651068838546 135.4742377420189,32.31069508488872 135.54022091813385,32.54371622161125 135.57321250624955,32.815574022970395 135.50722933013458,33.59230946181924 135.73817044659518,34.679736246936955 135.73817044659518,35.18461184669286 135.87013679882511,35.65065023052739 135.77116203459445,36.194360912020784 135.77116203459445,37.165270791214425 135.83714521070942,38.09734179987572 135.80415362282656,38.75755729738739 135.83714521070942,39.68962416378781 135.9361199750565,40.233328716276446 135.90312838705722,41.010048074123915 136.00210315105505,41.74792990460992 135.9361199750565,43.18485331881675 136.00210315105505,43.30136037018383 135.96911156305578,44.19457983816392 136.03509473928716,44.54409989345004 136.00210315105505,44.97129060910083 136.03509473928716,45.903341311757686 136.1010779151693,46.40820109678316 136.1670610915171,47.61209463636624 136.26603585574776,48.2722926021961 136.1670610915171,48.97132441660506 136.20005267951638,49.9033647144679 136.3320190317463,50.7188979863422 136.29902744374704,51.961611783946864 136.20005267951638,52.6218017359497 136.23304426774848,53.04898282143404 136.23304426774848,53.59266710281372 136.29902744374704,53.98101251295884 136.43099379597697,55.961567558464594 136.39800220786128,56.46641317225294 136.46398538409267,56.73825282353209 136.39800220786128,57.39843397511868 136.46398538409267,57.78677526093088 136.52996856020764,59.18480040508439 136.69492650043685,60.000312553806 136.49697697220836,61.980834331101505 136.69492650043685,63.72834445661283 136.69492650043685,65.6700123793562 136.7939012646675,66.36901025607949 136.72791808866896,66.83500808326062 136.76090967678465,67.4175045149459 136.72791808866896,67.65050282256561 136.56296014832333,67.80583494351595 135.83714521070942,67.96116699709091 134.81440598063637,67.92233398993267 134.58346486429218,67.84466796327615 134.25354898360092,67.8835009787581 133.89064151479397,67.84466796327615 133.5607256341027,67.767001919623 132.4060200516833,67.61166978185065 131.58123035007156,67.4175045149459 130.29455841542222,67.33983837882988 129.33780236158054,67.33983837882988 128.77694536442868,67.22333914300543 126.2036014952464,66.87384120811475 125.31282861728687,66.87384120811475 123.00341745268088,66.56317609120742 122.44256045564543,66.6796755415271 121.65076234191656,66.6796755415271 120.8919558164198,66.75734182083397 119.80323341023177,66.71850868331967 118.87946894438937,66.44667660267442 118.45057829935104,66.2525107046531" stroke="#4dd2ff" stroke-linecap="round" stroke-linejoin="round" stroke-width="0.5"><title>2024-07-27 5.1km</title><desc>11997575827</desc></polyline><polyline fill="none" points="176.6506851372542,32.23428494864493 177.18141312815715,32.11714249331271 179.40383659058716,32.15618998266291 181.5599190540379,32.0 182.02430604607798,32.07809499971336 182.15698804380372,32.19523746770574 182.223329042783,32.39047482961905 182.25649954227265,33.52284944220446 182.32284054113552,34.53807882696856 182.28967004152946,34.69426770915743 182.55503403709736,35.74854089244036 182.45552253862843,36.2171057612577 182.4886930382345,37.23232755297795 182.45552253862843,38.59896775431116 182.588204536587,40.785581292555435 182.4886930382345,41.4103255799273 182.65454553544987,43.20645937122754 182.62137503596023,43.90929189531016 182.62137503596023,45.35399888877873 182.75405703368597,45.9396892626246 182.8535685321549,47.69675467105117 182.98625052988064,51.71844990638783 182.91990953090135,53.20217079241411 182.98625052988064,55.27156077124528 182.91990953090135,56.05245956097497 182.98625052988064,56.911446274782065 182.98625052988064,57.536162598611554 183.0525915286271,57.653296788659645 183.25161452533212,59.05890409956919 183.21844402572606,59.64457219405449 183.28478502470534,60.89399428025354 183.21844402572606,61.323482121690176 183.18527352646925,62.10436779452721 183.25161452533212,63.19760489312466 183.21844402572606,64.17370664241025 183.25161452533212,64.5251026248443 183.28478502470534,66.04781458855723 183.48380802129395,67.21912710461766 183.41746702243108,67.7657383090118 183.1521030269796,67.92191278657992 181.858453548979,68.0 181.32772555784322,68.0 180.36578107415698,67.80478193477029 179.90139408200048,67.8828691735689 179.60285958694294,67.84382555633783 177.08190162980463,67.33625814685365 175.32386515976395,67.25817078954424 172.5043727074517,66.82869002237567 171.14438223047182,66.78964629082475 170.0165852496866,66.67251507108449 169.22049326298293,66.51634005189408 168.3248897783924,66.51634005189408 166.500512309256,66.20398981060134 164.90832833619788,66.24303360562772 163.38248536211904,65.96972695202567 162.95126886945218,65.8525954655488 161.9561538862763,65.81355162835098 159.07032043521758,65.26693746235105 156.94740847114008,65.07171791637666 156.6157034767093,64.91554220340913 156.51619197858963,64.72032246706658 156.51619197858963,64.4470146583335 156.6820444756886,63.90039841918042 156.84789697278757,62.768119285756256 156.7815559740411,62.02627930336166 156.88106747239362,61.518703698558966 156.91423797165044,59.605527683947 157.11326096835546,59.09794866887387 157.27911346568726,57.926609750807984 157.54447746113874,57.14571502315812 157.8761824554531,55.31060575085576 158.00886445317883,54.842065715260105 158.0420349527849,54.52970535311033 158.24105794925708,54.17829962191172 158.50642194482498,53.358351582865 158.57276294368785,52.85076376635698 158.77178594027646,52.30412993347272 159.1698319335701,51.406086835981114 159.43519592890516,50.42995049527963 159.89958292117808,49.18049212000915 160.16494691662956,48.79003548907349 160.7620159065118,47.30629643195425 161.09372090094257,46.17396514545544 161.32591439702082,45.705413227318786 161.9561538862763,44.88544590398669 162.38737037894316,44.18261528437142 163.6146788581973,42.34743997966871 165.07418083341327,39.73132285082829 166.10246631584596,38.24754648338421 167.42928629356902,35.904729249712545 167.86050278623588,35.006645270390436 168.19220778055023,34.49903159585665 168.59025377384387,33.639991440140875 169.18732276372612,32.859044066484785 169.48585725866724,32.585712085827254 169.9170737513341,32.39047482961905 172.13949721353129,32.35142736576381 172.83607770176604,32.27333242518944 173.63216968846973,32.312379897542996 174.22923867823556,32.23428494864493 176.81653763435315,32.11714249331271 179.03896109666675,32.23428494864493 181.5599190540379,32.03904750201036 181.99113554670475,32.11714249331271 182.09064704494085,32.23428494864493 182.19015854317695,32.46856974478578 182.223329042783,34.03046449212707 182.4886930382345,35.631399579986464 182.38918153988197,35.94377632855321 182.35601104050875,36.2561528061633 182.45552253862843,36.91995192176546 182.38918153988197,37.62279671095894 182.45552253862843,39.57513615244534" stroke="#4dd2ff" stroke-linecap="round" stroke-linejoin="round" stroke-width="0.5"><title>2024-07-26 3.8km</title><desc>11987014491</desc></polyline><polyline fill="none" points="39.46385733957868,72.27362918821746 40.22760722995736,72.23453931693803 40.39363981492352,72.11726967754657 40.55967239977326,72.0781797892414 41.09097667154856,72.0781797892414 41.68869397707749,72.0 42.053965664003044,72.0781797892414 42.15358521474991,72.11726967754657 42.253204765729606,72.31271905536414 42.3196177999489,72.70361749315634 42.21999824885279,73.36814386502374 42.452443867689,75.32262609660393 42.38603083381895,76.02623710694024 42.552063418668695,78.37159722627257 42.452443867689,79.07520228772773 42.51885690155905,80.56058624270372 42.48565038468223,81.10783142072614 42.58526993566193,81.61598691390827 42.58526993566193,83.72677899053087 42.651682969531976,85.17305531798047 42.78450903738849,86.0330006548902 42.75130252051167,86.93203222402371 42.8841285884846,89.82455337178544 42.85092207149137,90.37178449277417 42.98374813934788,91.11445397190982 43.01695465634111,91.81803417284391 43.01695465634111,92.20891146926442 42.85092207149137,92.95157716542599 43.05016117345076,93.73332887751167 42.98374813934788,94.82777842783253 43.05016117345076,96.3130975056556 43.282606792170554,97.25119061369332 43.24940027529374,98.11110715262475 43.31581330916379,100.14362900407286 43.21619375818409,100.7299312556861 43.282606792170554,101.58983950089896 43.21619375818409,101.9807062074542 43.282606792170554,102.72335178274079 43.24940027529374,103.58325527558918 43.34901982615702,105.18579722361756 43.34901982615702,106.47564288822468 43.41543286014348,107.17919312496088 43.51505241112318,107.49188167852117 43.48184589401353,107.7263979158306 43.24940027529374,107.92182799713919 43.01695465634111,107.96091400072328 42.552063418668695,108.0 41.821520045166835,107.96091400072328 40.36043329781387,107.76548394051497 38.700107448967174,107.7263979158306 37.8699445243692,107.49188167852117 36.24282519228291,107.37462350272108 34.38326024147682,107.10102094424656 31.494293264229782,106.8665043003275 30.199239102075808,106.71015978630749 29.634728313190863,106.55381520453375 28.970597973675467,106.55381520453375 27.97440246422775,106.78833205177216 27.409891675575636,106.63198750396259 26.612935268087313,106.47564288822468 25.25146807183046,106.63198750396259 23.823587841703556,106.24112583781243 22.59494671341963,106.12386725540273 21.797990305814892,105.81117751586135 16.584567139972933,104.99036565996357 16.48494758887682,104.56041584711056 16.48494758887682,104.1304655217682 16.817012758809142,103.387822843506 16.88342579267919,102.87969802488806 16.850219275802374,101.94161955584423 16.88342579267919,101.27714583073976 16.783806241699494,100.3781500190671 17.016251860768534,99.28371731081279 17.082664894638583,98.6192386893963 17.248697479604743,97.7593233617954 17.381523547461256,97.32936492920271 17.979240853106603,94.86686585037387 18.211686472059228,94.04602908797096 18.377719056908973,93.26427805359708 18.576958158635534,92.67796366586117 18.74299074371811,92.40434995872783 18.942229845444672,91.66168313575326 19.37391456635669,90.4890481964103 19.573153668199666,90.17634490208002 19.872012321138754,89.27732142046443 20.469729626667686,87.98741424977197 21.0342404153198,86.42388422120712 21.797990305814892,85.01670140004717 23.856794358813204,81.96778645124868 24.68695728306193,80.28696334219421 25.948804928571917,78.37159722627257 26.978206954780035,76.57348916574847 27.409891675575636,75.98714764235774 27.808369879378006,75.12717835017247 27.941195947118104,74.73628253943752 28.173641566070728,74.38447594741592 28.37288066803012,73.95448964679963 29.269456626381725,72.66452766844304 29.73434786417056,72.39089877682272 30.464891237788834,72.27362918821746 31.29505416227039,72.35180891817436 34.51608630933333,72.15635956154438 35.74472743761726,72.11726967754657 36.0103795734467,72.15635956154438 36.674509913194925,72.03908989668707 37.13940115075093,72.03908989668707 38.60048789798748,72.15635956154438 38.93255306780338,72.0781797892414 39.563476890325546,72.15635956154438 40.72570498473942,72.0 41.356628807261586,72.0781797892414 42.18679173185956,72.03908989668707 42.253204765729606,72.0781797892414 42.3528243167093,72.46907848137198 42.3196177999489,73.52450283340295 42.41923735069577,74.89264091453515 42.552063418668695,75.55716325261164 42.48565038468223,76.53439976045047 42.51885690155905,77.23800840644981 42.48565038468223,78.1761511322693" stroke="#4dd2ff" stroke-linecap="round" stroke-linejoin="round" stroke-width="0.5"><title>2024-07-24 3.7km</title><desc>11969555111</desc></polyline><polyline fill="none" points="83.19242807594128,107.51536927850975 83.19242807594128,107.03073756262893 83.28259403666016,105.44221552177623 83.28259403666016,104.74218546804332 83.4403844679473,102.37283758152626 83.50800893851556,101.83434611032135 83.46292595821433,101.18815472420829 83.5530919189332,100.70351002423558 83.53055042878259,99.41111929513863 83.59817489935085,98.25334659431246 83.62071638950147,95.37235267966753 83.71088235033676,93.94530529393523 83.6657993698027,93.64912456722232 83.68834086006973,92.46439794532489 83.6657993698027,91.65662638620415 83.68834086006973,90.55266745320114 83.7785068207886,89.61025940261607 83.73342384048738,89.42177734118013 83.6657993698027,89.36792529597005 83.10226211510599,89.36792529597005 82.58380784082692,89.26022116870445 81.54689929215237,89.20636908660526 81.09606948844157,89.1255909405445 80.44236627290957,89.15251699236978 79.83374603791162,89.01788670282986 79.5857896459056,89.01788670282986 79.31529176374897,89.09866488576517 78.63904705806635,89.1255909405445 78.21075874438975,88.93710849231866 77.08368423511274,88.88325633655768 76.65539592166897,88.77555198816117 76.24964909814298,88.61399537368561 75.9340682355687,88.66784759082657 75.37053098087199,88.66784759082657 74.78445223590825,88.5601431443065 74.31108094204683,88.53321702497487 73.58975325594656,88.34473410382634 72.89096706022974,88.23702950985171 71.94422447239049,88.21010335373285 70.41140313958749,88.02162017463706 70.05073929659557,87.99469399389636 69.80278290447313,87.8600630442379 69.7576999241719,87.6985058033024 69.7576999241719,87.5638746847253 69.8704073750414,87.13305458961986 70.56919357087463,85.67903096516966 70.7495254924288,85.03279536913033 71.47085317841265,83.36334522653488 71.69626808038447,82.71710329261259 71.69626808038447,82.52861572873371 71.60610211954918,82.17856699663389 71.69626808038447,81.93622526277613 71.98930745269172,81.37076024958515 72.10201490367763,80.91300186612352 72.21472235466354,80.13211786971078 72.71063513867557,77.7625230367994 72.77825960936025,77.35861245430715 72.77825960936025,77.17012061267451 72.86842556996271,76.8739188433101 73.02621600136627,75.95838375203311 73.45450431492645,74.31579718961439 73.72500219708309,73.02326202434779 73.74754368735012,72.78091089308145 73.99550007947255,72.08078400527302 73.97295858920552,72.02692800480872 73.88279262848664,72.0 73.77008517750073,72.24235193290224 73.70246070693247,72.48470361699583 73.56721176579595,73.34639647911536 73.20654792280402,74.74664067226695 72.89096706022974,76.28151418962807 72.66555215837434,77.17012061267451 72.62046917795669,77.46632201063039 72.59792768780608,78.16643292832305 72.46267874655314,78.73190561561205 72.21472235466354,79.35123129060958 72.14709788409527,79.64742995222332 72.01184894295875,80.75143987189222 71.98930745269172,81.07456374986214 71.22289678629022,82.85173717472935 70.92985741398297,83.71339220211667 70.65935953170992,84.25192499757395 69.62245098303538,86.7291600364988 69.50974353204947,87.15998086855689 69.55482651246712,87.45616973465076 69.71261694375426,87.67157958577445 70.02819780644495,87.88698924030177 70.45648612000514,87.99469399389636 72.4175957662519,88.156251032211 73.36433835420758,88.26395566291467 73.90533411863726,88.39858638236183 74.35616392246448,88.39858638236183 74.80699372605886,88.47936477711482 75.14511607901659,88.42551251698751 76.0467756864382,88.47936477711482 77.39926509768702,88.69477369482047 78.09805129352026,88.77555198816117 78.30092470522504,88.85633025407151 79.11241835204419,89.07173882788629 79.45054070476908,89.0448127669224 80.14932690060232,89.1794430410082 80.66778117488138,89.1794430410082 81.0059035277227,89.2332951292774 82.15551952726673,89.20636908660526 83.01209615438711,89.31407323849271 83.62071638950147,89.28714720511925 83.7785068207886,89.36792529597005 83.82358980120625,90.4449638663209 83.75596533063799,91.25273957039462 83.80104831093922,91.629700619902 83.75596533063799,92.27591816202039 83.7785068207886,92.94905955452123 83.73342384048738,93.13753880056902 83.71088235033676,93.78375221628812 83.73342384048738,94.56459106771217 83.68834086006973,95.23772593615286 83.71088235033676,96.28781249969325 83.68834086006973,96.42243864457123 83.71088235033676,96.5301395051647 83.6657993698027,96.93401729484322 83.71088235033676,97.5532952308422 83.6432578797685,97.98409631554387 83.6657993698027,98.9803208137455 83.62071638950147,100.21886432958127 83.6432578797685,100.6496605516586 83.5530919189332,101.43047670123633 83.57563340908382,102.23821482884523 83.53055042878259,102.7497808807675 83.5530919189332,103.20749693531252 83.57563340908382,103.42289241867547 83.53055042878259,103.71906088769902 83.57563340908382,103.90753153817786 83.57563340908382,104.41909397410927 83.39530148752965,105.19989766107756 83.35021850722842,105.33451872550359 83.30513552681077,105.6576089670707 83.16988658567425,107.24612955914927 83.19242807594128,108.0" stroke="#4dd2ff" stroke-linecap="round" stroke-linejoin="round" stroke-width="0.5"><title>2024-07-21 4.3km</title><desc>11945152036</desc></polyline><polyline fill="none" points="116.59643321949989,100.95109287742525 117.45191259961575,103.97205569199286 118.5212618233636,105.48253562580794 121.08769996184856,107.24476097361185 123.01252856571227,108.0 125.5789667032659,108.0 127.93153499625623,107.24476097361185 130.28410328924656,105.48253562580794 131.56732235848904,103.216815356398 132.20893189311028,99.69235721183941 129.85636360011995,77.28674823697656 128.78701437544078,75.52450016164221 127.289925461635,73.76225074916147 125.3650968587026,72.50350035028532 123.22639841027558,72.0 120.44609042722732,72.25175018818118 117.87965228874236,73.258750671288 116.16869353037328,75.02100046584383 114.67160461563617,77.79024744196795 114.45773477200419,80.55949111632071 116.59643321949989,101.202839928912 117.23804275505245,103.72030894085765 119.16287135798484,105.98602871852927 121.51543965097517,107.49650734313764 123.8680079439655,108.0 126.64831592794508,107.74825368495658 129.2147540654987,106.23777522472665 130.9257128238678,104.47554911207408 131.99506204854697,102.20982786081731 132.20893189311028,99.44060999643989 130.07023344468325,77.79024744196795 129.0008842209354,75.77624996821396 127.71766515169293,74.01400074688718 125.5789667032659,72.50350035028532 123.65413810033351,72.0 121.08769996184856,72.0 117.87965228874236,73.51050072349608 115.95482368580997,75.27275032759644 114.67160461563617,78.2937465372961 114.45773477200419,80.81124037737027 116.81030306499451,102.4615747758653 117.87965228874236,104.72729578171857 119.16287135798484,105.98602871852927 121.08769996184856,107.24476097361185 123.65413810033351,108.0 126.00670639332384,108.0 128.14540484081954,106.9930145770777 130.4979731347412,104.97904242342338 131.56732235848904,103.216815356398 132.20893189311028,99.69235721183941 129.85636360011995,77.53849785355851 128.78701437544078,75.27275032759644 127.07605561707169,73.51050072349608 124.93735716864467,72.25175018818118 122.58478887565434,72.0 119.59061104711145,72.50350035028532 117.02417290955782,74.01400074688718 115.31321415118873,76.27974950103089 114.45773477200419,79.30074440105818 132.20893189311028,99.94410439929925 130.28410328924656,79.30074440105818 129.64249375462532,76.53149922587909 128.35927468631417,74.76925057731569 126.43444608245045,73.00700059183873 124.29574763402343,72.25175018818118 121.30156980641186,72.0 119.16287135798484,72.75525048514828 116.81030306499451,74.26575071783736 115.31321415118873,76.27974950103089 114.67160461563617,78.54549604374915 114.67160461563617,81.06298961187713 116.81030306499451,102.20982786081731 117.66578244417906,104.2238024158869 119.16287135798484,106.23777522472665 121.94317934010178,107.74825368495658 124.29574763402343,108.0 127.07605561707169,107.49650734313764 129.0008842209354,106.48952170298435 130.9257128238678,104.47554911207408 131.99506204854697,102.20982786081731 132.20893189311028,99.44060999643989 130.07023344468325,78.04199700360186 129.0008842209354,75.77624996821396 127.5037953061983,74.01400074688718 125.3650968587026,72.50350035028532 122.79865872021765,72.0 120.01835073716938,72.25175018818118 117.45191259961575,73.76225074916147 115.74095384031534,75.52450016164221 114.67160461563617,78.04199700360186 114.45773477200419,80.55949111632071 116.81030306499451,102.20982786081731 117.87965228874236,104.72729578171857 119.59061104711145,106.48952170298435 122.1570491855964,107.74825368495658 124.50961747951806,108.0 127.5037953061983,107.49650734313764 129.64249375462532,105.98602871852927 130.9257128238678,104.47554911207408 131.99506204854697,101.95808091876097 132.20893189311028,98.93711548461579 129.85636360011995,77.53849785355851 128.35927468631417,74.51750066154636 126.64831592794508,73.258750671288 124.72348732408136,72.25175018818118 122.1570491855964,72.0 120.01835073716938,72.25175018818118 117.45191259961575,73.76225074916147 115.52708399575204,76.02799974824302 114.67160461563617,78.04199700360186 114.45773477200419,80.81124037737027 116.59643321949989,100.95109287742525 117.02417290955782,102.96506852377206 118.5212618233636,105.48253562580794 120.44609042722732,106.9930145770777 123.01252856571227,108.0 125.79283654782921,108.0 128.35927468631417,106.9930145770777 130.4979731347412,105.230789037887 131.78119220305234,102.96506852377206 132.20893189311028,100.4475986927282 130.28410328924656,79.30074440105818 129.42862391006202,76.27974950103089 127.289925461635,73.76225074916147 124.72348732408136,72.25175018818118 121.7293094964698,72.0 118.94900151342154,72.75525048514828 117.45191259961575,73.51050072349608 115.95482368580997,75.27275032759644 114.8854744611308,77.28674823697656 114.45773477200419,79.0489949756302 116.59643321949989,100.69934579916298 117.45191259961575,103.72030894085765 118.94900151342154,105.98602871852927 121.30156980641186,107.49650734313764 124.29574763402343,108.0 126.43444608245045,107.74825368495658 128.78701437544078,106.7412681535352 130.4979731347412,105.230789037887 131.78119220305234,102.71332166320644 132.20893189311028,100.69934579916298 131.99506204854697,98.43362086382695 122.37091903109103,72.0 120.44609042722732,72.25175018818118 132.20893189311028,98.6853681881912 130.07023344468325,78.79724552389234 129.2147540654987,76.02799974824302 127.71766515169293,74.01400074688718 124.93735716864467,72.50350035028532 121.94317934010178,72.0 119.37674120347947,72.50350035028532 117.45191259961575,73.51050072349608 115.74095384031534,75.52450016164221 114.8854744611308,77.79024744196795 114.45773477200419,79.55249379901215 116.59643321949989,100.95109287742525 117.66578244417906,104.47554911207408" stroke="#4dd2ff" stroke-linecap="round" stroke-linejoin="round" stroke-width="0.5"><title>2024-07-05 3.3km</title><desc>11814633384</desc></polyline><polyline fill="none" points="168.62902039662004,72.0 165.88706119265407,72.74483331805095 163.35602192673832,74.73105431371368 161.6686624167487,77.71038257912733 161.6686624167487,80.44143008510582 163.7778618047014,101.04831993649714 164.410621621646,103.77933962037787 165.67614125460386,105.51725954189897 167.57442070357502,107.00690414011478 169.68362009245902,108.0 172.00373941846192,108.0 174.1129388064146,107.50345212430693 176.2221381952986,106.01380784926005 177.4876578282565,104.27588830399327 178.5422575213015,101.7931438095402 178.5422575213015,99.06212175777182 176.43305813334882,78.70349113992415 175.3784584403038,75.4758867432829 172.84741917345673,73.24138872791082 169.47270015254617,72.0 165.88706119265407,72.74483331805095 163.14510198961943,74.97933181701228 161.6686624167487,77.95865975995548 161.6686624167487,80.93798382743262 163.7778618047014,101.04831993649714 164.83246149960905,104.52416260517202 166.51982100959867,106.51035604788922 168.41810045950115,107.50345212430693 170.73821978550404,108.0 173.2692590514198,107.75172607554123 176.01121825538576,106.26208196184598 177.4876578282565,104.52416260517202 178.3313375832513,102.04141838033684 178.5422575213015,99.55867146397941 176.43305813334882,79.94487623521127 175.80029831733555,76.46899627288803 174.53477868437767,74.73105431371368 172.00373941846192,72.74483331805095 169.47270015254617,72.0 167.15258082654327,72.24827779899351 165.04338143765926,73.24138872791082 163.14510198961943,74.73105431371368 162.09050229471177,76.71727358759381 161.45774247776717,78.95176821248606 163.7778618047014,101.29659458762035 164.410621621646,103.53106523817405 165.46522131562233,105.2689853485208 167.3635007655248,107.00690414011478 169.68362009245902,107.75172607554123 172.00373941846192,108.0 174.74569862242788,107.00690414011478 176.64397807233036,105.51725954189897 177.90949770528823,103.53106523817405 178.5422575213015,101.29659458762035 176.43305813334882,79.44832227821462 176.01121825538576,76.96555087622255 174.74569862242788,74.73105431371368 173.05833911243826,73.24138872791082 170.3163799084723,72.24827779899351 167.57442070357502,72.24827779899351 165.04338143765926,73.24138872791082 163.35602192673832,74.4827767838724 162.09050229471177,76.96555087622255 161.45774247776717,78.95176821248606 163.7778618047014,101.29659458762035 164.19970168266445,103.28279082919471 165.67614125460386,105.51725954189897 167.3635007655248,107.00690414011478 169.68362009245902,107.75172607554123 172.21465935744345,108.0 174.53477868437767,107.25517814536579 176.64397807233036,105.51725954189897 178.12041764333844,103.28279082919471 178.5422575213015,100.80004525883123 176.43305813334882,79.94487623521127 176.01121825538576,76.96555087622255 174.53477868437767,74.4827767838724 172.63649923540652,72.99311103648506 170.3163799084723,72.24827779899351 167.15258082654327,72.24827779899351 165.04338143765926,73.24138872791082 163.35602192673832,74.4827767838724 162.09050229471177,76.96555087622255 161.45774247776717,78.95176821248606 163.7778618047014,101.04831993649714 164.410621621646,103.77933962037787 165.46522131562233,105.51725954189897 167.3635007655248,107.00690414011478 169.68362009245902,108.0 172.84741917345673,107.75172607554123 174.95661856234074,107.00690414011478 176.8548980113119,105.2689853485208 178.12041764333844,103.03451639274135 178.5422575213015,100.80004525883123 176.43305813334882,80.19315317319706 175.80029831733555,76.71727358759381 174.53477868437767,74.4827767838724 172.00373941846192,72.74483331805095 169.47270015254617,72.0 166.09798113256693,72.74483331805095 163.7778618047014,73.98622164176777 162.5123421717435,75.72416416555643 161.6686624167487,77.71038257912733 161.45774247776717,79.20004525897093 163.7778618047014,101.7931438095402 164.83246149960905,104.52416260517202 166.30890107061714,106.26208196184598 168.62902039662004,107.50345212430693 170.94913972448558,108.0 174.1129388064146,107.50345212430693 175.80029831733555,106.26208196184598 177.69857776537538,104.0276139753405 178.5422575213015,101.7931438095402 178.5422575213015,99.3103966244962 176.43305813334882,78.95176821248606 175.80029831733555,76.46899627288803 174.53477868437767,74.4827767838724 172.42557929549366,72.99311103648506 169.68362009245902,72.0 166.94166088663042,72.24827779899351 165.04338143765926,72.99311103648506 163.35602192673832,74.73105431371368 162.09050229471177,76.71727358759381 161.6686624167487,78.70349113992415 163.7778618047014,101.29659458762035 164.410621621646,103.77933962037787 165.67614125460386,105.76553370943293 167.57442070357502,107.00690414011478 170.3163799084723,108.0 172.63649923540652,107.75172607554123 174.74569862242788,107.00690414011478 176.64397807233036,105.51725954189897 178.12041764333844,103.03451639274135 178.5422575213015,100.80004525883123 176.43305813334882,79.44832227821462 175.589378378354,76.2207189311739 173.69109892938286,73.73794403090142 170.5272998465225,72.24827779899351 168.2071805195883,72.0 165.2543013766408,72.99311103648506 163.98878174461424,73.98622164176777 162.5123421717435,75.72416416555643 162.09050229471177,76.71727358759381 161.45774247776717,79.20004525897093 163.56694186665118,100.80004525883123 164.410621621646,103.77933962037787 166.30890107061714,106.26208196184598 168.2071805195883,107.50345212430693 170.73821978550404,108.0 173.05833911243826,107.75172607554123 175.16753850039095,106.75863010738976 176.64397807233036,105.51725954189897 177.90949770528823,103.53106523817405 178.5422575213015,101.29659458762035 176.01121825538576,77.21382813691162 174.74569862242788,74.73105431371368 173.05833911243826,73.24138872791082 170.73821978550404,72.24827779899351 168.2071805195883,72.0 165.67614125460386,72.74483331805095 163.7778618047014,74.23449922609143 162.3014222336933,75.97244156198576 161.6686624167487,78.4552140396554 163.56694186665118,100.55177055345848 164.410621621646,103.77933962037787 165.67614125460386,105.51725954189897 167.78534064255655,107.25517814536579 170.73821978550404,108.0 172.84741917345673,107.75172607554123 175.3784584403038,106.75863010738976 177.06581795029342,105.2689853485208 178.12041764333844,103.28279082919471 178.5422575213015,100.80004525883123 176.43305813334882,78.70349113992415 175.80029831733555,76.46899627288803 173.9020188683644,73.98622164176777 171.79281947948039,72.49655557191 168.62902039662004,72.0 165.88706119265407,72.74483331805095 163.98878174461424,73.98622164176777 162.72326211165637,75.4758867432829 161.87958235666156,77.46210537198931 161.45774247776717,78.95176821248606" stroke="#4dd2ff" stroke-linecap="round" stroke-linejoin="round" stroke-width="0.5"><title>2024-06-26 3.9km</title><desc>11744480107</desc></polyline><polyline fill="none" points="37.380438524647616,112.31237989763031 39.07213454588782,112.27333242518944 41.19504720030818,112.0 41.825286894571036,112.0 41.9911394455703,112.03904750206857 42.15699199656956,112.19523746773484 42.2896740376018,112.42952228934155 42.25650352728553,114.45998436035006 42.2896740376018,114.88950371657847 42.42235607851762,115.43616397451842 42.55503811931703,117.89612486943952 42.521867609000765,118.52087416796712 42.62137913983315,119.9265561279608 42.5882086296333,121.44937206161558 42.75406118074898,123.59692205340252 42.720890670549124,124.41689230949851 42.787231690716,125.62732118117856 42.75406118074898,126.56442461136612 42.820402201032266,127.89198363138712 42.787231690716,128.47766987903742 42.953084242064506,130.74231441164738 42.953084242064506,131.09372349418118 43.05259577278048,131.95272203095374 42.953084242064506,132.69458275541547 43.15210730349645,134.29543490329525 43.01942526246421,135.70105531456647 43.085766282863915,136.09150445566047 43.15210730349645,138.08278849278577 43.21844832377974,138.43419041577727 43.18527781357989,139.0198595257243 43.25161883409601,139.4883941281587 43.18527781357989,140.69877236449975 43.25161883409601,140.85494990527513 43.25161883409601,141.63583659363212 43.384300874895416,142.80716345272958 43.31795985449571,143.5880459100008 43.417471385211684,145.03267399437027 43.351130364695564,146.086858400231 43.48381240549497,147.02390861633467 43.417471385211684,147.76573830907 43.11893679318018,147.8828691735689 42.48869709903374,147.8828691735689 41.62626383313909,148.0 40.92968311847653,147.92191278652172 40.133590873214416,147.72669467914966 39.271157607319765,147.5705201170058 37.944337198277935,147.49243281051167 37.18141546333209,147.29721447036718 35.887765564606525,147.1410397219297 33.79802342061885,147.06295232244884 32.438032501377165,146.78964629082475 31.641940255998634,146.71155881512095 31.243894133367576,146.71155881512095 30.215608316590078,146.59442756979843 29.25366352009587,146.36016496494994 28.623423825833015,146.399208743067 27.99318413157016,146.32112118275836 27.130750865791924,146.04781458849902 26.467340661329217,146.1649460113258 25.604907395434566,146.1649460113258 24.642962599056773,145.96972695190925 23.38248321064748,145.96972695190925 22.321026883553714,145.81355162832187 21.49176412797533,145.54024464893155 19.99909116793424,145.4231130227854 19.00397586124018,145.1888496565225 16.682040145620704,144.9155422032054 16.51618759438861,144.64223454269813 16.51618759438861,144.4470146582462 16.914233717136085,143.47091364936205 16.881063206936233,143.15856076794444 16.947404227452353,142.57289838552242 16.814722186536528,140.659727968683 17.279109329683706,137.96565444237785 17.146427288884297,137.18475979936193 17.179597798967734,136.71622220112476 17.279109329683706,136.2476839934825 17.577643921598792,135.11538080961327 18.34056565677747,133.51453230515472 18.771782289841212,132.14794868548051 19.169828412355855,131.21085977894836 19.53470402478706,130.19567737955367 19.899579637334682,129.41476589505328 20.09860269841738,128.79003548852052 20.762012903229333,127.345342274406 20.961035964312032,126.56442461136612 21.259570556343533,126.17396514498978 21.42542310745921,125.70541322676581 21.856639740406536,125.15876855191891 22.586390965268947,123.94833810607088 22.55322045518551,123.94833810607088 22.71907300618477,123.79215323607787 23.11711912881583,123.12836678358144 23.448824231047183,122.42553273585509 24.344428007141687,120.86367438736488 24.908326681004837,120.08274267386878 25.6712484160671,118.91134192922618 26.434170151129365,117.54470291300095 26.732704743160866,116.84185797139071 27.130750865791924,116.25615280601778 27.595138008822687,115.04569244626327 28.225377703318372,114.53807882682304 29.4526865814114,112.58571208576905 29.81756219395902,112.35142736576381 29.98341474495828,112.31237989763031" stroke="#4dd2ff" stroke-linecap="round" stroke-linejoin="round" stroke-width="0.5"><title>2024-06-17 3.2km</title><desc>11672403120</desc></polyline><polyline fill="none" points="94.66666665673256,117.28702870756388 58.66666665673256,142.71297129243612" stroke="#4dd2ff" stroke-linecap="round" stroke-linejoin="round" stroke-width="0.5"><title>2024-05-09 8.0km</title><desc>9223370321595310162</desc></polyline><polyline fill="none" points="105.33333333209157,124.42413776181638 112.91228070482612,127.7696572439745 108.17543859407306,122.19379083625972 129.01754385977983,134.46069294400513 141.33333333209157,137.8062091646716 133.7543859668076,136.69103721156716 108.17543859407306,132.230348194018" stroke="#4dd2ff" stroke-linecap="round" stroke-linejoin="round" stroke-width="0.5"><title>2024-05-08 6.2km</title><desc>9223370321684028463</desc></polyline><polyline fill="none" points="170.00000002980232,112.0 164.43946661055088,148.0 175.56053340435028,134.90909587591887 175.56053340435028,138.18182244338095" stroke="#4dd2ff" stroke-linecap="round" stroke-linejoin="round" stroke-width="0.5"><title>2024-05-07 6.1km</title><desc>9223370321771754451</desc></polyline><polyline fill="none" points="165.63100995123386,152.0 187.47596022486687,188.0 152.52403977513313,188.0" stroke="#4dd2ff" stroke-linecap="round" stroke-linejoin="round" stroke-width="0.5"><title>2024-05-02 6.8km</title><desc>9223370322200251369</desc></polyline><polyline fill="none" points="21.00000000745058,220.59416085481644 12.0,223.62106058280915 48.0,210.00000664312392 42.857142865657806,214.5403594309464 46.71428571641445,205.45965237822384 48.0,196.37893941625953 48.0,197.89239198341966" stroke="#4dd2ff" stroke-linecap="round" stroke-linejoin="round" stroke-width="0.5"><title>2024-05-01 4.0km</title><desc>9223370322286947528</desc></polyline><polyline fill="none" points="58.66666666418314,213.65315504278988 94.66666666418314,206.34684495721012 83.49425286799669,210.7306314855814 93.42528735101223,213.65315504278988" stroke="#4dd2ff" stroke-linecap="round" stroke-linejoin="round" stroke-width="0.5"><title>2024-04-30 5.3km</title><desc>9223370322373916531</desc></polyline><polyline fill="none" points="105.33333333325572,207.49753446038812 106.86404199455865,209.1659202114679 109.9254593171645,208.49856645357795 111.11601049848832,209.4328615120612 124.04199475049973,198.28796376049286 137.93175853020512,198.42143678333377 140.65301837259904,201.1576273762039 141.2199475064408,217.50778115622234 137.93175853020512,221.3783662499045 122.11443569534458,221.51183426752687 119.44986876612529,219.91021614748752 110.7191601046361,219.50981096667238 110.20892388443463,210.9010365967406 112.53333333320916,207.8979474530206 124.21207349048927,198.28796376049286 137.76167978998274,198.42143678333377 140.36955380579457,201.02415494667366 141.2199475064408,204.22748527448857 140.87979002599604,218.50879687501583 137.53490813612007,221.64530225592898 122.51128608896397,221.64530225592898 119.79002624657005,219.97695031907642 110.03884514397942,219.10940552526154 110.54908136441372,210.23368471948197 123.24829396302812,198.62164626352023 138.32860892359167,198.5549097773619 141.2199475064408,202.29214186104946 140.9364829394035,216.90717094379943 140.59632545895875,218.84246841975255 137.64829396293499,221.5785682653659 122.51128608896397,221.44510026223725 119.44986876612529,219.84348196862265 110.83254593145102,219.4430767443846 109.9254593171645,217.90818763891002 110.09553805738688,212.63614809256978 110.54908136441372,210.4338903586031 123.41837270348333,198.75511921412544 137.64829396293499,198.3547002755222 140.65301837259904,201.09089116507675 140.9364829394035,218.4420625444618 137.81837270315737,221.51183426752687 136.3443569552619,221.64530225592898 123.07821522303857,221.71203623950714 119.73333333316259,220.04368448327295 110.88923884485848,219.50981096667238 109.75538057717495,215.90615262126084 110.15223097102717,213.90411109355045 111.05931758508086,213.57043687277474 110.03884514397942,213.37023225374287 110.09553805738688,212.03553312836448 112.47664041956887,208.2316247478593 123.87191601027735,198.62164626352023 138.6120734908618,199.0220650283154 141.04986876645125,201.89172522281297 141.16325459303334,217.37431227072375 137.98845144314691,221.11143012804678 122.05774278193712,221.64530225592898 117.74908136483282,219.71001358958893 111.05931758508086,219.50981096667238 110.15223097102717,218.50879687501583 109.98215223080479,212.63614809256978 110.7191601046361,209.96674376603914 123.41837270348333,198.62164626352023 138.0451443567872,198.6883827424026 140.87979002599604,201.8249890911975 141.33333333325572,207.03038564010058 140.9364829394035,217.10737441299716 138.10183727019466,221.24489820346935 122.00104986852966,221.64530225592898 119.50656167953275,219.91021614748752 110.54908136441372,219.37634251493728 110.7191601046361,210.1669494921225" stroke="#4dd2ff" stroke-linecap="round" stroke-linejoin="round" stroke-width="0.5"><title>2024-04-27 9.8km</title><desc>1714200483443</desc></polyline><polyline fill="none" points="152.0,206.58475421514595 152.56338028167374,208.50796987867216 153.69014084502123,209.30378148838645 155.43661971832626,209.10482868301915 156.73239436605945,208.64060521882493 157.5211267604027,209.30378148838645 159.26760563370772,208.57428755232831 161.23943661968224,207.11529707093723 161.74647887330502,206.31948261457728 162.8732394366525,205.45734911895124 165.69014084525406,202.6719864460756 167.43661971832626,201.08034494001186 169.63380281697027,198.89183110831073 172.73239436629228,198.36128112167353 176.73239436629228,198.42759989516344 178.30985915497877,198.09600595594384 179.7746478873305,198.56023742060643 183.549295774661,198.6265561725013 184.95774647896178,198.82551238517044 187.26760563394055,201.34561881172704 187.8309859156143,204.66153250657953 187.8309859156143,208.3753345097066 187.8309859156143,212.42070032731863 187.8309859156143,216.26708892267197 187.26760563394055,218.85344007244566 184.56338028190657,221.43978029035497 180.73239436605945,221.6387290849816 176.95774647896178,221.57241282740142 172.61971831019036,221.77136157889618 168.84507042285986,221.57241282740142 167.04225352127105,220.44503534643445 164.3943661970552,219.7155546930735 160.50704225362279,219.7155546930735 157.5211267604027,219.5829217537539 157.01408450724557,218.78712351294234 156.6760563380085,214.6754827812547 157.01408450724557,211.0280364252394 157.74647887330502,209.83432198659284 159.3239436619915,208.04374596162234 161.01408450724557,207.04897923907265 164.0563380282838,204.66153250657953 166.7042253522668,202.07512136665173 169.35211267624982,199.48869929328794 170.92957746470347,198.49391866155202 174.92957746470347,198.6265561725013 177.97183098620735,199.02446853311267 178.8732394366525,198.82551238517044 181.23943661968224,198.6265561725013 184.39436619728804,198.6265561725013 185.74647887353785,199.62133658869425 187.66197183146141,202.47303148446372 187.88732394366525,206.3858005256625 187.66197183146141,209.5690517949406 187.8309859156143,212.8186037169653 187.94366197218187,216.86394015833503 186.2535211269278,219.98082048585638 184.16901408461854,221.70504533540225 179.7746478873305,221.77136157889618 176.67605633824132,221.83767781517236 173.01408450724557,221.77136157889618 169.23943661968224,221.70504533540225 166.8732394366525,220.37871895940043 165.23943661968224,219.98082048585638 163.77464788756333,220.17976975487545 159.60563380271196,219.7818711521104 157.46478873258457,219.7818711521104 156.61971830995753,218.78712351294234 156.61971830995753,214.94075075897854 157.18309859139845,210.76276675134432 158.76056338031776,209.10482868301915 160.73239436605945,207.31425052322447 163.09859154908918,205.45734911895124 165.63380281697027,202.6719864460756 168.67605633824132,200.01924830226926 170.70422535203397,198.56023742060643 175.09859154955484,198.42759989516344 177.29577464796603,198.6265561725013 178.8732394366525,198.56023742060643 183.21126760565676,198.42759989516344 184.95774647896178,198.7591936548124 187.49295774661005,201.67721098999027 187.94366197218187,204.130987522949 187.6056338029448,207.5132039107848 187.77464788756333,208.44165219785646 187.6056338029448,212.61965205462184 187.549295774661,216.99657368724002 187.21126760565676,218.91975662496407 185.29577464796603,220.7766171740368 184.2816901409533,221.6387290849816 180.11267605656758,221.70504533540225 177.1267605633475,221.6387290849816 173.352112676017,221.50609656237066 169.23943661968224,221.50609656237066 166.64788732375018,220.17976975487545 165.23943661968224,219.84818760381313 162.30985915497877,219.64923822699348 158.14084507059306,219.5829217537539 156.95774647896178,218.85344007244566 156.73239436605945,215.80287089245394 156.901408450678,212.75228650326608 158.76056338031776,209.10482868301915 161.07042253529653,207.77847499377094 163.26760563394055,205.52366712340154 163.8309859156143,204.794168680266 165.57746478868648,203.20253269479144 167.3802816902753,201.34561881172704 170.14084507059306,198.95814982434968 171.8309859156143,198.56023742060643 174.0281690142583,198.7591936548124 176.84507042262703,198.6265561725013 178.30985915497877,198.95814982434968 181.35211267624982,198.56023742060643 184.2816901409533,198.56023742060643 186.3098591552116,200.2182040619664 187.77464788756333,202.34039480710635 187.66197183146141,206.3858005256625 187.6056338029448,209.37009907589527 187.71830985927954,213.21650684793713 187.66197183146141,216.99657368724002 187.549295774661,218.52185720269335 185.8591549298726,220.31240256497404 182.9859154932201,221.70504533540225 179.7746478873305,221.77136157889618 176.50704225362279,221.77136157889618 173.63380281697027,221.90399404405616 171.26760563417338,221.77136157889618 169.8028169015888,221.77136157889618 167.3802816902753,220.97556618443923 164.95774647896178,219.84818760381313 162.9295774649363,219.5829217537539 160.450704225339,219.38397229049588 157.69014084502123,219.5829217537539 157.01408450724557,218.9860731700319 156.56338028167374,216.0018215200398 156.95774647896178,214.01231233368162 157.85915492963977,213.68072684039362 157.18309859139845,213.68072684039362 156.901408450678,212.1554312571534 158.36619718326256,209.43641665606992 159.26760563370772,208.3753345097066 160.78873239457607,207.44688612199388 162.9295774649363,205.65630311029963 165.01408450701274,203.93203303549672 166.81690140860155,202.00880298862467 169.52112676063552,199.42238063487457 170.59154929593205,198.82551238517044 174.30985915497877,198.69287491729483 177.46478873258457,198.95814982434968 178.30985915497877,199.0907872345997 180.9577464791946,198.82551238517044 184.16901408461854,198.69287491729483 186.59154929593205,200.68243391666329 187.8309859156143,204.06466936762445 187.88732394366525,207.9774282303406 187.77464788756333,211.82384475751314 187.71830985927954,215.60392020025756 187.49295774661005,218.25659077760065 184.6197183097247,221.17451513005653 180.78873239434324,221.43978029035497 177.1267605633475,221.37346401112154 173.40845070430078,221.30714772461215 171.3802816902753,221.50609656237066 168.78873239434324,221.70504533540225 166.2535211269278,220.11345333914505 162.42253521154635,219.7818711521104 158.76056338031776,219.7155546930735 157.46478873258457,219.38397229049588 156.95774647896178,218.58817379100947 156.8450704223942,214.874433775316 156.78873239457607,212.75228650326608 157.23943661968224,210.49749696231447 159.15492957737297,208.7069228780456 161.18309859139845,206.65107209712733 164.00000000023283,204.32994194549974 167.098591549322,201.74352940404788 169.69014084502123,199.22342461626977 170.647887323983,198.6265561725013 174.42253521131352,198.7591936548124 178.36619718326256,199.02446853311267 181.1267605633475,198.82551238517044 184.6760563380085,198.89183110831073 186.647887323983,200.8813894605264 187.49295774661005,202.00880298862467 187.77464788756333,204.39626007212792 187.94366197218187,207.18161489552585 187.77464788756333,211.09435382584343 187.77464788756333,214.74179978657048 187.549295774661,217.19552392652258 187.04225352103822,218.91975662496407 185.18309859163128,221.04188250674633 182.87323943688534,221.57241282740142 179.04225352127105,221.70504533540225 174.70422535203397,221.6387290849816 171.3802816902753,221.50609656237066 168.73239436629228,221.70504533540225 167.04225352127105,220.31240256497404 164.33802816923708,219.7155546930735 160.0563380282838,219.51660527312197 157.80281690112315,219.64923822699348 156.95774647896178,219.052389708173 156.901408450678,216.66498981101904 156.901408450678,212.95123812288512 157.5211267604027,210.29854454507586" stroke="#4dd2ff" stroke-linecap="round" stroke-linejoin="round" stroke-width="0.5"><title>2024-04-27 10.1km</title><desc>9223370322649067555</desc></polyline><polyline fill="none" points="30.0,246.9731005989015 40.28571428358555,246.9731005989015 27.428571417927742,253.02689939923584 12.0,246.9731005989015 48.0,253.02689939923584 19.71428570151329,253.02689939923584" stroke="#4dd2ff" stroke-linecap="round" stroke-linejoin="round" stroke-width="0.5"><title>2024-04-26 5.2km</title><desc>9223370322713802999</desc></polyline><polyline fill="none" points="107.42028985545039,250.0000080873724 106.89855072461069,249.79529019829351 108.11594202835113,250.40944379928987 109.15942028909922,251.43303269089665 112.11594202835113,251.43303269089665 113.50724637694657,250.61416162212845 113.68115941993892,249.59057228639722 112.98550724517554,250.61416162212845 112.46376811526716,249.79529019829351 113.33333333302289,249.38585435261484 117.15942028909922,249.38585435261484 118.55072463676333,249.79529019829351 120.98550724610686,249.59057228639722 121.33333333302289,248.56698239664547 120.46376811619848,247.54339195194189 117.8550724638626,246.31508268648759 116.46376811526716,245.49620939791203 114.55072463676333,244.47261728951707 113.50724637694657,248.15754628519062 113.50724637694657,249.38585435261484 112.63768115919083,250.20472595468163 111.59420289751142,250.0000080873724 110.2028985498473,250.20472595468163 108.63768115825951,249.79529019829351 108.2898550722748,251.22831495699938 109.8550724638626,251.84246809210163 108.63768115825951,252.6613386287354 109.8550724638626,252.8660562071018 109.50724637601525,253.8896437678486 108.63768115825951,254.50379603740294 105.33333333302289,255.52738271059934 110.02898550685495,252.04718575940933 111.24637681152672,251.43303269089665 110.89855072367936,250.20472595468163 114.72463768068701,251.43303269089665 116.2898550722748,251.22831495699938 117.50724637601525,251.84246809210163 116.81159420218319,252.6613386287354 117.15942028909922,253.48020881030243 118.20289855077863,254.2990786364535 118.20289855077863,255.1179481075378 116.81159420218319,255.52738271059934 114.02898550592363,254.2990786364535 113.85507246293128,253.07077376369853 115.59420289751142,252.8660562071018 116.46376811526716,253.48020881030243 118.55072463676333,252.8660562071018 118.89855072461069,254.0943612131523 117.50724637601525,254.91323077329434 115.94202898535877,254.91323077329434 111.24637681152672,252.04718575940933 108.63768115825951,249.79529019829351 107.42028985545039,249.38585435261484 106.2028985498473,249.59057228639722 106.89855072461069,248.77170041936915 108.2898550722748,249.1811363970628 109.33333333302289,248.97641841915902 108.63768115825951,249.79529019829351 107.07246376667172,249.79529019829351 105.33333333302289,250.0000080873724 109.15942028909922,250.20472595468163 110.55072463769466,249.59057228639722 111.59420289751142,249.59057228639722 112.46376811526716,250.40944379928987 114.55072463676333,249.38585435261484 115.42028985358775,249.79529019829351 116.46376811526716,249.79529019829351 117.15942028909922,250.40944379928987 118.20289855077863,250.81887942238245 119.24637681152672,250.61416162212845 120.11594202835113,250.81887942238245 121.15942029003054,252.04718575940933 122.89855072461069,253.2754912978271 124.2898550722748,253.07077376369853 125.33333333302289,253.48020881030243 123.94202898442745,252.8660562071018 121.33333333302289,252.25190340471454 122.37681159377098,251.84246809210163 122.55072463676333,253.07077376369853 123.76811594236642,252.8660562071018 123.94202898442745,251.84246809210163 124.81159420218319,252.6613386287354 125.8550724638626,252.8660562071018 122.89855072461069,252.8660562071018 124.2898550722748,253.07077376369853 124.63768115919083,252.4566210275516 125.50724637601525,252.8660562071018 126.37681159377098,253.48020881030243 123.42028985451907,254.50379603740294 125.33333333302289,253.8896437678486 127.59420289844275,252.04718575940933 126.72463768161833,251.02359720063396 126.72463768161833,251.84246809210163 124.81159420218319,252.25190340471454 122.89855072461069,252.04718575940933 121.50724637601525,251.22831495699938 118.20289855077863,251.02359720063396 119.76811594236642,251.22831495699938 120.63768115919083,252.25190340471454 122.37681159377098,251.43303269089665 125.8550724638626,251.22831495699938 127.94202898535877,251.84246809210163 130.02898550685495,252.04718575940933 131.4202898554504,252.04718575940933 135.2463768105954,252.4566210275516 138.8985507246107,252.8660562071018 141.3333333330229,253.2754912978271 138.8985507246107,253.2754912978271 138.3768115947023,253.2754912978271 136.11594202928245,253.2754912978271 134.20289855077863,253.07077376369853 132.8115942031145,253.2754912978271 130.89855072367936,253.2754912978271 130.2028985498473,252.6613386287354 127.94202898535877,252.04718575940933 131.4202898554504,251.63775040290784 132.8115942031145,252.4566210275516 133.68115941993892,252.04718575940933 132.63768115919083,251.84246809210163 133.15942029003054,252.04718575940933 132.2898550722748,252.4566210275516 131.24637681152672,252.4566210275516 132.63768115919083,251.63775040290784" stroke="#4dd2ff" stroke-linecap="round" stroke-linejoin="round" stroke-width="0.5"><title>2024-04-24 3.4km</title><desc>9223370322893282018</desc></polyline><polyline fill="none" points="188.0,251.8695558840409 155.1764705888927,246.88407397922128 152.0,253.11592602077872 156.2352941222489,248.13044465705752" stroke="#4dd2ff" stroke-linecap="round" stroke-linejoin="round" stroke-width="0.5"><title>2024-04-23 3.1km</title><desc>9223370322979897699</desc></polyline></svg>