<?xml version="1.0" encoding="utf-8" ?>
<svg baseProfile="full" height="300mm" version="1.1" viewBox="0,0,200,300" width="200mm" xmlns="http://www.w3.org/2000/svg" xmlns:ev="http://www.w3.org/2001/xml-events" xmlns:xlink="http://www.w3.org/1999/xlink"><defs /><rect fill="#222222" height="300" width="200" x="0" y="0" /><text fill="#FFFFFF" style="font-size:12px; font-family:Arial; font-weight:bold;" x="10" y="20">Over 3km Runs</text><text fill="#FFFFFF" style="font-size:4px; font-family:Arial" x="10" y="280">ATHLETE</text><text fill="#FFFFFF" style="font-size:9px; font-family:Arial" x="10" y="290">L</text><text fill="#FFFFFF" style="font-size:4px; font-family:Arial" x="120" y="280">STATISTICS</text><text fill="#FFFFFF" style="font-size:3px; font-family:Arial" x="120" y="285">Number: 25</text><text fill="#FFFFFF" style="font-size:3px; font-family:Arial" x="120" y="290">Weekly: 2.8</text><text fill="#FFFFFF" style="font-size:3px; font-family:Arial" x="141" y="285">Total: 126.6 km</text><text fill="#FFFFFF" style="font-size:3px; font-family:Arial" x="141" y="290">Avg: 5.1 km</text><text fill="#FFFFFF" style="font-size:3px; font-family:Arial" x="167" y="285">Min: 3.0 km</text><text fill="#FFFFFF" style="font-size:3px; font-family:Arial" x="167" y="290">Max: 10.1 km</text><polyline fill="none" points="33.5793673528824,31.975143867108272 35.483791409409605,31.800000000017462 36.40624681173358,32.01017262917594 36.79308294830844,31.940115101228002 37.35845884005539,31.940115101228002 37.86432148003951,31.870057558262488 38.72726363071706,31.940115101228002 38.84629013435915,32.01017262917594 38.93556001188699,32.22034512157552 38.93556001188699,33.20114827892394 39.1140997671755,34.00680578837637 39.14385639305692,34.56726200165576 39.20336964470334,34.987603523535654 39.17361301893834,35.54805803581257 39.23312627070118,36.038454936555354 39.17361301893834,36.66896414407529 39.23312627070118,37.0893029323197 39.17361301893834,37.29947212146362 39.14385639305692,37.92997886863304 39.20336964470334,39.8214917294099 39.292639522464015,40.62713273416739 39.292639522464015,41.15254969854141 39.41166602598969,41.95818738502567 39.471179277752526,43.04404369764961 39.44142265175469,43.814649190055206 39.38190940010827,44.09486891358392 39.35215277422685,44.690335019200575 39.53069252951536,47.8427843581012 39.64971903304104,48.29813560983166 39.67947565903887,48.683432321762666 39.5902057812782,49.62915866723051 39.61996240715962,50.01445379239158 39.53069252951536,50.64493573366781 39.5902057812782,51.45054975763196 39.5604491555132,52.186108634545235 39.64971903304104,52.956692329084035 39.64971903304104,53.44706281443359 39.79850216244813,54.70801207475597 39.79850216244813,56.31921785962186 39.97704191773664,56.70450500948937 40.09606842137873,57.19486980870715 40.00679854361806,57.26492186210817 39.887772040092386,57.6151819016668 39.82825878832955,58.42077855192474 39.94728529185522,59.29642480745679 39.85801541432738,60.38222286981181 39.887772040092386,60.97765896821511 40.09606842137873,62.448731685377425 40.09606842137873,63.604569837712916 40.00679854361806,63.884772403747775 39.887772040092386,64.02487359565566 39.70923228468746,64.12994944973616 38.251157616614364,64.09492416877765 37.596511847223155,64.02487359565566 37.269188962411135,63.884772403747775 36.882352825952694,63.81472178502008 28.40171444939915,62.93908776997705 27.717312054126523,62.72893525342806 27.44950242107734,62.763960682292236 26.675830148160458,63.00913857843261 26.140210882178508,63.07918937175418 24.949945846921764,62.62385894381441 23.075278416392393,62.37868075541337 22.30160614347551,62.2035533641465 21.498177244560793,62.133502381067956 20.39718208683189,62.098476883838885 19.98058932449203,61.958374856913 18.70105441159103,61.74822170275729 17.86786888691131,61.60811952405493 17.064439987880178,61.57309396981145 16.647847225656733,61.432991715177195 16.1419845855562,61.39796614207444 15.903931578621268,61.187812623451464 15.903931578621268,60.83755645554629 16.112227959907614,60.34719718270935 16.290767714963295,59.716734167566756 16.231254463200457,57.86036370342481 16.290767714963295,57.08979170009843 16.409794218605384,56.10906103879097 16.409794218605384,55.793825551489135 16.46930747036822,55.23340614812332 16.647847225656733,54.91816980656586 16.766873729182407,54.60293315767194 17.242979743285105,52.01097572038998 17.45127612457145,51.34546978145954 17.689329131506383,50.96017624309752 17.838112260913476,50.294668140326394 17.86786888691131,50.08450740217813 18.016652016201988,49.594131814839784 18.403488152776845,48.75348622005549 18.582027908065356,48.4732705357892 18.939107418525964,47.42245955619728 19.296186929219402,46.72191700496478 19.59375318803359,45.91629119386198 19.7722929433221,45.04060868654051 19.950832698727027,44.72536240296904 20.367425461066887,44.12989636187558 20.60547846800182,43.88470414371113 21.11134110810235,42.83387824438978 21.617203748202883,42.13332574663218 23.670410934020765,38.66556851891801 24.44408320693765,37.57969749427866 24.711892839870416,36.9491900637222 25.574834990431555,35.583086410479154 25.872401249362156,35.16274566305219 26.19972413405776,34.357091035548365 26.348507263464853,34.11189140242641 26.497290392871946,33.761605889420025 27.24120603990741,32.7808044331905 27.44950242107734,32.430517477332614 27.538772298838012,32.32543131659622 28.044634938822128,32.15028763926239 28.87782046350185,32.08023014187347 29.324169851723127,32.15028763926239 30.722731268266216,32.18531638238346 31.645186670706607,31.940115101228002 32.032022807048634,31.940115101228002 32.80569508008193,32.11525889247423 33.19253121642396,32.01017262917594 33.93644686357584,31.90508633168065 35.39452153176535,31.90508633168065 35.781357668340206,31.940115101228002 36.2574636824429,31.90508633168065 37.090649207122624,31.940115101228002 37.71553835074883,31.870057558262488 38.69750700471923,31.90508633168065 38.84629013435915,31.975143867108272 39.02482988964766,32.22034512157552 38.99507326364983,33.20114827892394 39.1140997671755,33.48137720575323 39.084343141294084,33.58646299058455 39.1140997671755,33.901720140187535 39.084343141294084,34.14691993279848 39.23312627070118,34.95257508428767 39.14385639305692,35.47800127492519 39.17361301893834,37.124331140046706 39.20336964470334,37.194387544033816 39.20336964470334,37.47461300791474 39.26288289669901,37.54466933599906 39.26288289669901,37.85992262428044 39.20336964470334,38.455400218314026 39.32239614834543,39.3661285340786 39.23312627070118,40.03165914161946 39.292639522464015,41.36271624514484 39.41166602598969,42.76382306305459 39.38190940010827,43.149126373027684 39.471179277752526,43.56945673271548 39.44142265175469,44.16492380652926 39.53069252951536,44.620280240284046 39.500935903633945,46.44169955936377 39.5604491555132,46.86202563671395 39.53069252951536,48.052946553973015 39.5902057812782,48.508297509659315 39.53069252951536,48.99867474439088 39.61996240715962,49.55910495878197 39.5902057812782,50.64493573366781 39.64971903304104,51.3104431151005 39.5902057812782,52.08102889743168 39.67947565903887,52.5714007113711 39.67947565903887,53.23690412603901 39.79850216244813,55.65372079165536 39.76874553668313,55.898904081317596 39.887772040092386,56.10906103879097 39.79850216244813,57.124817740143044 39.85801541432738,58.140571249095956 39.917528665973805,58.59590799282887 39.85801541432738,59.051244095055154 39.917528665973805,59.576631108269794 39.887772040092386,60.52232557989191 39.94728529185522,60.83755645554629 39.887772040092386,61.25786381150829 39.97704191773664,61.71319616376422 40.0663117953809,62.658884384145495 40.00679854361806,63.884772403747775 39.82825878832955,64.09492416877765 38.37018412002362,64.20000000001164 37.62626847298816,64.09492416877765 37.23943233664613,63.91979770734906 36.94186607771553,63.84974709621747 35.9301407977473,63.77969646989368 31.972509555402212,63.289341660623904 31.25835053413175,63.3243670288648 29.383683103485964,63.07918937175418 28.014878312824294,63.044163977057906 27.568528924603015,62.90406236000126 26.61631689639762,62.86903694621287 26.31875063746702,62.79898610734381 24.146516948123462,62.79898610734381 23.640654308139347,62.72893525342806" stroke="#4dd2ff" stroke-linecap="round" stroke-linejoin="round" stroke-width="0.5"><title>2024-08-01 5.0km</title><desc>12035805770</desc></polyline><polyline fill="none" points="70.2272819391219,32.00994567212183 70.88122085412033,31.939963796554366 72.09992519533262,32.0799275325553 73.31862953677773,31.939963796554366 74.18063992448151,31.939963796554366 74.4184358936036,31.869981905823806 74.86430333554745,31.974954736273503 75.01292581611779,32.184900294669205 75.0723748083692,32.70976359341876 74.98320131993387,33.12965361797251 74.98320131993387,33.479561554355314 75.22099728893954,34.984161359549034 75.16154829680454,35.61399175380939 75.19127279298846,36.243820919218706 75.19127279298846,37.85337875914411 75.3101707774913,39.183007443265524 75.3398952735588,41.38737977447454 75.45879325794522,42.4020857885771 75.48851775412913,43.13687091105385 75.45879325794522,43.97662328882143 75.57769124268088,45.20125825770083 75.48851775412913,46.810771437420044 75.54796674649697,47.12567525138729 75.60741573874839,48.52524404175347 75.57769124268088,49.22502616161364 75.63714023481589,49.95979575495585 75.57769124268088,50.44964122152305 75.69658922718372,51.35935225896537 75.6668647309998,52.09411699490738 75.75603821931873,52.72391400896595 75.75603821931873,53.42368702814565 75.90466070000548,54.68327464052709 75.81548721168656,55.52299698541174 75.90466070000548,56.01283401128603 75.9938341883244,56.957517605420435 75.87493620393798,57.867210305819754 75.9641096922569,58.28706761074136 75.9343851961894,58.56697217733017 75.9938341883244,60.1064429563703 75.90466070000548,60.80619997481699 76.02355868462473,61.470967737579485 76.02355868462473,62.13573413161794 76.14245666901115,62.7305239556008 76.11273217294365,63.5702253713971 76.02355868462473,63.92010031663813 75.9343851961894,64.02506272634491 75.75603821931873,64.09503764717374 74.4778848857386,64.20000000001164 73.64559899421874,64.06005018868018 72.93221108696889,63.85012535791611 71.83240473014303,63.74516289142775 71.20819031156134,63.5702253713971 70.34617992374115,63.535237855947344 67.7601487605134,63.2553375964344 65.53081155079417,63.11538737564115 64.66880116297398,63.15037493646378 63.98513775202446,63.29032514212304 63.47982131782919,63.29032514212304 62.706984418444335,63.01042467018124 62.0233210073784,63.08039981091861 60.953239146852866,62.94044951428077 59.97233077452984,62.94044951428077 59.73453480540775,62.83548675203929 59.348116355831735,62.83548675203929 58.6941774408333,62.695536349288886 58.01051402988378,62.52059826054028 57.26740162668284,62.45062299858546 55.90007480466738,61.99578342560562 55.66227883566171,61.89082035617321 55.3353093782207,61.8208449575759 55.03806441696361,61.78585725274752 54.354401006014086,61.855832658853615 53.99770705238916,61.78585725274752 53.52211511437781,61.57593094339245 52.333135269000195,61.435979994625086 52.006165811792016,61.33101674335194 51.88726782728918,61.15607791530783 51.85754333098885,60.981138992356136 52.09533929999452,60.491309504111996 52.184512788429856,60.14143084330135 52.243961780681275,58.21709143125918 52.15478829247877,57.37737609326723 52.392584261484444,56.2577522455249 52.51148224598728,55.27807819377631 53.28431914525572,51.95416193600977 53.70046209113207,50.86950817279285 53.78963557945099,50.344674398424104 54.265227517695166,49.085069858963834 54.7110949595226,48.17535241288715 54.94889092864469,47.47556801774772 55.21641139371786,46.77578210577485 55.483931858907454,46.32092044950696 55.9297993008513,45.02631068942719 56.04869728535414,44.74639438308077 57.14850364218,42.8569529663655 57.53492209187243,42.4020857885771 58.248309998889454,41.0024904521415 58.664452944882214,40.51263065089006 59.46701434033457,39.21799759782152 59.675085813272744,38.79811549265287 60.18040224746801,38.06332049440243 61.16131061955821,36.17383996161516 61.60717806161847,35.648982295242604 61.99359651142731,35.05414257515804 62.17194348794874,34.4942924255447 62.706984418444335,33.51455232719309 62.88533139519859,33.059671985014575 63.50954581389669,32.4298366070434 63.777066279086284,32.28987302276073 64.16348472877871,32.184900294669205 64.84714813984465,32.149909377796575 65.20384209312033,32.0799275325553 67.10620984563138,32.184900294669205 67.96822023333516,32.00994567212183 69.3058225591667,32.00994567212183 69.60306752042379,31.939963796554366 70.94066984637175,31.869981905823806 71.86212922632694,31.904972853022628 72.6646906217793,31.83499095478328 74.03201744391117,31.869981905823806 74.59678287035786,31.79999999998836 74.86430333554745,31.939963796554366 75.01292581611779,32.35985482245451" stroke="#4dd2ff" stroke-linecap="round" stroke-linejoin="round" stroke-width="0.5"><title>2024-07-31 3.5km</title><desc>12027390271</desc></polyline><polyline fill="none" points="106.35991693334654,31.835066689003725 107.10463788558263,31.94026673337794 107.75999232369941,31.905200055771274 108.74302398087457,32.045466743496945 110.530354266637,31.8701333742938 110.85803148557898,31.94026673337794 110.94739799993113,32.08053340599872 111.06655335240066,32.851999018050265 111.03676451416686,33.79879520920804 111.18570870463736,34.885854085558094 111.12613102851901,35.86771057621809 111.24528638075572,37.37555581322522 111.2750752188731,39.0937894929084 111.33465289510787,39.58471172527061 111.33465289510787,40.7068168874539 111.42401940946002,41.65359009074746 111.48359708546195,43.79258601577021 111.5729635998141,44.45882775980863 111.54317476181313,46.77313052574755 111.6027524380479,47.26404110545991 111.63254127604887,48.21079511998687 111.63254127604887,49.893906527460786 111.5729635998141,50.59520036311005 111.66233011416625,51.15623433701694 111.5729635998141,52.34842830177513 111.75169662828557,53.154909963399405 111.84106314275414,54.13671101213549 111.96021849510726,54.80293145569158 111.93042965687346,55.50421465112595 112.04958500934299,56.06524011306465 112.04958500934299,56.52107258461183 111.93042965687346,57.60805511751096 112.01979617122561,59.67681823705789 111.96021849510726,60.16770923900185 111.99000733310822,60.448218048608396 111.96021849510726,60.69366305752192 112.04958500934299,61.675441231403966 112.01979617122561,62.131265799485845 112.10916268546134,62.97278639214346 112.10916268546134,63.84936801547883 111.99000733310822,64.02468405524269 111.78148546651937,64.12987363341381 110.82824264757801,64.20000000001164 109.84521099040285,64.09481044454151 109.18985655228607,63.919494442787254 106.35991693334654,63.60392540032626 105.644984818995,63.46367239372921 104.15554291428998,63.39354586767149 101.32560329535045,63.07797631228459 100.34257163817529,63.18316619822872 99.68721720005851,63.148102906765416 98.4956636762945,63.25329277000856 97.84030923817772,63.148102906765416 97.15516596194357,63.148102906765416 96.35086733358912,62.97278639214346 95.39762451441493,62.867596437747125 94.86142542876769,62.58708972547902 94.32522634312045,62.48189964564517 93.25282817170955,62.48189964564517 92.24000767653342,62.096202393993735 90.89950996218249,61.92088530943147 89.32070154324174,61.64037777646445 89.08239083830267,61.64037777646445 88.75471361924428,61.53518738897401 88.12914801947773,61.465060444927076 87.95041499088984,61.35987000033492 87.89083731453866,61.254679521603975 87.92062615265604,60.90404434548691 88.03978150500916,60.69366305752192 88.09935918124393,60.30796367421863 88.15893685736228,59.01060782888089 88.24830337171443,58.58984265386243 88.24830337171443,56.661328600515844 88.39724756218493,56.275624410423916 88.48661407653708,55.46915052749682 88.66534710512497,54.90812403190648 88.78450245747808,54.312032314541284 88.69513594312593,53.82113242856576 88.72492478135973,53.505553537164815 88.84408013359644,53.084781203069724 89.14196851465385,52.628943890333176 89.79732295265421,50.45494171752944 89.9760559812421,50.17442424406181 90.0952113334788,49.6484533259063 90.33352203841787,49.12248155256384 90.4228885526536,48.80689807818271 91.70380859088618,45.93156779897981 92.15064116206486,44.56402369917487 92.50810721924063,44.03804365999531 92.68684024782851,43.65232442118577 93.22303933347575,42.91595005185809 93.61029422876891,42.46009841185878 94.14649331453256,41.37306498596445 94.47417053359095,40.91721117196721 94.44438169535715,40.91721117196721 95.42741335264873,39.19898717687465 95.99340127641335,38.357404747686815 96.47002268594224,37.44568797884858 97.57220969523769,35.65731300774496 98.46587483829353,33.974127533088904 99.21059579052962,32.851999018050265 99.5680618477054,32.431199821294285 100.01489441923331,32.220800017763395 100.3127828000579,32.150666719448054 102.78525636193808,32.045466743496945 103.32145544770174,32.08053340599872 104.12575407628901,32.01040007729898 104.90026386664249,32.045466743496945 105.67477365711238,31.94026673337794 106.62801647617016,31.94026673337794 107.4621039427584,31.800000000017462 108.20682489511091,31.8701333742938 108.56429095228668,31.835066689003725 110.0537328569917,31.8701333742938 110.67929845699109,31.835066689003725 110.88782032381278,31.94026673337794 111.03676451416686,32.220800017763395 111.03676451416686,33.728662253008224 111.18570870463736,34.885854085558094 111.15591986651998,35.376782703446224 111.24528638075572,36.81449794143555 111.24528638075572,37.4807540558686 111.21549754275475,37.656084384332644 111.2750752188731,38.1820747993188 111.2750752188731,39.05872359071509 111.33465289510787,39.58471172527061 111.3048640571069,40.110699004580965 111.33465289510787,40.63668542873347 111.3048640571069,40.88214546744712 111.45380824746098,41.828918157640146 111.39423057122622,42.81075357660302 111.45380824746098,43.301670168642886 111.51338592357934,43.47699734242633 111.48359708546195,43.93284754952765 111.54317476181313,44.24843577831052 111.51338592357934,44.45882775980863 111.6027524380479,44.77441547534545 111.5729635998141,46.071828405489214 111.48359708546195,46.56274004938314 111.54317476181313,47.299106118414784 111.51338592357934,47.6848210094613 111.63254127604887,48.31598983940785 111.6027524380479,48.80689807818271 111.63254127604887,49.99910069970065 111.6027524380479,50.7705235844478 111.66233011416625,51.366621826484334 111.63254127604887,51.647138266358525 111.69211895216722,52.243234893336194 111.69211895216722,52.94452363674645 111.81127430463675,53.64581086018006 111.81127430463675,54.347096563578816 111.75169662828557,54.97825239703525 111.8708519807551,56.34575247930479 111.78148546651937,57.117160232272 111.9006408189889,57.92363000762998 111.8708519807551,58.51971507151029 111.99000733310822,59.7118819047173 111.9006408189889,60.448218048608396 111.99000733310822,61.92088530943147 111.93042965687346,62.51696300943149 112.10916268546134,63.67405188072007 112.01979617122561,63.954557650809875 111.93042965687346,64.0597472518275 111.42401940946002,64.20000000001164 109.93457750452217,64.16493681861903 108.59407979040407,63.919494442787254 107.52168161887676,63.77924157300731 107.13442672370002,63.81430479622213 106.38970577146392,63.60392540032626 106.18118390475865,63.60392540032626 104.69174200005364,63.39354586767149 103.9768098857021,63.39354586767149 102.01074657146819,63.07797631228459 101.62349167629145,63.07797631228459 101.2362367809983,63.11303961146041 100.22341628570575,63.07797631228459 99.74679487629328,63.007849702611566 99.35953998100013,63.007849702611566 98.85312973335385,62.832533111970406 98.52545251441188,62.797469782381086 97.15516596194357,62.93772307771724 96.49981152394321,62.902659759740345 95.54656870488543,62.692279771057656 94.77205891453195,62.72734311191016 94.32522634312045,62.48189964564517" stroke="#4dd2ff" stroke-linecap="round" stroke-linejoin="round" stroke-width="0.5"><title>2024-07-29 5.1km</title><desc>12014148662</desc></polyline><polyline fill="none" points="142.62141172518022,32.0097192050016 143.21526031033136,32.11457875632914 145.17496064153966,32.0796255763853 146.54081238759682,31.939812818425708 146.8080442509381,32.04467239254154 146.98619882646017,32.32429775674245 147.04558368504513,32.70878223652835 147.01589125569444,33.54765587375732 147.10496854339726,34.002044849446975 147.10496854339726,34.59624485147651 147.28312311903574,35.22539660133771 147.1940458312165,36.029310939775314 147.28312311903574,36.58855451489217 147.25343068968505,38.650756815768545 147.37220040685497,39.45466261473484 147.3425079776207,40.608089173591 147.4612776945578,41.901320106117055 147.4612776945578,43.64892123485333 147.49097012367565,44.557670078997035 147.4612776945578,44.837284592707874 147.5800474116113,45.85088517272379 147.63943227019627,47.283901246468304 147.5800474116113,48.01788262309856 147.66912469943054,48.68195957195712 147.609739840962,50.11496306565823 147.5800474116113,50.394572761055315 147.63943227019627,51.19844928471139 147.609739840962,51.65281339007197 147.75820198713336,52.70134349775617 147.6988171286648,53.71491936125676 147.87697170418687,54.34403381237644 147.93635656265542,54.76344276461168 147.90666413353756,56.37117202888476 147.99574142124038,57.10513272401295 147.87697170418687,57.76919096137863 147.93635656265542,58.15364510533982 147.90666413353756,58.3633471725916 147.9660489920061,58.99245255620917 147.9660489920061,60.18075937710819 148.08481870917603,60.63511082806508 147.9660489920061,61.5787617964088 147.99574142124038,62.17291098961141 148.08481870917603,62.41756033938145 148.05512627982534,63.04665781499352 148.14420356764458,63.71070381911704 148.1145111382939,63.920402273215586 147.99574142124038,64.02525144917308 147.40189283608925,64.20000000001164 146.0063486607978,64.16505029739346 145.62034708051942,64.02525144917308 145.3828076464124,64.06020116695436 142.44325714954175,63.570904774038354 139.74124608689453,63.39615588230663 138.96924292610493,63.291306501894724 137.5736987509299,63.22140689598746 136.50477129756473,63.01170798737439 135.85153785371222,62.94180832087295 135.40615141473245,62.94180832087295 135.0795346929226,63.04665781499352 134.4559936786536,62.97675815608818 134.15906938596163,63.01170798737439 133.35737379593775,63.04665781499352 131.9618296206463,62.73210923044826 131.66490532818716,62.76705908839358 130.9819794552168,62.592309761210345 129.8833595723845,62.55735988437664 129.28951098723337,62.347660544124665 128.7253548312001,62.27776073367568 128.36904568015598,62.103011141414754 128.04242895834614,62.03311127796769 126.02334376855288,61.78846163669368 125.57795732968953,61.683611733606085 124.33087530068588,61.5787617964088 124.18241315439809,61.54381180985365 123.94487372040749,61.36906181980157 123.85579643247183,61.0545115993591 123.94487372040749,60.56521064651315 124.21210558374878,60.006008648633724 124.33087530068588,59.55165631140699 124.36056773003656,58.922552018630086 124.3011828714516,58.433247831388144 124.33087530068588,58.01384365154081 124.21210558374878,57.20998411549954 124.39026015915442,56.02166634879541 125.25134060787968,52.94600003233063 125.45918761263601,51.86251968436409 125.8451891929144,50.84893799890415 126.08272862713784,49.94020688298042 126.34996049047913,49.52079165808391 127.00319393421523,47.808173828874715 127.27042579755653,46.68972462284728 127.53765766089782,46.27030517050298 127.98304409976117,45.25670590883237 128.36904568015598,44.10329597699456 128.5768926849123,43.75377700134413 128.9925866945414,43.264449799084105 129.58643527980894,42.285793167044176 130.2693611527793,41.30713356487104 130.71474759175908,40.46828011330217 131.1898264598567,39.76923390349839 131.66490532818716,38.75561420759186 132.19936905463692,38.12646934547229 132.615063064266,37.32256023527589 133.26829650823493,36.41379100186168 133.71368294709828,35.64483041924541 134.18876181531232,34.56129194056848 134.4559936786536,34.281668516254285 134.63414825394284,33.96709187398665 134.96076497610193,33.163172394328285 135.1092271222733,32.883547757490305 135.43584384408314,32.49906348614604 135.67338327819016,32.28934459944139 136.17815457563847,32.11457875632914 137.45492903375998,32.14953193248948 138.8801656382857,32.0097192050016 139.71155365777668,32.0796255763853 141.43371455464512,31.974766013619956 142.769873871468,31.800000000017462 143.72003160777967,31.904859619535273 144.75926663191058,31.904859619535273 144.9671136366669,31.869906416832237 146.45173509977758,31.939812818425708 146.62988967541605,31.904859619535273 146.9268139678752,32.0796255763853 146.98619882646017,32.28934459944139 147.01589125569444,32.53401662068791 146.9565063972259,33.233078515622765 147.16435340198223,34.21176262226072 147.16435340198223,34.66615066200029 147.28312311903574,35.08558520747465 147.1940458312165,35.57492482083035 147.1940458312165,36.4487437120697 147.25343068968505,37.287607619859045 147.2237382605672,37.881801567651564 147.25343068968505,38.72066174741485 147.3425079776207,39.20999584463425 147.31281554838642,39.90904326669988 147.40189283608925,40.573136914143106 147.3425079776207,41.86636798692052 147.40189283608925,41.971224333159626 147.37220040685497,42.77512185432715 147.43158526543994,43.0896899040963 147.40189283608925,43.47416154819075 147.43158526543994,44.31300718057901 147.49097012367565,44.76738098709029 147.55035498237703,45.85088517272379 147.63943227019627,46.445063341991045 147.55035498237703,47.07419197494164 147.5800474116113,47.91302824302693 147.6988171286648,48.64700818771962 147.66912469943054,49.76545060556964 147.5800474116113,50.35962156235473 147.609739840962,50.744084539299365 147.609739840962,51.23340039252071 147.66912469943054,51.58291126167751 147.78789441648405,53.365410802623956 147.75820198713336,53.81977185502183 147.81758684583474,54.06442754116142 147.75820198713336,54.65859057760099 147.81758684583474,55.00809773482615 147.87697170418687,56.26632036457886 148.02543385047466,57.00028129841667 147.847279275069,58.78275089798262 148.02543385047466,60.3555100109661 148.02543385047466,62.103011141414754 148.1145111382939,62.73210923044826 148.05512627982534,63.151507274917094 148.08481870917603,63.67575406344258 148.05512627982534,63.88545254030032 147.90666413353756,64.02525144917308 147.25343068968505,64.16505029739346 146.33296538260765,64.13010059093358 146.12511837796774,64.06020116695436 145.82819408539217,64.09515088086482 145.5015773633495,64.06020116695436 145.20465307077393,63.990301727637416 144.16541804664303,63.850502803659765 143.4231073152041,63.67575406344258 142.26510257390328,63.60585454094689 141.40402212552726,63.60585454094689 140.89925082807895,63.50100522869616 138.58324134582654,63.18645708728582 137.78154575568624,63.18645708728582 135.70307570754085,62.90685848207795 135.19830441009253,63.01170798737439 134.48568610777147,63.01170798737439 133.8027602348011,63.08160763874184 132.82291006925516,63.04665781499352 131.991522049997,62.802008942409884 131.60552046948578,62.627259634202346" stroke="#4dd2ff" stroke-linecap="round" stroke-linejoin="round" stroke-width="0.5"><title>2024-07-27 5.1km</title><desc>11997575827</desc></polyline><polyline fill="none" points="177.9856166235404,32.010856453794986 178.4632718153298,31.905428244004725 180.46345293160994,31.94057098441408 182.40392714866903,31.800000000017462 182.8218754415866,31.870285499753663 182.94128923944663,31.975713720952626 183.00099613855127,32.15142734668916 183.0308495881036,33.170564497995656 183.0905564869754,34.084270944294985 183.06070303742308,34.22484093825915 183.2995306334924,35.173686803202145 183.20997028483544,35.59539518514066 183.23982373438776,36.50909479771508 183.20997028483544,37.73907097891788 183.3293840829283,39.707023163326085 183.23982373438776,40.269293021963676 183.38909098191652,41.88581343414262 183.3592375323642,42.51836270579952 183.3592375323642,43.81859899990377 183.47865133034065,44.34572033639415 183.5682116789976,45.92707920394605 183.68762547685765,49.54660491575487 183.62791857786942,50.88195371319307 183.68762547685765,52.74440469412366 183.62791857786942,53.44721360490075 183.68762547685765,54.22030164732132 183.68762547685765,54.78254633877077 183.74733237584587,54.887967109825695 183.92645307281055,56.153013689647196 183.89659962325823,56.680114974675234 183.95630652224645,57.804594852234004 183.89659962325823,58.19113390953862 183.86674617393874,58.89393101510359 183.92645307281055,59.87784440384712 183.89659962325823,60.75633597819251 183.92645307281055,61.07259236238315 183.95630652224645,62.44303312970442 184.13542721921112,63.497214394184994 184.0757203202229,63.989164478116436 183.83689272427,64.12972150795395 182.67260819417424,64.20000000001164 182.19495300203562,64.20000000001164 181.32920296688098,64.02430374131654 180.911254673847,64.09458225622075 180.64257362834178,64.05944300073315 178.37371146690566,63.60263233218575 176.79147864377592,63.53235371061601 174.25393543671817,63.14582102015265 173.02994400751777,63.110681661753915 172.01492672471795,63.00526356397313 171.29844393674284,62.86470604670467 170.49240080057643,62.86470604670467 168.85046107834205,62.58359082957031 167.41749550262466,62.61873024509987 166.0442368258955,62.372754256852204 165.65614198253024,62.267335919023026 164.76053849759046,62.232196465542074 162.16328839177731,61.74024371613632 160.2526676240377,61.56454612474772 159.9541331290966,61.423987983114785 159.86457278078888,61.24829022039194 159.86457278078888,61.002313192526344 160.01384002820123,60.51035857727402 160.16310727561358,59.49130735718063 160.10340037662536,58.82365137306624 160.1929607251659,58.36683332873508 160.2228141744854,56.644974915572675 160.40193487156648,56.188153802009765 160.55120211909525,55.13394877573592 160.79002971504815,54.43114352086559 161.08856420998927,52.77954517578473 161.20797800796572,52.35785914375447 161.23783145751804,52.07673481781967 161.4169521543663,51.76046965972637 161.6557797504356,51.02251642459305 161.71548664930742,50.56568738975329 161.8946073462721,50.073716940154554 162.25284874031786,49.265478152403375 162.49167633603793,48.38695544577786 162.9096246290719,47.262442908016965 163.1484522250248,46.91103194016614 163.68581431591883,45.57566678879084 163.98434881085996,44.55656863094191 164.19332295737695,44.13487190462183 164.76053849759046,43.396901313593844 165.14863334107213,42.76435375594883 166.2532109724125,41.1126959817193 167.56676275003701,38.758190565771656 168.4922196842963,37.422791835066164 169.6863576641772,35.314256324782036 170.07445250765886,34.50598074335721 170.37298700248357,34.04912843630882 170.73122839641292,33.27599229614134 171.26859048742335,32.57313965985668 171.53727153281216,32.32714087725617 171.9253663761774,32.15142734668916 173.92554749222472,32.116284629213624 174.5524699316593,32.04599918270833 175.2689527196344,32.08114190780907 175.806314810412,32.010856453794986 178.13488387095276,31.905428244004725 180.1350649871165,32.010856453794986 182.40392714866903,31.83514275183552 182.79202199203428,31.905428244004725 182.8815823404584,32.010856453794986 182.97114268899895,32.22171277034795 183.00099613855127,33.627418042946374 183.23982373438776,35.06825962199946 183.15026338596363,35.349398695718264 183.12040993652772,35.63053752554697 183.20997028483544,36.227956729591824 183.15026338596363,36.860517039865954 183.20997028483544,38.61762253721827" stroke="#4dd2ff" stroke-linecap="round" stroke-linejoin="round" stroke-width="0.5"><title>2024-07-26 3.8km</title><desc>11987014491</desc></polyline><polyline fill="none" points="36.517471605562605,83.04626626940444 37.204846507054754,83.01108538525295 37.35427583346609,82.90554270980647 37.50370515987743,82.87036181031726 37.981879004393704,82.87036181031726 38.5198245793581,82.80000000001746 38.84856909757946,82.87036181031726 38.93822669330984,82.90554270980647 39.027884289156646,83.08144714985974 39.08765601995401,83.43325574384653 38.99799842399079,84.03132947854465 39.207199480966665,85.79036348694353 39.14742775040213,86.4236133962695 39.29685707681347,88.53443750363658 39.207199480966665,89.16768205896369 39.266971211414784,90.50452761843917 39.23708534624893,90.99704827865935 39.326742942095734,91.45438822254073 39.326742942095734,93.35410109147779 39.38651467266027,94.65574978620862 39.50605813367292,95.42970058941864 39.47617226850707,96.2388290016388 39.59571572963614,98.84209803459817 39.56582986435387,99.33460604352877 39.68537332548294,100.00300857474213 39.71525919076521,100.63623075556825 39.71525919076521,100.9880203223438 39.56582986435387,101.65641944890376 39.74514505604748,102.35999598976923 39.68537332548294,103.34500058504636 39.74514505604748,104.6817877550784 39.95434611290693,105.52607155233272 39.924460247857496,106.29999643735937 39.984231978305615,108.1292661036714 39.89457438245881,108.65693813012331 39.95434611290693,109.43085555083235 39.89457438245881,109.78263558674371 39.95434611290693,110.4510166044929 39.924460247857496,111.22492974804481 40.01411784358788,112.66721750126453 40.01411784358788,113.82807859941386 40.07388957415242,114.46127381248516 40.16354716999922,114.74269351066323 40.13366130460054,114.95375812423299 39.924460247857496,115.12964519741945 39.71525919076521,115.1648226006655 39.29685707681347,115.20000000001164 38.639368040603586,115.1648226006655 37.32438996806741,114.98893554648384 35.830096704070456,114.95375812423299 35.08295007201377,114.74269351066323 33.61854267306626,114.63716115243733 31.944934217375703,114.3909188498219 29.344863937818445,114.17985387030058 28.17931519181002,114.03914380769129 27.67125548189506,113.89843368408037 27.073538176249713,113.89843368408037 26.176962217781693,114.10949884660658 25.668902507983148,113.9687887535838 24.951641741208732,113.82807859941386 23.726321264752187,113.9687887535838 22.441229057498276,113.61701325402828 21.335452042054385,113.51148052987992 20.618191275163554,113.23005976428976 15.926110425963998,112.49132909398759 15.83645283000078,112.10437426241697 15.83645283000078,111.71741896957974 16.13531148293987,111.0490405591845 16.19508321338799,110.5917282224109 16.165197348222136,109.7474576002569 16.19508321338799,109.1494312476716 16.105425617541187,108.34033501715749 16.314626674633473,107.35534557976644 16.374398405198008,106.75731482048286 16.523827731609344,105.9833910256275 16.643371192738414,105.59642843628535 17.181316767819226,103.3801792653394 17.390517824911512,102.64142617917969 17.539947151206434,101.9378502482432 17.719262342783622,101.41016729926923 17.86869166942779,101.16391496284632 18.048006860888563,100.49551482219249 18.436523109674454,99.44014337679255 18.615838301368058,99.1587104118662 18.88481108902488,98.34958927842672 19.422756663989276,97.18867282479187 19.93081637378782,95.78149579910678 20.618191275163554,94.51503126003081 22.47111492289696,91.77100780615001 23.218261554837227,90.25826700800098 24.3539244356798,88.53443750363658 25.280386259313673,86.91614024920273 25.668902507983148,86.38843287812779 26.02753289148677,85.6144605151494 26.14707635238301,85.2626542855287 26.356277409475297,84.94602835268597 26.535592601285316,84.5590406821284 27.34251096379012,83.39807490160456 27.76091307774186,83.15180889915791 28.418402114068158,83.04626626940444 29.165548746008426,83.11662802635692 32.06447767850477,82.94072360539576 33.170254693948664,82.90554270980647 33.40934161609039,82.94072360539576 34.00705892185215,82.83518090701546 34.425461035687476,82.83518090701546 35.740439108223654,82.94072360539576 36.03929776104633,82.87036181031726 36.60712920129299,82.94072360539576 37.653134486288764,82.80000000001746 38.22096592653543,82.87036181031726 38.968112558708526,82.83518090701546 39.027884289156646,82.87036181031726 39.11754188511986,83.22217063323478 39.08765601995401,84.17205255010049 39.1773136156844,85.40337682308746 39.29685707681347,86.00144692734466 39.23708534624893,86.88095978440833 39.266971211414784,87.51420756580774 39.23708534624893,88.35853601904819" stroke="#4dd2ff" stroke-linecap="round" stroke-linejoin="round" stroke-width="0.5"><title>2024-07-24 3.7km</title><desc>11969555111</desc></polyline><polyline fill="none" points="69.87318526837043,114.76383235065441 69.87318526837043,114.32766380636895 69.95433463307563,112.89799396958551 69.95433463307563,112.26796692123753 70.09634602128062,110.13555382337654 70.15720804478042,109.65091149928048 70.11663336236961,109.069339251786 70.19778272707481,108.6331590218033 70.1774953858694,107.47000736562768 70.2383574093692,106.42801193486957 70.2586447505746,103.83511741168331 70.3397941152798,102.55077476453152 70.299219432869,102.28421211049135 70.3195067740744,101.21795815079531 70.299219432869,100.49096374757937 70.3195067740744,99.49740070787084 70.4006561387796,98.64923346234718 70.3600814564852,98.47959960706066 70.299219432869,98.4311327663745 69.79203590366524,98.4311327663745 69.32542705675587,98.33419905183837 68.39220936305355,98.28573217794474 67.98646253964398,98.2130318464915 67.39812964573503,98.23726529312262 66.85037143423688,98.11609803255124 66.6272106814431,98.11609803255124 66.38376258744393,98.18879839718284 65.77514235232957,98.2130318464915 65.38968287000898,98.04339764307952 64.37531581171788,97.99493070290191 63.989856329513714,97.89799678933923 63.62468418839853,97.75259583631123 63.340661412104964,97.8010628317279 62.83347788278479,97.8010628317279 62.30600701237563,97.70412882987875 61.87997284787707,97.67989532246429 61.23077793046832,97.51026069343789 60.601870354264975,97.41332655886072 59.74980202515144,97.3890930183552 58.37026282574516,97.21945815716754 58.04566536704078,97.19522459449945 57.822504614130594,97.07405673981702 57.7819299318362,96.92865522296051 57.7819299318362,96.80748721623968 57.88336663763039,96.41974913065496 58.512274213833734,95.11112786864396 58.67457294324413,94.52951583221147 59.323767860536464,93.02701070388139 59.526641272357665,92.44539296334551 59.526641272357665,92.27575415585306 59.44549190765247,91.96071029696031 59.526641272357665,91.74260273648542 59.79037670744583,91.23368422462954 59.89181341335643,90.82170167949516 59.99325011926703,90.11890608273097 60.43957162485458,87.98627073311945 60.50043364847079,87.62275120886625 60.50043364847079,87.45310855140269 60.58158301305957,87.18652695897617 60.72359440126456,86.36254537683271 61.10905388346873,84.88421747065149 61.35250197746791,83.720935821897 61.37278931867331,83.50281980376167 61.5959500715835,82.87270560473553 61.57566273026168,82.82423520431621 61.4945133656729,82.79999999998836 61.3930766597623,83.01811673960765 61.33221463637892,83.23623325528752 61.21049058926292,84.011756831198 60.88589313055854,85.27197660502861 60.601870354264975,86.65336277066672 60.39899694256019,87.45310855140269 60.35842226014938,87.71968980955717 60.338134919060394,88.34978963548201 60.21641087194439,88.85871505405521 59.99325011926703,89.41610816154571 59.93238809576724,89.68268695699226 59.81066404865123,90.67629588469572 59.79037670744583,90.96710737487592 59.10060710774269,92.5665634572506 58.836871672654524,93.34205298191227 58.59342357853893,93.82673249780782 57.6602058847202,96.05624403283582 57.55876917892601,96.44398278169683 57.599343861220405,96.71055276118568 57.741355249425396,96.90442162720137 58.02537802583538,97.09829031626577 58.41083750803955,97.19522459449945 60.17583618965,97.3406259289768 61.02790451887995,97.43756009661593 61.51480070676189,97.55872774412273 61.92054753028788,97.55872774412273 62.326294353581034,97.63142829939898 62.630604471080005,97.58296126528876 63.44209811789915,97.63142829939898 64.65933858801145,97.8252963253326 65.2882461642148,97.89799678933923 65.47083223471418,97.97069722865126 66.20117651682813,98.16456494509475 66.5054866343271,98.14033149022725 67.13439421053044,98.26149873690156 67.60100305743981,98.26149873690156 67.9053131750552,98.30996561635402 68.93996757466812,98.28573217794474 69.71088653896004,98.38266591462889 70.2586447505746,98.35843248460151 70.4006561387796,98.4311327663745 70.44123082107399,99.40046747968881 70.38036879757419,100.12746561334643 70.42094347986858,100.46673055790598 70.38036879757419,101.04832634581544 70.4006561387796,101.6541535990691 70.3600814564852,101.82378492050339 70.3397941152798,102.40537699464767 70.3600814564852,103.10813196093659 70.3195067740744,103.71395334253612 70.3397941152798,104.65903124972829 70.3195067740744,104.78019478010538 70.3397941152798,104.87712555464532 70.299219432869,105.24061556534434 70.3397941152798,105.79796570775216 70.27893209178,106.18568668398075 70.299219432869,107.08228873237385 70.2586447505746,108.19697789661586 70.27893209178,108.58469449648692 70.19778272707481,109.28742903110106 70.2180700681638,110.01439334596216 70.1774953858694,110.47480279268348 70.19778272707481,110.8867472417769 70.2180700681638,111.08060317680065 70.1774953858694,111.34715479893202 70.2180700681638,111.51677838434989 70.2180700681638,111.97718457668088 70.05577133886982,112.6799078949698 70.01519665645901,112.80106685294595 69.97462197416462,113.0918480703549 69.85289792716503,114.52151660322852 69.87318526837043,115.19999999999709" stroke="#4dd2ff" stroke-linecap="round" stroke-linejoin="round" stroke-width="0.5"><title>2024-07-21 4.3km</title><desc>11945152036</desc></polyline><polyline fill="none" points="93.93678989820182,108.85598358977586 94.7067213403061,111.57485012291 95.66913564130664,112.93428206327371 97.97892996575683,114.52028487646021 99.71127570979297,115.19999999995343 102.02107003331184,115.19999999995343 104.13838149793446,114.52028487646021 106.25569296162575,112.93428206327371 107.41059012338519,110.89513382082805 107.98803870473057,107.72312149056233 105.87072724010795,87.55807341332547 104.90831293910742,85.97205014550127 103.56093291658908,84.3860256744083 101.82858717348427,83.25315031525679 99.90375856962055,82.79999999981374 97.40148138441145,83.02657516929321 95.09168705996126,83.93287560436875 93.55182417761534,85.51890041935258 92.20444415416569,88.01122269779444 92.01196129526943,90.50354200485162 93.93678989820182,109.08255593618378 94.5142384795472,111.34827804681845 96.24658422265202,113.38742584665306 98.36389568634331,114.74685660889372 100.4812071500346,115.19999999995343 102.9834843352437,114.97342831641436 105.2932786596939,113.61399770225398 106.83314154297113,112.0279942008201 107.79555584397167,109.98884507478215 107.98803870473057,107.49654899677262 106.06321010086685,88.01122269779444 105.100795798935,86.19862497132272 103.94589863717556,84.61260067229159 102.02107003331184,83.25315031525679 100.28872429020703,82.79999999981374 97.97892996575683,82.79999999981374 95.09168705996126,84.15945065114647 93.35934131778777,85.74547529499978 92.20444415416569,88.46437188354321 92.01196129526943,90.73011633963324 94.12927275896072,110.21541729825549 95.09168705996126,112.25456620357 96.24658422265202,113.38742584665306 97.97892996575683,114.52028487646021 100.28872429020703,115.19999999995343 102.40603575389832,115.19999999995343 104.33086435683072,114.29371311934665 106.44817582145333,112.48113818117417 107.41059012338519,110.89513382082805 107.98803870473057,107.72312149056233 105.87072724010795,87.78464806824923 104.90831293910742,85.74547529499978 103.36845005583018,84.15945065114647 101.44362145289779,83.02657516929321 99.32630998827517,82.79999999981374 96.6315499432385,83.25315031525679 94.3217556187883,84.61260067229159 92.78189273644239,86.65177455102094 92.01196129526943,89.37066996097565 107.98803870473057,107.94969395943917 106.25569296162575,89.37066996097565 105.67824438028038,86.8783493032679 104.52334721758962,85.29232551949099 102.7910014744848,83.70630053267814 100.86617287062109,83.02657516929321 98.17141282651573,82.79999999981374 96.24658422265202,83.47972543677315 94.12927275896072,84.8391756459605 92.78189273644239,86.65177455102094 92.20444415416569,88.69094643951394 92.20444415416569,90.95669065066613 94.12927275896072,109.98884507478215 94.89920420013368,111.80142217432149 96.24658422265202,113.61399770225398 98.74886140692979,114.97342831641436 100.86617287062109,115.19999999995343 103.36845005583018,114.74685660889372 105.100795798935,113.8405695327092 106.83314154297113,112.0279942008201 107.79555584397167,109.98884507478215 107.98803870473057,107.49654899677262 106.06321010086685,88.2377973033581 105.100795798935,86.19862497132272 103.75341577548534,84.61260067229159 101.82858717348427,83.25315031525679 99.51879284810275,82.79999999981374 97.01651566382498,83.02657516929321 94.7067213403061,84.3860256744083 93.16685845702887,85.97205014550127 92.20444415416569,88.2377973033581 92.01196129526943,90.50354200485162 94.12927275896072,109.98884507478215 95.09168705996126,112.25456620357 96.6315499432385,113.8405695327092 98.94134426768869,114.97342831641436 101.05865573231131,115.19999999995343 103.75341577548534,114.74685660889372 105.67824438028038,113.38742584665306 106.83314154297113,112.0279942008201 107.79555584397167,109.76227282686159 107.98803870473057,107.04340393631719 105.87072724010795,87.78464806824923 104.52334721758962,85.06575059541501 102.9834843352437,83.93287560436875 101.25113859213889,83.02657516929321 98.94134426768869,82.79999999981374 97.01651566382498,83.02657516929321 94.7067213403061,84.3860256744083 92.97437559626997,86.42519977362826 92.20444415416569,88.2377973033581 92.01196129526943,90.73011633963324 93.93678989820182,108.85598358977586 94.3217556187883,110.66856167139485 95.66913564130664,112.93428206327371 97.40148138441145,114.29371311934665 99.71127570979297,115.19999999995343 102.21355289313942,115.19999999995343 104.52334721758962,114.29371311934665 106.44817582145333,112.7077101340983 107.60307298414409,110.66856167139485 107.98803870473057,108.40283882338554 106.25569296162575,89.37066996097565 105.48576151952147,86.65177455102094 103.56093291658908,84.3860256744083 101.25113859213889,83.02657516929321 98.55637854710221,82.79999999981374 96.05410136282444,83.47972543677315 94.7067213403061,84.15945065114647 93.35934131778777,85.74547529499978 92.39692701585591,87.55807341332547 92.01196129526943,89.14409547811374 93.93678989820182,108.62941121915355 94.7067213403061,111.34827804681845 96.05410136282444,113.38742584665306 98.17141282651573,114.74685660889372 100.86617287062109,115.19999999995343 102.7910014744848,114.97342831641436 104.90831293910742,114.06714133825153 106.44817582145333,112.7077101340983 107.60307298414409,110.44198949681595 107.98803870473057,108.62941121915355 107.79555584397167,106.59025877760723 99.13382712844759,82.79999999981374 97.40148138441145,83.02657516929321 107.98803870473057,106.81683136941865 106.06321010086685,88.91752097150311 105.2932786596939,86.42519977362826 103.94589863717556,84.61260067229159 101.44362145289779,83.25315031525679 98.74886140692979,82.79999999981374 96.43906708341092,83.25315031525679 94.7067213403061,84.15945065114647 93.16685845702887,85.97205014550127 92.39692701585591,88.01122269779444 92.01196129526943,89.59724441892467 93.93678989820182,108.85598358977586 94.89920420013368,112.0279942008201" stroke="#4dd2ff" stroke-linecap="round" stroke-linejoin="round" stroke-width="0.5"><title>2024-07-05 3.3km</title><desc>11814633384</desc></polyline><polyline fill="none" points="134.76611835788935,82.80000000004657 132.29835507366806,83.47034998610616 130.02041973453015,85.25794888241217 128.50179617572576,87.93934432114474 128.50179617572576,90.39728707657196 130.4000756246969,108.94348794268444 130.96955945994705,111.40140565834008 132.108527129516,112.96553358761594 133.81697863340378,114.30621372582391 135.71525808330625,115.19999999995343 137.80336547736079,115.19999999995343 139.70164492540061,114.75310691166669 141.5999243762344,113.41242706403136 142.73889204580337,111.8482994735241 143.68803176935762,109.6138294285629 143.68803176935762,107.15590958180837 141.78975232038647,88.83314202586189 140.8406125959009,85.92829806893133 138.56267725676298,83.91724985511974 135.52543013822287,82.80000000004657 132.29835507366806,83.47034998610616 129.8305917903781,85.48139863531105 128.50179617572576,88.16279378393665 128.50179617572576,90.8441854447592 130.4000756246969,108.94348794268444 131.3492153501138,112.0717463446781 132.8678389089182,113.85932044312358 134.5762904137373,114.75310691166669 136.66439780779183,115.19999999995343 138.94233314692974,114.97655346780084 141.4100964302197,113.63587376568466 142.73889204580337,112.0717463446781 143.49820382520556,109.8372765420936 143.68803176935762,107.60280431737192 141.78975232038647,89.95038861152716 141.22026848606765,86.82209664559923 140.0813008164987,85.25794888241217 137.80336547736079,83.47034998610616 135.52543013822287,82.80000000004657 133.43732274416834,83.02345001883805 131.53904329426587,83.91724985511974 129.8305917903781,85.25794888241217 128.88145206589252,87.04554622876458 128.31196822971106,89.05659139109775 130.4000756246969,109.16693512862548 130.96955945994705,111.17795871431008 131.91869918443263,112.7420868135523 133.62715068925172,114.30621372582391 135.71525808330625,114.97655346780084 137.80336547736079,115.19999999995343 140.27112876065075,114.30621372582391 141.97958026546985,112.96553358761594 143.1185479350388,111.17795871431008 143.68803176935762,109.16693512862548 141.78975232038647,89.50349005032331 141.4100964302197,87.26899578841403 140.27112876065075,85.25794888241217 138.75250520184636,83.91724985511974 136.2847419185564,83.02345001883805 133.81697863340378,83.02345001883805 131.53904329426587,83.91724985511974 130.02041973453015,85.03449910529889 128.88145206589252,87.26899578841403 128.31196822971106,89.05659139109775 130.4000756246969,109.16693512862548 130.77973151486367,110.95451174629852 132.108527129516,112.96553358761594 133.62715068925172,114.30621372582391 135.71525808330625,114.97655346780084 137.99319342151284,115.19999999995343 140.0813008164987,114.52966033061966 141.97958026546985,112.96553358761594 143.30837587919086,110.95451174629852 143.68803176935762,108.72004073276184 141.78975232038647,89.95038861152716 141.4100964302197,87.26899578841403 140.0813008164987,85.03449910529889 138.3728493116796,83.69379993272014 136.2847419185564,83.02345001883805 133.43732274416834,83.02345001883805 131.53904329426587,83.91724985511974 130.02041973453015,85.03449910529889 128.88145206589252,87.26899578841403 128.31196822971106,89.05659139109775 130.4000756246969,108.94348794268444 130.96955945994705,111.40140565834008 131.91869918443263,112.96553358761594 133.62715068925172,114.30621372582391 135.71525808330625,115.19999999995343 138.56267725676298,114.97655346780084 140.46095670573413,114.30621372582391 142.16940821055323,112.7420868135523 143.30837587919086,110.73106475337408 143.68803176935762,108.72004073276184 141.78975232038647,90.17383785569109 141.22026848606765,87.04554622876458 140.0813008164987,85.03449910529889 137.80336547736079,83.47034998610616 135.52543013822287,82.80000000004657 132.48818301968277,83.47034998610616 130.4000756246969,84.58759947749786 129.26110795512795,86.15174774895422 128.50179617572576,87.93934432114474 128.31196822971106,89.28004073305055 130.4000756246969,109.6138294285629 131.3492153501138,112.0717463446781 132.67801096383482,113.63587376568466 134.76611835788935,114.75310691166669 136.8542257519439,115.19999999995343 139.70164492540061,114.75310691166669 141.22026848606765,113.63587376568466 142.9287199890241,111.62485257769004 143.68803176935762,109.6138294285629 143.68803176935762,107.37935696193017 141.78975232038647,89.05659139109775 141.22026848606765,86.82209664559923 140.0813008164987,85.03449910529889 138.18302136659622,83.69379993272014 135.71525808330625,82.80000000004657 133.24749479815364,83.02345001883805 131.53904329426587,83.69379993272014 130.02041973453015,85.25794888241217 128.88145206589252,87.04554622876458 128.50179617572576,88.83314202586189 130.4000756246969,109.16693512862548 130.96955945994705,111.40140565834008 132.108527129516,113.1889803383965 133.81697863340378,114.30621372582391 136.2847419185564,115.19999999995343 138.3728493116796,114.97655346780084 140.27112876065075,114.30621372582391 141.97958026546985,112.96553358761594 143.30837587919086,110.73106475337408 143.68803176935762,108.72004073276184 141.78975232038647,89.50349005032331 141.03044054098427,86.59864703798667 139.32198903616518,84.36414962774143 136.47456986177713,83.02345001883805 134.3864624677226,82.80000000004657 131.72887123934925,83.69379993272014 130.5899035707116,84.58759947749786 129.26110795512795,86.15174774895422 128.88145206589252,87.04554622876458 128.31196822971106,89.28004073305055 130.21024768054485,108.72004073276184 130.96955945994705,111.40140565834008 132.67801096383482,113.63587376568466 134.3864624677226,114.75310691166669 136.66439780779183,115.19999999995343 138.75250520184636,114.97655346780084 140.6507846508175,114.08276709658094 141.97958026546985,112.96553358761594 143.1185479350388,111.17795871431008 143.68803176935762,109.16693512862548 141.4100964302197,87.4924453231506 140.27112876065075,85.25794888241217 138.75250520184636,83.91724985511974 136.66439780779183,83.02345001883805 134.3864624677226,82.80000000004657 132.108527129516,83.47034998610616 130.4000756246969,84.81104930350557 129.07128001004457,86.37519740569405 128.50179617572576,88.60969263548031 130.21024768054485,108.49659349792637 130.96955945994705,111.40140565834008 132.108527129516,112.96553358761594 134.00680657848716,114.52966033061966 136.66439780779183,115.19999999995343 138.56267725676298,114.97655346780084 140.8406125959009,114.08276709658094 142.3592361556366,112.7420868135523 143.30837587919086,110.95451174629852 143.68803176935762,108.72004073276184 141.78975232038647,88.83314202586189 141.22026848606765,86.82209664559923 139.51181698217988,84.58759947749786 137.61353753134608,83.24690001481213 134.76611835788935,82.80000000004657 132.29835507366806,83.47034998610616 130.5899035707116,84.58759947749786 129.45093590021133,85.92829806893133 128.69162412080914,87.71589483460411 128.31196822971106,89.05659139109775" stroke="#4dd2ff" stroke-linecap="round" stroke-linejoin="round" stroke-width="0.5"><title>2024-06-26 3.9km</title><desc>11744480107</desc></polyline><polyline fill="none" points="178.64239467226434,83.08114190783817 180.1649210912874,83.04599918267922 182.07554248021916,82.80000000001746 182.64275820506737,82.80000000001746 182.7920255010249,82.83514275186462 182.94129279698245,82.97571372095263 183.06070663384162,83.1865700604103 183.03085317462683,85.01398592430633 183.06070663384162,85.40055334492354 183.18012047070079,85.89254757706658 183.29953430744354,88.10651238248101 183.26968084822875,88.66878675116459 183.35924122587312,89.93390051517054 183.32938776677474,91.30443485543947 183.4786550627323,93.23722984804772 183.4488016035175,93.9752030785603 183.50850852171425,95.06458906305488 183.4786550627323,95.90798215020914 183.53836198104545,97.1027852682455 183.50850852171425,97.62990289111622 183.65777581790462,99.66808297045645 183.65777581790462,99.98435114478343 183.747336195549,100.75744982785545 183.65777581790462,101.42512447986519 183.83689657319337,102.86589141294826 183.7174827362178,104.13094978308072 183.77718965453096,104.48235401007696 183.83689657319337,106.27450964349555 183.89660349150654,106.59077137420536 183.86675003229175,107.11787357315188 183.92645695072133,107.53955471536028 183.86675003229175,108.6288951280585 183.92645695072133,108.76945491475635 183.92645695072133,109.47225293426891 184.04587078746408,110.52644710746245 183.9861638690345,111.22924131900072 184.07572424667887,112.52940659492742 184.0160173282493,113.47817256022245 184.13543116499204,114.32151775469538 184.07572424667887,114.98916447814554 183.80704311386216,115.09458225622075 183.23982738913037,115.09458225622075 182.46363744989503,115.20000000001164 181.83671480673365,115.12972150786663 181.1202317859279,114.95402521124925 180.34404184669256,114.81346810527612 179.14990347856656,114.7431895294576 178.4632739169756,114.56749302332173 177.2989890081808,114.42693574973964 175.41822107858025,114.3566570902185 174.19422925135586,114.11068166175392 173.4777462304337,114.04040293360595 173.11950472008903,114.04040293360595 172.19404748501256,113.93498481280403 171.32829716813285,113.72414846846368 170.76108144328464,113.75928786877193 170.19386571843643,113.68900906448835 169.4176757792011,113.44303312964621 168.8206065952545,113.54845141019905 168.04441665601917,113.54845141019905 167.17866633925587,113.37275425673579 166.04423488967586,113.37275425673579 165.08892419515178,113.23219646548387 164.34258771524765,112.98622018404421 162.9991820511641,112.88080172051559 162.103578275186,112.66996469086735 160.01383613108192,112.42398798288195 159.86456883500796,112.17801108839922 159.86456883500796,112.00231319240993 160.22281034546904,111.12382228439674 160.19295688637067,110.84270469113835 160.25266380480025,110.31560854698182 160.13324996782467,108.59375517180888 160.55119839683175,106.16908899814007 160.43178455997258,105.46628381943447 160.46163801918738,105.04459998101811 160.55119839683175,104.62291559414007 160.81987952953205,103.60384272865485 161.506509091123,102.16307907464216 161.8946040609153,100.93315381693537 162.25284557114355,100.08977380103897 162.58123362238985,99.17610964158666 162.90962167363614,98.47328930554795 163.08874242869206,97.91103193967137 163.68581161287148,96.61080804694211 163.8649323679274,95.90798215020914 164.1336135007441,95.55656863047625 164.28288079681806,95.13487190406886 164.67097576637752,94.64289169674157 165.3277518687537,93.55350429547252 165.29789840965532,93.55350429547252 165.44716570561286,93.41293791247881 165.80540721595753,92.81553010523203 166.10394180798903,92.18297946228995 166.90998520655558,90.77730694861384 167.4174940129742,90.07446840649936 168.10412357456516,89.02020773629192 168.7907531360397,87.7902326217154 169.05943426885642,87.15767217424582 169.4176757792011,86.63053752540145 169.83562420797534,85.54112320163404 170.40283993293997,85.08427094412036 171.50741792330518,83.32714087716886 171.83580597455148,83.11628462918452 171.98507327050902,83.08114190783817" stroke="#4dd2ff" stroke-linecap="round" stroke-linejoin="round" stroke-width="0.5"><title>2024-06-17 3.2km</title><desc>11672403120</desc></polyline><polyline fill="none" points="44.19999998807907,138.55832583457232 11.800000011920929,161.4416741579771" stroke="#4dd2ff" stroke-linecap="round" stroke-linejoin="round" stroke-width="0.5"><title>2024-05-09 8.0km</title><desc>9223370321595310162</desc></polyline><polyline fill="none" points="47.80000000074506,144.98172398470342 54.621052633970976,147.99269151873887 50.357894733548164,142.97441175207496 69.1157894730568,154.01462364941835 80.19999999925494,157.02558824792504 73.37894736975431,156.02193348947912 50.357894733548164,152.00731337349862" stroke="#4dd2ff" stroke-linecap="round" stroke-linejoin="round" stroke-width="0.5"><title>2024-05-08 6.2km</title><desc>9223370321684028463</desc></polyline><polyline fill="none" points="100.00000001490116,133.7999999988824 94.99551995098591,166.19999999925494 105.00448006391525,154.41818628646433 105.00448006391525,157.36364019662142" stroke="#4dd2ff" stroke-linecap="round" stroke-linejoin="round" stroke-width="0.5"><title>2024-05-07 6.1km</title><desc>9223370321771754451</desc></polyline><polyline fill="none" points="60.067908957600594,184.79999999701977 79.72836419939995,217.19999999925494 48.27163580060005,217.19999999925494" stroke="#4dd2ff" stroke-linecap="round" stroke-linejoin="round" stroke-width="0.5"><title>2024-05-02 6.8km</title><desc>9223370322200251369</desc></polyline><polyline fill="none" points="91.89999999850988,210.53474477119744 83.79999999701977,213.2589545249939 116.19999999552965,201.00000598002225 111.57142857462168,205.08632348943502 115.04285714030266,196.91368714161217 116.19999999552965,188.74104547593743 116.19999999552965,190.10315278638154" stroke="#4dd2ff" stroke-linecap="round" stroke-linejoin="round" stroke-width="0.5"><title>2024-05-01 4.0km</title><desc>9223370322286947528</desc></polyline><polyline fill="none" points="119.80000000074506,204.28783953841776 152.19999999925494,197.71216046158224 142.14482758566737,201.65756833646446 151.08275861665606,204.28783953841776" stroke="#4dd2ff" stroke-linecap="round" stroke-linejoin="round" stroke-width="0.5"><title>2024-04-30 5.3km</title><desc>9223370322373916531</desc></polyline><polyline fill="none" points="155.80000000004657,198.74778101441916 157.17763779498637,200.2493281903444 159.93291338556446,199.64870980824344 161.00440944870934,200.48957536090165 172.63779527554289,190.45916738448432 185.13858267711475,190.57929310505278 187.58771653519943,193.04186463862425 188.09795275586657,207.75700304063503 185.13858267711475,211.24052962497808 170.9029921258334,211.36065084079746 168.50488188955933,209.91919453273294 160.6472440941725,209.55882987001678 160.18803149578162,201.81093293707818 162.2799999997951,199.10815270774765 172.79086614144035,190.45916738448432 184.98551181098446,190.57929310505278 187.3325984252151,192.92173945199465 188.09795275586657,195.80473674705718 187.79181102337316,208.65791718754917 184.7814173225779,211.4807720303652 171.2601574799046,211.4807720303652 168.8110236218199,209.97925528720953 160.0349606294185,209.19846497278195 160.4941732280422,201.2103162475978 171.92346456670202,190.75948163721478 185.49574803118594,190.69941879966063 188.09795275586657,194.0629276749678 187.8428346454166,207.2164538494544 187.536692913156,208.9582215778064 184.88346456666477,211.42071143887006 171.2601574799046,211.30059023603098 168.50488188955933,209.8591337717953 160.74929133825935,209.4987690700218 159.93291338556446,208.1173688750714 160.08598425169475,203.372533283371 160.4941732280422,201.3905013228068 172.07653543306515,190.87960729270708 184.88346456666477,190.51923024799908 187.58771653519943,192.98180204856908 187.8428346454166,208.59785628999816 185.03653543279506,211.36065084079746 183.7099212598987,211.4807720303652 171.77039370080456,211.5408326155739 168.75999999977648,210.03931603499223 160.80031496030279,209.55882987001678 159.77984251943417,206.31553735915804 160.13700787397102,204.51369998423615 160.95338582643308,204.21339318552054 160.0349606294185,204.03320902842097 160.08598425169475,202.83197981555713 162.22897637751885,199.40846227307338 172.4847244094126,190.75948163721478 185.75086614163592,191.1198585255188 187.94488188973628,193.70255270058988 188.04692913382314,207.63688104366884 185.18960629892536,211.00028711522464 170.85196850378998,211.4807720303652 166.9741732282564,209.73901223065332 160.95338582643308,209.55882987001678 160.13700787397102,208.65791718754917 159.98393700784072,203.372533283371 160.6472440941725,200.97006938949926 172.07653543306515,190.75948163721478 185.2406299209688,190.81954446819145 187.79181102337316,193.64249018213013 188.19999999995343,198.32734707609052 187.8428346454166,207.3966369717382 185.29165354324505,211.12040838313987 170.80094488174655,211.4807720303652 168.55590551160276,209.91919453273294 160.4941732280422,209.43870826350758 160.6472440941725,201.15025454293936" stroke="#4dd2ff" stroke-linecap="round" stroke-linejoin="round" stroke-width="0.5"><title>2024-04-27 9.8km</title><desc>1714200483443</desc></polyline><polyline fill="none" points="11.800000000046566,248.92627879360225 12.307042253669351,250.65717289078748 13.321126760682091,251.37340333953034 14.892957746516913,251.19434581469977 16.059154929593205,250.77654469694244 16.76901408447884,251.37340333953034 18.340845070313662,250.71685879706638 20.115492957876995,249.4037673638668 20.571830986067653,248.68753435311373 21.585915493080392,247.91161420702701 24.121126760728657,245.40478780149715 25.69295774656348,243.97231044596992 27.670422535389662,242.0026479974622 30.459154929732904,241.525153009512 34.059154929826036,241.58483990567038 35.478873239597306,241.28640536032617 36.79718309873715,241.70421367854578 40.1943661973346,241.7639005552046 41.46197183104232,241.94296114664758 43.54084507073276,244.21105693053687 44.04788732412271,247.19537925592158 44.04788732412271,250.5378010587301 44.04788732412271,254.1786302945693 44.04788732412271,257.6403800303815 43.54084507073276,259.96809606516035 41.10704225371592,262.2958022612729 37.65915492945351,262.4748561764718 34.261971831088886,262.41517154464964 30.35774647910148,262.5942254209658 26.960563380504027,262.41517154464964 25.338028169237077,261.4005318117561 22.954929577419534,260.7439992237487 19.456338028423488,260.7439992237487 16.76901408447884,260.6246295783785 16.312676056521013,259.9084111616248 16.00845070439391,256.2079345030943 16.312676056521013,252.9252327827271 16.97183098620735,251.85088978795102 18.39154929597862,250.2393713654601 19.912676056614146,249.34408131515374 22.65070422552526,247.19537925592158 25.033802817109972,244.86760922998656 27.416901408694685,242.53982936393004 28.836619718465954,241.6445267953677 32.436619718326256,241.7639005552046 35.1746478874702,242.12202167976648 35.98591549298726,241.94296114664758 38.115492957644165,241.7639005552046 40.954929577652365,241.7639005552046 42.171830986393616,242.659202929819 43.89577464829199,245.22572833602317 44.09859154955484,248.74722047307296 43.89577464829199,251.6121466154582 44.04788732412271,254.53674334526295 44.14929577498697,258.17754614248406 42.62816901435144,260.98273843724746 40.752112676156685,262.5345408018329 36.79718309873715,262.5942254209658 34.00845070439391,262.65391003363766 30.71267605666071,262.5942254209658 27.31549295783043,262.5345408018329 25.185915493173525,261.3408470634604 23.715492957737297,260.98273843724746 22.397183098830283,261.16179277934134 18.645070422440767,260.8036840368877 16.718309859512374,260.8036840368877 15.95774647896178,259.9084111616248 15.95774647896178,256.4466756830807 16.464788732351735,252.6864900761866 17.884507042355835,251.19434581469977 19.659154929686338,249.58282547089038 21.788732394343242,247.91161420702701 24.07042253529653,245.40478780149715 26.808450704440475,243.01732347207144 28.633802816970274,241.70421367854578 32.58873239462264,241.58483990567038 34.56619718321599,241.7639005552046 35.98591549298726,241.70421367854578 39.8901408452075,241.58483990567038 41.46197183104232,241.8832742893137 43.74366197199561,244.5094898910029 44.14929577498697,246.717888770625 43.84507042285986,249.76188351970632 43.997183098923415,250.59748697804753 43.84507042285986,254.35768684913637 43.794366197194904,258.29691631847527 43.4901408450678,260.02778096246766 41.766197183169425,261.69895545660984 40.85352112702094,262.4748561764718 37.101408451097086,262.5345408018329 34.41408450715244,262.4748561764718 31.016901408554986,262.3554869060754 27.31549295783043,262.3554869060754 24.983098591445014,261.16179277934134 23.715492957737297,260.8633688434493 21.078873239690438,260.684314404265 17.326760563533753,260.6246295783785 16.261971831088886,259.96809606516035 16.059154929593205,257.2225838031736 16.211267605656758,254.47705785295693 17.884507042355835,251.19434581469977 19.963380281813443,250.00062749435892 21.940845070639625,247.9713004110381 22.44788732402958,247.31475181225687 24.019718309864402,245.88227942527737 25.642253521364182,244.21105693053687 28.12676056358032,242.06233484193217 29.647887323983014,241.70421367854578 31.625352112809196,241.8832742893137 34.16056338045746,241.7639005552046 35.478873239597306,242.06233484193217 38.21690140874125,241.70421367854578 40.85352112702094,241.70421367854578 42.67887323978357,243.19638365576975 43.997183098923415,245.1063553263666 43.89577464829199,248.74722047307296 43.84507042285986,251.43308916827664 43.94647887349129,254.89485616312595 43.89577464829199,258.29691631847527 43.794366197194904,259.66967148240656 42.27323943702504,261.2811623084126 39.68732394394465,262.5345408018329 36.79718309873715,262.5942254209658 33.856338028330356,262.5942254209658 31.270422535482794,262.71359463967383 29.14084507082589,262.5942254209658 27.822535211453214,262.5942254209658 25.642253521364182,261.8780095659895 23.46197183104232,260.8633688434493 21.63661971851252,260.6246295783785 19.40563380299136,260.4455750614288 16.921126760542393,260.6246295783785 16.312676056521013,260.08746585296467 15.907042253529653,257.40163936803583 16.261971831088886,255.61108110030182 17.073239436605945,255.31265415635426 16.464788732351735,255.31265415635426 16.211267605656758,253.93988813145552 17.529577465029433,251.49277499044547 18.340845070313662,250.5378010587301 19.709859155118465,249.70219750975957 21.63661971851252,248.09067279926967 23.512676056474447,246.53882973192958 25.135211267741397,244.8079226897098 27.569014084758237,242.4801425713813 28.53239436633885,241.94296114664758 31.878873239504173,241.823587425577 34.71830985927954,242.06233484193217 35.478873239597306,242.18170851113973 37.86197183118202,241.94296114664758 40.752112676156685,241.823587425577 42.93239436624572,243.61419052496785 44.04788732412271,246.65820243081544 44.09859154955484,250.17968540725997 43.997183098923415,253.64146028173855 43.94647887349129,257.04352818022016 43.74366197199561,259.4309316998115 41.157746478915215,262.05706361704506 37.709859154885635,262.2958022612729 34.41408450715244,262.2361176099512 31.067605633754283,262.1764329521102 29.242253521224484,262.3554869060754 26.9098591550719,262.5345408018329 24.628169014351442,261.10210800520144 21.180281690321863,260.8036840368877 17.884507042355835,260.7439992237487 16.718309859512374,260.4455750614288 16.261971831088886,259.7293564118445 16.16056338022463,256.3869903977611 16.109859155025333,254.47705785295693 16.515492957783863,252.44774726603646 18.239436619915068,250.83623059024103 20.064788732444867,248.98596488736803 22.600000000093132,246.89694775093812 25.388732394436374,244.56917646358488 27.72112676058896,242.3010821546195 28.583098591770977,241.7639005552046 31.98028169036843,241.8832742893137 35.52957746502943,242.12202167976648 38.01408450724557,241.94296114664758 41.20845070434734,242.0026479974622 42.983098591677845,243.7932505144854 43.74366197199561,244.8079226897098 43.997183098923415,246.95663406490348 44.14929577498697,249.46345340600237 43.997183098923415,252.98491844325326 43.997183098923415,256.2676198078552 43.794366197194904,258.4759715338587 43.33802816900425,260.02778096246766 41.664788732538,261.9376942560775 39.58591549331322,262.41517154464964 36.13802816905081,262.5345408018329 32.233802817063406,262.4748561764718 29.242253521224484,262.3554869060754 26.859154929872602,262.5345408018329 25.338028169237077,261.2811623084126 22.904225352453068,260.7439992237487 19.050704225432128,260.56494474579813 17.022535211173818,260.684314404265 16.261971831088886,260.1471507373499 16.211267605656758,257.99849082989385 16.211267605656758,254.65611431055004 16.76901408447884,252.26869009056827" stroke="#4dd2ff" stroke-linecap="round" stroke-linejoin="round" stroke-width="0.5"><title>2024-04-27 10.1km</title><desc>9223370322649067555</desc></polyline><polyline fill="none" points="64.0,249.27579054050148 73.25714284181595,249.27579054050148 61.68571427464485,254.72420945949852 47.79999999701977,249.27579054050148 80.19999998807907,254.72420945949852 54.74285712838173,254.72420945949852" stroke="#4dd2ff" stroke-linecap="round" stroke-linejoin="round" stroke-width="0.5"><title>2024-04-26 5.2km</title><desc>9223370322713802999</desc></polyline><polyline fill="none" points="121.67826086934656,252.00000727863517 121.20869565196335,251.81576117838267 122.30434782523662,252.36849941930268 123.24347826093435,253.2897294217255 125.90434782579541,253.2897294217255 127.15652173943818,252.55274545995053 127.31304347794503,251.6315150577575 126.68695652112365,252.55274545995053 126.21739130374044,251.81576117838267 127.0,251.44726891734172 130.44347826112062,251.44726891734172 131.69565217383206,251.81576117838267 133.88695652224123,251.6315150577575 134.20000000018626,250.71028415695764 133.41739130485803,249.78905275673606 131.069565217942,248.68357441783883 129.81739130429924,247.9465884581441 128.09565217327327,247.02535556047224 127.15652173943818,250.3417916566832 127.15652173943818,251.44726891734172 126.37391304317862,252.18425335921347 125.4347826084122,252.00000727863517 124.18260869570076,252.18425335921347 122.77391304261982,251.81576117838267 122.4608695646748,253.1054834612878 123.86956521775573,253.65822128287982 122.77391304261982,254.39520476583857 123.86956521775573,254.57945058634505 123.55652173794806,255.50067939108703 122.77391304261982,256.05341643374413 119.79999999981374,256.97464443952776 124.02608695626259,253.84246718348004 125.12173913046718,253.2897294217255 124.80869565159082,252.18425335921347 128.25217391271144,253.2897294217255 129.66086956579238,253.1054834612878 130.75652173906565,253.65822128287982 130.13043478224427,254.39520476583857 130.44347826112062,255.13218792923726 131.38260869588703,255.86917077284306 131.38260869588703,256.6061532967724 130.13043478224427,256.97464443952776 127.62608695589006,255.86917077284306 127.4695652173832,254.76369638729375 129.03478260803968,254.57945058634505 129.81739130429924,255.13218792923726 131.69565217383206,254.57945058634505 132.0086956527084,255.68492509180214 130.75652173906565,256.4219076959416 129.34782608691603,256.4219076959416 125.12173913046718,253.84246718348004 122.77391304261982,251.81576117838267 121.67826086934656,251.44726891734172 120.58260869514197,251.6315150577575 121.20869565196335,250.89453037746716 122.4608695646748,251.26302275736816 123.40000000037253,251.07877657725476 122.77391304261982,251.81576117838267 121.3652173904702,251.81576117838267 119.79999999981374,252.00000727863517 123.24347826093435,252.18425335921347 124.4956521736458,251.6315150577575 125.4347826084122,251.6315150577575 126.21739130374044,252.36849941930268 128.09565217327327,251.44726891734172 128.8782608686015,251.81576117838267 129.81739130429924,251.81576117838267 130.44347826112062,252.36849941930268 131.38260869588703,252.7369914802257 132.32173913065344,252.55274545995053 133.10434782598168,252.7369914802257 134.0434782607481,253.84246718348004 135.60869565233588,254.94794216798618 136.86086956504732,254.76369638729375 137.79999999981374,255.13218792923726 136.54782608617097,254.57945058634505 134.20000000018626,254.02671306428965 135.13913043495268,253.65822128287982 135.29565217345953,254.76369638729375 136.39130434859544,254.57945058634505 136.54782608617097,253.65822128287982 137.3304347814992,254.39520476583857 138.26956521719694,254.57945058634505 135.60869565233588,254.57945058634505 136.86086956504732,254.76369638729375 137.17391304392368,254.210958924843 137.9565217392519,254.57945058634505 138.73913043458015,255.13218792923726 136.07826086878777,256.05341643374413 137.79999999981374,255.50067939108703 139.83478260878474,253.84246718348004 139.0521739134565,252.92123748059385 139.0521739134565,253.65822128287982 137.3304347814992,254.02671306428965 135.60869565233588,253.84246718348004 134.35652173869312,253.1054834612878 131.38260869588703,252.92123748059385 132.79130434803665,253.1054834612878 133.57391304336488,254.02671306428965 135.13913043495268,253.2897294217255 138.26956521719694,253.1054834612878 140.1478260876611,253.65822128287982 142.0260869562626,253.84246718348004 143.27826086990535,253.84246718348004 146.72173913009465,254.210958924843 150.0086956517771,254.57945058634505 152.20000000018626,254.94794216798618 150.0086956517771,254.94794216798618 149.5391304353252,254.94794216798618 147.5043478263542,254.94794216798618 145.78260869625956,254.76369638729375 144.5304347826168,254.94794216798618 142.80869565159082,254.94794216798618 142.18260869570076,254.39520476583857 140.1478260876611,253.84246718348004 143.27826086990535,253.47397536260542 144.5304347826168,254.210958924843 145.31304347794503,253.84246718348004 144.37391304410994,253.65822128287982 144.84347826149315,253.84246718348004 144.0608695652336,254.210958924843 143.12173913046718,254.210958924843 144.37391304410994,253.47397536260542" stroke="#4dd2ff" stroke-linecap="round" stroke-linejoin="round" stroke-width="0.5"><title>2024-04-24 3.4km</title><desc>9223370322893282018</desc></polyline><polyline fill="none" points="188.19999999925494,253.68260029517114 158.65882353112102,249.1956665813923 155.80000000074506,254.8043334186077 159.61176471039653,250.31740019097924" stroke="#4dd2ff" stroke-linecap="round" stroke-linejoin="round" stroke-width="0.5"><title>2024-04-23 3.1km</title><desc>9223370322979897699</desc></polyline></svg>