<?xml version="1.0" encoding="utf-8" ?>
<svg baseProfile="full" height="200mm" version="1.1" viewBox="0,0,200,200" width="200mm" xmlns="http://www.w3.org/2000/svg" xmlns:ev="http://www.w3.org/2001/xml-events" xmlns:xlink="http://www.w3.org/1999/xlink"><defs /><rect fill="#1a1a1a" height="200" width="200" x="0" y="0" /><text alignment-baseline="middle" fill="#e1ed5e" style="dominant-baseline: central; font-size:9.0px; font-family:Arial;" text-anchor="middle" x="100.0" y="100.0">2024</text><line stroke="#e1ed5e" stroke-width="0.3" x1="100.0" x2="100.0" y1="15.0" y2="10.0" /><path d="M 100.0 14.0 a86.0,86.0 0 0,1 42.35913384403234,11.155469271406648" fill="none" id="id1" stroke="none" /><text fill="#e1ed5e" style="font-size:6.75px; font-family:Arial;" text-anchor="middle"><textPath startOffset="22.145653131862478" xlink:href="#id1">January</textPath></text><line stroke="#e1ed5e" stroke-width="0.3" x1="143.13028292997686" x2="145.6673583964461" y1="26.7553504044142" y2="22.446841604673864" /><path d="M 143.63769802327073 25.89364864446614 a86.0,86.0 0 0,1 29.32050498858742,28.57503671076993" fill="none" id="id2" stroke="none" /><text fill="#e1ed5e" style="font-size:6.75px; font-family:Arial;" text-anchor="middle"><textPath startOffset="20.669276256404974" xlink:href="#id2">February</textPath></text><line stroke="#e1ed5e" stroke-width="0.3" x1="172.87174338648825" x2="177.1583165268699" y1="56.24261187166439" y2="53.66864786411523" /><path d="M 173.72905801456457 55.72781907015455 a86.0,86.0 0 0,1 12.242430191666344,42.057860355516425" fill="none" id="id3" stroke="none" /><text fill="#e1ed5e" style="font-size:6.75px; font-family:Arial;" text-anchor="middle"><textPath startOffset="22.145653131862474" xlink:href="#id3">March</textPath></text><line stroke="#e1ed5e" stroke-width="0.3" x1="184.99686870605535" x2="189.99668451229388" y1="99.2704041080226" y2="99.22748670261217" /><path d="M 185.99683186730306 99.26182062694052 a86.0,86.0 0 0,1 -10.086455211305974,41.156179273409016" fill="none" id="id4" stroke="none" /><text fill="#e1ed5e" style="font-size:6.75px; font-family:Arial;" text-anchor="middle"><textPath startOffset="21.40746469413373" xlink:href="#id4">April</textPath></text><path d="M 120.26092885502905 105.52220625578681 l 7.565870077820466 2.062111533639777 a28.84185526591949,28.84185526591949 0 0,0 -0.1342952428223015,0.4765664398671596 l -7.529356342923585 -2.191685897409945" fill="#ff4806" stroke="none" /><path d="M 120.16314734710363 105.8691983318838 l 8.729723075815576 2.5410951590225914 a30.092042102170172,30.092042102170172 0 0,0 -0.14863130216394296,0.494745265192577 l -8.684815453648003 -2.690578027805892" fill="#ff5a08" stroke="none" /><path d="M 120.05942366710727 106.21446072829308 l 5.3599678753681985 1.6605317490256493 a26.61129408554758,26.61129408554758 0 0,0 -0.13893032336209837,0.43519725916773216 l -5.330672836228845 -1.752298041884765" fill="#ff2803" stroke="none" /><path d="M 119.94978838288452 106.5578916946017 l 5.798287122123217 1.9060121456581507 a27.103524870923057,27.103524870923057 0 0,0 -0.14908820235083797,0.44075277901277 l -5.764713498200013 -2.0052665991450813" fill="#ff2f04" stroke="none" /><path d="M 119.83427380445688 106.89939002012753 l 4.43939414409553 1.5442517308752055 a25.70031209335516,25.70031209335516 0 0,0 -0.14852311930796053,0.4154455983711781 l -4.412230854743626 -1.6202322856273053" fill="#ff1a02" stroke="none" /><path d="M 119.58574465831526 107.57618678355244 l 8.611743596147981 3.3312074243130136 a30.233583847542292,30.233583847542292 0 0,0 -0.19139489034357382,0.4824401520618971 l -8.553290030838284 -3.478548593588475" fill="#ff5c08" stroke="none" /><path d="M 119.4528033332814 107.91128576633889 l 9.25756458242301 3.764970922549896 a30.99387352558452,30.99387352558452 0 0,0 -0.20466901122397205,0.49113111980015123 l -9.191569726662552 -3.9233345517913247" fill="#ff6709" stroke="none" /><path d="M 119.31412917781788 108.2440532568976 l 14.084491369789797 6.011831850136789 a36.313883222096294,36.313883222096294 0 0,0 -0.24964258807920403,0.571231096285189 l -13.979214899693627 -6.2527250161978225" fill="#ffb010" stroke="none" /><path d="M 119.16976305983485 108.57439118712176 l 13.88054569991203 6.208591538157069 a36.20579356084456,36.20579356084456 0 0,0 -0.2586395950655934,0.5651741922335867 l -13.771921639991382 -6.445954712605345" fill="#ffaf10" stroke="none" /><path d="M 119.0197475246899 108.90220220490707 l 52.86358350365735 24.742826318522354 a79.36750735706225,79.36750735706225 0 0,0 -0.5881538280370558,1.2290152921320268 l -52.43105041766039 -25.64665411271948" fill="#47ffff" stroke="none" /><path d="M 118.8641267826498 109.22738970284198 l 7.0419004784271575 3.444546398131729 a28.839213113377827,28.839213113377827 0 0,0 -0.22134794631045646,0.44284416773186236 l -6.981732618904968 -3.564922422027337" fill="#ff4806" stroke="none" /><path d="M 118.5362547648365 109.86951160357373 l 13.8364768357093 7.367144572358089 a36.67555135793141,36.67555135793141 0 0,0 -0.30066032008044585,0.5531811248704154 l -13.707971166013516 -7.603580530703107" fill="#ffb510" stroke="none" /><line stroke="#e1ed5e" stroke-width="0.3" x1="174.33088141563837" x2="178.70328620479359" y1="141.23008692659167" y2="143.65538615756765" /><path d="M 175.20536237346943 141.71514677278685 a86.0,86.0 0 0,1 -30.301960400862466,31.631185727798858" fill="none" id="id5" stroke="none" /><text fill="#e1ed5e" style="font-size:6.75px; font-family:Arial;" text-anchor="middle"><textPath startOffset="22.145653131862474" xlink:href="#id5">May</textPath></text><path d="M 118.36410011445183 110.18625677009912 l 10.397746341537953 5.767454620981619 a32.890191831423415,32.890191831423415 0 0,0 -0.2781047946336765,0.49138452463096344 l -10.297208181882898 -5.945095915711705" fill="#ff810b" stroke="none" /><path d="M 118.18653347947321 110.5 l 17.19299182405448 9.926378457792886 a40.85275691558578,40.85275691558578 0 0,0 -0.3558592025494608,0.6043267241816352 l -17.020058911375255 -10.22005635026807" fill="#ffeb16" stroke="none" /><path d="M 118.00360718960297 110.81064883170644 l 12.637572226015232 7.5884990147793925 a35.74088019980691,35.74088019980691 0 0,0 -0.32036088724596085,0.5232854332609215 l -12.505443374313867 -7.804321564164871" fill="#ffa80f" stroke="none" /><path d="M 117.81537515405839 111.11811171558189 l 7.511099166030988 4.687481398095784 a29.853761490996096,29.853761490996096 0 0,0 -0.27505593747276375,0.4324336192840702 l -7.429525536932334 -4.815728692058526" fill="#ff5708" stroke="none" /><path d="M 117.62189284568427 111.42229804090321 l 11.179205636457404 7.246226030220943 a34.32225320068841,34.32225320068841 0 0,0 -0.3247139481976978,0.4916583039766018 l -11.053167249338978 -7.437064212536606" fill="#ff950d" stroke="none" /><path d="M 117.21940702142032 112.02048342749411 l 14.581506093414932 10.179023710036045 a38.782936867732865,38.782936867732865 0 0,0 -0.3857699974445303,0.542633812706071 l -14.404620997440441 -10.42783474945162" fill="#ffd113" stroke="none" /><path d="M 117.01052211995028 112.31430620078461 l 14.744579146489217 10.673938232538054 a39.20262540402132,39.20262540402132 0 0,0 -0.39930297147294647,0.5417311691591722 l -14.559174155432443 -10.925475710966104" fill="#ffd614" stroke="none" /><path d="M 116.79662413953412 112.60449989151573 l 18.874134980667517 14.163502757458001 a44.59741048566511,44.59741048566511 0 0,0 -0.4647645285669628,0.6083916870359554 l -18.628218474746248 -14.485415357734833" fill="#e4ff1a" stroke="none" /><path d="M 116.57777611688842 112.89097897827486 l 11.658651767718105 9.06583813130239 a35.7686689333837,35.7686689333837 0 0,0 -0.3810786653174391,0.481480444770764 l -11.501306671759103 -9.264638519987837" fill="#ffa90f" stroke="none" /><path d="M 116.1254893667686 113.45245675266167 l 11.281457251933427 9.411392878493945 a35.69168450656928,35.69168450656928 0 0,0 -0.39652685871292875,0.46710764251122583 l -11.118235829713383 -9.60366730345473" fill="#ffa80f" stroke="none" /><path d="M 115.6541949942343 113.99807769240083 l 13.821093119201114 12.35890669227906 a39.54090584729043,39.54090584729043 0 0,0 -0.4567959366355912,0.5020987532325857 l -13.606899481723643 -12.594343021069317" fill="#ffda14" stroke="none" /><path d="M 115.41159269507618 114.26474011684316 l 13.584257255961663 12.573385714932833 a39.51005330982664,39.51005330982664 0 0,0 -0.4649847230615727,0.49379766234343747 l -13.36641669916383 -12.804724837220768" fill="#ffda14" stroke="none" /><path d="M 115.16444852881244 114.52719865689866 l 13.695723449177358 13.120193254513671 a39.966083196910546,39.966083196910546 0 0,0 -0.4788568589832209,0.4913493223035811 l -13.468479789043329 -13.353365268884989" fill="#ffe015" stroke="none" /><path d="M 114.91283532996324 114.78537596483092 l 7.0352342412100475 6.97510439533559 a30.906896696469797,30.906896696469797 0 0,0 -0.37678167990498884,0.3735613430172272 l -6.9144606411750935 -7.094845748581479" fill="#ff6609" stroke="none" /><path d="M 113.86319453409587 115.77377054828091 l 9.603892940682265 10.927467204185541 a35.54799983209504,35.54799983209504 0 0,0 -0.4618201813134329,0.39890927331316317 l -9.414893279605977 -11.090720609963421" fill="#ffa60f" stroke="none" /><path d="M 113.59037401385872 116.0094264158162 l 5.833274751978204 6.8715829902695935 a30.013642278470385,30.013642278470385 0 0,0 -0.39564507180782205,0.3300611905066815 l -5.714455346008488 -6.970706364688145" fill="#ff5908" stroke="none" /><path d="M 111.8722381534696 117.32195027204791 l 7.1098209429053 10.373441235271947 a33.57608193762331,33.57608193762331 0 0,0 -0.4782252732715377,0.32177130637292845 l -6.930699381536758 -10.493962215701998" fill="#ff8b0c" stroke="none" /><path d="M 111.5731344415666 117.5232005979908 l 9.654723330046364 14.618481664125799 a38.51895227301347,38.51895227301347 0 0,0 -0.5548826901425281,0.3596682558479164 l -9.402355007646827 -14.782063761677609" fill="#ffcd13" stroke="none" /><path d="M 111.27062007382361 117.71928675628689 l 7.90216039512554 12.423508655092139 a35.7237123787936,35.7237123787936 0 0,0 -0.5202663189635232,0.32468466176381805 l -7.6877299473723015 -12.557329113697504" fill="#ffa80f" stroke="none" /><path d="M 110.96478420261333 117.91015095944535 l 6.702772629083566 10.94847535668902 a33.8373000881501,33.8373000881501 0 0,0 -0.4980000506563505,0.29903472171548684 l -6.513839821869779 -11.06192407894043" fill="#ff8e0d" stroke="none" /><line stroke="#e1ed5e" stroke-width="0.3" x1="143.1302829299769" x2="145.66735839644613" y1="173.24464959558577" y2="177.55315839532614" /><path d="M 143.63769802327073 174.10635135553383 a86.0,86.0 0 0,1 -40.68552437913181,11.842963189579606" fill="none" id="id6" stroke="none" /><text fill="#e1ed5e" style="font-size:6.75px; font-family:Arial;" text-anchor="middle"><textPath startOffset="21.407464694133747" xlink:href="#id6">June</textPath></text><path d="M 110.65571695917076 118.09573695890943 l 9.48844712087237 16.113457583917448 a39.699576039961386,39.699576039961386 0 0,0 -0.5902146029726093,0.3407605599058854 l -9.210440050039363 -16.27396504109951" fill="#ffdc14" stroke="none" /><path d="M 110.34350942703117 118.27599006163325 l 3.72962036595717 6.589881821325175 a28.572094194685807,28.572094194685807 0 0,0 -0.4289294643536293,0.2379199434187765 l -3.615946713447446 -6.652934680177095" fill="#ff4406" stroke="none" /><path d="M 109.71004243097381 118.62028667847754 l 6.131800290961255 11.758535566092272 a34.2613021030097,34.2613021030097 0 0,0 -0.5238272120916004,0.2674699069106273 l -5.929045857156073 -11.862063424675735" fill="#ff940d" stroke="none" /><path d="M 108.4095320186766 119.2426549942271 l 4.2690709422211786 9.768469767949085 a31.6605801116568,31.6605801116568 0 0,0 -0.4998827554658109,0.21337022344232084 l -4.100753111584936 -9.84031464105081" fill="#ff700a" stroke="none" /><path d="M 108.07796709384702 119.3841803445677 l 1.7217489084858018 4.131570599683776 a25.4759686017714,25.4759686017714 0 0,0 -0.4051231457816172,0.16476005652887668 l -1.6505713015137438 -4.160517912791945" fill="#ff1702" stroke="none" /><path d="M 107.74402155503746 119.51999308798841 l 2.630642030995251 6.630936380671096 a28.13369432900978,28.13369432900978 0 0,0 -0.4504442091400753,0.17424149673910408 l -2.5164255593616467 -6.67511776554824" fill="#ff3e05" stroke="none" /><path d="M 107.407793817531 119.65005319985036 l 4.159907051627825 11.034647681131604 a32.79272131973303,32.79272131973303 0 0,0 -0.5284482210181263,0.1940535065284195 l -3.9698696789555714 -11.104432036668745" fill="#ff800b" stroke="none" /><path d="M 107.06938296918513 119.77432235084164 l 4.6808733978057395 13.093235980446464 a34.90479788439743,34.90479788439743 0 0,0 -0.5659467717891647,0.19686566534783712 l -4.455420853971552 -13.17166007836289" fill="#ff9d0e" stroke="none" /><path d="M 106.72888874123015 119.89276391827305 l 4.719891442256201 13.95352037928258 a35.7301767199765,35.7301767199765 0 0,0 -0.5827034812581052,0.19154620825133226 l -4.479665223350362 -14.032487508935931" fill="#ffa80f" stroke="none" /><path d="M 106.0420521117495 120.11202640906438 l 4.0387714328535305 13.443756560749877 a35.037316878646685,35.037316878646685 0 0,0 -0.5775150681217373,0.16810621953545055 l -3.807396352350186 -13.511106474587846" fill="#ff9f0e" stroke="none" /><path d="M 105.69591212413111 120.21278271476187 l 7.422880737345187 26.34118508006955 a48.36708223145699,48.36708223145699 0 0,0 -0.8010938467915129,0.2183416902491319 l -6.969605489618979 -26.464727264462823" fill="#b7ff1f" stroke="none" /><path d="M 105.3480935250658 120.30758222061773 l 2.3743862031137692 9.015931157007941 a30.323342987868866,30.323342987868866 0 0,0 -0.5045150253177213,0.12824574654510307 l -2.2192658845706505 -9.055362135388313" fill="#ff5d08" stroke="none" /><path d="M 104.9986988182912 120.39639698878246 l 6.902945051298467 28.166371445072475 a49.999916047517104,49.999916047517104 0 0,0 -0.8353982312751991,0.19715170790949563 l -6.418414666283389 -28.280719296628195" fill="#a4ff21" stroke="none" /><path d="M 104.64783097203109 120.47920084513623 l 2.0292192393945045 8.941114384849179 a30.168492633169627,30.168492633169627 0 0,0 -0.5060227113976701,0.11028529475009903 l -1.8754341113776987 -8.974631137732997" fill="#ff5b08" stroke="none" /><path d="M 104.29559338865022 120.5559693870025 l 6.365164351604686 30.459615637861738 a52.117575452294005,52.117575452294005 0 0,0 -0.8773212422853032,0.17548881927145474 l -5.841346623788424 -30.564393853796055" fill="#8cff24" stroke="none" /><path d="M 103.94208987418118 120.62667999033965 l 2.579465683948043 13.496854436864009 a34.74113251899425,34.74113251899425 0 0,0 -0.586736810551768,0.1069229921140516 l -2.3473941398452176 -13.539145602909423" fill="#ff9b0e" stroke="none" /><path d="M 103.58742460773223 120.69131181640829 l 3.3049241433026615 19.06192420915555 a40.34630399194056,40.34630399194056 0 0,0 -0.6834327618377568,0.11245860088373219 l -2.977213878411832 -19.115848808534952" fill="#ffe515" stroke="none" /><path d="M 103.2317021107853 120.74984581791261 l 1.6637597764658036 10.682531265643522 a31.811316794694203,31.811316794694203 0 0,0 -0.5402999075346674,0.07940548015843363 l -1.4801347633234507 -10.709517819100839" fill="#ff720a" stroke="none" /><path d="M 102.875027216393 120.80226474461374 l 1.1190114885951084 8.09660969652465 a29.173571758384753,29.173571758384753 0 0,0 -0.49667613896588,0.06430466999185118 l -0.9798575277384531 -8.114625962716897" fill="#ff4d07" stroke="none" /><path d="M 102.51750503828377 120.84855314841334 l 0.8329687226671172 6.898175940625029 a27.948285270536875,27.948285270536875 0 0,0 -0.47680320115488356,0.053426793205711004 l -0.7144296199114344 -6.911458494337711" fill="#ff3b05" stroke="none" /><path d="M 102.15924093988457 120.88869738790638 l 1.1801518083892437 11.416898198749086 a32.47773160391218,32.47773160391218 0 0,0 -0.5550605739480177,0.052564813447180454 l -0.9839916710562109 -11.43547476770145" fill="#ff7c0b" stroke="none" /><path d="M 101.80034050326958 120.92268563240118 l 1.1828455508196063 13.746458276385992 a34.79725475380935,34.79725475380935 0 0,0 -0.5955815359630428,0.0461017776044267 l -0.9466950200813278 -13.764737820985472" fill="#ff9c0e" stroke="none" /><path d="M 101.44090949804482 120.95050786540614 l 1.4344377137904905 20.85640954270964 a41.90567938546782,41.90567938546782 0 0,0 -0.7180950192660345,0.043198813171807876 l -1.076198342391991 -20.877960333706138" fill="#fff917" stroke="none" /><path d="M 101.08105385017728 120.97215588758144 l 1.1956196320021668 23.194701448489553 a44.225496369055115,44.225496369055115 0 0,0 -0.7585183103226286,0.03257403994866776 l -0.7972755610787086 -23.21180805686405" fill="#e9ff1a" stroke="none" /><path d="M 100.72087961077811 120.9876233191556 l 0.24759590599798914 7.208484652301174 a28.21273559165512,28.21273559165512 0 0,0 -0.4841663943273791,0.0124704088614374 l -0.12381619759986619 -7.211672778512657" fill="#ff3f05" stroke="none" /><line stroke="#e1ed5e" stroke-width="0.3" x1="101.45913802915013" x2="101.54496967792366" y1="184.9874750549273" y2="189.98673829345242" /><path d="M 101.47630435890484 185.9873277026323 a86.0,86.0 0 0,1 -42.54439059252881,-10.42667462771756" fill="none" id="id7" stroke="none" /><text fill="#e1ed5e" style="font-size:6.75px; font-family:Arial;" text-anchor="middle"><textPath startOffset="22.145653131862474" xlink:href="#id7">July</textPath></text><path d="M 100.0 121.0 l 1.3219533485368517e-15 10.794568274356713 a31.794568274356713,31.794568274356713 0 0,0 -0.5457960434061606,-0.004685002602905091 l 0.1853031185573072 -10.792977669948243" fill="#ff720a" stroke="none" /><path d="M 99.63950707515114 120.99690560180557 l -0.15568448034056365 9.067840481883458 a30.06917684590522,30.06917684590522 0 0,0 -0.5160252853388811,-0.01329098088262388 l 0.3113230797501887 -9.063831783650786" fill="#ff5a08" stroke="none" /><path d="M 99.27912038922189 120.98762331915562 l -0.6966414976843198 20.28195710253119 a41.29391764261428,41.29391764261428 0 0,0 -0.7082383513685812,-0.030414802169838377 l 1.0447056096537397 -20.267009731935524" fill="#fff116" stroke="none" /><path d="M 98.91894614982273 120.97215588758144 l -0.5005862138516907 9.711238816040805 a30.724132141208077,30.724132141208077 0 0,0 -0.5264882131829887,-0.031672223519522556 l 0.6672187791671256 -9.70121461469659" fill="#ff6309" stroke="none" /><path d="M 98.55909050195518 120.95050786540614 l -0.6043154555736815 8.78661409502978 a29.80737102799815,29.80737102799815 0 0,0 -0.5101758729381372,-0.0394908391431358 l 0.7550603232870547 -8.77494548889159" fill="#ff5608" stroke="none" /><path d="M 98.19965949673042 120.92268563240118 l -1.76409136050552 20.501415646462874 a41.577173319900936,41.577173319900936 0 0,0 -0.7105745551299686,-0.06729214915238792 l 2.115765479020504 -20.468111741805302" fill="#fff417" stroke="none" /><path d="M 97.84075906011543 120.88869738790638 l -0.40931587476466913 3.9597597869195797 a24.98085883390001,24.98085883390001 0 0,0 -0.426178327017376,-0.04775417046522071 l 0.47723010338284444 -3.952149855947388" fill="#ff0f01" stroke="none" /><path d="M 97.48249496171623 120.84855314841334 l -1.5347238244971322 12.70971487110804 a33.80204004533434,33.80204004533434 0 0,0 -0.5754751895972636,-0.07450678470803741 l 1.7526768359851899 -12.681496490199606" fill="#ff8e0d" stroke="none" /><path d="M 97.12497278360702 120.80226474461374 l -1.2883295083490947 9.321710541787342 a30.410317760147755,30.410317760147755 0 0,0 -0.5165046131208307,-0.07590839131556569 l 1.4481592270776102 -9.298221077172894" fill="#ff5f08" stroke="none" /><path d="M 96.76829788921471 120.74984581791261 l -1.860097357305457 11.943159377711364 a33.08714267724468,33.08714267724468 0 0,0 -0.5604686195232867,-0.09222489805923216 l 2.0648434798818074 -11.909468481156463" fill="#ff840c" stroke="none" /><path d="M 96.41257539226777 120.69131181640829 l -1.9149094203133772 11.04468866899159 a32.20946144482223,32.20946144482223 0 0,0 -0.5439798678811822,-0.09913125285076785 l 2.1042240217456167 -11.010189242209455" fill="#ff780b" stroke="none" /><path d="M 96.05791012581884 120.62667999033965 l -1.5081310965574097 7.891179172730368 a29.034000755572343,29.034000755572343 0 0,0 -0.4887438717234115,-0.09776246241511696 l 1.6433714538117794 -7.864127313652389" fill="#ff4b07" stroke="none" /><path d="M 95.70440661134978 120.55596938700252 l -1.2270891522573804 5.872065804825075 a26.998908617722368,26.998908617722368 0 0,0 -0.45285858692510944,-0.09869842126492956 l 1.3277101558016262 -5.850135925426426" fill="#ff2d04" stroke="none" /><path d="M 95.35216902796893 120.47920084513623 l -1.3093708991433166 5.76932977676997 a26.91604751710532,26.91604751710532 0 0,0 -0.4497131248648372,-0.10613107296274783 l 1.4082161777480418 -5.746002560160995" fill="#ff2c04" stroke="none" /><path d="M 95.00130118170881 120.39639698878247 l -0.8735080880051305 3.564211084426874 a24.669688956050877,24.669688956050877 0 0,0 -0.4104504161438338,-0.10433489072989673 l 0.9345637973743429 -3.5486909618617144" fill="#ff0b01" stroke="none" /><path d="M 94.6519064749342 120.30758222061772 l -1.6364033246042222 6.2136899634872265 a27.425555135793143,27.425555135793143 0 0,0 -0.4542437221866594,-0.12380614641408158 l 1.7428284477255767 -6.184683322929" fill="#ff3404" stroke="none" /><path d="M 94.30408787586889 120.21278271476187 l -1.1343368070458264 4.02536115489521 a25.182134911640013,25.182134911640013 0 0,0 -0.41507351745332294,-0.12082185158440414 l 1.203270336880756 -4.00529560900829" fill="#ff1202" stroke="none" /><path d="M 93.95794788825049 120.11202640906438 l -2.07877568422405 6.9195681676318985 a28.22507660664064,28.22507660664064 0 0,0 -0.46283664368630617,-0.14338797532453104 l 2.1972529607819897 -6.882863604500719" fill="#ff3f05" stroke="none" /><path d="M 93.61358852112213 120.00534299687104 l -2.6517337675873587 8.30651825871564 a29.71951475464887,29.71951475464887 0 0,0 -0.48467895483855417,-0.1593235994027331 l 2.7939354600736563 -8.259773737910885" fill="#ff5507" stroke="none" /><path d="M 93.27111125876986 119.89276391827306 l -4.035600863526104 11.930536873734601 a33.594593460101585,33.594593460101585 0 0,0 -0.5447031030313643,-0.18947601460168628 l 4.2398097386024896 -11.859502426564324" fill="#ff8b0c" stroke="none" /><path d="M 92.93061703081489 119.77432235084164 l -2.0603083555829333 5.76304915761632 a27.120261931746633,27.120261931746633 0 0,0 -0.43703765941356587,-0.16048628213901417 l 2.158935166650618 -5.726832026468586" fill="#ff2f04" stroke="none" /><path d="M 92.59220618246901 119.65005319985036 l -3.196372493598913 8.478757791168 a30.061243336271673,30.061243336271673 0 0,0 -0.4813058968374346,-0.18617946052500361 l 3.341450652929876 -8.422638442504956" fill="#ff5a08" stroke="none" /><path d="M 92.25597844496254 119.51999308798841 l -3.9622162924212563 9.987373368152232 a31.744616547034376,31.744616547034376 0 0,0 -0.5048082417667734,-0.20530111724243635 l 4.133078995378471 -9.917884994330505" fill="#ff710a" stroke="none" /><path d="M 91.92203290615298 119.3841803445677 l -3.0354683047524875 7.2840189079700295 a28.89119758216849,28.89119758216849 0 0,0 -0.4561575121222817,-0.19470651712265613 l 3.1600608920452005 -7.230837741187969" fill="#ff4906" stroke="none" /><path d="M 91.59046798132341 119.24265499422711 l -4.426862186495552 10.129527014409213 a32.05461109012299,32.05461109012299 0 0,0 -0.5023210898302188,-0.22468183421473667 l 4.600096679181406 -10.052041429284621" fill="#ff760a" stroke="none" /><path d="M 91.26138138417905 119.09545874513695 l -6.205031797222317 13.55911430687725 a35.911472106787556,35.911472106787556 0 0,0 -0.5583571878264438,-0.2613393570099617 l 6.43687769892025 -13.450598718296762" fill="#ffab0f" stroke="none" /><path d="M 90.93487009805054 118.94263497670748 l -2.715137621641974 5.673593366514159 a27.28980397095244,27.28980397095244 0 0,0 -0.4208344436019156,-0.2058512146485971 l 2.812132314505959 -5.62614840176834" fill="#ff3204" stroke="none" /><path d="M 90.6110303473126 118.78422872680471 l -6.715565345474638 13.435629269830692 a36.0204844058263,36.0204844058263 0 0,0 -0.5507236668286302,-0.2812034283441821 l 6.945216234016851 -13.318367889813674" fill="#ffac0f" stroke="none" /><path d="M 90.28995756902619 118.62028667847754 l -13.603760071199341 26.087003659525095 a50.42097972547538,50.42097972547538 0 0,0 -0.7640247460783464,-0.40680014342175785 l 14.04957363306425 -25.849633048380763" fill="#9fff22" stroke="none" /><path d="M 89.97174638481275 118.45085714620012 l -4.959473674303452 9.12487296355683 a31.385551777693827,31.385551777693827 0 0,0 -0.47116560027835924,-0.26134761604225176 l 5.115383462737914 -9.03839243208143" fill="#ff6c0a" stroke="none" /><line stroke="#e1ed5e" stroke-width="0.3" x1="58.13341422392154" x2="55.67067388415222" y1="173.97424548756322" y2="178.32567169271397" /><path d="M 57.64086615596768 174.84453072859336 a86.0,86.0 0 0,1 -31.369924170532247,-30.572349798747897" fill="none" id="id8" stroke="none" /><text fill="#e1ed5e" style="font-size:6.75px; font-family:Arial;" text-anchor="middle"><textPath startOffset="22.145653131862474" xlink:href="#id8">August</textPath></text><path d="M 89.65649057296885 118.27599006163327 l -7.3019222477158285 12.90179695503761 a35.8247911681988,35.8247911681988 0 0,0 -0.5326080780971378,-0.3075014172619541 l 7.522322793673366 -12.774548640499486" fill="#ffa90f" stroke="none" /><path d="M 89.34428304082925 118.09573695890944 l -5.992601431948817 10.176747339258238 a32.810057507450786,32.810057507450786 0 0,0 -0.48288162052476685,-0.2899565388092494 l 6.166415809031011 -10.072376799913071" fill="#ff800b" stroke="none" /><path d="M 89.03521579738668 117.91015095944536 l -6.300811854330219 10.291902639654412 a33.067455820005875,33.067455820005875 0 0,0 -0.4815816266390089,-0.3005425526458451 l 6.476557609758941 -10.182224290167019" fill="#ff840c" stroke="none" /><path d="M 88.72937992617639 117.7192867562869 l -5.329609705116101 8.379031681085115 a30.930403391680308,30.930403391680308 0 0,0 -0.44556625838427677,-0.28881066550587703 l 5.472661595757388 -8.286307173875343" fill="#ff6609" stroke="none" /><path d="M 88.4268655584334 117.5232005979908 l -8.175634354556722 12.37895243799912 a35.835075347353396,35.835075347353396 0 0,0 -0.5104001929865183,-0.34342002827821394 l 8.386930835640246 -12.236782735663786" fill="#ffaa0f" stroke="none" /><path d="M 88.1277618465304 117.32195027204791 l -4.664906348566973 6.8062377749744565 a29.25143768626957,29.25143768626957 0 0,0 -0.41175564620409516,-0.2874374196054737 l 4.781057085944833 -6.725155539563853" fill="#ff4e07" stroke="none" /><path d="M 87.83215693770417 117.11559508785305 l -5.180812161715738 7.287461116335309 a29.941359190698066,29.941359190698066 0 0,0 -0.41635454566181807,-0.3014085827121691 l 5.30514771775151 -7.197451762250075" fill="#ff5808" stroke="none" /><path d="M 87.54013794807813 116.9041958592261 l -8.712611146718094 11.820330325943063 a35.684338664315995,35.684338664315995 0 0,0 -0.4899748760262616,-0.3676862815059533 l 8.914239011655123 -11.669025017173094" fill="#ffa80f" stroke="none" /><path d="M 86.96720088162412 116.46651593811092 l -1.9079905578022198 2.4106837406491564 a24.07438189984469,24.07438189984469 0 0,0 -0.3218506748835535,-0.25926012107232904 l 1.949092003041035 -2.377575325783417" fill="#ff0200" stroke="none" /><path d="M 86.68645165197938 116.24036423190432 l -4.063604411195369 4.956936648823422 a27.40968811652605,27.40968811652605 0 0,0 -0.3613192934891515,-0.3014254053946328 l 4.148098038846413 -4.886449059516919" fill="#ff3304" stroke="none" /><path d="M 86.13680546590413 115.77377054828092 l -7.122759564174678 8.104392877091822 a31.78957310162448,31.78957310162448 0 0,0 -0.40680809879816876,-0.3637703104485407 l 7.260832689796217 -7.9809270367598995" fill="#ff720a" stroke="none" /><path d="M 85.86807049272751 115.53346607816431 l -8.031010884969318 8.827487788616647 a32.93405532468623,32.93405532468623 0 0,0 -0.4149224070862233,-0.38404598556714975 l 8.181363063369508 -8.688324056917121" fill="#ff820c" stroke="none" /><path d="M 85.60350026404147 115.28858382429668 l -4.785941278409362 5.082503785997634 a27.981194643831593,27.981194643831593 0 0,0 -0.34687023067368844,-0.33229383446333366 l 4.8724839949483645 -4.999597821228718" fill="#ff3c05" stroke="none" /><path d="M 85.34317274990678 115.03919595460226 l -13.64742591909713 14.003461265596508 a40.55375057717332,40.55375057717332 0 0,0 -0.4943851341328841,-0.4901596455565537 l 13.885802973359976 -13.767121609811294" fill="#ffe715" stroke="none" /><path d="M 85.08716467003676 114.78537596483092 l -5.84461119635465 5.794657554672853 a29.23028166058011,29.23028166058011 0 0,0 -0.3502249843753043,-0.3593616871062077 l 5.943222981880765 -5.693473175498908" fill="#ff4e07" stroke="none" /><path d="M 84.83555147118756 114.52719865689866 l -8.807258105387602 8.437154036722909 a33.19644880997355,33.19644880997355 0 0,0 -0.3906813649551462,-0.41489007093776786 l 8.950795304079001 -8.28472250584065" fill="#ff860c" stroke="none" /><path d="M 84.58840730492382 114.26474011684316 l -8.973006249350279 8.305280625193586 a33.22671368005709,33.22671368005709 0 0,0 -0.3838512920119244,-0.42191981077023905 l 9.114255242204084 -8.150023238865673" fill="#ff860c" stroke="none" /><path d="M 84.3458050057657 113.99807769240083 l -11.308107360776484 10.111779331256594 a36.16975192041305,36.16975192041305 0 0,0 -0.40990479887717884,-0.4663964159361429 l 11.480023223612257 -9.91617063750915" fill="#ffae10" stroke="none" /><path d="M 84.1078160697243 113.72728997021213 l -5.100379504522715 4.405586338786823 a27.73966335054359,27.73966335054359 0 0,0 -0.3081816317221112,-0.3630371872569558 l 5.175255699751938 -4.317382369080313" fill="#ff3805" stroke="none" /><path d="M 83.4222238831116 112.89097897827486 l -5.825614562616693 4.530033119805412 a28.37963312764975,28.37963312764975 0 0,0 -0.2957536473046043,-0.38715101814134495 l 5.9025201872755915 -4.429361188423197" fill="#ff4106" stroke="none" /><path d="M 82.78059297857968 112.02048342749411 l -5.6072879095763914 3.9143224448092235 a27.838391470427737,27.838391470427737 0 0,0 -0.27017856629647086,-0.3941986026108274 l 5.673656212688187 -3.817489107128345" fill="#ff3a05" stroke="none" /><path d="M 82.576782715395 111.72311816256416 l -12.235428679525945 8.232542465417627 a35.74721907400411,35.74721907400411 0 0,0 -0.33819518126435555,-0.5120706090896263 l 12.374948299711027 -8.02129197798894" fill="#ffa80f" stroke="none" /><path d="M 82.37810715431573 111.42229804090323 l -6.772947355889983 4.390142647659413 a29.07131763421903,29.07131763421903 0 0,0 -0.2678469353974129,-0.42109987063820054 l 6.847311982913286 -4.27322910234254" fill="#ff4b07" stroke="none" /><path d="M 82.18462484594161 111.11811171558189 l -4.187556663910601 2.6133450686319977 a25.936112160517148,25.936112160517148 0 0,0 -0.23247653267081309,-0.3797329448280737 l 4.231801161036819 -2.541075007679367" fill="#ff1e03" stroke="none" /><path d="M 81.99639281039703 110.81064883170644 l -5.055036246117379 3.03540402280504 a26.896360659866517,26.896360659866517 0 0,0 -0.2342881650724282,-0.39787252457822 l 5.106398121319578 -2.948180329933261" fill="#ff2c04" stroke="none" /><line stroke="#e1ed5e" stroke-width="0.3" x1="26.387840678322732" x2="22.057713659400548" y1="142.50000000000003" y2="145.00000000000006" /><path d="M 25.521815274538298 143.00000000000003 a86.0,86.0 0 0,1 -11.493303480769221,-40.785679425670985" fill="none" id="id9" stroke="none" /><text fill="#e1ed5e" style="font-size:6.75px; font-family:Arial;" text-anchor="middle"><textPath startOffset="21.40746469413373" xlink:href="#id9">September</textPath></text><path d="M 81.81346652052679 110.50000000000001 l -37.660926673502566 21.74354615287749 a64.48709230575494,64.48709230575494 0 0,0 -0.5452740942994605,-0.9634470774725544 l 38.028634132823406 -21.093842305305813" fill="#34ff5c" stroke="none" /><path d="M 81.63589988554817 110.18625677009913 l -3.154856248236851 1.749945579527867 a24.607690047433152,24.607690047433152 0 0,0 -0.20172991794715175,-0.37116032770856966 l 3.1844315157993326 -1.6955304183447102" fill="#ff0a01" stroke="none" /><path d="M 81.4637452351635 109.86951160357371 l -2.6052789197104005 1.3871642818270578 a23.95155941736977,23.95155941736977 0 0,0 -0.19012055668298125,-0.3645812357746653 l 2.628707545368331 -1.3422368029478897" fill="#ff0000" stroke="none" /><path d="M 81.29705330413844 109.54985784667822 l -5.918975337097154 3.0222709814908284 a27.64593040339168,27.64593040339168 0 0,0 -0.21218921246480715,-0.42452056484798995 l 5.969984462773699 -2.9202185604790856" fill="#ff3705" stroke="none" /><path d="M 81.1358732173502 109.22738970284198 l -3.3949040657969443 1.6606176993934914 a24.77928892246988,24.77928892246988 0 0,0 -0.18362720615907124,-0.3837102364430404 l 3.4229105299159275 -1.6020949608853463" fill="#ff0c01" stroke="none" /><path d="M 80.83023694016515 108.57439118712176 l -3.9252027119117834 1.755693246475255 a25.2999622213827,25.2999622213827 0 0,0 -0.17392653957230417,-0.39797795976003647 l 3.9547631335010553 -1.6880532169393692" fill="#ff1402" stroke="none" /><path d="M 80.68587082218212 108.24405325689762 l -57.942387533453626 24.73215977069285 a84.0,84.0 0 0,0 -0.5546966218540579,-1.3310699622348747 l 58.35840999984417 -23.733857299016694" fill="#4dd2ff" stroke="none" /><path d="M 80.5471966667186 107.91128576633889 l -3.445864503481824 1.4014030950740948 a24.719934517063344,24.719934517063344 0 0,0 -0.15649051664043037,-0.3944583291054858 l 3.469413695088379 -1.3420437487550436" fill="#ff0c01" stroke="none" /><path d="M 80.41425534168474 107.57618678355246 l -5.919104770948963 2.2896368822559388 a27.3465138731478,27.3465138731478 0 0,0 -0.165601784252726,-0.43927840740588675 l 5.957537239016125 -2.187690194655907" fill="#ff3204" stroke="none" /><path d="M 80.28708602549918 107.23885506374661 l -6.002220836993837 2.204098630765646 a27.394114930949083,27.394114930949083 0 0,0 -0.15831167284841222,-0.44282592475908006 l 6.039172679886193 -2.1007377496256443" fill="#ff3304" stroke="none" /><path d="M 80.16572619554312 106.89939002012753 l -5.5765422466629815 1.9398108699498042 a26.904294169500062,26.904294169500062 0 0,0 -0.14799229518489598,-0.43751292420661175 l 5.609019963420245 -1.8437962712690308" fill="#ff2c04" stroke="none" /><path d="M 80.05021161711548 106.5578916946017 l -7.022300946539419 2.3083698017475367 a28.391974142635267,28.391974142635267 0 0,0 -0.14822676927488804,-0.464318243581631 l 7.0608924315915615 -2.187482524474514" fill="#ff4206" stroke="none" /><path d="M 79.94057633289273 106.21446072829308 l -11.555029634542795 3.5797777179350194 a33.096839189019015,33.096839189019015 0 0,0 -0.16347266461586368,-0.5441473339034839 l 11.614778619162287 -3.380892780440812" fill="#ff840c" stroke="none" /><path d="M 79.83685265289637 105.86919833188381 l -6.272471350769637 1.825824994232082 a27.532804432691098,27.532804432691098 0 0,0 -0.12819995880211238,-0.45493642718439464 l 6.302889801646324 -1.7178806431446918" fill="#ff3505" stroke="none" /><path d="M 79.73907114497094 105.5222062557868 l -4.745098254844427 1.293297629872525 a25.918188305419132,25.918188305419132 0 0,0 -0.1133124916629161,-0.43026598736218774 l 4.766600227312076 -1.2116511381375346" fill="#ff1d03" stroke="none" /><path d="M 79.64726062577567 105.17358676015961 l -3.6027159443018935 0.9157963047304309 a24.71729001385216,24.71729001385216 0 0,0 -0.10100246637632243,-0.4121245299915581 l 3.6179059371945095 -0.8538159501307734" fill="#ff0c01" stroke="none" /><path d="M 79.56144815229197 104.8234425847677 l -4.625977902146734 1.0917181890218464 a25.75305377156529,25.75305377156529 0 0,0 -0.09784828441391831,-0.4311375953478297 l 4.644037048118319 -1.0121462597349904" fill="#ff1b02" stroke="none" /><path d="M 79.48165901384964 104.47187691870673 l -5.4131626200711525 1.1797735983743358 a26.540234227427277,26.540234227427277 0 0,0 -0.09319702986609428,-0.4459815256138565 l 5.432617360761614 -1.0866756214750704" fill="#ff2703" stroke="none" /><path d="M 79.407916724674 104.11899336999214 l -10.345167135409476 2.0693231603851703 a31.5500986441674,31.5500986441674 0 0,0 -0.10167200733878581,-0.5319909048974084 l 10.37916543503042 -1.8914296904544474" fill="#ff6f0a" stroke="none" /><path d="M 79.34024301695615 103.76489593502545 l -11.122950218885963 2.0269720548476875 a32.306132728875454,32.306132728875454 0 0,0 -0.09474186096323318,-0.546445877366125 l 11.156106897341429 -1.83573314456097" fill="#ff790b" stroke="none" /><path d="M 79.2786578344484 103.40968896794605 l -15.723448026137616 2.5872873892272463 a36.934894849515175,36.934894849515175 0 0,0 -0.09757585020386142,-0.6265069545007869 l 15.765545368479746 -2.3169922527950093" fill="#ffb811" stroke="none" /><line stroke="#e1ed5e" stroke-width="0.3" x1="15.003131293944662" x2="10.003315487706104" y1="100.72959589197737" y2="100.7725132973878" /><path d="M 14.003168132696942 100.73817937305945 a86.0,86.0 0 0,1 10.791469493833604,-42.45332614584628" fill="none" id="id10" stroke="none" /><text fill="#e1ed5e" style="font-size:6.75px; font-family:Arial;" text-anchor="middle"><textPath startOffset="22.145653131862435" xlink:href="#id10">October</textPath></text><line stroke="#e1ed5e" stroke-width="0.3" x1="26.387840678322718" x2="22.05771365940052" y1="57.49999999999999" y2="54.99999999999999" /><path d="M 25.521815274538284 56.99999999999999 a86.0,86.0 0 0,1 29.574782752854787,-30.34633250058573" fill="none" id="id11" stroke="none" /><text fill="#e1ed5e" style="font-size:6.75px; font-family:Arial;" text-anchor="middle"><textPath startOffset="21.40746469413373" xlink:href="#id11">November</textPath></text><line stroke="#e1ed5e" stroke-width="0.3" x1="56.869717070023135" x2="54.33264160355391" y1="26.7553504044142" y2="22.446841604673864" /><path d="M 56.362301976729285 25.89364864446614 a86.0,86.0 0 0,1 42.16139366436587,-11.88097634709845" fill="none" id="id12" stroke="none" /><text fill="#e1ed5e" style="font-size:6.75px; font-family:Arial;" text-anchor="middle"><textPath startOffset="22.145653131862474" xlink:href="#id12">December</textPath></text></svg>