<?xml version="1.0" encoding="utf-8" ?>
<svg baseProfile="full" height="200mm" version="1.1" viewBox="0,0,200,200" width="200mm" xmlns="http://www.w3.org/2000/svg" xmlns:ev="http://www.w3.org/2001/xml-events" xmlns:xlink="http://www.w3.org/1999/xlink"><defs /><rect fill="#1a1a1a" height="200" width="200" x="0" y="0" /><text alignment-baseline="middle" fill="#e1ed5e" style="dominant-baseline: central; font-size:9.0px; font-family:Arial;" text-anchor="middle" x="100.0" y="100.0">2025</text><line stroke="#e1ed5e" stroke-width="0.3" x1="100.0" x2="100.0" y1="15.0" y2="10.0" /><path d="M 100.0 14.0 a86.0,86.0 0 0,1 42.46469731375804,11.215312516191453" fill="none" id="id13" stroke="none" /><text fill="#e1ed5e" style="font-size:6.75px; font-family:Arial;" text-anchor="middle"><textPath startOffset="22.20632615414155" xlink:href="#id13">January</textPath></text><path d="M 100.72285384407766 79.0124445844662 l 0.1472209989913948 -4.274458661286703 a25.276993204295856,25.276993204295856 0 0,0 0.4347151345411436,0.018719748140918077 l -0.22077696592186988 4.27129118662159" fill="#ff1b02" stroke="none" /><path d="M 103.2404852339499 79.25152402106235 l 0.9383909252885243 -6.008415458344599 a27.081252654571934,27.081252654571934 0 0,0 0.4599567563361841,0.07589680585703658 l -1.0416768877635836 5.991372389547938" fill="#ff3505" stroke="none" /><path d="M 104.307194497241 79.44645832069477 l 2.0582723779895535 -9.821889198518784 a31.035237546265396,31.035237546265396 0 0,0 0.5219199974803446,0.1140714962838059 l -2.227035099623426 9.785004204139108" fill="#ff6e0a" stroke="none" /><path d="M 105.71112130821622 79.79150937346287 l 0.6674771236496398 -2.3618313232633303 a23.454337570535767,23.454337570535767 0 0,0 0.38756593208537427,0.11314112333333853 l -0.7080332734584412 2.349991871011288" fill="#ff0000" stroke="none" /><path d="M 106.0581310904928 79.89281104454417 l 1.417169295128247 -4.703643809182727 a25.91249772465263,25.91249772465263 0 0,0 0.4259701544833486,0.1323510005144397 l -1.4979248223223138 4.678552673785767" fill="#ff2403" stroke="none" /><path d="M 107.4271985657038 80.35727306442388 l 1.835365497151861 -4.8539948095646 a26.189396122808084,26.189396122808084 0 0,0 0.42029844723232246,0.1630692677979896 l -1.9186471093838504 4.821682837876064" fill="#ff2803" stroke="none" /><path d="M 107.76421540070413 80.48803036053334 l 3.134705981207774 -7.877716520903536 a29.478490382865118,29.478490382865118 0 0,0 0.46985363006326414,0.19166509302487064 l -3.2698434808594254 7.822590541695085" fill="#ff5808" stroke="none" /><path d="M 108.76106565485865 80.91482961587045 l 1.4057786617482986 -3.062358660325868 a24.369607426733815,24.369607426733815 0 0,0 0.3797269777191638,0.1782869076220268 l -1.4582838507670604 3.037706770063838" fill="#ff0e01" stroke="none" /><path d="M 109.73455568895987 81.39251694778311 l 2.7154174231418797 -5.190486889721188 a26.857870426551788,26.857870426551788 0 0,0 0.407798334533658,0.2178317473571989 l -2.804360804203849 5.142976415862235" fill="#ff3204" stroke="none" /><path d="M 110.05341064243156 81.56283822128135 l 1.9165819974731384 -3.514860141139665 a25.00343956677386,25.00343956677386 0 0,0 0.37609448807081014,0.20929617542254333 l -1.9768005746159836 3.481348568156942" fill="#ff1702" stroke="none" /><path d="M 110.36928655335952 81.73862282372117 l 2.7773357956784688 -4.891173201654167 a26.62469282810509,26.62469282810509 0 0,0 0.39658528160658146,0.2297277929152194 l -2.8611178097503784 4.842641251348899" fill="#ff2f04" stroke="none" /><line stroke="#e1ed5e" stroke-width="0.3" x1="143.23703022742887" x2="145.7803849466894" y1="26.81831364943548" y2="22.513508569990506" /><path d="M 143.74570117128098 25.957352633546492 a86.0,86.0 0 0,1 28.547481713284135,27.462654790039103" fill="none" id="id14" stroke="none" /><text fill="#e1ed5e" style="font-size:6.75px; font-family:Arial;" text-anchor="middle"><textPath startOffset="19.985693538727396" xlink:href="#id14">February</textPath></text><path d="M 110.68208982089419 81.91981866633111 l 3.7423124424862255 -6.3341245675588524 a28.35703992476185,28.35703992476185 0 0,0 0.4181150119279628,0.2519096163657979 l -3.850789520631826 6.2687683417344395" fill="#ff4806" stroke="none" /><path d="M 110.99172775467656 82.1063720568725 l 4.574578886918018 -7.447037847545926 a29.73985953522238,29.73985953522238 0 0,0 0.43389158917767917,0.2717028733377718 l -4.70208962846796 7.36719063288521" fill="#ff5b08" stroke="none" /><path d="M 111.60114157652 82.49532879139004 l 2.3888947409328796 -3.604543287071177 a25.324297676111886,25.324297676111886 0 0,0 0.36128765243878297,0.2439430356799955 l -2.4505870877782043 3.5628883390925115" fill="#ff1c02" stroke="none" /><path d="M 111.90073688211348 82.69761687909136 l 3.1014142773334434 -4.50912061787802 a26.47274513075663,26.47274513075663 0 0,0 0.3732264515693128,0.2614689806555307 l -3.178571868486407 4.455066794458554" fill="#ff2d04" stroke="none" /><path d="M 112.19680574252982 82.90503203632743 l 8.273417256150239 -11.595970775430951 a35.24485771494448,35.24485771494448 0 0,0 0.4908344625323723,0.3566121112404202 l -8.471797035036401 11.451839429373857" fill="#ffa70f" stroke="none" /><path d="M 112.48926042617603 83.11751280151076 l 2.472030135776924 -3.341592351942949 a25.156581821491415,25.156581821491415 0 0,0 0.3459076075832186,0.26053043861491215 l -2.5291838971185254 3.2985453238221893" fill="#ff1902" stroke="none" /><path d="M 112.77801427241765 83.33499621200491 l 3.7542346328937755 -4.896248591085643 a27.169888811358533,27.169888811358533 0 0,0 0.3686920852940583,0.28777002066896507 l -3.837959273347264 4.830900181193454" fill="#ff3705" stroke="none" /><path d="M 113.06298171725822 83.55741782278167 l 4.777646262132349 -6.013699090997377 a28.680526060311877,28.680526060311877 0 0,0 0.38390468585410537,0.3104242238460058 l -4.880454346550946 5.930568769887241" fill="#ff4c07" stroke="none" /><path d="M 113.34407831869373 83.78471172551755 l 7.357420040165637 -8.940496605195193 a32.578605667131846,32.578605667131846 0 0,0 0.4299483341441227,0.36006936519354565 l -7.510225911268877 8.812526082607828" fill="#ff830c" stroke="none" /><path d="M 113.6212207817346 84.01681056812373 l 1.604508069603787 -1.8827355368793626 a23.473689399915052,23.473689399915052 0 0,0 0.3052766735122151,0.26473292302349877 l -1.6366785417627663 1.8548376204361925" fill="#ff0000" stroke="none" /><path d="M 113.89432698308785 84.25364557470407 l 3.447236395476379 -3.9067315845540382 a26.210181421030278,26.210181421030278 0 0,0 0.33572622930346974,0.3014183235007313 l -3.513973612375839 3.8468142522840094" fill="#ff2904" stroke="none" /><path d="M 114.16331599549186 84.49514656593476 l 5.151883634835506 -5.639865741391996 a28.638716552393667,28.638716552393667 0 0,0 0.3611098267289461,0.3356122287739221 l -5.248201345359298 5.550348926543434" fill="#ff4c07" stroke="none" /><path d="M 114.68862486808459 84.99185889309783 l 2.1707409710775156 -2.2179602987378573 a24.10346004490019,24.10346004490019 0 0,0 0.2940211216952747,0.29275850155911043 l -2.2085978929401127 2.1802659465286283" fill="#ff0a01" stroke="none" /><path d="M 115.19652480421416 85.50635884689758 l 3.713782719335801 -3.5420094230833197 a26.132057369091683,26.132057369091683 0 0,0 0.3076523107515255,0.3281820346726988 l -3.774202352057789 3.4775579715325664" fill="#ff2803" stroke="none" /><path d="M 115.4437574822437 85.77008943001954 l 5.088610796531709 -4.688656672013693 a27.919354104726654,27.919354104726654 0 0,0 0.32260994397165293,0.3562339577902849 l -5.168564381119397 4.600369926953859" fill="#ff4106" stroke="none" /><path d="M 115.9244219780498 86.31012108654704 l 5.029947194480482 -4.324136105437036 a27.63313815909229,27.63313815909229 0 0,0 0.30697704040763674,0.36336399029979816 l -5.103634848375236 4.236913165508131" fill="#ff3d05" stroke="none" /><path d="M 116.15771136456269 86.58626213691792 l 3.304384816106944 -2.743219675233184 a25.29467265335841,25.29467265335841 0 0,0 0.27523194493933434,0.33740182070413116 l -3.351115253122687 2.685933684920952" fill="#ff1b02" stroke="none" /><path d="M 117.2510076193507 88.02491185347247 l 3.2783299474428964 -2.2757099736013724 a24.99077725866149,24.99077725866149 0 0,0 0.24226242065646092,0.35549020870077774 l -3.3170168337680908 2.218941741630188" fill="#ff1702" stroke="none" /><path d="M 117.45458315368197 88.32363383020206 l 2.060228068147986 -1.3782040570769405 a23.47870654086524,23.47870654086524 0 0,0 0.22182163691197904,0.33784957132470034 l -2.08364634041789 1.3425364217745661" fill="#ff0000" stroke="none" /><path d="M 117.65298651832404 88.62581576622439 l 4.480191090317327 -2.8866797587418804 a26.329637157939445,26.329637157939445 0 0,0 0.24219806189385554,0.38309916992570664 l -4.529216748457138 2.8091329411019674" fill="#ff2a04" stroke="none" /><line stroke="#e1ed5e" stroke-width="0.3" x1="172.23445277983987" x2="176.4835382374775" y1="55.19839476539836" y2="52.563006222186495" /><path d="M 173.08426987136738 54.67131705675599 a86.0,86.0 0 0,1 12.851231095245387,41.99856678651699" fill="none" id="id15" stroke="none" /><text fill="#e1ed5e" style="font-size:6.75px; font-family:Arial;" text-anchor="middle"><textPath startOffset="22.20632615414155" xlink:href="#id15">March</textPath></text><path d="M 118.3937258080291 89.86733742301442 l 3.8007998815063457 -2.093769534453945 a25.33934909896244,25.33934909896244 0 0,0 0.20716957196989247,0.38385375325511806 l -3.8362775526947033 2.0280347978663684" fill="#ff1c02" stroke="none" /><path d="M 118.73160827565052 90.50648371742162 l 5.513441644632041 -2.7943114790842656 a27.181117650627996,27.181117650627996 0 0,0 0.20792258987184625,0.41915925357322986 l -5.560724247457296 2.698992637012086" fill="#ff3705" stroke="none" /><path d="M 118.89224826269711 90.83032412892265 l 16.17966140615686 -7.853075437886355 a38.98477792609672,38.98477792609672 0 0,0 0.28782239915905095,0.6062273764921966 l -16.312441999157667 7.573405645753619" fill="#ffd814" stroke="none" /><path d="M 119.04729006885535 91.15688171328212 l 11.262341560910512 -5.2287867853390475 a33.41694602876039,33.41694602876039 0 0,0 0.23773401480274695,0.5238153887800264 l -11.350677892676606 5.034149387716959" fill="#ff8e0d" stroke="none" /><path d="M 119.196687751892 91.48605970444005 l 21.314980104466763 -9.453426047032105 a44.31728202172198,44.31728202172198 0 0,0 0.3032764352877806,0.7000038264858072 l -21.474547249597226 9.085123075959695" fill="#e3ff1b" stroke="none" /><path d="M 119.34039704204932 91.81776055985345 l 22.01362223844447 -9.313186679067353 a44.902615132576905,44.902615132576905 0 0,0 0.2950279566852984,0.7144335985210605 l -22.170671882015967 8.93287851009299" fill="#dcff1b" stroke="none" /><path d="M 119.47837535516314 92.15188598940014 l 3.0388056084887736 -1.2243779286832834 a24.276193040470844,24.276193040470844 0 0,0 0.15283187163177236,0.38894044313373566 l -3.0594310300022465 1.1718884806537633" fill="#ff0c01" stroke="none" /><path d="M 119.61058180528143 92.48833698450437 l 3.809285014676465 -1.4591135359645853 a25.079174503974272,25.079174503974272 0 0,0 0.15094726578425602,0.40446362604285396 l -3.833836868962346 1.3933267728923981" fill="#ff1802" stroke="none" /><path d="M 119.7369772167798 92.82701384747503 l 3.768045946940209 -1.3694164563609774 a25.0091734421455,25.0091734421455 0 0,0 0.14356089571160813,0.405865984294841 l -3.7910599234616265 1.304352845639522" fill="#ff1702" stroke="none" /><path d="M 120.08093135843002 93.85539295169968 l 48.94087343296452 -14.975522324064096 a72.1808104787331,72.1808104787331 0 0,0 0.3533219837576956,1.1912260834641442 l -49.19140131383392 14.130866853853421" fill="#3effb5" stroke="none" /><path d="M 120.6074358757038 95.95851677861258 l 2.8585924583511666 -0.5606206190277092 a23.913047600266975,23.913047600266975 0 0,0 0.07574090715432545,0.4046109546217196 l -2.8678190894153515 0.5113315869434268" fill="#ff0701" stroke="none" /><path d="M 120.67395015179393 96.31383870115 l 3.800395378231217 -0.6776097582081431 a24.860331593956676,24.860331593956676 0 0,0 0.07148900699757288,0.4219321660603304 l -3.8114962467490128 0.6120918038319747" fill="#ff1502" stroke="none" /><path d="M 120.73433829027371 96.67025291283417 l 2.833735883908645 -0.4550723381256041 a23.870043534979672,23.870043534979672 0 0,0 0.061657580243808956,0.4062464165067322 l -2.8411493575917537 0.4062268092267897" fill="#ff0601" stroke="none" /><path d="M 120.78858239683441 97.02765380044208 l 3.793086938904233 -0.5423346013801095 a24.831662217098476,24.831662217098476 0 0,0 0.05685741283059317,0.42365376706820357 l -3.8018603507926625 0.4769624922472416" fill="#ff1402" stroke="none" /><path d="M 120.83666639777658 97.38593545837742 l 2.844876298158295 -0.35690403226456824 a23.867176597293852,23.867176597293852 0 0,0 0.04763166409493282,0.40807900979832823 l -2.850598315256817 0.3078812841413873" fill="#ff0601" stroke="none" /><path d="M 120.94382443527127 98.46500227214037 l 2.8911970492261707 -0.21189926009323748 a23.89895182331169,23.89895182331169 0 0,0 0.026538544387313096,0.4105395354339566 l -2.8944161846178993 0.1621006604062456" fill="#ff0701" stroke="none" /><path d="M 120.96714384426684 98.82574320788733 l 4.397442093574337 -0.24627704587021093 a25.40433301984103,25.40433301984103 0 0,0 0.02069411777162487,0.43682011891024686 l -4.401029819579458 0.1705458203369643" fill="#ff1d02" stroke="none" /><path d="M 120.98425023603335 99.18683210126433 l 5.158288652652744 -0.19989061784761525 a26.16216021479279,26.16216021479279 0 0,0 0.01356483781519193,0.45015092825974445 l -5.160965184923581 0.11106954216287171" fill="#ff2803" stroke="none" /><line stroke="#e1ed5e" stroke-width="0.3" x1="184.98032266829074" x2="189.97916517819016" y1="98.17113171792111" y2="98.06355123074" /><path d="M 185.9800911702706 98.14961562048488 a86.0,86.0 0 0,1 -9.607161424134198,41.387399972396054" fill="none" id="id16" stroke="none" /><text fill="#e1ed5e" style="font-size:6.75px; font-family:Arial;" text-anchor="middle"><textPath startOffset="21.466115282336823" xlink:href="#id16">April</textPath></text><path d="M 120.99513854157772 99.54816195383933 l 8.336557915684862 -0.17941172585590542 a29.338488259207573,29.338488259207573 0 0,0 0.006520119803938457,0.5049904642391595 l -8.338411042606516 0.035885003556283164" fill="#ff5607" stroke="none" /><path d="M 120.99980553446 99.90962569577887 l 4.807809977119179 -0.020690785959734184 a25.8078544991202,25.8078544991202 0 0,0 -0.0019118737712568166,0.4442521328252545 l -4.807453806058419 -0.06207082506920502" fill="#ff2303" stroke="none" /><path d="M 120.99824983174949 100.27111621757518 l 9.028667717460337 0.11657248870331613 a30.0294202414902,30.0294202414902 0 0,0 -0.011122235630660908,0.5168065857710965 l -9.02532341914467 -0.27196889026452753" fill="#ff5f08" stroke="none" /><path d="M 120.9904718944345 100.63252640178507 l 5.737960287749594 0.1729075645678168 a26.740564892906985,26.740564892906985 0 0,0 -0.017824327374032944,0.4599666889055466 l -5.734133827524358 -0.2716515004873696" fill="#ff3004" stroke="none" /><path d="M 120.9764740272857 100.99374915477107 l 3.4882567902831485 0.1652542859423955 a24.49216901280262,24.49216901280262 0 0,0 -0.023575052877529527,0.42094840595302757 l -3.48489538651809 -0.22527440823084638" fill="#ff0f01" stroke="none" /><path d="M 120.95626037817324 101.35467743843564 l 4.043499059680292 0.2613842760891535 a25.051938595958983,25.051938595958983 0 0,0 -0.03152182999213986,0.4300903260322189 l -4.0384006710238145 -0.33094773861814264" fill="#ff1802" stroke="none" /><path d="M 120.92983693683757 101.71520430193887 l 7.8255918663442 0.6413088107125741 a28.85182558703962,28.85182558703962 0 0,0 -0.04482392656764645,0.4946282945564204 l -7.813393343499478 -0.775918493817565" fill="#ff4f07" stroke="none" /><path d="M 120.89721153311464 102.0752229133903 l 6.731666895517656 0.6684963381239725 a27.76477838116619,27.76477838116619 0 0,0 -0.05132213314715343,0.475179212964036 l -6.719162460869451 -0.7842718729727999" fill="#ff3f05" stroke="none" /><path d="M 120.8583938346157 102.4346265915055 l 8.668348420734597 1.0117841161159598 a29.727197227110004,29.727197227110004 0 0,0 -0.06369900045434436,0.5077437076267306 l -8.649647911033405 -1.1608455780300853" fill="#ff5b08" stroke="none" /><path d="M 120.81339534386255 102.79330883721812 l 7.2930864699233195 0.9787851789900254 a28.358473393604758,28.358473393604758 0 0,0 -0.06909467632877377,0.48324800531545475 l -7.275157742577944 -1.1041786562858895" fill="#ff4806" stroke="none" /><path d="M 120.76222939487914 103.15116336523771 l 6.200418530606204 0.9410613547891106 a27.27142618773133,27.27142618773133 0 0,0 -0.07443572881649409,0.46351135439476043 l -6.183301047428421 -1.047651938877076" fill="#ff3805" stroke="none" /><path d="M 120.70491114924044 103.5080841355445 l 6.122763585745026 1.0373949275135936 a27.210025938960015,27.210025938960015 0 0,0 -0.08221775951761763,0.4611208582732678 l -6.10399938388822 -1.1426345365200796" fill="#ff3705" stroke="none" /><path d="M 120.64145759157962 103.86396538481128 l 11.747962035077748 2.1991527703031593 a32.95202430070991,32.95202430070991 0 0,0 -0.10916545424704442,0.5566322993333496 l -11.70836664785504 -2.401048796704454" fill="#ff880c" stroke="none" /><path d="M 120.5718875245553 104.21870165774334 l 11.734111152447841 2.406328253150723 a32.978304562829926,32.978304562829926 0 0,0 -0.11882548171355291,0.555113091525956 l -11.690951632009845 -2.6079551640928478" fill="#ff880c" stroke="none" /><path d="M 120.49622156327973 104.57218783832717 l 11.779093717034874 2.6276174305233706 a33.06861309993326,33.06861309993326 0 0,0 -0.1287147485833358,0.5544997681190635 l -11.732118402520985 -2.8299858559909987" fill="#ff8a0c" stroke="none" /><path d="M 120.41448212921028 104.9243191809786 l 11.915363803284892 2.874187753256699 a33.25711425277592,33.25711425277592 0 0,0 -0.1390284928852475,0.5553497195442186 l -11.864123996104583 -3.0788653121983134" fill="#ff8c0c" stroke="none" /><path d="M 120.32669344350535 105.2749913415812 l 11.80376736966253 3.0632021310334197 a33.19475835810934,33.19475835810934 0 0,0 -0.1482887684259098,0.551837672088701 l -11.749290524894844 -3.265930736297669" fill="#ff8b0c" stroke="none" /><path d="M 120.23288151984713 105.62410040840565 l 11.773459862612333 3.2726490468850407 a33.21984406286026,33.21984406286026 0 0,0 -0.157885001855669,0.5496184040259187 l -11.715382223870565 -3.474824926415541" fill="#ff8c0c" stroke="none" /><path d="M 120.13307415673323 105.97154293290107 l 11.662471977258502 3.459131555061785 a33.16465551240823,33.16465551240823 0 0,0 -0.16704441201284267,0.5459108035829647 l -11.601200792739526 -3.659369331196807" fill="#ff8b0c" stroke="none" /><path d="M 120.02730092923936 106.31721596034902 l 60.08190278771807 18.951647881047055 a84.0,84.0 0 0,0 -0.4468309959350121,1.375204400088819 l -59.746779540766816 -19.98305118111367" fill="#4dd2ff" stroke="none" /><path d="M 119.9155931802556 106.66101706037122 l 11.35092743702345 3.7964584145054636 a32.96898701535101,32.96898701535101 0 0,0 -0.1846407222628022,0.536652367301971 l -11.283895883817419 -3.9912834848967353" fill="#ff880c" stroke="none" /><path d="M 119.79798401119884 107.00284435728193 l 11.296283888799849 3.99566530835614 a32.98212714641102,32.98212714641102 0 0,0 -0.19392821538203203,0.5336071598770014 l -11.22583141241259 -4.189520265239272" fill="#ff880c" stroke="none" /><path d="M 119.67450827220406 107.3425965602758 l 11.211282351702229 4.184090503963964 a32.966597900612825,32.966597900612825 0 0,0 -0.20298903289952044,0.5299403110921355 l -11.137599039209201 -4.376454381889244" fill="#ff880c" stroke="none" /><path d="M 119.54520255179757 107.68017299344265 l 11.621900482816411 4.566757800747152 a33.48694709058917,33.48694709058917 0 0,0 -0.2154285242114102,0.5346759299280384 l -11.541569344347609 -4.7661330985180035" fill="#ff8f0d" stroke="none" /><path d="M 119.41010516605496 108.01547362559984 l 11.048028467207267 4.5623235956827415 a32.95297994660518,32.95297994660518 0 0,0 -0.22101880439375524,0.522423165687473 l -10.967858681621204 -4.751821287036377" fill="#ff880c" stroke="none" /><path d="M 119.26925614724726 108.34839909993367 l 33.357583266978644 14.452162345757696 a57.35372550209332,57.35372550209332 0 0,0 -0.40027141886700607,0.9025063809765952 l -33.103870763380364 -15.02421706322698" fill="#51ff2b" stroke="none" /><line stroke="#e1ed5e" stroke-width="0.3" x1="174.80103733775053" x2="179.2010983576182" y1="140.37084112569926" y2="142.7455964860345" /><path d="M 175.68104954172406 140.8457921977663 a86.0,86.0 0 0,1 -30.038265399797805,32.042727171017184" fill="none" id="id17" stroke="none" /><text fill="#e1ed5e" style="font-size:6.75px; font-family:Arial;" text-anchor="middle"><textPath startOffset="22.206326154141568" xlink:href="#id17">May</textPath></text><line stroke="#e1ed5e" stroke-width="0.3" x1="143.8653032363475" x2="146.44561519142675" y1="172.8068346515853" y2="177.08958963109032" /><path d="M 144.38136562736335 173.6633856474863 a86.0,86.0 0 0,1 -40.68145358897372,12.25698825130547" fill="none" id="id18" stroke="none" /><text fill="#e1ed5e" style="font-size:6.75px; font-family:Arial;" text-anchor="middle"><textPath startOffset="21.466115282336833" xlink:href="#id18">June</textPath></text><line stroke="#e1ed5e" stroke-width="0.3" x1="102.19456741930631" x2="102.32365962044197" y1="184.97166512339345" y2="189.96999836594603" /><path d="M 102.22038585953345 185.97133177190398 a86.0,86.0 0 0,1 -42.740103519485714,-10.115201625700543" fill="none" id="id19" stroke="none" /><text fill="#e1ed5e" style="font-size:6.75px; font-family:Arial;" text-anchor="middle"><textPath startOffset="22.20632615414155" xlink:href="#id19">July</textPath></text><line stroke="#e1ed5e" stroke-width="0.3" x1="58.666819895761336" x2="56.23545636021788" y1="174.27360380694188" y2="178.64263932499728" /><path d="M 58.180547188652646 175.14741091055294 a86.0,86.0 0 0,1 -31.652253787137756,-30.449443065178592" fill="none" id="id20" stroke="none" /><text fill="#e1ed5e" style="font-size:6.75px; font-family:Arial;" text-anchor="middle"><textPath startOffset="22.20632615414155" xlink:href="#id20">August</textPath></text><line stroke="#e1ed5e" stroke-width="0.3" x1="26.63291911575756" x2="22.317208475507996" y1="142.92168965132927" y2="145.44649492493687" /><path d="M 25.769776987707644 143.4266507060508 a86.0,86.0 0 0,1 -11.730757126820373,-40.83630448921669" fill="none" id="id21" stroke="none" /><text fill="#e1ed5e" style="font-size:6.75px; font-family:Arial;" text-anchor="middle"><textPath startOffset="21.46611528233685" xlink:href="#id21">September</textPath></text><line stroke="#e1ed5e" stroke-width="0.3" x1="15.007084014347285" x2="10.007500721073583" y1="101.09737516637583" y2="101.16192664675087" /><path d="M 14.007167355692545 101.11028546245083 a86.0,86.0 0 0,1 10.666146001902534,-42.60595125391555" fill="none" id="id22" stroke="none" /><text fill="#e1ed5e" style="font-size:6.75px; font-family:Arial;" text-anchor="middle"><textPath startOffset="22.20632615414155" xlink:href="#id22">October</textPath></text><line stroke="#e1ed5e" stroke-width="0.3" x1="26.266209847984243" x2="21.928928074336255" y1="57.711370442889674" y2="55.22380399835377" /><path d="M 25.398753493254645 57.213857153982495 a86.0,86.0 0 0,1 29.58750427330803,-30.492523968695096" fill="none" id="id23" stroke="none" /><text fill="#e1ed5e" style="font-size:6.75px; font-family:Arial;" text-anchor="middle"><textPath startOffset="21.46611528233685" xlink:href="#id23">November</textPath></text><line stroke="#e1ed5e" stroke-width="0.3" x1="56.762969772571076" x2="54.21961505331055" y1="26.818313649435495" y2="22.513508569990535" /><path d="M 56.25429882871897 25.957352633546506 a86.0,86.0 0 0,1 42.265352541879196,-11.944610805530505" fill="none" id="id24" stroke="none" /><text fill="#e1ed5e" style="font-size:6.75px; font-family:Arial;" text-anchor="middle"><textPath startOffset="22.20632615414155" xlink:href="#id24">December</textPath></text></svg>