<?xml version="1.0" encoding="utf-8" ?>
<svg baseProfile="full" height="200mm" version="1.1" viewBox="0,0,200,200" width="200mm" xmlns="http://www.w3.org/2000/svg" xmlns:ev="http://www.w3.org/2001/xml-events" xmlns:xlink="http://www.w3.org/1999/xlink"><defs /><rect fill="#1a1a1a" height="200" width="200" x="0" y="0" /><text alignment-baseline="middle" fill="#e1ed5e" style="dominant-baseline: central; font-size:9.0px; font-family:Arial;" text-anchor="middle" x="100.0" y="100.0">2025</text><line stroke="#e1ed5e" stroke-width="0.3" x1="100.0" x2="100.0" y1="15.0" y2="10.0" /><path d="M 100.0 14.0 a86.0,86.0 0 0,1 42.46469731375804,11.215312516191453" fill="none" id="id13" stroke="none" /><text fill="#e1ed5e" style="font-size:6.75px; font-family:Arial;" text-anchor="middle"><textPath startOffset="22.20632615414155" xlink:href="#id13">January</textPath></text><path d="M 100.72285384407766 79.0124445844662 l 0.18121875854841796 -5.261559813965029 a26.264679659236783,26.264679659236783 0 0,0 0.4517014211090863,0.019451213372136643 l -0.2717610120468358 5.257660874068697" fill="#ff2203" stroke="none" /><path d="M 103.2404852339499 79.25152402106235 l 1.1550936325586771 -7.395939422119906 a28.485596919127087,28.485596919127087 0 0,0 0.4838085936549081,0.07983256338505444 l -1.2822314323524604 7.374960595795227" fill="#ff4206" stroke="none" /><path d="M 104.307194497241 79.44645832069477 l 2.533589417604543 -12.090059022488548 a33.35267592484537,33.35267592484537 0 0,0 0.5608923891337431,0.12258935160861381 l -2.741324530891814 12.044656172784064" fill="#ff870c" stroke="none" /><path d="M 105.71112130821622 79.79150937346287 l 0.8216176804664048 -2.907249259513351 a24.02111798342864,24.02111798342864 0 0,0 0.396931567689021,0.11587520918868116 l -0.8715394658788529 2.892675721405966" fill="#ff0000" stroke="none" /><path d="M 106.0581310904928 79.89281104454417 l 1.7444363377203318 -5.789856729635886 a27.04694130003501,27.04694130003501 0 0,0 0.4446190362003175,0.1381452988420066 l -1.8438407466313675 5.758971295911359" fill="#ff2d04" stroke="none" /><path d="M 107.4271985657038 80.35727306442388 l 2.2592066291840682 -5.974928301099062 a27.387783872097096,27.387783872097096 0 0,0 0.4395306780117775,0.17053107454978603 l -2.361720472195513 5.9351545226587294" fill="#ff3204" stroke="none" /><path d="M 107.76421540070413 80.48803036053334 l 3.8586039370781435 -9.696918360117534 a31.43642898821333,31.43642898821333 0 0,0 0.5010609459473433,0.20439534074302318 l -4.0249487526138745 9.629062133190933" fill="#ff6c0a" stroke="none" /><path d="M 108.76106565485865 80.91482961587045 l 1.7304152642706478 -3.769549442377363 a25.14775119617225,25.14775119617225 0 0,0 0.39185200610495996,0.1839797710280386 l -1.7950454816752057 3.739204688709321" fill="#ff1101" stroke="none" /><path d="M 109.73455568895987 81.39251694778311 l 3.342489031685475 -6.389126529919095 a28.210629011553273,28.210629011553273 0 0,0 0.42833803813742355,0.22880334568734834 l -3.45197211635121 6.330644457729993" fill="#ff3e05" stroke="none" /><path d="M 110.05341064243156 81.56283822128135 l 2.3591784637912325 -4.326547133985134 a25.927954253705217,25.927954253705217 0 0,0 0.39000076992322563,0.21703500621740063 l -2.433303322786493 4.285296730207554" fill="#ff1d02" stroke="none" /><path d="M 110.36928655335952 81.73862282372117 l 3.4187062199894025 -6.020692302875005 a27.92360368771152,27.92360368771152 0 0,0 0.41593307023139864,0.24093528090005759 l -3.5218360226861294 5.960952864584898" fill="#ff3a05" stroke="none" /><line stroke="#e1ed5e" stroke-width="0.3" x1="143.23703022742887" x2="145.7803849466894" y1="26.81831364943548" y2="22.513508569990506" /><path d="M 143.74570117128098 25.957352633546492 a86.0,86.0 0 0,1 28.547481713284135,27.462654790039103" fill="none" id="id14" stroke="none" /><text fill="#e1ed5e" style="font-size:6.75px; font-family:Arial;" text-anchor="middle"><textPath startOffset="19.985693538727396" xlink:href="#id14">February</textPath></text><path d="M 110.68208982089419 81.91981866633111 l 4.606525017312859 -7.796864567473443 a30.056001867195704,30.056001867195704 0 0,0 0.44316563409130033,0.2670023359258843 l -4.740052717621797 7.7164156220889435" fill="#ff5908" stroke="none" /><path d="M 110.99172775467656 82.1063720568725 l 5.63098683237126 -9.166783019005578 a31.758156144240868,31.758156144240868 0 0,0 0.46333765707459684,0.2901419983534342 l -5.78794364181812 9.0684966793292" fill="#ff710a" stroke="none" /><path d="M 111.60114157652 82.49532879139004 l 2.940562434846712 -4.43694081749339 a26.32290815731124,26.32290815731124 0 0,0 0.37553427207134255,0.25356241685143943 l -3.016501401324596 4.38566648834328" fill="#ff2203" stroke="none" /><path d="M 111.90073688211348 82.69761687909136 l 3.8176241768034522 -5.550412278921518 a27.736566693896602,27.736566693896602 0 0,0 0.3910444615678109,0.2739516353334834 l -3.912599777954914 5.483875800824099" fill="#ff3705" stroke="none" /><path d="M 112.19680574252982 82.90503203632743 l 10.18399830448264 -14.273829429795965 a38.5344240868246,38.5344240868246 0 0,0 0.5366463240857731,0.3898963769460594 l -10.428189944922202 14.09641381803323" fill="#ffcd13" stroke="none" /><path d="M 112.48926042617603 83.11751280151076 l 3.0428962944746485 -4.113266597446366 a26.11646166413817,26.11646166413817 0 0,0 0.3591061312257924,0.2704712929884078 l -3.113248579458824 4.06027871495211" fill="#ff1f03" stroke="none" /><path d="M 112.77801427241765 83.33499621200491 l 4.621200400306019 -6.026939752479494 a28.594701832185784,28.594701832185784 0 0,0 0.38802662462361615,0.3028609352950661 l -4.724259580089066 5.946500427961205" fill="#ff4406" stroke="none" /><path d="M 113.06298171725822 83.55741782278167 l 5.8809485762131 -7.402443204572965 a30.454190687361418,30.454190687361418 0 0,0 0.40764616674696275,0.3296215169520369 l -6.007498141524554 7.300115590356799" fill="#ff5e08" stroke="none" /><path d="M 113.34407831869373 83.78471172551755 l 9.056469762686511 -11.00512635221637 a35.25245419535535,35.25245419535535 0 0,0 0.4652358087588894,0.3896216103699702 l -9.244563108404519 10.84760358445258" fill="#ffa10e" stroke="none" /><path d="M 113.6212207817346 84.01681056812373 l 1.9750372735312893 -2.3175158367741426 a24.044938732640915,24.044938732640915 0 0,0 0.3127058037639452,0.2711753915699339 l -2.014636875941999 2.2831754517845373" fill="#ff0000" stroke="none" /><path d="M 113.89432698308785 84.25364557470407 l 4.243307030185736 -4.808913487784161 a27.413369121251023,27.413369121251023 0 0,0 0.3511378612662807,0.3152550388454884 l -4.3254558790480075 4.735159440169375" fill="#ff3204" stroke="none" /><path d="M 114.16331599549186 84.49514656593476 l 6.3416086216435215 -6.942280483333428 a30.402726105729958,30.402726105729958 0 0,0 0.3833524849496139,0.3562843554975689 l -6.460168990387982 6.832091541761218" fill="#ff5e08" stroke="none" /><path d="M 114.68862486808459 84.99185889309783 l 2.672030393788102 -2.7301540853587474 a24.82014237367254,24.82014237367254 0 0,0 0.30276342432785514,0.3014632619658919 l -2.71862961828328 2.683754972742737" fill="#ff0c01" stroke="none" /><path d="M 115.19652480421416 85.50635884689758 l 4.571406922431895 -4.359966002237734 a27.317203874431087,27.317203874431087 0 0,0 0.32160502238830685,0.343065814622132 l -4.645779266790664 4.280630770737547" fill="#ff3104" stroke="none" /><path d="M 115.4437574822437 85.77008943001954 l 6.263724180661574 -5.771408611428745 a29.517241218345198,29.517241218345198 0 0,0 0.3410736330048542,0.3766220243784751 l -6.362141454282464 5.662733799780721" fill="#ff5107" stroke="none" /><path d="M 115.9244219780498 86.31012108654704 l 6.191513387306452 -5.322709275104793 a29.164929396662387,29.164929396662387 0 0,0 0.3239937374589957,0.38350639226606187 l -6.282217738252566 5.215343933209624" fill="#ff4c07" stroke="none" /><path d="M 116.15771136456269 86.58626213691792 l 4.067466721755802 -3.376711660545173 a26.2864418251838,26.2864418251838 0 0,0 0.2860234092857264,0.3506308799957004 l -4.124988623117937 3.3061966109413716" fill="#ff2203" stroke="none" /><path d="M 117.2510076193507 88.02491185347247 l 4.035394999747471 -2.8012398982321742 a25.912367837553973,25.912367837553973 0 0,0 0.2511963870627799,0.3685997020084984 l -4.083015852478985 2.7313621729532693" fill="#ff1c02" stroke="none" /><path d="M 117.45458315368197 88.32363383020206 l 2.5359967354806927 -1.6964728534716347 a24.05111448243669,24.05111448243669 0 0,0 0.22722962079557998,0.34608630179987254 l -2.5648229916341974 1.652568487694088" fill="#ff0000" stroke="none" /><path d="M 117.65298651832404 88.62581576622439 l 5.514802052759101 -3.553300995034189 a27.5604107830552,27.5604107830552 0 0,0 0.2535195618767455,0.4010070640345368 l -5.5751492108818015 3.457846283285446" fill="#ff3505" stroke="none" /><line stroke="#e1ed5e" stroke-width="0.3" x1="172.23445277983987" x2="176.4835382374775" y1="55.19839476539836" y2="52.563006222186495" /><path d="M 173.08426987136738 54.67131705675599 a86.0,86.0 0 0,1 12.851231095245387,41.99856678651699" fill="none" id="id15" stroke="none" /><text fill="#e1ed5e" style="font-size:6.75px; font-family:Arial;" text-anchor="middle"><textPath startOffset="22.20632615414155" xlink:href="#id15">March</textPath></text><path d="M 118.3937258080291 89.86733742301442 l 4.678518966291039 -2.57728393584954 a26.341435406698565,26.341435406698565 0 0,0 0.21536243401381466,0.3990338823424049 l -4.722189499523318 2.496369070174677" fill="#ff2303" stroke="none" /><path d="M 118.73160827565052 90.50648371742162 l 6.78666125766316 -3.439602099608376 a28.608523748395378,28.608523748395378 0 0,0 0.2188415659221119,0.44117124300561544 l -6.84486283653868 3.3222712681038105" fill="#ff4406" stroke="none" /><path d="M 118.89224826269711 90.83032412892265 l 19.916032181855243 -9.666586909412443 a43.1380044345898,43.1380044345898 0 0,0 0.31848543436195875,0.6708115486784431 l -20.07947581005896 9.322332945093459" fill="#f7ff19" stroke="none" /><path d="M 119.04729006885535 91.15688171328212 l 13.863155188450733 -6.436271024141746 a36.28439257789707,36.28439257789707 0 0,0 0.25813353245381676,0.568763021865625 l -13.971891037867897 6.196685993434058" fill="#ffaf10" stroke="none" /><path d="M 119.196687751892 91.48605970444005 l 26.23725052457681 -11.636506639739423 a49.70194421752829,49.70194421752829 0 0,0 0.3401252915685557,0.7850560672696708 l -26.43366652598805 11.183151427883148" fill="#a8ff21" stroke="none" /><path d="M 119.34039704204932 91.81776055985345 l 27.097230154225002 -11.463881780946876 a50.42244836036876,50.42244836036876 0 0,0 0.33129544608721445,0.802258200819255 l -27.290547287198414 10.995749009674318" fill="#a0ff22" stroke="none" /><path d="M 119.47837535516314 92.15188598940014 l 3.740557281998159 -1.5071236423483119 a25.03276461664138,25.03276461664138 0 0,0 0.157594902219673,0.40106183645136145 l -3.7659457340995326 1.442512801001166" fill="#ff0f01" stroke="none" /><path d="M 119.61058180528143 92.48833698450437 l 4.688963572086008 -1.796066766155758 a26.021178667289064,26.021178667289064 0 0,0 0.15661702787260628,0.41965576961127116 l -4.71918518846024 1.7150878595151537" fill="#ff1e03" stroke="none" /><path d="M 119.7369772167798 92.82701384747503 l 4.638201162442973 -1.6856559312711614 a25.935012253471818,25.935012253471818 0 0,0 0.14887551553885078,0.42089113022085867 l -4.666529758791634 1.6055671746236881" fill="#ff1d02" stroke="none" /><path d="M 120.08093135843002 93.85539295169968 l 60.24279407529006 -18.433821144900946 a84.0,84.0 0 0,0 0.41117641155319085,1.3862824530138804 l -60.551176383954946 17.394109305140535" fill="#4dd2ff" stroke="none" /><path d="M 120.6074358757038 95.95851677861258 l 3.518727491643688 -0.6900847928819268 a24.58575796475668,24.58575796475668 0 0,0 0.07787161395967628,0.41599327557511684 l -3.530084829513224 0.6294134398442472" fill="#ff0901" stroke="none" /><path d="M 120.67395015179393 96.31383870115 l 4.678021051035403 -0.8340902453049575 a25.75179834286381,25.75179834286381 0 0,0 0.07405253163962625,0.4370622336105389 l -4.691685444195253 0.7534422233785807" fill="#ff1a02" stroke="none" /><path d="M 120.73433829027371 96.67025291283417 l 3.488130786057529 -0.5601622372476103 a24.532822966507176,24.532822966507176 0 0,0 0.06336957443952411,0.4175263192265513 l -3.497256253936353 0.5000368056289769" fill="#ff0801" stroke="none" /><path d="M 120.78858239683441 97.02765380044208 l 4.6690248731067365 -0.6675759834077691 a25.716508344030807,25.716508344030807 0 0,0 0.05888345768778765,0.43875015456225 l -4.67982432985236 0.5871074867808548" fill="#ff1902" stroke="none" /><path d="M 120.83666639777658 97.38593545837742 l 3.5018438572489194 -0.43932391500542695 a24.529293966623875,24.529293966623875 0 0,0 0.04895305005773347,0.41939983777079587 l -3.508887260310242 0.37898033890977834" fill="#ff0801" stroke="none" /><path d="M 120.94382443527127 98.46500227214037 l 3.558861463847567 -0.2608331767512961 a24.56840704866379,24.56840704866379 0 0,0 0.02728193963513294,0.4220395308832048 l -3.562823994487115 0.19953458161505605" fill="#ff0801" stroke="none" /><path d="M 120.96714384426684 98.82574320788733 l 5.412943822183117 -0.3031498279276048 a26.421426070720038,26.421426070720038 0 0,0 0.021522631685497468,0.45430873815802486 l -5.417360062102111 0.20992998314658018" fill="#ff2403" stroke="none" /><path d="M 120.98425023603335 99.18683210126433 l 6.34949275084569 -0.24605137758872564 a27.35425837320574,27.35425837320574 0 0,0 0.014182929671747311,0.4706623878709007 l -6.352787374973083 0.13671884229282585" fill="#ff3204" stroke="none" /><line stroke="#e1ed5e" stroke-width="0.3" x1="184.98032266829074" x2="189.97916517819016" y1="98.17113171792111" y2="98.06355123074" /><path d="M 185.9800911702706 98.14961562048488 a86.0,86.0 0 0,1 -9.607161424134198,41.387399972396054" fill="none" id="id16" stroke="none" /><text fill="#e1ed5e" style="font-size:6.75px; font-family:Arial;" text-anchor="middle"><textPath startOffset="21.466115282336823" xlink:href="#id16">April</textPath></text><path d="M 120.99513854157772 99.54816195383933 l 10.261720042639446 -0.22084329308576886 a31.26409616057883,31.26409616057883 0 0,0 0.006948062583451331,0.5381351041219211 l -10.264001112340614 0.04417193090338496" fill="#ff6a09" stroke="none" /><path d="M 120.99980553446 99.90962569577887 l 5.918078000823521 -0.025468911165541206 a26.91813280429455,26.91813280429455 0 0,0 -0.00199412438881709,0.4633642796765214 l -5.9176395791452014 -0.07640484671466488" fill="#ff2b04" stroke="none" /><path d="M 120.99824983174949 100.27111621757518 l 11.113658827977225 0.1434925848108748 a32.114585132454195,32.114585132454195 0 0,0 -0.011894534764629537,0.5526922918354433 l -11.10954223052759 -0.33477469243643293" fill="#ff760a" stroke="none" /><path d="M 120.9904718944345 100.63252640178507 l 7.0630280127829 0.2128371252014238 a28.06623409966157,28.06623409966157 0 0,0 -0.018707972204480637,0.48276963559186326 l -7.058317907727217 -0.33438400780729327" fill="#ff3c05" stroke="none" /><path d="M 120.9764740272857 100.99374915477107 l 4.293800268738502 0.20341647420173153 a25.298615941183336,25.298615941183336 0 0,0 -0.024351302174582742,0.43480885860669527 l -4.28966261567639 -0.2772970491438501" fill="#ff1302" stroke="none" /><path d="M 120.95626037817324 101.35467743843564 l 4.977264689188724 0.32174577228430584 a25.987653168397713,25.987653168397713 0 0,0 -0.032699201378414096,0.44615462317200943 l -4.970988929145972 -0.40737353195308557" fill="#ff1d03" stroke="none" /><path d="M 120.92983693683757 101.71520430193887 l 9.632756554031976 0.7894063164880987 a30.66504843038861,30.66504843038861 0 0,0 -0.047640932629736454,0.5257137217142545 l -9.617741025125165 -0.9551014267509236" fill="#ff6109" stroke="none" /><line stroke="#e1ed5e" stroke-width="0.3" x1="174.80103733775053" x2="179.2010983576182" y1="140.37084112569926" y2="142.7455964860345" /><path d="M 175.68104954172406 140.8457921977663 a86.0,86.0 0 0,1 -30.038265399797805,32.042727171017184" fill="none" id="id17" stroke="none" /><text fill="#e1ed5e" style="font-size:6.75px; font-family:Arial;" text-anchor="middle"><textPath startOffset="22.206326154141568" xlink:href="#id17">May</textPath></text><line stroke="#e1ed5e" stroke-width="0.3" x1="143.8653032363475" x2="146.44561519142675" y1="172.8068346515853" y2="177.08958963109032" /><path d="M 144.38136562736335 173.6633856474863 a86.0,86.0 0 0,1 -40.68145358897372,12.25698825130547" fill="none" id="id18" stroke="none" /><text fill="#e1ed5e" style="font-size:6.75px; font-family:Arial;" text-anchor="middle"><textPath startOffset="21.466115282336833" xlink:href="#id18">June</textPath></text><line stroke="#e1ed5e" stroke-width="0.3" x1="102.19456741930631" x2="102.32365962044197" y1="184.97166512339345" y2="189.96999836594603" /><path d="M 102.22038585953345 185.97133177190398 a86.0,86.0 0 0,1 -42.740103519485714,-10.115201625700543" fill="none" id="id19" stroke="none" /><text fill="#e1ed5e" style="font-size:6.75px; font-family:Arial;" text-anchor="middle"><textPath startOffset="22.20632615414155" xlink:href="#id19">July</textPath></text><line stroke="#e1ed5e" stroke-width="0.3" x1="58.666819895761336" x2="56.23545636021788" y1="174.27360380694188" y2="178.64263932499728" /><path d="M 58.180547188652646 175.14741091055294 a86.0,86.0 0 0,1 -31.652253787137756,-30.449443065178592" fill="none" id="id20" stroke="none" /><text fill="#e1ed5e" style="font-size:6.75px; font-family:Arial;" text-anchor="middle"><textPath startOffset="22.20632615414155" xlink:href="#id20">August</textPath></text><line stroke="#e1ed5e" stroke-width="0.3" x1="26.63291911575756" x2="22.317208475507996" y1="142.92168965132927" y2="145.44649492493687" /><path d="M 25.769776987707644 143.4266507060508 a86.0,86.0 0 0,1 -11.730757126820373,-40.83630448921669" fill="none" id="id21" stroke="none" /><text fill="#e1ed5e" style="font-size:6.75px; font-family:Arial;" text-anchor="middle"><textPath startOffset="21.46611528233685" xlink:href="#id21">September</textPath></text><line stroke="#e1ed5e" stroke-width="0.3" x1="15.007084014347285" x2="10.007500721073583" y1="101.09737516637583" y2="101.16192664675087" /><path d="M 14.007167355692545 101.11028546245083 a86.0,86.0 0 0,1 10.666146001902534,-42.60595125391555" fill="none" id="id22" stroke="none" /><text fill="#e1ed5e" style="font-size:6.75px; font-family:Arial;" text-anchor="middle"><textPath startOffset="22.20632615414155" xlink:href="#id22">October</textPath></text><line stroke="#e1ed5e" stroke-width="0.3" x1="26.266209847984243" x2="21.928928074336255" y1="57.711370442889674" y2="55.22380399835377" /><path d="M 25.398753493254645 57.213857153982495 a86.0,86.0 0 0,1 29.58750427330803,-30.492523968695096" fill="none" id="id23" stroke="none" /><text fill="#e1ed5e" style="font-size:6.75px; font-family:Arial;" text-anchor="middle"><textPath startOffset="21.46611528233685" xlink:href="#id23">November</textPath></text><line stroke="#e1ed5e" stroke-width="0.3" x1="56.762969772571076" x2="54.21961505331055" y1="26.818313649435495" y2="22.513508569990535" /><path d="M 56.25429882871897 25.957352633546506 a86.0,86.0 0 0,1 42.265352541879196,-11.944610805530505" fill="none" id="id24" stroke="none" /><text fill="#e1ed5e" style="font-size:6.75px; font-family:Arial;" text-anchor="middle"><textPath startOffset="22.20632615414155" xlink:href="#id24">December</textPath></text></svg>