<?xml version="1.0" encoding="utf-8" ?>
<svg baseProfile="full" height="200mm" version="1.1" viewBox="0,0,200,200" width="200mm" xmlns="http://www.w3.org/2000/svg" xmlns:ev="http://www.w3.org/2001/xml-events" xmlns:xlink="http://www.w3.org/1999/xlink"><defs /><rect fill="#1a1a1a" height="200" width="200" x="0" y="0" /><text alignment-baseline="middle" fill="#e1ed5e" style="dominant-baseline: central; font-size:9.0px; font-family:Arial;" text-anchor="middle" x="100.0" y="100.0">2024</text><line stroke="#e1ed5e" stroke-width="0.3" x1="100.0" x2="100.0" y1="15.0" y2="10.0" /><path d="M 100.0 14.0 a86.0,86.0 0 0,1 42.35913384403234,11.155469271406648" fill="none" id="id1" stroke="none" /><text fill="#e1ed5e" style="font-size:6.75px; font-family:Arial;" text-anchor="middle"><textPath startOffset="22.145653131862478" xlink:href="#id1">January</textPath></text><line stroke="#e1ed5e" stroke-width="0.3" x1="143.13028292997686" x2="145.6673583964461" y1="26.7553504044142" y2="22.446841604673864" /><path d="M 143.63769802327073 25.89364864446614 a86.0,86.0 0 0,1 29.32050498858742,28.57503671076993" fill="none" id="id2" stroke="none" /><text fill="#e1ed5e" style="font-size:6.75px; font-family:Arial;" text-anchor="middle"><textPath startOffset="20.669276256404974" xlink:href="#id2">February</textPath></text><line stroke="#e1ed5e" stroke-width="0.3" x1="172.87174338648825" x2="177.1583165268699" y1="56.24261187166439" y2="53.66864786411523" /><path d="M 173.72905801456457 55.72781907015455 a86.0,86.0 0 0,1 12.242430191666344,42.057860355516425" fill="none" id="id3" stroke="none" /><text fill="#e1ed5e" style="font-size:6.75px; font-family:Arial;" text-anchor="middle"><textPath startOffset="22.145653131862474" xlink:href="#id3">March</textPath></text><line stroke="#e1ed5e" stroke-width="0.3" x1="184.99686870605535" x2="189.99668451229388" y1="99.2704041080226" y2="99.22748670261217" /><path d="M 185.99683186730306 99.26182062694052 a86.0,86.0 0 0,1 -10.086455211305974,41.156179273409016" fill="none" id="id4" stroke="none" /><text fill="#e1ed5e" style="font-size:6.75px; font-family:Arial;" text-anchor="middle"><textPath startOffset="21.40746469413373" xlink:href="#id4">April</textPath></text><path d="M 120.26092885502905 105.52220625578681 l 16.05497755639445 4.375855526309287 a37.64062546671432,37.64062546671432 0 0,0 -0.17526462463768108,0.6219523226802138 l -15.977494439682193 -4.65081577289251" fill="#ff6e0a" stroke="none" /><path d="M 120.16314734710363 105.8691983318838 l 18.52470457649374 5.39227152028005 a40.29355518806193,40.29355518806193 0 0,0 -0.19901884877345824,0.6624690201942713 l -18.42940940771665 -5.709478144065045" fill="#ff980e" stroke="none" /><path d="M 120.05942366710727 106.21446072829308 l 11.373994406050086 3.5236925413827933 a32.90731530929854,32.90731530929854 0 0,0 -0.17180013652106849,0.5381614807283203 l -11.311829553751762 -3.7184230558024973" fill="#ff2103" stroke="none" /><path d="M 119.94978838288452 106.5578916946017 l 12.304119506904952 4.044608472786811 a33.95184212914664,33.95184212914664 0 0,0 -0.1867587014471425,0.5521189159819634 l -12.232875383885444 -4.255229063242934" fill="#ff3204" stroke="none" /><path d="M 119.83427380445688 106.89939002012753 l 9.420512461135875 3.2769432498326667 a30.97418728985175,30.97418728985175 0 0,0 -0.17900105250111728,0.5006978018769063 l -9.362871238590813 -3.4381760080904944" fill="#ff0000" stroke="none" /><path d="M 119.58574465831526 107.57618678355244 l 18.274348982398738 7.068910764120197 a40.59391053673544,40.59391053673544 0 0,0 -0.25698134547905777,0.6477608632468393 l -18.150308961953556 -7.381572644580601" fill="#ff9c0e" stroke="none" /><path d="M 119.4528033332814 107.91128576633889 l 19.644798294037074 7.989368445437197 a42.20726545715759,42.20726545715759 0 0,0 -0.27871699484265217,0.6688193242630557 l -19.504755454657936 -8.32542027914153" fill="#ffb510" stroke="none" /><path d="M 119.31412917781788 108.2440532568976 l 29.887665332517553 12.757267100014545 a53.496467544791464,53.496467544791464 0 0,0 -0.3677655878689015,0.8415196363357196 l -29.664265862631684 -13.26844880612611" fill="#aaff21" stroke="none" /><path d="M 119.16976305983485 108.57439118712176 l 29.454887196105958 13.174796391778273 a53.26709840844293,53.26709840844293 0 0,0 -0.3805186796838551,0.8315019877972383 l -29.224384051567046 -13.6784873617902" fill="#adff20" stroke="none" /><path d="M 119.0197475246899 108.90220220490707 l 57.05924257406971 26.70660661472122 a84.0,84.0 0 0,0 -0.6224829681603521,1.300749991739586 l -56.592380347949444 -27.682169108525912" fill="#4dd2ff" stroke="none" /><path d="M 118.8641267826498 109.22738970284198 l 14.94310012895178 7.309419081366966 a37.63501874873997,37.63501874873997 0 0,0 -0.2888578851523804,0.5779092685308954 l -14.815422330587667 -7.564860206061607" fill="#ff6e0a" stroke="none" /><path d="M 118.5362547648365 109.86951160357373 l 29.361371894041127 15.633276747728083 a54.2639369493637,54.2639369493637 0 0,0 -0.4448470997149047,0.8184685593023729 l -29.088679444710884 -16.13500014050506" fill="#a0ff22" stroke="none" /><line stroke="#e1ed5e" stroke-width="0.3" x1="174.33088141563837" x2="178.70328620479359" y1="141.23008692659167" y2="143.65538615756765" /><path d="M 175.20536237346943 141.71514677278685 a86.0,86.0 0 0,1 -30.301960400862466,31.631185727798858" fill="none" id="id5" stroke="none" /><text fill="#e1ed5e" style="font-size:6.75px; font-family:Arial;" text-anchor="middle"><textPath startOffset="22.145653131862474" xlink:href="#id5">May</textPath></text><path d="M 118.36410011445183 110.18625677009912 l 22.064294315580458 12.23869211934155 a46.231303343992934,46.231303343992934 0 0,0 -0.3909112840699393,0.6907027825557891 l -21.85094966648914 -12.615651671996462" fill="#fff016" stroke="none" /><path d="M 118.18653347947321 110.5 l 36.48398598221583 21.06403912794283 a63.12807825588568,63.12807825588568 0 0,0 -0.5498945305708095,0.9338411313363938 l -36.117017741515255 -21.687231427572776" fill="#34ff2f" stroke="none" /><path d="M 118.00360718960297 110.81064883170644 l 26.817264421547872 16.102996762548372 a52.280539889679986,52.280539889679986 0 0,0 -0.4686129734668989,0.7654440745260067 l -26.53688348362557 -16.560977953198936" fill="#baff1f" stroke="none" /><path d="M 117.81537515405839 111.11811171558189 l 15.938752224677334 9.946960213216357 a39.787917392914146,39.787917392914146 0 0,0 -0.36658371917044913,0.5763304944732909 l -15.765650813880995 -10.21910438236832" fill="#ff900d" stroke="none" /><path d="M 117.62189284568427 111.42229804090321 l 23.722571726125405 15.376684384893979 a49.27017566223823,49.27017566223823 0 0,0 -0.4661323711509303,0.7057838208081114 l -23.45511491605375 -15.78164808404115" fill="#e3ff1b" stroke="none" /><path d="M 117.21940702142032 112.02048342749411 l 30.942343796583618 21.600159073536986 a58.73586505737054,58.73586505737054 0 0,0 -0.5842397802507796,0.8218064172749023 l -30.566988917802878 -22.128142717521392" fill="#68ff28" stroke="none" /><line stroke="#e1ed5e" stroke-width="0.3" x1="143.1302829299769" x2="145.66735839644613" y1="173.24464959558577" y2="177.55315839532614" /><path d="M 143.63769802327073 174.10635135553383 a86.0,86.0 0 0,1 -40.68552437913181,11.842963189579606" fill="none" id="id6" stroke="none" /><text fill="#e1ed5e" style="font-size:6.75px; font-family:Arial;" text-anchor="middle"><textPath startOffset="21.407464694133747" xlink:href="#id6">June</textPath></text><line stroke="#e1ed5e" stroke-width="0.3" x1="101.45913802915013" x2="101.54496967792366" y1="184.9874750549273" y2="189.98673829345242" /><path d="M 101.47630435890484 185.9873277026323 a86.0,86.0 0 0,1 -42.54439059252881,-10.42667462771756" fill="none" id="id7" stroke="none" /><text fill="#e1ed5e" style="font-size:6.75px; font-family:Arial;" text-anchor="middle"><textPath startOffset="22.145653131862474" xlink:href="#id7">July</textPath></text><line stroke="#e1ed5e" stroke-width="0.3" x1="58.13341422392154" x2="55.67067388415222" y1="173.97424548756322" y2="178.32567169271397" /><path d="M 57.64086615596768 174.84453072859336 a86.0,86.0 0 0,1 -31.369924170532247,-30.572349798747897" fill="none" id="id8" stroke="none" /><text fill="#e1ed5e" style="font-size:6.75px; font-family:Arial;" text-anchor="middle"><textPath startOffset="22.145653131862474" xlink:href="#id8">August</textPath></text><line stroke="#e1ed5e" stroke-width="0.3" x1="26.387840678322732" x2="22.057713659400548" y1="142.50000000000003" y2="145.00000000000006" /><path d="M 25.521815274538298 143.00000000000003 a86.0,86.0 0 0,1 -11.493303480769221,-40.785679425670985" fill="none" id="id9" stroke="none" /><text fill="#e1ed5e" style="font-size:6.75px; font-family:Arial;" text-anchor="middle"><textPath startOffset="21.40746469413373" xlink:href="#id9">September</textPath></text><line stroke="#e1ed5e" stroke-width="0.3" x1="15.003131293944662" x2="10.003315487706104" y1="100.72959589197737" y2="100.7725132973878" /><path d="M 14.003168132696942 100.73817937305945 a86.0,86.0 0 0,1 10.791469493833604,-42.45332614584628" fill="none" id="id10" stroke="none" /><text fill="#e1ed5e" style="font-size:6.75px; font-family:Arial;" text-anchor="middle"><textPath startOffset="22.145653131862435" xlink:href="#id10">October</textPath></text><line stroke="#e1ed5e" stroke-width="0.3" x1="26.387840678322718" x2="22.05771365940052" y1="57.49999999999999" y2="54.99999999999999" /><path d="M 25.521815274538284 56.99999999999999 a86.0,86.0 0 0,1 29.574782752854787,-30.34633250058573" fill="none" id="id11" stroke="none" /><text fill="#e1ed5e" style="font-size:6.75px; font-family:Arial;" text-anchor="middle"><textPath startOffset="21.40746469413373" xlink:href="#id11">November</textPath></text><line stroke="#e1ed5e" stroke-width="0.3" x1="56.869717070023135" x2="54.33264160355391" y1="26.7553504044142" y2="22.446841604673864" /><path d="M 56.362301976729285 25.89364864446614 a86.0,86.0 0 0,1 42.16139366436587,-11.88097634709845" fill="none" id="id12" stroke="none" /><text fill="#e1ed5e" style="font-size:6.75px; font-family:Arial;" text-anchor="middle"><textPath startOffset="22.145653131862474" xlink:href="#id12">December</textPath></text></svg>