<?xml version="1.0" encoding="utf-8" ?>
<svg baseProfile="full" height="200mm" version="1.1" viewBox="0,0,200,200" width="200mm" xmlns="http://www.w3.org/2000/svg" xmlns:ev="http://www.w3.org/2001/xml-events" xmlns:xlink="http://www.w3.org/1999/xlink"><defs /><rect fill="#1a1a1a" height="200" width="200" x="0" y="0" /><text alignment-baseline="middle" fill="#e1ed5e" style="dominant-baseline: central; font-size:9.0px; font-family:Arial;" text-anchor="middle" x="100.0" y="100.0">2025</text><line stroke="#e1ed5e" stroke-width="0.3" x1="100.0" x2="100.0" y1="15.0" y2="10.0" /><path d="M 100.0 14.0 a86.0,86.0 0 0,1 42.46469731375804,11.215312516191453" fill="none" id="id13" stroke="none" /><text fill="#e1ed5e" style="font-size:6.75px; font-family:Arial;" text-anchor="middle"><textPath startOffset="22.20632615414155" xlink:href="#id13">January</textPath></text><path d="M 100.72285384407766 79.0124445844662 l 0.6511067447677924 -18.904428605035868 a39.91563799812157,39.91563799812157 0 0,0 0.6864713616214454,0.029560900862287125 l -0.9764189387785693 18.890419977649387" fill="#ff860c" stroke="none" /><path d="M 103.2404852339499 79.25152402106235 l 4.150173309990652 -26.57311020232854 a47.89524352609688,47.89524352609688 0 0,0 0.8134683109821368,0.13422924137750236 l -4.606970827111664 26.497734698011413" fill="#ffff18" stroke="none" /><path d="M 104.307194497241 79.44645832069477 l 9.10301544657073 -43.43876449236229 a65.38232926338387,65.38232926338387 0 0,0 1.099535490054939,0.24031587058021894 l -9.849393660779198 43.2756351236862" fill="#32ff44" stroke="none" /><path d="M 105.71112130821622 79.79150937346287 l 2.9520167650260896 -10.445549990259753 a31.85467261505434,31.85467261505434 0 0,0 0.5263753813638816,0.153663407983458 l -3.1313823641133984 10.393188253357591" fill="#ff0000" stroke="none" /><path d="M 106.0581310904928 79.89281104454417 l 6.267641796057598 -20.802563697609155 a42.726251174023886,42.726251174023886 0 0,0 0.7023679464051854,0.21822913990006423 l -6.624795115173502 20.69159442282657" fill="#ffb210" stroke="none" /><path d="M 107.4271985657038 80.35727306442388 l 8.11717664257609 -21.4675133386379 a43.95087548638132,43.95087548638132 0 0,0 0.7053421405673311,0.27366179239249855 l -8.485501948143089 21.324608842354856" fill="#ffc512" stroke="none" /><path d="M 107.76421540070413 80.48803036053334 l 13.863703012554764 -34.84037192567052 a58.49738360391789,58.49738360391789 0 0,0 0.932381803767005,0.38034194846943653 l -14.461368685910156 34.5965690910175" fill="#70ff27" stroke="none" /><path d="M 108.76106565485865 80.91482961587045 l 6.217265027310805 -13.543736235296027 a35.90258956125051,35.90258956125051 0 0,0 0.5594337892956559,0.26266166526245577 l -6.449477027906059 13.434709587393568" fill="#ff4506" stroke="none" /><path d="M 109.73455568895987 81.39251694778311 l 12.009337059117486 -22.955699565140186 a46.90730242855226,46.90730242855226 0 0,0 0.7122202730161176,0.38044340409516114 l -12.402702378661916 22.74557743454327" fill="#fff116" stroke="none" /><path d="M 110.05341064243156 81.56283822128135 l 8.476368683846722 -15.544991274955816 a38.70580638668993,38.70580638668993 0 0,0 0.5822015166951011,0.3239945137046161 l -8.742694289613858 15.396781363691021" fill="#ff730a" stroke="none" /><path d="M 110.36928655335952 81.73862282372117 l 12.283180262599453 -21.631940302284278 a45.87603984972495,45.87603984972495 0 0,0 0.6833416745973702,0.3958356045799323 l -12.653718669662151 21.417300540314297" fill="#ffe215" stroke="none" /><line stroke="#e1ed5e" stroke-width="0.3" x1="143.23703022742887" x2="145.7803849466894" y1="26.81831364943548" y2="22.513508569990506" /><path d="M 143.74570117128098 25.957352633546492 a86.0,86.0 0 0,1 28.547481713284135,27.462654790039103" fill="none" id="id14" stroke="none" /><text fill="#e1ed5e" style="font-size:6.75px; font-family:Arial;" text-anchor="middle"><textPath startOffset="19.985693538727396" xlink:href="#id14">February</textPath></text><path d="M 110.68208982089419 81.91981866633111 l 16.55093287659076 -28.01360713751172 a53.537602307795524,53.537602307795524 0 0,0 0.789393931345126,0.475601011046455 l -17.030688874153523 27.72455951700665" fill="#b0ff20" stroke="none" /><path d="M 110.99172775467656 82.1063720568725 l 20.231754900119636 -32.93563149480863 a59.65332751911981,59.65332751911981 0 0,0 0.8703160499582344,0.5449918306408985 l -20.795690102450134 32.58249532284479" fill="#62ff29" stroke="none" /><path d="M 111.60114157652 82.49532879139004 l 10.565241976469823 -15.941628314563284 a40.124849054072186,40.124849054072186 0 0,0 0.5724388768688636,0.38651328497394183 l -10.838085547745228 15.757403117290671" fill="#ff890c" stroke="none" /><path d="M 111.90073688211348 82.69761687909136 l 13.716465505093916 -19.94225597833024 a45.20402857909566,45.20402857909566 0 0,0 0.637309772744806,0.44647622359222267 l -14.057706417422374 19.703194911974084" fill="#ffd814" stroke="none" /><path d="M 112.19680574252982 82.90503203632743 l 36.590417227589455 -51.28490389101772 a84.0,84.0 0 0,0 1.1698187345848452,0.8499230607333006 l -37.46778127852809 50.647461595467746" fill="#4dd2ff" stroke="none" /><path d="M 112.48926042617603 83.11751280151076 l 10.932920613911039 -14.778688730007175 a39.3831007647927,39.3831007647927 0 0,0 0.541524848702622,0.40786528905533276 l -11.185691616372043 14.588306851445996" fill="#ff7e0b" stroke="none" /><path d="M 112.77801427241765 83.33499621200491 l 16.603660535280376 -21.654386966237084 a48.287250100630615,48.287250100630615 0 0,0 0.6552521085502023,0.5114346641601569 l -16.97394519899001 21.365373912853702" fill="#f9ff18" stroke="none" /><path d="M 113.06298171725822 83.55741782278167 l 21.129850542386485 -26.596477852872066 a54.96826781161949,54.96826781161949 0 0,0 0.7357806318401483,0.5949501008349293 l -21.584534572791124 26.228821654773007" fill="#9dff22" stroke="none" /><path d="M 113.34407831869373 83.78471172551755 l 32.53928342465312 -39.540674775317854 a72.20810411914664,72.20810411914664 0 0,0 0.9529491346234668,0.7980674948971676 l -33.215090096235706 38.97470612302686" fill="#3cffa1" stroke="none" /><path d="M 113.6212207817346 84.01681056812373 l 7.096175364320414 -8.326677682358456 a31.94025895612505,31.94025895612505 0 0,0 0.41538489494028485,0.36021768762148954 l -7.238454057907464 8.203295001317295" fill="#ff0100" stroke="none" /><path d="M 113.89432698308785 84.25364557470407 l 15.245915211014685 -17.278100964721624 a44.042801556420244,44.042801556420244 0 0,0 0.5641442711508226,0.506494296783458 l -15.541070469761497 17.013107659168867" fill="#ffc612" stroke="none" /><path d="M 114.16331599549186 84.49514656593476 l 22.784970934046417 -24.94314431339903 a54.78335905004697,54.78335905004697 0 0,0 0.6907715036042222,0.6419968296020427 l -23.210950321445484 24.54724289772235" fill="#a0ff22" stroke="none" /><path d="M 114.68862486808459 84.99185889309783 l 9.600424512096746 -9.809259005366595 a34.72551321615457,34.72551321615457 0 0,0 0.42359206222834767,0.42177302329602506 l -9.767852374492417 9.642550131420451" fill="#ff3104" stroke="none" /><path d="M 115.19652480421416 85.50635884689758 l 16.424755936501626 -15.665063008677357 a43.697286327653295,43.697286327653295 0 0,0 0.5144474819718666,0.5487767049542194 l -16.691970740443956 15.380016886845084" fill="#ffc111" stroke="none" /><path d="M 115.4437574822437 85.77008943001954 l 22.505137404438237 -20.73628085642229 a51.60187172950489,51.60187172950489 0 0,0 0.5962629681561891,0.6584084619807187 l -22.858744013210462 20.345819607172025" fill="#cbff1d" stroke="none" /><path d="M 115.9244219780498 86.31012108654704 l 22.245688907079785 -19.124134483753597 a50.33603917885416,50.33603917885416 0 0,0 0.5591839856915866,0.6618974633504395 l -22.571583506258488 18.73837807077405" fill="#dcff1b" stroke="none" /><path d="M 116.15771136456269 86.58626213691792 l 14.614132873811498 -12.132296650347003 a39.993827988729365,39.993827988729365 0 0,0 0.43517380966958974,0.533471635124462 l -14.820805175557496 11.878940845614439" fill="#ff870c" stroke="none" /><path d="M 117.2510076193507 88.02491185347247 l 14.498901345446509 -10.064665523929758 a38.649805447470825,38.649805447470825 0 0,0 0.37467403789373205,0.5497879182610809 l -14.669999849008974 9.81359958239827" fill="#ff720a" stroke="none" /><path d="M 117.45458315368197 88.32363383020206 l 9.111664776907809 -6.095312240623923 a31.962448007513753,31.962448007513753 0 0,0 0.30197415366133895,0.4599273532820687 l -9.215235565927072 5.937566823364181" fill="#ff0200" stroke="none" /><path d="M 117.65298651832404 88.62581576622439 l 19.81431084382662 -12.766770187528499 a44.5711123037703,44.5711123037703 0 0,0 0.40999566198622706,0.6485146765910144 l -20.0311341020588 12.423807863223278" fill="#ffce13" stroke="none" /><line stroke="#e1ed5e" stroke-width="0.3" x1="172.23445277983987" x2="176.4835382374775" y1="55.19839476539836" y2="52.563006222186495" /><path d="M 173.08426987136738 54.67131705675599 a86.0,86.0 0 0,1 12.851231095245387,41.99856678651699" fill="none" id="id15" stroke="none" /><text fill="#e1ed5e" style="font-size:6.75px; font-family:Arial;" text-anchor="middle"><textPath startOffset="22.20632615414155" xlink:href="#id15">March</textPath></text><path d="M 118.3937258080291 89.86733742301442 l 16.8096022667667 -9.260006895836705 a40.191416208238294,40.191416208238294 0 0,0 0.32859717351877304,0.6088406572686023 l -16.966507539503937 8.969285255235645" fill="#ff8b0c" stroke="none" /><line stroke="#e1ed5e" stroke-width="0.3" x1="184.98032266829074" x2="189.97916517819016" y1="98.17113171792111" y2="98.06355123074" /><path d="M 185.9800911702706 98.14961562048488 a86.0,86.0 0 0,1 -9.607161424134198,41.387399972396054" fill="none" id="id16" stroke="none" /><text fill="#e1ed5e" style="font-size:6.75px; font-family:Arial;" text-anchor="middle"><textPath startOffset="21.466115282336823" xlink:href="#id16">April</textPath></text><line stroke="#e1ed5e" stroke-width="0.3" x1="174.80103733775053" x2="179.2010983576182" y1="140.37084112569926" y2="142.7455964860345" /><path d="M 175.68104954172406 140.8457921977663 a86.0,86.0 0 0,1 -30.038265399797805,32.042727171017184" fill="none" id="id17" stroke="none" /><text fill="#e1ed5e" style="font-size:6.75px; font-family:Arial;" text-anchor="middle"><textPath startOffset="22.206326154141568" xlink:href="#id17">May</textPath></text><line stroke="#e1ed5e" stroke-width="0.3" x1="143.8653032363475" x2="146.44561519142675" y1="172.8068346515853" y2="177.08958963109032" /><path d="M 144.38136562736335 173.6633856474863 a86.0,86.0 0 0,1 -40.68145358897372,12.25698825130547" fill="none" id="id18" stroke="none" /><text fill="#e1ed5e" style="font-size:6.75px; font-family:Arial;" text-anchor="middle"><textPath startOffset="21.466115282336833" xlink:href="#id18">June</textPath></text><line stroke="#e1ed5e" stroke-width="0.3" x1="102.19456741930631" x2="102.32365962044197" y1="184.97166512339345" y2="189.96999836594603" /><path d="M 102.22038585953345 185.97133177190398 a86.0,86.0 0 0,1 -42.740103519485714,-10.115201625700543" fill="none" id="id19" stroke="none" /><text fill="#e1ed5e" style="font-size:6.75px; font-family:Arial;" text-anchor="middle"><textPath startOffset="22.20632615414155" xlink:href="#id19">July</textPath></text><line stroke="#e1ed5e" stroke-width="0.3" x1="58.666819895761336" x2="56.23545636021788" y1="174.27360380694188" y2="178.64263932499728" /><path d="M 58.180547188652646 175.14741091055294 a86.0,86.0 0 0,1 -31.652253787137756,-30.449443065178592" fill="none" id="id20" stroke="none" /><text fill="#e1ed5e" style="font-size:6.75px; font-family:Arial;" text-anchor="middle"><textPath startOffset="22.20632615414155" xlink:href="#id20">August</textPath></text><line stroke="#e1ed5e" stroke-width="0.3" x1="26.63291911575756" x2="22.317208475507996" y1="142.92168965132927" y2="145.44649492493687" /><path d="M 25.769776987707644 143.4266507060508 a86.0,86.0 0 0,1 -11.730757126820373,-40.83630448921669" fill="none" id="id21" stroke="none" /><text fill="#e1ed5e" style="font-size:6.75px; font-family:Arial;" text-anchor="middle"><textPath startOffset="21.46611528233685" xlink:href="#id21">September</textPath></text><line stroke="#e1ed5e" stroke-width="0.3" x1="15.007084014347285" x2="10.007500721073583" y1="101.09737516637583" y2="101.16192664675087" /><path d="M 14.007167355692545 101.11028546245083 a86.0,86.0 0 0,1 10.666146001902534,-42.60595125391555" fill="none" id="id22" stroke="none" /><text fill="#e1ed5e" style="font-size:6.75px; font-family:Arial;" text-anchor="middle"><textPath startOffset="22.20632615414155" xlink:href="#id22">October</textPath></text><line stroke="#e1ed5e" stroke-width="0.3" x1="26.266209847984243" x2="21.928928074336255" y1="57.711370442889674" y2="55.22380399835377" /><path d="M 25.398753493254645 57.213857153982495 a86.0,86.0 0 0,1 29.58750427330803,-30.492523968695096" fill="none" id="id23" stroke="none" /><text fill="#e1ed5e" style="font-size:6.75px; font-family:Arial;" text-anchor="middle"><textPath startOffset="21.46611528233685" xlink:href="#id23">November</textPath></text><line stroke="#e1ed5e" stroke-width="0.3" x1="56.762969772571076" x2="54.21961505331055" y1="26.818313649435495" y2="22.513508569990535" /><path d="M 56.25429882871897 25.957352633546506 a86.0,86.0 0 0,1 42.265352541879196,-11.944610805530505" fill="none" id="id24" stroke="none" /><text fill="#e1ed5e" style="font-size:6.75px; font-family:Arial;" text-anchor="middle"><textPath startOffset="22.20632615414155" xlink:href="#id24">December</textPath></text></svg>