<?xml version="1.0" encoding="utf-8" ?>
<svg baseProfile="full" height="200mm" version="1.1" viewBox="0,0,200,200" width="200mm" xmlns="http://www.w3.org/2000/svg" xmlns:ev="http://www.w3.org/2001/xml-events" xmlns:xlink="http://www.w3.org/1999/xlink"><defs /><rect fill="#1a1a1a" height="200" width="200" x="0" y="0" /><text alignment-baseline="middle" fill="#e1ed5e" style="dominant-baseline: central; font-size:9.0px; font-family:Arial;" text-anchor="middle" x="100.0" y="100.0">2025</text><line stroke="#e1ed5e" stroke-width="0.3" x1="100.0" x2="100.0" y1="15.0" y2="10.0" /><path d="M 100.0 14.0 a86.0,86.0 0 0,1 42.46469731375804,11.215312516191453" fill="none" id="id13" stroke="none" /><text fill="#e1ed5e" style="font-size:6.75px; font-family:Arial;" text-anchor="middle"><textPath startOffset="22.20632615414155" xlink:href="#id13">January</textPath></text><path d="M 100.72285384407766 79.0124445844662 l 0.9242355144756416 -26.834531262419258 a47.85044281497001,47.85044281497001 0 0,0 0.8229345760407838,0.03543729393318063 l -1.386010922905757 26.814646241961885" fill="#ffcb13" stroke="none" /><path d="M 103.2404852339499 79.25152402106235 l 5.8911040242568005 -37.720101007133536 a59.177364060565665,59.177364060565665 0 0,0 1.0050874960995597,0.16584804877841128 l -6.539520726495235 37.613106695415496" fill="#86ff25" stroke="none" /><path d="M 104.307194497241 79.44645832069477 l 12.921583491723009 -61.66062503791566 a84.0,84.0 0 0,0 1.4126291033858882,0.3087460076165178 l -13.981055319262426 61.429065532203275" fill="#4dd2ff" stroke="none" /><path d="M 105.71112130821622 79.79150937346287 l 4.190340148507655 -14.827289606210062 a36.408032568326824,36.408032568326824 0 0,0 0.6016163549834983,0.17562831142637023 l -4.44494672121458 14.752962965864988" fill="#ff0000" stroke="none" /><path d="M 106.0581310904928 79.89281104454417 l 8.89681636149267 -29.528903387921336 a51.84006285115703,51.84006285115703 0 0,0 0.8521879988483388,0.26477895948079805 l -9.403789733051727 29.37138429355802" fill="#f2ff19" stroke="none" /><path d="M 107.4271985657038 80.35727306442388 l 11.5222012221921 -30.4727886701968 a53.57839729549567,53.57839729549567 0 0,0 0.8598486609961119,0.33360792191605015 l -12.045033048187879 30.2699380443902" fill="#d8ff1c" stroke="none" /><path d="M 107.76421540070413 80.48803036053334 l 19.67930264785652 -49.45534557890151 a74.22693076849825,74.22693076849825 0 0,0 1.1830929066267806,0.4826133023068363 l -20.52767942407169 49.109271390411095" fill="#3dffaf" stroke="none" /><path d="M 108.76106565485865 80.91482961587045 l 8.825307351404138 -19.225114972223842 a42.15398533473003,42.15398533473003 0 0,0 0.6568429753371846,0.3083965842235386 l -9.15492853804092 19.0703534053603" fill="#ff6a09" stroke="none" /><path d="M 109.73455568895987 81.39251694778311 l 17.047060108866322 -32.58524499742688 a57.77499761927436,57.77499761927436 0 0,0 0.8772306751295552,0.4685862462320444 l -17.60543583052419 32.28698002469308" fill="#9aff23" stroke="none" /><path d="M 110.05341064243156 81.56283822128135 l 12.032068526942123 -22.06586419812317 a46.133106370821835,46.133106370821835 0 0,0 0.6939208094676214,0.3861661791766118 l -12.41011342548178 21.85548262138638" fill="#ffaf10" stroke="none" /><path d="M 110.36928655335952 81.73862282372117 l 17.435776116018232 -30.706190091024617 a56.31113703456815,56.31113703456815 0 0,0 0.8387765553812181,0.48587352015728397 l -17.96174940386478 30.40151241347728" fill="#afff20" stroke="none" /><line stroke="#e1ed5e" stroke-width="0.3" x1="143.23703022742887" x2="145.7803849466894" y1="26.81831364943548" y2="22.513508569990506" /><path d="M 143.74570117128098 25.957352633546492 a86.0,86.0 0 0,1 28.547481713284135,27.462654790039103" fill="none" id="id14" stroke="none" /><text fill="#e1ed5e" style="font-size:6.75px; font-family:Arial;" text-anchor="middle"><textPath startOffset="19.985693538727396" xlink:href="#id14">February</textPath></text><path d="M 110.68208982089419 81.91981866633111 l 23.493782064418806 -39.76486315510425 a67.18660127606896,67.18660127606896 0 0,0 0.9906438284276872,0.5968518222382303 l -24.17478795906413 39.35456472340741" fill="#32ff47" stroke="none" /><path d="M 110.99172775467656 82.1063720568725 l 28.718649513492363 -46.75159728231764 a75.86777449766689,75.86777449766689 0 0,0 1.106877764677389,0.6931267546958197 l -29.519146430542015 46.25032618629887" fill="#40ffc5" stroke="none" /><path d="M 111.60114157652 82.49532879139004 l 14.99719044864862 -22.628884073600638 a48.14741453194934,48.14741453194934 0 0,0 0.6868923509635366,0.4637927815919644 l -15.384487494018698 22.367379379710005" fill="#ffd013" stroke="none" /><path d="M 111.90073688211348 82.69761687909136 l 19.470301382623553 -28.307710466907018 a55.357227883058755,55.357227883058755 0 0,0 0.7804548273878738,0.5467584821674896 l -19.95468734959508 27.968367141975595" fill="#bdff1f" stroke="none" /><line stroke="#e1ed5e" stroke-width="0.3" x1="172.23445277983987" x2="176.4835382374775" y1="55.19839476539836" y2="52.563006222186495" /><path d="M 173.08426987136738 54.67131705675599 a86.0,86.0 0 0,1 12.851231095245387,41.99856678651699" fill="none" id="id15" stroke="none" /><text fill="#e1ed5e" style="font-size:6.75px; font-family:Arial;" text-anchor="middle"><textPath startOffset="22.20632615414155" xlink:href="#id15">March</textPath></text><line stroke="#e1ed5e" stroke-width="0.3" x1="184.98032266829074" x2="189.97916517819016" y1="98.17113171792111" y2="98.06355123074" /><path d="M 185.9800911702706 98.14961562048488 a86.0,86.0 0 0,1 -9.607161424134198,41.387399972396054" fill="none" id="id16" stroke="none" /><text fill="#e1ed5e" style="font-size:6.75px; font-family:Arial;" text-anchor="middle"><textPath startOffset="21.466115282336823" xlink:href="#id16">April</textPath></text><line stroke="#e1ed5e" stroke-width="0.3" x1="174.80103733775053" x2="179.2010983576182" y1="140.37084112569926" y2="142.7455964860345" /><path d="M 175.68104954172406 140.8457921977663 a86.0,86.0 0 0,1 -30.038265399797805,32.042727171017184" fill="none" id="id17" stroke="none" /><text fill="#e1ed5e" style="font-size:6.75px; font-family:Arial;" text-anchor="middle"><textPath startOffset="22.206326154141568" xlink:href="#id17">May</textPath></text><line stroke="#e1ed5e" stroke-width="0.3" x1="143.8653032363475" x2="146.44561519142675" y1="172.8068346515853" y2="177.08958963109032" /><path d="M 144.38136562736335 173.6633856474863 a86.0,86.0 0 0,1 -40.68145358897372,12.25698825130547" fill="none" id="id18" stroke="none" /><text fill="#e1ed5e" style="font-size:6.75px; font-family:Arial;" text-anchor="middle"><textPath startOffset="21.466115282336833" xlink:href="#id18">June</textPath></text><line stroke="#e1ed5e" stroke-width="0.3" x1="102.19456741930631" x2="102.32365962044197" y1="184.97166512339345" y2="189.96999836594603" /><path d="M 102.22038585953345 185.97133177190398 a86.0,86.0 0 0,1 -42.740103519485714,-10.115201625700543" fill="none" id="id19" stroke="none" /><text fill="#e1ed5e" style="font-size:6.75px; font-family:Arial;" text-anchor="middle"><textPath startOffset="22.20632615414155" xlink:href="#id19">July</textPath></text><line stroke="#e1ed5e" stroke-width="0.3" x1="58.666819895761336" x2="56.23545636021788" y1="174.27360380694188" y2="178.64263932499728" /><path d="M 58.180547188652646 175.14741091055294 a86.0,86.0 0 0,1 -31.652253787137756,-30.449443065178592" fill="none" id="id20" stroke="none" /><text fill="#e1ed5e" style="font-size:6.75px; font-family:Arial;" text-anchor="middle"><textPath startOffset="22.20632615414155" xlink:href="#id20">August</textPath></text><line stroke="#e1ed5e" stroke-width="0.3" x1="26.63291911575756" x2="22.317208475507996" y1="142.92168965132927" y2="145.44649492493687" /><path d="M 25.769776987707644 143.4266507060508 a86.0,86.0 0 0,1 -11.730757126820373,-40.83630448921669" fill="none" id="id21" stroke="none" /><text fill="#e1ed5e" style="font-size:6.75px; font-family:Arial;" text-anchor="middle"><textPath startOffset="21.46611528233685" xlink:href="#id21">September</textPath></text><line stroke="#e1ed5e" stroke-width="0.3" x1="15.007084014347285" x2="10.007500721073583" y1="101.09737516637583" y2="101.16192664675087" /><path d="M 14.007167355692545 101.11028546245083 a86.0,86.0 0 0,1 10.666146001902534,-42.60595125391555" fill="none" id="id22" stroke="none" /><text fill="#e1ed5e" style="font-size:6.75px; font-family:Arial;" text-anchor="middle"><textPath startOffset="22.20632615414155" xlink:href="#id22">October</textPath></text><line stroke="#e1ed5e" stroke-width="0.3" x1="26.266209847984243" x2="21.928928074336255" y1="57.711370442889674" y2="55.22380399835377" /><path d="M 25.398753493254645 57.213857153982495 a86.0,86.0 0 0,1 29.58750427330803,-30.492523968695096" fill="none" id="id23" stroke="none" /><text fill="#e1ed5e" style="font-size:6.75px; font-family:Arial;" text-anchor="middle"><textPath startOffset="21.46611528233685" xlink:href="#id23">November</textPath></text><line stroke="#e1ed5e" stroke-width="0.3" x1="56.762969772571076" x2="54.21961505331055" y1="26.818313649435495" y2="22.513508569990535" /><path d="M 56.25429882871897 25.957352633546506 a86.0,86.0 0 0,1 42.265352541879196,-11.944610805530505" fill="none" id="id24" stroke="none" /><text fill="#e1ed5e" style="font-size:6.75px; font-family:Arial;" text-anchor="middle"><textPath startOffset="22.20632615414155" xlink:href="#id24">December</textPath></text></svg>