<?xml version="1.0" encoding="utf-8" ?>
<svg baseProfile="full" height="200mm" version="1.1" viewBox="0,0,200,200" width="200mm" xmlns="http://www.w3.org/2000/svg" xmlns:ev="http://www.w3.org/2001/xml-events" xmlns:xlink="http://www.w3.org/1999/xlink"><defs /><rect fill="#1a1a1a" height="200" width="200" x="0" y="0" /><text alignment-baseline="middle" fill="#e1ed5e" style="dominant-baseline: central; font-size:9.0px; font-family:Arial;" text-anchor="middle" x="100.0" y="100.0">2026</text><line stroke="#e1ed5e" stroke-width="0.3" x1="100.0" x2="100.0" y1="15.0" y2="10.0" /><path d="M 100.0 14.0 a86.0,86.0 0 0,1 42.46469731375804,11.215312516191453" fill="none" id="id25" stroke="none" /><text fill="#e1ed5e" style="font-size:6.75px; font-family:Arial;" text-anchor="middle"><textPath startOffset="22.20632615414155" xlink:href="#id25">January</textPath></text><path d="M 100.0 79.0 l 0.0 -2.5011070858727216 a23.50110708587272,23.50110708587272 0 0,0 0.40453292632553733,0.0034819426124867367 l -0.04305244705300896 2.5007365198687936" fill="#ff1d03" stroke="none" /><path d="M 100.36148047927253 79.00311137660856 l 0.02749397019802357 -1.5970096953078177 a22.59724634458947,22.59724634458947 0 0,0 0.3888591879464176,0.010043085578302727 l -0.05497979333930899 1.5962998175871552" fill="#ff1001" stroke="none" /><path d="M 100.72285384407766 79.0124445844662 l 0.08344319154690256 -2.4227146621516336 a23.424151212366926,23.424151212366926 0 0,0 0.4028498549449938,0.017347562171111674 l -0.12513387888122787 2.4209193734563272" fill="#ff1c02" stroke="none" /><path d="M 101.08401301168833 79.027996857942 l 0.10759391264884063 -2.08158006389924 a23.084358897229997,23.084358897229997 0 0,0 0.39665298896797846,0.023927191506875528 l -0.143408950456431 2.07941960301206" fill="#ff1702" stroke="none" /><path d="M 101.44485096284872 79.0497635885617 l 0.14472413482270788 -2.0984896829764343 a23.10347427480317,23.10347427480317 0 0,0 0.39651041849780155,0.030776839779674922 l -0.1808247426828506 2.095687581008295" fill="#ff1802" stroke="none" /><path d="M 101.80526077348638 79.07773832637324 l 0.43868743416180117 -5.084214660433592 a26.10310546415213,26.10310546415213 0 0,0 0.447326274355319,0.042479019795251205 l -0.5261388356073644 5.075910096123162" fill="#ff4206" stroke="none" /><path d="M 102.16513564639614 79.11191278185805 l 0.1327420533490594 -1.2806253467239377 a22.28748659464832,22.28748659464832 0 0,0 0.3812574895180154,0.04283872123474977 l -0.1547662463768001 1.2781506720185871" fill="#ff0c01" stroke="none" /><path d="M 102.52436894288641 79.15227682838746 l 0.3526513237789042 -2.9124020064352885 a23.933674897334623,23.933674897334623 0 0,0 0.4085652353988548,0.05304349345554103 l -0.40273128768560507 2.9059001898156107" fill="#ff2303" stroke="none" /><path d="M 107.08798089147638 80.2323363322302 l 0.37070486758146604 -1.033858478818386 a22.098310271768984,22.098310271768984 0 0,0 0.35695892451168854,0.13147098439794025 l -0.388446117865731 1.027324226614121" fill="#ff0901" stroke="none" /><line stroke="#e1ed5e" stroke-width="0.3" x1="143.23703022742887" x2="145.7803849466894" y1="26.81831364943548" y2="22.513508569990506" /><path d="M 143.74570117128098 25.957352633546492 a86.0,86.0 0 0,1 28.547481713284135,27.462654790039103" fill="none" id="id26" stroke="none" /><text fill="#e1ed5e" style="font-size:6.75px; font-family:Arial;" text-anchor="middle"><textPath startOffset="19.985693538727396" xlink:href="#id26">February</textPath></text><path d="M 110.68208982089419 81.91981866633111 l 0.38017801037900295 -0.6434777727931921 a21.747394784337317,21.747394784337317 0 0,0 0.3206580183891206,0.19319286821238896 l -0.3911980949857611 0.6368382951221886" fill="#ff0400" stroke="none" /><path d="M 112.48926042617603 83.11751280151076 l 0.5311553649768584 -0.7179947685962609 a21.893108341398342,21.893108341398342 0 0,0 0.3010342495125333,0.2267327556383473 l -0.5434357682477748 0.7087454234520663" fill="#ff0601" stroke="none" /><path d="M 112.77801427241765 83.33499621200491 l 0.5727896722386482 -0.7470285956861346 a21.94134995160995,21.94134995160995 0 0,0 0.29774144914585926,0.2323919237549533 l -0.5855636765439377 0.7370582827079573" fill="#ff0701" stroke="none" /><path d="M 113.6212207817346 84.01681056812373 l 0.7591057779698088 -0.8907374487603145 a22.170322513143784,22.170322513143784 0 0,0 0.2883263125876583,0.2500337370613533 l -0.7743258892042313 0.87753871827929" fill="#ff0a01" stroke="none" /><path d="M 114.42810811169701 84.74124197986012 l 0.732293190864401 -0.7744525139881108 a22.06584708744213,22.06584708744213 0 0,0 0.27373918619832344,0.2633368802395141 l -0.7455156206751428 0.7617325469862948" fill="#ff0901" stroke="none" /><path d="M 115.4437574822437 85.77008943001954 l 1.3242786734891938 -1.2201931502194148 a22.800718003714262,22.800718003714262 0 0,0 0.2634637724819864,0.2909232779689642 l -1.3450860865872158 1.1972170849809016" fill="#ff1302" stroke="none" /><path d="M 115.9244219780498 86.31012108654704 l 1.0159519640111916 -0.8733917870531849 a22.339765504433576,22.339765504433576 0 0,0 0.2481728661605224,0.293758395782559 l -1.0308354436588312 0.8557744416415193" fill="#ff0d01" stroke="none" /><path d="M 116.82858285166822 87.43820079747576 l 1.3267183549867716 -0.9903370783235628 a22.65558120373519,22.65558120373519 0 0,0 0.230587844689131,0.3145215610161427 l -1.3435688121895288 0.9673530736359264" fill="#ff1101" stroke="none" /><line stroke="#e1ed5e" stroke-width="0.3" x1="172.23445277983987" x2="176.4835382374775" y1="55.19839476539836" y2="52.563006222186495" /><path d="M 173.08426987136738 54.67131705675599 a86.0,86.0 0 0,1 12.851231095245387,41.99856678651699" fill="none" id="id27" stroke="none" /><text fill="#e1ed5e" style="font-size:6.75px; font-family:Arial;" text-anchor="middle"><textPath startOffset="22.20632615414155" xlink:href="#id27">March</textPath></text><path d="M 117.84615892207809 88.93136811851018 l 0.7796695597708898 -0.48357046376130225 a21.917455729643482,21.917455729643482 0 0,0 0.19609255587433777,0.32232460279147657 l -0.7878779139314515 0.47007808776274423" fill="#ff0701" stroke="none" /><path d="M 118.03404312379186 89.2402003453031 l 1.257986657547131 -0.7505629386918586 a22.46488059428213,22.46488059428213 0 0,0 0.19527364841264222,0.3337859640203563 l -1.2707199804301006 0.7287975623176071" fill="#ff0e01" stroke="none" /><path d="M 118.3937258080291 89.86733742301442 l 2.2899300963288987 -1.2614675913488056 a23.614398655541315,23.614398655541315 0 0,0 0.19306671385632462,0.3577232990236244 l -2.3113049094036877 1.2218633089927224" fill="#ff1f03" stroke="none" /><path d="M 119.196687751892 91.48605970444005 l 0.42313956654336654 -0.18766701072607014 a21.462888755198662,21.462888755198662 0 0,0 0.14687697655881474,0.33901231236866575 l -0.426307252944862 0.18035555377080162" fill="#ff0000" stroke="none" /><path d="M 119.34039704204932 91.81776055985345 l 2.0173332715448775 -0.8534625128153696 a23.190441003374225,23.190441003374225 0 0,0 0.15237037761955882,0.3689769553157022 l -2.0317253360506338 0.8186109870463644" fill="#ff1902" stroke="none" /><path d="M 119.47837535516314 92.15188598940014 l 1.9117018400842052 -0.7702518162674925 a23.06104143234548,23.06104143234548 0 0,0 0.14518182970482962,0.3694719208596277 l -1.9246772196707354 0.7372308905120805" fill="#ff1702" stroke="none" /><path d="M 119.61058180528143 92.48833698450437 l 1.8538516832535794 -0.7101017840051991 a22.985197876069158,22.985197876069158 0 0,0 0.13834397828177764,0.3706930814965302 l -1.8658002500369824 0.6780855654793356" fill="#ff1602" stroke="none" /><path d="M 120.28053869075195 94.5502522615342 l 1.5979458214054576 -0.4293969582951141 a22.654633674243414,22.654633674243414 0 0,0 0.09795827798837449,0.37747320478567387 l -1.6051004312641348 0.40182732796058984" fill="#ff1101" stroke="none" /><path d="M 120.6074358757038 95.95851677861258 l 5.913554128245795 -1.1597527189808867 a27.026205173811828,27.026205173811828 0 0,0 0.0856013558380814,0.457285865773812 l -5.932641207993735 1.057788775744512" fill="#ff4f07" stroke="none" /><path d="M 120.87857604477298 97.74499172005257 l 0.6563226881485751 -0.07088668752689756 a21.66013967722529,21.66013967722529 0 0,0 0.03684583082832814,0.3710324881075085 l -0.6574456446591319 0.05957866871495411" fill="#ff0300" stroke="none" /><path d="M 120.94382443527127 98.46500227214037 l 3.6029365735006382 -0.2640634938016382 a24.612600376657685,24.612600376657685 0 0,0 0.027331014029912257,0.4227986900495995 l -3.606948178534966 0.20200573949900338" fill="#ff2d04" stroke="none" /><line stroke="#e1ed5e" stroke-width="0.3" x1="184.98032266829074" x2="189.97916517819016" y1="98.17113171792111" y2="98.06355123074" /><path d="M 185.9800911702706 98.14961562048488 a86.0,86.0 0 0,1 -9.607161424134198,41.387399972396054" fill="none" id="id28" stroke="none" /><text fill="#e1ed5e" style="font-size:6.75px; font-family:Arial;" text-anchor="middle"><textPath startOffset="21.466115282336823" xlink:href="#id28">April</textPath></text><path d="M 120.13307415673323 105.97154293290107 l 0.4995088845312794 0.14815614973267718 a21.521017629672254,21.521017629672254 0 0,0 -0.10839749969727867,0.3542493008480647 l -0.496884612327868 -0.15673242313279906" fill="#ff0100" stroke="none" /><path d="M 119.54520255179757 107.68017299344265 l 0.7907854700928694 0.31073452397941703 a21.849645575580027,21.849645575580027 0 0,0 -0.1405633331744473,0.34886666542392647 l -0.7853195226610297 -0.32430055724615703" fill="#ff0600" stroke="none" /><path d="M 119.26925614724726 108.34839909993367 l 57.80776844174181 25.045197299801014 a84.0,84.0 0 0,0 -0.5862356610749084,1.3218066540292492 l -57.368091695935625 -26.036552290322952" fill="#4dd2ff" stroke="none" /><path d="M 118.81262510543309 109.33194174019688 l 0.8783219080409925 0.4356887371667214 a21.980445842379222,21.980445842379222 0 0,0 -0.17105112848821355,0.3375001041320097 l -0.8706921097665099 -0.4507430530014254" fill="#ff0701" stroke="none" /><line stroke="#e1ed5e" stroke-width="0.3" x1="174.80103733775053" x2="179.2010983576182" y1="140.37084112569926" y2="142.7455964860345" /><path d="M 175.68104954172406 140.8457921977663 a86.0,86.0 0 0,1 -30.038265399797805,32.042727171017184" fill="none" id="id29" stroke="none" /><text fill="#e1ed5e" style="font-size:6.75px; font-family:Arial;" text-anchor="middle"><textPath startOffset="22.206326154141568" xlink:href="#id29">May</textPath></text><line stroke="#e1ed5e" stroke-width="0.3" x1="143.8653032363475" x2="146.44561519142675" y1="172.8068346515853" y2="177.08958963109032" /><path d="M 144.38136562736335 173.6633856474863 a86.0,86.0 0 0,1 -40.68145358897372,12.25698825130547" fill="none" id="id30" stroke="none" /><text fill="#e1ed5e" style="font-size:6.75px; font-family:Arial;" text-anchor="middle"><textPath startOffset="21.466115282336833" xlink:href="#id30">June</textPath></text><line stroke="#e1ed5e" stroke-width="0.3" x1="102.19456741930631" x2="102.32365962044197" y1="184.97166512339345" y2="189.96999836594603" /><path d="M 102.22038585953345 185.97133177190398 a86.0,86.0 0 0,1 -42.740103519485714,-10.115201625700543" fill="none" id="id31" stroke="none" /><text fill="#e1ed5e" style="font-size:6.75px; font-family:Arial;" text-anchor="middle"><textPath startOffset="22.20632615414155" xlink:href="#id31">July</textPath></text><line stroke="#e1ed5e" stroke-width="0.3" x1="58.666819895761336" x2="56.23545636021788" y1="174.27360380694188" y2="178.64263932499728" /><path d="M 58.180547188652646 175.14741091055294 a86.0,86.0 0 0,1 -31.652253787137756,-30.449443065178592" fill="none" id="id32" stroke="none" /><text fill="#e1ed5e" style="font-size:6.75px; font-family:Arial;" text-anchor="middle"><textPath startOffset="22.20632615414155" xlink:href="#id32">August</textPath></text><line stroke="#e1ed5e" stroke-width="0.3" x1="26.63291911575756" x2="22.317208475507996" y1="142.92168965132927" y2="145.44649492493687" /><path d="M 25.769776987707644 143.4266507060508 a86.0,86.0 0 0,1 -11.730757126820373,-40.83630448921669" fill="none" id="id33" stroke="none" /><text fill="#e1ed5e" style="font-size:6.75px; font-family:Arial;" text-anchor="middle"><textPath startOffset="21.46611528233685" xlink:href="#id33">September</textPath></text><line stroke="#e1ed5e" stroke-width="0.3" x1="15.007084014347285" x2="10.007500721073583" y1="101.09737516637583" y2="101.16192664675087" /><path d="M 14.007167355692545 101.11028546245083 a86.0,86.0 0 0,1 10.666146001902534,-42.60595125391555" fill="none" id="id34" stroke="none" /><text fill="#e1ed5e" style="font-size:6.75px; font-family:Arial;" text-anchor="middle"><textPath startOffset="22.20632615414155" xlink:href="#id34">October</textPath></text><line stroke="#e1ed5e" stroke-width="0.3" x1="26.266209847984243" x2="21.928928074336255" y1="57.711370442889674" y2="55.22380399835377" /><path d="M 25.398753493254645 57.213857153982495 a86.0,86.0 0 0,1 29.58750427330803,-30.492523968695096" fill="none" id="id35" stroke="none" /><text fill="#e1ed5e" style="font-size:6.75px; font-family:Arial;" text-anchor="middle"><textPath startOffset="21.46611528233685" xlink:href="#id35">November</textPath></text><line stroke="#e1ed5e" stroke-width="0.3" x1="56.762969772571076" x2="54.21961505331055" y1="26.818313649435495" y2="22.513508569990535" /><path d="M 56.25429882871897 25.957352633546506 a86.0,86.0 0 0,1 42.265352541879196,-11.944610805530505" fill="none" id="id36" stroke="none" /><text fill="#e1ed5e" style="font-size:6.75px; font-family:Arial;" text-anchor="middle"><textPath startOffset="22.20632615414155" xlink:href="#id36">December</textPath></text></svg>