<?xml version="1.0" encoding="utf-8" ?>
<svg baseProfile="full" height="200mm" version="1.1" viewBox="0,0,200,200" width="200mm" xmlns="http://www.w3.org/2000/svg" xmlns:ev="http://www.w3.org/2001/xml-events" xmlns:xlink="http://www.w3.org/1999/xlink"><defs /><rect fill="#1a1a1a" height="200" width="200" x="0" y="0" /><text alignment-baseline="middle" fill="#e1ed5e" style="dominant-baseline: central; font-size:9.0px; font-family:Arial;" text-anchor="middle" x="100.0" y="100.0">2025</text><line stroke="#e1ed5e" stroke-width="0.3" x1="100.0" x2="100.0" y1="15.0" y2="10.0" /><path d="M 100.0 14.0 a86.0,86.0 0 0,1 42.46469731375804,11.215312516191453" fill="none" id="id13" stroke="none" /><text fill="#e1ed5e" style="font-size:6.75px; font-family:Arial;" text-anchor="middle"><textPath startOffset="22.20632615414155" xlink:href="#id13">January</textPath></text><path d="M 100.72285384407766 79.0124445844662 l 0.3880296312773354 -11.266168750466363 a32.27284903246442,32.27284903246442 0 0,0 0.5550302520471246,0.02390077019029824 l -0.5819007157137915 11.25782025375187" fill="#ff4b07" stroke="none" /><path d="M 103.2404852339499 79.25152402106235 l 2.473312144519457 -15.83634977914238 a37.0283264033264,37.0283264033264 0 0,0 0.6289010749344418,0.10377406599652979 l -2.745542425592774 15.791429450206225" fill="#ff920d" stroke="none" /><path d="M 104.307194497241 79.44645832069477 l 5.4249779404519165 -25.887502939515127 a47.44982408443947,47.44982408443947 0 0,0 0.7979643149073792,0.17440409224019976 l -5.869784979512823 25.790285349179058" fill="#ddff1b" stroke="none" /><path d="M 105.71112130821622 79.79150937346287 l 1.7592660282855783 -6.225066694179269 a27.468884935231088,27.468884935231088 0 0,0 0.4539034181311796,0.1325068546037505 l -1.866159664140185 6.193861510656815" fill="#ff0000" stroke="none" /><path d="M 106.0581310904928 79.89281104454417 l 3.7352258360800636 -12.397369841538543 a33.9478450343835,33.9478450343835 0 0,0 0.5580615557532854,0.17339244187700323 l -3.9480727645440674 12.33123726477902" fill="#ff6509" stroke="none" /><path d="M 107.4271985657038 80.35727306442388 l 4.837463418928482 -12.79364920141278 a34.67766472093395,34.67766472093395 0 0,0 0.5565217528310411,0.21592179401426184 l -5.05696833675919 12.708484703507972" fill="#ff700a" stroke="none" /><path d="M 107.76421540070413 80.48803036053334 l 8.262128462543632 -20.763256993604863 a43.34671357748282,43.34671357748282 0 0,0 0.6908973445102644,0.2818343742249388 l -8.618309676642285 20.617961733196346" fill="#ffeb16" stroke="none" /><path d="M 108.76106565485865 80.91482961587045 l 3.70520360215476 -8.071443000292762 a29.881256996641614,29.881256996641614 0 0,0 0.4656094458598796,0.21860987797226517 l -3.8435912593142376 8.006468139680493" fill="#ff2603" stroke="none" /><path d="M 109.73455568895987 81.39251694778311 l 7.1570117624822185 -13.680539649687335 a36.4395590116744,36.4395590116744 0 0,0 0.5532825663426809,0.29554438555156504 l -7.391439375353211 13.555316537634015" fill="#ff8a0c" stroke="none" /><path d="M 110.05341064243156 81.56283822128135 l 5.051525331897456 -9.264098830341089 a31.551845114345113,31.551845114345113 0 0,0 0.4745937055691344,0.26411088331752075 l -5.210243126538626 9.175772549463387" fill="#ff4006" stroke="none" /><path d="M 110.36928655335952 81.73862282372117 l 7.320209699116722 -12.891640098586658 a35.824974012474016,35.824974012474016 0 0,0 0.5336270919260272,0.30911125488903846 l -7.541033523508077 12.763724686307569" fill="#ff810b" stroke="none" /><line stroke="#e1ed5e" stroke-width="0.3" x1="143.23703022742887" x2="145.7803849466894" y1="26.81831364943548" y2="22.513508569990506" /><path d="M 143.74570117128098 25.957352633546492 a86.0,86.0 0 0,1 28.547481713284135,27.462654790039103" fill="none" id="id14" stroke="none" /><text fill="#e1ed5e" style="font-size:6.75px; font-family:Arial;" text-anchor="middle"><textPath startOffset="19.985693538727396" xlink:href="#id14">February</textPath></text><path d="M 110.68208982089419 81.91981866633111 l 9.863593693365658 -16.69481960625898 a40.39091236206621,40.39091236206621 0 0,0 0.5955504117797459,0.3588124594382576 l -10.149506171363042 16.52256053736211" fill="#ffc212" stroke="none" /><path d="M 110.99172775467656 82.1063720568725 l 12.05719408848486 -19.628119425140635 a44.03560291060291,44.03560291060291 0 0,0 0.6424602545499501,0.4023085524597617 l -12.393273495407074 19.417666531357927" fill="#fff417" stroke="none" /><path d="M 111.60114157652 82.49532879139004 l 6.296397605199872 -9.500476237681127 a32.39752918599073,32.39752918599073 0 0,0 0.4621975074738034,0.31207782025152797 l -6.458999807080217 9.39068650513093" fill="#ff4d07" stroke="none" /><path d="M 111.90073688211348 82.69761687909136 l 8.174381689546216 -11.884666064808517 a35.42448624660163,35.42448624660163 0 0,0 0.4994327273269512,0.3498845421355085 l -8.377745556456818 11.742196679909073" fill="#ff7b0b" stroke="none" /><path d="M 112.19680574252982 82.90503203632743 l 21.806203390150667 -30.563440644471058 a58.54509835279066,58.54509835279066 0 0,0 0.8153232484667485,0.5923670140825709 l -22.3290719549712 30.183554395571814" fill="#57ff2a" stroke="none" /><path d="M 112.48926042617603 83.11751280151076 l 6.5155171386117825 -8.807417807831717 a31.955481368942905,31.955481368942905 0 0,0 0.43939372160879037,0.33094224152857415 l -6.666157013978956 8.693958976797296" fill="#ff4606" stroke="none" /><path d="M 112.77801427241765 83.33499621200491 l 9.895016949419851 -12.905017276456503 a37.26194426675196,37.26194426675196 0 0,0 0.5056400498803819,0.39466007926121055 l -10.115689554459664 12.732778807972068" fill="#ff960d" stroke="none" /><path d="M 113.06298171725822 83.55741782278167 l 12.59241772688361 -15.850275822601587 a41.24352310890772,41.24352310890772 0 0,0 0.5520673417686112,0.44640006333336635 l -12.863388467216712 15.63116966200409" fill="#ffce13" stroke="none" /><path d="M 113.34407831869373 83.78471172551755 l 19.391914230284645 -23.564421005952664 a51.517671517671516,51.517671517671516 0 0,0 0.6798921130732671,0.5693900920484265 l -19.794663880317028 23.22712975651042" fill="#aaff21" stroke="none" /><path d="M 113.6212207817346 84.01681056812373 l 4.228993682254922 -4.962316389462465 a27.51989045258276,27.51989045258276 0 0,0 0.3578977496743838,0.3103654017346364 l -4.31378523057607 4.888785994308157" fill="#ff0100" stroke="none" /><path d="M 113.89432698308785 84.25364557470407 l 9.085863271045293 -10.29695238206223 a34.73244842475612,34.73244842475612 0 0,0 0.4448879523880172,0.3994247963070408 l -9.2617622110293 10.139028576985892" fill="#ff700a" stroke="none" /><path d="M 114.16331599549186 84.49514656593476 l 13.57879324895634 -14.864965182133618 a41.13332600351832,41.13332600351832 0 0,0 0.5186562113822891,0.48203442328393303 l -13.832657344133475 14.629026172775044" fill="#ffcc13" stroke="none" /><path d="M 114.68862486808459 84.99185889309783 l 5.721410833892296 -5.845866573404545 a29.179773708619862,29.179773708619862 0 0,0 0.35594349444605744,0.35441495996243605 l -5.821190128505676 5.74651576279199" fill="#ff1b02" stroke="none" /><path d="M 115.19652480421416 85.50635884689758 l 9.788398048516445 -9.335656053388163 a34.52653726211419,34.52653726211419 0 0,0 0.4064803938285282,0.4336049431104259 l -9.947645764315435 9.165781693399683" fill="#ff6d0a" stroke="none" /><path d="M 115.4437574822437 85.77008943001954 l 13.412025353852403 -12.357868321039126 a39.23730609307532,39.23730609307532 0 0,0 0.45338961183713805,0.5006441334614796 l -13.622758606305577 12.125171400308098" fill="#ffb210" stroke="none" /><path d="M 115.9244219780498 86.31012108654704 l 13.257405999077694 -11.39710333499245 a38.48292819446666,38.48292819446666 0 0,0 0.42750755760506887,0.506034105379414 l -13.45162417016988 11.167210279983928" fill="#ffa70f" stroke="none" /><path d="M 116.15771136456269 86.58626213691792 l 8.709350096634983 -7.230290015595411 a32.31944666560051,32.31944666560051 0 0,0 0.3516686808736093,0.43110422097816103 l -8.832517269585 7.079301625009149" fill="#ff4c07" stroke="none" /><path d="M 117.2510076193507 88.02491185347247 l 8.64067741305076 -5.9980770949822855 a31.51847113385575,31.51847113385575 0 0,0 0.30554236201806134,0.4483457143142868 l -8.742644240737555 5.8484533573975925" fill="#ff4006" stroke="none" /><path d="M 117.45458315368197 88.32363383020206 l 5.43013254296289 -3.632525358177683 a27.53311410522949,27.53311410522949 0 0,0 0.2601267846453194,0.3961909392877076 l -5.4918559629661345 3.5385163549123013" fill="#ff0100" stroke="none" /><path d="M 117.65298651832404 88.62581576622439 l 11.808416657527568 -7.608407021241795 a35.0472972972973,35.0472972972973 0 0,0 0.32238907923816856,0.5099421014499397 l -11.937633333011693 7.404017272077648" fill="#ff750a" stroke="none" /><line stroke="#e1ed5e" stroke-width="0.3" x1="172.23445277983987" x2="176.4835382374775" y1="55.19839476539836" y2="52.563006222186495" /><path d="M 173.08426987136738 54.67131705675599 a86.0,86.0 0 0,1 12.851231095245387,41.99856678651699" fill="none" id="id15" stroke="none" /><text fill="#e1ed5e" style="font-size:6.75px; font-family:Arial;" text-anchor="middle"><textPath startOffset="22.20632615414155" xlink:href="#id15">March</textPath></text><path d="M 118.3937258080291 89.86733742301442 l 10.01774873614363 -5.5185376135191895 a32.437200143930916,32.437200143930916 0 0,0 0.2652002166067898,0.4913757244397872 l -10.111257051968884 5.345280905746943" fill="#ff4e07" stroke="none" /><path d="M 118.73160827565052 90.50648371742162 l 14.531749839306038 -7.364952420724095 a37.29154006077083,37.29154006077083 0 0,0 0.28526250058617564,0.5750717942279963 l -14.656372352845622 7.113721037997149" fill="#ff960d" stroke="none" /><path d="M 118.89224826269711 90.83032412892265 l 42.644650509334916 -20.698310617592362 a68.40238685430994,68.40238685430994 0 0,0 0.5050109334965298,1.0636818197887958 l -42.99461963667321 19.961186382163024" fill="#38ff7f" stroke="none" /><path d="M 119.04729006885535 91.15688171328212 l 29.68409583645709 -13.78148648795344 a53.72728090516553,53.72728090516553 0 0,0 0.3822252991948162,0.8421827808924089 l -29.91692345261525 13.268481698218968" fill="#8fff24" stroke="none" /><path d="M 119.196687751892 91.48605970444005 l 56.17978364012742 -24.916346502660506 a82.45724052454821,82.45724052454821 0 0,0 0.5642795954340077,1.302435105572423 l -56.60035394540411 23.94561225250148" fill="#4be1ff" stroke="none" /><path d="M 119.34039704204932 91.81776055985345 l 58.02119112614798 -24.54671832043964 a84.0,84.0 0 0,0 0.5519132524552104,1.3365017181867875 l -58.435126065489385 23.54434203179955" fill="#4dd2ff" stroke="none" /><path d="M 119.47837535516314 92.15188598940014 l 8.00936434247617 -3.227086621242475 a29.635045178314407,29.635045178314407 0 0,0 0.186568767720018,0.47479716381915565 l -8.063726660077888 3.088740452527535" fill="#ff2203" stroke="none" /><path d="M 119.61058180528143 92.48833698450437 l 10.040112958081375 -3.8457780563301354 a31.751459299536222,31.751459299536222 0 0,0 0.19110660780184657,0.5120706966813205 l -10.104824154384845 3.6723842226194816" fill="#ff4306" stroke="none" /><path d="M 119.7369772167798 92.82701384747503 l 9.93141935895116 -3.6093639240820856 a31.56695786022709,31.56695786022709 0 0,0 0.1812047389646163,0.5122901983455442 l -9.992077178725587 3.4378760993099267" fill="#ff4006" stroke="none" /><line stroke="#e1ed5e" stroke-width="0.3" x1="184.98032266829074" x2="189.97916517819016" y1="98.17113171792111" y2="98.06355123074" /><path d="M 185.9800911702706 98.14961562048488 a86.0,86.0 0 0,1 -9.607161424134198,41.387399972396054" fill="none" id="id16" stroke="none" /><text fill="#e1ed5e" style="font-size:6.75px; font-family:Arial;" text-anchor="middle"><textPath startOffset="21.466115282336823" xlink:href="#id16">April</textPath></text><line stroke="#e1ed5e" stroke-width="0.3" x1="174.80103733775053" x2="179.2010983576182" y1="140.37084112569926" y2="142.7455964860345" /><path d="M 175.68104954172406 140.8457921977663 a86.0,86.0 0 0,1 -30.038265399797805,32.042727171017184" fill="none" id="id17" stroke="none" /><text fill="#e1ed5e" style="font-size:6.75px; font-family:Arial;" text-anchor="middle"><textPath startOffset="22.206326154141568" xlink:href="#id17">May</textPath></text><line stroke="#e1ed5e" stroke-width="0.3" x1="143.8653032363475" x2="146.44561519142675" y1="172.8068346515853" y2="177.08958963109032" /><path d="M 144.38136562736335 173.6633856474863 a86.0,86.0 0 0,1 -40.68145358897372,12.25698825130547" fill="none" id="id18" stroke="none" /><text fill="#e1ed5e" style="font-size:6.75px; font-family:Arial;" text-anchor="middle"><textPath startOffset="21.466115282336833" xlink:href="#id18">June</textPath></text><line stroke="#e1ed5e" stroke-width="0.3" x1="102.19456741930631" x2="102.32365962044197" y1="184.97166512339345" y2="189.96999836594603" /><path d="M 102.22038585953345 185.97133177190398 a86.0,86.0 0 0,1 -42.740103519485714,-10.115201625700543" fill="none" id="id19" stroke="none" /><text fill="#e1ed5e" style="font-size:6.75px; font-family:Arial;" text-anchor="middle"><textPath startOffset="22.20632615414155" xlink:href="#id19">July</textPath></text><line stroke="#e1ed5e" stroke-width="0.3" x1="58.666819895761336" x2="56.23545636021788" y1="174.27360380694188" y2="178.64263932499728" /><path d="M 58.180547188652646 175.14741091055294 a86.0,86.0 0 0,1 -31.652253787137756,-30.449443065178592" fill="none" id="id20" stroke="none" /><text fill="#e1ed5e" style="font-size:6.75px; font-family:Arial;" text-anchor="middle"><textPath startOffset="22.20632615414155" xlink:href="#id20">August</textPath></text><line stroke="#e1ed5e" stroke-width="0.3" x1="26.63291911575756" x2="22.317208475507996" y1="142.92168965132927" y2="145.44649492493687" /><path d="M 25.769776987707644 143.4266507060508 a86.0,86.0 0 0,1 -11.730757126820373,-40.83630448921669" fill="none" id="id21" stroke="none" /><text fill="#e1ed5e" style="font-size:6.75px; font-family:Arial;" text-anchor="middle"><textPath startOffset="21.46611528233685" xlink:href="#id21">September</textPath></text><line stroke="#e1ed5e" stroke-width="0.3" x1="15.007084014347285" x2="10.007500721073583" y1="101.09737516637583" y2="101.16192664675087" /><path d="M 14.007167355692545 101.11028546245083 a86.0,86.0 0 0,1 10.666146001902534,-42.60595125391555" fill="none" id="id22" stroke="none" /><text fill="#e1ed5e" style="font-size:6.75px; font-family:Arial;" text-anchor="middle"><textPath startOffset="22.20632615414155" xlink:href="#id22">October</textPath></text><line stroke="#e1ed5e" stroke-width="0.3" x1="26.266209847984243" x2="21.928928074336255" y1="57.711370442889674" y2="55.22380399835377" /><path d="M 25.398753493254645 57.213857153982495 a86.0,86.0 0 0,1 29.58750427330803,-30.492523968695096" fill="none" id="id23" stroke="none" /><text fill="#e1ed5e" style="font-size:6.75px; font-family:Arial;" text-anchor="middle"><textPath startOffset="21.46611528233685" xlink:href="#id23">November</textPath></text><line stroke="#e1ed5e" stroke-width="0.3" x1="56.762969772571076" x2="54.21961505331055" y1="26.818313649435495" y2="22.513508569990535" /><path d="M 56.25429882871897 25.957352633546506 a86.0,86.0 0 0,1 42.265352541879196,-11.944610805530505" fill="none" id="id24" stroke="none" /><text fill="#e1ed5e" style="font-size:6.75px; font-family:Arial;" text-anchor="middle"><textPath startOffset="22.20632615414155" xlink:href="#id24">December</textPath></text></svg>