<?xml version="1.0" encoding="utf-8" ?>
<svg baseProfile="full" height="200mm" version="1.1" viewBox="0,0,200,200" width="200mm" xmlns="http://www.w3.org/2000/svg" xmlns:ev="http://www.w3.org/2001/xml-events" xmlns:xlink="http://www.w3.org/1999/xlink"><defs /><rect fill="#1a1a1a" height="200" width="200" x="0" y="0" /><text alignment-baseline="middle" fill="#e1ed5e" style="dominant-baseline: central; font-size:9.0px; font-family:Arial;" text-anchor="middle" x="100.0" y="100.0">2024</text><line stroke="#e1ed5e" stroke-width="0.3" x1="100.0" x2="100.0" y1="15.0" y2="10.0" /><path d="M 100.0 14.0 a86.0,86.0 0 0,1 42.35913384403234,11.155469271406648" fill="none" id="id1" stroke="none" /><text fill="#e1ed5e" style="font-size:6.75px; font-family:Arial;" text-anchor="middle"><textPath startOffset="22.145653131862478" xlink:href="#id1">January</textPath></text><line stroke="#e1ed5e" stroke-width="0.3" x1="143.13028292997686" x2="145.6673583964461" y1="26.7553504044142" y2="22.446841604673864" /><path d="M 143.63769802327073 25.89364864446614 a86.0,86.0 0 0,1 29.32050498858742,28.57503671076993" fill="none" id="id2" stroke="none" /><text fill="#e1ed5e" style="font-size:6.75px; font-family:Arial;" text-anchor="middle"><textPath startOffset="20.669276256404974" xlink:href="#id2">February</textPath></text><line stroke="#e1ed5e" stroke-width="0.3" x1="172.87174338648825" x2="177.1583165268699" y1="56.24261187166439" y2="53.66864786411523" /><path d="M 173.72905801456457 55.72781907015455 a86.0,86.0 0 0,1 12.242430191666344,42.057860355516425" fill="none" id="id3" stroke="none" /><text fill="#e1ed5e" style="font-size:6.75px; font-family:Arial;" text-anchor="middle"><textPath startOffset="22.145653131862474" xlink:href="#id3">March</textPath></text><line stroke="#e1ed5e" stroke-width="0.3" x1="184.99686870605535" x2="189.99668451229388" y1="99.2704041080226" y2="99.22748670261217" /><path d="M 185.99683186730306 99.26182062694052 a86.0,86.0 0 0,1 -10.086455211305974,41.156179273409016" fill="none" id="id4" stroke="none" /><text fill="#e1ed5e" style="font-size:6.75px; font-family:Arial;" text-anchor="middle"><textPath startOffset="21.40746469413373" xlink:href="#id4">April</textPath></text><path d="M 120.26092885502905 105.52220625578681 l 8.166355503016295 2.2257765065169766 a29.46424499046474,29.46424499046474 0 0,0 -0.13719325262150728,0.4868504542796067 l -8.126943758320207 -2.365634884699592" fill="#ff4c07" stroke="none" /><path d="M 120.16314734710363 105.8691983318838 l 9.422580793315936 2.7427759427703764 a30.813656233983657,30.813656233983657 0 0,0 -0.1521955151777087,0.5066093711179448 l -9.374108958134597 -2.904122917479045" fill="#ff6008" stroke="none" /><path d="M 120.05942366710727 106.21446072829308 l 5.785375998369385 1.7923242729665416 a27.056649382453436,27.056649382453436 0 0,0 -0.14125540215049737,0.4424805353566388 l -5.753755880441632 -1.891373842014564" fill="#ff2904" stroke="none" /><path d="M 119.94978838288452 106.5578916946017 l 6.258483619303706 2.0572878749452785 a27.587947374826978,27.587947374826978 0 0,0 -0.1517528624136628,0.4486303730094473 l -6.2222453353176785 -2.1644199224288863" fill="#ff3104" stroke="none" /><path d="M 119.83427380445688 106.89939002012753 l 4.791738481601925 1.6668153815440703 a26.0733648786793,26.0733648786793 0 0,0 -0.15067900609803536,0.42147599742081043 l -4.762419305459947 -1.748826335345802" fill="#ff1a02" stroke="none" /><path d="M 119.58574465831526 107.57618678355244 l 9.29523755808766 3.5955975719139026 a30.966431816875918,30.966431816875918 0 0,0 -0.19603421320507844,0.49413427630288775 l -9.232144669916458 -3.7546328654303545" fill="#ff6209" stroke="none" /><path d="M 119.4528033332814 107.91128576633889 l 9.992315846636572 4.063787865217856 a31.787063909722434,31.787063909722434 0 0,0 -0.20990686868311995,0.5037000709270504 l -9.921083133416966 -4.234720445586184" fill="#ff6e0a" stroke="none" /><path d="M 119.31412917781788 108.2440532568976 l 15.202344531668523 6.488976893284978 a37.52931034196945,37.52931034196945 0 0,0 -0.2579981354595558,0.5903502238621987 l -15.088712514192002 -6.748989186923021" fill="#ffbc11" stroke="none" /><path d="M 119.16976305983485 108.57439118712176 l 14.982212170632467 6.701352937878523 a37.41264185693031,37.41264185693031 0 0,0 -0.2672608328263585,0.5840131526265551 l -14.864966872951051 -6.957555072719767" fill="#ffbb11" stroke="none" /><path d="M 119.0197475246899 108.90220220490707 l 57.05924257406971 26.70660661472122 a84.0,84.0 0 0,0 -0.6224829681603521,1.300749991739586 l -56.592380347949444 -27.682169108525912" fill="#4dd2ff" stroke="none" /><path d="M 118.8641267826498 109.22738970284198 l 7.600799661135986 3.7179319951898195 a29.461393136451058,29.461393136451058 0 0,0 -0.22612332869697405,0.4523981314067396 l -7.5358564192272794 -3.847861982760305" fill="#ff4c07" stroke="none" /><path d="M 118.5362547648365 109.86951160357373 l 14.934645663675303 7.9518576186447625 a37.91968323245841,37.91968323245841 0 0,0 -0.310859514741951,0.5719464942883491 l -14.795940799318014 -8.207058946407715" fill="#ffc212" stroke="none" /><line stroke="#e1ed5e" stroke-width="0.3" x1="174.33088141563837" x2="178.70328620479359" y1="141.23008692659167" y2="143.65538615756765" /><path d="M 175.20536237346943 141.71514677278685 a86.0,86.0 0 0,1 -30.301960400862466,31.631185727798858" fill="none" id="id5" stroke="none" /><text fill="#e1ed5e" style="font-size:6.75px; font-family:Arial;" text-anchor="middle"><textPath startOffset="22.145653131862474" xlink:href="#id5">May</textPath></text><path d="M 118.36410011445183 110.18625677009912 l 11.222991167150319 6.2252040146079315 a33.83388856743835,33.83388856743835 0 0,0 -0.2860842733886518,0.5054834990121178 l -11.11447352874029 -6.416944283719173" fill="#ff8a0c" stroke="none" /><path d="M 118.18653347947321 110.5 l 18.55755940183 10.714211916149017 a42.428423832298044,42.428423832298044 0 0,0 -0.3695844836516249,0.6276352521261671 l -18.370901208048615 -11.031198336568734" fill="#fffc17" stroke="none" /><path d="M 118.00360718960297 110.81064883170644 l 13.64058679717845 8.190780445813509 a36.91082940901825,36.91082940901825 0 0,0 -0.3308476453951818,0.540414764587203 l -13.497971187327863 -8.423732326525268" fill="#ffb410" stroke="none" /><path d="M 117.81537515405839 111.11811171558189 l 8.107237551968147 5.0595158411249646 a30.55646384760791,30.55646384760791 0 0,0 -0.2815302457612009,0.4426123072675171 l -8.019189614581057 -5.197941823071154" fill="#ff5c08" stroke="none" /><path d="M 117.62189284568427 111.42229804090321 l 12.06647305988818 7.82134205442788 a35.37960930058148,35.37960930058148 0 0,0 -0.3347173204075477,0.5068046844817813 l -11.930431300559906 -8.027326617248724" fill="#ff9f0e" stroke="none" /><path d="M 117.21940702142032 112.02048342749411 l 15.738806152289616 10.986909031582597 a40.1943270048111,40.1943270048111 0 0,0 -0.39980895409783374,0.5623813633856511 l -15.547882099661821 -11.255467621677752" fill="#ffdf14" stroke="none" /><path d="M 117.01052211995028 112.31430620078461 l 15.914821932453595 11.521103763026 a40.64732523933265,40.64732523933265 0 0,0 -0.41401813228631174,0.5616951109309646 l -15.714701780583455 -11.792605183225842" fill="#ffe515" stroke="none" /><path d="M 116.79662413953412 112.60449989151573 l 20.372130961631353 15.28762686851127 a46.47028180426527,46.47028180426527 0 0,0 -0.48428234688817623,0.6339411377488091 l -20.106696637388872 -15.635088919500957" fill="#d0ff1d" stroke="none" /><path d="M 116.57777611688842 112.89097897827486 l 12.583971710030022 9.785372515191774 a36.94082366943147,36.94082366943147 0 0,0 -0.3935667778382184,0.4972587669863189 l -12.414138501550243 -9.999951226092776" fill="#ffb510" stroke="none" /><path d="M 116.1254893667686 113.45245675266167 l 12.176840147103007 10.1583531350406 a36.857729168588065,36.857729168588065 0 0,0 -0.4094813615149522,0.48236801423837544 l -12.00066422208094 -10.36588793172853" fill="#ffb310" stroke="none" /><path d="M 115.6541949942343 113.99807769240083 l 14.918040977542539 13.339804231324123 a41.01245421075814,41.01245421075814 0 0,0 -0.473795985030812,0.5207847843890828 l -14.686847291669848 -13.593926591270877" fill="#ffea16" stroke="none" /><path d="M 115.41159269507618 114.26474011684316 l 14.662408005368334 13.571305952727558 a40.97915297950411,40.97915297950411 0 0,0 -0.4822742189197048,0.512158507795798 l -14.42727795271237 -13.821005920467853" fill="#ffea15" stroke="none" /><path d="M 115.16444852881244 114.52719865689866 l 14.782721009821818 14.161512328731463 a41.471376892897084,41.471376892897084 0 0,0 -0.4968926571763017,0.5098556401167816 l -14.53744155149471 -14.413190660915983" fill="#fff016" stroke="none" /><path d="M 114.91283532996324 114.78537596483092 l 7.593604340251221 7.528702129044622 a31.693183932962306,31.693183932962306 0 0,0 -0.3863671982688347,0.38306493436598255 l -7.4632452218524215 -7.657947073639266" fill="#ff6c0a" stroke="none" /><path d="M 113.86319453409587 115.77377054828091 l 10.366131477255461 11.7947547366076 a36.70264057731928,36.70264057731928 0 0,0 -0.4768206426848177,0.4118663145754205 l -10.162131354807787 -11.97096518364774" fill="#ffb110" stroke="none" /><path d="M 113.59037401385872 116.0094264158162 l 6.296248135567525 7.416964472007798 a30.729033999512154,30.729033999512154 0 0,0 -0.4050754903560342,0.33792838106405837 l -6.167998311049596 -7.523955036983727" fill="#ff5e08" stroke="none" /><path d="M 111.8722381534696 117.32195027204791 l 7.674110814136683 11.196757021405649 a34.57421616831139,34.57421616831139 0 0,0 -0.49244173295612087,0.33133677490915325 l -7.480772793083559 -11.326843470371925" fill="#ff940d" stroke="none" /><path d="M 111.5731344415666 117.5232005979908 l 10.420996155823083 15.778716387628851 a39.90939056979116,39.90939056979116 0 0,0 -0.5749125740584968,0.3726513846080553 l -10.148597949507575 -15.9552816139408" fill="#ffdc14" stroke="none" /><path d="M 111.27062007382361 117.71928675628689 l 8.52933639683129 13.409533500938574 a36.89229901817559,36.89229901817559 0 0,0 -0.5372851624368609,0.33530567879940176 l -8.297887105604714 -13.553974976579523" fill="#ffb410" stroke="none" /><path d="M 110.96478420261333 117.91015095944535 l 7.234756026996433 11.817430257075229 a34.85616659292888,34.85616659292888 0 0,0 -0.5129952059929189,0.3080388816492888 l -7.030828064446077 -11.93988313926044" fill="#ff980e" stroke="none" /><line stroke="#e1ed5e" stroke-width="0.3" x1="143.1302829299769" x2="145.66735839644613" y1="173.24464959558577" y2="177.55315839532614" /><path d="M 143.63769802327073 174.10635135553383 a86.0,86.0 0 0,1 -40.68552437913181,11.842963189579606" fill="none" id="id6" stroke="none" /><text fill="#e1ed5e" style="font-size:6.75px; font-family:Arial;" text-anchor="middle"><textPath startOffset="21.407464694133747" xlink:href="#id6">June</textPath></text><path d="M 110.65571695917076 118.09573695890943 l 10.241522992546143 17.39234505213062 a41.183717685778895,41.183717685778895 0 0,0 -0.6122793744290994,0.3534996616458976 l -9.941451150256645 -17.56559161105269" fill="#ffec16" stroke="none" /><path d="M 110.34350942703117 118.27599006163325 l 4.025631617569354 7.1129053396735955 a29.17307361349029,29.17307361349029 0 0,0 -0.4379514764763286,0.24292430145930144 l -3.902935952936931 -7.180962556566041" fill="#ff4806" stroke="none" /><path d="M 109.71004243097381 118.62028667847754 l 6.618466948868561 12.691783052033669 a35.313820656734336,35.313820656734336 0 0,0 -0.5399193576269514,0.275686671082054 l -6.399620369528028 -12.803527674788558" fill="#ff9f0e" stroke="none" /><path d="M 108.4095320186766 119.2426549942271 l 4.607897125272596 10.543770382655028 a32.50668543931087,32.50668543931087 0 0,0 -0.51324174829255,0.2190723831052393 l -4.426220301809615 -10.621317415419671" fill="#ff780b" stroke="none" /><path d="M 108.07796709384702 119.3841803445677 l 1.858400095296874 4.4594837019125135 a25.83121576850204,25.83121576850204 0 0,0 -0.4107723460913521,0.1670575371148825 l -1.781573288015081 -4.490728495606687" fill="#ff1702" stroke="none" /><path d="M 107.74402155503746 119.51999308798841 l 2.839429940683394 7.15721830344247 a28.699878975099622,28.699878975099622 0 0,0 -0.45950930354796526,0.17774806999648354 l -2.716148374641899 -7.204906261576994" fill="#ff4106" stroke="none" /><path d="M 107.407793817531 119.65005319985036 l 4.490069151819671 11.910441877507663 a33.72868204904227,33.72868204904227 0 0,0 -0.5435310431335529,0.19959212772805932 l -4.2849489570319905 -11.985764854244445" fill="#ff890c" stroke="none" /><path d="M 107.06938296918513 119.77432235084164 l 5.052383379296055 14.132415518825823 a36.00838919431849,36.00838919431849 0 0,0 -0.5838404132677073,0.20309000270739583 l -4.809037193983325 -14.21706395410181" fill="#ffa80f" stroke="none" /><path d="M 106.72888874123015 119.89276391827305 l 5.094498194741942 15.060978679748914 a36.89927641900977,36.89927641900977 0 0,0 -0.6017696747981898,0.1978136447706819 l -4.835205782296018 -15.146213245921615" fill="#ffb410" stroke="none" /><path d="M 106.0420521117495 120.11202640906438 l 4.359319282100299 14.510756098354506 a36.15142591141916,36.15142591141916 0 0,0 -0.5958787674936137,0.17345162478718149 l -4.109580502225078 -14.583451417444206" fill="#ffaa0f" stroke="none" /><path d="M 105.69591212413111 120.21278271476187 l 8.012017432780842 28.43182337550327 a50.539143586079106,50.539143586079106 0 0,0 -0.8370692438128725,0.22814694468278818 l -7.522766788033274 -28.5651708143302" fill="#a0ff22" stroke="none" /><path d="M 105.3480935250658 120.30758222061773 l 2.5628356866616833 9.731504540989688 a31.06331493038599,31.06331493038599 0 0,0 -0.5168265624547309,0.1313752911414394 l -2.3954038309815546 -9.774065063966397" fill="#ff6309" stroke="none" /><path d="M 104.9986988182912 120.39639698878246 l 7.450815666521417 30.40187051648798 a52.30157160587599,52.30157160587599 0 0,0 -0.8738542754939619,0.20622722963474405 l -6.927829237287576 -30.52529388976895" fill="#8cff24" stroke="none" /><path d="M 104.64783097203109 120.47920084513623 l 2.190273627753019 9.650749736485743 a30.89617446494907,30.89617446494907 0 0,0 -0.5182282775832011,0.11294544109144629 l -2.024282933550682 -9.686926635710908" fill="#ff6108" stroke="none" /><path d="M 104.29559338865022 120.5559693870025 l 6.870352569588962 32.877124141110045 a54.58730468823628,54.58730468823628 0 0,0 -0.9188954310801858,0.18380482138349513 l -6.304960652977817 -32.9902183591564" fill="#73ff27" stroke="none" /><path d="M 103.94208987418118 120.62667999033965 l 2.784191846579928 14.56806822879595 a35.83173409138042,35.83173409138042 0 0,0 -0.6051557866117669,0.11027954312055846 l -2.5337013264171038 -14.613715945847872" fill="#ffa60f" stroke="none" /><path d="M 103.58742460773223 120.69131181640829 l 3.5672282483187976 20.574824582285256 a41.88177492378014,41.88177492378014 0 0,0 -0.709442359640776,0.1167384703044061 l -3.2135083856249493 -20.63302905108533" fill="#fff517" stroke="none" /><path d="M 103.2317021107853 120.74984581791261 l 1.795808501400106 11.530378805085487 a32.66938574058059,32.66938574058059 0 0,0 -0.5548737956611127,0.08154733983362047 l -1.5976096001313076 -11.559507218217991" fill="#ff7a0b" stroke="none" /><path d="M 102.875027216393 120.80226474461374 l 1.207824815101717 8.739218684817354 a29.822289045652283,29.822289045652283 0 0,0 -0.5077204636097369,0.0657345789320809 l -1.0576265296012048 -8.75866485994983" fill="#ff5107" stroke="none" /><path d="M 102.51750503828377 120.84855314841334 l 0.8990795033784987 7.44566804268015 a28.49975443299204,28.49975443299204 0 0,0 -0.4862113726921199,0.05448099845002626 l -0.7711322290855795 -7.4600048016371465" fill="#ff3e05" stroke="none" /><path d="M 102.15924093988457 120.88869738790638 l 1.2738176991813297 12.323030725316116 a33.38869233566774,33.38869233566774 0 0,0 -0.5706293455845022,0.0540391923079464 l -1.0620887902118121 -12.343081673129245" fill="#ff840c" stroke="none" /><path d="M 101.80034050326958 120.92268563240118 l 1.2767252376526002 14.837482541689033 a35.89231061680443,35.89231061680443 0 0,0 -0.6143242516589282,0.047552582336506784 l -1.0218319912184362 -14.857212891020593" fill="#ffa60f" stroke="none" /><path d="M 101.44090949804482 120.95050786540614 l 1.5482856825796336 22.511734022709195 a43.56491429773408,43.56491429773408 0 0,0 -0.7465276409002252,0.044909249084892904 l -1.1616136895469433 -22.53499524961878" fill="#f4ff19" stroke="none" /><path d="M 101.08105385017728 120.97215588758144 l 1.2905131678031576 25.035610692016885 a46.06884973345414,46.06884973345414 0 0,0 -0.7901339482257866,0.03393175147394663 l -0.8605534589765413 -25.054075011916662" fill="#d5ff1c" stroke="none" /><path d="M 100.72087961077811 120.9876233191556 l 0.2672470143782139 7.780605231551413 a28.785193558026627,28.785193558026627 0 0,0 -0.49399050048616144,0.012723442987584004 l -0.13364319982130862 -7.784046391889042" fill="#ff4206" stroke="none" /><line stroke="#e1ed5e" stroke-width="0.3" x1="101.45913802915013" x2="101.54496967792366" y1="184.9874750549273" y2="189.98673829345242" /><path d="M 101.47630435890484 185.9873277026323 a86.0,86.0 0 0,1 -42.54439059252881,-10.42667462771756" fill="none" id="id7" stroke="none" /><text fill="#e1ed5e" style="font-size:6.75px; font-family:Arial;" text-anchor="middle"><textPath startOffset="22.145653131862474" xlink:href="#id7">July</textPath></text><path d="M 100.0 121.0 l 1.4268736961532198e-15 11.651307929328397 a32.6513079293284,32.6513079293284 0 0,0 -0.5605031188373387,-0.0048112451572596224 l 0.2000101939884851 -11.649591082365571" fill="#ff7a0b" stroke="none" /><path d="M 99.63950707515114 120.99690560180557 l -0.16804079368088287 9.787533787658585 a30.788976215769416,30.788976215769416 0 0,0 -0.5283779572169442,-0.013609141892258985 l 0.336032064968571 -9.783206928416279" fill="#ff5f08" stroke="none" /><path d="M 99.27912038922189 120.98762331915562 l -0.7519323051715315 21.891688634958648 a42.90459845515407,42.90459845515407 0 0,0 -0.735863386443407,-0.03160114003916171 l 1.1276214522157773 -21.87555492649366" fill="#fcff18" stroke="none" /><path d="M 98.91894614982273 120.97215588758144 l -0.5403165716796822 10.48199714385343 a31.49591378210507,31.49591378210507 0 0,0 -0.5397134504400015,-0.03246782095174321 l 0.72017437425213 -10.471177345076995" fill="#ff6909" stroke="none" /><path d="M 98.55909050195518 120.95050786540614 l -0.6522785608821342 9.483987119760014 a30.506391481985176,30.506391481985176 0 0,0 -0.5221401407690527,-0.04041694914056677 l 0.814987696426423 -9.471392403624394" fill="#ff5b08" stroke="none" /><path d="M 98.19965949673042 120.92268563240118 l -1.904103168771015 22.128565090605736 a43.21033547352445,43.21033547352445 0 0,0 -0.7384861079870423,-0.0699354022274849 l 2.2836888401430726 -22.09261793287307" fill="#f8ff18" stroke="none" /><path d="M 97.84075906011543 120.88869738790638 l -0.4418023190955067 4.274036666493848 a25.296810295520622,25.296810295520622 0 0,0 -0.4315685206143007,-0.048358152900624056 l 0.5151067413106066 -4.265822753086254" fill="#ff0f01" stroke="none" /><path d="M 97.48249496171623 120.84855314841334 l -1.656531267505301 13.718455235401162 a34.818108042924266,34.818108042924266 0 0,0 -0.5927736107213307,-0.07674641164900392 l 1.8917827001174259 -13.687997227551762" fill="#ff980e" stroke="none" /><path d="M 97.12497278360702 120.80226474461374 l -1.3905812103550856 10.061552920874314 a31.157192687064033,31.157192687064033 0 0,0 -0.5291899243437893,-0.07777269522265745 l 1.5630962403065598 -10.036199152352774" fill="#ff6509" stroke="none" /><path d="M 96.76829788921471 120.74984581791261 l -2.007728937152646 12.891060024079927 a34.04647094158078,34.04647094158078 0 0,0 -0.5767188407414491,-0.09489886577674632 l 2.2287252809471587 -12.854695159807513" fill="#ff8d0d" stroke="none" /><path d="M 96.41257539226777 120.69131181640829 l -2.0668913054952633 11.921279795106397 a33.09913020104933,33.09913020104933 0 0,0 -0.5590053253325433,-0.10186939172272821 l 2.2712313643788637 -11.884042229452303" fill="#ff800b" stroke="none" /><path d="M 96.05791012581884 120.62667999033965 l -1.6278279369012782 8.51748362047982 a29.671640618550697,29.671640618550697 0 0,0 -0.49947758279619275,-0.09990950524478409 l 1.7738020052284291 -8.488284718572176" fill="#ff4f07" stroke="none" /><path d="M 95.70440661134978 120.55596938700252 l -1.324480350330759 6.338117943616764 a27.47502797411788,27.47502797411788 0 0,0 -0.46084464080594784,-0.10043894453849127 l 1.4330874077558433 -6.3144475409445535" fill="#ff2f04" stroke="none" /><path d="M 95.35216902796893 120.47920084513623 l -1.413292607158903 6.22722799712861 a27.385590381607045,27.385590381607045 0 0,0 -0.4575582436074336,-0.10798249962484972 l 1.5199830045062244 -6.202049353857533" fill="#ff2e04" stroke="none" /><path d="M 95.00130118170881 120.39639698878247 l -0.9428363833951644 3.847094187957025 a24.96094359172993,24.96094359172993 0 0,0 -0.4152962650976353,-0.10556668658440815 l 1.0087379417181783 -3.8303422695373537" fill="#ff0a01" stroke="none" /><path d="M 94.6519064749342 120.30758222061772 l -1.7662808318915144 6.706856013311142 a27.93553642917368,27.93553642917368 0 0,0 -0.462690435472999,-0.12610833568113897 l 1.8811526682992086 -6.675547183485858" fill="#ff3605" stroke="none" /><path d="M 94.30408787586889 120.21278271476187 l -1.2243664682596778 4.344844661722801 a25.51406118513028,25.51406118513028 0 0,0 -0.4205446106055201,-0.12241440706444282 l 1.2987710912468047 -4.323186560355842" fill="#ff1202" stroke="none" /><path d="M 93.95794788825049 120.11202640906438 l -2.2437632517858264 7.46875812074684 a28.79851405052824,28.79851405052824 0 0,0 -0.47223990822272716,-0.14630113071469114 l 2.3716437928801875 -7.4291404022255" fill="#ff4306" stroke="none" /><path d="M 93.61358852112213 120.00534299687104 l -2.862195679113407 8.965787198993116 a30.41156226155702,30.41156226155702 0 0,0 -0.49596517081872593,-0.16303360276814965 l 3.015683587579877 -8.915332674822945" fill="#ff5a08" stroke="none" /><path d="M 93.27111125876986 119.89276391827306 l -4.355897072095578 12.877435701463721 a34.59419690706381,34.59419690706381 0 0,0 -0.5609106841711041,-0.1951138526525456 l 4.576313528311704 -12.800763416242585" fill="#ff950d" stroke="none" /><path d="M 92.93061703081489 119.77432235084164 l -2.2238302144321325 6.220448899911738 a27.60601281705042,27.60601281705042 0 0,0 -0.4448654388983477,-0.1633607511918696 l 2.330284804984599 -6.1813572997111494" fill="#ff3104" stroke="none" /><path d="M 92.59220618246901 119.65005319985036 l -3.450061107883963 9.151696980579597 a30.78041304201838,30.78041304201838 0 0,0 -0.492820411268216,-0.19063352206677264 l 3.606653781645707 -9.091123570374783" fill="#ff5f08" stroke="none" /><path d="M 92.25597844496254 119.51999308798841 l -4.276688139095872 10.780047849986852 a32.597391650155195,32.597391650155195 0 0,0 -0.5183692151617763,-0.21081624706508953 l 4.461111815448088 -10.70504434634247" fill="#ff790b" stroke="none" /><path d="M 91.92203290615298 119.3841803445677 l -3.276386329632562 7.862134464554748 a29.517503491032024,29.517503491032024 0 0,0 -0.4660461345790747,-0.19892738203562266 l 3.410867539382068 -7.804732432859721" fill="#ff4d07" stroke="none" /><path d="M 91.59046798132341 119.24265499422711 l -4.778211891816806 10.933483898907074 a32.931989735612405,32.931989735612405 0 0,0 -0.516070306632659,-0.23083168400749066 l 4.9651956013051 -10.849848463989728" fill="#ff7e0b" stroke="none" /><path d="M 91.26138138417905 119.09545874513695 l -6.697510668625572 14.63526951917896 a37.09496079695015,37.09496079695015 0 0,0 -0.5767582551761359,-0.2699519856539764 l 6.947757637673198 -14.518141301954458" fill="#ffb710" stroke="none" /><path d="M 90.93487009805054 118.94263497670748 l -2.9306317488774423 6.1238932117450355 a27.789011011655923,27.789011011655923 0 0,0 -0.4285326856794411,-0.20961681061254483 l 3.0353246838189527 -6.07268265103527" fill="#ff3404" stroke="none" /><path d="M 90.6110303473126 118.78422872680471 l -7.248564071388445 14.501983763350086 a37.21262514738107,37.21262514738107 0 0,0 -0.5689505211143168,-0.2905101900139322 l 7.496441814216344 -14.375415621663318" fill="#ffb811" stroke="none" /><path d="M 90.28995756902619 118.62028667847754 l -14.683458713469632 28.15746816968064 a52.75605412384772,52.75605412384772 0 0,0 -0.7994079265322771,-0.4256396940479112 l 15.16465545578847 -27.901258007910158" fill="#87ff25" stroke="none" /><path d="M 89.97174638481275 118.45085714620012 l -5.3530955085974306 9.84909280410659 a32.209828749274905,32.209828749274905 0 0,0 -0.48353979579550316,-0.2682113737039649 l 5.521379492549037 -9.755748514969476" fill="#ff730a" stroke="none" /><line stroke="#e1ed5e" stroke-width="0.3" x1="58.13341422392154" x2="55.67067388415222" y1="173.97424548756322" y2="178.32567169271397" /><path d="M 57.64086615596768 174.84453072859336 a86.0,86.0 0 0,1 -31.369924170532247,-30.572349798747897" fill="none" id="id8" stroke="none" /><text fill="#e1ed5e" style="font-size:6.75px; font-family:Arial;" text-anchor="middle"><textPath startOffset="22.145653131862474" xlink:href="#id8">August</textPath></text><path d="M 89.65649057296885 118.27599006163327 l -7.881458750532651 13.925782425399774 a37.00140019485548,37.00140019485548 0 0,0 -0.550100754311693,-0.31760081858327455 l 8.119351972704745 -13.788434709540327" fill="#ffb510" stroke="none" /><path d="M 89.34428304082925 118.09573695890944 l -6.468220201750574 10.984451990576462 a33.7473941694612,33.7473941694612 0 0,0 -0.49667686139644407,-0.298240184583227 l 6.655829819704445 -10.871797805457316" fill="#ff890c" stroke="none" /><path d="M 89.03521579738668 117.91015095944536 l -6.800892565009874 11.108746898025192 a34.025221584494865,34.025221584494865 0 0,0 -0.49553015649605064,-0.3092474669054469 l 6.990586850295637 -10.990363634278197" fill="#ff8d0d" stroke="none" /><path d="M 88.72937992617639 117.7192867562869 l -5.752608371097212 9.044055842218366 a31.71855629963205,31.71855629963205 0 0,0 -0.4569199526049349,-0.2961699929282656 l 5.907013955959157 -8.943972007586206" fill="#ff6d0a" stroke="none" /><path d="M 88.4268655584334 117.5232005979908 l -8.824515345261743 13.361440961031255 a37.01250060527349,37.01250060527349 0 0,0 -0.5271703008499583,-0.35470370527487094 l 9.052581934208707 -13.207987581699262" fill="#ffb510" stroke="none" /><path d="M 88.1277618465304 117.32195027204791 l -5.03514906267725 7.346432959698914 a29.906335010245805,29.906335010245805 0 0,0 -0.420974258763359,-0.29387272712537105 l 5.1605184126143735 -7.2589154167684145" fill="#ff5307" stroke="none" /><path d="M 87.83215693770417 117.11559508785305 l -5.592001114445389 7.865849872952883 a30.6510139720027,30.6510139720027 0 0,0 -0.42622276814847865,-0.3085524147768936 l 5.7262048929678215 -7.768696686802924" fill="#ff5d08" stroke="none" /><path d="M 87.54013794807813 116.9041958592261 l -9.404110730399832 12.758482317547687 a36.84980030400378,36.84980030400378 0 0,0 -0.5059776084235535,-0.37969503023367324 l 9.621741327734151 -12.595168260049999" fill="#ffb310" stroke="none" /><path d="M 86.96720088162412 116.46651593811092 l -2.059423309037294 2.602014074916987 a24.318388405818737,24.318388405818737 0 0,0 -0.3251128005302449,-0.2618878585795452 l 2.103786879922801 -2.566277922544031" fill="#ff0000" stroke="none" /><path d="M 86.68645165197938 116.24036423190432 l -4.386123195893721 5.350357125334562 a27.918410081671603,27.918410081671603 0 0,0 -0.36802535523809854,-0.3070198406149555 l 4.477322885293712 -5.274275100807737" fill="#ff3605" stroke="none" /><line stroke="#e1ed5e" stroke-width="0.3" x1="26.387840678322732" x2="22.057713659400548" y1="142.50000000000003" y2="145.00000000000006" /><path d="M 25.521815274538298 143.00000000000003 a86.0,86.0 0 0,1 -11.493303480769221,-40.785679425670985" fill="none" id="id9" stroke="none" /><text fill="#e1ed5e" style="font-size:6.75px; font-family:Arial;" text-anchor="middle"><textPath startOffset="21.40746469413373" xlink:href="#id9">September</textPath></text><line stroke="#e1ed5e" stroke-width="0.3" x1="15.003131293944662" x2="10.003315487706104" y1="100.72959589197737" y2="100.7725132973878" /><path d="M 14.003168132696942 100.73817937305945 a86.0,86.0 0 0,1 10.791469493833604,-42.45332614584628" fill="none" id="id10" stroke="none" /><text fill="#e1ed5e" style="font-size:6.75px; font-family:Arial;" text-anchor="middle"><textPath startOffset="22.145653131862435" xlink:href="#id10">October</textPath></text><line stroke="#e1ed5e" stroke-width="0.3" x1="26.387840678322718" x2="22.05771365940052" y1="57.49999999999999" y2="54.99999999999999" /><path d="M 25.521815274538284 56.99999999999999 a86.0,86.0 0 0,1 29.574782752854787,-30.34633250058573" fill="none" id="id11" stroke="none" /><text fill="#e1ed5e" style="font-size:6.75px; font-family:Arial;" text-anchor="middle"><textPath startOffset="21.40746469413373" xlink:href="#id11">November</textPath></text><line stroke="#e1ed5e" stroke-width="0.3" x1="56.869717070023135" x2="54.33264160355391" y1="26.7553504044142" y2="22.446841604673864" /><path d="M 56.362301976729285 25.89364864446614 a86.0,86.0 0 0,1 42.16139366436587,-11.88097634709845" fill="none" id="id12" stroke="none" /><text fill="#e1ed5e" style="font-size:6.75px; font-family:Arial;" text-anchor="middle"><textPath startOffset="22.145653131862474" xlink:href="#id12">December</textPath></text></svg>