<?xml version="1.0" encoding="utf-8" ?>
<svg baseProfile="full" height="200mm" version="1.1" viewBox="0,0,200,200" width="200mm" xmlns="http://www.w3.org/2000/svg" xmlns:ev="http://www.w3.org/2001/xml-events" xmlns:xlink="http://www.w3.org/1999/xlink"><defs /><rect fill="#1a1a1a" height="200" width="200" x="0" y="0" /><text alignment-baseline="middle" fill="#e1ed5e" style="dominant-baseline: central; font-size:9.0px; font-family:Arial;" text-anchor="middle" x="100.0" y="100.0">2025</text><line stroke="#e1ed5e" stroke-width="0.3" x1="100.0" x2="100.0" y1="15.0" y2="10.0" /><path d="M 100.0 14.0 a86.0,86.0 0 0,1 42.46469731375804,11.215312516191453" fill="none" id="id13" stroke="none" /><text fill="#e1ed5e" style="font-size:6.75px; font-family:Arial;" text-anchor="middle"><textPath startOffset="22.20632615414155" xlink:href="#id13">January</textPath></text><path d="M 100.72285384407766 79.0124445844662 l 0.3977703287980782 -11.548983085172424 a32.55583106211193,32.55583106211193 0 0,0 0.559896992726947,0.024110342281432356 l -0.5965081539143567 11.540425016366797" fill="#ff4d07" stroke="none" /><path d="M 103.2404852339499 79.25152402106235 l 2.535399633546617 -16.233889246743146 a37.43068505502163,37.43068505502163 0 0,0 0.6357348644447764,0.10490169981990302 l -2.8144637041302687 16.187841283983616" fill="#ff960d" stroke="none" /><path d="M 104.307194497241 79.44645832069477 l 5.561161017503774 -26.53735623775702 a48.113793315436794,48.113793315436794 0 0,0 0.8091302941866597,0.17684454282651682 l -6.017134035843962 26.43769819683463" fill="#d6ff1c" stroke="none" /><path d="M 105.71112130821622 79.79150937346287 l 1.8034288366351312 -6.381334377950854 a27.631273181827495,27.631273181827495 0 0,0 0.45658676623097455,0.1332901974963304 l -1.9130058205895328 6.34934585153582" fill="#ff0000" stroke="none" /><path d="M 106.0581310904928 79.89281104454417 l 3.828991110966803 -12.708580687168258 a34.27287444414844,34.27287444414844 0 0,0 0.5634046465413836,0.17505256619369855 l -4.047181130218905 12.64078798609204" fill="#ff6709" stroke="none" /><path d="M 107.4271985657038 80.35727306442388 l 4.958898134561741 -13.11480783728095 a35.021014774892926,35.021014774892926 0 0,0 0.5620319789492529,0.21805967614162902 l -5.183913278510661 13.027505457248774" fill="#ff730a" stroke="none" /><path d="M 107.76421540070413 80.48803036053334 l 8.469532453744598 -21.284476482060892 a43.90768253447817,43.90768253447817 0 0,0 0.6998385520610513,0.2854817172852563 l -8.834654875394037 21.135533878592057" fill="#fff116" stroke="none" /><path d="M 108.76106565485865 80.91482961587045 l 3.798215229701218 -8.274060219402962 a30.10420295497859,30.10420295497859 0 0,0 0.46908338753942963,0.22024094017128623 l -3.9400768285402457 8.207454296591674" fill="#ff2703" stroke="none" /><path d="M 109.73455568895987 81.39251694778311 l 7.336674038533792 -14.023961872906396 a36.827137851185476,36.827137851185476 0 0,0 0.5591673964778674,0.29868785800520786 l -7.57698648153997 13.895595288399434" fill="#ff8d0d" stroke="none" /><path d="M 110.05341064243156 81.56283822128135 l 5.17833363804255 -9.496655257054092 a31.816727801799217,31.816727801799217 0 0,0 0.4785779941495445,0.26632813559882124 l -5.341035721264129 9.40611172389509" fill="#ff4206" stroke="none" /><path d="M 110.36928655335952 81.73862282372117 l 7.50396872863409 -13.21525859734214 a36.197124941084866,36.197124941084866 0 0,0 0.5391704265205765,0.3123223120836917 l -7.7303358876199955 13.084132127868399" fill="#ff840c" stroke="none" /><line stroke="#e1ed5e" stroke-width="0.3" x1="143.23703022742887" x2="145.7803849466894" y1="26.81831364943548" y2="22.513508569990506" /><path d="M 143.74570117128098 25.957352633546492 a86.0,86.0 0 0,1 28.547481713284135,27.462654790039103" fill="none" id="id14" stroke="none" /><text fill="#e1ed5e" style="font-size:6.75px; font-family:Arial;" text-anchor="middle"><textPath startOffset="19.985693538727396" xlink:href="#id14">February</textPath></text><path d="M 110.68208982089419 81.91981866633111 l 10.111199223691544 -17.113909219113083 a40.87768191971147,40.87768191971147 0 0,0 0.6027276651158141,0.36313667426640306 l -10.404288955024997 16.937325935388063" fill="#ffc712" stroke="none" /><path d="M 110.99172775467656 82.1063720568725 l 12.359865511227005 -20.120843585385664 a44.613865038217995,44.613865038217995 0 0,0 0.6508968469694609,0.40759154585888496 l -12.704381510568728 19.905107698203835" fill="#fffa17" stroke="none" /><path d="M 111.60114157652 82.49532879139004 l 6.454455906934943 -9.73896644016805 a32.683641058218406,32.683641058218406 0 0,0 0.4662793062258971,0.3148338689896986 l -6.6211399075673825 9.62642065887968" fill="#ff4f07" stroke="none" /><path d="M 111.90073688211348 82.69761687909136 l 8.379582975836797 -12.183006521157834 a35.78658374147011,35.78658374147011 0 0,0 0.504537765072919,0.353460947318029 l -8.588051880493367 12.03696073107587" fill="#ff7e0b" stroke="none" /><path d="M 112.19680574252982 82.90503203632743 l 22.353603934279327 -31.330673882641452 a59.48759195885162,59.48759195885162 0 0,0 0.8284488041524216,0.6019032884919149 l -22.889598054785537 30.941251359332863" fill="#4eff2c" stroke="none" /><path d="M 112.48926042617603 83.11751280151076 l 6.6790759921702465 -9.028510182974527 a32.23049652656817,32.23049652656817 0 0,0 0.44317523039636364,0.3337903955484755 l -6.833497376324993 8.912203197920203" fill="#ff4806" stroke="none" /><path d="M 112.77801427241765 83.33499621200491 l 10.143411296907288 -13.228971582152507 a37.67016742146356,37.67016742146356 0 0,0 0.5111795884195687,0.3989837769577501 l -10.369623440486288 13.052409415971534" fill="#ff990e" stroke="none" /><path d="M 113.06298171725822 83.55741782278167 l 12.908524854395086 -16.24816487530117 a41.75169573146991,41.75169573146991 0 0,0 0.5588695130612206,0.4519002794593512 l -13.186297766020797 16.02355849857769" fill="#ffd313" stroke="none" /><path d="M 113.34407831869373 83.78471172551755 l 19.878708937801164 -24.15595804016017 a52.28375581466833,52.28375581466833 0 0,0 0.6900023268335834,0.5778571053185089 l -20.291568801593865 23.810199777447842" fill="#a1ff22" stroke="none" /><path d="M 113.6212207817346 84.01681056812373 l 4.335153998260625 -5.086885285896645 a27.683559089325602,27.683559089325602 0 0,0 0.36002626965826473,0.3122112332898737 l -4.422074066565654 5.0115090591871" fill="#ff0100" stroke="none" /><path d="M 113.89432698308785 84.25364557470407 l 9.313945455250513 -10.55543650403248 a35.077173712576084,35.077173712576084 0 0,0 0.44930353880332097,0.40338915338850795 l -9.494259981649824 10.393548341874675" fill="#ff730a" stroke="none" /><path d="M 114.16331599549186 84.49514656593476 l 13.919661334982107 -15.238120008013524 a41.638732351072775,41.638732351072775 0 0,0 0.5250289550162159,0.4879571939649768 l -14.17989817379317 14.996258227973907" fill="#ffd213" stroke="none" /><path d="M 114.68862486808459 84.99185889309783 l 5.865035257989472 -5.992615206622861 a29.38511035062194,29.38511035062194 0 0,0 0.3584482514267618,0.3569089607206561 l -5.967319309583556 5.890770395252086" fill="#ff1c02" stroke="none" /><path d="M 115.19652480421416 85.50635884689758 l 10.034115944568258 -9.570008779169436 a34.866093567491134,34.866093567491134 0 0,0 0.41047798500567856,0.4378692946542257 l -10.197361251544399 9.395870067637155" fill="#ff700a" stroke="none" /><path d="M 115.4437574822437 85.77008943001954 l 13.748707069839806 -12.668087561049639 a39.69511670321113,39.69511670321113 0 0,0 0.4586796430725145,0.5064855180778757 l -13.964730353528356 12.429549255702213" fill="#ffb710" stroke="none" /><path d="M 115.9244219780498 86.31012108654704 l 13.590206309511723 -11.68320451709384 a38.92180167626386,38.92180167626386 0 0,0 0.4323830111919852,0.5118051046291001 l -13.789299934190826 11.447540462835633" fill="#ffac0f" stroke="none" /><path d="M 116.15771136456269 86.58626213691792 l 8.927980680630101 -7.411791793687265 a32.603598434394144,32.603598434394144 0 0,0 0.3547605431425856,0.4348944785340161 l -9.054239715849096 7.257013145545148" fill="#ff4e07" stroke="none" /><path d="M 117.2510076193507 88.02491185347247 l 8.857584108495073 -6.148646664878251 a31.782516035164655,31.782516035164655 0 0,0 0.3081020325833664,0.4521017150221138 l -8.962110606747173 5.995266926585731" fill="#ff4106" stroke="none" /><path d="M 117.45458315368197 88.32363383020206 l 5.56644501586458 -3.7237125456972566 a27.69711469497326,27.69711469497326 0 0,0 0.2616762260171503,0.39855084479806835 l -5.6297178772396546 3.627343636921514" fill="#ff0100" stroke="none" /><path d="M 117.65298651832404 88.62581576622439 l 12.104843027032507 -7.799400660476642 a35.39992622799648,35.39992622799648 0 0,0 0.32563280200847233,0.515072891890852 l -12.237303425286933 7.589880120871584" fill="#ff780b" stroke="none" /><line stroke="#e1ed5e" stroke-width="0.3" x1="172.23445277983987" x2="176.4835382374775" y1="55.19839476539836" y2="52.563006222186495" /><path d="M 173.08426987136738 54.67131705675599 a86.0,86.0 0 0,1 12.851231095245387,41.99856678651699" fill="none" id="id15" stroke="none" /><text fill="#e1ed5e" style="font-size:6.75px; font-family:Arial;" text-anchor="middle"><textPath startOffset="22.20632615414155" xlink:href="#id15">March</textPath></text><path d="M 118.3937258080291 89.86733742301442 l 10.269224016411169 -5.657069316557384 a32.72430787516137,32.72430787516137 0 0,0 0.2675475533736484,0.49572498297010537 l -10.365079669003283 5.479463350254819" fill="#ff5007" stroke="none" /><path d="M 118.73160827565052 90.50648371742162 l 14.89653996929128 -7.549834625592781 a37.70050615791307,37.70050615791307 0 0,0 0.2883908962312911,0.5813784489512592 l -15.024290878475979 7.292296588142572" fill="#ff9a0e" stroke="none" /><path d="M 118.89224826269711 90.83032412892265 l 43.7151580376436 -21.217899758897527 a69.59232771163344,69.59232771163344 0 0,0 0.5137961991984786,1.0821858298791858 l -44.07391243068383 20.4622715133778" fill="#39ff8d" stroke="none" /><path d="M 119.04729006885535 91.15688171328212 l 30.429254905283496 -14.127442776970488 a54.54883296788869,54.54883296788869 0 0,0 0.3880699646550459,0.8550607264942599 l -30.66792718690189 13.601560041634166" fill="#86ff25" stroke="none" /><path d="M 119.196687751892 91.48605970444005 l 57.59006325567602 -25.541820886679833 a84.0,84.0 0 0,0 0.574837160629277,1.3268034216535889 l -58.02119112614798 24.54671832043964" fill="#4dd2ff" stroke="none" /><line stroke="#e1ed5e" stroke-width="0.3" x1="184.98032266829074" x2="189.97916517819016" y1="98.17113171792111" y2="98.06355123074" /><path d="M 185.9800911702706 98.14961562048488 a86.0,86.0 0 0,1 -9.607161424134198,41.387399972396054" fill="none" id="id16" stroke="none" /><text fill="#e1ed5e" style="font-size:6.75px; font-family:Arial;" text-anchor="middle"><textPath startOffset="21.466115282336823" xlink:href="#id16">April</textPath></text><line stroke="#e1ed5e" stroke-width="0.3" x1="174.80103733775053" x2="179.2010983576182" y1="140.37084112569926" y2="142.7455964860345" /><path d="M 175.68104954172406 140.8457921977663 a86.0,86.0 0 0,1 -30.038265399797805,32.042727171017184" fill="none" id="id17" stroke="none" /><text fill="#e1ed5e" style="font-size:6.75px; font-family:Arial;" text-anchor="middle"><textPath startOffset="22.206326154141568" xlink:href="#id17">May</textPath></text><line stroke="#e1ed5e" stroke-width="0.3" x1="143.8653032363475" x2="146.44561519142675" y1="172.8068346515853" y2="177.08958963109032" /><path d="M 144.38136562736335 173.6633856474863 a86.0,86.0 0 0,1 -40.68145358897372,12.25698825130547" fill="none" id="id18" stroke="none" /><text fill="#e1ed5e" style="font-size:6.75px; font-family:Arial;" text-anchor="middle"><textPath startOffset="21.466115282336833" xlink:href="#id18">June</textPath></text><line stroke="#e1ed5e" stroke-width="0.3" x1="102.19456741930631" x2="102.32365962044197" y1="184.97166512339345" y2="189.96999836594603" /><path d="M 102.22038585953345 185.97133177190398 a86.0,86.0 0 0,1 -42.740103519485714,-10.115201625700543" fill="none" id="id19" stroke="none" /><text fill="#e1ed5e" style="font-size:6.75px; font-family:Arial;" text-anchor="middle"><textPath startOffset="22.20632615414155" xlink:href="#id19">July</textPath></text><line stroke="#e1ed5e" stroke-width="0.3" x1="58.666819895761336" x2="56.23545636021788" y1="174.27360380694188" y2="178.64263932499728" /><path d="M 58.180547188652646 175.14741091055294 a86.0,86.0 0 0,1 -31.652253787137756,-30.449443065178592" fill="none" id="id20" stroke="none" /><text fill="#e1ed5e" style="font-size:6.75px; font-family:Arial;" text-anchor="middle"><textPath startOffset="22.20632615414155" xlink:href="#id20">August</textPath></text><line stroke="#e1ed5e" stroke-width="0.3" x1="26.63291911575756" x2="22.317208475507996" y1="142.92168965132927" y2="145.44649492493687" /><path d="M 25.769776987707644 143.4266507060508 a86.0,86.0 0 0,1 -11.730757126820373,-40.83630448921669" fill="none" id="id21" stroke="none" /><text fill="#e1ed5e" style="font-size:6.75px; font-family:Arial;" text-anchor="middle"><textPath startOffset="21.46611528233685" xlink:href="#id21">September</textPath></text><line stroke="#e1ed5e" stroke-width="0.3" x1="15.007084014347285" x2="10.007500721073583" y1="101.09737516637583" y2="101.16192664675087" /><path d="M 14.007167355692545 101.11028546245083 a86.0,86.0 0 0,1 10.666146001902534,-42.60595125391555" fill="none" id="id22" stroke="none" /><text fill="#e1ed5e" style="font-size:6.75px; font-family:Arial;" text-anchor="middle"><textPath startOffset="22.20632615414155" xlink:href="#id22">October</textPath></text><line stroke="#e1ed5e" stroke-width="0.3" x1="26.266209847984243" x2="21.928928074336255" y1="57.711370442889674" y2="55.22380399835377" /><path d="M 25.398753493254645 57.213857153982495 a86.0,86.0 0 0,1 29.58750427330803,-30.492523968695096" fill="none" id="id23" stroke="none" /><text fill="#e1ed5e" style="font-size:6.75px; font-family:Arial;" text-anchor="middle"><textPath startOffset="21.46611528233685" xlink:href="#id23">November</textPath></text><line stroke="#e1ed5e" stroke-width="0.3" x1="56.762969772571076" x2="54.21961505331055" y1="26.818313649435495" y2="22.513508569990535" /><path d="M 56.25429882871897 25.957352633546506 a86.0,86.0 0 0,1 42.265352541879196,-11.944610805530505" fill="none" id="id24" stroke="none" /><text fill="#e1ed5e" style="font-size:6.75px; font-family:Arial;" text-anchor="middle"><textPath startOffset="22.20632615414155" xlink:href="#id24">December</textPath></text></svg>