<?xml version="1.0" encoding="utf-8" ?>
<svg baseProfile="full" height="200mm" version="1.1" viewBox="0,0,200,200" width="200mm" xmlns="http://www.w3.org/2000/svg" xmlns:ev="http://www.w3.org/2001/xml-events" xmlns:xlink="http://www.w3.org/1999/xlink"><defs /><rect fill="#1a1a1a" height="200" width="200" x="0" y="0" /><text alignment-baseline="middle" fill="#e1ed5e" style="dominant-baseline: central; font-size:9.0px; font-family:Arial;" text-anchor="middle" x="100.0" y="100.0">2024</text><line stroke="#e1ed5e" stroke-width="0.3" x1="100.0" x2="100.0" y1="15.0" y2="10.0" /><path d="M 100.0 14.0 a86.0,86.0 0 0,1 42.35913384403234,11.155469271406648" fill="none" id="id1" stroke="none" /><text fill="#e1ed5e" style="font-size:6.75px; font-family:Arial;" text-anchor="middle"><textPath startOffset="22.145653131862478" xlink:href="#id1">January</textPath></text><line stroke="#e1ed5e" stroke-width="0.3" x1="143.13028292997686" x2="145.6673583964461" y1="26.7553504044142" y2="22.446841604673864" /><path d="M 143.63769802327073 25.89364864446614 a86.0,86.0 0 0,1 29.32050498858742,28.57503671076993" fill="none" id="id2" stroke="none" /><text fill="#e1ed5e" style="font-size:6.75px; font-family:Arial;" text-anchor="middle"><textPath startOffset="20.669276256404974" xlink:href="#id2">February</textPath></text><line stroke="#e1ed5e" stroke-width="0.3" x1="172.87174338648825" x2="177.1583165268699" y1="56.24261187166439" y2="53.66864786411523" /><path d="M 173.72905801456457 55.72781907015455 a86.0,86.0 0 0,1 12.242430191666344,42.057860355516425" fill="none" id="id3" stroke="none" /><text fill="#e1ed5e" style="font-size:6.75px; font-family:Arial;" text-anchor="middle"><textPath startOffset="22.145653131862474" xlink:href="#id3">March</textPath></text><line stroke="#e1ed5e" stroke-width="0.3" x1="184.99686870605535" x2="189.99668451229388" y1="99.2704041080226" y2="99.22748670261217" /><path d="M 185.99683186730306 99.26182062694052 a86.0,86.0 0 0,1 -10.086455211305974,41.156179273409016" fill="none" id="id4" stroke="none" /><text fill="#e1ed5e" style="font-size:6.75px; font-family:Arial;" text-anchor="middle"><textPath startOffset="21.40746469413373" xlink:href="#id4">April</textPath></text><path d="M 120.26092885502905 105.52220625578681 l 8.166355503016295 2.2257765065169766 a29.46424499046474,29.46424499046474 0 0,0 -0.13719325262150728,0.4868504542796067 l -8.126943758320207 -2.365634884699592" fill="#ff3405" stroke="none" /><path d="M 120.16314734710363 105.8691983318838 l 9.422580793315936 2.7427759427703764 a30.813656233983657,30.813656233983657 0 0,0 -0.1521955151777087,0.5066093711179448 l -9.374108958134597 -2.904122917479045" fill="#ff4906" stroke="none" /><path d="M 120.05942366710727 106.21446072829308 l 5.785375998369385 1.7923242729665416 a27.056649382453436,27.056649382453436 0 0,0 -0.14125540215049737,0.4424805353566388 l -5.753755880441632 -1.891373842014564" fill="#ff0f01" stroke="none" /><path d="M 119.94978838288452 106.5578916946017 l 6.258483619303706 2.0572878749452785 a27.587947374826978,27.587947374826978 0 0,0 -0.1517528624136628,0.4486303730094473 l -6.2222453353176785 -2.1644199224288863" fill="#ff1802" stroke="none" /><path d="M 119.83427380445688 106.89939002012753 l 4.791738481601925 1.6668153815440703 a26.0733648786793,26.0733648786793 0 0,0 -0.15067900609803536,0.42147599742081043 l -4.762419305459947 -1.748826335345802" fill="#ff0000" stroke="none" /><path d="M 119.58574465831526 107.57618678355244 l 9.29523755808766 3.5955975719139026 a30.966431816875918,30.966431816875918 0 0,0 -0.19603421320507844,0.49413427630288775 l -9.232144669916458 -3.7546328654303545" fill="#ff4b07" stroke="none" /><path d="M 119.4528033332814 107.91128576633889 l 9.992315846636572 4.063787865217856 a31.787063909722434,31.787063909722434 0 0,0 -0.20990686868311995,0.5037000709270504 l -9.921083133416966 -4.234720445586184" fill="#ff5708" stroke="none" /><path d="M 119.31412917781788 108.2440532568976 l 15.202344531668523 6.488976893284978 a37.52931034196945,37.52931034196945 0 0,0 -0.2579981354595558,0.5903502238621987 l -15.088712514192002 -6.748989186923021" fill="#ffa90f" stroke="none" /><path d="M 119.16976305983485 108.57439118712176 l 14.982212170632467 6.701352937878523 a37.41264185693031,37.41264185693031 0 0,0 -0.2672608328263585,0.5840131526265551 l -14.864966872951051 -6.957555072719767" fill="#ffa80f" stroke="none" /><path d="M 119.0197475246899 108.90220220490707 l 57.05924257406971 26.70660661472122 a84.0,84.0 0 0,0 -0.6224829681603521,1.300749991739586 l -56.592380347949444 -27.682169108525912" fill="#4dd2ff" stroke="none" /><path d="M 118.8641267826498 109.22738970284198 l 7.600799661135986 3.7179319951898195 a29.461393136451058,29.461393136451058 0 0,0 -0.22612332869697405,0.4523981314067396 l -7.5358564192272794 -3.847861982760305" fill="#ff3405" stroke="none" /><path d="M 118.5362547648365 109.86951160357373 l 14.934645663675303 7.9518576186447625 a37.91968323245841,37.91968323245841 0 0,0 -0.310859514741951,0.5719464942883491 l -14.795940799318014 -8.207058946407715" fill="#ffaf10" stroke="none" /><line stroke="#e1ed5e" stroke-width="0.3" x1="174.33088141563837" x2="178.70328620479359" y1="141.23008692659167" y2="143.65538615756765" /><path d="M 175.20536237346943 141.71514677278685 a86.0,86.0 0 0,1 -30.301960400862466,31.631185727798858" fill="none" id="id5" stroke="none" /><text fill="#e1ed5e" style="font-size:6.75px; font-family:Arial;" text-anchor="middle"><textPath startOffset="22.145653131862474" xlink:href="#id5">May</textPath></text><path d="M 118.36410011445183 110.18625677009912 l 11.222991167150319 6.2252040146079315 a33.83388856743835,33.83388856743835 0 0,0 -0.2860842733886518,0.5054834990121178 l -11.11447352874029 -6.416944283719173" fill="#ff750a" stroke="none" /><path d="M 118.18653347947321 110.5 l 18.55755940183 10.714211916149017 a42.428423832298044,42.428423832298044 0 0,0 -0.3695844836516249,0.6276352521261671 l -18.370901208048615 -11.031198336568734" fill="#ffec16" stroke="none" /><path d="M 118.00360718960297 110.81064883170644 l 13.64058679717845 8.190780445813509 a36.91082940901825,36.91082940901825 0 0,0 -0.3308476453951818,0.540414764587203 l -13.497971187327863 -8.423732326525268" fill="#ffa10e" stroke="none" /><path d="M 117.81537515405839 111.11811171558189 l 8.107237551968147 5.0595158411249646 a30.55646384760791,30.55646384760791 0 0,0 -0.2815302457612009,0.4426123072675171 l -8.019189614581057 -5.197941823071154" fill="#ff4506" stroke="none" /><path d="M 117.62189284568427 111.42229804090321 l 12.06647305988818 7.82134205442788 a35.37960930058148,35.37960930058148 0 0,0 -0.3347173204075477,0.5068046844817813 l -11.930431300559906 -8.027326617248724" fill="#ff8b0c" stroke="none" /><path d="M 117.21940702142032 112.02048342749411 l 15.738806152289616 10.986909031582597 a40.1943270048111,40.1943270048111 0 0,0 -0.39980895409783374,0.5623813633856511 l -15.547882099661821 -11.255467621677752" fill="#ffce13" stroke="none" /><path d="M 117.01052211995028 112.31430620078461 l 15.914821932453595 11.521103763026 a40.64732523933265,40.64732523933265 0 0,0 -0.41401813228631174,0.5616951109309646 l -15.714701780583455 -11.792605183225842" fill="#ffd413" stroke="none" /><path d="M 116.79662413953412 112.60449989151573 l 20.372130961631353 15.28762686851127 a46.47028180426527,46.47028180426527 0 0,0 -0.48428234688817623,0.6339411377488091 l -20.106696637388872 -15.635088919500957" fill="#deff1b" stroke="none" /><path d="M 116.57777611688842 112.89097897827486 l 12.583971710030022 9.785372515191774 a36.94082366943147,36.94082366943147 0 0,0 -0.3935667778382184,0.4972587669863189 l -12.414138501550243 -9.999951226092776" fill="#ffa10e" stroke="none" /><path d="M 116.1254893667686 113.45245675266167 l 12.176840147103007 10.1583531350406 a36.857729168588065,36.857729168588065 0 0,0 -0.4094813615149522,0.48236801423837544 l -12.00066422208094 -10.36588793172853" fill="#ffa00e" stroke="none" /><path d="M 115.6541949942343 113.99807769240083 l 14.918040977542539 13.339804231324123 a41.01245421075814,41.01245421075814 0 0,0 -0.473795985030812,0.5207847843890828 l -14.686847291669848 -13.593926591270877" fill="#ffd914" stroke="none" /><line stroke="#e1ed5e" stroke-width="0.3" x1="143.1302829299769" x2="145.66735839644613" y1="173.24464959558577" y2="177.55315839532614" /><path d="M 143.63769802327073 174.10635135553383 a86.0,86.0 0 0,1 -40.68552437913181,11.842963189579606" fill="none" id="id6" stroke="none" /><text fill="#e1ed5e" style="font-size:6.75px; font-family:Arial;" text-anchor="middle"><textPath startOffset="21.407464694133747" xlink:href="#id6">June</textPath></text><line stroke="#e1ed5e" stroke-width="0.3" x1="101.45913802915013" x2="101.54496967792366" y1="184.9874750549273" y2="189.98673829345242" /><path d="M 101.47630435890484 185.9873277026323 a86.0,86.0 0 0,1 -42.54439059252881,-10.42667462771756" fill="none" id="id7" stroke="none" /><text fill="#e1ed5e" style="font-size:6.75px; font-family:Arial;" text-anchor="middle"><textPath startOffset="22.145653131862474" xlink:href="#id7">July</textPath></text><line stroke="#e1ed5e" stroke-width="0.3" x1="58.13341422392154" x2="55.67067388415222" y1="173.97424548756322" y2="178.32567169271397" /><path d="M 57.64086615596768 174.84453072859336 a86.0,86.0 0 0,1 -31.369924170532247,-30.572349798747897" fill="none" id="id8" stroke="none" /><text fill="#e1ed5e" style="font-size:6.75px; font-family:Arial;" text-anchor="middle"><textPath startOffset="22.145653131862474" xlink:href="#id8">August</textPath></text><line stroke="#e1ed5e" stroke-width="0.3" x1="26.387840678322732" x2="22.057713659400548" y1="142.50000000000003" y2="145.00000000000006" /><path d="M 25.521815274538298 143.00000000000003 a86.0,86.0 0 0,1 -11.493303480769221,-40.785679425670985" fill="none" id="id9" stroke="none" /><text fill="#e1ed5e" style="font-size:6.75px; font-family:Arial;" text-anchor="middle"><textPath startOffset="21.40746469413373" xlink:href="#id9">September</textPath></text><line stroke="#e1ed5e" stroke-width="0.3" x1="15.003131293944662" x2="10.003315487706104" y1="100.72959589197737" y2="100.7725132973878" /><path d="M 14.003168132696942 100.73817937305945 a86.0,86.0 0 0,1 10.791469493833604,-42.45332614584628" fill="none" id="id10" stroke="none" /><text fill="#e1ed5e" style="font-size:6.75px; font-family:Arial;" text-anchor="middle"><textPath startOffset="22.145653131862435" xlink:href="#id10">October</textPath></text><line stroke="#e1ed5e" stroke-width="0.3" x1="26.387840678322718" x2="22.05771365940052" y1="57.49999999999999" y2="54.99999999999999" /><path d="M 25.521815274538284 56.99999999999999 a86.0,86.0 0 0,1 29.574782752854787,-30.34633250058573" fill="none" id="id11" stroke="none" /><text fill="#e1ed5e" style="font-size:6.75px; font-family:Arial;" text-anchor="middle"><textPath startOffset="21.40746469413373" xlink:href="#id11">November</textPath></text><line stroke="#e1ed5e" stroke-width="0.3" x1="56.869717070023135" x2="54.33264160355391" y1="26.7553504044142" y2="22.446841604673864" /><path d="M 56.362301976729285 25.89364864446614 a86.0,86.0 0 0,1 42.16139366436587,-11.88097634709845" fill="none" id="id12" stroke="none" /><text fill="#e1ed5e" style="font-size:6.75px; font-family:Arial;" text-anchor="middle"><textPath startOffset="22.145653131862474" xlink:href="#id12">December</textPath></text></svg>