<?xml version="1.0" encoding="utf-8" ?>
<svg baseProfile="full" height="200mm" version="1.1" viewBox="0,0,200,200" width="200mm" xmlns="http://www.w3.org/2000/svg" xmlns:ev="http://www.w3.org/2001/xml-events" xmlns:xlink="http://www.w3.org/1999/xlink"><defs /><rect fill="#1a1a1a" height="200" width="200" x="0" y="0" /><text alignment-baseline="middle" fill="#e1ed5e" style="dominant-baseline: central; font-size:9.0px; font-family:Arial;" text-anchor="middle" x="100.0" y="100.0">2025</text><line stroke="#e1ed5e" stroke-width="0.3" x1="100.0" x2="100.0" y1="15.0" y2="10.0" /><path d="M 100.0 14.0 a86.0,86.0 0 0,1 42.46469731375804,11.215312516191453" fill="none" id="id13" stroke="none" /><text fill="#e1ed5e" style="font-size:6.75px; font-family:Arial;" text-anchor="middle"><textPath startOffset="22.20632615414155" xlink:href="#id13">January</textPath></text><path d="M 100.72285384407766 79.0124445844662 l 0.5157096170200435 -14.973267769423444 a35.98214617816626,35.98214617816626 0 0,0 0.6188229505977105,0.026647817981392468 l -0.7733734000070855 14.962172224917857" fill="#ff6709" stroke="none" /><path d="M 103.2404852339499 79.25152402106235 l 3.2871480835686735 -21.047253151035317 a42.30239910730891,42.30239910730891 0 0,0 0.7184776319920956,0.1185549654326007 l -3.6489549216996444 20.987551922663094" fill="#ffc612" stroke="none" /><path d="M 104.307194497241 79.44645832069477 l 7.210050652067445 -34.40570809655688 a56.153059326762126,56.153059326762126 0 0,0 0.9443267362992687,0.2063932486022771 l -7.801220112520242 34.276501349858734" fill="#7fff26" stroke="none" /><path d="M 105.71112130821622 79.79150937346287 l 2.3381472355524258 -8.273406209241045 a29.597452110842475,29.597452110842475 0 0,0 0.4890764482345114,0.14277482659890425 l -2.4802139015103646 8.231933053723438" fill="#ff0000" stroke="none" /><path d="M 106.0581310904928 79.89281104454417 l 4.9642906884898395 -16.476687184917875 a38.208294588060255,38.208294588060255 0 0,0 0.6280981988369668,0.19515316780401248 l -5.247174260037524 16.388793882231344" fill="#ff890c" stroke="none" /><path d="M 107.4271985657038 80.35727306442388 l 6.429216240295395 -17.003361078973217 a39.178259252371205,39.178259252371205 0 0,0 0.6287491873360312,0.24394491648167743 l -6.7209485926310935 16.890173458600994" fill="#ff980e" stroke="none" /><path d="M 107.76421540070413 80.48803036053334 l 10.980757039514401 -27.595344399375364 a50.69983262042031,50.69983262042031 0 0,0 0.8080977041535015,0.32964334364919273 l -11.45413861325629 27.40224016954259" fill="#c4ff1e" stroke="none" /><path d="M 108.76106565485865 80.91482961587045 l 4.924389728584439 -10.727327098133454 a32.8036079598289,32.8036079598289 0 0,0 0.5111454891639028,0.23998966087518342 l -5.108313429047939 10.640972454618266" fill="#ff3505" stroke="none" /><path d="M 109.73455568895987 81.39251694778311 l 9.512005005616794 -18.182080167803587 a41.519899572252186,41.519899572252186 0 0,0 0.6304202688695079,0.3367486747935841 l -9.823570321014612 18.015652766508246" fill="#ffbb11" stroke="none" /><path d="M 110.05341064243156 81.56283822128135 l 6.713714583353393 -12.312422750046032 a35.0238980844337,35.0238980844337 0 0,0 0.5268193196032714,0.2931743809840454 l -6.924657992028699 12.195032971501806" fill="#ff5808" stroke="none" /><path d="M 110.36928655335952 81.73862282372117 l 9.728902733563984 -17.133595586803548 a40.70308722335875,40.70308722335875 0 0,0 0.6062885086769221,0.3512014374410856 l -10.022387974706234 16.963589991972412" fill="#ffaf10" stroke="none" /><line stroke="#e1ed5e" stroke-width="0.3" x1="143.23703022742887" x2="145.7803849466894" y1="26.81831364943548" y2="22.513508569990506" /><path d="M 143.74570117128098 25.957352633546492 a86.0,86.0 0 0,1 28.547481713284135,27.462654790039103" fill="none" id="id14" stroke="none" /><text fill="#e1ed5e" style="font-size:6.75px; font-family:Arial;" text-anchor="middle"><textPath startOffset="19.985693538727396" xlink:href="#id14">February</textPath></text><path d="M 110.68208982089419 81.91981866633111 l 13.109179598738642 -22.188199898602495 a46.771433885066024,46.771433885066024 0 0,0 0.6896290546766771,0.4154937891305385 l -13.489170719632956 21.959259500013342" fill="#f9ff18" stroke="none" /><path d="M 110.99172775467656 82.1063720568725 l 16.024577621147387 -26.08669322041592 a51.61539892133159,51.61539892133159 0 0,0 0.7530461748648258,0.47155744561576507 l -16.471242948384475 25.80699143347721" fill="#b8ff1f" stroke="none" /><path d="M 111.60114157652 82.49532879139004 l 8.368208342477704 -12.626579433931841 a36.14785196206063,36.14785196206063 0 0,0 0.5157012740533637,0.34820380228171477 l -8.58431431093761 12.480663719351456" fill="#ff6a09" stroke="none" /><path d="M 111.90073688211348 82.69761687909136 l 10.864137454179437 -15.795279769015679 a40.17082015994048,40.17082015994048 0 0,0 0.5663489974639847,0.3967636657036058 l -11.134417591227072 15.605931260548138" fill="#ffa70f" stroke="none" /><path d="M 112.19680574252982 82.90503203632743 l 28.98146917795097 -40.62024907141581 a70.89920029756368,70.89920029756368 0 0,0 0.9873715806568265,0.7173674442910555 l -29.676386074961584 40.11536239230808" fill="#3aff97" stroke="none" /><path d="M 112.48926042617603 83.11751280151076 l 8.659428500808096 -11.70547220752342 a35.560349637344245,35.560349637344245 0 0,0 0.48896132054665914,0.36827552940448244 l -8.859635975113138 11.554680088613088" fill="#ff6008" stroke="none" /><path d="M 112.77801427241765 83.33499621200491 l 13.150942582900145 -17.151374484908207 a42.612888227636226,42.612888227636226 0 0,0 0.5782517083574422,0.45133463044959815 l -13.444226846417019 16.922461465235383" fill="#ffcb12" stroke="none" /><path d="M 113.06298171725822 83.55741782278167 l 16.735914991621083 -21.065761517304445 a47.90459363957598,47.90459363957598 0 0,0 0.6412294507254238,0.5184962879673893 l -17.096047840910998 20.774559132072927" fill="#e9ff1a" stroke="none" /><path d="M 113.34407831869373 83.78471172551755 l 25.77276541501525 -31.318223024038257 a61.5594197507904,61.5594197507904 0 0,0 0.8124156768143623,0.680374765507929 l -26.30803862878873 30.869947101136507" fill="#40ff2d" stroke="none" /><path d="M 113.6212207817346 84.01681056812373 l 5.620531362712085 -6.595151706115207 a29.665240840617443,29.665240840617443 0 0,0 0.38579815420047153,0.33456035760450803 l -5.733223315559321 6.497426355091028" fill="#ff0100" stroke="none" /><path d="M 113.89432698308785 84.25364557470407 l 12.0755393148269 -13.685133663494804 a39.25106936953692,39.25106936953692 0 0,0 0.5027669707387153,0.45138915045753497 l -12.309317273161605 13.47524550426797" fill="#ff990e" stroke="none" /><path d="M 114.16331599549186 84.49514656593476 l 18.04685441924046 -19.756237367386273 a47.75813650734611,47.75813650734611 0 0,0 0.6021894300854648,0.559669446289484 l -18.384251733120774 19.442663335022146" fill="#ebff1a" stroke="none" /><path d="M 114.68862486808459 84.99185889309783 l 7.6040238995358065 -7.769431426658226 a31.871303700948484,31.871303700948484 0 0,0 0.38877557191322476,0.38710604605495946 l -7.736635271616354 7.637389529953148" fill="#ff2503" stroke="none" /><path d="M 115.19652480421416 85.50635884689758 l 13.009241052604654 -12.407525662602339 a38.97740375674168,38.97740375674168 0 0,0 0.4588803768294183,0.4895015914926181 l -13.220888751404535 12.181754654231666" fill="#ff950d" stroke="none" /><path d="M 115.4437574822437 85.77008943001954 l 17.825212048702483 -16.424187807637328 a45.238236935093916,45.238236935093916 0 0,0 0.5227307561723371,0.5772123569332455 l -18.105286445490854 16.114922663434534" fill="#fff016" stroke="none" /><path d="M 115.9244219780498 86.31012108654704 l 17.619715659232778 -15.147285986069297 a44.23563325274317,44.23563325274317 0 0,0 0.49141446397815863,0.5816797252492438 l -17.877840736698055 14.841747311190947" fill="#ffe215" stroke="none" /><path d="M 116.15771136456269 86.58626213691792 l 11.57513561024651 -9.60939524801788 a36.044076622652035,36.044076622652035 0 0,0 0.39219646952330717,0.48078649780301974 l -11.738830571846227 9.408724580606759" fill="#ff6809" stroke="none" /><path d="M 117.2510076193507 88.02491185347247 l 11.483866386207152 -7.971726363596104 a34.97954249581551,34.97954249581551 0 0,0 0.33909424067851857,0.4975789561641347 l -11.619385092554404 7.772869384161563" fill="#ff5708" stroke="none" /><path d="M 117.45458315368197 88.32363383020206 l 7.21690136106633 -4.827796926525157 a29.68281569648503,29.68281569648503 0 0,0 0.2804366907730109,0.4271243197027492 l -7.298934687197266 4.702854542844734" fill="#ff0100" stroke="none" /><path d="M 117.65298651832404 88.62581576622439 l 15.693940723084012 -10.111930519689672 a39.669518318765114,39.669518318765114 0 0,0 0.3649074385429025,0.5771959350639556 l -15.86567575787287 9.840286936911511" fill="#ff9f0e" stroke="none" /><line stroke="#e1ed5e" stroke-width="0.3" x1="172.23445277983987" x2="176.4835382374775" y1="55.19839476539836" y2="52.563006222186495" /><path d="M 173.08426987136738 54.67131705675599 a86.0,86.0 0 0,1 12.851231095245387,41.99856678651699" fill="none" id="id15" stroke="none" /><text fill="#e1ed5e" style="font-size:6.75px; font-family:Arial;" text-anchor="middle"><textPath startOffset="22.20632615414155" xlink:href="#id15">March</textPath></text><path d="M 118.3937258080291 89.86733742301442 l 13.314058895742415 -7.3343958547964565 a36.20057652966338,36.20057652966338 0 0,0 0.29596884732215883,0.5483853242102185 l -13.438335842283038 7.1041295472537795" fill="#ff6a09" stroke="none" /><path d="M 118.73160827565052 90.50648371742162 l 19.313378515939455 -9.788367913448873 a42.65222242886367,42.65222242886367 0 0,0 0.3262691646895722,0.6577387267998825 l -19.479007693582435 9.454469598150041" fill="#ffcb12" stroke="none" /><path d="M 118.89224826269711 90.83032412892265 l 56.676744788091334 -27.509027613232025 a84.0,84.0 0 0,0 0.6201672246329752,1.3062303374378386 l -57.14187020656606 26.529354860153646" fill="#4dd2ff" stroke="none" /><line stroke="#e1ed5e" stroke-width="0.3" x1="184.98032266829074" x2="189.97916517819016" y1="98.17113171792111" y2="98.06355123074" /><path d="M 185.9800911702706 98.14961562048488 a86.0,86.0 0 0,1 -9.607161424134198,41.387399972396054" fill="none" id="id16" stroke="none" /><text fill="#e1ed5e" style="font-size:6.75px; font-family:Arial;" text-anchor="middle"><textPath startOffset="21.466115282336823" xlink:href="#id16">April</textPath></text><line stroke="#e1ed5e" stroke-width="0.3" x1="174.80103733775053" x2="179.2010983576182" y1="140.37084112569926" y2="142.7455964860345" /><path d="M 175.68104954172406 140.8457921977663 a86.0,86.0 0 0,1 -30.038265399797805,32.042727171017184" fill="none" id="id17" stroke="none" /><text fill="#e1ed5e" style="font-size:6.75px; font-family:Arial;" text-anchor="middle"><textPath startOffset="22.206326154141568" xlink:href="#id17">May</textPath></text><line stroke="#e1ed5e" stroke-width="0.3" x1="143.8653032363475" x2="146.44561519142675" y1="172.8068346515853" y2="177.08958963109032" /><path d="M 144.38136562736335 173.6633856474863 a86.0,86.0 0 0,1 -40.68145358897372,12.25698825130547" fill="none" id="id18" stroke="none" /><text fill="#e1ed5e" style="font-size:6.75px; font-family:Arial;" text-anchor="middle"><textPath startOffset="21.466115282336833" xlink:href="#id18">June</textPath></text><line stroke="#e1ed5e" stroke-width="0.3" x1="102.19456741930631" x2="102.32365962044197" y1="184.97166512339345" y2="189.96999836594603" /><path d="M 102.22038585953345 185.97133177190398 a86.0,86.0 0 0,1 -42.740103519485714,-10.115201625700543" fill="none" id="id19" stroke="none" /><text fill="#e1ed5e" style="font-size:6.75px; font-family:Arial;" text-anchor="middle"><textPath startOffset="22.20632615414155" xlink:href="#id19">July</textPath></text><line stroke="#e1ed5e" stroke-width="0.3" x1="58.666819895761336" x2="56.23545636021788" y1="174.27360380694188" y2="178.64263932499728" /><path d="M 58.180547188652646 175.14741091055294 a86.0,86.0 0 0,1 -31.652253787137756,-30.449443065178592" fill="none" id="id20" stroke="none" /><text fill="#e1ed5e" style="font-size:6.75px; font-family:Arial;" text-anchor="middle"><textPath startOffset="22.20632615414155" xlink:href="#id20">August</textPath></text><line stroke="#e1ed5e" stroke-width="0.3" x1="26.63291911575756" x2="22.317208475507996" y1="142.92168965132927" y2="145.44649492493687" /><path d="M 25.769776987707644 143.4266507060508 a86.0,86.0 0 0,1 -11.730757126820373,-40.83630448921669" fill="none" id="id21" stroke="none" /><text fill="#e1ed5e" style="font-size:6.75px; font-family:Arial;" text-anchor="middle"><textPath startOffset="21.46611528233685" xlink:href="#id21">September</textPath></text><line stroke="#e1ed5e" stroke-width="0.3" x1="15.007084014347285" x2="10.007500721073583" y1="101.09737516637583" y2="101.16192664675087" /><path d="M 14.007167355692545 101.11028546245083 a86.0,86.0 0 0,1 10.666146001902534,-42.60595125391555" fill="none" id="id22" stroke="none" /><text fill="#e1ed5e" style="font-size:6.75px; font-family:Arial;" text-anchor="middle"><textPath startOffset="22.20632615414155" xlink:href="#id22">October</textPath></text><line stroke="#e1ed5e" stroke-width="0.3" x1="26.266209847984243" x2="21.928928074336255" y1="57.711370442889674" y2="55.22380399835377" /><path d="M 25.398753493254645 57.213857153982495 a86.0,86.0 0 0,1 29.58750427330803,-30.492523968695096" fill="none" id="id23" stroke="none" /><text fill="#e1ed5e" style="font-size:6.75px; font-family:Arial;" text-anchor="middle"><textPath startOffset="21.46611528233685" xlink:href="#id23">November</textPath></text><line stroke="#e1ed5e" stroke-width="0.3" x1="56.762969772571076" x2="54.21961505331055" y1="26.818313649435495" y2="22.513508569990535" /><path d="M 56.25429882871897 25.957352633546506 a86.0,86.0 0 0,1 42.265352541879196,-11.944610805530505" fill="none" id="id24" stroke="none" /><text fill="#e1ed5e" style="font-size:6.75px; font-family:Arial;" text-anchor="middle"><textPath startOffset="22.20632615414155" xlink:href="#id24">December</textPath></text></svg>