<?xml version="1.0" encoding="utf-8" ?>
<svg baseProfile="full" height="200mm" version="1.1" viewBox="0,0,200,200" width="200mm" xmlns="http://www.w3.org/2000/svg" xmlns:ev="http://www.w3.org/2001/xml-events" xmlns:xlink="http://www.w3.org/1999/xlink"><defs /><rect fill="#1a1a1a" height="200" width="200" x="0" y="0" /><text alignment-baseline="middle" fill="#e1ed5e" style="dominant-baseline: central; font-size:9.0px; font-family:Arial;" text-anchor="middle" x="100.0" y="100.0">2026</text><line stroke="#e1ed5e" stroke-width="0.3" x1="100.0" x2="100.0" y1="15.0" y2="10.0" /><path d="M 100.0 14.0 a86.0,86.0 0 0,1 42.46469731375804,11.215312516191453" fill="none" id="id25" stroke="none" /><text fill="#e1ed5e" style="font-size:6.75px; font-family:Arial;" text-anchor="middle"><textPath startOffset="22.20632615414155" xlink:href="#id25">January</textPath></text><path d="M 100.0 79.0 l 0.0 -26.147424766540425 a47.147424766540425,47.147424766540425 0 0,0 0.8115654143368813,0.006985399741542999 l -0.45008493506435293 26.14355074340744" fill="#d4ff1c" stroke="none" /><path d="M 100.36148047927253 79.00311137660856 l 0.28743132245194486 -16.695682921919417 a37.69815693405707,37.69815693405707 0 0,0 0.6487195151529584,0.016754511167404798 l -0.5747774727997711 16.68826161860965" fill="#ffae10" stroke="none" /><path d="M 100.72285384407766 79.0124445844662 l 0.872343525623712 -25.327883686875445 a46.342901871778395,46.342901871778395 0 0,0 0.7970078030797321,0.03432083255106209 l -1.3081921610927756 25.309115127800187" fill="#deff1b" stroke="none" /><path d="M 101.08401301168833 79.027996857942 l 1.1248233840981763 -21.761546486260908 a42.79059735571993,42.79059735571993 0 0,0 0.7352605466079571,0.04435292408084896 l -1.4992459795457453 21.738960292799753" fill="#fff316" stroke="none" /><path d="M 101.44485096284872 79.0497635885617 l 1.5129953645543275 -21.938325399546645 a42.99043601908694,42.99043601908694 0 0,0 0.737817852612834,0.05726886552559753 l -1.8904034065295026 21.909031271832582" fill="#fff617" stroke="none" /><path d="M 101.80526077348638 79.07773832637324 l 4.586187750841498 -53.152110551972704 a74.34960144382615,74.34960144382615 0 0,0 1.2741215890708537,0.12099319737410849 l -5.500434467002597 53.06529181008342" fill="#40ffc8" stroke="none" /><path d="M 102.16513564639614 79.11191278185805 l 1.3877306065403938 -13.38809325547325 a34.459823076607556,34.459823076607556 0 0,0 0.5894817066800654,0.06623513819328813 l -1.6179790167301846 13.36222216380936" fill="#ff810b" stroke="none" /><path d="M 102.52436894288641 79.15227682838746 l 3.6867369691659158 -30.447241856746082 a51.66963589876811,51.66963589876811 0 0,0 0.8820382596700298,0.11451388077272316 l -4.210289957343791 30.379269652809224" fill="#9dff22" stroke="none" /><path d="M 107.08798089147638 80.2323363322302 l 3.8754748608832545 -10.808308427434252 a32.48210940811332,32.48210940811332 0 0,0 0.5246907432105197,0.19324802877176733 l -4.060947929866351 10.73999713085616" fill="#ff6409" stroke="none" /><line stroke="#e1ed5e" stroke-width="0.3" x1="143.23703022742887" x2="145.7803849466894" y1="26.81831364943548" y2="22.513508569990506" /><path d="M 143.74570117128098 25.957352633546492 a86.0,86.0 0 0,1 28.547481713284135,27.462654790039103" fill="none" id="id26" stroke="none" /><text fill="#e1ed5e" style="font-size:6.75px; font-family:Arial;" text-anchor="middle"><textPath startOffset="19.985693538727396" xlink:href="#id26">February</textPath></text><path d="M 110.68208982089419 81.91981866633111 l 3.9745103200206966 -6.727135654481622 a28.81351946294043,28.81351946294043 0 0,0 0.4248456491191791,0.2559647499638922 l -4.089718035357514 6.657724295059116" fill="#ff2e04" stroke="none" /><path d="M 112.48926042617603 83.11751280151076 l 5.552878972485341 -7.506161691629264 a30.33685858433941,30.33685858433941 0 0,0 0.4171373618626677,0.31417921279052125 l -5.681262488106391 7.409465889332895" fill="#ff4506" stroke="none" /><path d="M 112.77801427241765 83.33499621200491 l 5.988138191486279 -7.809691202142933 a30.84119279727642,30.84119279727642 0 0,0 0.4185112336797735,0.32665465620225337 l -6.121681980325483 7.705458156717456" fill="#ff4c07" stroke="none" /><path d="M 113.6212207817346 84.01681056812373 l 7.935950176393926 -9.312072465731166 a33.234949889935606,33.234949889935606 0 0,0 0.43222242460025984,0.3748190274228474 l -8.09506639964095 9.174088444888648" fill="#ff6f0a" stroke="none" /><path d="M 114.42810811169701 84.74124197986012 l 7.655642264711543 -8.096390178230335 a32.142728229808995,32.142728229808995 0 0,0 0.39874853808939986,0.38359577771395 l -7.793874046413361 7.963411313754083" fill="#ff5f08" stroke="none" /><path d="M 115.4437574822437 85.77008943001954 l 13.844459991568218 -12.756314504173826 a39.82531891330207,39.82531891330207 0 0,0 0.46018413803843905,0.5081468189962192 l -14.061987770222693 12.516114897908057" fill="#ffcb13" stroke="none" /><path d="M 115.9244219780498 86.31012108654704 l 10.621107626878091 -9.130735014378178 a35.006364593445355,35.006364593445355 0 0,0 0.3888863485738651,0.46031877564287876 l -10.776704588939074 8.946557289106194" fill="#ff890c" stroke="none" /><path d="M 116.82858285166822 87.43820079747576 l 13.86996525232756 -10.35332089347356 a38.30800940674606,38.30800940674606 0 0,0 0.3898978024000632,0.5318201642977228 l -14.046125667241249 10.113038285504343" fill="#ffb711" stroke="none" /><line stroke="#e1ed5e" stroke-width="0.3" x1="172.23445277983987" x2="176.4835382374775" y1="55.19839476539836" y2="52.563006222186495" /><path d="M 173.08426987136738 54.67131705675599 a86.0,86.0 0 0,1 12.851231095245387,41.99856678651699" fill="none" id="id27" stroke="none" /><text fill="#e1ed5e" style="font-size:6.75px; font-family:Arial;" text-anchor="middle"><textPath startOffset="22.20632615414155" xlink:href="#id27">March</textPath></text><path d="M 117.84615892207809 88.93136811851018 l 8.150930950546474 -5.055410218914225 a30.591394468067655,30.591394468067655 0 0,0 0.27369712994971984,0.4498861178225669 l -8.236743878782418 4.914356327884576" fill="#ff4806" stroke="none" /><path d="M 118.03404312379186 89.2402003453031 l 13.151420693387749 -7.8466404268935666 a36.3143603275954,36.3143603275954 0 0,0 0.31565881693338554,0.5395632404480337 l -13.284539184791461 7.619097774091637" fill="#ff9b0e" stroke="none" /><path d="M 118.3937258080291 89.86733742301442 l 23.939708640465447 -13.187811560140604 a48.33181339640958,48.33181339640958 0 0,0 0.3951514719165727,0.7321556643535673 l -24.163168211600485 12.773774912454579" fill="#c5ff1e" stroke="none" /><path d="M 119.196687751892 91.48605970444005 l 4.423645050798999 -1.9619348055260168 a25.839196598258113,25.839196598258113 0 0,0 0.176825361970052,0.4081373149922457 l -4.456761122611732 1.8854983459471684" fill="#ff0000" stroke="none" /><path d="M 119.34039704204932 91.81776055985345 l 21.089888651590048 -8.92238759825658 a43.89961580005196,43.89961580005196 0 0,0 0.2884378540207241,0.6984751421965392 l -21.240348192496967 8.558037885606739" fill="#fdff18" stroke="none" /><path d="M 119.47837535516314 92.15188598940014 l 19.985581713794065 -8.052474654485977 a42.54682864135413,42.54682864135413 0 0,0 0.2678554846888107,0.6816629921386733 l -20.121230748364578 7.707262657451518" fill="#fff016" stroke="none" /><path d="M 119.61058180528143 92.48833698450437 l 19.380796484083078 -7.4236457442138315 a41.75393428950355,41.75393428950355 0 0,0 0.25130979553323335,0.6733853086596389 l -19.505710868117937 7.0889372985248595" fill="#ffe515" stroke="none" /><path d="M 120.28053869075195 94.5502522615342 l 16.705469502769283 -4.489061953972717 a38.298103610932614,38.298103610932614 0 0,0 0.1656003947754232,0.638125873722181 l -16.78026622941501 4.200839654701686" fill="#ffb710" stroke="none" /><path d="M 120.6074358757038 95.95851677861258 l 61.822307627111385 -12.124449664162288 a84.0,84.0 0 0,0 0.26605710436056285,1.4212876901497489 l -62.02185045538181 11.058483896549978" fill="#4dd2ff" stroke="none" /><path d="M 120.87857604477298 97.74499172005257 l 6.861420771574175 -0.7410735587964892 a27.901324874553932,27.901324874553932 0 0,0 0.047462643894904614,0.4779423468162886 l -6.873160541151308 0.6228556812757656" fill="#ff2003" stroke="none" /><path d="M 120.94382443527127 98.46500227214037 l 37.666325255063086 -2.7606096423332103 a58.76735394249307,58.76735394249307 0 0,0 0.0652580934368224,1.009513821551811 l -37.70826393950433 2.1118367565283642" fill="#4dff2c" stroke="none" /><line stroke="#e1ed5e" stroke-width="0.3" x1="184.98032266829074" x2="189.97916517819016" y1="98.17113171792111" y2="98.06355123074" /><path d="M 185.9800911702706 98.14961562048488 a86.0,86.0 0 0,1 -9.607161424134198,41.387399972396054" fill="none" id="id28" stroke="none" /><text fill="#e1ed5e" style="font-size:6.75px; font-family:Arial;" text-anchor="middle"><textPath startOffset="21.466115282336823" xlink:href="#id28">April</textPath></text><path d="M 120.13307415673323 105.97154293290107 l 5.222035894533801 1.5488748165629809 a26.44689563707461,26.44689563707461 0 0,0 -0.13320826232032665,0.43533230864130346 l -5.194600859707341 -1.6385340977563416" fill="#ff0901" stroke="none" /><line stroke="#e1ed5e" stroke-width="0.3" x1="174.80103733775053" x2="179.2010983576182" y1="140.37084112569926" y2="142.7455964860345" /><path d="M 175.68104954172406 140.8457921977663 a86.0,86.0 0 0,1 -30.038265399797805,32.042727171017184" fill="none" id="id29" stroke="none" /><text fill="#e1ed5e" style="font-size:6.75px; font-family:Arial;" text-anchor="middle"><textPath startOffset="22.206326154141568" xlink:href="#id29">May</textPath></text><line stroke="#e1ed5e" stroke-width="0.3" x1="143.8653032363475" x2="146.44561519142675" y1="172.8068346515853" y2="177.08958963109032" /><path d="M 144.38136562736335 173.6633856474863 a86.0,86.0 0 0,1 -40.68145358897372,12.25698825130547" fill="none" id="id30" stroke="none" /><text fill="#e1ed5e" style="font-size:6.75px; font-family:Arial;" text-anchor="middle"><textPath startOffset="21.466115282336833" xlink:href="#id30">June</textPath></text><line stroke="#e1ed5e" stroke-width="0.3" x1="102.19456741930631" x2="102.32365962044197" y1="184.97166512339345" y2="189.96999836594603" /><path d="M 102.22038585953345 185.97133177190398 a86.0,86.0 0 0,1 -42.740103519485714,-10.115201625700543" fill="none" id="id31" stroke="none" /><text fill="#e1ed5e" style="font-size:6.75px; font-family:Arial;" text-anchor="middle"><textPath startOffset="22.20632615414155" xlink:href="#id31">July</textPath></text><line stroke="#e1ed5e" stroke-width="0.3" x1="58.666819895761336" x2="56.23545636021788" y1="174.27360380694188" y2="178.64263932499728" /><path d="M 58.180547188652646 175.14741091055294 a86.0,86.0 0 0,1 -31.652253787137756,-30.449443065178592" fill="none" id="id32" stroke="none" /><text fill="#e1ed5e" style="font-size:6.75px; font-family:Arial;" text-anchor="middle"><textPath startOffset="22.20632615414155" xlink:href="#id32">August</textPath></text><line stroke="#e1ed5e" stroke-width="0.3" x1="26.63291911575756" x2="22.317208475507996" y1="142.92168965132927" y2="145.44649492493687" /><path d="M 25.769776987707644 143.4266507060508 a86.0,86.0 0 0,1 -11.730757126820373,-40.83630448921669" fill="none" id="id33" stroke="none" /><text fill="#e1ed5e" style="font-size:6.75px; font-family:Arial;" text-anchor="middle"><textPath startOffset="21.46611528233685" xlink:href="#id33">September</textPath></text><line stroke="#e1ed5e" stroke-width="0.3" x1="15.007084014347285" x2="10.007500721073583" y1="101.09737516637583" y2="101.16192664675087" /><path d="M 14.007167355692545 101.11028546245083 a86.0,86.0 0 0,1 10.666146001902534,-42.60595125391555" fill="none" id="id34" stroke="none" /><text fill="#e1ed5e" style="font-size:6.75px; font-family:Arial;" text-anchor="middle"><textPath startOffset="22.20632615414155" xlink:href="#id34">October</textPath></text><line stroke="#e1ed5e" stroke-width="0.3" x1="26.266209847984243" x2="21.928928074336255" y1="57.711370442889674" y2="55.22380399835377" /><path d="M 25.398753493254645 57.213857153982495 a86.0,86.0 0 0,1 29.58750427330803,-30.492523968695096" fill="none" id="id35" stroke="none" /><text fill="#e1ed5e" style="font-size:6.75px; font-family:Arial;" text-anchor="middle"><textPath startOffset="21.46611528233685" xlink:href="#id35">November</textPath></text><line stroke="#e1ed5e" stroke-width="0.3" x1="56.762969772571076" x2="54.21961505331055" y1="26.818313649435495" y2="22.513508569990535" /><path d="M 56.25429882871897 25.957352633546506 a86.0,86.0 0 0,1 42.265352541879196,-11.944610805530505" fill="none" id="id36" stroke="none" /><text fill="#e1ed5e" style="font-size:6.75px; font-family:Arial;" text-anchor="middle"><textPath startOffset="22.20632615414155" xlink:href="#id36">December</textPath></text></svg>