<?xml version="1.0" encoding="utf-8" ?>
<svg baseProfile="full" height="200mm" version="1.1" viewBox="0,0,200,200" width="200mm" xmlns="http://www.w3.org/2000/svg" xmlns:ev="http://www.w3.org/2001/xml-events" xmlns:xlink="http://www.w3.org/1999/xlink"><defs /><rect fill="#1a1a1a" height="200" width="200" x="0" y="0" /><text alignment-baseline="middle" fill="#e1ed5e" style="dominant-baseline: central; font-size:9.0px; font-family:Arial;" text-anchor="middle" x="100.0" y="100.0">2025</text><line stroke="#e1ed5e" stroke-width="0.3" x1="100.0" x2="100.0" y1="15.0" y2="10.0" /><path d="M 100.0 14.0 a86.0,86.0 0 0,1 42.46469731375804,11.215312516191453" fill="none" id="id13" stroke="none" /><text fill="#e1ed5e" style="font-size:6.75px; font-family:Arial;" text-anchor="middle"><textPath startOffset="22.20632615414155" xlink:href="#id13">January</textPath></text><path d="M 100.72285384407766 79.0124445844662 l 0.6511067447677924 -18.904428605035868 a39.91563799812157,39.91563799812157 0 0,0 0.6864713616214454,0.029560900862287125 l -0.9764189387785693 18.890419977649387" fill="#ff860c" stroke="none" /><path d="M 103.2404852339499 79.25152402106235 l 4.150173309990652 -26.57311020232854 a47.89524352609688,47.89524352609688 0 0,0 0.8134683109821368,0.13422924137750236 l -4.606970827111664 26.497734698011413" fill="#ffff18" stroke="none" /><path d="M 104.307194497241 79.44645832069477 l 9.10301544657073 -43.43876449236229 a65.38232926338387,65.38232926338387 0 0,0 1.099535490054939,0.24031587058021894 l -9.849393660779198 43.2756351236862" fill="#32ff44" stroke="none" /><path d="M 105.71112130821622 79.79150937346287 l 2.9520167650260896 -10.445549990259753 a31.85467261505434,31.85467261505434 0 0,0 0.5263753813638816,0.153663407983458 l -3.1313823641133984 10.393188253357591" fill="#ff0000" stroke="none" /><path d="M 106.0581310904928 79.89281104454417 l 6.267641796057598 -20.802563697609155 a42.726251174023886,42.726251174023886 0 0,0 0.7023679464051854,0.21822913990006423 l -6.624795115173502 20.69159442282657" fill="#ffb210" stroke="none" /><path d="M 107.4271985657038 80.35727306442388 l 8.11717664257609 -21.4675133386379 a43.95087548638132,43.95087548638132 0 0,0 0.7053421405673311,0.27366179239249855 l -8.485501948143089 21.324608842354856" fill="#ffc512" stroke="none" /><path d="M 107.76421540070413 80.48803036053334 l 13.863703012554764 -34.84037192567052 a58.49738360391789,58.49738360391789 0 0,0 0.932381803767005,0.38034194846943653 l -14.461368685910156 34.5965690910175" fill="#70ff27" stroke="none" /><path d="M 108.76106565485865 80.91482961587045 l 6.217265027310805 -13.543736235296027 a35.90258956125051,35.90258956125051 0 0,0 0.5594337892956559,0.26266166526245577 l -6.449477027906059 13.434709587393568" fill="#ff4506" stroke="none" /><path d="M 109.73455568895987 81.39251694778311 l 12.009337059117486 -22.955699565140186 a46.90730242855226,46.90730242855226 0 0,0 0.7122202730161176,0.38044340409516114 l -12.402702378661916 22.74557743454327" fill="#fff116" stroke="none" /><path d="M 110.05341064243156 81.56283822128135 l 8.476368683846722 -15.544991274955816 a38.70580638668993,38.70580638668993 0 0,0 0.5822015166951011,0.3239945137046161 l -8.742694289613858 15.396781363691021" fill="#ff730a" stroke="none" /><path d="M 110.36928655335952 81.73862282372117 l 12.283180262599453 -21.631940302284278 a45.87603984972495,45.87603984972495 0 0,0 0.6833416745973702,0.3958356045799323 l -12.653718669662151 21.417300540314297" fill="#ffe215" stroke="none" /><line stroke="#e1ed5e" stroke-width="0.3" x1="143.23703022742887" x2="145.7803849466894" y1="26.81831364943548" y2="22.513508569990506" /><path d="M 143.74570117128098 25.957352633546492 a86.0,86.0 0 0,1 28.547481713284135,27.462654790039103" fill="none" id="id14" stroke="none" /><text fill="#e1ed5e" style="font-size:6.75px; font-family:Arial;" text-anchor="middle"><textPath startOffset="19.985693538727396" xlink:href="#id14">February</textPath></text><path d="M 110.68208982089419 81.91981866633111 l 16.55093287659076 -28.01360713751172 a53.537602307795524,53.537602307795524 0 0,0 0.789393931345126,0.475601011046455 l -17.030688874153523 27.72455951700665" fill="#b0ff20" stroke="none" /><path d="M 110.99172775467656 82.1063720568725 l 20.231754900119636 -32.93563149480863 a59.65332751911981,59.65332751911981 0 0,0 0.8703160499582344,0.5449918306408985 l -20.795690102450134 32.58249532284479" fill="#62ff29" stroke="none" /><path d="M 111.60114157652 82.49532879139004 l 10.565241976469823 -15.941628314563284 a40.124849054072186,40.124849054072186 0 0,0 0.5724388768688636,0.38651328497394183 l -10.838085547745228 15.757403117290671" fill="#ff890c" stroke="none" /><path d="M 111.90073688211348 82.69761687909136 l 13.716465505093916 -19.94225597833024 a45.20402857909566,45.20402857909566 0 0,0 0.637309772744806,0.44647622359222267 l -14.057706417422374 19.703194911974084" fill="#ffd814" stroke="none" /><path d="M 112.19680574252982 82.90503203632743 l 36.590417227589455 -51.28490389101772 a84.0,84.0 0 0,0 1.1698187345848452,0.8499230607333006 l -37.46778127852809 50.647461595467746" fill="#4dd2ff" stroke="none" /><line stroke="#e1ed5e" stroke-width="0.3" x1="172.23445277983987" x2="176.4835382374775" y1="55.19839476539836" y2="52.563006222186495" /><path d="M 173.08426987136738 54.67131705675599 a86.0,86.0 0 0,1 12.851231095245387,41.99856678651699" fill="none" id="id15" stroke="none" /><text fill="#e1ed5e" style="font-size:6.75px; font-family:Arial;" text-anchor="middle"><textPath startOffset="22.20632615414155" xlink:href="#id15">March</textPath></text><line stroke="#e1ed5e" stroke-width="0.3" x1="184.98032266829074" x2="189.97916517819016" y1="98.17113171792111" y2="98.06355123074" /><path d="M 185.9800911702706 98.14961562048488 a86.0,86.0 0 0,1 -9.607161424134198,41.387399972396054" fill="none" id="id16" stroke="none" /><text fill="#e1ed5e" style="font-size:6.75px; font-family:Arial;" text-anchor="middle"><textPath startOffset="21.466115282336823" xlink:href="#id16">April</textPath></text><line stroke="#e1ed5e" stroke-width="0.3" x1="174.80103733775053" x2="179.2010983576182" y1="140.37084112569926" y2="142.7455964860345" /><path d="M 175.68104954172406 140.8457921977663 a86.0,86.0 0 0,1 -30.038265399797805,32.042727171017184" fill="none" id="id17" stroke="none" /><text fill="#e1ed5e" style="font-size:6.75px; font-family:Arial;" text-anchor="middle"><textPath startOffset="22.206326154141568" xlink:href="#id17">May</textPath></text><line stroke="#e1ed5e" stroke-width="0.3" x1="143.8653032363475" x2="146.44561519142675" y1="172.8068346515853" y2="177.08958963109032" /><path d="M 144.38136562736335 173.6633856474863 a86.0,86.0 0 0,1 -40.68145358897372,12.25698825130547" fill="none" id="id18" stroke="none" /><text fill="#e1ed5e" style="font-size:6.75px; font-family:Arial;" text-anchor="middle"><textPath startOffset="21.466115282336833" xlink:href="#id18">June</textPath></text><line stroke="#e1ed5e" stroke-width="0.3" x1="102.19456741930631" x2="102.32365962044197" y1="184.97166512339345" y2="189.96999836594603" /><path d="M 102.22038585953345 185.97133177190398 a86.0,86.0 0 0,1 -42.740103519485714,-10.115201625700543" fill="none" id="id19" stroke="none" /><text fill="#e1ed5e" style="font-size:6.75px; font-family:Arial;" text-anchor="middle"><textPath startOffset="22.20632615414155" xlink:href="#id19">July</textPath></text><line stroke="#e1ed5e" stroke-width="0.3" x1="58.666819895761336" x2="56.23545636021788" y1="174.27360380694188" y2="178.64263932499728" /><path d="M 58.180547188652646 175.14741091055294 a86.0,86.0 0 0,1 -31.652253787137756,-30.449443065178592" fill="none" id="id20" stroke="none" /><text fill="#e1ed5e" style="font-size:6.75px; font-family:Arial;" text-anchor="middle"><textPath startOffset="22.20632615414155" xlink:href="#id20">August</textPath></text><line stroke="#e1ed5e" stroke-width="0.3" x1="26.63291911575756" x2="22.317208475507996" y1="142.92168965132927" y2="145.44649492493687" /><path d="M 25.769776987707644 143.4266507060508 a86.0,86.0 0 0,1 -11.730757126820373,-40.83630448921669" fill="none" id="id21" stroke="none" /><text fill="#e1ed5e" style="font-size:6.75px; font-family:Arial;" text-anchor="middle"><textPath startOffset="21.46611528233685" xlink:href="#id21">September</textPath></text><line stroke="#e1ed5e" stroke-width="0.3" x1="15.007084014347285" x2="10.007500721073583" y1="101.09737516637583" y2="101.16192664675087" /><path d="M 14.007167355692545 101.11028546245083 a86.0,86.0 0 0,1 10.666146001902534,-42.60595125391555" fill="none" id="id22" stroke="none" /><text fill="#e1ed5e" style="font-size:6.75px; font-family:Arial;" text-anchor="middle"><textPath startOffset="22.20632615414155" xlink:href="#id22">October</textPath></text><line stroke="#e1ed5e" stroke-width="0.3" x1="26.266209847984243" x2="21.928928074336255" y1="57.711370442889674" y2="55.22380399835377" /><path d="M 25.398753493254645 57.213857153982495 a86.0,86.0 0 0,1 29.58750427330803,-30.492523968695096" fill="none" id="id23" stroke="none" /><text fill="#e1ed5e" style="font-size:6.75px; font-family:Arial;" text-anchor="middle"><textPath startOffset="21.46611528233685" xlink:href="#id23">November</textPath></text><line stroke="#e1ed5e" stroke-width="0.3" x1="56.762969772571076" x2="54.21961505331055" y1="26.818313649435495" y2="22.513508569990535" /><path d="M 56.25429882871897 25.957352633546506 a86.0,86.0 0 0,1 42.265352541879196,-11.944610805530505" fill="none" id="id24" stroke="none" /><text fill="#e1ed5e" style="font-size:6.75px; font-family:Arial;" text-anchor="middle"><textPath startOffset="22.20632615414155" xlink:href="#id24">December</textPath></text></svg>