<?xml version="1.0" encoding="utf-8" ?>
<svg baseProfile="full" height="200mm" version="1.1" viewBox="0,0,200,200" width="200mm" xmlns="http://www.w3.org/2000/svg" xmlns:ev="http://www.w3.org/2001/xml-events" xmlns:xlink="http://www.w3.org/1999/xlink"><defs /><rect fill="#1a1a1a" height="200" width="200" x="0" y="0" /><text alignment-baseline="middle" fill="#e1ed5e" style="dominant-baseline: central; font-size:9.0px; font-family:Arial;" text-anchor="middle" x="100.0" y="100.0">2026</text><line stroke="#e1ed5e" stroke-width="0.3" x1="100.0" x2="100.0" y1="15.0" y2="10.0" /><path d="M 100.0 14.0 a86.0,86.0 0 0,1 42.46469731375804,11.215312516191453" fill="none" id="id25" stroke="none" /><text fill="#e1ed5e" style="font-size:6.75px; font-family:Arial;" text-anchor="middle"><textPath startOffset="22.20632615414155" xlink:href="#id25">January</textPath></text><path d="M 100.0 79.0 l 0.0 -30.877227115305445 a51.877227115305445,51.877227115305445 0 0,0 0.892981186712877,0.007686170998259869 l -0.5315007074403486 30.872652320915744" fill="#baff1f" stroke="none" /><path d="M 100.36148047927253 79.00311137660856 l 0.33942471591918677 -19.715761610486137 a40.71868314617626,40.71868314617626 0 0,0 0.7006975018556068,0.018096949213936203 l -0.6787488529696614 19.706997869129843" fill="#ffa70f" stroke="none" /><path d="M 100.72285384407766 79.0124445844662 l 1.0301415685768691 -29.90943941639905 a50.92717423771504,50.92717423771504 0 0,0 0.875848374116983,0.03771587338547273 l -1.5448307750831836 29.88727581648938" fill="#c6ff1e" stroke="none" /><path d="M 101.08401301168833 79.027996857942 l 1.3282924573073038 -25.697988204803973 a46.73229408013175,46.73229408013175 0 0,0 0.8029897737571178,0.048438536022982766 l -1.7704442799040336 25.671316399400688" fill="#ffff18" stroke="none" /><path d="M 101.44485096284872 79.0497635885617 l 1.7866807883707883 -25.906744619764787 a46.96828151867668,46.96828151867668 0 0,0 0.8060871165772626,0.06256787433063656 l -2.232358094310392 25.872151483245684" fill="#fcff18" stroke="none" /><path d="M 101.80526077348638 79.07773832637324 l 5.415782320459128 -62.76678502088029 a84.0,84.0 0 0,0 1.4394994916390231,0.13669782193928715 l -6.4954069391883955 62.66426165442583" fill="#4dd2ff" stroke="none" /><path d="M 102.16513564639614 79.11191278185805 l 1.638756913753144 -15.8098627218971 a36.89456773578965,36.89456773578965 0 0,0 0.6311312947767356,0.07091495470330872 l -1.9106549120396048 15.77931181372319" fill="#ff6d0a" stroke="none" /><path d="M 102.52436894288641 79.15227682838746 l 4.353630069795608 -35.95483724456171 a57.21746009961977,57.21746009961977 0 0,0 0.9767436532335084,0.12680935892025744 l -4.971888451536962 35.87456956247731" fill="#76ff27" stroke="none" /><path d="M 107.08798089147638 80.2323363322302 l 4.576508720364578 -12.763421140930703 a34.55910584398285,34.55910584398285 0 0,0 0.5582409289416773,0.20560484531821732 l -4.795531975078831 12.68275302780616" fill="#ff4706" stroke="none" /><line stroke="#e1ed5e" stroke-width="0.3" x1="143.23703022742887" x2="145.7803849466894" y1="26.81831364943548" y2="22.513508569990506" /><path d="M 143.74570117128098 25.957352633546492 a86.0,86.0 0 0,1 28.547481713284135,27.462654790039103" fill="none" id="id26" stroke="none" /><text fill="#e1ed5e" style="font-size:6.75px; font-family:Arial;" text-anchor="middle"><textPath startOffset="19.985693538727396" xlink:href="#id26">February</textPath></text><path d="M 110.68208982089419 81.91981866633111 l 4.693458683565865 -7.9440058550125725 a30.22690540966005,30.22690540966005 0 0,0 0.445685549318193,0.2685205566545632 l -4.829506299101696 7.8620386888993945" fill="#ff0000" stroke="none" /><path d="M 112.48926042617603 83.11751280151076 l 6.557338120602971 -8.863949753599675 a32.02580103494765,32.02580103494765 0 0,0 0.4403606298957092,0.3316704968041704 l -6.708944904257063 8.749762667289657" fill="#ff1e03" stroke="none" /><path d="M 112.77801427241765 83.33499621200491 l 7.071331291216101 -9.222384655545394 a32.62136416110308,32.62136416110308 0 0,0 0.44266794248587044,0.34550935059277793 l -7.229031788861401 9.099296915729393" fill="#ff2803" stroke="none" /><path d="M 113.6212207817346 84.01681056812373 l 9.371482589973043 -10.996531360384784 a35.448127487466806,35.448127487466806 0 0,0 0.46100492586606107,0.39977892889307304 l -9.559381314485869 10.83358743807204" fill="#ff5607" stroke="none" /><line stroke="#e1ed5e" stroke-width="0.3" x1="172.23445277983987" x2="176.4835382374775" y1="55.19839476539836" y2="52.563006222186495" /><path d="M 173.08426987136738 54.67131705675599 a86.0,86.0 0 0,1 12.851231095245387,41.99856678651699" fill="none" id="id27" stroke="none" /><text fill="#e1ed5e" style="font-size:6.75px; font-family:Arial;" text-anchor="middle"><textPath startOffset="22.20632615414155" xlink:href="#id27">March</textPath></text><line stroke="#e1ed5e" stroke-width="0.3" x1="184.98032266829074" x2="189.97916517819016" y1="98.17113171792111" y2="98.06355123074" /><path d="M 185.9800911702706 98.14961562048488 a86.0,86.0 0 0,1 -9.607161424134198,41.387399972396054" fill="none" id="id28" stroke="none" /><text fill="#e1ed5e" style="font-size:6.75px; font-family:Arial;" text-anchor="middle"><textPath startOffset="21.466115282336823" xlink:href="#id28">April</textPath></text><line stroke="#e1ed5e" stroke-width="0.3" x1="174.80103733775053" x2="179.2010983576182" y1="140.37084112569926" y2="142.7455964860345" /><path d="M 175.68104954172406 140.8457921977663 a86.0,86.0 0 0,1 -30.038265399797805,32.042727171017184" fill="none" id="id29" stroke="none" /><text fill="#e1ed5e" style="font-size:6.75px; font-family:Arial;" text-anchor="middle"><textPath startOffset="22.206326154141568" xlink:href="#id29">May</textPath></text><line stroke="#e1ed5e" stroke-width="0.3" x1="143.8653032363475" x2="146.44561519142675" y1="172.8068346515853" y2="177.08958963109032" /><path d="M 144.38136562736335 173.6633856474863 a86.0,86.0 0 0,1 -40.68145358897372,12.25698825130547" fill="none" id="id30" stroke="none" /><text fill="#e1ed5e" style="font-size:6.75px; font-family:Arial;" text-anchor="middle"><textPath startOffset="21.466115282336833" xlink:href="#id30">June</textPath></text><line stroke="#e1ed5e" stroke-width="0.3" x1="102.19456741930631" x2="102.32365962044197" y1="184.97166512339345" y2="189.96999836594603" /><path d="M 102.22038585953345 185.97133177190398 a86.0,86.0 0 0,1 -42.740103519485714,-10.115201625700543" fill="none" id="id31" stroke="none" /><text fill="#e1ed5e" style="font-size:6.75px; font-family:Arial;" text-anchor="middle"><textPath startOffset="22.20632615414155" xlink:href="#id31">July</textPath></text><line stroke="#e1ed5e" stroke-width="0.3" x1="58.666819895761336" x2="56.23545636021788" y1="174.27360380694188" y2="178.64263932499728" /><path d="M 58.180547188652646 175.14741091055294 a86.0,86.0 0 0,1 -31.652253787137756,-30.449443065178592" fill="none" id="id32" stroke="none" /><text fill="#e1ed5e" style="font-size:6.75px; font-family:Arial;" text-anchor="middle"><textPath startOffset="22.20632615414155" xlink:href="#id32">August</textPath></text><line stroke="#e1ed5e" stroke-width="0.3" x1="26.63291911575756" x2="22.317208475507996" y1="142.92168965132927" y2="145.44649492493687" /><path d="M 25.769776987707644 143.4266507060508 a86.0,86.0 0 0,1 -11.730757126820373,-40.83630448921669" fill="none" id="id33" stroke="none" /><text fill="#e1ed5e" style="font-size:6.75px; font-family:Arial;" text-anchor="middle"><textPath startOffset="21.46611528233685" xlink:href="#id33">September</textPath></text><line stroke="#e1ed5e" stroke-width="0.3" x1="15.007084014347285" x2="10.007500721073583" y1="101.09737516637583" y2="101.16192664675087" /><path d="M 14.007167355692545 101.11028546245083 a86.0,86.0 0 0,1 10.666146001902534,-42.60595125391555" fill="none" id="id34" stroke="none" /><text fill="#e1ed5e" style="font-size:6.75px; font-family:Arial;" text-anchor="middle"><textPath startOffset="22.20632615414155" xlink:href="#id34">October</textPath></text><line stroke="#e1ed5e" stroke-width="0.3" x1="26.266209847984243" x2="21.928928074336255" y1="57.711370442889674" y2="55.22380399835377" /><path d="M 25.398753493254645 57.213857153982495 a86.0,86.0 0 0,1 29.58750427330803,-30.492523968695096" fill="none" id="id35" stroke="none" /><text fill="#e1ed5e" style="font-size:6.75px; font-family:Arial;" text-anchor="middle"><textPath startOffset="21.46611528233685" xlink:href="#id35">November</textPath></text><line stroke="#e1ed5e" stroke-width="0.3" x1="56.762969772571076" x2="54.21961505331055" y1="26.818313649435495" y2="22.513508569990535" /><path d="M 56.25429882871897 25.957352633546506 a86.0,86.0 0 0,1 42.265352541879196,-11.944610805530505" fill="none" id="id36" stroke="none" /><text fill="#e1ed5e" style="font-size:6.75px; font-family:Arial;" text-anchor="middle"><textPath startOffset="22.20632615414155" xlink:href="#id36">December</textPath></text></svg>